<?xml version="1.0" encoding="UTF-8"?>
<svg id="_Слой_1" data-name="Слой 1" xmlns="http://www.w3.org/2000/svg" viewBox="0 0 814.51 416.68">
  <defs>
    <style>
      .cls-1 {
        stroke-width: 0px;
      }

      .cls-2 {
        fill: none;
        stroke: #000;
        stroke-miterlimit: 10;
        stroke-width: .75px;
      }
    </style>
  </defs>
  <g>
    <path class="cls-2" d="M317.33,249.49c-9.32,3.7-18.64,7.39-27.96,11.09"/>
    <polygon class="cls-1" points="289.89 258.27 283.81 262.79 291.34 261.92 289.89 258.27"/>
  </g>
  <g>
    <path class="cls-2" d="M312.95,230.71c-8.87,3.07-17.74,6.14-26.6,9.22"/>
    <polygon class="cls-1" points="286.97 237.63 280.69 241.88 288.25 241.34 286.97 237.63"/>
  </g>
  <g>
    <path class="cls-2" d="M306.23,213.41c-10.71,4.82-22.93,11.2-35.79,19.69-9.15,6.04-17.17,12.19-24.11,18.06"/>
    <polygon class="cls-1" points="246.08 248.82 241.81 255.08 248.64 251.8 246.08 248.82"/>
  </g>
  <g>
    <path class="cls-2" d="M599.37,298.57c7.99,9.33,15.78,14.88,21.57,18.26,8.96,5.24,12.94,5.18,20.9,11.43,7.02,5.51,5.88,7.1,15.07,15.48,8.26,7.54,8.74,5.85,18.46,14.49,12.95,11.51,15.23,13.76,15.23,13.76,3.59,3.54,5.79,5.93,9.79,7.16,1.03.32,5.24,1.5,12.21-.57,10.2-3.03,16.5-10.11,21.82-16.26,3.97-4.58,8.99-10.37,12.9-19.33,3.35-7.69,4.4-14.29,10.8-23.06.05-.07.1-.14.15-.2"/>
    <polygon class="cls-1" points="758.98 322.05 762.05 315.12 755.93 319.59 758.98 322.05"/>
  </g>
  <g>
    <path class="cls-2" d="M317.33,249.49c-9.32,3.7-18.64,7.39-27.96,11.09"/>
    <polygon class="cls-1" points="289.89 258.27 283.81 262.79 291.34 261.92 289.89 258.27"/>
  </g>
  <g>
    <path class="cls-2" d="M312.95,230.71c-8.87,3.07-17.74,6.14-26.6,9.22"/>
    <polygon class="cls-1" points="286.97 237.63 280.69 241.88 288.25 241.34 286.97 237.63"/>
  </g>
  <g>
    <path class="cls-2" d="M306.23,213.41c-10.71,4.82-22.93,11.2-35.79,19.69-9.15,6.04-17.17,12.19-24.11,18.06"/>
    <polygon class="cls-1" points="246.08 248.82 241.81 255.08 248.64 251.8 246.08 248.82"/>
  </g>
  <g>
    <path class="cls-2" d="M266.5,60.5c-11.94,12.76-22.62,15.83-29.13,16.62-6.83.83-10.84-.61-39.75-10.11-26.68-8.77-28.73-9.33-32.38-10.11-8.95-1.9-22.81-4.73-40.61-2.91-2.05.21-12.25,1.31-25.02,5.31-9.81,3.07-17.11,6.6-23.3,9.59-4.7,2.27-8.83,4.47-12.31,6.42"/>
    <polygon class="cls-1" points="64.21 72.98 58.83 78.32 66.15 76.39 64.21 72.98"/>
  </g>
  <g>
    <path class="cls-2" d="M640.75,269.47c5.26,3.73,10.53,7.45,15.79,11.18"/>
    <polygon class="cls-1" points="654.32 281.47 661.42 284.1 656.58 278.27 654.32 281.47"/>
  </g>
  <g>
    <path class="cls-2" d="M619.37,270.25c4.74,3.68,9.48,7.35,14.22,11.03"/>
    <polygon class="cls-1" points="631.33 282.01 638.31 284.95 633.73 278.91 631.33 282.01"/>
  </g>
  <g>
    <path class="cls-2" d="M346.8,197.58c-13.3-3.88-23.59-3.75-30.57-2.89-6.38.79-9.08,2.07-15.89,1.93-7.79-.16-11.6-1.99-22.63-5.05-10.2-2.83-17.93-4.32-25.51-5.78-7.9-1.52-16.69-3.21-28.4-4.33-12.09-1.16-12.9-.34-19.01-1.93-8.9-2.31-19.02-7.13-20.22-7.7-6.34-3.04-9.08-4.98-13.96-4.81-4.97.17-8.87,2.4-10.11,3.13-1.34.79-2.5,1.65-3.48,2.51"/>
    <polygon class="cls-1" points="156.55 170.41 153.04 177.12 159.44 173.06 156.55 170.41"/>
  </g>
  <g>
    <path class="cls-2" d="M583.64,266.99c5.86,5.81,13.13,12.21,21.93,18.5,5.69,4.07,11.21,7.5,16.37,10.39"/>
    <polygon class="cls-1" points="619.86 296.85 627.2 298.72 621.78 293.43 619.86 296.85"/>
  </g>
</svg>