<?xml version="1.0" encoding="UTF-8"?>
<svg id="_Слой_1" data-name="Слой 1" xmlns="http://www.w3.org/2000/svg" viewBox="0 0 354.94 340.64">
  <defs>
    <style>
      .cls-1 {
        stroke-width: 0px;
      }

      .cls-2 {
        fill: none;
        stroke: #000;
        stroke-miterlimit: 10;
        stroke-width: .75px;
      }
    </style>
  </defs>
  <g>
    <path class="cls-2" d="M52.01,318.68c-2.46-39.23-4.31-68.43-5.98-82.46-.33-2.78-1.26-10.01,2.72-16.51,4.09-6.69,11.26-9.15,13.21-9.86,23.41-8.49,41.08-28.24,62.54-40.86,4.86-2.86,34.51-21.92,93.8-60.05,25.69-16.52,62.43-40.52,107.25-71.14"/>
    <polygon class="cls-1" points="325.53 40.14 330.5 34.43 323.34 36.89 325.53 40.14"/>
  </g>
  <g>
    <path class="cls-2" d="M82.79,330.15c3.14-7.63,6.29-16.79,8.75-27.33,1.59-6.81,2.66-13.22,3.37-19.09"/>
    <polygon class="cls-1" points="96.6 285.29 95.53 277.79 92.71 284.82 96.6 285.29"/>
  </g>
  <g>
    <path class="cls-2" d="M82.56,288.58c1.08-6.36,2.15-12.72,3.23-19.08"/>
    <polygon class="cls-1" points="87.5 271.14 86.78 263.6 83.63 270.49 87.5 271.14"/>
  </g>
  <g>
    <path class="cls-2" d="M69.4,319.53c.21-8.41.42-16.81.63-25.22"/>
    <polygon class="cls-1" points="71.95 295.69 70.18 288.33 68.03 295.6 71.95 295.69"/>
  </g>
  <g>
    <path class="cls-2" d="M73.02,273.2c-.57-12.8-1.14-25.59-1.71-38.39"/>
    <polygon class="cls-1" points="73.33 236.06 71.04 228.84 69.41 236.24 73.33 236.06"/>
  </g>
</svg>