<?xml version="1.0" encoding="UTF-8"?>
<svg id="_Слой_1" data-name="Слой 1" xmlns="http://www.w3.org/2000/svg" viewBox="0 0 1347.62 487.7">
  <defs>
    <style>
      .cls-1 {
        stroke-width: 0px;
      }

      .cls-2 {
        fill: none;
        stroke: #000;
        stroke-miterlimit: 10;
        stroke-width: .75px;
      }
    </style>
  </defs>
  <g>
    <path class="cls-2" d="M696.9,263.55c-40.19,17.65-80.37,35.3-120.55,52.94-.9-2.24-2.53-5.47-5.55-8.37-3.36-3.23-6.63-4.34-11.37-6.22-6.16-2.45-12.04-5.54-18.12-8.18-6.75-2.94-13.45-5.85-18.12-8.18-8.4-4.19-12.22-7.47-28.32-19.9-17.04-13.15-25.56-19.73-29.17-21.78-7.96-4.53-19.82-11.28-35.48-12.63-4.53-.39-14.66-.78-36.7,6.9-13.49,4.7-32.5,12.8-58.03,29.99-21.95,14.78-16.65,14.68-46.08,35.5-21.02,14.86-28.29,18.14-41.06,30.54-3.69,3.59-9.97,10-20.83,20.15-8.87,8.29-13.39,12.5-17.49,15.5-5.03,3.68-15.65,11.31-30.98,15.65-14.34,4.06-26.38,3.42-33.94,2.95-16.23-1-19.27-4.59-34.2-3.71-6.75.4-14.3.92-22.58,5.11-5.42,2.75-8.59,5.77-18.45,16.38-11.44,12.31-17.16,18.47-24.26,26.66-7.68,8.87-13.44,15.86-24.06,22.05-.31.18-.61.35-.91.52"/>
    <polygon class="cls-1" points="20.93 453.03 15.33 458.13 22.73 456.51 20.93 453.03"/>
  </g>
  <g>
    <path class="cls-2" d="M944.6,173.43c7.12-.2,17.01-.86,28.68-2.85,10.06-1.72,18.6-3.18,28.85-7.27,13.26-5.3,21.88-12.03,32.48-20.31,11.37-8.87,19.03-16.78,25.2-23.19,8.04-8.35,14.61-16.16,19.79-22.77"/>
    <polygon class="cls-1" points="1080.21 99.24 1083.23 92.29 1077.14 96.8 1080.21 99.24"/>
  </g>
  <g>
    <path class="cls-2" d="M759.47,311.99c-2.54,2.17-5.91,5.78-6.62,10.76-.73,5.05,1.81,7.78,2.2,13.88.14,2.21.02,5.19-1.05,8.84"/>
    <polygon class="cls-1" points="752.58 343.49 751.78 351.03 756.24 344.91 752.58 343.49"/>
  </g>
  <g>
    <path class="cls-2" d="M778.06,319.8c4.81,5.02,5.76,9.1,5.71,11.93-.09,5.01-3.34,7.31-5.07,13.99-.57,2.22-.83,4.33-.89,6.25"/>
    <polygon class="cls-1" points="775.88 350.73 778.2 357.94 779.8 350.54 775.88 350.73"/>
  </g>
  <g>
    <path class="cls-2" d="M983.55,194.92c7.05,1.08,16.04,1.81,26.4,1.09,6.63-.46,12.6-1.42,17.8-2.57"/>
    <polygon class="cls-1" points="1026.9 195.62 1033.55 192 1025.98 191.81 1026.9 195.62"/>
  </g>
  <g>
    <path class="cls-2" d="M968.52,208.28c7.72,3.14,14.27,4.57,18.9,5.29,6.98,1.08,13.22,1.09,25.71,1.1,1.54,0,2.98,0,4.3-.02"/>
    <polygon class="cls-1" points="1016.13 216.6 1023.42 214.56 1016.09 212.68 1016.13 216.6"/>
  </g>
  <g>
    <path class="cls-2" d="M717.4,103.57c-13.42-.65-24.26-.04-31.99.69-3.79.36-5.69.54-7.94.89-11.29,1.76-17.23,4.76-28.59,4.76h0c-9.53,2.21-12.77,3.62-19.51,3.63-8.21,0-14.31-2.07-22.01-4.77-11.74-4.11-13.15-6.54-25.64-11.8-13.5-5.69-13.31-3.47-25.41-8.62-3.55-1.51-15.59-6.82-28.82-17.02-1.69-1.3-9.26-7.21-16.56-16.56-3.23-4.13-5.03-7.17-5.9-11.12-.53-2.39-.61-4.63-.46-6.61"/>
    <polygon class="cls-1" points="506.33 38.74 505.7 31.19 502.47 38.04 506.33 38.74"/>
  </g>
  <g>
    <path class="cls-2" d="M759.47,311.99c-2.54,2.17-5.91,5.78-6.62,10.76-.73,5.05,1.81,7.78,2.2,13.88.14,2.21.02,5.19-1.05,8.84"/>
    <polygon class="cls-1" points="752.58 343.49 751.78 351.03 756.24 344.91 752.58 343.49"/>
  </g>
  <g>
    <path class="cls-2" d="M778.06,319.8c4.81,5.02,5.76,9.1,5.71,11.93-.09,5.01-3.34,7.31-5.07,13.99-.57,2.22-.83,4.33-.89,6.25"/>
    <polygon class="cls-1" points="775.88 350.73 778.2 357.94 779.8 350.54 775.88 350.73"/>
  </g>
  <g>
    <path class="cls-2" d="M968.52,208.28c7.72,3.14,14.27,4.57,18.9,5.29,6.98,1.08,13.22,1.09,25.71,1.1,1.54,0,2.98,0,4.3-.02"/>
    <polygon class="cls-1" points="1016.13 216.6 1023.42 214.56 1016.09 212.68 1016.13 216.6"/>
  </g>
  <g>
    <path class="cls-2" d="M896.96,294.25c1.76,6.88,5.73,17.84,15.4,26.54,2.49,2.24,8.17,6.85,31.72,13.77,10.05,2.95,17.23,4.52,43.82,9.83,33.1,6.6,34.56,6.68,37.5,6.38,13.9-1.39,13.04-6.27,44.09-17.54,20.64-7.49,22.05-5.71,30.07-11.13,7.37-4.99,12.84-11,24.44-14.78,3.5-1.14,7.24-2.36,11.81-2.34,13.58.04,23.76,10.94,27.99,15.25,16.92,17.27,10.26,2.25,52.45,39.11,39.93,34.89,82.21,80.09,97.29,96.47"/>
    <polygon class="cls-1" points="1311.16 456.17 1317.57 460.21 1314.04 453.51 1311.16 456.17"/>
  </g>
  <g>
    <path class="cls-2" d="M802.45,334.85c-6.92,18.89-6.14,32.86-4.1,42.18,1.97,9.04,4.26,9.71,13.4,36.79,3.71,10.99,5.5,17.29,6.87,24.79,1.17,6.4,1.75,12.14,2.03,16.91"/>
    <polygon class="cls-1" points="818.53 454.28 820.87 461.49 822.45 454.08 818.53 454.28"/>
  </g>
</svg>