<?xml version="1.0" encoding="UTF-8"?>
<svg id="_Слой_1" data-name="Слой 1" xmlns="http://www.w3.org/2000/svg" viewBox="0 0 853.32 853.32">
  <defs>
    <style>
      .cls-1 {
        stroke-width: 0px;
      }

      .cls-2 {
        fill: none;
        stroke: #000;
        stroke-miterlimit: 10;
        stroke-width: .75px;
      }
    </style>
  </defs>
  <g>
    <path class="cls-2" d="M418.51,303.05c13.35-6.38,22.24-13.7,27.98-19.37,8.9-8.78,10.08-13.43,19.84-20.74,8.61-6.44,10.1-4.62,22.72-12.68,11.35-7.25,9.54-8.34,22.63-16.93,17.44-11.46,20.77-13.41,20.77-13.41,5.24-3.07,8.71-4.88,11.4-9.14.69-1.1,3.39-5.62,3.16-14.37-.33-12.81-6.6-22.35-12.08-30.47-4.08-6.05-9.25-13.7-18.44-21.05-7.89-6.31-15.24-9.59-23.44-19.78-.33-.41-.64-.81-.94-1.2"/>
    <polygon class="cls-1" points="494.5 123.83 488.65 119.02 491.31 126.11 494.5 123.83"/>
  </g>
  <g>
    <path class="cls-2" d="M511.19,481.52c17.04,14.47,34.09,28.94,51.13,43.41"/>
    <polygon class="cls-1" points="560.04 525.56 566.89 528.8 562.58 522.57 560.04 525.56"/>
  </g>
  <g>
    <path class="cls-2" d="M585.08,484.7c6.26,5.96,13.76,12.36,22.61,18.65,10.03,7.14,19.7,12.65,28.4,16.93"/>
    <polygon class="cls-1" points="634.04 521.43 641.49 522.84 635.75 517.9 634.04 521.43"/>
  </g>
  <g>
    <path class="cls-2" d="M590.27,452.07c6.09,6.33,13.52,13.25,22.44,20.13,8.35,6.44,16.44,11.64,23.81,15.83"/>
    <polygon class="cls-1" points="634.4 489.08 641.75 490.91 636.31 485.65 634.4 489.08"/>
  </g>
  <g>
    <path class="cls-2" d="M651.38,477.95c17.04,14.47,34.09,28.94,51.13,43.41"/>
    <polygon class="cls-1" points="700.23 521.99 707.08 525.23 702.77 519 700.23 521.99"/>
  </g>
  <g>
    <path class="cls-2" d="M585.08,484.7c6.26,5.96,13.76,12.36,22.61,18.65,10.03,7.14,19.7,12.65,28.4,16.93"/>
    <polygon class="cls-1" points="634.04 521.43 641.49 522.84 635.75 517.9 634.04 521.43"/>
  </g>
  <g>
    <path class="cls-2" d="M568.94,365.76c33.8-.21,61.09,2.86,80.71,5.99,53.04,8.46,60.5,19.08,83.47,19.32,2.38.02,17.02.06,30.15,8.55,3.68,2.38,5.61,4.37,6.87,5.87,5.8,6.95,7.42,15.9,7.99,26.32.67,12.23-.58,17.88-2.63,38.82-2.78,28.42-1.89,32.5-5.21,45.86-2.02,8.11-4.45,15.07-6.64,20.55"/>
    <polygon class="cls-1" points="762.32 535.04 761.32 542.55 765.94 536.55 762.32 535.04"/>
  </g>
  <g>
    <path class="cls-2" d="M599.81,531.31c6.09,6.33,13.52,13.25,22.44,20.13,8.35,6.44,16.44,11.64,23.81,15.83"/>
    <polygon class="cls-1" points="643.95 568.32 651.3 570.15 645.85 564.89 643.95 568.32"/>
  </g>
  <g>
    <path class="cls-2" d="M547.38,341.06c2.61,1.66,6.84,3.82,12.24,4.24,6.96.54,12.46-2.05,19.09-5.85,16.83-9.63,17.62-13.66,31.27-21.75,13.27-7.86,16.98-6.69,22.59-13.62,5.19-6.4,4.05-9.9,9.7-17.81.75-1.05,7.33-10.08,18.29-15.8,5.7-2.98,7.92-2.63,38.44-6.12,14.21-1.63,20.61-2.49,28.55-6.36,3.26-1.59,6.05-3.33,8.36-4.98"/>
    <polygon class="cls-1" points="736.05 255.35 740.61 249.3 733.63 252.25 736.05 255.35"/>
  </g>
  <g>
    <path class="cls-2" d="M229.29,335.19c-15.59-23.47-31.17-46.94-46.76-70.41"/>
    <polygon class="cls-1" points="184.9 264.81 179.22 259.8 181.64 266.98 184.9 264.81"/>
  </g>
  <g>
    <path class="cls-2" d="M239.66,453.33c-5.35,2.96-12.7,7.54-20.57,14.22-7.77,6.59-12.83,12.51-18.28,18.93-8.43,9.94-8.6,11.7-18.47,24.33-8.43,10.8-8.84,10.2-21.23,25.47-15.19,18.71-17.7,23.46-19.2,26.63-2.69,5.66-6.82,14.36-6.99,25.38-.19,12.57,4.89,20.98,11.12,33.03,7.7,14.89,13.14,30.86,20.46,45.94,3.04,6.27,6.41,13.58,31.39,83.06,7.12,19.81,15.94,44.5,26.01,73.1"/>
    <polygon class="cls-1" points="221.6 822.81 225.89 829.05 225.29 821.5 221.6 822.81"/>
  </g>
  <g>
    <path class="cls-2" d="M386.88,572.42c-1.98,7.93-5.54,18.26-12.21,29.08-3.28,5.31-6.72,9.8-9.97,13.52,4.17,3.6,10.84,9.02,19.66,14.68,17.04,10.94,30.43,15.31,47.2,22.03,12.52,5.03,28.66,11.91,47.34,21.72,12.82,6.74,28.37,15.75,45.39,27.61,1.27-.02,3.16.11,5.24.9,3.48,1.32,5.73,3.82,7.58,6.49,4.79,6.95,6.27,14.34,6.5,15.42,2.84,13.87,6.4,11.55,12.71,31.47,5.1,16.11,3.31,19.35,8.49,29.16,2.8,5.29,6.06,9.53,9.06,12.81"/>
    <polygon class="cls-1" points="571.58 797.69 578.1 801.55 574.38 794.95 571.58 797.69"/>
  </g>
  <g>
    <path class="cls-2" d="M239.37,419.35c-5.54-1.59-13.97-3.42-24.28-3.29-15.54.2-27.12,4.75-36.62,8.58-18.19,7.34-16.04,10.76-37.23,19.54-6.63,2.75-13.38,5.12-22.84,10.64-10.68,6.23-14.48,10.46-16.98,14.38-.88,1.39-4.12,6.68-5.34,14.46-.56,3.58-.56,6.82-.31,9.56"/>
    <polygon class="cls-1" points="93.68 492.19 96.76 499.11 97.55 491.58 93.68 492.19"/>
  </g>
  <g>
    <path class="cls-2" d="M217.74,348.61c-32.22,2.45-50.23-6.45-60.62-14.71-17.9-14.23-19.8-31.81-43.16-58.76-9.72-11.21-19.14-19.41-26.38-25.04"/>
    <polygon class="cls-1" points="89.81 249.37 82.79 246.5 87.43 252.49 89.81 249.37"/>
  </g>
  <g>
    <path class="cls-2" d="M384.1,290.91c7.79-7.42,18.82-18.06,32.2-31.41,8.29-8.27,16.8-16.93,22.12-30.44,3.09-7.84,3.07-12.14,2.87-14.52-.61-7.16-4.08-11-10.33-21.92-1.24-2.16-3.85-7.33-9.07-17.67-10.28-20.35-8.86-21.15-16.09-34.52-9.55-17.65-11.5-15.29-15.16-25.81-3.1-8.92-3.27-15.17-9.2-24.92-2.28-3.74-2.76-3.66-7.01-10.2-1.15-1.77-5.47-8.47-10.57-18.24-2.67-5.1-3.07-6.31-9.74-20.29-1.55-3.25-3.94-7.77-5.87-11.42"/>
    <polygon class="cls-1" points="350.62 29.85 345.5 24.27 347.14 31.66 350.62 29.85"/>
  </g>
  <g>
    <path class="cls-2" d="M204.85,328.73c-25.43-32.2-50.86-64.39-76.29-96.59"/>
    <polygon class="cls-1" points="130.93 231.98 124.85 227.45 127.85 234.41 130.93 231.98"/>
  </g>
</svg>