<?xml version="1.0" encoding="UTF-8"?>
<svg id="_Слой_1" data-name="Слой 1" xmlns="http://www.w3.org/2000/svg" viewBox="0 0 853.32 853.32">
  <defs>
    <style>
      .cls-1 {
        stroke-width: 0px;
      }

      .cls-2 {
        fill: none;
        stroke: #000;
        stroke-miterlimit: 10;
        stroke-width: .75px;
      }
    </style>
  </defs>
  <g>
    <path class="cls-2" d="M401.55,612.38c-6.54,2.99-15.28,7.49-24.42,13.88-7.88,5.52-14.57,10.2-20.35,17.92-7.49,10-9.22,19.43-11.35,31.05-2.28,12.45-1.99,22.57-1.7,30.76.37,10.59,1.59,20.12,2.99,28.07"/>
    <polygon class="cls-1" points="344.56 733.09 347.83 739.92 348.41 732.37 344.56 733.09"/>
  </g>
  <g>
    <path class="cls-2" d="M218.79,453.92c-7.35-2.27-13.33-2.72-17.46-2.7-3.83.01-4.11.42-14.41,1.12-10.31.7-13.1.5-14.68.34-2.49-.25-4.75-.66-6.75-1.14"/>
    <polygon class="cls-1" points="167.35 449.98 159.78 449.81 166.25 453.75 167.35 449.98"/>
  </g>
  <g>
    <path class="cls-2" d="M532.51,565.32c10.1,6.2,19.03,10.31,25.7,13.02,3.9,1.58,11.28,3.91,26.04,8.57,15.33,4.83,16.98,5.13,19.53,5.14,6.9.03,10.68-2.07,24.67-7.88,4.54-1.89,10.91-4.48,18.74-7.48"/>
    <polygon class="cls-1" points="646.7 579.08 652.79 574.57 645.26 575.43 646.7 579.08"/>
  </g>
  <g>
    <path class="cls-2" d="M218.79,453.92c-7.35-2.27-13.33-2.72-17.46-2.7-3.83.01-4.11.42-14.41,1.12-10.31.7-13.1.5-14.68.34-2.49-.25-4.75-.66-6.75-1.14"/>
    <polygon class="cls-1" points="167.35 449.98 159.78 449.81 166.25 453.75 167.35 449.98"/>
  </g>
  <g>
    <path class="cls-2" d="M632.94,408.13c10.1,6.2,19.03,10.31,25.7,13.02,3.9,1.58,11.28,3.91,26.04,8.57,15.33,4.83,16.98,5.13,19.53,5.14,6.9.03,10.68-2.07,24.67-7.88,4.54-1.89,10.91-4.48,18.74-7.48"/>
    <polygon class="cls-1" points="747.14 421.9 753.22 417.39 745.7 418.25 747.14 421.9"/>
  </g>
  <g>
    <path class="cls-2" d="M174.85,397.53c-11.85-2.95-23.69-5.9-35.54-8.85"/>
    <polygon class="cls-1" points="141.08 387.09 133.51 387.23 140.14 390.9 141.08 387.09"/>
  </g>
  <g>
    <path class="cls-2" d="M230.85,406.37c-4.81-1.5-10.39-2.9-16.64-3.9-6.07-.97-11.69-1.39-16.73-1.48"/>
    <polygon class="cls-1" points="198.81 399.07 191.5 401.03 198.81 402.99 198.81 399.07"/>
  </g>
  <g>
    <path class="cls-2" d="M195.85,428.53c-11.85-2.95-23.69-5.9-35.54-8.85"/>
    <polygon class="cls-1" points="162.08 418.09 154.51 418.23 161.14 421.9 162.08 418.09"/>
  </g>
  <g>
    <path class="cls-2" d="M230.85,406.37c-4.81-1.5-10.39-2.9-16.64-3.9-6.07-.97-11.69-1.39-16.73-1.48"/>
    <polygon class="cls-1" points="198.81 399.07 191.5 401.03 198.81 402.99 198.81 399.07"/>
  </g>
  <g>
    <path class="cls-2" d="M262.83,289.68c-1.83-5.46-5.1-13.44-11.06-21.86-8.97-12.69-19.29-19.65-27.83-25.3-16.36-10.82-17.96-7.11-37.21-19.59-6.02-3.91-11.8-8.12-21.72-12.78-11.19-5.26-16.83-6-21.47-5.84-1.64.06-7.84.39-14.94,3.8-3.27,1.57-5.94,3.41-8.05,5.16"/>
    <polygon class="cls-1" points="120.23 210.97 116.28 217.44 122.93 213.81 120.23 210.97"/>
  </g>
  <g>
    <path class="cls-2" d="M527.7,288.21c4.37,1.55,11.63,3.38,19.07,1.17,1.91-.57,6.01-2.05,16.03-12.72,4.28-4.55,7.02-8,16.91-20.97,12.3-16.14,12.72-16.94,13.32-18.7,2.8-8.32-.2-9.64,1.41-31.24,1.07-14.36,2.45-14.49,1.43-21-.93-5.98-2.94-11.27-2.09-19.19.26-2.38.53-4.94,1.72-7.5,3.53-7.61,12.36-9.3,15.9-10.08,14.19-3.12,3.93-4.93,35.8-14.99,28.54-9,62.87-15.79,77.67-18.53"/>
    <polygon class="cls-1" points="723.9 116.66 730.74 113.4 723.19 112.81 723.9 116.66"/>
  </g>
  <g>
    <path class="cls-2" d="M387.91,251.58c1.5-7.54,1.33-13.54.89-17.64-.41-3.81-.84-4.04-2.59-14.21-1.76-10.19-1.85-12.98-1.85-14.57-.01-2.5.17-4.8.44-6.83"/>
    <polygon class="cls-1" points="386.53 200.01 385.93 192.46 382.68 199.3 386.53 200.01"/>
  </g>
  <g>
    <path class="cls-2" d="M387.91,251.58c1.5-7.54,1.33-13.54.89-17.64-.41-3.81-.84-4.04-2.59-14.21-1.76-10.19-1.85-12.98-1.85-14.57-.01-2.5.17-4.8.44-6.83"/>
    <polygon class="cls-1" points="386.53 200.01 385.93 192.46 382.68 199.3 386.53 200.01"/>
  </g>
  <g>
    <path class="cls-2" d="M413.49,255.07c1.72-12.09,3.44-24.17,5.15-36.26"/>
    <polygon class="cls-1" points="420.39 220.41 419.48 212.89 416.51 219.86 420.39 220.41"/>
  </g>
  <g>
    <path class="cls-2" d="M403.81,215.15c1.72-12.09,3.44-24.17,5.15-36.26"/>
    <polygon class="cls-1" points="410.72 180.49 409.8 172.97 406.83 179.94 410.72 180.49"/>
  </g>
</svg>