<?xml version="1.0" encoding="UTF-8"?>
<svg id="_Слой_1" data-name="Слой 1" xmlns="http://www.w3.org/2000/svg" viewBox="0 0 100 100">
  <defs>
    <style>
      .cls-1 {
        fill: none;
      }

      .cls-1, .cls-2 {
        stroke: #000;
        stroke-miterlimit: 10;
      }

      .cls-2 {
        fill: #959bcb;
      }
    </style>
  </defs>
  <path class="cls-2" d="M40.35,63.49c-.44-4.78-6.78-8.02-9.31-9.31-6.42-3.28-9.05-.82-16.18-3.84-3.4-1.44-10.01-4.24-11.53-10.52-1.29-5.32,1.34-12.11,5.66-13.76,6.14-2.33,16.46,5.44,21.04,13.55,1.59,2.81,2.32,5.39,5.26,7.08,3.43,1.97,8,1.68,11.33,0,7.53-3.8,8.06-14.35,8.09-15.17.32-9.03-5.69-11.34-4.45-18.41C51.43,6.48,58.24.02,63.41.98c5.61,1.05,8.74,10.74,8.09,18-.56,6.3-3.62,6.91-5.66,15.17-1.12,4.53-3.33,13.46,1.21,19.22,3.75,4.76,10.91,5.85,14.97,6.47,6.34.97,9.12-.42,11.94,2.02,2.67,2.32,3.88,6.79,2.43,10.11-1.93,4.43-8.2,5.98-12.74,5.26-7.32-1.16-7.79-7.83-17.19-10.92-2.46-.81-6.89-2.27-11.13-.4-4.64,2.04-6.56,6.98-8.5,12.14-4.03,10.77-1.44,15.66-5.66,19.02-3.25,2.58-8.6,2.71-11.94.4-4.14-2.86-4.69-9.13-3.84-13.35,2.26-11.26,15.63-13.47,14.97-20.63Z"/>
  <path class="cls-1" d="M49.85,49.33c-1.95.56-2.84,2.55-3.03,3.03-.92,2.26-.39,5.23,1.42,6.47,2.87,1.98,8.43-.8,8.7-4.05.25-2.96-3.91-6.37-7.08-5.46Z"/>
</svg>