<?xml version="1.0" encoding="UTF-8"?>
<svg id="_Слой_1" data-name="Слой 1" xmlns="http://www.w3.org/2000/svg" viewBox="0 0 125 125">
  <defs>
    <style>
      .cls-1 {
        fill: #a0417a;
        stroke: #000;
        stroke-miterlimit: 10;
      }
    </style>
  </defs>
  <path class="cls-1" d="M73.99,35.63c-.87,2.69-1.92,5.47-4.2,8.35-1.41,1.78-3.73,4.72-7.77,6.08-4.03,1.36-8.87.87-12.47-1.42-5.1-3.24-3.62-7.47-8.97-15.77-2.22-3.45-8.28-12.85-15.13-12.1-5.26.58-8.29,6.85-8.86,8.02-3.68,7.61.1,15.08.51,15.85,2.31,4.38,5.88,6.51,9.62,8.74,7.33,4.37,11.23,3.4,18.08,8.66,4.26,3.28,4.68,5.13,4.67,6.2-.03,3.04-3.51,5.17-6.22,6.96-7.47,4.93-15.79,10.41-19.75,16.93-4.12,6.78-5.19,17.39,0,22.2,2.67,2.47,6.98,3.39,10.44,2.31,2.06-.64,4.07-2.07,9.09-10.7,6.22-10.68,5.72-12.94,9.69-16.74,1.7-1.63,6.53-6.25,12.65-6.14,5.82.1,7.62,4.39,18.88,12.68,13.75,10.13,18.7,9.37,20.15,9.06,3.56-.76,7.14-3.31,8.51-6.94,2.08-5.55-1.69-11.81-5.74-14.72-3.23-2.32-4.92-1.28-10.61-2.92-3.58-1.03-14.85-4.28-17.5-12.42-2.05-6.3,1.96-12.76,3.33-14.96,3.03-4.87,5.64-5.22,11.16-10.29,5.91-5.43,12.94-11.89,12.73-19.87-.18-6.99-5.9-15.18-13.24-15.89-5.69-.55-10.97,3.52-13.61,7.39-3.53,5.18-1.2,8.35-5.45,21.43Z"/>
  <path class="cls-1" d="M61.48,60.99c-1.8-.13-3.51,1.31-4.04,3.08-.51,1.72.07,3.84,1.65,4.76,2.05,1.2,5.08,0,5.89-2.3.86-2.44-1.08-5.38-3.51-5.55Z"/>
</svg>