<?xml version="1.0" encoding="UTF-8"?>
<svg id="_Слой_1" data-name="Слой 1" xmlns="http://www.w3.org/2000/svg" viewBox="0 0 125 125">
  <defs>
    <style>
      .cls-1 {
        fill: #3a71c3;
        stroke: #000;
        stroke-miterlimit: 10;
      }
    </style>
  </defs>
  <path class="cls-1" d="M67.07,40.66c-.94-4.36,0-7.05,1.54-15.74,1.32-7.46,1.26-9.08.88-10.8-.37-1.7-1.25-5.75-4.95-8.34-.22-.15-5.42-3.68-10.12-1.47-5.38,2.54-5.55,10.48-5.59,11.96-.09,4.28,1.38,7.62,4.33,14.3,2.48,5.61,3.77,6.87,4.01,10.44.09,1.29.39,5.82-2.3,9.28-3.16,4.09-8.74,4.45-14.21,4.72-11.97.6-13.86-3.48-21.61-1.77-5.92,1.31-13.43,5.6-14.14,11.77-.29,2.48.47,5.71,2.7,7.64,2.94,2.55,7.41,1.79,16.24.18,8.11-1.49,8.91-2.6,13.12-2.38,2.26.12,8.43.44,12.55,4.61,2.4,2.43,2.54,4.59,4.91,16.65,2.68,13.67,3.34,15.16,4.03,16.45.97,1.82,5.25,9.56,13.98,12.15,2.27.67,9.03,2.68,13.41-1.21,3.12-2.77,3.76-7.39,3.18-10.74-.6-3.5-2.49-5.46-11.62-14.39-8.8-8.61-10.3-9.96-10.84-12.92-.93-5.02,1.6-10.76,5.74-13.86,3.67-2.75,7.71-2.77,11.36-2.78,7.18-.03,8.6,2.38,17.59,4,5.15.93,15.14,2.73,18.06-1.72,1.25-1.9.76-4.27.37-6.11-1.45-6.98-8.05-10.62-9.19-11.25-6.08-3.35-12.38-2.8-17.6-2.34-5.46.48-9.35,1.81-16.49,1.34-1.95-.13-4.73-.44-6.84-2.48-.91-.89-1.89-2.28-2.52-5.2Z"/>
  <path class="cls-1" d="M59.99,58.37c-1.65.49-2.44,1.81-2.6,2.09-1.05,1.84-.38,3.73-.22,4.21.12.33,1.1,3.1,3.31,3.34,2.42.27,4.03-2.74,4.22-3.11.33-.63,1.5-2.89.27-4.84-1.04-1.66-3.26-2.2-4.98-1.69Z"/>
</svg>