<?xml version="1.0" encoding="UTF-8"?>
<svg id="_Слой_1" data-name="Слой 1" xmlns="http://www.w3.org/2000/svg" viewBox="0 0 100 100">
  <defs>
    <style>
      .cls-1 {
        fill: #6db7a6;
        stroke: #000;
        stroke-miterlimit: 10;
      }
    </style>
  </defs>
  <path class="cls-1" d="M46.68,42.28c.12.78.21,2.08-.18,3.6-.14.54-.58,2.25-1.76,3.45-1.56,1.6-3.45,1.31-7.72,1.9-3.23.44-2.33.64-7.03,1.46-7.57,1.33-8.3.55-9.86,1.82-2.99,2.43-3.79,8.08-1.53,11.67.41.66,1.46,2.32,3.35,2.81,1.91.49,3.39-.55,8.4-3.83,11.26-7.37,1.81-.83,10.14-6.06,1.7-1.07,3.21-2.04,5.29-1.94.29.01,2.6.17,4.34,1.93,1.52,1.54,1.7,3.41,2.04,6.14,1.33,10.7,2.24,12.4,2.7,13.16.58.96,2.2,3.59,5.38,4.74.48.17,5.28,1.83,8.4-1.12,1.53-1.45,2.67-4.03,1.88-6.12-.5-1.32-1.78-2.08-4.31-3.55-3.05-1.77-3.4-1.33-4.86-2.39-2.73-1.98-3.65-5.06-4.52-7.97-.86-2.86-1.42-4.74-.77-7.05.97-3.5,3.96-5.35,5.12-6.07,2.49-1.54,4.89-1.89,8.01-2.34,3.24-.47,4.01-.1,6.93-.82,2.73-.67,4.23-1.06,5.34-2.46,1.47-1.86,1.55-4.61.6-6.71-.12-.26-1.61-3.45-4.27-3.67-2-.17-3.61,1.43-6.14,3.95-1.84,1.83-1.49,1.97-2.72,3.11-4.21,3.9-9.95,3.75-11.07,3.7-1.82-.08-3.28-.15-4.76-1.13-1.42-.95-1.94-2.14-3.69-6.86-2.13-5.75-3.2-8.63-3.56-9.93-1.05-3.83-.9-4.58-1.96-5.98-.48-.64-3.11-3.9-7.07-3.44-3.36.4-5.72,3.25-6.29,5.93-.12.55-.59,2.79.66,4.3.93,1.13,2.12,1.01,4.3,1.65.85.25,4.05,1.21,6.62,3.55,2.81,2.56,3.74,5.72,4.02,6.7.43,1.54.54,2.89.54,3.85Z"/>
  <path class="cls-1" d="M50.59,48.13c-.58.5-.55,1.51-.08,2.14.42.56,1.29.94,1.97.56.73-.41.87-1.45.48-2.14-.47-.83-1.71-1.14-2.38-.57Z"/>
</svg>