<?xml version="1.0" encoding="UTF-8"?>
<svg id="_Слой_1" data-name="Слой 1" xmlns="http://www.w3.org/2000/svg" viewBox="0 0 115 115">
  <defs>
    <style>
      .cls-1 {
        fill: none;
        stroke: #000;
        stroke-miterlimit: 10;
      }
    </style>
  </defs>
  <path class="cls-1" d="M47.35,71.73c-.36-5.12-7.06-8.73-9.73-10.16-6.79-3.65-9.65-1.09-17.21-4.48-3.6-1.62-10.6-4.76-12.08-11.51-1.25-5.72,1.71-12.92,6.37-14.57,6.62-2.35,17.47,6.2,22.17,14.97,1.63,3.04,2.36,5.81,5.46,7.69,3.62,2.19,8.51,1.98,12.11.26,8.14-3.88,8.95-15.15,9-16.03.55-9.65-5.82-12.25-4.33-19.77,1.4-7.08,8.84-13.82,14.33-12.67,5.97,1.25,9.09,11.68,8.23,19.43-.74,6.72-4.03,7.3-6.4,16.08-1.3,4.82-3.87,14.3.85,20.56,3.9,5.17,11.53,6.51,15.85,7.26,6.75,1.18,9.76-.24,12.71,2.44,2.8,2.54,3.99,7.34,2.36,10.86-2.16,4.68-8.9,6.2-13.74,5.33-7.8-1.41-8.15-8.55-18.12-12.07-2.61-.92-7.31-2.58-11.88-.69-5,2.07-7.18,7.3-9.36,12.77-4.56,11.41-1.9,16.7-6.49,20.19-3.53,2.68-9.25,2.7-12.76.16-4.36-3.15-4.8-9.87-3.8-14.36,2.68-11.99,17.01-14.04,16.47-21.7Z"/>
  <path class="cls-1" d="M57.84,56.81c-2.09.55-3.09,2.66-3.31,3.17-1.04,2.39-.53,5.58,1.36,6.95,3.03,2.19,9.03-.66,9.39-4.12.33-3.16-4.04-6.9-7.44-6Z"/>
</svg>