<?xml version="1.0" encoding="UTF-8"?>
<svg id="_Слой_1" data-name="Слой 1" xmlns="http://www.w3.org/2000/svg" viewBox="0 0 146 146">
  <defs>
    <style>
      .cls-1 {
        fill: #a0417a;
        stroke: #000;
        stroke-miterlimit: 10;
      }
    </style>
  </defs>
  <path class="cls-1" d="M90.96,92.26c3.96,2.24,5.36,4.78,10.94,11.85,4.79,6.06,6.06,7.11,7.63,8,1.55.87,5.22,2.95,9.71,1.88.26-.06,6.48-1.63,7.98-6.71,1.72-5.82-4.22-11.34-5.32-12.36-3.2-2.97-6.74-4.12-13.83-6.4-5.96-1.92-7.79-1.79-10.67-4.02-1.04-.81-4.69-3.65-5.51-8.04-.97-5.18,2.54-9.67,6.03-14.02,7.66-9.52,12.05-8.2,16-15.26,3.02-5.4,4.84-14.02.63-18.75-1.69-1.9-4.67-3.51-7.65-3.12-3.93.51-6.39,4.43-11.14,12.25-4.37,7.19-4.05,8.55-7.08,11.61-1.62,1.64-6.05,6.12-12.02,6.43-3.48.18-5.22-1.17-16.01-7.55-12.23-7.23-13.81-7.74-15.26-8.09-2.05-.49-10.84-2.48-18.73,2.41-2.05,1.27-8.16,5.06-8.17,11.03,0,4.25,3.08,7.87,6.03,9.71,3.07,1.92,5.85,1.81,18.84.9,12.52-.87,14.56-1.09,17.19.5,4.45,2.7,7.11,8.51,6.67,13.77-.39,4.66-3.12,7.75-5.58,10.54-4.85,5.49-7.64,4.93-14.97,10.68-4.2,3.29-12.34,9.68-10.93,14.92.6,2.24,2.74,3.47,4.4,4.43,6.3,3.63,13.54,1.07,14.79.63,6.68-2.36,10.52-7.53,13.71-11.82,3.33-4.48,4.96-8.36,10.16-13.47,1.42-1.4,3.54-3.31,6.52-3.53,1.29-.09,3.02.11,5.67,1.61Z"/>
  <path class="cls-1" d="M82.27,74.85c.75-1.59.28-3.09.17-3.4-.69-2.05-2.58-2.82-3.06-3.02-.33-.14-3.1-1.27-4.79.25-1.85,1.66-.64,4.93-.49,5.32.26.68,1.19,3.1,3.51,3.49,1.97.33,3.88-.99,4.66-2.65Z"/>
</svg>