<?xml version="1.0" encoding="UTF-8"?>
<svg id="_Слой_1" data-name="Слой 1" xmlns="http://www.w3.org/2000/svg" viewBox="0 0 100 100">
  <defs>
    <style>
      .cls-1 {
        fill: #e8b629;
      }

      .cls-1, .cls-2 {
        stroke: #000;
        stroke-miterlimit: 10;
      }

      .cls-2 {
        fill: none;
      }
    </style>
  </defs>
  <path class="cls-1" d="M47.4,65.2c-2.72-3.85-9.71-3.49-12.48-3.35-7.07.36-8.1,3.74-15.65,4.68-3.6.44-10.6,1.31-14.97-3.29-3.71-3.9-4.81-10.96-1.94-14.48,4.08-5,16.67-3.45,24.55,1.2,2.73,1.61,4.62,3.44,7.95,3.44,3.88,0,7.63-2.5,9.64-5.56,4.54-6.93-.19-16.17-.57-16.88-4.16-7.84-10.41-6.85-12.82-13.47-2.27-6.23.36-15.06,5.22-16.78,5.28-1.86,12.7,4.85,15.72,11.34,2.62,5.64.31,7.66,2.63,15.68,1.27,4.41,3.78,13.08,10.47,15.75,5.52,2.2,12.16-.38,15.91-1.84,5.87-2.29,7.55-4.83,11.14-4.14,3.41.66,6.63,3.87,7.03,7.41.53,4.71-4.03,9.11-8.26,10.73-6.8,2.61-10.47-2.83-19.99-.85-2.49.52-6.98,1.46-9.66,5.12-2.94,4.01-2.16,9.16-1.27,14.49,1.86,11.14,6.47,14.03,4.52,18.95-1.5,3.79-5.98,6.53-9.95,6.2-4.93-.4-8.47-5.47-9.82-9.47-3.6-10.69,6.68-19.13,2.6-24.9Z"/>
  <path class="cls-2" d="M48.53,48.49c-1.38,1.43-1.16,3.56-1.09,4.07.33,2.37,2.24,4.64,4.38,4.81,3.42.28,6.78-4.82,5.41-7.71-1.25-2.64-6.46-3.5-8.7-1.17Z"/>
</svg>