<?xml version="1.0" encoding="UTF-8"?>
<svg id="_Слой_1" data-name="Слой 1" xmlns="http://www.w3.org/2000/svg" viewBox="0 0 100 100">
  <defs>
    <style>
      .cls-1 {
        fill: #959bcb;
        stroke: #000;
        stroke-miterlimit: 10;
      }
    </style>
  </defs>
  <path class="cls-1" d="M59.35,46.02c-.94.14-2.51.25-4.35-.23-.65-.17-2.71-.71-4.17-2.13-1.93-1.9-1.57-4.17-2.27-9.33-.53-3.9-.76-2.81-1.75-8.49-1.58-9.15-.64-10.03-2.17-11.92-2.93-3.62-9.75-4.6-14.1-1.88-.79.5-2.81,1.76-3.4,4.04-.6,2.3.65,4.1,4.6,10.16,8.87,13.63,1,2.19,7.3,12.27,1.28,2.05,2.46,3.89,2.32,6.4-.02.35-.21,3.15-2.35,5.24-1.87,1.83-4.13,2.05-7.43,2.45-12.94,1.58-14.99,2.68-15.91,3.22-1.17.7-4.34,2.65-5.75,6.49-.21.58-2.23,6.38,1.32,10.15,1.75,1.86,4.87,3.24,7.39,2.29,1.59-.6,2.52-2.14,4.3-5.2,2.15-3.68,1.62-4.1,2.9-5.86,2.4-3.29,6.13-4.4,9.64-5.44,3.46-1.03,5.73-1.7,8.53-.91,4.23,1.19,6.45,4.8,7.32,6.2,1.85,3.01,2.26,5.91,2.8,9.69.56,3.92.11,4.85.97,8.38.8,3.3,1.27,5.12,2.96,6.46,2.24,1.78,5.57,1.88,8.1.74.32-.14,4.17-1.94,4.45-5.15.21-2.41-1.72-4.36-4.75-7.43-2.21-2.23-2.38-1.81-3.75-3.3-4.7-5.1-4.51-12.04-4.44-13.39.11-2.19.19-3.97,1.38-5.74,1.15-1.72,2.59-2.34,8.3-4.44,6.96-2.56,10.44-3.84,12.01-4.27,4.64-1.26,5.54-1.08,7.23-2.36.77-.58,4.72-3.74,4.17-8.53-.47-4.07-3.91-6.93-7.14-7.62-.67-.14-3.37-.72-5.2.78-1.37,1.12-1.23,2.56-2.01,5.19-.3,1.03-1.48,4.88-4.31,7.99-3.1,3.39-6.92,4.5-8.11,4.83-1.87.52-3.5.64-4.66.65Z"/>
  <path class="cls-1" d="M52.26,50.72c-.6-.7-1.83-.67-2.59-.1-.68.51-1.14,1.55-.68,2.38.49.88,1.76,1.05,2.58.59,1-.56,1.38-2.06.69-2.87Z"/>
</svg>