<?xml version="1.0" encoding="UTF-8"?>
<svg id="_Слой_1" data-name="Слой 1" xmlns="http://www.w3.org/2000/svg" viewBox="0 0 124 124">
  <defs>
    <style>
      .cls-1 {
        fill: none;
        stroke: #000;
        stroke-miterlimit: 10;
      }
    </style>
  </defs>
  <path class="cls-1" d="M53.46,59.2c.93.46,2.4,1.33,3.74,2.89.47.55,1.99,2.31,2.4,4.48.55,2.89-1.17,4.69-3.74,9.74-1.94,3.82-1.06,2.99-3.69,8.67-4.24,9.15-5.62,9.36-5.43,12,.38,5.04,5.87,10.13,11.44,10.39,1.02.05,3.6.16,5.54-1.51,1.96-1.69,1.95-4.06,2.17-11.92.49-17.66.46-2.57,1.05-15.47.12-2.63.2-4.99,1.88-7.16.23-.3,2.13-2.68,5.33-3.23,2.8-.48,4.95.72,8.15,2.4,12.54,6.58,15.05,6.87,16.2,6.95,1.47.1,5.51.32,9.15-2.25.55-.39,5.93-4.32,5.09-9.89-.42-2.74-2.35-5.9-5.19-6.61-1.79-.45-3.57.36-7.06,1.99-4.19,1.96-3.98,2.67-6.21,3.45-4.18,1.46-8.19.15-11.97-1.09-3.73-1.22-6.17-2.02-8.18-4.45-3.04-3.67-2.8-8.28-2.71-10.06.2-3.83,1.63-6.68,3.48-10.39,1.92-3.84,2.89-4.4,4.31-8.09,1.33-3.45,2.03-5.36,1.35-7.6-.9-2.98-3.81-5.12-6.78-5.67-.37-.07-4.93-.84-7.16,1.85-1.68,2.03-1.16,4.96-.34,9.57.59,3.36,1.01,3.09,1.32,5.27,1.05,7.46-3.41,13.54-4.3,14.71-1.45,1.9-2.62,3.43-4.78,4.28-2.09.83-3.76.49-10.16-1.16-7.8-2.01-11.7-3.01-13.37-3.6-4.92-1.74-5.61-2.46-7.92-2.36-1.05.04-6.53.43-9,5.04-2.09,3.92-.78,8.61,1.68,11.22.51.54,2.56,2.72,5.13,2.51,1.91-.16,2.68-1.53,5-3.4.91-.73,4.34-3.45,8.78-4.48,4.86-1.12,8.96.25,10.23.69,1.99.69,3.52,1.59,4.56,2.3Z"/>
  <path class="cls-1" d="M62.7,59.37c.1,1,1.22,1.73,2.25,1.69.92-.03,1.98-.68,2.08-1.71.11-1.09-.92-2.02-1.94-2.12-1.24-.12-2.51.99-2.39,2.14Z"/>
</svg>