<?xml version="1.0" encoding="UTF-8"?>
<svg id="_Слой_1" data-name="Слой 1" xmlns="http://www.w3.org/2000/svg" viewBox="0 0 100 100">
  <defs>
    <style>
      .cls-1 {
        fill: none;
      }

      .cls-1, .cls-2 {
        stroke: #000;
        stroke-miterlimit: 10;
      }

      .cls-2 {
        fill: #9d5187;
      }
    </style>
  </defs>
  <path class="cls-2" d="M39.72,44.26c3.77-1.25,5.2-6.97,5.76-9.25,1.44-5.79-1.03-7.45.07-13.77.52-3.01,1.54-8.87,6.32-11.27,4.05-2.03,10.02-1.19,12.15,1.99,3.03,4.52-1.31,14.3-6.99,19.51-1.97,1.81-3.91,2.88-4.73,5.57-.95,3.13.15,6.77,2.12,9.14,4.47,5.36,13.09,3.81,13.75,3.68,7.35-1.43,8.08-6.72,14.01-7.04,5.58-.3,12.06,3.99,12.25,8.33.21,4.72-7.03,9.06-13,9.9-5.19.73-6.25-1.63-13.3-1.73-3.87-.05-11.48-.16-15.27,4.58-3.13,3.91-2.68,9.9-2.42,13.29.4,5.29,2.05,7.28.6,10-1.37,2.59-4.75,4.4-7.7,3.85-3.93-.73-6.36-5.49-6.63-9.29-.44-6.12,4.86-7.75,5.59-15.91.19-2.14.54-5.98-1.76-9.05-2.51-3.36-6.86-3.99-11.38-4.58-9.44-1.23-12.9,1.77-16.4-1.01-2.69-2.14-3.8-6.43-2.56-9.55,1.53-3.88,6.49-5.49,10.05-5.6,9.51-.28,13.79,10.08,19.44,8.21Z"/>
  <path class="cls-1" d="M52.92,49.27c-.81-1.46-2.59-1.81-3.02-1.88-1.99-.32-4.29.67-4.96,2.35-1.06,2.69,2.23,6.65,4.89,6.26,2.44-.36,4.4-4.35,3.08-6.73Z"/>
</svg>