<?xml version="1.0" encoding="UTF-8"?>
<svg id="_Слой_1" data-name="Слой 1" xmlns="http://www.w3.org/2000/svg" viewBox="0 0 100 100">
  <defs>
    <style>
      .cls-1 {
        fill: none;
        stroke: #000;
        stroke-miterlimit: 10;
      }
    </style>
  </defs>
  <path class="cls-1" d="M61.94,62.8c2.63,1.49,3.57,3.18,7.27,7.87,3.18,4.03,4.03,4.73,5.07,5.32,1.03.58,3.47,1.96,6.45,1.25.18-.04,4.31-1.08,5.3-4.46,1.14-3.87-2.8-7.53-3.54-8.21-2.13-1.98-4.48-2.73-9.19-4.25-3.96-1.27-5.18-1.19-7.09-2.67-.69-.54-3.12-2.43-3.66-5.34-.64-3.44,1.69-6.43,4.01-9.32,5.09-6.33,8.01-5.45,10.63-10.14,2.01-3.59,3.22-9.32.42-12.46-1.13-1.26-3.1-2.33-5.09-2.08-2.61.34-4.25,2.94-7.41,8.14-2.9,4.78-2.69,5.68-4.71,7.71-1.08,1.09-4.02,4.07-7.99,4.27-2.31.12-3.47-.78-10.64-5.02-8.13-4.8-9.18-5.14-10.14-5.37-1.36-.33-7.21-1.65-12.45,1.6-1.36.84-5.42,3.36-5.43,7.33,0,2.83,2.05,5.23,4,6.45,2.04,1.27,3.89,1.2,12.52.6,8.32-.58,9.68-.73,11.42.33,2.96,1.79,4.72,5.66,4.43,9.15-.26,3.1-2.07,5.15-3.71,7-3.22,3.65-5.08,3.28-9.95,7.1-2.79,2.19-8.2,6.43-7.26,9.92.4,1.49,1.82,2.31,2.93,2.94,4.19,2.41,9,.71,9.83.42,4.44-1.57,6.99-5.01,9.11-7.85,2.22-2.98,3.3-5.55,6.75-8.95.94-.93,2.35-2.2,4.33-2.34.86-.06,2.01.07,3.77,1.07Z"/>
  <path class="cls-1" d="M56.16,51.23c.5-1.05.18-2.06.11-2.26-.46-1.36-1.72-1.88-2.03-2-.22-.09-2.06-.84-3.18.17-1.23,1.11-.43,3.28-.33,3.54.17.45.79,2.06,2.33,2.32,1.31.22,2.58-.66,3.1-1.76Z"/>
</svg>