<?xml version="1.0" encoding="UTF-8"?>
<svg id="_Слой_1" data-name="Слой 1" xmlns="http://www.w3.org/2000/svg" viewBox="0 0 145 145">
  <defs>
    <style>
      .cls-1 {
        fill: #a0417a;
      }

      .cls-1, .cls-2 {
        stroke: #000;
        stroke-miterlimit: 10;
      }

      .cls-2 {
        fill: none;
      }
    </style>
  </defs>
  <path class="cls-1" d="M53.1,63.49c5.92-1.96,8.15-10.94,9.04-14.5,2.26-9.09-1.62-11.68.11-21.6.82-4.72,2.42-13.91,9.92-17.68,6.35-3.19,15.72-1.86,19.06,3.12,4.75,7.08-2.05,22.42-10.96,30.59-3.09,2.83-6.13,4.52-7.41,8.73-1.49,4.91.23,10.61,3.33,14.33,7.02,8.41,20.53,5.98,21.57,5.78,11.52-2.24,12.68-10.53,21.98-11.04,8.75-.47,18.92,6.25,19.22,13.07.32,7.4-11.02,14.21-20.4,15.52-8.14,1.14-9.81-2.55-20.85-2.71-6.06-.09-18-.26-23.95,7.18-4.91,6.14-4.2,15.52-3.79,20.84.63,8.3,3.21,11.42.95,15.69-2.15,4.06-7.45,6.9-12.08,6.04-6.16-1.14-9.97-8.61-10.4-14.58-.68-9.6,7.62-12.16,8.77-24.96.3-3.36.84-9.39-2.76-14.19-3.94-5.27-10.75-6.25-17.85-7.18-14.81-1.94-20.23,2.78-25.72-1.58-4.22-3.35-5.95-10.08-4.02-14.98,2.4-6.08,10.17-8.62,15.76-8.78,14.91-.44,21.63,15.81,30.5,12.87Z"/>
  <path class="cls-2" d="M73.8,71.36c-1.28-2.3-4.06-2.84-4.73-2.95-3.13-.5-6.73,1.05-7.77,3.69-1.66,4.22,3.49,10.43,7.67,9.81,3.82-.56,6.91-6.82,4.83-10.56Z"/>
</svg>