<?xml version="1.0" encoding="UTF-8"?>
<svg id="_Слой_1" data-name="Слой 1" xmlns="http://www.w3.org/2000/svg" viewBox="0 0 100 100">
  <defs>
    <style>
      .cls-1 {
        fill: none;
        stroke: #000;
        stroke-miterlimit: 10;
      }
    </style>
  </defs>
  <path class="cls-1" d="M55.66,40.58c-.53.71-1.5,1.8-3.03,2.69-.54.31-2.25,1.3-4.15,1.31-2.51,0-3.76-1.73-7.59-4.7-2.9-2.24-2.34-1.36-6.7-4.48-7.02-5.02-6.96-6.22-9.22-6.47-4.3-.49-9.45,3.32-10.55,7.95-.2.85-.71,3,.39,4.89,1.11,1.91,3.1,2.28,9.67,3.72,14.76,3.23,2.09.8,12.83,3.35,2.19.52,4.16.97,5.71,2.72.21.24,1.91,2.22,1.86,5-.04,2.43-1.39,4.05-3.32,6.47-7.53,9.49-8.17,11.55-8.42,12.51-.32,1.22-1.14,4.58.43,8.05.24.52,2.68,5.67,7.5,5.85,2.37.09,5.33-1.03,6.38-3.31.66-1.44.27-3.06-.55-6.25-.98-3.84-1.61-3.77-1.91-5.77-.56-3.74,1.18-6.91,2.83-9.89,1.62-2.94,2.68-4.86,5.04-6.17,3.57-1.97,7.4-1.03,8.89-.67,3.19.78,5.35,2.43,8.17,4.58,2.92,2.23,3.23,3.13,6.11,4.91,2.68,1.66,4.18,2.56,6.17,2.35,2.65-.28,4.91-2.39,5.84-4.8.12-.3,1.5-4.01-.41-6.31-1.44-1.73-3.98-1.76-7.99-1.81-2.92-.04-2.76.36-4.63.27-6.44-.31-10.83-5.02-11.67-5.96-1.36-1.52-2.46-2.75-2.83-4.7-.36-1.89.19-3.23,2.59-8.35,2.93-6.23,4.4-9.35,5.16-10.66,2.25-3.86,2.96-4.32,3.25-6.28.13-.89.68-5.56-2.8-8.36-2.96-2.38-7.11-2.03-9.7-.38-.53.34-2.7,1.72-2.93,3.91-.17,1.63.86,2.5,2.06,4.75.47.88,2.21,4.19,2.36,8.1.16,4.27-1.64,7.49-2.21,8.49-.9,1.56-1.9,2.7-2.66,3.47Z"/>
  <path class="cls-1" d="M54.05,48.32c-.85-.07-1.64.75-1.78,1.63-.12.78.26,1.77,1.1,2.02.9.27,1.85-.45,2.09-1.3.3-1.03-.43-2.27-1.42-2.35Z"/>
</svg>