<?xml version="1.0" encoding="UTF-8"?>
<svg id="_Слой_1" data-name="Слой 1" xmlns="http://www.w3.org/2000/svg" viewBox="0 0 100 100">
  <defs>
    <style>
      .cls-1 {
        fill: none;
        stroke: #000;
        stroke-miterlimit: 10;
      }
    </style>
  </defs>
  <path class="cls-1" d="M38.33,48.32c2.9-2.17,2.48-7.53,2.31-9.66-.43-5.43-3.04-6.14-3.92-11.93-.42-2.76-1.22-8.12,2.22-11.57,2.92-2.93,8.32-3.92,11.09-1.79,3.92,3.03,3,12.74-.42,18.89-1.18,2.13-2.55,3.62-2.48,6.18.08,2.98,2.08,5.81,4.47,7.29,5.42,3.35,12.42-.48,12.96-.78,5.94-3.36,5.05-8.14,10.09-10.13,4.74-1.87,11.58-.03,13,3.67,1.54,4.02-3.46,9.86-8.39,12.31-4.28,2.13-5.88.4-12,2.34-3.36,1.07-9.97,3.17-11.89,8.37-1.58,4.29.54,9.33,1.74,12.19,1.88,4.46,3.87,5.7,3.41,8.48-.44,2.63-2.84,5.17-5.55,5.55-3.61.51-7.08-2.91-8.42-6.12-2.14-5.17,1.96-8.11.24-15.38-.45-1.91-1.26-5.33-4.13-7.32-3.14-2.18-7.08-1.47-11.16-.68-8.52,1.66-10.64,5.26-14.47,3.86-2.94-1.07-5.14-4.46-4.97-7.52.21-3.79,4.02-6.62,7.07-7.74,8.14-2.99,14.84,4.74,19.19,1.49Z"/>
  <path class="cls-1" d="M51.2,48.85c-1.13-1.03-2.76-.82-3.15-.75-1.82.3-3.52,1.82-3.61,3.47-.14,2.63,3.84,5.11,6.04,4,2-1.01,2.55-5.03.72-6.71Z"/>
</svg>