<?xml version="1.0" encoding="UTF-8"?>
<svg id="_Слой_1" data-name="Слой 1" xmlns="http://www.w3.org/2000/svg" viewBox="0 0 100 100">
  <defs>
    <style>
      .cls-1 {
        fill: #6db7a6;
        stroke: #000;
        stroke-miterlimit: 10;
      }
    </style>
  </defs>
  <path class="cls-1" d="M51.95,33.54c-.71-3.29,0-5.31,1.16-11.86.99-5.62.95-6.84.67-8.14-.28-1.28-.94-4.33-3.73-6.28-.16-.11-4.08-2.78-7.62-1.11-4.06,1.91-4.18,7.89-4.21,9.01-.07,3.23,1.04,5.74,3.26,10.77,1.87,4.23,2.84,5.18,3.02,7.86.06.97.29,4.38-1.73,6.99-2.38,3.08-6.58,3.35-10.7,3.56-9.02.45-10.44-2.62-16.28-1.33-4.46.99-10.12,4.22-10.65,8.86-.22,1.87.36,4.3,2.03,5.76,2.21,1.92,5.58,1.35,12.23.13,6.11-1.12,6.71-1.96,9.88-1.79,1.7.09,6.35.33,9.45,3.47,1.81,1.83,1.92,3.46,3.7,12.55,2.02,10.3,2.51,11.42,3.03,12.39.73,1.37,3.96,7.2,10.53,9.15,1.71.51,6.8,2.02,10.1-.91,2.35-2.09,2.83-5.57,2.4-8.09-.45-2.64-1.88-4.12-8.75-10.84-6.63-6.48-7.76-7.5-8.17-9.73-.7-3.78,1.21-8.1,4.33-10.44,2.77-2.07,5.81-2.09,8.56-2.09,5.41-.02,6.48,1.79,13.25,3.01,3.88.7,11.4,2.06,13.6-1.3.94-1.43.57-3.22.28-4.6-1.09-5.26-6.06-8-6.92-8.47-4.58-2.52-9.32-2.11-13.26-1.76-4.11.36-7.05,1.37-12.42,1.01-1.47-.1-3.56-.33-5.15-1.87-.69-.67-1.42-1.72-1.9-3.91Z"/>
  <path class="cls-1" d="M46.61,46.89c-1.24.37-1.84,1.37-1.96,1.57-.79,1.39-.29,2.81-.16,3.17.09.25.83,2.33,2.49,2.52,1.83.2,3.04-2.07,3.18-2.34.25-.48,1.13-2.18.2-3.65-.79-1.25-2.45-1.65-3.75-1.27Z"/>
</svg>