<?xml version="1.0" encoding="UTF-8"?>
<svg id="_Слой_1" data-name="Слой 1" xmlns="http://www.w3.org/2000/svg" viewBox="0 0 100 100">
  <defs>
    <style>
      .cls-1 {
        fill: none;
        stroke: #000;
        stroke-miterlimit: 10;
      }
    </style>
  </defs>
  <path class="cls-1" d="M55.45,59.7c1.99,1.13,2.7,2.41,5.51,5.97,2.41,3.05,3.05,3.58,3.84,4.03.78.44,2.63,1.48,4.89.95.13-.03,3.26-.82,4.02-3.38.86-2.93-2.12-5.71-2.68-6.23-1.61-1.5-3.4-2.07-6.97-3.22-3-.97-3.93-.9-5.37-2.03-.52-.41-2.36-1.84-2.78-4.05-.49-2.61,1.28-4.87,3.04-7.06,3.86-4.8,6.07-4.13,8.06-7.69,1.52-2.72,2.44-7.06.32-9.44-.85-.96-2.35-1.77-3.85-1.57-1.98.26-3.22,2.23-5.61,6.17-2.2,3.62-2.04,4.31-3.57,5.85-.82.82-3.05,3.08-6.05,3.24-1.75.09-2.63-.59-8.06-3.8-6.16-3.64-6.96-3.9-7.69-4.07-1.03-.25-5.46-1.25-9.43,1.21-1.03.64-4.11,2.55-4.12,5.56,0,2.14,1.55,3.97,3.04,4.89,1.55.97,2.95.91,9.49.46,6.31-.44,7.34-.55,8.66.25,2.24,1.36,3.58,4.29,3.36,6.94-.2,2.35-1.57,3.91-2.81,5.31-2.44,2.76-3.85,2.49-7.54,5.38-2.11,1.66-6.22,4.88-5.51,7.52.3,1.13,1.38,1.75,2.22,2.23,3.18,1.83,6.82.54,7.45.31,3.36-1.19,5.3-3.79,6.91-5.95,1.68-2.26,2.5-4.21,5.12-6.78.72-.7,1.78-1.67,3.29-1.78.65-.05,1.52.05,2.85.81Z"/>
  <path class="cls-1" d="M51.07,50.93c.38-.8.14-1.56.09-1.71-.35-1.03-1.3-1.42-1.54-1.52-.17-.07-1.56-.64-2.41.13-.93.84-.32,2.48-.25,2.68.13.34.6,1.56,1.77,1.76.99.17,1.96-.5,2.35-1.33Z"/>
</svg>