<?xml version="1.0" encoding="UTF-8"?>
<svg id="_Слой_1" data-name="Слой 1" xmlns="http://www.w3.org/2000/svg" viewBox="0 0 100 100">
  <defs>
    <style>
      .cls-1 {
        fill: none;
      }

      .cls-1, .cls-2 {
        stroke: #000;
        stroke-miterlimit: 10;
      }

      .cls-2 {
        fill: #3a71c3;
      }
    </style>
  </defs>
  <path class="cls-2" d="M35.5,55.64c2.02-4.36-1.85-10.34-3.38-12.72-3.91-6.06-7.41-5.25-12.07-11.44-2.22-2.95-6.54-8.69-4.7-14.88,1.56-5.25,7.23-9.81,11.8-9.06,6.48,1.06,11.51,12.96,11.4,22.28-.04,3.23-.69,5.83,1,8.76,1.97,3.43,6.08,5.46,9.8,5.68,8.42.49,14.17-8.37,14.61-9.07,4.81-7.65.77-12.67,5.38-18.16,4.34-5.16,13.48-7.33,17.46-3.91,4.32,3.72,2.17,13.67-2.03,19.63-3.65,5.17-6.6,4.16-12.51,10.28-3.24,3.36-9.63,9.97-8.59,17.23.86,6,6.51,10.54,9.7,13.11,5,4.02,8.1,4.21,9.31,7.74,1.15,3.34-.05,7.82-2.97,9.97-3.89,2.86-10.09,1.06-13.66-1.84-5.75-4.67-2.81-10.68-9.4-18.07-1.73-1.94-4.83-5.42-9.42-5.93-5.04-.56-9.18,2.74-13.44,6.24-8.89,7.29-9.1,12.83-14.44,13.61-4.11.6-8.8-1.97-10.53-5.64-2.15-4.55.52-10.25,3.37-13.48,7.61-8.61,20.28-3.82,23.3-10.34Z"/>
  <path class="cls-1" d="M50.83,48.16c-1.96-.49-3.73.78-4.15,1.1-1.93,1.49-2.96,4.33-2.02,6.31,1.49,3.16,7.7,3.53,9.55.86,1.7-2.44-.19-7.47-3.39-8.28Z"/>
</svg>