<?xml version="1.0" encoding="UTF-8"?>
<svg id="_Слой_1" data-name="Слой 1" xmlns="http://www.w3.org/2000/svg" viewBox="0 0 100 100">
  <defs>
    <style>
      .cls-1 {
        fill: none;
        stroke: #000;
        stroke-miterlimit: 10;
      }
    </style>
  </defs>
  <path class="cls-1" d="M40.22,47.61c.79.39,2.05,1.13,3.19,2.46.4.47,1.69,1.97,2.05,3.82.47,2.46-1,4-3.19,8.31-1.65,3.25-.9,2.55-3.14,7.39-3.61,7.81-4.79,7.98-4.63,10.23.32,4.3,5.01,8.64,9.75,8.86.87.04,3.07.14,4.72-1.29,1.67-1.44,1.66-3.46,1.85-10.16.42-15.06.39-2.19.9-13.19.1-2.24.17-4.26,1.6-6.1.2-.25,1.82-2.29,4.55-2.75,2.38-.41,4.22.61,6.95,2.05,10.69,5.61,12.83,5.86,13.81,5.92,1.26.08,4.7.27,7.8-1.92.46-.33,5.06-3.68,4.34-8.43-.36-2.34-2-5.03-4.42-5.64-1.53-.38-3.05.3-6.02,1.7-3.58,1.67-3.39,2.27-5.3,2.94-3.56,1.25-6.99.12-10.21-.93-3.18-1.04-5.26-1.72-6.98-3.79-2.59-3.13-2.39-7.06-2.31-8.58.17-3.27,1.39-5.69,2.97-8.86,1.64-3.28,2.47-3.75,3.68-6.89,1.13-2.94,1.73-4.57,1.15-6.48-.77-2.54-3.25-4.36-5.78-4.83-.32-.06-4.2-.72-6.1,1.58-1.43,1.73-.99,4.23-.29,8.16.51,2.86.86,2.63,1.12,4.49.89,6.36-2.91,11.54-3.67,12.54-1.24,1.62-2.24,2.92-4.08,3.65-1.78.7-3.2.42-8.66-.99-6.65-1.71-9.98-2.57-11.4-3.07-4.2-1.48-4.79-2.09-6.75-2.01-.9.04-5.57.36-7.67,4.3-1.78,3.35-.67,7.34,1.43,9.57.43.46,2.19,2.32,4.37,2.14,1.63-.13,2.29-1.3,4.26-2.9.77-.63,3.7-2.94,7.49-3.82,4.15-.95,7.64.21,8.73.59,1.69.59,3,1.35,3.89,1.96Z"/>
  <path class="cls-1" d="M48.09,47.76c.09.85,1.04,1.47,1.92,1.44.78-.03,1.69-.58,1.77-1.46.09-.93-.78-1.72-1.66-1.81-1.06-.1-2.14.84-2.04,1.82Z"/>
</svg>