<?xml version="1.0" encoding="UTF-8"?>
<svg id="_Слой_1" data-name="Слой 1" xmlns="http://www.w3.org/2000/svg" viewBox="0 0 100 100">
  <defs>
    <style>
      .cls-1 {
        fill: none;
        stroke: #000;
        stroke-miterlimit: 10;
      }
    </style>
  </defs>
  <path class="cls-1" d="M41.68,37.32c4.55,1.53,10.07-2.97,12.27-4.76,5.59-4.56,4.4-7.95,10.04-13.26,2.69-2.53,7.92-7.45,14.28-6.31,5.39.97,10.55,6.11,10.3,10.73-.34,6.56-11.62,12.87-20.89,13.79-3.21.32-5.87-.05-8.6,1.96-3.19,2.34-4.76,6.64-4.57,10.37.44,8.42,9.88,13.17,10.62,13.52,8.14,3.94,12.68-.63,18.64,3.35,5.61,3.75,8.77,12.59,5.8,16.93-3.22,4.71-13.35,3.66-19.74.14-5.54-3.05-4.86-6.1-11.6-11.3-3.7-2.85-10.97-8.47-18.07-6.64-5.86,1.51-9.76,7.63-11.96,11.09-3.44,5.41-3.3,8.52-6.66,10.11-3.2,1.51-7.78.81-10.23-1.86-3.27-3.55-2.17-9.91.33-13.78,4.01-6.23,10.31-3.97,16.93-11.33,1.74-1.93,4.85-5.39,4.86-10.02,0-5.07-3.74-8.82-7.68-12.67-8.23-8.03-13.75-7.63-15.12-12.85-1.05-4.01.99-8.96,4.44-11.08,4.29-2.64,10.25-.61,13.77,1.87,9.39,6.62,6.03,19.73,12.84,22.02Z"/>
  <path class="cls-1" d="M50.81,51.73c.27-2.01-1.19-3.63-1.55-4-1.7-1.75-4.63-2.46-6.49-1.31-2.97,1.83-2.67,8.04.19,9.59,2.61,1.42,7.41-1.01,7.85-4.28Z"/>
</svg>