<?xml version="1.0" encoding="UTF-8"?>
<svg id="_Слой_1" data-name="Слой 1" xmlns="http://www.w3.org/2000/svg" viewBox="0 0 100 100">
  <defs>
    <style>
      .cls-1 {
        fill: none;
        stroke: #000;
        stroke-miterlimit: 10;
      }
    </style>
  </defs>
  <path class="cls-1" d="M38.94,47.7c3.04-2.93,1.77-9.06,1.27-11.49-1.28-6.21-4.41-6.65-6.25-13.21-.88-3.12-2.59-9.2.88-13.68,2.94-3.81,9.04-5.74,12.54-3.67,4.97,2.93,5.31,14.28,2.26,21.87-1.06,2.63-2.42,4.55-1.97,7.5.53,3.43,3.24,6.41,6.22,7.77,6.74,3.08,14.27-2.36,14.85-2.79,6.37-4.74,4.65-10.13,10.18-13.16,5.2-2.85,13.37-1.72,15.55,2.35,2.36,4.42-2.57,11.89-7.9,15.44-4.63,3.08-6.73,1.31-13.51,4.45-3.72,1.72-11.06,5.11-12.51,11.39-1.2,5.18,1.98,10.7,3.78,13.82,2.82,4.88,5.3,6.03,5.17,9.3-.12,3.1-2.53,6.39-5.6,7.22-4.09,1.11-8.6-2.33-10.61-5.85-3.23-5.66,1.09-9.65-1.95-17.79-.8-2.14-2.23-5.97-5.83-7.85-3.95-2.06-8.39-.67-12.99.84-9.6,3.15-11.53,7.62-16.15,6.56-3.55-.81-6.58-4.41-6.83-7.96-.31-4.41,3.69-8.23,7.04-9.97,8.97-4.63,17.82,3.32,22.37-1.07Z"/>
  <path class="cls-1" d="M53.87,46.44c-1.45-1.03-3.31-.54-3.75-.41-2.05.61-3.8,2.61-3.66,4.53.22,3.06,5.18,5.34,7.55,3.74,2.17-1.46,2.22-6.18-.14-7.86Z"/>
</svg>