<?xml version="1.0" encoding="UTF-8"?>
<svg id="_Слой_1" data-name="Слой 1" xmlns="http://www.w3.org/2000/svg" viewBox="0 0 130 130">
  <defs>
    <style>
      .cls-1 {
        fill: #6db7a6;
        stroke: #000;
        stroke-miterlimit: 10;
      }
    </style>
  </defs>
  <path class="cls-1" d="M72.19,52.42c-.83.9-2.32,2.29-4.55,3.3-.79.36-3.29,1.49-5.91,1.24-3.48-.33-4.96-2.91-9.85-7.52-3.7-3.49-3.05-2.2-8.65-7.1-9.02-7.89-8.78-9.54-11.86-10.2-5.87-1.26-13.52,3.3-15.67,9.56-.39,1.14-1.39,4.04-.13,6.82,1.27,2.8,3.98,3.58,12.86,6.46,19.97,6.47,2.77,1.38,17.28,6.38,2.96,1.02,5.62,1.9,7.53,4.53.26.36,2.34,3.33,1.9,7.16-.39,3.35-2.48,5.4-5.46,8.49-11.69,12.09-12.86,14.86-13.34,16.14-.61,1.65-2.2,6.18-.49,11.18.26.75,2.94,8.21,9.57,9.1,3.27.44,7.51-.7,9.27-3.7,1.11-1.89.79-4.19.1-8.71-.84-5.44-1.71-5.43-1.85-8.23-.27-5.25,2.57-9.39,5.25-13.28,2.64-3.84,4.37-6.36,7.81-7.84,5.2-2.24,10.37-.42,12.37.28,4.3,1.51,7.07,4.09,10.67,7.44,3.74,3.48,4.04,4.77,7.77,7.62,3.48,2.66,5.43,4.11,8.21,4.08,3.7-.03,7.11-2.63,8.73-5.84.2-.4,2.61-5.33.28-8.78-1.75-2.59-5.26-2.98-10.79-3.59-4.02-.45-3.86.12-6.44-.26-8.86-1.3-14.29-8.41-15.32-9.82-1.68-2.29-3.03-4.13-3.28-6.88-.24-2.66.7-4.44,4.72-11.19,4.9-8.22,7.35-12.33,8.58-14.04,3.63-5.03,4.68-5.57,5.34-8.24.3-1.21,1.7-7.59-2.74-11.94-3.77-3.7-9.55-3.77-13.35-1.84-.78.4-3.96,2.01-4.58,5-.46,2.23.84,3.57,2.21,6.84.53,1.28,2.49,6.1,2.16,11.51-.35,5.92-3.28,10.13-4.21,11.43-1.45,2.03-2.99,3.48-4.15,4.43Z"/>
  <path class="cls-1" d="M68.9,62.89c-1.17-.22-2.37.81-2.68,2-.27,1.06.11,2.48,1.25,2.94,1.21.49,2.61-.37,3.06-1.51.55-1.38-.29-3.19-1.64-3.44Z"/>
</svg>