<?xml version="1.0" encoding="UTF-8"?>
<svg id="_Слой_1" data-name="Слой 1" xmlns="http://www.w3.org/2000/svg" viewBox="0 0 100 100">
  <defs>
    <style>
      .cls-1 {
        fill: none;
        stroke: #000;
        stroke-miterlimit: 10;
      }
    </style>
  </defs>
  <path class="cls-1" d="M47.68,37.46c-2.35-2.09-2.93-4.01-5.67-9.59-2.35-4.79-3.06-5.68-3.99-6.51-.92-.81-3.1-2.75-6.28-2.68-.19,0-4.61.16-6.36,3.37-2,3.68,1.2,8.26,1.8,9.12,1.73,2.47,3.96,3.76,8.41,6.32,3.74,2.16,5,2.34,6.62,4.26.58.7,2.64,3.14,2.56,6.23-.1,3.64-3.11,6.16-6.11,8.59-6.55,5.32-9.32,3.79-13.01,7.98-2.82,3.21-5.3,8.77-3.14,12.57.87,1.53,2.64,3.05,4.71,3.22,2.73.23,4.96-2.06,9.3-6.65,3.99-4.22,3.98-5.18,6.46-6.81,1.33-.87,4.97-3.25,9.05-2.6,2.38.38,3.35,1.55,9.71,7.42,7.21,6.65,8.2,7.22,9.13,7.67,1.31.63,6.96,3.24,12.99,1.09,1.57-.56,6.24-2.23,7.12-6.26.62-2.87-.94-5.76-2.66-7.43-1.8-1.74-3.69-2.07-12.59-3.34-8.58-1.23-9.99-1.37-11.53-2.83-2.62-2.47-3.56-6.78-2.5-10.26.94-3.09,3.23-4.78,5.3-6.31,4.07-3,5.87-2.22,11.66-5.04,3.31-1.61,9.74-4.75,9.54-8.49-.08-1.6-1.35-2.74-2.33-3.63-3.73-3.36-8.99-2.68-9.9-2.57-4.85.63-8.19,3.56-10.97,5.99-2.9,2.54-4.56,4.92-8.81,7.62-1.16.74-2.87,1.72-4.91,1.43-.89-.12-2.02-.51-3.59-1.91Z"/>
  <path class="cls-1" d="M51.03,50.47c-.73.96-.63,2.05-.61,2.27.17,1.48,1.33,2.28,1.63,2.48.21.14,1.91,1.3,3.27.52,1.49-.86,1.15-3.24,1.1-3.52-.08-.5-.35-2.26-1.86-2.86-1.28-.51-2.76.11-3.53,1.11Z"/>
</svg>