<?xml version="1.0" encoding="UTF-8"?>
<svg id="_Слой_1" data-name="Слой 1" xmlns="http://www.w3.org/2000/svg" viewBox="0 0 115.66 28.6">
  <defs>
    <style>
      .cls-1 {
        stroke-width: 0px;
      }

      .cls-2 {
        fill: none;
        stroke: #000;
        stroke-miterlimit: 10;
        stroke-width: .29px;
      }
    </style>
  </defs>
  <path class="cls-2" d="M108.54,17.1c-.67-.88-1.88-2.16-4-3.16-2.72-1.28-5.61-1.47-9.24-1.5-9.23-.1-10.53.89-18.08.88-7.34,0-8.58-.93-12.56.06-3.68.91-4.06,2.06-8.29,3.32-.56.17-5.44,1.58-11.32,1.36-3.06-.11-3.88-.57-17.24-4.58-6.22-1.87-9.05-2.67-13.24-2.9-1.94-.11-3.68-.06-5.13.04"/>
  <polygon class="cls-1" points="9.89 9.83 7.12 10.84 10.03 11.35 9.89 9.83"/>
</svg>