<?xml version="1.0" encoding="UTF-8"?>
<svg id="_Слой_1" data-name="Слой 1" xmlns="http://www.w3.org/2000/svg" viewBox="0 0 115.66 28.6">
  <defs>
    <style>
      .cls-1 {
        stroke-width: 0px;
      }

      .cls-2 {
        fill: none;
        stroke: #000;
        stroke-miterlimit: 10;
        stroke-width: .41px;
      }
    </style>
  </defs>
  <path class="cls-2" d="M112.17,18.24c-7.42-1.51-13.01-.97-16.77-.19-3.44.72-4.85,1.54-8.56,1.77-4.25.26-6.4-.56-12.55-1.73-5.68-1.08-9.95-1.54-14.15-1.99-4.37-.47-9.23-.99-15.66-1.07-6.64-.08-7.04.4-10.44-.19-4.95-.86-10.67-3.02-11.35-3.28-3.59-1.37-5.17-2.3-7.82-1.99-2.7.32-4.72,1.71-5.36,2.16-.7.49-1.29,1.01-1.79,1.52"/>
  <polygon class="cls-1" points="7.37 12.05 5.77 15.87 9.07 13.37 7.37 12.05"/>
</svg>