<?xml version="1.0" encoding="UTF-8"?>
<svg id="_Слой_1" data-name="Слой 1" xmlns="http://www.w3.org/2000/svg" viewBox="0 0 571.91 571.91">
  <defs>
    <style>
      .cls-1 {
        fill: none;
      }

      .cls-1, .cls-2 {
        stroke: #000;
        stroke-miterlimit: 10;
      }

      .cls-2 {
        fill: #959bcb;
      }
    </style>
  </defs>
  <path class="cls-2" d="M293,151.87c-3.64-1.03-10.29-4.55-23.6-11.59-11.51-6.09-13.75-7.65-15.59-10.73-3.36-5.63-1.15-9.26-2.17-19.75-.83-8.57-1.87-19.27-8.8-25.89-11.17-10.66-30.99-4.35-32.26-3.92-3.02,1.01-15.76,5.25-21.46,18.2-.38.87-6.77,15.87.08,24.73,3.54,4.58,7.77,3.84,14.58,11.15,2.9,3.11,5.1,5.47,5.94,8.78,1.52,5.95-2.38,10.85-10.78,22.68-13.31,18.74-19.97,28.12-22.27,32.09-5.61,9.69-6.6,13.59-10.64,14.37-5.41,1.04-8.67-4.99-22.5-13.22-7.57-4.5-11.35-6.76-15.36-7.29-13.19-1.75-27.83,9.59-34.3,22.85-2.11,4.32-8.65,17.74-1.6,30.73,5.31,9.79,16.9,16.66,26.26,15.22,4.91-.76,7.19-3.49,13.46-3.14,1.27.07,7.9.44,11.89,4.58,2.77,2.87,4.1,7.36,1.59,24.11-2.68,17.9-5.19,19.4-8.15,36.35-2.43,13.88-1.51,17.23-5.22,20.41-6.11,5.23-12.95-.11-26.64,2.63-3.44.69-18.12,3.62-25.64,15.19-9.6,14.78-1.08,33.76.37,37,5.25,11.69,18.19,27.76,31.31,26.13,10.75-1.34,20.98-14.47,27.71-23.11.86-1.1,3.01-3.94,6.43-7.34,5.38-5.36,8.81-8.77,13-10.03,9.64-2.88,20.07,6.59,29,14.69,6.66,6.05,10.57,9.71,11.06,15.53.6,7.24-4.48,13.19-7.38,16.58-6.25,7.32-10.44,6.77-15.32,11.57-8.25,8.1-11.64,24.68-4.89,38.55,6.11,12.56,19.51,20.86,33.49,19.93,11.23-.75,22.66-7.43,27.25-17.02,3.93-8.23.47-13.67,6.19-26.7,2.21-5.04,3.83-8.73,7.52-11.91,8-6.92,19.16-5.81,29.97-4.58,16.74,1.91,28.59,3.26,36.28,12.31,7.85,9.24,2.53,16.11,10.22,39.46,4.71,14.3,7.95,24.12,16.73,27.96,12.68,5.55,28.05-5.28,32.98-8.75,5.08-3.58,17.55-12.36,19.37-26.19,1.78-13.48-8.54-16.75-11.51-35.39-2.55-15.99,2.55-29.23,6.11-38.46,5.51-14.3,12.8-22.68,24.27-35.86,8.26-9.5,12.39-12.24,16.73-13.91,8.66-3.34,13.24-.51,23.81-.88,4.21-.15,23.6-1.31,37.6-14.77,2.42-2.33,15.98-15.36,14.35-34.16-1.02-11.81-8.12-26.73-19.07-29.36-5.87-1.41-7.01,2.12-25.1,4.95-15.03,2.35-19.35.71-21.4-1.87-1.36-1.71-2.04-4.25-1.47-6.48,1.31-5.07,8.75-6.99,16.36-9.04,19.89-5.37,29.84-8.05,33.07-9.97,10.4-6.19,17.11-18.44,18.43-29.94,2.24-19.45-10.48-40.55-28.61-45.51-8.02-2.19-20.16-2.07-28.25,4.46-3.28,2.65-2.59,3.68-9.44,11.52-7.93,9.06-12,13.61-17.23,14.11-6.42.62-11.92-4.1-15.3-7.01-4.76-4.09-7.17-8.45-8.55-10.96q-16.94-30.79-17.16-31.91c-1.54-10.88,4.05-11.32,8.95-37.27,3.43-18.15,1.7-23.22.93-25.15-4.04-10.18-14.58-17.18-24.77-18.78-19.85-3.11-39.97,14.07-41.35,28.68-.72,7.62,3.86,12.31,2.63,26.64-.53,6.16-.9,9.79-3.66,12.7-6.82,7.17-21.64,2.96-28.48,1.02Z"/>
  <path class="cls-1" d="M297.01,231c-11.99-5.99-18.71-10.57-28.45-9.02-5.94.95-10.11,3.72-11.62,4.75-7.33,4.98-9.7,11.38-16.32,27.89-8.55,21.31-9.14,21.95-14.24,35.89-7.2,19.67-7.83,23.31-6.79,28.13,2.26,10.41,10.43,17.36,14.34,20.68,2.4,2.03,5.36,4.18,19.03,10.51,0,0,16.55,7.65,44.11,15.6,3.93,1.13,7.73,2.17,12.17.93,7.19-2.01,11.27-8.63,14.59-14.8,8.32-15.49,10.27-25.23,16.51-43.3,7.72-22.33,10.6-24.41,9.59-32.81-1.77-14.79-12.69-24.66-16.01-27.66-9.51-8.59-11.3-3.95-36.92-16.76Z"/>
  <path class="cls-1" d="M288.27,164.12c-10.61-2.73-9.23-3.76-22.46-7.34-11.3-3.06-14.22-2.82-17.89-6.26-4.71-4.41-5.9-10.44-7.43-18.19-1.72-8.72-.17-9.88-1.76-18.74-1.69-9.39-2.8-15.6-8.05-19.71-5.23-4.1-14.42-5.99-21.7-1.16-9.16,6.07-7.86,17.85-7.77,18.5.26,2.05.86,6.76,4.43,9.4,4.15,3.06,7.97.12,12.58,1.94,7.11,2.79,9.96,14.48,9.79,22.53-.14,6.85-2.45,10.27-14.48,29.5-8.12,12.96-17.21,25.31-24.96,38.5-4.73,8.05-6.58,11.83-11.65,14.78-10.28,5.99-22.72,2.15-26.75.9-5.27-1.63-12.97-4.01-16.8-10.83-2.79-4.96-1.32-8.32-4.13-10.11-4.59-2.92-13.83,2.67-19,8.35-2.74,3.02-9.21,10.13-6.76,18.09,1.9,6.19,8.22,9.7,13.15,10.55,4.56.79,5.71-1.09,12.65-2.22,3.49-.57,14.87-2.43,24.96,3.37,2.3,1.32,7.77,4.46,10.21,10.57,2.37,5.92.47,11.07-1.09,17.54-3.93,16.28.47,15.2-3.19,35.5-2.68,14.89-4.44,12.11-7.59,29.05-1.34,7.2-1.85,12.14-5.54,18.18-2.03,3.31-5.63,9.02-12.89,11.75-1.42.53-8.27,3.11-15.2.31-7.17-2.9-7.24-8.65-12.03-9.24-5.91-.73-12.98,7.17-15.1,15.01-2.91,10.79,3.43,22.03,11.65,27.08,1.06.65,9.92,5.96,15.73,2.42,3.93-2.39,2.22-6.25,6.09-12.51,2.74-4.43,5.02-4.8,19.96-14.64,11.48-7.56,11.25-8.08,13.62-8.51,4.89-.9,8.63.79,26.04,11.77,15.34,9.68,21.26,13.94,27.82,20.48,8.07,8.05,9.2,11.66,9.43,14.43.3,3.56-2.12,8.29-6.97,17.59-5.9,11.32-7.79,12.58-9.33,13.25-5.33,2.29-8.26-1.84-13.48.2-5.82,2.27-10.61,10.69-8.78,18.92,1.73,7.8,8.71,12.32,14.9,13.37,8.94,1.53,16.88-4.05,20.1-9.98,2.97-5.47.43-8.52,1.5-16.53,1.48-11.02,8.49-21.73,16.73-26.88,6.11-3.82,15.46-3.07,34.15-1.57,28.42,2.28,26.55,6.88,46.59,8.68,2.68.24,8.35.67,13.11,4.67,1.48,1.24,3.24,3.14,6.56,10.29,4.63,9.96,6.95,14.95,6.63,19.11-.67,8.63-7.41,9.13-9.29,19.12-.13.67-2.28,12.93,4.28,17.71,6.57,4.78,17.79-.9,23.47-6.05,1.18-1.07,9.69-8.79,8.19-17.49-.99-5.68-5.42-7-10.53-12.8-13.23-15-10.3-36.49-10.11-37.74.34-2.26,1.27-7.01,12.9-24.73,18.44-28.09,22.34-25.63,31.42-42.9,6.68-12.72,7.94-20.48,17.63-29.02,7.3-6.43,13.53-8.14,17.07-8.74,3-.51,12.98-2.21,19.08,3.41,3.84,3.54,2.96,7.04,6.45,8.57,4.7,2.06,11.17-2.18,14.36-5.27,6.55-6.36,8.63-16.99,5.09-25.07-1.85-4.22-6.14-9.84-10.31-9.35-2.66.31-3.56,2.91-6.34,6.13-5.87,6.78-14.77,10.12-21.62,10.6-1.62.11-13.25.92-19.81-6.65-2.63-3.04-3.2-5.98-3.82-23.79-.87-24.98-.08-28.42,2.2-32.15.92-1.51,6.9-10.92,16.33-11.98,7.84-.88,10.28,4.88,20.92,5.02,3.03.04,10.08.13,15.78-4.68,7.64-6.44,7.15-16.87,7.06-18.8-.3-6.41-3.23-17.27-10.78-19.18-4.22-1.07-9.77.68-11.32,4.04-1.37,2.96,1.33,5.11.98,9.62-.41,5.42-4.82,9.16-7.22,11.2-9.98,8.49-23.54,6.17-24.69,5.96-2.81-.52-7.46-1.81-22.61-14.94-16.8-14.56-13.49-15.08-30.02-30.19-8.53-7.8-13.58-11.47-14.73-18.75-.81-5.11.69-9.53,2.63-15.22,2.58-7.57,6.36-13.47,10.3-19.54,5.76-8.87,7.51-9.65,7.61-13.13.18-6.77-6.19-13.43-12.99-15.92-7.86-2.88-16.51-.29-21.15,4.51-1.11,1.15-3.55,3.67-3.2,6.61.41,3.36,4.1,4.03,7.25,7.65,5.03,5.77,4.34,14.03,4.08,17.2-.78,9.44-6.08,15.51-7.68,17.29-7.86,8.75-18.47,10.19-23.84,10.92-9.45,1.28-16.67-.57-28.61-3.64Z"/>
  <path class="cls-1" d="M317.76,183.62c-1.52,1.04-9.6,6.52-10.32,16.6-.13,1.89-.46,10.2,5.89,15.87,8.01,7.15,19.08,3.36,20.09,3,7.47-2.69,14.34-10.01,14.46-19.47.11-9.18-6.18-18.07-14.64-19.96-7.25-1.62-13.34,2.51-15.48,3.96Z"/>
  <path class="cls-1" d="M266.64,179.73c-5.96-6.5-16.02-5.76-22.02-3.39-11.08,4.37-19.5,18.67-14.48,29.5,2.98,6.42,9.94,10.01,16.09,10.53,11.32.95,20.68-8.44,23.39-17.81.45-1.54,3.43-11.84-2.97-18.83Z"/>
  <path class="cls-1" d="M196.52,239.03c-8.66.53-17.38,6.5-20.06,15.86-2.17,7.57-.43,17.53,6.85,22.56,8.98,6.19,21.87,1.75,28.14-6.18,5.67-7.18,7.37-19.04,1.03-26.36-5.29-6.1-13.54-6.01-15.96-5.87Z"/>
  <path class="cls-1" d="M176.17,326.35c-1.62,1.66-11.25,11.95-6.72,23.97,3.28,8.72,12.54,14.46,21.99,13.42,10.44-1.15,16.49-10.06,18.43-16.96,2.91-10.34-1.16-24.12-11.35-27.79-10.97-3.95-21.53,6.52-22.35,7.36Z"/>
  <path class="cls-1" d="M234.79,373.16c-4.86,3.92-10.28,11.93-7.66,20.23,2.8,8.89,13.16,12.88,21.37,11.91.59-.07,11.97-1.62,16.33-11.98,2.92-6.93,1.93-16-4.01-21.36-7.57-6.83-19.37-4.17-26.04,1.2Z"/>
  <path class="cls-1" d="M310.66,379.91c-5.95,7.53-6.86,18.92-.82,26.87,7.26,9.56,21.48,10.1,30.54,4.04,6.36-4.26,11.69-12.79,9.77-22.27-1.88-9.33-9.94-15.4-18.06-16.8-8.04-1.38-16.38,1.77-21.43,8.16Z"/>
  <path class="cls-1" d="M381.99,304.79c-11.11-1.04-21.31,8.34-22.06,19.62-.7,10.52,6.94,21.01,17.9,22.17,10.43,1.11,19.59-6.68,21.78-15.97,2.72-11.54-5.47-24.68-17.62-25.82Z"/>
  <path class="cls-1" d="M370.45,237.57c-1.27.7-10.04,5.69-10.73,15.59-.57,8.2,4.66,16.12,12.5,19.07,8.52,3.2,17.72-.37,22.56-6.85,6.15-8.25,5.08-21-2.83-27.15-6.62-5.15-15.68-3.84-21.49-.66Z"/>
</svg>