<?xml version="1.0" encoding="UTF-8"?>
<svg id="_Слой_1" data-name="Слой 1" xmlns="http://www.w3.org/2000/svg" viewBox="0 0 200 200">
  <defs>
    <style>
      .cls-1 {
        stroke-width: 0px;
      }
    </style>
  </defs>
  <path class="cls-1" d="M48.43,66.29c.64,0,.64-1,0-1s-.64,1,0,1h0Z"/>
  <path class="cls-1" d="M87.23,107.14c.64,0,.64-1,0-1s-.64,1,0,1h0Z"/>
  <path class="cls-1" d="M97.45,38.71c.64,0,.64-1,0-1s-.64,1,0,1h0Z"/>
  <path class="cls-1" d="M47.4,76.87c1.79,0,3.68-.78,4.95-2.05s2.13-3.21,2.05-4.95-.68-3.69-2.05-4.95-3.05-2.05-4.95-2.05c-1.79,0-3.68.78-4.95,2.05s-2.13,3.21-2.05,4.95.68,3.69,2.05,4.95,3.05,2.05,4.95,2.05h0Z"/>
  <path class="cls-1" d="M74.98,52.36c1.79,0,3.68-.78,4.95-2.05s2.13-3.21,2.05-4.95-.68-3.69-2.05-4.95-3.05-2.05-4.95-2.05c-1.79,0-3.68.78-4.95,2.05s-2.13,3.21-2.05,4.95.68,3.69,2.05,4.95,3.05,2.05,4.95,2.05h0Z"/>
  <path class="cls-1" d="M96.43,89.13c1.79,0,3.68-.78,4.95-2.05s2.13-3.21,2.05-4.95-.68-3.69-2.05-4.95-3.05-2.05-4.95-2.05c-1.79,0-3.68.78-4.95,2.05s-2.13,3.21-2.05,4.95.68,3.69,2.05,4.95,3.05,2.05,4.95,2.05h0Z"/>
  <path class="cls-1" d="M189.36,30.91c1.79,0,3.68-.78,4.95-2.05s2.13-3.21,2.05-4.95-.68-3.69-2.05-4.95-3.05-2.05-4.95-2.05c-1.79,0-3.68.78-4.95,2.05s-2.13,3.21-2.05,4.95.68,3.69,2.05,4.95,3.05,2.05,4.95,2.05h0Z"/>
  <path class="cls-1" d="M159.74,59.51c1.79,0,3.68-.78,4.95-2.05s2.13-3.21,2.05-4.95-.68-3.69-2.05-4.95-3.05-2.05-4.95-2.05c-1.79,0-3.68.78-4.95,2.05s-2.13,3.21-2.05,4.95.68,3.69,2.05,4.95,3.05,2.05,4.95,2.05h0Z"/>
  <path class="cls-1" d="M113.79,53.38c1.79,0,3.68-.78,4.95-2.05s2.13-3.21,2.05-4.95-.68-3.69-2.05-4.95-3.05-2.05-4.95-2.05c-1.79,0-3.68.78-4.95,2.05s-2.13,3.21-2.05,4.95.68,3.69,2.05,4.95,3.05,2.05,4.95,2.05h0Z"/>
  <path class="cls-1" d="M132.17,105.47c1.79,0,3.68-.78,4.95-2.05s2.13-3.21,2.05-4.95-.68-3.69-2.05-4.95-3.05-2.05-4.95-2.05c-1.79,0-3.68.78-4.95,2.05s-2.13,3.21-2.05,4.95.68,3.69,2.05,4.95,3.05,2.05,4.95,2.05h0Z"/>
  <path class="cls-1" d="M107.66,137.13c1.79,0,3.68-.78,4.95-2.05s2.13-3.21,2.05-4.95-.68-3.69-2.05-4.95-3.05-2.05-4.95-2.05c-1.79,0-3.68.78-4.95,2.05s-2.13,3.21-2.05,4.95.68,3.69,2.05,4.95,3.05,2.05,4.95,2.05h0Z"/>
  <path class="cls-1" d="M101.53,174.91c1.79,0,3.68-.78,4.95-2.05s2.13-3.21,2.05-4.95-.68-3.69-2.05-4.95-3.05-2.05-4.95-2.05c-1.79,0-3.68.78-4.95,2.05s-2.13,3.21-2.05,4.95.68,3.69,2.05,4.95,3.05,2.05,4.95,2.05h0Z"/>
  <path class="cls-1" d="M100.51,115.68c1.79,0,3.68-.78,4.95-2.05s2.13-3.21,2.05-4.95-.68-3.69-2.05-4.95-3.05-2.05-4.95-2.05c-1.79,0-3.68.78-4.95,2.05s-2.13,3.21-2.05,4.95.68,3.69,2.05,4.95,3.05,2.05,4.95,2.05h0Z"/>
  <path class="cls-1" d="M161.79,92.19c1.79,0,3.68-.78,4.95-2.05s2.13-3.21,2.05-4.95-.68-3.69-2.05-4.95-3.05-2.05-4.95-2.05c-1.79,0-3.68.78-4.95,2.05s-2.13,3.21-2.05,4.95.68,3.69,2.05,4.95,3.05,2.05,4.95,2.05h0Z"/>
</svg>