<?xml version="1.0" encoding="UTF-8"?>
<svg id="_Слой_1" data-name="Слой 1" xmlns="http://www.w3.org/2000/svg" viewBox="0 0 200 200">
  <defs>
    <style>
      .cls-1 {
        stroke-width: 0px;
      }
    </style>
  </defs>
  <path class="cls-1" d="M48.43,66.29c.64,0,.64-1,0-1s-.64,1,0,1h0Z"/>
  <path class="cls-1" d="M87.23,107.14c.64,0,.64-1,0-1s-.64,1,0,1h0Z"/>
  <path class="cls-1" d="M97.45,38.71c.64,0,.64-1,0-1s-.64,1,0,1h0Z"/>
  <path class="cls-1" d="M99.49,147.34c1.79,0,3.68-.78,4.95-2.05s2.13-3.21,2.05-4.95-.68-3.69-2.05-4.95-3.05-2.05-4.95-2.05c-1.79,0-3.68.78-4.95,2.05s-2.13,3.21-2.05,4.95.68,3.69,2.05,4.95,3.05,2.05,4.95,2.05h0Z"/>
  <path class="cls-1" d="M134.21,117.72c1.79,0,3.68-.78,4.95-2.05s2.13-3.21,2.05-4.95-.68-3.69-2.05-4.95-3.05-2.05-4.95-2.05c-1.79,0-3.68.78-4.95,2.05s-2.13,3.21-2.05,4.95.68,3.69,2.05,4.95,3.05,2.05,4.95,2.05h0Z"/>
  <path class="cls-1" d="M69.87,103.43c1.79,0,3.68-.78,4.95-2.05s2.13-3.21,2.05-4.95-.68-3.69-2.05-4.95-3.05-2.05-4.95-2.05c-1.79,0-3.68.78-4.95,2.05s-2.13,3.21-2.05,4.95.68,3.69,2.05,4.95,3.05,2.05,4.95,2.05h0Z"/>
  <path class="cls-1" d="M108.68,81.98c1.79,0,3.68-.78,4.95-2.05s2.13-3.21,2.05-4.95-.68-3.69-2.05-4.95-3.05-2.05-4.95-2.05c-1.79,0-3.68.78-4.95,2.05s-2.13,3.21-2.05,4.95.68,3.69,2.05,4.95,3.05,2.05,4.95,2.05h0Z"/>
  <path class="cls-1" d="M86.21,57.47c1.79,0,3.68-.78,4.95-2.05s2.13-3.21,2.05-4.95-.68-3.69-2.05-4.95-3.05-2.05-4.95-2.05c-1.79,0-3.68.78-4.95,2.05s-2.13,3.21-2.05,4.95.68,3.69,2.05,4.95,3.05,2.05,4.95,2.05h0Z"/>
  <path class="cls-1" d="M136.26,76.87c1.79,0,3.68-.78,4.95-2.05s2.13-3.21,2.05-4.95-.68-3.69-2.05-4.95-3.05-2.05-4.95-2.05c-1.79,0-3.68.78-4.95,2.05s-2.13,3.21-2.05,4.95.68,3.69,2.05,4.95,3.05,2.05,4.95,2.05h0Z"/>
  <path class="cls-1" d="M154.64,148.36c1.79,0,3.68-.78,4.95-2.05s2.13-3.21,2.05-4.95-.68-3.69-2.05-4.95-3.05-2.05-4.95-2.05c-1.79,0-3.68.78-4.95,2.05s-2.13,3.21-2.05,4.95.68,3.69,2.05,4.95,3.05,2.05,4.95,2.05h0Z"/>
  <path class="cls-1" d="M157.7,112.62c1.79,0,3.68-.78,4.95-2.05s2.13-3.21,2.05-4.95-.68-3.69-2.05-4.95-3.05-2.05-4.95-2.05c-1.79,0-3.68.78-4.95,2.05s-2.13,3.21-2.05,4.95.68,3.69,2.05,4.95,3.05,2.05,4.95,2.05h0Z"/>
</svg>