<?xml version="1.0" encoding="UTF-8"?>
<svg id="_Слой_1" data-name="Слой 1" xmlns="http://www.w3.org/2000/svg" viewBox="0 0 200 200">
  <defs>
    <style>
      .cls-1 {
        stroke-width: 0px;
      }
    </style>
  </defs>
  <path class="cls-1" d="M48.43,66.29c.64,0,.64-1,0-1s-.64,1,0,1h0Z"/>
  <path class="cls-1" d="M87.23,107.14c.64,0,.64-1,0-1s-.64,1,0,1h0Z"/>
  <path class="cls-1" d="M97.45,38.71c.64,0,.64-1,0-1s-.64,1,0,1h0Z"/>
  <path class="cls-1" d="M43.32,160.62c1.79,0,3.68-.78,4.95-2.05s2.13-3.21,2.05-4.95-.68-3.69-2.05-4.95-3.05-2.05-4.95-2.05c-1.79,0-3.68.78-4.95,2.05s-2.13,3.21-2.05,4.95.68,3.69,2.05,4.95,3.05,2.05,4.95,2.05h0Z"/>
  <path class="cls-1" d="M62.72,146.32c1.79,0,3.68-.78,4.95-2.05s2.13-3.21,2.05-4.95-.68-3.69-2.05-4.95-3.05-2.05-4.95-2.05c-1.79,0-3.68.78-4.95,2.05s-2.13,3.21-2.05,4.95.68,3.69,2.05,4.95,3.05,2.05,4.95,2.05h0Z"/>
  <path class="cls-1" d="M90.3,180.02c1.79,0,3.68-.78,4.95-2.05s2.13-3.21,2.05-4.95-.68-3.69-2.05-4.95-3.05-2.05-4.95-2.05c-1.79,0-3.68.78-4.95,2.05s-2.13,3.21-2.05,4.95.68,3.69,2.05,4.95,3.05,2.05,4.95,2.05h0Z"/>
  <path class="cls-1" d="M106.64,112.62c1.79,0,3.68-.78,4.95-2.05s2.13-3.21,2.05-4.95-.68-3.69-2.05-4.95-3.05-2.05-4.95-2.05c-1.79,0-3.68.78-4.95,2.05s-2.13,3.21-2.05,4.95.68,3.69,2.05,4.95,3.05,2.05,4.95,2.05h0Z"/>
  <path class="cls-1" d="M64.77,97.3c1.79,0,3.68-.78,4.95-2.05s2.13-3.21,2.05-4.95-.68-3.69-2.05-4.95-3.05-2.05-4.95-2.05c-1.79,0-3.68.78-4.95,2.05s-2.13,3.21-2.05,4.95.68,3.69,2.05,4.95,3.05,2.05,4.95,2.05h0Z"/>
  <path class="cls-1" d="M108.68,151.43c1.79,0,3.68-.78,4.95-2.05s2.13-3.21,2.05-4.95-.68-3.69-2.05-4.95-3.05-2.05-4.95-2.05c-1.79,0-3.68.78-4.95,2.05s-2.13,3.21-2.05,4.95.68,3.69,2.05,4.95,3.05,2.05,4.95,2.05h0Z"/>
  <path class="cls-1" d="M140.34,100.36c1.79,0,3.68-.78,4.95-2.05s2.13-3.21,2.05-4.95-.68-3.69-2.05-4.95-3.05-2.05-4.95-2.05c-1.79,0-3.68.78-4.95,2.05s-2.13,3.21-2.05,4.95.68,3.69,2.05,4.95,3.05,2.05,4.95,2.05h0Z"/>
  <path class="cls-1" d="M96.43,76.87c1.79,0,3.68-.78,4.95-2.05s2.13-3.21,2.05-4.95-.68-3.69-2.05-4.95-3.05-2.05-4.95-2.05c-1.79,0-3.68.78-4.95,2.05s-2.13,3.21-2.05,4.95.68,3.69,2.05,4.95,3.05,2.05,4.95,2.05h0Z"/>
  <path class="cls-1" d="M92.34,48.28c1.79,0,3.68-.78,4.95-2.05s2.13-3.21,2.05-4.95-.68-3.69-2.05-4.95-3.05-2.05-4.95-2.05c-1.79,0-3.68.78-4.95,2.05s-2.13,3.21-2.05,4.95.68,3.69,2.05,4.95,3.05,2.05,4.95,2.05h0Z"/>
  <path class="cls-1" d="M128.09,54.4c1.79,0,3.68-.78,4.95-2.05s2.13-3.21,2.05-4.95-.68-3.69-2.05-4.95-3.05-2.05-4.95-2.05c-1.79,0-3.68.78-4.95,2.05s-2.13,3.21-2.05,4.95.68,3.69,2.05,4.95,3.05,2.05,4.95,2.05h0Z"/>
  <path class="cls-1" d="M128.09,143.26c1.79,0,3.68-.78,4.95-2.05s2.13-3.21,2.05-4.95-.68-3.69-2.05-4.95-3.05-2.05-4.95-2.05c-1.79,0-3.68.78-4.95,2.05s-2.13,3.21-2.05,4.95.68,3.69,2.05,4.95,3.05,2.05,4.95,2.05h0Z"/>
</svg>