<?xml version="1.0" encoding="UTF-8"?>
<svg id="_Слой_1" data-name="Слой 1" xmlns="http://www.w3.org/2000/svg" viewBox="0 0 1080 1920">
  <defs>
    <style>
      .cls-1 {
        fill: none;
      }

      .cls-1, .cls-2, .cls-3 {
        stroke: #000;
        stroke-miterlimit: 10;
      }

      .cls-4, .cls-5 {
        stroke-width: 0px;
      }

      .cls-2 {
        fill: #1d1d1b;
      }

      .cls-5 {
        fill: #6db7a6;
      }

      .cls-3 {
        opacity: .8;
      }
    </style>
  </defs>
  <rect class="cls-5" x="-420" y="420" width="1920" height="1080" transform="translate(-420 1500) rotate(-90)"/>
  <path class="cls-4" d="M463.56,423.39c-101.03,49.05-198.15,114.88-265.16,206.51-34.95,47.8-60.13,102.04-72.64,159.99-14.47,67.02-12.96,136.43-4.89,204.18,4.05,33.97,9.76,67.72,16.2,101.32,6.7,34.96,13.87,69.89,23.34,104.22,17.56,63.63,45.18,122.96,82.15,177.62,35.3,52.18,77.23,100.35,122.48,144.12,43.75,42.32,95.16,78.81,158.06,81.43s125-25.93,177.97-59.02c51.37-32.09,100.44-69.68,144.87-110.85,43.13-39.96,82.02-85.27,110.07-137.19,30.63-56.71,45.22-119.46,48.43-183.58,3.48-69.57-4.79-139.07-12.56-208.09-3.93-34.87-7.4-69.75-10.35-104.71-2.92-34.61-5.98-69.3-12.33-103.48-10.72-57.69-32.14-115.87-74.52-158-20.07-19.95-44.37-34.74-71.64-42.52-32.4-9.24-67.06-10-100.51-8.83-69.06,2.42-137.36,17.93-201.6,43.11-30.42,11.92-60.73,25.52-87.44,44.55-25.01,17.81-45.57,40.75-63.07,65.84-18.55,26.59-33.96,55.27-48.95,83.97-15.67,29.99-30.4,60.54-42.33,92.22-24.6,65.32-33.97,134.85-34.96,204.37-1.78,124.7,26.8,255.86,111.43,351.38,36.5,41.19,82.52,74.78,134.87,92.62,62.66,21.34,131.98,17.62,194.42-2.67,29.25-9.5,55.34-24.42,74.58-48.84,19.5-24.74,32.79-54.26,46.86-82.25,30.37-60.4,58.67-122.92,71.09-189.8,12.73-68.55,8-139.66-1.17-208.37-8.13-60.95-22.83-123.7-59.31-174.42-59.47-82.67-182.51-115.05-268.6-54.2-24.6,17.39-44.89,40.12-62.82,64.14-19.28,25.83-36.59,53.29-51,82.13-28.2,56.46-44.75,119.7-35.96,182.98,8.63,62.06,37.87,122.47,75.63,172.05,32.9,43.21,76.33,80.75,128.96,97,25.3,7.81,56.76,12.87,79.93-3.39,11.1-7.79,18.44-19.59,24.07-31.68,6.65-14.27,11.84-29.32,16.94-44.2,22.47-65.53,36.43-133.96,41.63-203.03,2.48-32.91,3.59-66.35,1.22-99.3-1.79-24.84-6.05-50.07-15.99-73.05-9.17-21.21-23.96-40.35-45.41-50.1-27.15-12.34-59.18-7.43-85.81,3.85-51.57,21.84-88.5,70.63-97.42,125.65-4.86,29.97-2.04,61.3,8.57,89.78,9.19,24.67,25.71,49.75,51.03,60.07,22.89,9.34,46.3-.53,58.16-21.68,14.25-25.43,7.73-55.92-5.44-80.3-.31-.57-1.17-.06-.86.5,14.95,27.67,21.01,64.92-2.33,90.05-10.21,11-24.95,16.28-39.78,13.35s-26.55-11.88-36.21-22.33c-21.17-22.91-31.25-55.33-33.8-85.91-2.6-31.04,2.88-62.92,16.82-90.85,24.68-49.46,78.2-90.17,135.3-88.32,28.76.93,52.9,16.19,67.87,40.36,13.44,21.72,19.61,47.46,22.73,72.56,3.67,29.55,3.21,59.72,1.93,89.41-1.47,34.23-5.11,68.36-10.86,102.14-5.51,32.32-12.96,64.3-22.31,95.72-4.77,16.02-10.05,31.89-15.81,47.58-5.28,14.36-10.49,29.2-18.95,42.05s-21.63,22.67-37.55,25.85c-15.13,3.02-30.86,1.04-45.7-2.55-26.35-6.36-51.06-18.37-73.17-33.96-45.67-32.21-80.42-78.51-105.75-127.85-15.1-29.42-27.24-60.57-33.8-93.05-6.52-32.26-6.82-65.32-1.29-97.75,10.57-61.99,40.18-119.45,76.05-170.47,32.81-46.68,74-90.19,131.51-103.58,49.39-11.5,102.56-1.07,145.87,24.62,49.67,29.46,81.26,78.06,99.33,132.01,9.42,28.13,15.45,57.29,19.8,86.6,4.93,33.23,8.2,66.85,9.69,100.41,1.58,35.46.72,71.15-4.67,106.28-4.99,32.52-13.94,64.3-25.26,95.16-11.54,31.46-25.5,61.97-40.29,92.01-13.66,27.75-26.92,56.38-43.72,82.41-8.19,12.69-17.65,24.66-29.18,34.5-12.52,10.68-27.24,18.48-42.52,24.42-31.01,12.07-64.76,18.86-97.91,21-60.77,3.93-120.07-11.15-171.37-43.91-101.29-64.69-156.72-178.58-175.16-294.39-10.31-64.75-10.7-131.48-3.1-196.55,3.93-33.68,10.5-67.1,20.75-99.45,10.2-32.22,23.75-63.27,38.72-93.54,14.07-28.45,28.9-56.71,45.38-83.84,16.04-26.4,34.31-51.79,57.1-72.82s52.1-37.62,81.43-50.66c30.76-13.68,62.58-25.06,95.06-33.91,63.81-17.38,132.61-26.33,198.63-18.77,31.45,3.6,61.65,13.24,87.24,32.24,22.53,16.73,40.64,38.88,54.76,63,32.21,55.02,42.34,118.91,48.38,181.46,3.25,33.67,5.66,67.4,9.23,101.03,3.54,33.34,7.6,66.62,10.92,99.99,6.6,66.32,10.57,133.78.17,199.94-9.41,59.83-31.84,115.98-65.87,166.04-32.48,47.8-73.56,89.2-117.69,126.25-46.14,38.73-95.66,75.62-148.99,103.86-55.03,29.14-118.95,49.04-181.08,32.71-59.88-15.75-106.31-61.32-147.68-104.96-42.07-44.37-80.96-92.12-112.52-144.62-33.99-56.55-56.45-117.56-71.47-181.66-15.47-65.99-28.02-133.49-33.87-201.06-5.67-65.62-3.95-132.62,13.6-196.44,30-109.12,106.05-197.21,196.13-262.71,42.56-30.94,88.3-57.32,135.6-80.29.58-.28.07-1.14-.5-.86h0Z"/>
  <path class="cls-4" d="M161.18,1665.39c13.53,1.83,27.06,3.65,40.58,5.48s27.06,3.65,40.58,5.48c7.59,1.02,15.18,2.05,22.77,3.07.63.08.9-.88.27-.96-13.53-1.83-27.06-3.65-40.58-5.48s-27.06-3.65-40.58-5.48c-7.59-1.02-15.18-2.05-22.77-3.07-.63-.08-.9.88-.27.96h0Z"/>
  <path class="cls-4" d="M217.82,1730.93c1.99-16.17,3.59-32.38,4.79-48.63,1.2-16.16,2.01-32.35,2.43-48.55.24-9.09.35-18.19.34-27.28,0-.64-1-.64-1,0,.01,16.29-.37,32.58-1.14,48.85-.77,16.19-1.92,32.36-3.47,48.49-.87,9.05-1.86,18.1-2.97,27.12-.08.64.92.63,1,0h0Z"/>
  <path class="cls-4" d="M186.05,1617.48c3.15,7.38,6.5,14.68,10.03,21.89s7.26,14.32,11.16,21.34,7.99,13.93,12.26,20.73,8.71,13.49,13.32,20.06c4.57,6.51,9.32,12.9,14.22,19.17.62.8,1.25,1.59,1.88,2.39.4.5,1.1-.21.71-.71-4.98-6.29-9.8-12.7-14.45-19.24s-9.09-13.15-13.37-19.89-8.39-13.6-12.32-20.56-7.68-14.02-11.24-21.17c-3.56-7.15-6.94-14.4-10.13-21.72-.4-.93-.8-1.86-1.2-2.79-.25-.59-1.11-.08-.86.5h0Z"/>
  <path class="cls-4" d="M188.85,1697.99c9.66-6.65,19.32-13.29,28.97-19.94,9.66-6.65,19.32-13.29,28.97-19.94,5.41-3.72,10.82-7.45,16.23-11.17.53-.36.03-1.23-.5-.86-9.66,6.65-19.32,13.29-28.97,19.94-9.66,6.65-19.32,13.29-28.97,19.94-5.41,3.72-10.82,7.45-16.23,11.17-.53.36-.03,1.23.5.86h0Z"/>
  <path class="cls-4" d="M463.47,1852.46c11.32-1.31,22.5-3.56,33.5-6.49s21.95-6.56,32.7-10.51,21.63-8.32,32.36-12.68c10.72-4.35,21.42-8.74,32.23-12.86s21.65-7.96,32.71-11.22c1.37-.4,2.74-.8,4.11-1.18.62-.17.36-1.14-.27-.96-11.1,3.12-22.01,6.85-32.8,10.88-10.79,4.03-21.46,8.37-32.12,12.71s-21.3,8.67-32.06,12.72c-10.73,4.03-21.58,7.78-32.61,10.91-10.95,3.1-22.08,5.59-33.36,7.15-1.46.2-2.93.38-4.4.55-.63.07-.64,1.07,0,1h0Z"/>
  <path class="cls-4" d="M578.31,1873.93c-4.35-12.79-9-25.47-13.96-38.03-4.95-12.53-10.19-24.94-15.74-37.21-3.13-6.92-6.35-13.79-9.66-20.63-.28-.58-1.14-.07-.86.5,5.86,12.08,11.42,24.3,16.69,36.65s10.26,24.89,14.94,37.52c2.64,7.12,5.18,14.27,7.62,21.46.21.61,1.17.35.96-.27h0Z"/>
  <path class="cls-4" d="M504.22,1798.71c12.22,7.76,24.45,15.52,36.67,23.27,12.15,7.71,24.3,15.43,36.46,23.14,6.88,4.37,13.77,8.74,20.65,13.11.54.35,1.05-.52.5-.86-12.22-7.76-24.45-15.52-36.67-23.27-12.15-7.71-24.3-15.43-36.46-23.14-6.88-4.37-13.77-8.74-20.65-13.11-.54-.35-1.05.52-.5.86h0Z"/>
  <path class="cls-4" d="M512.8,1862.05c6.47-5.73,12.91-11.51,19.3-17.32s12.75-11.68,19.06-17.59,12.59-11.85,18.82-17.85,12.42-12.03,18.58-18.1c6.15-6.08,12.26-12.19,18.33-18.35.76-.77,1.52-1.55,2.28-2.32.45-.46-.26-1.17-.71-.71-6.06,6.17-12.15,12.3-18.29,18.39s-12.32,12.13-18.54,18.13-12.49,11.96-18.79,17.88c-6.3,5.92-12.65,11.79-19.03,17.62s-12.81,11.62-19.27,17.36c-.81.72-1.62,1.44-2.44,2.16-.48.43.23,1.13.71.71h0Z"/>
  <path class="cls-4" d="M841.2,1568.41c25.59,3.81,51.3,6.77,77.08,8.86s51.55,3.31,77.36,3.67c14.61.2,29.21.13,43.82-.22.64-.02.64-1.02,0-1-25.82.61-51.65.37-77.45-.74s-51.56-3.08-77.23-5.92c-14.47-1.6-28.92-3.47-43.32-5.62-.63-.09-.9.87-.27.96h0Z"/>
  <path class="cls-4" d="M922.82,1645.21c2.62-9.47,5.17-18.95,7.66-28.46,2.49-9.5,4.92-19.02,7.28-28.56s4.66-19.09,6.89-28.65,4.4-19.15,6.51-28.74,4.14-19.2,6.12-28.83c.25-1.23.5-2.45.75-3.68.13-.63-.84-.9-.96-.27-1.96,9.63-3.98,19.24-6.07,28.84-2.09,9.6-4.24,19.18-6.46,28.75s-4.5,19.12-6.84,28.66-4.76,19.06-7.23,28.57c-2.47,9.51-5.01,19-7.61,28.47-.33,1.21-.66,2.41-1,3.62-.17.62.79.89.96.27h0Z"/>
  <path class="cls-4" d="M914.64,1542.01c3.45,8.19,7.24,16.24,11.36,24.11s8.59,15.63,13.35,23.16,9.85,14.87,15.22,21.98,11.04,14.02,16.98,20.68,12.15,13.05,18.62,19.18c.8.75,1.6,1.5,2.4,2.25.47.44,1.18-.27.71-.71-6.51-6.04-12.76-12.35-18.74-18.91-5.98-6.55-11.69-13.36-17.1-20.38s-10.55-14.29-15.38-21.74c-4.81-7.42-9.31-15.04-13.5-22.83s-8.08-15.82-11.62-23.96c-.45-1.03-.89-2.06-1.33-3.1-.25-.58-1.21-.33-.96.27h0Z"/>
  <path class="cls-4" d="M892.91,1605.14c12.68-9.6,25.48-19.05,38.41-28.32,12.86-9.23,25.84-18.29,38.93-27.18,7.35-4.99,14.73-9.93,22.15-14.82.54-.35.03-1.22-.5-.86-13.28,8.75-26.46,17.67-39.51,26.76s-25.86,18.25-38.61,27.62c-7.16,5.26-14.28,10.57-21.36,15.94-.51.38,0,1.25.5.86h0Z"/>
  <path class="cls-4" d="M102.69,440.05c13.5-5.46,26.81-11.38,39.91-17.74,13.06-6.34,25.9-13.12,38.51-20.33,7.11-4.07,14.15-8.27,21.1-12.61.54-.34.04-1.21-.5-.86-12.32,7.68-24.89,14.95-37.7,21.78s-25.85,13.24-39.09,19.19c-7.43,3.34-14.93,6.54-22.49,9.6-.59.24-.33,1.21.27.96h0Z"/>
  <path class="cls-4" d="M177.93,435.99c-3.09-8.01-6.17-16.02-9.26-24.02s-6.17-16.02-9.26-24.02c-1.74-4.51-3.48-9.02-5.21-13.53-.23-.59-1.2-.34-.96.27,3.09,8.01,6.17,16.02,9.26,24.02,3.09,8.01,6.17,16.02,9.26,24.02,1.74,4.51,3.48,9.02,5.21,13.53.23.59,1.2.34.96-.27h0Z"/>
  <path class="cls-4" d="M126.2,396.07c10.13,4.17,20.26,8.33,30.39,12.5s20.26,8.33,30.39,12.5c5.7,2.34,11.4,4.69,17.1,7.03.59.24.85-.72.27-.96-10.13-4.17-20.26-8.33-30.39-12.5s-20.26-8.33-30.39-12.5c-5.7-2.34-11.4-4.69-17.1-7.03-.59-.24-.85.72-.27.96h0Z"/>
  <path class="cls-4" d="M135.98,449.51c9.27-11.06,18.37-22.26,27.29-33.6,8.85-11.25,17.52-22.63,26.02-34.14,4.81-6.51,9.56-13.07,14.25-19.67.37-.53-.49-1.03-.86-.5-8.32,11.69-16.82,23.25-25.49,34.68s-17.53,22.72-26.55,33.87c-5.07,6.26-10.19,12.48-15.36,18.65-.41.49.29,1.2.71.71h0Z"/>
  <path class="cls-4" d="M1006.65,372.99c-13.71-8.84-27.27-17.91-40.66-27.21-13.4-9.3-26.63-18.84-39.7-28.6s-26.09-19.84-38.87-30.1-25.17-20.55-37.49-31.15c-12.36-10.64-24.54-21.49-36.53-32.55-1.48-1.36-2.95-2.73-4.42-4.09-.47-.44-1.18.27-.71.71,11.99,11.15,24.16,22.09,36.53,32.82s24.82,21.16,37.5,31.42c12.67,10.25,25.51,20.27,38.52,30.08s26.22,19.41,39.57,28.77c13.4,9.4,26.97,18.56,40.69,27.49,1.68,1.1,3.37,2.19,5.06,3.27.54.35,1.04-.52.5-.86h0Z"/>
  <path class="cls-4" d="M806.87,345.37c11.15-1.82,21.56-6.43,31.7-11.23,10.91-5.17,21.79-10.41,32.69-15.61,11.03-5.27,22.06-10.54,33.09-15.81s21.96-10.49,32.94-15.74c11.03-5.27,22.06-10.54,33.09-15.81,1.36-.65,2.72-1.3,4.08-1.95.58-.28.07-1.14-.5-.86-10.98,5.25-21.96,10.49-32.94,15.74-10.98,5.25-21.96,10.49-32.94,15.74-10.93,5.22-21.86,10.45-32.79,15.67-10.98,5.25-21.96,10.49-32.94,15.74-10.21,4.88-20.53,9.9-31.64,12.38-1.36.3-2.72.57-4.1.79-.63.1-.36,1.07.27.96h0Z"/>
  <path class="cls-4" d="M900.02,362.52c1.75-11.52,3.6-23.02,5.55-34.51,1.94-11.43,3.98-22.84,6.13-34.24,2.15-11.45,4.41-22.88,6.76-34.29s4.79-22.69,7.33-34c2.56-11.37,5.21-22.71,7.97-34.03.34-1.39.68-2.79,1.02-4.18.15-.62-.81-.89-.96-.27-2.78,11.31-5.46,22.65-8.04,34.01s-5.04,22.63-7.41,33.98-4.66,22.83-6.84,34.28c-2.17,11.39-4.23,22.8-6.2,34.22s-3.85,22.98-5.62,34.5c-.22,1.42-.43,2.84-.65,4.26-.1.63.87.9.96.27h0Z"/>
  <path class="cls-4" d="M841.38,303.18c18.11.24,36.23.49,54.34.73s36.04.49,54.06.73c10.17.14,20.33.27,30.5.41.64,0,.64-.99,0-1-18.11-.24-36.23-.49-54.34-.73s-36.04-.49-54.06-.73c-10.17-.14-20.33-.27-30.5-.41-.64,0-.64.99,0,1h0Z"/>
  <path class="cls-4" d="M416.53,162.57c15.44.08,30.88.51,46.29,1.29,15.42.78,30.82,1.92,46.19,3.41,8.63.83,17.25,1.78,25.85,2.84.64.08.63-.92,0-1-15.32-1.88-30.69-3.41-46.08-4.59-15.39-1.18-30.81-2.01-46.25-2.48-8.66-.27-17.33-.42-26-.47-.64,0-.64,1,0,1h0Z"/>
  <path class="cls-4" d="M475.43,201.12c2.84-11.57,5.41-23.2,7.69-34.9,2.27-11.61,4.26-23.28,5.97-34.98.96-6.58,1.84-13.18,2.63-19.79.08-.64-.92-.63-1,0-1.41,11.78-3.09,23.53-5.06,35.24s-4.19,23.21-6.69,34.73c-1.41,6.5-2.91,12.98-4.5,19.43-.15.62.81.89.96.27h0Z"/>
  <path class="cls-4" d="M458.49,116.27c9.56,10.74,18.85,21.71,27.88,32.9,9.04,11.22,17.81,22.66,26.3,34.31,4.76,6.54,9.43,13.15,14.02,19.81.36.53,1.23.03.86-.5-8.18-11.91-16.66-23.63-25.42-35.12-8.74-11.47-17.75-22.72-27.04-33.75-5.21-6.19-10.51-12.3-15.89-18.35-.43-.48-1.13.23-.71.71h0Z"/>
  <path class="cls-4" d="M453.61,187.44c7.58-4.13,15.12-8.31,22.64-12.55s15.07-8.57,22.55-12.94,14.87-8.75,22.25-13.21,14.74-8.97,22.06-13.54,14.6-9.19,21.86-13.86c.91-.59,1.83-1.18,2.74-1.77.54-.35.04-1.21-.5-.86-7.24,4.69-14.52,9.32-21.83,13.9s-14.72,9.15-22.14,13.64-14.79,8.89-22.23,13.25-14.92,8.67-22.42,12.92-15.04,8.45-22.61,12.59c-.95.52-1.91,1.04-2.87,1.56-.57.31-.06,1.17.5.86h0Z"/>
  <path class="cls-1" d="M142.33,205.33c-7.55,37.37,18.98,81.17,57.19,83.74,33.5,2.26,63.44-28,67.4-61.28,4.32-36.3-22.35-75.71-59.23-77.62-32.2-1.67-59.45,25.9-65.36,55.15Z"/>
  <path class="cls-3" d="M168.89,225.75c3.92,10.74,15.13,20.9,28.6,20.43,15.97-.57,27.88-15.86,28.6-30.64.92-18.79-16.26-36.27-32.68-34.72-18.26,1.72-31.23,26.53-24.51,44.94Z"/>
  <path class="cls-1" d="M741.29,1827.06c15.24,18.1,44.1,26.48,67.4,14.3,26.48-13.84,35.81-48.98,22.47-75.57-14.03-27.98-49.92-40.04-75.57-26.55-30.23,15.89-36.12,61.92-14.3,87.83Z"/>
  <path class="cls-3" d="M345.04,1729.02c8.28,13.87,40.89,15.82,51.06,0,10.47-16.28-6.38-45.87-22.47-46.98-17.59-1.22-37.91,31.38-28.6,46.98Z"/>
  <path class="cls-1" d="M371.59,1324.6c7.39,18.4,22.16,55.19,51.06,59.23,33.15,4.64,71.3-35.7,71.49-71.49.3-57.18-96.28-100.38-124.6-79.66-20.8,15.23-7.86,67.24,2.04,91.92Z"/>
  <path class="cls-1" d="M400.18,1306.21c2.89,17.22,16.68,34.77,26.55,32.68,7.83-1.65,11.83-15.36,12.26-24.51,1.05-22.43-18.06-45.35-28.6-42.89-8.48,1.98-12.57,20.67-10.21,34.72Z"/>
  <path class="cls-1" d="M547.25,356.43c6.79,35.7,37.72,63.13,69.45,65.36,54.34,3.82,106.2-66.62,85.79-116.43-13.19-32.19-56.46-55.49-98.04-42.89-40.32,12.21-64.82,53.86-57.19,93.96Z"/>
  <path class="cls-3" d="M818.91,101.11c10.44,17.96,36.85,25.08,51.06,14.3,15.74-11.94,13.41-43.48-4.09-57.19-10.38-8.14-28.27-11.69-40.85-2.04-13.9,10.65-13.83,31.67-6.13,44.94Z"/>
  <path class="cls-1" d="M974.86,510.91c4.34,14.36,18.53,30.52,34.72,28.6,17.74-2.11,28.58-24.82,26.55-42.89-2.29-20.44-21.58-39.93-38.81-36.77-18.09,3.32-28.65,30.63-22.47,51.06Z"/>
  <path class="cls-4" d="M310.31,405.95c.64,0,.64-1,0-1s-.64,1,0,1h0Z"/>
  <path class="cls-1" d="M898.57,1773.96c-11.82,32.06,35.99,95.63,83.74,87.83,35.48-5.8,66.74-50.31,55.15-81.7-11.81-31.96-62.19-34.46-67.4-34.72-23.41-1.16-62.96,5.46-71.49,28.6Z"/>
  <path class="cls-2" d="M959.84,1432.85c10.45,18.02,33.79,25.51,49.02,18.38,23.11-10.82,27.84-55.47,6.13-71.49-13.36-9.86-37.18-9.21-51.06,6.13-12.1,13.37-12.2,32.98-4.09,46.98Z"/>
  <path class="cls-2" d="M645.29,883.4c6.8,10.73,23.32,14.4,32.68,6.13,7.88-6.97,8.09-20.09,2.04-28.6-6.65-9.35-21.06-13.43-30.64-6.13-8.8,6.7-9.55,19.97-4.09,28.6Z"/>
  <path class="cls-1" d="M792.35,1157.11c15.98.4,30.64-15.47,28.6-30.64-2.31-17.14-25.34-28.99-40.85-20.43-11.92,6.58-16.96,23.87-10.21,36.77,4.29,8.19,13.04,14.06,22.47,14.3Z"/>
  <path class="cls-1" d="M949.63,1808.68c6.6,14.46,26.39,17.81,38.81,10.21,7.94-4.86,13.71-14.72,12.26-24.51-2.25-15.12-21.24-26.83-36.77-20.43-12.79,5.28-20.27,21.63-14.3,34.72Z"/>
  <path class="cls-2" d="M150.99,850.72c11.77,11.29,33.68,8.75,46.98,0,27.31-17.96,28.12-68.52,10.21-79.66-13.23-8.23-38.21,4.13-51.06,20.43-12.63,16.01-20.87,45.09-6.13,59.23Z"/>
</svg>