<?xml version="1.0" encoding="UTF-8"?>
<svg id="_Слой_1" data-name="Слой 1" xmlns="http://www.w3.org/2000/svg" viewBox="0 0 100 90">
  <defs>
    <style>
      .cls-1 {
        fill: none;
        stroke: #000;
        stroke-miterlimit: 10;
      }

      .cls-2 {
        fill: #a0417a;
        stroke-width: 0px;
      }
    </style>
  </defs>
  <path class="cls-2" d="M38.92,36.69l2.72,4.52c.34.56,1.14.07.86-.5-1.15-2.42-2.45-4.76-3.88-7.02l-.86.5c1.64,2.31,3.62,4.32,5.62,6.31l.71-.71c-.68-.53-1.35-1.07-2.03-1.6-.45-.35-.96-.63-1.54-.39-1.17.51-1.38,2.47-1.5,3.55-.06.56.89.69.98.13s.12-1.13.06-1.7c-.07-.65-.92-.64-1,0-.18,1.41-.46,2.8-.82,4.17l.98.13c.02-1.35.18-2.68.47-3.99l-.98-.13c.31,2.93-1.99,5.09-4.05,6.8-1.07.88-2.18,1.47-3.52,1.82-1.26.33-2.81.83-4.05.17l-.12.91c1.63-.3,3.25-.64,4.86-1.04.79-.19,1.57-.4,2.35-.61.39-.11.78-.22,1.17-.33.25-.07.95-.4,1.2-.31l-.3-.23v-.23c.1-.08.2-.15.3-.23h-.09c-.63.12-.36,1.08.27.98.73-.12.62-1.16-.04-1.31-.4-.09-.88.14-1.25.25-.58.17-1.16.34-1.75.5-2.3.63-4.63,1.15-6.98,1.58-.42.08-.48.72-.12.91,1.36.72,2.86.39,4.29.06,1.57-.37,2.9-.93,4.17-1.94,2.38-1.89,5.03-4.44,4.67-7.77-.06-.52-.85-.73-.98-.13-.31,1.4-.48,2.82-.5,4.26,0,.56.84.68.98.13.39-1.46.67-2.94.86-4.43h-1c.06.48.06.96-.02,1.44l.98.13c.06-.56.25-2.48.95-2.58.37-.06.92.55,1.21.78.4.31.8.63,1.2.94.49.39,1.18-.24.71-.71-1.93-1.93-3.87-3.88-5.46-6.11-.37-.52-1.21-.05-.86.5,1.44,2.26,2.73,4.61,3.88,7.02l.86-.5-2.72-4.52c-.33-.55-1.2-.05-.86.5h0Z"/>
  <path class="cls-2" d="M33.45,51.95c1.57,1.4,3.09,2.85,4.56,4.35l.71-.71c-2.54-1.99-5.02-4.08-7.41-6.25l-.61.79c1.36,1.01,2.78,1.91,4.27,2.7.41.22,1-.25.68-.68-1.07-1.48-2.36-2.74-3.86-3.78-.35-.24-.87.16-.73.56.54,1.61,2.02,2.62,3.05,3.9,1.15,1.44,2.03,3.09,2.61,4.84l.84-.49c-1.39-1.54-2.45-3.32-3.49-5.11-.33-.56-1.17-.06-.86.5.82,1.5,1.63,3,2.45,4.49.39.71.83,1.41,1.13,2.17s.31,1.58.33,2.39c.03,1.61.13,3.24.08,4.85-.02.75-.33,1.17-.84,1.67-.42.42-.78.82-.99,1.38s.63.85.91.39c1.53-2.49,3.08-5,5.1-7.13.99-1.04,2.08-1.98,3.31-2.72s2.51-1.21,3.39-2.36c.39-.51-.48-1.01-.86-.5-.89,1.15-2.52,1.62-3.7,2.42s-2.18,1.72-3.12,2.74c-1.95,2.13-3.48,4.59-4.99,7.04l.91.39c.23-.58.8-.95,1.19-1.41.42-.5.63-1.05.67-1.69.11-1.74-.04-3.55-.08-5.29-.02-.78-.06-1.57-.32-2.32s-.7-1.47-1.09-2.19c-.88-1.61-1.75-3.21-2.63-4.82l-.86.5c1.09,1.86,2.19,3.71,3.65,5.31.33.37.99-.02.84-.49-.55-1.68-1.35-3.27-2.41-4.69-.52-.69-1.08-1.34-1.69-1.95s-1.27-1.25-1.56-2.1l-.73.56c1.36.93,2.54,2.09,3.5,3.42l.68-.68c-1.49-.79-2.92-1.69-4.27-2.7-.46-.34-1.02.41-.61.79,2.4,2.17,4.87,4.25,7.41,6.25.49.39,1.17-.24.71-.71-1.48-1.5-3-2.95-4.56-4.35-.48-.43-1.19.28-.71.71h0Z"/>
  <path class="cls-2" d="M45.05,54.24c-1.49,2.15-2.85,4.38-4.06,6.7-.25.48.39,1.04.79.61,1.1-1.19,2.04-2.5,2.83-3.92.32-.58-.49-1.01-.86-.5-1.61,2.16-3.18,4.34-4.7,6.56-.33.47.39,1.01.79.61,1.39-1.41,2.3-3.16,3.18-4.91.24-.47-.42-1.08-.79-.61-1.28,1.65-2.38,3.41-3.28,5.29-.25.52.34.97.79.61,1.39-1.15,2.65-2.43,3.77-3.84.34-.42-.08-1.08-.61-.79-1.62.92-3.06,2.11-4.25,3.54-.29.35-.03,1.02.49.84,1.71-.61,3.27-1.52,4.64-2.71l-.71-.71c-.72.89-1.45,1.79-2.17,2.68l.79.61c1.31-1.97,3.14-3.5,5.29-4.47l-.61-.79c-1.21.95-2.42,1.9-3.63,2.86-.4.32.03.97.49.84,1.46-.45,2.69-1.34,3.91-2.23s2.52-1.82,4.06-1.99l-.25-.93c-1.39.6-2.78,1.2-4.16,1.8-.52.22-.15,1.1.39.91,3.67-1.29,8.41-2.85,11.79,0l.61-.79c-1.14-.5-2.34-.74-3.59-.66-.64.04-.65,1,0,1,3.73,0,6.42,3.38,9.96,4.14.39.09.83-.35.56-.73-1.97-2.88-3.97-5.73-6.02-8.56-.28-.38-.93-.28-.93.25,0,1.16.14,2.32.49,3.44.09.29.2.56.3.84.06.18.21.29-.04.32-.36.04-1.02-.7-1.24-.93-.68-.69-1.13-1.54-1.77-2.26-.26-.3-.6-.44-.98-.27-.3.13-.77.63-.86-.02l-.35.62c1.88-.44,3.02,1.92,4.14,2.98.62.59,1.32.93,2.13,1.18s1.82.46,2.06,1.38l.91-.39c-1.35-2.09-2.39-4.35-3.05-6.75-.33-1.19-.57-2.4-.71-3.63s-.12-2.57-.23-3.86c-.06-.64-1.06-.64-1,0,.12,1.32.09,2.65.24,3.97s.39,2.55.74,3.79c.68,2.47,1.75,4.84,3.15,6.99.3.47,1.06.18.91-.39-.23-.88-.94-1.44-1.76-1.76-.52-.2-1.07-.3-1.59-.51s-.98-.58-1.37-1c-1.32-1.4-2.59-3.48-4.84-2.96-.29.07-.38.36-.35.62.07.5.46.9.94,1.03.21.06.46.07.67.02.12-.03.52-.36.58-.35-.17-.03.19.41.17.39.09.13.19.26.28.39.2.27.39.53.6.79.4.5.84.97,1.35,1.35.44.33,1.01.71,1.59.62.54-.08.83-.56.78-1.08-.06-.68-.46-1.36-.62-2.03-.2-.83-.28-1.67-.27-2.52l-.93.25c2.05,2.82,4.06,5.68,6.02,8.56l.56-.73c-3.66-.79-6.33-4.19-10.22-4.18v1c1.07-.06,2.1.1,3.09.53.47.21,1.08-.39.61-.79-3.71-3.12-8.67-1.69-12.76-.25l.39.91,4.16-1.8c.45-.19.23-.98-.25-.93-3.27.35-5.21,3.33-8.24,4.26l.49.84c1.21-.95,2.42-1.9,3.63-2.86.48-.38-.13-1-.61-.79-2.31,1.05-4.25,2.73-5.65,4.83-.31.47.43,1.05.79.61.72-.89,1.45-1.79,2.17-2.68.4-.5-.21-1.14-.71-.71-1.23,1.08-2.65,1.91-4.2,2.45l.49.84c1.14-1.37,2.5-2.51,4.05-3.38l-.61-.79c-1.13,1.41-2.39,2.69-3.77,3.84l.79.61c.86-1.8,1.9-3.51,3.12-5.09l-.79-.61c-.84,1.67-1.7,3.36-3.03,4.71l.79.61c1.52-2.22,3.09-4.41,4.7-6.56l-.86-.5c-.75,1.34-1.64,2.58-2.67,3.71l.79.61c1.22-2.31,2.57-4.55,4.06-6.7.37-.53-.5-1.03-.86-.5h0Z"/>
  <path class="cls-2" d="M38.88,44.58c-.76,2.24-1.52,4.49-2.29,6.73l.96.27c.41-2.05.83-4.09,1.16-6.16.07-.44-.47-.9-.84-.49-1.33,1.51-2.37,3.2-3.14,5.05-.19.46.53.86.84.49.84-1.04,1.53-2.16,2.05-3.39.25-.58-.49-1.04-.86-.5-1.07,1.53-1.91,3.2-2.51,4.97-.19.56.62.84.91.39.92-1.4,1.6-2.92,2.04-4.53.12-.45-.51-.89-.84-.49-.87,1.08-1.44,2.33-1.63,3.71-.07.51.63.94.91.39,1.55-3.06,3.47-5.9,5.73-8.48l-.84-.22.03.1.05-.39v-.02c.13-.02.26-.03.38-.05.06,0-.03-1.36-.04-1.48-.03-.56-.81-.69-.98-.13-.25.79-.26,1.58-.08,2.38.12.52.8.42.96,0,.19-.5.39-.99.58-1.49.16-.41.31-1.15.58-1.49.3-.37,1.03-.12,1.43-.05.46.08.92.16,1.38.24,1.82.31,3.56.36,5.23-.53,1.43-.77,3.06-1.82,4.04-3.14s1.22-3.15,1.3-4.82c.03-.66-.92-.62-1,0-.41,3.37-1.24,6.67-2.43,9.84l.96.27c.34-1.9.69-3.8,1.03-5.71.1-.54-.6-.89-.91-.39-1.63,2.6-3.15,5.26-4.57,7.99-.3.57.55,1.07.86.5,1-1.82,2.04-3.61,3.12-5.39.34-.55-.52-1.05-.86-.5-.72,1.14-1.27,2.37-1.64,3.66-.15.51.47.79.84.49,1.05-.89,1.77-2.06,2.13-3.38.11-.42-.36-.78-.73-.56-1.49.86-2.85,1.92-4.04,3.16l.79.61c.3-.61.65-1.17,1.1-1.69.23-.27.16-.58-.1-.79-.68-.52-1.67-.1-2.36.18-.85.35-1.62.86-2.32,1.44-1.47,1.23-2.62,2.8-3.73,4.35l.91.39c.19-.76.37-1.53.56-2.29l-.98-.13c-.09.74-.03,3.98,1.48,3.17.56-.3.88-1.15,1.01-1.74.17-.74.13-1.5-.11-2.22-.14-.43-.88-.52-.96,0-.42,2.64-.24,5.3.57,7.85.15.49.8.46.96,0,.74-2.11.7-4.42-.13-6.5-.17-.42-.84-.53-.96,0-.71,3.06-.52,6.26.58,9.21.16.42.66.48.91.12.98-1.36,1.07-3.14.32-4.62-.21-.41-.79-.26-.91.12-.7,2.08-1.17,4.21-1.44,6.38l.98-.13-.02-.09-.13.49-.08.06-.35-.15c-.16-.15-.28.44-.29.49-.02.22.03.39.15.57.19.27.7.38.86,0,.71-1.68,1.1-3.44,1.14-5.27.01-.58-.82-.66-.98-.13-.72,2.3-1.3,4.63-1.74,7-.12.63.76.88.96.27.42-1.25.98-2.44,1.68-3.56l-.86-.5c-.74,1.7-1.42,3.42-2.04,5.16-.19.54.65.88.91.39.78-1.45,1.84-2.71,3.16-3.71l-.73-.56c-.23.86-.37,1.72-.44,2.6-.03.41.44.57.75.43,1.23-.56,2.48-1.09,3.75-1.57.57-.21,3.26-1.46,3.2-.04l.37-.48c-1.2.42-2.39.83-3.59,1.25-.43.15-.52.86,0,.96.79.16,1.57.17,2.36,0,.59-.13,1.51-.39,1.88-.92s.03-1.07-.37-1.44c-.6-.56-1.09-1.09-1.38-1.89-.59-1.62-.31-3.34.16-4.95.5-1.71,1.1-3.46,2.16-4.91h-.86c.35.81.69,1.62,1.04,2.43.2.47.94.21.93-.25-.03-2.47-.24-4.93-.61-7.37-.09-.58-.95-.4-.98.13-.08,1.28-.02,2.54.16,3.81.08.56,1.01.42.98-.13-.07-1.71-.31-3.4-.71-5.07-.12-.49-.83-.46-.96,0-.29.99-.27,2,.08,2.97.15.41.88.53.96,0,.18-1.18.17-2.34-.05-3.52-.11-.58-.95-.4-.98.13-.04.77.02,1.54.18,2.3.13.59.31,1.39.76,1.83,1.19,1.17,2.19-1.42,2.57-2.17l-.79.1c1.56,1.56,3.29,2.98,5.63,2.8.74-.06,2.15-.24,2.45-1.07.15-.43-.12-.79-.45-1.03-.51-.38-1.09-.69-1.63-1.03l-.39.91c2.13.46,4.29.73,6.47.81v-1c-2.32.12-4.51,1.18-6,2.97-.31.37-.03.97.49.84,1.18-.31,2.36-.62,3.54-.94l-.49-.84c-1.41,1.23-2.82,2.45-4.23,3.68l.71.71c1.08-1.23,2.21-2.43,3.38-3.58l-.79-.61c-.94,1.7-1.88,3.4-2.82,5.1-.27.49.38,1.02.79.61l2-2.01-.79-.61c-1.02,1.66-1.83,3.43-2.44,5.27-.21.62.73.85.96.27l1.5-3.68c.22-.54-.63-.85-.91-.39-1.22,1.96-1.94,4.16-2.64,6.34l.98.13c.22-2.3.4-4.61.53-6.91.06-1.15.12-2.31.16-3.46.03-.73.09-1.59-.65-2-.23-.13-.55-.06-.68.18-1.59,2.79-2.33,5.93-3.03,9.03l.98.13c.11-2.65.22-5.3.33-7.95.02-.56-.86-.69-.98-.13-.39,1.8-.68,3.62-.89,5.44h1c-.04-1.84-.09-3.68-.13-5.52-.02-.66-.92-.62-1,0-.22,1.83-.4,3.67-.53,5.51-.04.56.86.68.98.13.39-1.74.61-3.51.64-5.29,0-.55-.87-.69-.98-.13l-.73,3.54.98.13c.17-1.61.22-3.22.16-4.84-.02-.59-.78-.64-.98-.13-.52,1.3-.71,2.69-.54,4.08.06.5.63.67.93.25.91-1.28,1.52-2.73,1.78-4.28l-.98-.13c0,.28-.06.44-.2.68h.86l-.41-.81c-.19-.38-.83-.29-.91.12-.17.8-.33,1.6-.51,2.39-.16.72-.4,1.23-1.2,1.31-.57.06-1.15-.05-1.72-.06-.65-.01-1.3.1-1.91.33-2.65,1.02-3.95,3.64-5.05,6.08-.26.58.59,1.09.86.5.89-1.92,2.15-3.59,3.74-4.97l-.79-.61c-1.03,2.15-2.23,4.22-3.58,6.19l.86.5c.76-1.43,1.59-2.83,2.49-4.18l-.86-.5c-.98,1.84-1.95,3.68-2.93,5.53-.3.57.52,1.05.86.5,1.34-2.1,2.84-4.08,4.49-5.95l-.79-.61c-1.53,2.11-3.01,4.25-4.44,6.43-.32.49.38.98.79.61l3.47-3.27-.79-.61c-.8,1.33-1.71,2.59-2.72,3.78-.41.48.27,1.19.71.71,1.64-1.81,3.23-3.66,4.76-5.56.4-.5-.21-1.13-.71-.71-2.03,1.72-3.88,3.63-5.54,5.71l.79.61c1.31-1.84,2.68-3.62,4.12-5.36.4-.49-.24-1.17-.71-.71l-2.93,2.86.84.49c.41-1.04,1.26-1.85,2.32-2.23l-.56-.73c-.86,1.88-1.92,3.65-3.17,5.29-.39.51.48,1.01.86.5,1.25-1.64,2.31-3.41,3.17-5.29.16-.36-.11-.89-.56-.73-1.41.5-2.47,1.53-3.02,2.93-.19.49.5.81.84.49l2.93-2.86-.71-.71c-1.49,1.8-2.92,3.66-4.28,5.56-.33.46.43,1.05.79.61,1.65-2.08,3.51-3.99,5.54-5.71l-.71-.71c-1.54,1.9-3.12,3.75-4.76,5.56l.71.71c1.07-1.25,2.03-2.58,2.87-3.98.3-.5-.38-.99-.79-.61l-3.47,3.27.79.61c1.43-2.18,2.91-4.32,4.44-6.43.33-.46-.41-1.03-.79-.61-1.71,1.93-3.26,3.98-4.65,6.15l.86.5c.98-1.84,1.95-3.68,2.93-5.53.3-.57-.51-1.04-.86-.5-.9,1.35-1.73,2.74-2.49,4.18-.3.57.5,1.03.86.5,1.35-1.97,2.55-4.04,3.58-6.19.25-.51-.35-.98-.79-.61-1.65,1.43-2.98,3.19-3.9,5.17l.86.5c1.11-2.46,2.68-5.83,5.83-5.91,1.08-.03,2.31.33,3.26-.35.48-.35.71-.88.84-1.44.21-.86.37-1.73.55-2.59l-.91.12.41.81c.17.34.69.31.86,0,.22-.38.32-.75.33-1.18.02-.55-.89-.7-.98-.13-.25,1.47-.81,2.82-1.68,4.04l.93.25c-.15-1.31.01-2.58.51-3.81l-.98-.13c.06,1.62,0,3.23-.16,4.84-.06.56.87.68.98.13l.73-3.54-.98-.13c-.03,1.7-.23,3.37-.6,5.03l.98.13c.13-1.84.31-3.68.53-5.51h-1c.04,1.84.09,3.68.13,5.52.02.66.93.63,1,0,.2-1.74.48-3.47.85-5.18l-.98-.13c-.11,2.65-.22,5.3-.33,7.95-.02.56.86.69.98.13.68-3.02,1.38-6.08,2.93-8.8l-.68.18c.31.17.17.86.16,1.13-.02.5-.04.99-.06,1.48-.04.99-.1,1.98-.16,2.97-.12,1.98-.28,3.95-.47,5.93-.06.58.82.65.98.13.67-2.11,1.36-4.21,2.53-6.1l-.91-.39-1.5,3.68.96.27c.58-1.77,1.37-3.45,2.34-5.03.3-.49-.39-1.01-.79-.61l-2,2.01.79.61c.94-1.7,1.88-3.4,2.82-5.1.27-.49-.37-1.01-.79-.61-1.17,1.15-2.3,2.34-3.38,3.58-.43.49.22,1.13.71.71,1.41-1.23,2.82-2.45,4.23-3.68.39-.34-.03-.96-.49-.84-1.18.31-2.36.62-3.54.94l.49.84c1.33-1.59,3.22-2.57,5.29-2.68.64-.03.65-.98,0-1-2.09-.07-4.16-.33-6.2-.77-.55-.12-.88.61-.39.91.36.22.71.45,1.07.67.16.1.32.23.49.31.1-.14.08-.16-.05-.07-.1.05-.2.09-.3.12-.72.26-1.52.31-2.27.18-1.54-.28-2.66-1.39-3.73-2.45-.22-.22-.64-.19-.79.1-.22.42-.44.84-.68,1.25-.02.04-.32.62-.36.61-.12-.02-.21-.41-.25-.54-.3-.9-.41-1.82-.36-2.76l-.98.13c.18.99.2,1.99.05,2.99h.96c-.29-.81-.32-1.61-.08-2.44h-.96c.38,1.58.6,3.18.67,4.8l.98-.13c-.16-1.18-.19-2.36-.12-3.54l-.98.13c.36,2.35.55,4.73.58,7.11l.93-.25c-.35-.81-.69-1.62-1.04-2.43-.16-.38-.67-.26-.86,0-.89,1.22-1.43,2.63-1.91,4.05-.51,1.49-.96,3.06-.88,4.66.06,1.28.46,2.54,1.28,3.54.22.27.48.47.73.71.03.03.2.15.19.21,0,.07-.62.3-.64.31-.78.29-1.62.34-2.43.18v.96c1.2-.42,2.39-.83,3.59-1.25.22-.08.36-.25.37-.48.03-.64-.34-1.18-.9-1.47-.7-.36-1.52-.17-2.22.06-1.81.61-3.58,1.35-5.32,2.15l.75.43c.06-.79.2-1.57.4-2.34.1-.38-.37-.84-.73-.56-1.45,1.1-2.65,2.46-3.52,4.07l.91.39c.59-1.66,1.23-3.31,1.94-4.93.25-.58-.51-1.06-.86-.5-.75,1.19-1.34,2.46-1.78,3.79l.96.27c.44-2.37,1.02-4.7,1.74-7l-.98-.13c-.04,1.64-.37,3.25-1.01,4.77h.86s.23-.65.21-.78c-.03-.28-.17-.51-.45-.6-.53-.18-.98.28-.87.79.13.6.92.38.98-.13.26-2.08.73-4.13,1.4-6.11l-.91.12c.6,1.18.45,2.55-.32,3.61l.91.12c-1.04-2.78-1.25-5.78-.58-8.68h-.96c.77,1.93.82,4,.13,5.97h.96c-.75-2.37-.96-4.86-.57-7.32h-.96c.16.49.23.99.15,1.5-.07.43-.24,1.18-.67,1.38l.39-.05c-.21-.04-.28-.9-.3-1.06-.04-.41-.03-.82.02-1.24.07-.56-.85-.67-.98-.13-.19.76-.37,1.53-.56,2.29-.14.57.59.84.91.39.92-1.28,1.86-2.57,3.01-3.65.55-.52,1.16-.99,1.82-1.37.47-.26,1.71-.99,2.21-.6l-.1-.79c-.5.58-.92,1.2-1.26,1.89-.23.49.37,1.04.79.61,1.14-1.18,2.42-2.19,3.84-3.01l-.73-.56c-.32,1.17-.95,2.16-1.87,2.94l.84.49c.35-1.22.86-2.35,1.54-3.42l-.86-.5c-1.08,1.77-2.12,3.57-3.12,5.39l.86.5c1.42-2.72,2.94-5.38,4.57-7.99l-.91-.39c-.34,1.9-.69,3.8-1.03,5.71-.12.64.74.87.96.27,1.23-3.26,2.05-6.65,2.47-10.11h-1c-.09,1.8-.34,3.6-1.71,4.9-.66.62-1.43,1.13-2.19,1.62s-1.57.97-2.49,1.13c-1.88.34-3.71-.43-5.57-.54-.72-.04-1.11.27-1.38.92-.4.98-.78,1.98-1.16,2.97h.96c-.15-.63-.12-1.23.08-1.85l-.98-.13c.04.61-.14,1.93.48,2.34.54.35,1.25-.14,1.06-.77-.1-.34-.58-.51-.84-.22-2.32,2.64-4.3,5.55-5.89,8.68l.91.39c.16-1.2.61-2.32,1.37-3.27l-.84-.49c-.42,1.53-1.07,2.96-1.94,4.29l.91.39c.57-1.69,1.38-3.27,2.41-4.73l-.86-.5c-.49,1.14-1.11,2.22-1.9,3.18l.84.49c.69-1.69,1.67-3.25,2.88-4.61l-.84-.49c-.33,2.06-.75,4.11-1.16,6.16-.13.63.76.88.96.27.76-2.24,1.52-4.49,2.29-6.73.21-.61-.76-.87-.96-.27h0Z"/>
  <g>
    <path class="cls-2" d="M38.12,36.24c2.39,5,4.78,10,7.17,15,.28.58,1.13.07.86-.5-2.54-5.51-5.09-11.01-7.63-16.52l-.86.5c1.44,2.47,1.86,5.4,1.16,8.18-.14.53.64.9.91.39.72-1.37.74-2.92.07-4.32-.26-.56-.99-.13-.91.39.28,1.9,0,3.82-.73,5.59l.96.27c.19-.91.37-1.81.56-2.72.11-.56-.59-.86-.91-.39l-1.98,2.96.86.5.54-1.07c.29-.57-.52-1.05-.86-.5-2,3.16-5.61,5.11-9.35,5.07v1c1.15.01,2.06.77,2.92,1.46.93.75,1.87,1.49,2.8,2.24,1.65,1.32,3.37,2.63,4.47,4.47l.79-.61c-1.24-1.32-2.37-2.74-3.37-4.25-.35-.53-1.18-.06-.86.5,1.39,2.5,2.79,4.99,4.18,7.49l.86-.5c-1.53-2.13-2.85-4.39-3.97-6.76-.28-.58-1.13-.07-.86.5,1.1,2.4,2.21,4.8,3.31,7.2l.86-.5c-.83-1.53-1.48-3.15-1.93-4.83l-.96.27c.76,1.96,1.35,3.97,1.78,6.02l.96-.27c-.34-.89-.59-1.79-.75-2.73l-.96.27c.36,1.63.59,3.27.68,4.93l.98-.13c-.44-1.51-.65-3.06-.61-4.64.01-.65-.94-.63-1,0-.12,1.38-.1,2.77.06,4.15l.98-.13c-.23-1.51-.47-3.01-.7-4.52l-.96.27c1.07,3,.74,6.34-.92,9.07-.29.48.39,1.03.79.61,4.61-4.95,8.33-10.76,13.56-15.12,1.46-1.22,3.05-2.29,4.75-3.15l-.5-.86c-5.39,4.03-10.35,8.6-14.79,13.65l.84.49c1.08-3.21,2.69-6.21,4.76-8.9l-.86-.5c-1.37,2.59-2.74,5.19-4.11,7.78-.21.41.25.99.68.68,1.49-1.07,2.98-2.13,4.48-3.2.52-.37.04-1.22-.5-.86-1.16.77-2.25,1.64-3.27,2.6-.4.38.13,1.12.61.79l1.91-1.34-.61-.79-1.92,1.67.71.71c2.47-2.56,5.89-4.04,9.42-4.34s7.19.63,10.33,2.4c1.83,1.03,3.49,2.32,4.98,3.81l.61-.79c-2.49-1.33-4.82-2.92-6.97-4.75l-.61.79c1.87.95,3.67,2.05,5.37,3.28.4.29.97-.29.68-.68-2.63-3.6-4.31-7.82-4.84-12.25l-.98.13c1.03,3.75,2.6,7.34,4.66,10.65.34.54,1.2.05.86-.5-2.14-3.57-4.53-7.65-3.31-11.96l-.98-.13c.02,2.89.48,5.76,1.37,8.51.17.51,1.02.46.98-.13-.11-1.76-.71-3.42-1.02-5.14-.26-1.47-.23-3.17.75-4.38l-.79-.61c-.69,1.51-1.37,3.03-2.06,4.54l.91.39c.81-2.02,1.85-3.94,3.07-5.75l-.86-.5c-1.28,2.26-2.24,4.67-2.85,7.19l.98.13c.85-6.95,7.3-11.15,13.64-12.52.54-.12.43-1.05-.13-.98-4.37.5-8.81.7-13.21.46-2.05-.11-3.84-.69-5.02-2.48s-1.42-3.86-1.7-5.88l-.96.27c1.43,4.23,3.43,9.33,8.34,10.37.58.12.83-.58.39-.91-1.96-1.5-3.93-3.01-5.89-4.51-.51-.39-1.01.48-.5.86,2.33,1.8,5.05,3.04,7.94,3.62l.27-.96c-1.46-.25-2.86.06-4.31.14-1.18.06-2.58-.09-3.35-1.11-.7-.93-.73-2.22-.92-3.32-.23-1.36-.77-2.62-1.49-3.8-.24-.39-.76-.27-.91.12-1.1,2.77-3.6,4.9-6.51,5.55s-6.31-.39-8.47-2.59c-.39-.4-1.1.12-.79.61,3.55,5.44,5.11,11.81,6.62,18.05l.91-.39c-1.79-3.77-3.23-7.71-4.29-11.75-.17-.63-1.08-.36-.96.27.71,3.75,1.15,7.53,1.32,11.34l.98-.13c-.58-3.56-1.17-7.11-1.75-10.67-.08-.48-.88-.47-.96,0-.61,3.52-.39,7.07-.14,10.61.05.63,1.01.65,1,0-.05-3.15-.28-6.29-.67-9.42-.08-.63-.96-.66-1,0-.21,3.43-.22,6.86,0,10.29.04.64,1,.65,1,0,.01-2.96-.36-5.91-1.12-8.78-.15-.56-.96-.42-.98.13-.11,2.77-.21,5.54-.32,8.31l.98-.13c-.33-2.14-.66-4.28-.99-6.42-.07-.44-.72-.47-.91-.12-1.14,2.02-1.17,4.47-.1,6.52.21.4.79.27.91-.12.7-2.24.85-4.56.48-6.87-.07-.41-.75-.5-.91-.12-.7,1.58-1.01,3.26-.88,4.99.04.56.8.68.98.13.64-1.91.74-3.92.35-5.89-.03-.16-.19-.31-.35-.35-.53-.12-.94.05-1.25.5l.86.5c.31-.61,1.11-.12,1.34.3.35.63.33,1.44.43,2.14.24,1.53.76,3,1.5,4.37.24.45.92.23.93-.25.04-2.29-.57-4.53-1.77-6.49-.26-.43-.92-.24-.93.25-.07,2.13-.14,4.26-.21,6.38l.85-.35c-.79-.94-1.59-1.88-2.38-2.81-.28-.33-.88-.07-.85.35.07,1.23.2,2.44.38,3.66l.91-.39c-.49-.86-1.08-1.65-1.74-2.39-.34-.37-.97.02-.84.49.32,1.1.74,2.17,1.25,3.21l.86-.5-1.22-2.29c-.31-.58-1.12-.07-.86.5l.75,1.67c.23.52,1.08.15.91-.39-.81-2.56-3.77-2.58-5.52-4.16l-.35.85c3.01.18,5.93-1.35,7.53-3.89.26-.41-.27-.98-.68-.68-1.65,1.18-3.38,2.22-5.19,3.12-.45.22-.23.95.25.93,1.16-.04,2.21.31,3.13,1.02.45.34,1.05-.43.61-.79-.48-.39-.99-.64-1.61-.74-.3-.04-.65.12-.63.48.03.66.19,1.25.49,1.83s1.13.07.86-.5-.61-1.05-1.05-1.48c-.35-.34-.99,0-.84.49l.57,1.8.84-.49c-.42-.48-.92-.86-1.49-1.15-.46-.22-.9.23-.68.68.27.57.94.73,1.47.43.29-.16.32-.56.1-.79-.37-.39-.75-.78-1.12-1.17l-.49.84c1.05.33,2.44.49,3.08-.61h-.86c.33.53.66,1.06.99,1.59.29.47,1.08.17.91-.39-.13-.44-.27-.89-.4-1.33l-.91.39c.35.72.59,1.47.74,2.26.12.64,1.05.36.96-.27l-.17-1.21-.91.39c1.13,2.48,2.07,5.04,2.85,7.65.18.62,1.11.36.96-.27-.2-.85-.4-1.71-.59-2.56l-.96.27c.35,1.19.59,2.4.68,3.64l.98-.13-1.39-3.52c-.23-.59-1.13-.37-.96.27l.95,3.7.91-.39c-.56-1.25-1.13-2.5-1.69-3.74l-.86.5.89,1.8c.27.55.99.13.91-.39-.16-1.05-.39-2.08-.69-3.1l-.91.39c.52,1.18.92,2.39,1.23,3.64l.96-.27-1.25-3.9-.96.27c1.12,3.02,1.72,6.19,1.75,9.41l.98-.13c-.31-1.4.17-2.77.7-4.06s1.07-2.53,1.48-3.85c.82-2.61,1.26-5.33,1.36-8.06.02-.55-.9-.7-.98-.13-.51,3.38-1.02,6.76-1.53,10.14l.91-.12c-.73-1.31-.97-2.79-1.2-4.25-.09-.58-.95-.4-.98.13-.07,1.33-.14,2.67-.21,4l.98-.13c-.21-1.36-.43-2.73-.64-4.09-.09-.58-.96-.4-.98.13l-.13,3.23.98-.13-.72-3.21-.96.27.79,3.24c.09.39.74.52.91.12l1.27-2.9h-.86c.44.67.62,1.41.47,2.2l.96.27c.32-1.76.82-3.46,1.51-5.11l-.96-.27c-.46,1.7-.99,3.39-1.59,5.04-.22.61.73.85.96.27.81-2.05,1.64-4.14,3.01-5.89l-.84-.49c-.84,2.27-1.45,4.62-1.81,7.02-.06.38.34.85.73.56,1.4-1.01,2.67-2.16,3.79-3.46l-.79-.61c-1.29,1.69-2.59,3.37-3.88,5.06l.86.5c1.53-2.41,3.27-4.67,5.21-6.75l-.79-.61c-1.45,2.11-2.89,4.22-4.34,6.32-.34.5.38.94.79.61,1.77-1.45,3.61-2.81,5.51-4.08l-.61-.79c-.95,1.06-1.89,2.12-2.84,3.18-.38.42.09,1.06.61.79,1.04-.56,2.09-1.12,3.13-1.68l-.61-.79c-.56.5-1.12,1-1.68,1.5-.42.38.13,1.09.61.79,1.53-.98,3.13-1.83,4.8-2.56l-.5-.86c-1.42,1.04-2.92,1.99-4.47,2.82l.5.86c1.04-.56,2.11-1.03,3.23-1.41l-.39-.91c-2.05,1.02-4.1,2.03-6.14,3.05l.61.79c3.23-2.61,7.77-3.25,11.62-1.75l.27-.96c-1.41-.26-2.78-.65-4.11-1.17l-.13.98c3.68.13,7.22,1.35,10.21,3.49.48.34.97-.38.61-.79-3.66-4.05-4.48-9.73-4.69-14.98h-1c.45,4.69,1.81,9.22,4.03,13.38l.86-.5c-.61-1.14-.99-2.37-1.31-3.62s-.59-2.55-.61-3.86c-.03-2.21.79-4.55,2.9-5.56l-.68-.68c-1.96,2.77-3.53,5.88-4.01,9.27-.09.62.81.91.96.27,1.22-5.06,4.61-9.44,9.22-11.87.49-.26.16-1.1-.39-.91-3.63,1.23-7.3,2.47-11.15,2.71l.13.98c3.13-.74,6.24-1.56,9.33-2.45.57-.17.41-.93-.13-.98-1.03-.11-2.05-.18-3.08-.21-.82-.02-1.69-.05-2.46.28-1.13.49-1.89,2.14-.76,3.06.16.13.41.21.61.08.78-.55,1.56-1.09,2.33-1.64l-.68-.68c-.41.75-.81,1.51-1.22,2.26-.28.52.36.95.79.61.6-.49,1.21-.97,1.81-1.46l-.79-.61c-.57.89-1.2,1.73-1.9,2.52-.43.48.23,1.14.71.71l1.58-1.45-.79-.61c-.46.83-1.06,1.53-1.83,2.09l.68.68c.65-1.22,1.56-2.23,2.72-2.98l-.68-.68c-.42.94-1.09,1.62-2.02,2.05l.73.3c-.29-.93-.58-1.86-.87-2.8-.14-.47-.83-.49-.96,0-.33,1.17-.35,2.37-.07,3.55.11.47.87.49.96,0,.15-.77.16-1.51.04-2.29-.09-.56-.99-.42-.98.13v.92h1.01l-.04-.7c-.04-.57-.79-.67-.98-.13l-.61,1.76.91-.12c-.27-.5-.44-1.01-.5-1.57l-.98.13c.14.88.23,1.76.26,2.66l.98-.13c-.32-.95-.55-1.91-.67-2.9l-.93.25.64,1.05c.21.34.65.3.86,0,.51-.71,1.02-1.41,1.52-2.12.1-.14.09-.36,0-.5-.1-.16-.2-.33-.31-.49-.27-.44-.9-.23-.93.25-.11,1.56-.48,3.09-1.12,4.52l.68-.18c-.59-.45-1.02-1.06-1.26-1.76-.21-.62-1.06-.36-.96.27.28,1.77.83,3.46,1.63,5.05.27.54,1.01.14.91-.39l-.87-4.65-.91.39c.3.67.6,1.34.91,2.01.24.53,1.04.14.91-.39-.33-1.42-.67-2.85-1-4.27l-.96.27.52,1.71.91-.39-1.3-2.9c-.2-.45-.97-.23-.93.25l.15,2.1.93-.25c-.47-.68-1.66-.42-1.6.48.04.64,1.04.64,1,0l-.26.02c.26.38.97.28.93-.25l-.15-2.1-.93.25c.43.97.87,1.93,1.3,2.9.23.52,1.08.15.91-.39l-.52-1.71c-.19-.62-1.11-.36-.96.27.33,1.42.67,2.85,1,4.27l.91-.39-.91-2.01c-.25-.55-1.01-.13-.91.39l.87,4.65.91-.39c-.76-1.52-1.26-3.14-1.53-4.82l-.96.27c.33.97.9,1.74,1.72,2.36.2.15.58.05.68-.18.71-1.6,1.13-3.28,1.26-5.03l-.93.25c.1.16.2.33.31.49v-.5c-.51.71-1.02,1.41-1.52,2.12h.86l-.64-1.05c-.24-.39-1-.27-.93.25.14,1.08.36,2.13.71,3.17.17.51,1.01.46.98-.13-.04-.98-.14-1.95-.3-2.92-.09-.55-1.04-.43-.98.13.08.74.28,1.41.63,2.07.22.4.78.27.91-.12l.61-1.76-.98-.13.04.7c.04.64,1.01.65,1,0v-.92c-.34.04-.67.09-.99.13.09.59.07,1.17-.04,1.75h.96c-.24-1.01-.21-2.02.07-3.02h-.96c.29.93.58,1.86.87,2.8.1.33.44.44.73.3,1.06-.49,1.9-1.34,2.38-2.41.19-.42-.22-.98-.68-.68-1.3.84-2.35,1.97-3.08,3.33-.22.41.25,1,.68.68.91-.65,1.65-1.46,2.19-2.44.28-.5-.37-.99-.79-.61l-1.58,1.45.71.71c.76-.86,1.44-1.76,2.06-2.72.33-.51-.37-.94-.79-.61-.6.49-1.21.97-1.81,1.46l.79.61c.41-.75.81-1.51,1.22-2.26.22-.41-.25-.99-.68-.68-.78.55-1.56,1.09-2.33,1.64l.61.08c-.36-.29-.3-.79,0-1.13.39-.45,1.1-.5,1.65-.51,1.32-.03,2.64.08,3.95.21l-.13-.98c-3.09.9-6.2,1.71-9.33,2.45-.54.13-.44,1.02.13.98,3.95-.24,7.7-1.49,11.41-2.75l-.39-.91c-4.82,2.55-8.4,7.17-9.68,12.47l.96.27c.47-3.32,1.99-6.32,3.91-9.03.32-.45-.28-.88-.68-.68-2.25,1.08-3.31,3.57-3.39,5.96-.04,1.43.22,2.87.56,4.25s.78,2.88,1.49,4.19c.31.57,1.17.06.86-.5-2.13-3.99-3.46-8.37-3.89-12.87-.06-.63-1.03-.65-1,0,.22,5.53,1.14,11.43,4.98,15.69l.61-.79c-3.13-2.24-6.87-3.5-10.71-3.63-.6-.02-.63.79-.13.98,1.33.52,2.7.91,4.11,1.17.64.12.86-.73.27-.96-4.21-1.64-9.1-.82-12.59,2.01-.46.38.13,1.02.61.79,2.05-1.02,4.1-2.03,6.14-3.05.5-.25.15-1.09-.39-.91-1.2.4-2.36.91-3.47,1.51-.57.31-.06,1.17.5.86,1.56-.84,3.05-1.78,4.47-2.82.52-.38.09-1.12-.5-.86-1.66.73-3.27,1.58-4.8,2.56l.61.79c.56-.5,1.12-1,1.68-1.5.44-.39-.12-1.05-.61-.79-1.04.56-2.09,1.12-3.13,1.68l.61.79c.95-1.06,1.89-2.12,2.84-3.18.36-.4-.11-1.12-.61-.79-1.97,1.32-3.88,2.74-5.71,4.24l.79.61c1.45-2.11,2.89-4.22,4.34-6.32.32-.47-.4-1.02-.79-.61-2,2.15-3.8,4.48-5.37,6.96-.35.56.48,1,.86.5,1.29-1.69,2.59-3.37,3.88-5.06.34-.45-.42-1.03-.79-.61-1.07,1.24-2.26,2.35-3.59,3.31l.73.56c.36-2.4.97-4.74,1.81-7.02.17-.45-.53-.88-.84-.49-1.48,1.9-2.39,4.11-3.26,6.34l.96.27c.6-1.66,1.13-3.34,1.59-5.04.17-.64-.73-.84-.96-.27-.68,1.65-1.19,3.36-1.51,5.11-.12.63.85.9.96.27.19-1.05.01-2.08-.57-2.97-.18-.28-.7-.37-.86,0l-1.27,2.9.91.12-.79-3.24c-.15-.63-1.1-.36-.96.27l.72,3.21c.13.57.96.41.98-.13l.13-3.23-.98.13c.21,1.36.43,2.73.64,4.09.09.58.95.4.98-.13.07-1.33.14-2.67.21-4l-.98.13c.25,1.56.53,3.1,1.31,4.49.19.35.85.32.91-.12.51-3.38,1.02-6.76,1.53-10.14l-.98-.13c-.1,2.88-.61,5.72-1.53,8.45-.85,2.5-2.57,5.05-1.97,7.78.12.55.99.43.98-.13-.04-3.31-.64-6.58-1.79-9.68-.22-.59-1.16-.36-.96.27l1.25,3.9c.2.61,1.12.36.96-.27-.32-1.34-.77-2.63-1.33-3.88-.23-.52-1.07-.15-.91.39.3,1.02.53,2.05.69,3.1l.91-.39-.89-1.8c-.29-.58-1.12-.07-.86.5l1.69,3.74c.24.53,1.05.15.91-.39l-.95-3.7-.96.27,1.39,3.52c.19.48,1.03.48.98-.13-.1-1.33-.34-2.63-.72-3.91-.18-.62-1.11-.36-.96.27l.59,2.56.96-.27c-.8-2.7-1.79-5.33-2.95-7.89-.26-.56-.98-.12-.91.39l.17,1.21.96-.27c-.17-.87-.45-1.7-.84-2.49-.25-.51-1.08-.15-.91.39.13.44.27.89.4,1.33l.91-.39c-.33-.53-.66-1.06-.99-1.59-.2-.32-.67-.33-.86,0-.37.64-1.39.33-1.95.15-.49-.15-.82.49-.49.84.37.39.75.78,1.12,1.17l.1-.79-.11-.07-.68.68c.51.25.92.56,1.29.99.33.38.98-.02.84-.49l-.57-1.8-.84.49c.39.38.66.78.89,1.27l.86-.5c-.22-.42-.34-.85-.36-1.33l-.63.48c.43.06.82.2,1.16.48l.61-.79c-1.05-.81-2.32-1.2-3.64-1.15l.25.93c1.81-.9,3.55-1.94,5.19-3.12l-.68-.68c-1.42,2.26-4.01,3.56-6.66,3.4-.43-.03-.67.57-.35.85.85.77,1.88,1.16,2.91,1.63.97.44,2.01,1.02,2.35,2.09l.91-.39-.75-1.67-.86.5,1.22,2.29c.31.57,1.14.07.86-.5-.47-.96-.85-1.94-1.15-2.97l-.84.49c.61.67,1.13,1.4,1.58,2.19.3.53.99.14.91-.39-.17-1.12-.28-2.25-.34-3.39l-.85.35c.79.94,1.59,1.88,2.38,2.81.3.35.84.05.85-.35.07-2.13.14-4.26.21-6.38l-.93.25c1.11,1.81,1.67,3.86,1.63,5.98l.93-.25c-.54-1-.95-2.05-1.21-3.16-.23-.97-.2-2.03-.55-2.97-.27-.71-.78-1.27-1.54-1.42-.67-.13-1.37.1-1.69.73-.3.58.5,1.04.86.5l.12-.04-.35-.35c.36,1.8.23,3.62-.35,5.36l.98.13c-.11-1.54.12-3.06.74-4.48l-.91-.12c.34,2.13.17,4.29-.48,6.34l.91-.12c-.91-1.73-.86-3.81.1-5.52l-.91-.12c.33,2.14.66,4.28.99,6.42.09.58.96.41.98-.13.11-2.77.21-5.54.32-8.31l-.98.13c.73,2.78,1.09,5.63,1.08,8.51h1c-.21-3.43-.2-6.86,0-10.29h-1c.4,3.13.62,6.27.67,9.42h1c-.25-3.44-.5-6.92.1-10.34h-.96c.58,3.56,1.17,7.11,1.75,10.67.09.56,1.01.43.98-.13-.18-3.9-.63-7.78-1.36-11.61l-.96.27c1.09,4.12,2.56,8.13,4.39,11.99.25.53,1.04.15.91-.39-1.53-6.32-3.12-12.78-6.72-18.29l-.79.61c2.42,2.47,6.06,3.6,9.45,2.85s5.98-3.16,7.2-6.25l-.91.12c.79,1.29,1.25,2.63,1.48,4.12.18,1.2.38,2.46,1.24,3.38,2.09,2.24,5.39.61,7.95,1.05.62.11.9-.83.27-.96-2.81-.57-5.43-1.77-7.7-3.52l-.5.86c1.96,1.5,3.93,3.01,5.89,4.51l.39-.91c-4.55-.97-6.32-5.78-7.64-9.67-.21-.63-1.05-.36-.96.27.29,2.14.62,4.37,1.85,6.2,1.13,1.67,2.75,2.55,4.73,2.8,2.3.29,4.7.21,7.01.15,2.44-.06,4.87-.24,7.3-.51l-.13-.98c-3.56.77-7.03,2.26-9.74,4.74-2.5,2.29-4.22,5.36-4.63,8.74-.07.56.85.67.98.13.59-2.44,1.51-4.77,2.75-6.95.32-.57-.51-1.03-.86-.5-1.27,1.88-2.33,3.88-3.17,5.99-.21.52.68.9.91.39.69-1.51,1.37-3.03,2.06-4.54.21-.47-.4-1.09-.79-.61-2.49,3.08-.23,6.84-.03,10.23l.98-.13c-.86-2.67-1.31-5.43-1.33-8.24,0-.56-.83-.68-.98-.13-1.3,4.59,1.12,8.92,3.41,12.73l.86-.5c-2.02-3.24-3.55-6.73-4.55-10.41-.14-.52-1.05-.44-.98.13.54,4.61,2.24,9.01,4.97,12.76l.68-.68c-1.7-1.23-3.49-2.33-5.37-3.28-.48-.24-1.06.4-.61.79,2.21,1.89,4.61,3.53,7.17,4.91.49.26,1.02-.37.61-.79-5.42-5.42-13.58-8.34-20.97-5.33-1.94.79-3.71,1.95-5.17,3.46-.45.47.23,1.13.71.71l1.92-1.67c.42-.37-.14-1.11-.61-.79l-1.91,1.34.61.79c.95-.9,1.97-1.72,3.06-2.45l-.5-.86c-1.49,1.07-2.98,2.13-4.48,3.2l.68.68c1.37-2.59,2.74-5.19,4.11-7.78.31-.59-.48-1-.86-.5-2.12,2.76-3.75,5.85-4.86,9.14-.16.47.51.86.84.49,4.38-4.99,9.27-9.52,14.59-13.49.51-.38.08-1.16-.5-.86-6.15,3.15-10.39,8.77-14.68,14-1.24,1.51-2.5,3-3.83,4.43l.79.61c1.79-2.94,2.18-6.6,1.02-9.84-.22-.62-1.06-.36-.96.27.23,1.51.47,3.01.7,4.52.09.55,1.05.43.98-.13-.16-1.38-.18-2.76-.06-4.15h-1c-.04,1.66.18,3.31.65,4.9.15.52,1.02.45.98-.13-.1-1.75-.34-3.49-.72-5.2-.14-.63-1.07-.36-.96.27.16.93.41,1.84.75,2.73.23.6,1.1.37.96-.27-.43-2.05-1.02-4.07-1.78-6.02-.23-.59-1.14-.37-.96.27.48,1.77,1.16,3.46,2.03,5.07.31.57,1.13.07.86-.5-1.1-2.4-2.21-4.8-3.31-7.2l-.86.5c1.12,2.37,2.45,4.63,3.97,6.76.37.51,1.18.07.86-.5-1.39-2.5-2.79-4.99-4.18-7.49l-.86.5c1.05,1.58,2.23,3.07,3.53,4.45.39.41,1.08-.12.79-.61-1.23-2.05-3.16-3.5-5-4.97-1-.8-1.98-1.61-2.99-2.38-.91-.7-1.88-1.29-3.06-1.31-.64,0-.64.99,0,1,4.1.04,8.02-2.11,10.21-5.56l-.86-.5-.54,1.07c-.29.58.5,1.04.86.5l1.98-2.96-.91-.39c-.19.91-.37,1.81-.56,2.72-.13.65.72.85.96.27.81-1.95,1.04-4.04.73-6.12l-.91.39c.5,1.06.47,2.27-.07,3.31l.91.39c.77-3.03.32-6.25-1.26-8.95-.33-.57-1.13-.07-.86.5,2.54,5.51,5.09,11.01,7.63,16.52l.86-.5c-2.39-5-4.78-10-7.17-15-.28-.58-1.14-.07-.86.5h0Z"/>
    <path class="cls-2" d="M41.07,43.08c.83,3.71,1.67,7.43,2.99,11,.22.59,1.14.36.96-.27-1.08-3.87-2.47-7.64-4.15-11.29-.17-.37-.86-.3-.91.12-.08.55-.06,1.05.12,1.58s1.01.46.98-.13c-.05-1.18-.31-2.29-.78-3.38-.24-.55-1.02-.14-.91.39.52,2.47,1.2,4.9,2.06,7.28.15.41.88.54.96,0,.15-.99-.02-1.94-.58-2.78-.27-.41-.93-.26-.93.25-.02,3.28-.05,6.57-.07,9.85h1l-.64-5.23c-.08-.62-1.04-.66-1,0,.1,1.9.13,3.81.07,5.72l.98-.13c-.45-2.66-.93-5.32-2.15-7.75-.25-.49-.88-.19-.93.25-.21,1.77-.07,3.55.38,5.28.16.62,1.12.36.96-.27-.39-1.6-1.11-3.05-2.13-4.33-.25-.31-.73-.1-.84.22-.42,1.34-.38,2.77.14,4.08.19.48,1.01.48.98-.13-.08-1.5-.57-2.92-1.48-4.13-.26-.35-.99-.3-.93.25.21,2.12.76,4.16,1.68,6.09.26.56.99.12.91-.39-.25-1.71-.79-3.34-1.6-4.86-.28-.53-1.01-.14-.91.39.27,1.43.68,2.82,1.23,4.17s1.31,2.51,1.83,3.82c.56,1.4.5,2.81.34,4.28-.09.8-.21,1.59-.38,2.37-.11.5-.22,1.27-.8,1.43l.39.05c-.42-.27.03-1.65.14-2.01.2-.69.5-1.35.84-1.99.69-1.33,1.49-2.62,2.3-3.88,1.64-2.56,3.42-5.04,5.04-7.62l-.86-.5c-1.72,3.28-3.44,6.56-5.16,9.84-.3.57.5,1.04.86.5,1.66-2.44,3.41-4.82,5.27-7.11,1.62-2,3.32-4.01,5.61-5.27l-.61-.79c-2.8,3.16-5.43,6.46-7.89,9.89-.28.39.29.99.68.68,3.8-2.91,7.6-5.83,11.41-8.74.5-.39,0-1.25-.5-.86-3.41,2.6-6.82,5.19-10.22,7.79l.61.79c4.6-4.07,9.65-7.58,15.06-10.49l-.5-.86c-4.22,3.26-8.26,6.74-12.08,10.45-.4.38.14,1.13.61.79,3.72-2.81,7.56-5.46,11.51-7.94.55-.34.07-1.15-.5-.86-4.05,2.05-7.63,4.85-11.19,7.65-.44.35.14,1.1.61.79,3.58-2.43,7.17-4.87,10.49-7.66.18-.15.16-.41.08-.61-.38-.84-1.41-.44-1.95-.03-.98.73-1.92,1.52-2.82,2.35-1.83,1.67-3.49,3.52-4.99,5.49-.37.49.38.93.79.61,2.72-2.16,5.52-4.22,8.39-6.18l-.5-.86c-2.75,1.92-5.38,3.99-7.89,6.22-.42.37.14,1.12.61.79,2.78-1.98,5.55-3.98,8.31-6l-.61-.79c-2.5,2.07-4.92,4.25-7.25,6.52-.39.39.13,1.12.61.79,2.44-1.75,4.89-3.5,7.33-5.26.52-.37.07-1.18-.5-.86-2.24,1.23-4.26,2.82-5.95,4.73-.44.49.21,1.09.71.71,1.75-1.35,3.5-2.7,5.25-4.06l-.71-.71c-1.44,1.5-2.81,3.07-4.08,4.72-.32.41.09,1.13.61.79,1.4-.93,2.69-2,3.87-3.2.39-.4-.11-1.09-.61-.79-2.01,1.23-1.6,4.22.68,4.84.4.11.82-.36.56-.73-1.14-1.64-2.37-3.21-3.68-4.72l-.71.71c1.53,1.62,3.06,3.24,4.59,4.87.38.41,1.11-.13.79-.61l-2.87-4.15-.79.61c1.45,1.64,2.8,3.35,4.05,5.14.37.52,1.17.07.86-.5l-3.39-6.29-.86.5c1.34,1.77,2.55,3.64,3.62,5.58.32.58,1.11.07.86-.5-1.25-2.88-2.42-5.79-3.5-8.74-.52-1.44-1.03-2.88-1.51-4.34s-1.06-2.98-.85-4.57l-.85.35c1.16,1.18,2.33,2.35,3.52,3.5.26.25.75.16.84-.22.21-.94.32-1.88.34-2.84l-.85.35c.39.35.77.69,1.16,1.04.16.15.41.2.61.08.55-.34.56-1.1,0-1.43l-.25.93c3.23-.37,6.47-.75,9.7-1.12l-.13-.98c-1.5.47-3.04.82-4.6,1.01-1.43.18-2.96.32-4.36-.12s-2.4-1.59-3.31-2.69c-.99-1.19-1.85-2.46-2.62-3.8-.23-.4-.98-.26-.93.25.24,2.36.69,4.68,1.36,6.95.33,1.11.72,2.21,1.15,3.28.39.96.81,1.91,1.59,2.62.35.32,1,.01.84-.49-1.54-4.59-3.08-9.18-4.62-13.77l-.91.39c1.68,3.57,3.35,7.13,5.03,10.7l.86-.5c-.95-2-1.9-4-2.85-5.99-.24-.51-1.1-.15-.91.39.59,1.7,1.08,3.43,1.45,5.19.18.84.33,1.69.45,2.54s.2,1.76-.22,2.55l.68-.18c-2.4-1.35-3.05-4.43-5.06-6.21-.28-.25-.72-.15-.84.22-.28.93-.56,1.96-1.02,2.81-.54,1-1.76-.41-2.25-.86-1.36-1.28-2.6-2.69-3.7-4.21-.31-.43-1.09-.19-.91.39.69,2.22,1.39,4.46,1.64,6.79l.93-.25c-1.6-3.31-3.38-6.54-5.32-9.66-.35-.55-1.14-.07-.86.5,2.4,5.09,4.77,10.19,7.11,15.31l.86-.5c-1.58-2.72-3.15-5.44-4.73-8.16-.33-.57-1.11-.07-.86.5,1.37,3.19,2.73,6.38,4.1,9.57l.86-.5c-.92-1.27-1.84-2.54-2.77-3.81-.33-.46-1.02-.19-.91.39.2,1.07.56,2.07,1.06,3.03.28.54.99.13.91-.39-.43-2.88-1.33-5.58-2.55-8.21-.59-1.27-.99-2.46-1.04-3.87-.04-1.14-.1-2.25-.87-3.15l-.49.84c1.31.27,2.46,1.03,3.8,1.2,1.41.18,2.81-.19,4.11-.72.61-.25,1.21-.53,1.81-.83.55-.27,1.11-.54,1.5-1.03.29-.36.46-.79.63-1.21s.32-.96.79-1.1l-.49-.84c-2.38,2.79-5.87,4.45-9.55,4.49-.3,0-.6.32-.48.63.89,2.46,1.93,4.87,3.1,7.22l.86-.5c-1.24-2.09-2.49-4.18-3.73-6.26-.33-.56-1.14-.07-.86.5,2.03,4.25,4.27,8.4,6.71,12.44l.86-.5c-2.26-3.6-4.53-7.22-6.11-11.17l-.91.39c2.04,3.85,3.92,7.78,5.64,11.78l.86-.5c-.92-1.34-1.85-2.67-2.77-4.01-.37-.54-1.12-.08-.86.5.58,1.31,1.17,2.62,1.75,3.93.25.56,1,.13.91-.39-.49-2.9-1.24-5.74-2.27-8.49l-.91.39c1.07,2.15,2.14,4.31,3.21,6.46.25.5,1.13.15.91-.39-.72-1.81-1.44-3.62-2.16-5.43s-1.47-3.49-1.86-5.33l-.84.49c1.55,1.49,2.34,3.75,3.26,5.65,1.05,2.15,2.09,4.3,3.14,6.45l.86-.5c-1.72-3.49-3.27-7.05-4.66-10.69-.23-.59-1.18-.35-.96.27,1.26,3.62,2.71,7.18,4.34,10.65l.86-.5c-1.72-2.83-3.18-5.8-4.36-8.89-.22-.59-1.17-.35-.96.27,1.02,2.99,2.32,5.87,3.88,8.61.27.48,1.14.15.91-.39-.8-1.92-1.59-3.85-2.39-5.77l-1.17-2.83c-.31-.76-1.1-2.02-.72-2.86h-.86c2.01,4.54,4.01,9.08,6.02,13.62l.86-.5c-1.82-3.98-3.64-7.99-4.53-12.3l-.91.39c1.9,3.66,3.79,7.31,5.69,10.97.3.58,1.13.07.86-.5-1.96-4.21-3.92-8.43-5.88-12.64-.25-.53-1.04-.14-.91.39.36,1.57.91,3.09,1.63,4.53l.86-.5c-.7-1.12-1.26-2.3-1.67-3.56l-.91.39c1.65,3.23,3.5,6.36,5.53,9.37.3.44,1.12.18.91-.39-1.14-3.13-2.41-6.22-3.81-9.24-.24-.52-1.07-.15-.91.39.51,1.73,1.03,3.46,1.54,5.19l.77,2.6c.12.39.24.79.35,1.18.05.17.11.34.12.51,0,.14-.09.25.05.24l.35.85c1.11-.99,2.33-1.83,3.64-2.52l-.5-.86c-.9.68-1.84,1.3-2.82,1.86l.61.79c1.03-1.07,2.1-2.08,3.22-3.05l-.71-.71c-1.61,1.45-3.21,2.9-4.82,4.35l.71.71c1.77-1.91,3.55-3.82,5.32-5.72.39-.42-.1-1.04-.61-.79-1.74.88-3.31,2.04-4.66,3.44l.71.71c1.35-1.68,2.7-3.36,4.06-5.04.39-.49-.25-1.18-.71-.71-1.69,1.73-3.39,3.46-5.08,5.19l.79.61c1.29-2.05,2.57-4.09,3.86-6.14.3-.47-.43-1.06-.79-.61l-2.47,3.11.79.61c.56-1.04,1.25-1.97,2.11-2.79l-.84-.49c-.5,1.38-1.2,2.66-2.08,3.83l.91.39c.38-1.8.76-3.6,1.14-5.4.12-.58-.58-.83-.91-.39-.52.69-.89,1.46-1.12,2.3l.98.13c.07-1.23.35-2.41.82-3.55h-.96c.25,1.04.5,2.07.75,3.11.11.45.89.5.96,0,.17-1.16.13-2.3-.14-3.45-.13-.56-.96-.42-.98.13-.03.83.09,1.63.36,2.41.18.52.97.45.98-.13.04-1.57-.12-3.14-.48-4.67-.12-.54-1.04-.44-.98.13.09.85.27,1.66.58,2.45.23.6,1.08.37.96-.27l-.52-2.88c-.09-.51-.84-.45-.96,0-.36,1.25-.39,2.53-.12,3.81.1.48.86.48.96,0,.25-1.2.23-2.4-.07-3.59-.12-.46-.67-.44-.91-.12-.54.72-.7,1.55-.57,2.43.08.52.83.43.96,0,.28-.88.38-1.78.3-2.7-.04-.47-.67-.71-.93-.25-.48.83-.57,1.79-.21,2.69.14.36.7.54.91.12.5-.99.75-2.04.74-3.15,0-.56-.83-.68-.98-.13-.17.63-.27,1.28-.3,1.93-.03.55.9.7.98.13.1-.69.2-1.38.3-2.06.07-.5-.66-.95-.91-.39-.63,1.4-1.43,2.71-2.4,3.9l.79.1c-.47-.67-.85-1.37-1.8-1.23-.78.11-1.28.82-1.23,1.58.02.29.22.48.5.5.66.06,1.02-.66.73-1.2-.1-.18-.36-.3-.56-.23-.77.28-1.24,1.1-.93,1.9.14.34.54.5.84.22.24-.23.38-.48.45-.8l-.91.12c.22.45.04.94.45,1.32.29.27.71.31,1.05.11.78-.47,1.1-1.62,1.05-2.47-.03-.54-.85-.71-.98-.13-.27,1.16-.22,2.34.19,3.46.16.43.85.52.96,0,.21-.96.23-1.91.05-2.88-.1-.57-.97-.42-.98.13-.02,1.19.18,2.34.61,3.45.18.47.79.48.96,0,.28-.74.28-1.52.01-2.26-.19-.53-.95-.45-.98.13-.03.61.02,1.2.15,1.8s.94.4.98-.13c.08-.95,0-1.88-.26-2.8-.12-.44-.89-.51-.96,0-.07.48-.06.88.09,1.34.17.53.98.45.98-.13l.02-2.05-.98.13.29,1.71c.09.55,1.05.43.98-.13l-.23-1.84-.98.13.29,1.77.96-.27c-.35-.88-.69-1.76-1.01-2.66l-.73.56c.17.09.34.18.5.27l-.25-.43c-.03.23-.05.45-.08.68-.07.64.93.63,1,0,.03-.23.05-.45.08-.68.02-.17-.11-.36-.25-.43-.17-.09-.34-.18-.5-.27-.36-.19-.89.13-.73.56.32.89.65,1.78,1.01,2.66.24.6,1.07.38.96-.27l-.29-1.77c-.09-.55-1.05-.43-.98.13l.23,1.84.98-.13-.29-1.71c-.1-.57-.98-.42-.98.13l-.02,2.05.98-.13c-.09-.27-.14-.52-.09-.81h-.96c.23.84.3,1.67.22,2.53l.98-.13c-.11-.51-.14-1.01-.11-1.53l-.98.13c.21.6.21,1.14-.01,1.73h.96c-.4-1.03-.59-2.08-.57-3.18l-.98.13c.15.79.13,1.56-.05,2.34h.96c-.35-.96-.42-1.93-.19-2.93l-.98-.13c.03.49-.06.96-.35,1.36-.27.37-.13.02-.15-.21s-.09-.42-.19-.63c-.18-.38-.83-.29-.91.12,0,.15-.07.27-.19.36l.84.22c-.1-.26-.07-.56.23-.67l-.56-.23.14-.3.5.5c-.02-.33.17-.71.58-.58.29.09.43.51.59.74s.57.37.79.1c1.03-1.26,1.89-2.62,2.56-4.1l-.91-.39c-.1.69-.2,1.38-.3,2.06l.98.13c.03-.57.12-1.11.27-1.67l-.98-.13c0,.93-.19,1.81-.61,2.65l.91.12c-.26-.66-.24-1.3.11-1.92l-.93-.25c.07.84-.01,1.63-.27,2.43h.96c-.09-.62.1-1.17.47-1.66l-.91-.12c.26,1.02.29,2.04.07,3.06h.96c-.24-1.1-.19-2.19.12-3.28h-.96l.52,2.88.96-.27c-.28-.71-.46-1.43-.54-2.18l-.98.13c.33,1.45.48,2.92.44,4.41l.98-.13c-.24-.7-.35-1.4-.32-2.14l-.98.13c.23.96.28,1.94.14,2.91h.96c-.25-1.04-.5-2.07-.75-3.11-.13-.53-.79-.42-.96,0-.51,1.22-.79,2.5-.86,3.82-.03.57.84.67.98.13.21-.76.54-1.43,1.01-2.06l-.91-.39c-.38,1.8-.76,3.6-1.14,5.4-.12.58.58.84.91.39.93-1.25,1.65-2.61,2.18-4.07.18-.49-.5-.81-.84-.49-.91.87-1.67,1.88-2.26,2.99-.25.47.42,1.07.79.61l2.47-3.11-.79-.61c-1.29,2.05-2.57,4.09-3.86,6.14-.3.48.39,1.01.79.61,1.69-1.73,3.39-3.46,5.08-5.19l-.71-.71c-1.35,1.68-2.7,3.36-4.06,5.04-.39.49.25,1.18.71.71,1.3-1.34,2.79-2.44,4.46-3.28l-.61-.79c-1.77,1.91-3.55,3.82-5.32,5.72-.44.47.23,1.14.71.71l4.82-4.35c.48-.43-.22-1.12-.71-.71-1.12.97-2.19,1.98-3.22,3.05-.39.41.11,1.07.61.79.98-.56,1.92-1.18,2.82-1.86.5-.38.08-1.17-.5-.86-1.39.73-2.68,1.63-3.85,2.67-.31.27-.08.9.35.85.67-.07.97-.59.95-1.24-.01-.43-.17-.84-.29-1.25l-.53-1.77c-.67-2.24-1.33-4.48-2-6.73l-.91.39c1.36,2.95,2.6,5.95,3.71,9.01l.91-.39c-2.04-3.01-3.88-6.13-5.53-9.37-.26-.5-1.09-.15-.91.39.44,1.34,1.03,2.61,1.77,3.8.34.55,1.15.07.86-.5-.68-1.37-1.19-2.8-1.53-4.29l-.91.39c1.96,4.21,3.92,8.43,5.88,12.64l.86-.5c-1.9-3.66-3.79-7.31-5.69-10.97-.27-.53-1.02-.15-.91.39.91,4.39,2.78,8.49,4.64,12.54.27.59,1.12.08.86-.5-2.01-4.54-4.01-9.08-6.02-13.62-.15-.33-.72-.33-.86,0-.39.86-.18,1.65.15,2.5.44,1.1.9,2.19,1.36,3.28.89,2.15,1.78,4.3,2.67,6.45l.91-.39c-1.52-2.67-2.79-5.47-3.78-8.38l-.96.27c1.21,3.17,2.69,6.23,4.46,9.13.34.56,1.13.07.86-.5-1.6-3.39-3.01-6.87-4.24-10.41l-.96.27c1.42,3.71,3,7.36,4.76,10.93.28.58,1.14.07.86-.5-1.08-2.22-2.16-4.45-3.25-6.67-.94-1.92-1.74-4.12-3.31-5.63-.37-.36-.94,0-.84.49.39,1.85,1.17,3.59,1.86,5.33s1.44,3.62,2.16,5.43l.91-.39-3.21-6.46c-.25-.5-1.11-.15-.91.39,1.02,2.76,1.78,5.59,2.27,8.49l.91-.39-1.75-3.93-.86.5c.92,1.34,1.85,2.67,2.77,4.01.37.54,1.11.08.86-.5-1.72-4-3.6-7.93-5.64-11.78-.26-.49-1.13-.15-.91.39,1.61,4.04,3.91,7.74,6.21,11.41.34.54,1.2.05.86-.5-2.44-4.03-4.67-8.18-6.71-12.44l-.86.5,3.73,6.26c.33.56,1.15.07.86-.5-1.13-2.27-2.13-4.6-3-6.98l-.48.63c3.92-.04,7.71-1.79,10.25-4.78.31-.36.02-.99-.49-.84-.87.26-1.18,1.02-1.49,1.8-.21.53-.43.94-.93,1.25-.56.35-1.19.62-1.79.89-1.26.57-2.63,1.06-4.03.95s-2.54-.93-3.87-1.2c-.5-.1-.82.45-.49.84.76.88.52,2.21.62,3.28.12,1.26.6,2.4,1.13,3.54,1.19,2.55,2.04,5.19,2.45,7.97l.91-.39c-.46-.89-.78-1.81-.96-2.79l-.91.39,2.77,3.81c.38.53,1.12.08.86-.5-1.37-3.19-2.73-6.38-4.1-9.57l-.86.5c1.58,2.72,3.15,5.44,4.73,8.16.33.57,1.13.07.86-.5-2.34-5.12-4.71-10.22-7.11-15.31l-.86.5c1.95,3.12,3.72,6.34,5.32,9.66.21.43.98.24.93-.25-.26-2.42-.96-4.74-1.68-7.05l-.91.39c1.4,1.93,3.02,3.89,4.92,5.36.73.56,1.76.92,2.48.14.36-.39.52-.97.71-1.45.26-.66.48-1.34.69-2.02l-.84.22c2.09,1.85,2.73,4.94,5.26,6.37.23.13.56.06.68-.18.84-1.57.33-3.52.01-5.17-.38-2-.92-3.96-1.59-5.88l-.91.39c.95,2,1.9,4,2.85,5.99.28.58,1.14.07.86-.5-1.68-3.57-3.35-7.13-5.03-10.7-.24-.51-1.09-.15-.91.39,1.54,4.59,3.08,9.18,4.62,13.77l.84-.49c-.76-.7-1.13-1.67-1.5-2.61-.39-1.01-.74-2.04-1.05-3.07-.62-2.11-1.04-4.28-1.26-6.47l-.93.25c.81,1.41,1.74,2.75,2.78,4,.99,1.19,2.07,2.34,3.55,2.87s3.16.43,4.71.24c1.69-.2,3.35-.56,4.98-1.06.51-.16.45-1.05-.13-.98-3.23.37-6.47.75-9.7,1.12-.46.05-.72.66-.25.93v-.29c.21.03.41.05.61.08-.39-.35-.77-.69-1.16-1.04-.32-.29-.84-.09-.85.35-.02.87-.12,1.72-.31,2.57l.84-.22c-1.19-1.15-2.36-2.32-3.52-3.5-.33-.34-.8-.05-.85.35-.2,1.55.3,3.04.77,4.49.52,1.57,1.06,3.13,1.62,4.68,1.11,3.03,2.31,6.03,3.6,8.98l.86-.5c-1.08-1.94-2.29-3.8-3.62-5.58-.38-.5-1.18-.08-.86.5,1.13,2.1,2.26,4.19,3.39,6.29l.86-.5c-1.3-1.86-2.71-3.64-4.21-5.34-.37-.42-1.11.14-.79.61l2.87,4.15.79-.61c-1.53-1.62-3.06-3.24-4.59-4.87-.45-.47-1.12.23-.71.71,1.25,1.44,2.43,2.95,3.52,4.52l.56-.73c-1.43-.39-1.72-2.23-.44-3.01l-.61-.79c-1.12,1.14-2.34,2.16-3.67,3.04l.61.79c1.28-1.64,2.64-3.22,4.08-4.72.46-.48-.21-1.09-.71-.71-1.75,1.35-3.5,2.7-5.25,4.06l.71.71c1.65-1.85,3.58-3.39,5.75-4.58l-.5-.86c-2.44,1.75-4.89,3.5-7.33,5.26l.61.79c2.33-2.27,4.74-4.45,7.25-6.52.43-.36-.15-1.12-.61-.79-2.75,2.02-5.52,4.02-8.31,6l.61.79c2.45-2.17,5.01-4.19,7.69-6.06.52-.37.03-1.23-.5-.86-2.94,2.01-5.8,4.12-8.59,6.34l.79.61c1.18-1.55,2.47-3.02,3.87-4.38.69-.67,1.4-1.31,2.13-1.93.17-.14,1.99-1.6,2.04-1.49l.08-.61c-3.25,2.73-6.77,5.12-10.28,7.5l.61.79c3.49-2.74,7.01-5.49,10.98-7.49l-.5-.86c-3.95,2.48-7.79,5.13-11.51,7.94l.61.79c3.77-3.65,7.73-7.09,11.88-10.3.5-.38.08-1.18-.5-.86-5.48,2.95-10.6,6.52-15.26,10.64-.42.37.15,1.13.61.79,3.41-2.6,6.82-5.19,10.22-7.79l-.5-.86c-3.8,2.91-7.6,5.83-11.41,8.74l.68.68c2.41-3.36,4.99-6.59,7.74-9.69.37-.42-.09-1.07-.61-.79-2.36,1.3-4.13,3.36-5.81,5.42-1.91,2.36-3.72,4.8-5.43,7.31l.86.5c1.72-3.28,3.44-6.56,5.16-9.84.3-.57-.52-1.05-.86-.5-1.48,2.35-3.08,4.61-4.6,6.93-1.39,2.13-3.02,4.42-3.71,6.9-.22.8-.58,2.22.13,2.88.76.71,1.62-.43,1.86-1.07.44-1.15.56-2.5.68-3.73.13-1.31.18-2.63-.25-3.9-.46-1.38-1.27-2.61-1.85-3.93-.63-1.43-1.07-2.94-1.36-4.47l-.91.39c.77,1.45,1.26,3,1.5,4.63l.91-.39c-.83-1.76-1.35-3.65-1.54-5.59l-.93.25c.8,1.07,1.27,2.29,1.34,3.62l.98-.13c-.46-1.16-.51-2.35-.14-3.54l-.84.22c.91,1.15,1.53,2.47,1.87,3.89l.96-.27c-.43-1.65-.54-3.32-.34-5.01l-.93.25c1.17,2.34,1.62,4.95,2.05,7.51.1.57.97.41.98-.13.06-1.91.04-3.81-.07-5.72h-1l.64,5.23c.08.62,1,.66,1,0,.02-3.28.05-6.57.07-9.85l-.93.25c.4.6.58,1.28.47,2.01h.96c-.86-2.38-1.54-4.8-2.06-7.28l-.91.39c.4.91.6,1.88.64,2.87l.98-.13c-.12-.35-.18-.67-.12-1.05l-.91.12c1.65,3.57,3,7.27,4.05,11.05l.96-.27c-1.32-3.57-2.16-7.29-2.99-11-.14-.63-1.1-.36-.96.27h0Z"/>
    <g>
      <path class="cls-1" d="M-.11,45.97c4.26.57,7.72,1.01,10.05,1.3,4.18.52,8.34,1.24,12.52,1.83,3.34.47,4.93.68,6.97,1.76,3.11,1.66,4.71,4.02,5.05,4.53,2.19,3.32,2.22,6.7,2.22,8.16-.01,3.58-1.17,6.34-5.26,13.37-2.09,3.6-4.85,8.14-8.29,13.31"/>
      <path class="cls-1" d="M28.95,10.91c2.21,5.09,3.9,9.25,5.02,12.07,3.11,7.84,4.35,11.71,8.3,14.03,2.62,1.54,4.62,1.33,5.02,1.28,3.86-.49,5.97-4.38,6.3-5,1.99-3.68,1.27-7.54.48-11.48-1.78-8.9-3.16-15.57-4.33-21.12"/>
      <path class="cls-1" d="M82.21,80.95c-5.18-4.37-8.9-8.58-11.43-11.79-2.54-3.22-4.79-6.59-6.37-11.03-1.53-4.3-1.24-6.25-1.05-7.11.81-3.74,3.83-5.95,5.66-7.26,3.11-2.21,6.23-3.18,14.75-4.57,4.06-.66,9.22-1.41,15.26-2.01"/>
      <path class="cls-1" d="M32.92,74.33c1.05-1.45,7.36-9.09,9.97-10.96,1.61-1.16,4.89-3.51,9.46-3.99,6.51-.68,15.99,7.36,17.38,8.44"/>
      <path class="cls-1" d="M23.8,49.33c1.32-.32,9.02-1.15,11.41-3.5.86-.85,2.74-2.76,3.45-5.88.38-1.7-2.59-11.06-2.72-11.97"/>
      <path class="cls-1" d="M54.88,27.01c-.08,1.08,1.04,7,2.95,9.37.37.45,1.38,1.61,4.36,2.79,1.96.78,15.83.41,20.41.22"/>
    </g>
    <path class="cls-2" d="M38.12,36.24c2.39,5,4.78,10,7.17,15,.28.58,1.13.07.86-.5-2.54-5.51-5.09-11.01-7.63-16.52l-.86.5c1.44,2.47,1.86,5.4,1.16,8.18-.14.53.64.9.91.39.72-1.37.74-2.92.07-4.32-.26-.56-.99-.13-.91.39.28,1.9,0,3.82-.73,5.59l.96.27c.19-.91.37-1.81.56-2.72.11-.56-.59-.86-.91-.39l-1.98,2.96.86.5.54-1.07c.29-.57-.52-1.05-.86-.5-2,3.16-5.61,5.11-9.35,5.07v1c1.15.01,2.06.77,2.92,1.46.93.75,1.87,1.49,2.8,2.24,1.65,1.32,3.37,2.63,4.47,4.47l.79-.61c-1.24-1.32-2.37-2.74-3.37-4.25-.35-.53-1.18-.06-.86.5,1.39,2.5,2.79,4.99,4.18,7.49l.86-.5c-1.53-2.13-2.85-4.39-3.97-6.76-.28-.58-1.13-.07-.86.5,1.1,2.4,2.21,4.8,3.31,7.2l.86-.5c-.83-1.53-1.48-3.15-1.93-4.83l-.96.27c.76,1.96,1.35,3.97,1.78,6.02l.96-.27c-.34-.89-.59-1.79-.75-2.73l-.96.27c.36,1.63.59,3.27.68,4.93l.98-.13c-.44-1.51-.65-3.06-.61-4.64.01-.65-.94-.63-1,0-.12,1.38-.1,2.77.06,4.15l.98-.13c-.23-1.51-.47-3.01-.7-4.52l-.96.27c1.07,3,.74,6.34-.92,9.07-.29.48.39,1.03.79.61,4.61-4.95,8.33-10.76,13.56-15.12,1.46-1.22,3.05-2.29,4.75-3.15l-.5-.86c-5.39,4.03-10.35,8.6-14.79,13.65l.84.49c1.08-3.21,2.69-6.21,4.76-8.9l-.86-.5c-1.37,2.59-2.74,5.19-4.11,7.78-.21.41.25.99.68.68,1.49-1.07,2.98-2.13,4.48-3.2.52-.37.04-1.22-.5-.86-1.16.77-2.25,1.64-3.27,2.6-.4.38.13,1.12.61.79l1.91-1.34-.61-.79-1.92,1.67.71.71c2.47-2.56,5.89-4.04,9.42-4.34s7.19.63,10.33,2.4c1.83,1.03,3.49,2.32,4.98,3.81l.61-.79c-2.49-1.33-4.82-2.92-6.97-4.75l-.61.79c1.87.95,3.67,2.05,5.37,3.28.4.29.97-.29.68-.68-2.63-3.6-4.31-7.82-4.84-12.25l-.98.13c1.03,3.75,2.6,7.34,4.66,10.65.34.54,1.2.05.86-.5-2.14-3.57-4.53-7.65-3.31-11.96l-.98-.13c.02,2.89.48,5.76,1.37,8.51.17.51,1.02.46.98-.13-.11-1.76-.71-3.42-1.02-5.14-.26-1.47-.23-3.17.75-4.38l-.79-.61c-.69,1.51-1.37,3.03-2.06,4.54l.91.39c.81-2.02,1.85-3.94,3.07-5.75l-.86-.5c-1.28,2.26-2.24,4.67-2.85,7.19l.98.13c.85-6.95,7.3-11.15,13.64-12.52.54-.12.43-1.05-.13-.98-4.37.5-8.81.7-13.21.46-2.05-.11-3.84-.69-5.02-2.48s-1.42-3.86-1.7-5.88l-.96.27c1.43,4.23,3.43,9.33,8.34,10.37.58.12.83-.58.39-.91-1.96-1.5-3.93-3.01-5.89-4.51-.51-.39-1.01.48-.5.86,2.33,1.8,5.05,3.04,7.94,3.62l.27-.96c-1.46-.25-2.86.06-4.31.14-1.18.06-2.58-.09-3.35-1.11-.7-.93-.73-2.22-.92-3.32-.23-1.36-.77-2.62-1.49-3.8-.24-.39-.76-.27-.91.12-1.1,2.77-3.6,4.9-6.51,5.55s-6.31-.39-8.47-2.59c-.39-.4-1.1.12-.79.61,3.55,5.44,5.11,11.81,6.62,18.05l.91-.39c-1.79-3.77-3.23-7.71-4.29-11.75-.17-.63-1.08-.36-.96.27.71,3.75,1.15,7.53,1.32,11.34l.98-.13c-.58-3.56-1.17-7.11-1.75-10.67-.08-.48-.88-.47-.96,0-.61,3.52-.39,7.07-.14,10.61.05.63,1.01.65,1,0-.05-3.15-.28-6.29-.67-9.42-.08-.63-.96-.66-1,0-.21,3.43-.22,6.86,0,10.29.04.64,1,.65,1,0,.01-2.96-.36-5.91-1.12-8.78-.15-.56-.96-.42-.98.13-.11,2.77-.21,5.54-.32,8.31l.98-.13c-.33-2.14-.66-4.28-.99-6.42-.07-.44-.72-.47-.91-.12-1.14,2.02-1.17,4.47-.1,6.52.21.4.79.27.91-.12.7-2.24.85-4.56.48-6.87-.07-.41-.75-.5-.91-.12-.7,1.58-1.01,3.26-.88,4.99.04.56.8.68.98.13.64-1.91.74-3.92.35-5.89-.03-.16-.19-.31-.35-.35-.53-.12-.94.05-1.25.5l.86.5c.31-.61,1.11-.12,1.34.3.35.63.33,1.44.43,2.14.24,1.53.76,3,1.5,4.37.24.45.92.23.93-.25.04-2.29-.57-4.53-1.77-6.49-.26-.43-.92-.24-.93.25-.07,2.13-.14,4.26-.21,6.38l.85-.35c-.79-.94-1.59-1.88-2.38-2.81-.28-.33-.88-.07-.85.35.07,1.23.2,2.44.38,3.66l.91-.39c-.49-.86-1.08-1.65-1.74-2.39-.34-.37-.97.02-.84.49.32,1.1.74,2.17,1.25,3.21l.86-.5-1.22-2.29c-.31-.58-1.12-.07-.86.5l.75,1.67c.23.52,1.08.15.91-.39-.81-2.56-3.77-2.58-5.52-4.16l-.35.85c3.01.18,5.93-1.35,7.53-3.89.26-.41-.27-.98-.68-.68-1.65,1.18-3.38,2.22-5.19,3.12-.45.22-.23.95.25.93,1.16-.04,2.21.31,3.13,1.02.45.34,1.05-.43.61-.79-.48-.39-.99-.64-1.61-.74-.3-.04-.65.12-.63.48.03.66.19,1.25.49,1.83s1.13.07.86-.5-.61-1.05-1.05-1.48c-.35-.34-.99,0-.84.49l.57,1.8.84-.49c-.42-.48-.92-.86-1.49-1.15-.46-.22-.9.23-.68.68.27.57.94.73,1.47.43.29-.16.32-.56.1-.79-.37-.39-.75-.78-1.12-1.17l-.49.84c1.05.33,2.44.49,3.08-.61h-.86c.33.53.66,1.06.99,1.59.29.47,1.08.17.91-.39-.13-.44-.27-.89-.4-1.33l-.91.39c.35.72.59,1.47.74,2.26.12.64,1.05.36.96-.27l-.17-1.21-.91.39c1.13,2.48,2.07,5.04,2.85,7.65.18.62,1.11.36.96-.27-.2-.85-.4-1.71-.59-2.56l-.96.27c.35,1.19.59,2.4.68,3.64l.98-.13-1.39-3.52c-.23-.59-1.13-.37-.96.27l.95,3.7.91-.39c-.56-1.25-1.13-2.5-1.69-3.74l-.86.5.89,1.8c.27.55.99.13.91-.39-.16-1.05-.39-2.08-.69-3.1l-.91.39c.52,1.18.92,2.39,1.23,3.64l.96-.27-1.25-3.9-.96.27c1.12,3.02,1.72,6.19,1.75,9.41l.98-.13c-.31-1.4.17-2.77.7-4.06s1.07-2.53,1.48-3.85c.82-2.61,1.26-5.33,1.36-8.06.02-.55-.9-.7-.98-.13-.51,3.38-1.02,6.76-1.53,10.14l.91-.12c-.73-1.31-.97-2.79-1.2-4.25-.09-.58-.95-.4-.98.13-.07,1.33-.14,2.67-.21,4l.98-.13c-.21-1.36-.43-2.73-.64-4.09-.09-.58-.96-.4-.98.13l-.13,3.23.98-.13-.72-3.21-.96.27.79,3.24c.09.39.74.52.91.12l1.27-2.9h-.86c.44.67.62,1.41.47,2.2l.96.27c.32-1.76.82-3.46,1.51-5.11l-.96-.27c-.46,1.7-.99,3.39-1.59,5.04-.22.61.73.85.96.27.81-2.05,1.64-4.14,3.01-5.89l-.84-.49c-.84,2.27-1.45,4.62-1.81,7.02-.06.38.34.85.73.56,1.4-1.01,2.67-2.16,3.79-3.46l-.79-.61c-1.29,1.69-2.59,3.37-3.88,5.06l.86.5c1.53-2.41,3.27-4.67,5.21-6.75l-.79-.61c-1.45,2.11-2.89,4.22-4.34,6.32-.34.5.38.94.79.61,1.77-1.45,3.61-2.81,5.51-4.08l-.61-.79c-.95,1.06-1.89,2.12-2.84,3.18-.38.42.09,1.06.61.79,1.04-.56,2.09-1.12,3.13-1.68l-.61-.79c-.56.5-1.12,1-1.68,1.5-.42.38.13,1.09.61.79,1.53-.98,3.13-1.83,4.8-2.56l-.5-.86c-1.42,1.04-2.92,1.99-4.47,2.82l.5.86c1.04-.56,2.11-1.03,3.23-1.41l-.39-.91c-2.05,1.02-4.1,2.03-6.14,3.05l.61.79c3.23-2.61,7.77-3.25,11.62-1.75l.27-.96c-1.41-.26-2.78-.65-4.11-1.17l-.13.98c3.68.13,7.22,1.35,10.21,3.49.48.34.97-.38.61-.79-3.66-4.05-4.48-9.73-4.69-14.98h-1c.45,4.69,1.81,9.22,4.03,13.38l.86-.5c-.61-1.14-.99-2.37-1.31-3.62s-.59-2.55-.61-3.86c-.03-2.21.79-4.55,2.9-5.56l-.68-.68c-1.96,2.77-3.53,5.88-4.01,9.27-.09.62.81.91.96.27,1.22-5.06,4.61-9.44,9.22-11.87.49-.26.16-1.1-.39-.91-3.63,1.23-7.3,2.47-11.15,2.71l.13.98c3.13-.74,6.24-1.56,9.33-2.45.57-.17.41-.93-.13-.98-1.03-.11-2.05-.18-3.08-.21-.82-.02-1.69-.05-2.46.28-1.13.49-1.89,2.14-.76,3.06.16.13.41.21.61.08.78-.55,1.56-1.09,2.33-1.64l-.68-.68c-.41.75-.81,1.51-1.22,2.26-.28.52.36.95.79.61.6-.49,1.21-.97,1.81-1.46l-.79-.61c-.57.89-1.2,1.73-1.9,2.52-.43.48.23,1.14.71.71l1.58-1.45-.79-.61c-.46.83-1.06,1.53-1.83,2.09l.68.68c.65-1.22,1.56-2.23,2.72-2.98l-.68-.68c-.42.94-1.09,1.62-2.02,2.05l.73.3c-.29-.93-.58-1.86-.87-2.8-.14-.47-.83-.49-.96,0-.33,1.17-.35,2.37-.07,3.55.11.47.87.49.96,0,.15-.77.16-1.51.04-2.29-.09-.56-.99-.42-.98.13v.92h1.01l-.04-.7c-.04-.57-.79-.67-.98-.13l-.61,1.76.91-.12c-.27-.5-.44-1.01-.5-1.57l-.98.13c.14.88.23,1.76.26,2.66l.98-.13c-.32-.95-.55-1.91-.67-2.9l-.93.25.64,1.05c.21.34.65.3.86,0,.51-.71,1.02-1.41,1.52-2.12.1-.14.09-.36,0-.5-.1-.16-.2-.33-.31-.49-.27-.44-.9-.23-.93.25-.11,1.56-.48,3.09-1.12,4.52l.68-.18c-.59-.45-1.02-1.06-1.26-1.76-.21-.62-1.06-.36-.96.27.28,1.77.83,3.46,1.63,5.05.27.54,1.01.14.91-.39l-.87-4.65-.91.39c.3.67.6,1.34.91,2.01.24.53,1.04.14.91-.39-.33-1.42-.67-2.85-1-4.27l-.96.27.52,1.71.91-.39-1.3-2.9c-.2-.45-.97-.23-.93.25l.15,2.1.93-.25c-.47-.68-1.66-.42-1.6.48.04.64,1.04.64,1,0l-.26.02c.26.38.97.28.93-.25l-.15-2.1-.93.25c.43.97.87,1.93,1.3,2.9.23.52,1.08.15.91-.39l-.52-1.71c-.19-.62-1.11-.36-.96.27.33,1.42.67,2.85,1,4.27l.91-.39-.91-2.01c-.25-.55-1.01-.13-.91.39l.87,4.65.91-.39c-.76-1.52-1.26-3.14-1.53-4.82l-.96.27c.33.97.9,1.74,1.72,2.36.2.15.58.05.68-.18.71-1.6,1.13-3.28,1.26-5.03l-.93.25c.1.16.2.33.31.49v-.5c-.51.71-1.02,1.41-1.52,2.12h.86l-.64-1.05c-.24-.39-1-.27-.93.25.14,1.08.36,2.13.71,3.17.17.51,1.01.46.98-.13-.04-.98-.14-1.95-.3-2.92-.09-.55-1.04-.43-.98.13.08.74.28,1.41.63,2.07.22.4.78.27.91-.12l.61-1.76-.98-.13.04.7c.04.64,1.01.65,1,0v-.92c-.34.04-.67.09-.99.13.09.59.07,1.17-.04,1.75h.96c-.24-1.01-.21-2.02.07-3.02h-.96c.29.93.58,1.86.87,2.8.1.33.44.44.73.3,1.06-.49,1.9-1.34,2.38-2.41.19-.42-.22-.98-.68-.68-1.3.84-2.35,1.97-3.08,3.33-.22.41.25,1,.68.68.91-.65,1.65-1.46,2.19-2.44.28-.5-.37-.99-.79-.61l-1.58,1.45.71.71c.76-.86,1.44-1.76,2.06-2.72.33-.51-.37-.94-.79-.61-.6.49-1.21.97-1.81,1.46l.79.61c.41-.75.81-1.51,1.22-2.26.22-.41-.25-.99-.68-.68-.78.55-1.56,1.09-2.33,1.64l.61.08c-.36-.29-.3-.79,0-1.13.39-.45,1.1-.5,1.65-.51,1.32-.03,2.64.08,3.95.21l-.13-.98c-3.09.9-6.2,1.71-9.33,2.45-.54.13-.44,1.02.13.98,3.95-.24,7.7-1.49,11.41-2.75l-.39-.91c-4.82,2.55-8.4,7.17-9.68,12.47l.96.27c.47-3.32,1.99-6.32,3.91-9.03.32-.45-.28-.88-.68-.68-2.25,1.08-3.31,3.57-3.39,5.96-.04,1.43.22,2.87.56,4.25s.78,2.88,1.49,4.19c.31.57,1.17.06.86-.5-2.13-3.99-3.46-8.37-3.89-12.87-.06-.63-1.03-.65-1,0,.22,5.53,1.14,11.43,4.98,15.69l.61-.79c-3.13-2.24-6.87-3.5-10.71-3.63-.6-.02-.63.79-.13.98,1.33.52,2.7.91,4.11,1.17.64.12.86-.73.27-.96-4.21-1.64-9.1-.82-12.59,2.01-.46.38.13,1.02.61.79,2.05-1.02,4.1-2.03,6.14-3.05.5-.25.15-1.09-.39-.91-1.2.4-2.36.91-3.47,1.51-.57.31-.06,1.17.5.86,1.56-.84,3.05-1.78,4.47-2.82.52-.38.09-1.12-.5-.86-1.66.73-3.27,1.58-4.8,2.56l.61.79c.56-.5,1.12-1,1.68-1.5.44-.39-.12-1.05-.61-.79-1.04.56-2.09,1.12-3.13,1.68l.61.79c.95-1.06,1.89-2.12,2.84-3.18.36-.4-.11-1.12-.61-.79-1.97,1.32-3.88,2.74-5.71,4.24l.79.61c1.45-2.11,2.89-4.22,4.34-6.32.32-.47-.4-1.02-.79-.61-2,2.15-3.8,4.48-5.37,6.96-.35.56.48,1,.86.5,1.29-1.69,2.59-3.37,3.88-5.06.34-.45-.42-1.03-.79-.61-1.07,1.24-2.26,2.35-3.59,3.31l.73.56c.36-2.4.97-4.74,1.81-7.02.17-.45-.53-.88-.84-.49-1.48,1.9-2.39,4.11-3.26,6.34l.96.27c.6-1.66,1.13-3.34,1.59-5.04.17-.64-.73-.84-.96-.27-.68,1.65-1.19,3.36-1.51,5.11-.12.63.85.9.96.27.19-1.05.01-2.08-.57-2.97-.18-.28-.7-.37-.86,0l-1.27,2.9.91.12-.79-3.24c-.15-.63-1.1-.36-.96.27l.72,3.21c.13.57.96.41.98-.13l.13-3.23-.98.13c.21,1.36.43,2.73.64,4.09.09.58.95.4.98-.13.07-1.33.14-2.67.21-4l-.98.13c.25,1.56.53,3.1,1.31,4.49.19.35.85.32.91-.12.51-3.38,1.02-6.76,1.53-10.14l-.98-.13c-.1,2.88-.61,5.72-1.53,8.45-.85,2.5-2.57,5.05-1.97,7.78.12.55.99.43.98-.13-.04-3.31-.64-6.58-1.79-9.68-.22-.59-1.16-.36-.96.27l1.25,3.9c.2.61,1.12.36.96-.27-.32-1.34-.77-2.63-1.33-3.88-.23-.52-1.07-.15-.91.39.3,1.02.53,2.05.69,3.1l.91-.39-.89-1.8c-.29-.58-1.12-.07-.86.5l1.69,3.74c.24.53,1.05.15.91-.39l-.95-3.7-.96.27,1.39,3.52c.19.48,1.03.48.98-.13-.1-1.33-.34-2.63-.72-3.91-.18-.62-1.11-.36-.96.27l.59,2.56.96-.27c-.8-2.7-1.79-5.33-2.95-7.89-.26-.56-.98-.12-.91.39l.17,1.21.96-.27c-.17-.87-.45-1.7-.84-2.49-.25-.51-1.08-.15-.91.39.13.44.27.89.4,1.33l.91-.39c-.33-.53-.66-1.06-.99-1.59-.2-.32-.67-.33-.86,0-.37.64-1.39.33-1.95.15-.49-.15-.82.49-.49.84.37.39.75.78,1.12,1.17l.1-.79-.11-.07-.68.68c.51.25.92.56,1.29.99.33.38.98-.02.84-.49l-.57-1.8-.84.49c.39.38.66.78.89,1.27l.86-.5c-.22-.42-.34-.85-.36-1.33l-.63.48c.43.06.82.2,1.16.48l.61-.79c-1.05-.81-2.32-1.2-3.64-1.15l.25.93c1.81-.9,3.55-1.94,5.19-3.12l-.68-.68c-1.42,2.26-4.01,3.56-6.66,3.4-.43-.03-.67.57-.35.85.85.77,1.88,1.16,2.91,1.63.97.44,2.01,1.02,2.35,2.09l.91-.39-.75-1.67-.86.5,1.22,2.29c.31.57,1.14.07.86-.5-.47-.96-.85-1.94-1.15-2.97l-.84.49c.61.67,1.13,1.4,1.58,2.19.3.53.99.14.91-.39-.17-1.12-.28-2.25-.34-3.39l-.85.35c.79.94,1.59,1.88,2.38,2.81.3.35.84.05.85-.35.07-2.13.14-4.26.21-6.38l-.93.25c1.11,1.81,1.67,3.86,1.63,5.98l.93-.25c-.54-1-.95-2.05-1.21-3.16-.23-.97-.2-2.03-.55-2.97-.27-.71-.78-1.27-1.54-1.42-.67-.13-1.37.1-1.69.73-.3.58.5,1.04.86.5l.12-.04-.35-.35c.36,1.8.23,3.62-.35,5.36l.98.13c-.11-1.54.12-3.06.74-4.48l-.91-.12c.34,2.13.17,4.29-.48,6.34l.91-.12c-.91-1.73-.86-3.81.1-5.52l-.91-.12c.33,2.14.66,4.28.99,6.42.09.58.96.41.98-.13.11-2.77.21-5.54.32-8.31l-.98.13c.73,2.78,1.09,5.63,1.08,8.51h1c-.21-3.43-.2-6.86,0-10.29h-1c.4,3.13.62,6.27.67,9.42h1c-.25-3.44-.5-6.92.1-10.34h-.96c.58,3.56,1.17,7.11,1.75,10.67.09.56,1.01.43.98-.13-.18-3.9-.63-7.78-1.36-11.61l-.96.27c1.09,4.12,2.56,8.13,4.39,11.99.25.53,1.04.15.91-.39-1.53-6.32-3.12-12.78-6.72-18.29l-.79.61c2.42,2.47,6.06,3.6,9.45,2.85s5.98-3.16,7.2-6.25l-.91.12c.79,1.29,1.25,2.63,1.48,4.12.18,1.2.38,2.46,1.24,3.38,2.09,2.24,5.39.61,7.95,1.05.62.11.9-.83.27-.96-2.81-.57-5.43-1.77-7.7-3.52l-.5.86c1.96,1.5,3.93,3.01,5.89,4.51l.39-.91c-4.55-.97-6.32-5.78-7.64-9.67-.21-.63-1.05-.36-.96.27.29,2.14.62,4.37,1.85,6.2,1.13,1.67,2.75,2.55,4.73,2.8,2.3.29,4.7.21,7.01.15,2.44-.06,4.87-.24,7.3-.51l-.13-.98c-3.56.77-7.03,2.26-9.74,4.74-2.5,2.29-4.22,5.36-4.63,8.74-.07.56.85.67.98.13.59-2.44,1.51-4.77,2.75-6.95.32-.57-.51-1.03-.86-.5-1.27,1.88-2.33,3.88-3.17,5.99-.21.52.68.9.91.39.69-1.51,1.37-3.03,2.06-4.54.21-.47-.4-1.09-.79-.61-2.49,3.08-.23,6.84-.03,10.23l.98-.13c-.86-2.67-1.31-5.43-1.33-8.24,0-.56-.83-.68-.98-.13-1.3,4.59,1.12,8.92,3.41,12.73l.86-.5c-2.02-3.24-3.55-6.73-4.55-10.41-.14-.52-1.05-.44-.98.13.54,4.61,2.24,9.01,4.97,12.76l.68-.68c-1.7-1.23-3.49-2.33-5.37-3.28-.48-.24-1.06.4-.61.79,2.21,1.89,4.61,3.53,7.17,4.91.49.26,1.02-.37.61-.79-5.42-5.42-13.58-8.34-20.97-5.33-1.94.79-3.71,1.95-5.17,3.46-.45.47.23,1.13.71.71l1.92-1.67c.42-.37-.14-1.11-.61-.79l-1.91,1.34.61.79c.95-.9,1.97-1.72,3.06-2.45l-.5-.86c-1.49,1.07-2.98,2.13-4.48,3.2l.68.68c1.37-2.59,2.74-5.19,4.11-7.78.31-.59-.48-1-.86-.5-2.12,2.76-3.75,5.85-4.86,9.14-.16.47.51.86.84.49,4.38-4.99,9.27-9.52,14.59-13.49.51-.38.08-1.16-.5-.86-6.15,3.15-10.39,8.77-14.68,14-1.24,1.51-2.5,3-3.83,4.43l.79.61c1.79-2.94,2.18-6.6,1.02-9.84-.22-.62-1.06-.36-.96.27.23,1.51.47,3.01.7,4.52.09.55,1.05.43.98-.13-.16-1.38-.18-2.76-.06-4.15h-1c-.04,1.66.18,3.31.65,4.9.15.52,1.02.45.98-.13-.1-1.75-.34-3.49-.72-5.2-.14-.63-1.07-.36-.96.27.16.93.41,1.84.75,2.73.23.6,1.1.37.96-.27-.43-2.05-1.02-4.07-1.78-6.02-.23-.59-1.14-.37-.96.27.48,1.77,1.16,3.46,2.03,5.07.31.57,1.13.07.86-.5-1.1-2.4-2.21-4.8-3.31-7.2l-.86.5c1.12,2.37,2.45,4.63,3.97,6.76.37.51,1.18.07.86-.5-1.39-2.5-2.79-4.99-4.18-7.49l-.86.5c1.05,1.58,2.23,3.07,3.53,4.45.39.41,1.08-.12.79-.61-1.23-2.05-3.16-3.5-5-4.97-1-.8-1.98-1.61-2.99-2.38-.91-.7-1.88-1.29-3.06-1.31-.64,0-.64.99,0,1,4.1.04,8.02-2.11,10.21-5.56l-.86-.5-.54,1.07c-.29.58.5,1.04.86.5l1.98-2.96-.91-.39c-.19.91-.37,1.81-.56,2.72-.13.65.72.85.96.27.81-1.95,1.04-4.04.73-6.12l-.91.39c.5,1.06.47,2.27-.07,3.31l.91.39c.77-3.03.32-6.25-1.26-8.95-.33-.57-1.13-.07-.86.5,2.54,5.51,5.09,11.01,7.63,16.52l.86-.5c-2.39-5-4.78-10-7.17-15-.28-.58-1.14-.07-.86.5h0Z"/>
    <path class="cls-2" d="M41.07,43.08c.83,3.71,1.67,7.43,2.99,11,.22.59,1.14.36.96-.27-1.08-3.87-2.47-7.64-4.15-11.29-.17-.37-.86-.3-.91.12-.08.55-.06,1.05.12,1.58s1.01.46.98-.13c-.05-1.18-.31-2.29-.78-3.38-.24-.55-1.02-.14-.91.39.52,2.47,1.2,4.9,2.06,7.28.15.41.88.54.96,0,.15-.99-.02-1.94-.58-2.78-.27-.41-.93-.26-.93.25-.02,3.28-.05,6.57-.07,9.85h1l-.64-5.23c-.08-.62-1.04-.66-1,0,.1,1.9.13,3.81.07,5.72l.98-.13c-.45-2.66-.93-5.32-2.15-7.75-.25-.49-.88-.19-.93.25-.21,1.77-.07,3.55.38,5.28.16.62,1.12.36.96-.27-.39-1.6-1.11-3.05-2.13-4.33-.25-.31-.73-.1-.84.22-.42,1.34-.38,2.77.14,4.08.19.48,1.01.48.98-.13-.08-1.5-.57-2.92-1.48-4.13-.26-.35-.99-.3-.93.25.21,2.12.76,4.16,1.68,6.09.26.56.99.12.91-.39-.25-1.71-.79-3.34-1.6-4.86-.28-.53-1.01-.14-.91.39.27,1.43.68,2.82,1.23,4.17s1.31,2.51,1.83,3.82c.56,1.4.5,2.81.34,4.28-.09.8-.21,1.59-.38,2.37-.11.5-.22,1.27-.8,1.43l.39.05c-.42-.27.03-1.65.14-2.01.2-.69.5-1.35.84-1.99.69-1.33,1.49-2.62,2.3-3.88,1.64-2.56,3.42-5.04,5.04-7.62l-.86-.5c-1.72,3.28-3.44,6.56-5.16,9.84-.3.57.5,1.04.86.5,1.66-2.44,3.41-4.82,5.27-7.11,1.62-2,3.32-4.01,5.61-5.27l-.61-.79c-2.8,3.16-5.43,6.46-7.89,9.89-.28.39.29.99.68.68,3.8-2.91,7.6-5.83,11.41-8.74.5-.39,0-1.25-.5-.86-3.41,2.6-6.82,5.19-10.22,7.79l.61.79c4.6-4.07,9.65-7.58,15.06-10.49l-.5-.86c-4.22,3.26-8.26,6.74-12.08,10.45-.4.38.14,1.13.61.79,3.72-2.81,7.56-5.46,11.51-7.94.55-.34.07-1.15-.5-.86-4.05,2.05-7.63,4.85-11.19,7.65-.44.35.14,1.1.61.79,3.58-2.43,7.17-4.87,10.49-7.66.18-.15.16-.41.08-.61-.38-.84-1.41-.44-1.95-.03-.98.73-1.92,1.52-2.82,2.35-1.83,1.67-3.49,3.52-4.99,5.49-.37.49.38.93.79.61,2.72-2.16,5.52-4.22,8.39-6.18l-.5-.86c-2.75,1.92-5.38,3.99-7.89,6.22-.42.37.14,1.12.61.79,2.78-1.98,5.55-3.98,8.31-6l-.61-.79c-2.5,2.07-4.92,4.25-7.25,6.52-.39.39.13,1.12.61.79,2.44-1.75,4.89-3.5,7.33-5.26.52-.37.07-1.18-.5-.86-2.24,1.23-4.26,2.82-5.95,4.73-.44.49.21,1.09.71.71,1.75-1.35,3.5-2.7,5.25-4.06l-.71-.71c-1.44,1.5-2.81,3.07-4.08,4.72-.32.41.09,1.13.61.79,1.4-.93,2.69-2,3.87-3.2.39-.4-.11-1.09-.61-.79-2.01,1.23-1.6,4.22.68,4.84.4.11.82-.36.56-.73-1.14-1.64-2.37-3.21-3.68-4.72l-.71.71c1.53,1.62,3.06,3.24,4.59,4.87.38.41,1.11-.13.79-.61l-2.87-4.15-.79.61c1.45,1.64,2.8,3.35,4.05,5.14.37.52,1.17.07.86-.5l-3.39-6.29-.86.5c1.34,1.77,2.55,3.64,3.62,5.58.32.58,1.11.07.86-.5-1.25-2.88-2.42-5.79-3.5-8.74-.52-1.44-1.03-2.88-1.51-4.34s-1.06-2.98-.85-4.57l-.85.35c1.16,1.18,2.33,2.35,3.52,3.5.26.25.75.16.84-.22.21-.94.32-1.88.34-2.84l-.85.35c.39.35.77.69,1.16,1.04.16.15.41.2.61.08.55-.34.56-1.1,0-1.43l-.25.93c3.23-.37,6.47-.75,9.7-1.12l-.13-.98c-1.5.47-3.04.82-4.6,1.01-1.43.18-2.96.32-4.36-.12s-2.4-1.59-3.31-2.69c-.99-1.19-1.85-2.46-2.62-3.8-.23-.4-.98-.26-.93.25.24,2.36.69,4.68,1.36,6.95.33,1.11.72,2.21,1.15,3.28.39.96.81,1.91,1.59,2.62.35.32,1,.01.84-.49-1.54-4.59-3.08-9.18-4.62-13.77l-.91.39c1.68,3.57,3.35,7.13,5.03,10.7l.86-.5c-.95-2-1.9-4-2.85-5.99-.24-.51-1.1-.15-.91.39.59,1.7,1.08,3.43,1.45,5.19.18.84.33,1.69.45,2.54s.2,1.76-.22,2.55l.68-.18c-2.4-1.35-3.05-4.43-5.06-6.21-.28-.25-.72-.15-.84.22-.28.93-.56,1.96-1.02,2.81-.54,1-1.76-.41-2.25-.86-1.36-1.28-2.6-2.69-3.7-4.21-.31-.43-1.09-.19-.91.39.69,2.22,1.39,4.46,1.64,6.79l.93-.25c-1.6-3.31-3.38-6.54-5.32-9.66-.35-.55-1.14-.07-.86.5,2.4,5.09,4.77,10.19,7.11,15.31l.86-.5c-1.58-2.72-3.15-5.44-4.73-8.16-.33-.57-1.11-.07-.86.5,1.37,3.19,2.73,6.38,4.1,9.57l.86-.5c-.92-1.27-1.84-2.54-2.77-3.81-.33-.46-1.02-.19-.91.39.2,1.07.56,2.07,1.06,3.03.28.54.99.13.91-.39-.43-2.88-1.33-5.58-2.55-8.21-.59-1.27-.99-2.46-1.04-3.87-.04-1.14-.1-2.25-.87-3.15l-.49.84c1.31.27,2.46,1.03,3.8,1.2,1.41.18,2.81-.19,4.11-.72.61-.25,1.21-.53,1.81-.83.55-.27,1.11-.54,1.5-1.03.29-.36.46-.79.63-1.21s.32-.96.79-1.1l-.49-.84c-2.38,2.79-5.87,4.45-9.55,4.49-.3,0-.6.32-.48.63.89,2.46,1.93,4.87,3.1,7.22l.86-.5c-1.24-2.09-2.49-4.18-3.73-6.26-.33-.56-1.14-.07-.86.5,2.03,4.25,4.27,8.4,6.71,12.44l.86-.5c-2.26-3.6-4.53-7.22-6.11-11.17l-.91.39c2.04,3.85,3.92,7.78,5.64,11.78l.86-.5c-.92-1.34-1.85-2.67-2.77-4.01-.37-.54-1.12-.08-.86.5.58,1.31,1.17,2.62,1.75,3.93.25.56,1,.13.91-.39-.49-2.9-1.24-5.74-2.27-8.49l-.91.39c1.07,2.15,2.14,4.31,3.21,6.46.25.5,1.13.15.91-.39-.72-1.81-1.44-3.62-2.16-5.43s-1.47-3.49-1.86-5.33l-.84.49c1.55,1.49,2.34,3.75,3.26,5.65,1.05,2.15,2.09,4.3,3.14,6.45l.86-.5c-1.72-3.49-3.27-7.05-4.66-10.69-.23-.59-1.18-.35-.96.27,1.26,3.62,2.71,7.18,4.34,10.65l.86-.5c-1.72-2.83-3.18-5.8-4.36-8.89-.22-.59-1.17-.35-.96.27,1.02,2.99,2.32,5.87,3.88,8.61.27.48,1.14.15.91-.39-.8-1.92-1.59-3.85-2.39-5.77l-1.17-2.83c-.31-.76-1.1-2.02-.72-2.86h-.86c2.01,4.54,4.01,9.08,6.02,13.62l.86-.5c-1.82-3.98-3.64-7.99-4.53-12.3l-.91.39c1.9,3.66,3.79,7.31,5.69,10.97.3.58,1.13.07.86-.5-1.96-4.21-3.92-8.43-5.88-12.64-.25-.53-1.04-.14-.91.39.36,1.57.91,3.09,1.63,4.53l.86-.5c-.7-1.12-1.26-2.3-1.67-3.56l-.91.39c1.65,3.23,3.5,6.36,5.53,9.37.3.44,1.12.18.91-.39-1.14-3.13-2.41-6.22-3.81-9.24-.24-.52-1.07-.15-.91.39.51,1.73,1.03,3.46,1.54,5.19l.77,2.6c.12.39.24.79.35,1.18.05.17.11.34.12.51,0,.14-.09.25.05.24l.35.85c1.11-.99,2.33-1.83,3.64-2.52l-.5-.86c-.9.68-1.84,1.3-2.82,1.86l.61.79c1.03-1.07,2.1-2.08,3.22-3.05l-.71-.71c-1.61,1.45-3.21,2.9-4.82,4.35l.71.71c1.77-1.91,3.55-3.82,5.32-5.72.39-.42-.1-1.04-.61-.79-1.74.88-3.31,2.04-4.66,3.44l.71.71c1.35-1.68,2.7-3.36,4.06-5.04.39-.49-.25-1.18-.71-.71-1.69,1.73-3.39,3.46-5.08,5.19l.79.61c1.29-2.05,2.57-4.09,3.86-6.14.3-.47-.43-1.06-.79-.61l-2.47,3.11.79.61c.56-1.04,1.25-1.97,2.11-2.79l-.84-.49c-.5,1.38-1.2,2.66-2.08,3.83l.91.39c.38-1.8.76-3.6,1.14-5.4.12-.58-.58-.83-.91-.39-.52.69-.89,1.46-1.12,2.3l.98.13c.07-1.23.35-2.41.82-3.55h-.96c.25,1.04.5,2.07.75,3.11.11.45.89.5.96,0,.17-1.16.13-2.3-.14-3.45-.13-.56-.96-.42-.98.13-.03.83.09,1.63.36,2.41.18.52.97.45.98-.13.04-1.57-.12-3.14-.48-4.67-.12-.54-1.04-.44-.98.13.09.85.27,1.66.58,2.45.23.6,1.08.37.96-.27l-.52-2.88c-.09-.51-.84-.45-.96,0-.36,1.25-.39,2.53-.12,3.81.1.48.86.48.96,0,.25-1.2.23-2.4-.07-3.59-.12-.46-.67-.44-.91-.12-.54.72-.7,1.55-.57,2.43.08.52.83.43.96,0,.28-.88.38-1.78.3-2.7-.04-.47-.67-.71-.93-.25-.48.83-.57,1.79-.21,2.69.14.36.7.54.91.12.5-.99.75-2.04.74-3.15,0-.56-.83-.68-.98-.13-.17.63-.27,1.28-.3,1.93-.03.55.9.7.98.13.1-.69.2-1.38.3-2.06.07-.5-.66-.95-.91-.39-.63,1.4-1.43,2.71-2.4,3.9l.79.1c-.47-.67-.85-1.37-1.8-1.23-.78.11-1.28.82-1.23,1.58.02.29.22.48.5.5.66.06,1.02-.66.73-1.2-.1-.18-.36-.3-.56-.23-.77.28-1.24,1.1-.93,1.9.14.34.54.5.84.22.24-.23.38-.48.45-.8l-.91.12c.22.45.04.94.45,1.32.29.27.71.31,1.05.11.78-.47,1.1-1.62,1.05-2.47-.03-.54-.85-.71-.98-.13-.27,1.16-.22,2.34.19,3.46.16.43.85.52.96,0,.21-.96.23-1.91.05-2.88-.1-.57-.97-.42-.98.13-.02,1.19.18,2.34.61,3.45.18.47.79.48.96,0,.28-.74.28-1.52.01-2.26-.19-.53-.95-.45-.98.13-.03.61.02,1.2.15,1.8s.94.4.98-.13c.08-.95,0-1.88-.26-2.8-.12-.44-.89-.51-.96,0-.07.48-.06.88.09,1.34.17.53.98.45.98-.13l.02-2.05-.98.13.29,1.71c.09.55,1.05.43.98-.13l-.23-1.84-.98.13.29,1.77.96-.27c-.35-.88-.69-1.76-1.01-2.66l-.73.56c.17.09.34.18.5.27l-.25-.43c-.03.23-.05.45-.08.68-.07.64.93.63,1,0,.03-.23.05-.45.08-.68.02-.17-.11-.36-.25-.43-.17-.09-.34-.18-.5-.27-.36-.19-.89.13-.73.56.32.89.65,1.78,1.01,2.66.24.6,1.07.38.96-.27l-.29-1.77c-.09-.55-1.05-.43-.98.13l.23,1.84.98-.13-.29-1.71c-.1-.57-.98-.42-.98.13l-.02,2.05.98-.13c-.09-.27-.14-.52-.09-.81h-.96c.23.84.3,1.67.22,2.53l.98-.13c-.11-.51-.14-1.01-.11-1.53l-.98.13c.21.6.21,1.14-.01,1.73h.96c-.4-1.03-.59-2.08-.57-3.18l-.98.13c.15.79.13,1.56-.05,2.34h.96c-.35-.96-.42-1.93-.19-2.93l-.98-.13c.03.49-.06.96-.35,1.36-.27.37-.13.02-.15-.21s-.09-.42-.19-.63c-.18-.38-.83-.29-.91.12,0,.15-.07.27-.19.36l.84.22c-.1-.26-.07-.56.23-.67l-.56-.23.14-.3.5.5c-.02-.33.17-.71.58-.58.29.09.43.51.59.74s.57.37.79.1c1.03-1.26,1.89-2.62,2.56-4.1l-.91-.39c-.1.69-.2,1.38-.3,2.06l.98.13c.03-.57.12-1.11.27-1.67l-.98-.13c0,.93-.19,1.81-.61,2.65l.91.12c-.26-.66-.24-1.3.11-1.92l-.93-.25c.07.84-.01,1.63-.27,2.43h.96c-.09-.62.1-1.17.47-1.66l-.91-.12c.26,1.02.29,2.04.07,3.06h.96c-.24-1.1-.19-2.19.12-3.28h-.96l.52,2.88.96-.27c-.28-.71-.46-1.43-.54-2.18l-.98.13c.33,1.45.48,2.92.44,4.41l.98-.13c-.24-.7-.35-1.4-.32-2.14l-.98.13c.23.96.28,1.94.14,2.91h.96c-.25-1.04-.5-2.07-.75-3.11-.13-.53-.79-.42-.96,0-.51,1.22-.79,2.5-.86,3.82-.03.57.84.67.98.13.21-.76.54-1.43,1.01-2.06l-.91-.39c-.38,1.8-.76,3.6-1.14,5.4-.12.58.58.84.91.39.93-1.25,1.65-2.61,2.18-4.07.18-.49-.5-.81-.84-.49-.91.87-1.67,1.88-2.26,2.99-.25.47.42,1.07.79.61l2.47-3.11-.79-.61c-1.29,2.05-2.57,4.09-3.86,6.14-.3.48.39,1.01.79.61,1.69-1.73,3.39-3.46,5.08-5.19l-.71-.71c-1.35,1.68-2.7,3.36-4.06,5.04-.39.49.25,1.18.71.71,1.3-1.34,2.79-2.44,4.46-3.28l-.61-.79c-1.77,1.91-3.55,3.82-5.32,5.72-.44.47.23,1.14.71.71l4.82-4.35c.48-.43-.22-1.12-.71-.71-1.12.97-2.19,1.98-3.22,3.05-.39.41.11,1.07.61.79.98-.56,1.92-1.18,2.82-1.86.5-.38.08-1.17-.5-.86-1.39.73-2.68,1.63-3.85,2.67-.31.27-.08.9.35.85.67-.07.97-.59.95-1.24-.01-.43-.17-.84-.29-1.25l-.53-1.77c-.67-2.24-1.33-4.48-2-6.73l-.91.39c1.36,2.95,2.6,5.95,3.71,9.01l.91-.39c-2.04-3.01-3.88-6.13-5.53-9.37-.26-.5-1.09-.15-.91.39.44,1.34,1.03,2.61,1.77,3.8.34.55,1.15.07.86-.5-.68-1.37-1.19-2.8-1.53-4.29l-.91.39c1.96,4.21,3.92,8.43,5.88,12.64l.86-.5c-1.9-3.66-3.79-7.31-5.69-10.97-.27-.53-1.02-.15-.91.39.91,4.39,2.78,8.49,4.64,12.54.27.59,1.12.08.86-.5-2.01-4.54-4.01-9.08-6.02-13.62-.15-.33-.72-.33-.86,0-.39.86-.18,1.65.15,2.5.44,1.1.9,2.19,1.36,3.28.89,2.15,1.78,4.3,2.67,6.45l.91-.39c-1.52-2.67-2.79-5.47-3.78-8.38l-.96.27c1.21,3.17,2.69,6.23,4.46,9.13.34.56,1.13.07.86-.5-1.6-3.39-3.01-6.87-4.24-10.41l-.96.27c1.42,3.71,3,7.36,4.76,10.93.28.58,1.14.07.86-.5-1.08-2.22-2.16-4.45-3.25-6.67-.94-1.92-1.74-4.12-3.31-5.63-.37-.36-.94,0-.84.49.39,1.85,1.17,3.59,1.86,5.33s1.44,3.62,2.16,5.43l.91-.39-3.21-6.46c-.25-.5-1.11-.15-.91.39,1.02,2.76,1.78,5.59,2.27,8.49l.91-.39-1.75-3.93-.86.5c.92,1.34,1.85,2.67,2.77,4.01.37.54,1.11.08.86-.5-1.72-4-3.6-7.93-5.64-11.78-.26-.49-1.13-.15-.91.39,1.61,4.04,3.91,7.74,6.21,11.41.34.54,1.2.05.86-.5-2.44-4.03-4.67-8.18-6.71-12.44l-.86.5,3.73,6.26c.33.56,1.15.07.86-.5-1.13-2.27-2.13-4.6-3-6.98l-.48.63c3.92-.04,7.71-1.79,10.25-4.78.31-.36.02-.99-.49-.84-.87.26-1.18,1.02-1.49,1.8-.21.53-.43.94-.93,1.25-.56.35-1.19.62-1.79.89-1.26.57-2.63,1.06-4.03.95s-2.54-.93-3.87-1.2c-.5-.1-.82.45-.49.84.76.88.52,2.21.62,3.28.12,1.26.6,2.4,1.13,3.54,1.19,2.55,2.04,5.19,2.45,7.97l.91-.39c-.46-.89-.78-1.81-.96-2.79l-.91.39,2.77,3.81c.38.53,1.12.08.86-.5-1.37-3.19-2.73-6.38-4.1-9.57l-.86.5c1.58,2.72,3.15,5.44,4.73,8.16.33.57,1.13.07.86-.5-2.34-5.12-4.71-10.22-7.11-15.31l-.86.5c1.95,3.12,3.72,6.34,5.32,9.66.21.43.98.24.93-.25-.26-2.42-.96-4.74-1.68-7.05l-.91.39c1.4,1.93,3.02,3.89,4.92,5.36.73.56,1.76.92,2.48.14.36-.39.52-.97.71-1.45.26-.66.48-1.34.69-2.02l-.84.22c2.09,1.85,2.73,4.94,5.26,6.37.23.13.56.06.68-.18.84-1.57.33-3.52.01-5.17-.38-2-.92-3.96-1.59-5.88l-.91.39c.95,2,1.9,4,2.85,5.99.28.58,1.14.07.86-.5-1.68-3.57-3.35-7.13-5.03-10.7-.24-.51-1.09-.15-.91.39,1.54,4.59,3.08,9.18,4.62,13.77l.84-.49c-.76-.7-1.13-1.67-1.5-2.61-.39-1.01-.74-2.04-1.05-3.07-.62-2.11-1.04-4.28-1.26-6.47l-.93.25c.81,1.41,1.74,2.75,2.78,4,.99,1.19,2.07,2.34,3.55,2.87s3.16.43,4.71.24c1.69-.2,3.35-.56,4.98-1.06.51-.16.45-1.05-.13-.98-3.23.37-6.47.75-9.7,1.12-.46.05-.72.66-.25.93v-.29c.21.03.41.05.61.08-.39-.35-.77-.69-1.16-1.04-.32-.29-.84-.09-.85.35-.02.87-.12,1.72-.31,2.57l.84-.22c-1.19-1.15-2.36-2.32-3.52-3.5-.33-.34-.8-.05-.85.35-.2,1.55.3,3.04.77,4.49.52,1.57,1.06,3.13,1.62,4.68,1.11,3.03,2.31,6.03,3.6,8.98l.86-.5c-1.08-1.94-2.29-3.8-3.62-5.58-.38-.5-1.18-.08-.86.5,1.13,2.1,2.26,4.19,3.39,6.29l.86-.5c-1.3-1.86-2.71-3.64-4.21-5.34-.37-.42-1.11.14-.79.61l2.87,4.15.79-.61c-1.53-1.62-3.06-3.24-4.59-4.87-.45-.47-1.12.23-.71.71,1.25,1.44,2.43,2.95,3.52,4.52l.56-.73c-1.43-.39-1.72-2.23-.44-3.01l-.61-.79c-1.12,1.14-2.34,2.16-3.67,3.04l.61.79c1.28-1.64,2.64-3.22,4.08-4.72.46-.48-.21-1.09-.71-.71-1.75,1.35-3.5,2.7-5.25,4.06l.71.71c1.65-1.85,3.58-3.39,5.75-4.58l-.5-.86c-2.44,1.75-4.89,3.5-7.33,5.26l.61.79c2.33-2.27,4.74-4.45,7.25-6.52.43-.36-.15-1.12-.61-.79-2.75,2.02-5.52,4.02-8.31,6l.61.79c2.45-2.17,5.01-4.19,7.69-6.06.52-.37.03-1.23-.5-.86-2.94,2.01-5.8,4.12-8.59,6.34l.79.61c1.18-1.55,2.47-3.02,3.87-4.38.69-.67,1.4-1.31,2.13-1.93.17-.14,1.99-1.6,2.04-1.49l.08-.61c-3.25,2.73-6.77,5.12-10.28,7.5l.61.79c3.49-2.74,7.01-5.49,10.98-7.49l-.5-.86c-3.95,2.48-7.79,5.13-11.51,7.94l.61.79c3.77-3.65,7.73-7.09,11.88-10.3.5-.38.08-1.18-.5-.86-5.48,2.95-10.6,6.52-15.26,10.64-.42.37.15,1.13.61.79,3.41-2.6,6.82-5.19,10.22-7.79l-.5-.86c-3.8,2.91-7.6,5.83-11.41,8.74l.68.68c2.41-3.36,4.99-6.59,7.74-9.69.37-.42-.09-1.07-.61-.79-2.36,1.3-4.13,3.36-5.81,5.42-1.91,2.36-3.72,4.8-5.43,7.31l.86.5c1.72-3.28,3.44-6.56,5.16-9.84.3-.57-.52-1.05-.86-.5-1.48,2.35-3.08,4.61-4.6,6.93-1.39,2.13-3.02,4.42-3.71,6.9-.22.8-.58,2.22.13,2.88.76.71,1.62-.43,1.86-1.07.44-1.15.56-2.5.68-3.73.13-1.31.18-2.63-.25-3.9-.46-1.38-1.27-2.61-1.85-3.93-.63-1.43-1.07-2.94-1.36-4.47l-.91.39c.77,1.45,1.26,3,1.5,4.63l.91-.39c-.83-1.76-1.35-3.65-1.54-5.59l-.93.25c.8,1.07,1.27,2.29,1.34,3.62l.98-.13c-.46-1.16-.51-2.35-.14-3.54l-.84.22c.91,1.15,1.53,2.47,1.87,3.89l.96-.27c-.43-1.65-.54-3.32-.34-5.01l-.93.25c1.17,2.34,1.62,4.95,2.05,7.51.1.57.97.41.98-.13.06-1.91.04-3.81-.07-5.72h-1l.64,5.23c.08.62,1,.66,1,0,.02-3.28.05-6.57.07-9.85l-.93.25c.4.6.58,1.28.47,2.01h.96c-.86-2.38-1.54-4.8-2.06-7.28l-.91.39c.4.91.6,1.88.64,2.87l.98-.13c-.12-.35-.18-.67-.12-1.05l-.91.12c1.65,3.57,3,7.27,4.05,11.05l.96-.27c-1.32-3.57-2.16-7.29-2.99-11-.14-.63-1.1-.36-.96.27h0Z"/>
    <g>
      <path class="cls-1" d="M-.11,45.97c4.26.57,7.72,1.01,10.05,1.3,4.18.52,8.34,1.24,12.52,1.83,3.34.47,4.93.68,6.97,1.76,3.11,1.66,4.71,4.02,5.05,4.53,2.19,3.32,2.22,6.7,2.22,8.16-.01,3.58-1.17,6.34-5.26,13.37-2.09,3.6-4.85,8.14-8.29,13.31"/>
      <path class="cls-1" d="M28.95,10.91c2.21,5.09,3.9,9.25,5.02,12.07,3.11,7.84,4.35,11.71,8.3,14.03,2.62,1.54,4.62,1.33,5.02,1.28,3.86-.49,5.97-4.38,6.3-5,1.99-3.68,1.27-7.54.48-11.48-1.78-8.9-3.16-15.57-4.33-21.12"/>
      <path class="cls-1" d="M82.21,80.95c-5.18-4.37-8.9-8.58-11.43-11.79-2.54-3.22-4.79-6.59-6.37-11.03-1.53-4.3-1.24-6.25-1.05-7.11.81-3.74,3.83-5.95,5.66-7.26,3.11-2.21,6.23-3.18,14.75-4.57,4.06-.66,9.22-1.41,15.26-2.01"/>
      <path class="cls-1" d="M32.92,74.33c1.05-1.45,7.36-9.09,9.97-10.96,1.61-1.16,4.89-3.51,9.46-3.99,6.51-.68,15.99,7.36,17.38,8.44"/>
      <path class="cls-1" d="M23.8,49.33c1.32-.32,9.02-1.15,11.41-3.5.86-.85,2.74-2.76,3.45-5.88.38-1.7-2.59-11.06-2.72-11.97"/>
      <path class="cls-1" d="M54.88,27.01c-.08,1.08,1.04,7,2.95,9.37.37.45,1.38,1.61,4.36,2.79,1.96.78,15.83.41,20.41.22"/>
    </g>
  </g>
</svg>