<?xml version="1.0" encoding="UTF-8"?>
<svg id="_Слой_1" data-name="Слой 1" xmlns="http://www.w3.org/2000/svg" viewBox="0 0 130 130">
  <defs>
    <style>
      .cls-1 {
        fill: none;
        stroke: #000;
        stroke-miterlimit: 10;
      }
    </style>
  </defs>
  <path class="cls-1" d="M14.11,31.08c8.07,4.37,13.57,8.17,18.17,10.56,4.99,2.6,9.39,5.89,14.17,8.86.65.41,2.54,1.56,3.24,3.73.13.39.64,2.14-.06,3.56-1.23,2.48-5.48,2.58-8.77,2.63-3.44.05-8.6-.34-14.83-2.58"/>
  <path class="cls-1" d="M111.56,39.62c-2.96,1.26-7.34,2.96-12.83,4.48-6.21,1.72-9.39,2.57-13.43,2.15-2.38-.25-8.79-.91-12.9-6.07-.66-.82-2.39-3.06-2.9-6.34-.43-2.81.14-5.77,4.59-13.45,2.02-3.48,4.94-8.11,8.96-13.29"/>
  <path class="cls-1" d="M115.89,90.7c-6.23-2.4-11.54-4.14-15.48-5.35-7.83-2.39-10.18-2.64-12.79-1.82-3.71,1.16-6.86,4.13-8.32,7.64-1.44,3.48-.85,6.6,0,10.74,1.91,9.34,3.35,16.16,4.38,21"/>
  <path class="cls-1" d="M100.22,85.28c-2.84-.85-15.55-7.63-17.45-11.35-.68-1.33-2.69-5.6-2.17-11.12.83-8.9,12.32-16.65,13.47-17.5"/>
  <path class="cls-1" d="M79.29,101.9c-.51-3.14-6.3-11.72-8.78-13.17-3.28-1.91-6.78-4.07-11.3-3.58-1.06.11-4.87.66-7.68,3.66-2.15,2.3-2.71,4.95-3.03,6.45-1.17,5.43-2.79,11.88-4.95,20.05"/>
  <path class="cls-1" d="M48.14,96.82c.26-2.18.14-12.38-.31-16.12-.36-2.98-.81-6.74-3.12-10.85-2.16-3.85-6.3-9.08-10.02-9.84"/>
  <path class="cls-1" d="M34.06,42.52c4.67,2.16,10.82,6.56,18.92,3.47,1.65-.63,6.88-4.06,11.02-9.79,1.84-2.56,7.61-10.8,8.24-12.51"/>
</svg>