<?xml version="1.0" encoding="UTF-8"?>
<svg id="_Слой_1" data-name="Слой 1" xmlns="http://www.w3.org/2000/svg" viewBox="0 0 100 100">
  <defs>
    <style>
      .cls-1 {
        fill: none;
        stroke: #000;
        stroke-miterlimit: 10;
      }
    </style>
  </defs>
  <path class="cls-1" d="M51.02,16.11c.08,2.33.12,5.19,0,8.44-.13,3.71-.21,5.61-.77,7.67-.23.86-1.18,4.18-3.84,7.67-.76,1-3.7,4.71-8.95,7.16-3.82,1.79-7.12,2.1-12.02,2.56-2.73.26-5.03.28-6.65.26"/>
  <path class="cls-1" d="M33.63,83.89c1.62-4.82,3.41-8.7,4.86-11.51,3.59-6.95,5.74-8.6,7.16-9.46,1.17-.71,3.82-2.3,6.9-1.79,2.68.44,4.68,2.31,8.18,7.42,2.42,3.51,5.48,8.46,8.44,14.83"/>
  <path class="cls-1" d="M81.2,57.8c-4.83-.85-8.54-2.23-11-3.32-3.36-1.49-5.06-2.27-6.14-4.09-1.74-2.94-.68-6.47.51-10.23,1.01-3.17,3.58-8.44,6.14-14.32"/>
  <path class="cls-1" d="M61.25,69.31c-.51-.77-1.56-7.05-1.02-8.95,1.07-3.82,3.07-6.9,7.67-6.9"/>
  <path class="cls-1" d="M50.77,29.41c.06,1.23.33,7.7,1.53,9.97.76,1.44,1.56,3.03,3.32,3.84,6.14,2.81,10.23-5.63,10.74-7.67"/>
  <path class="cls-1" d="M29.8,49.1c.99.13,7.34.5,8.95,1.79,2.38,1.9,2.83,4.6,3.32,6.39.77,2.8-.41,9.4-2.56,13.3"/>
</svg>