<?xml version="1.0" encoding="UTF-8"?>
<svg id="_Слой_1" data-name="Слой 1" xmlns="http://www.w3.org/2000/svg" viewBox="0 0 100 100">
  <defs>
    <style>
      .cls-1 {
        fill: none;
        stroke: #000;
        stroke-miterlimit: 10;
      }
    </style>
  </defs>
  <path class="cls-1" d="M39.69,10.79c1.06,2.52,2.4,6.03,3.61,10.35,1.47,5.23,2.28,8.13,2.16,12.16-.17,5.46-1.94,9.53-2.61,10.96-2.69,5.68-6.66,8.84-9.65,11.16-7.37,5.73-15.14,7.88-20.21,8.76"/>
  <path class="cls-1" d="M37.46,89.21c.5-6.1,1.61-10.96,2.56-14.33,2-7.08,3.56-8.51,4.52-9.2,3.24-2.35,8.01-2.37,11.32-.54,1.39.77,2.26,1.72,4.71,5.27,1.81,2.62,4.17,6.22,6.76,10.7"/>
  <path class="cls-1" d="M82.21,68.3c-3.76-2.84-6.93-5.05-9.17-6.56-4.91-3.32-6.44-4.04-7.75-6.34-.16-.28-2.9-5.25-.76-9.9,1.32-2.88,3.82-4.12,8.76-6.49,4.03-1.93,7.66-3,10.35-3.61"/>
  <path class="cls-1" d="M44.84,27.07c.31,1,3.29,8.91,4.63,10.36,2.09,2.27,4.63,2.92,6.47,3.36,4.73,1.13,15.57-1.11,17.66-1.87"/>
  <path class="cls-1" d="M59.98,69.59c-.07-.57-3.73-7.16-2.4-9.72.42-.81,1.36-2.12,3.91-2.59,2.59-.48,9.57,3.1,9.83,3.31"/>
  <path class="cls-1" d="M24.66,60.48c.87-.36,9.57-3.48,11.66-2.67,3.26,1.25,4.1,5.1,4.38,6.39.48,2.19-.31,8.93-.56,9.98"/>
</svg>