<?xml version="1.0" encoding="UTF-8"?>
<svg id="_Слой_1" data-name="Слой 1" xmlns="http://www.w3.org/2000/svg" viewBox="0 0 100 100">
  <defs>
    <style>
      .cls-1 {
        fill: none;
        stroke: #000;
        stroke-miterlimit: 10;
      }
    </style>
  </defs>
  <path class="cls-1" d="M61.91,21.57c-1.3,2.39-2.34,4.34-3.04,5.65-1.26,2.36-2.62,4.65-3.92,6.99-1.04,1.87-1.52,2.77-2.62,3.72-1.68,1.46-3.44,1.88-3.82,1.96-2.46.54-4.47-.2-5.33-.53-2.12-.82-3.49-2.13-6.72-6.14-1.65-2.05-3.72-4.71-6-7.92"/>
  <path class="cls-1" d="M76.07,46.69c-3.51.16-6.35.21-8.27.24-5.34.06-7.91-.08-10.18,1.73-1.5,1.2-1.83,2.43-1.89,2.68-.59,2.39,1.24,4.52,1.53,4.86,1.72,2.01,4.17,2.46,6.68,2.88,5.67.96,9.92,1.66,13.47,2.22"/>
  <path class="cls-1" d="M22.59,62.34c3.76-2.07,7.09-3.32,9.56-4.09,2.48-.77,4.98-1.34,7.97-1.27,2.89.07,3.98.68,4.44.99,2.03,1.33,2.65,3.61,3.01,4.99.6,2.34.47,4.4-.64,9.76-.53,2.55-1.26,5.77-2.26,9.48"/>
  <path class="cls-1" d="M37.67,34.69c.62.95,3.71,6.41,4.23,8.38.32,1.22.97,3.69.22,6.5-1.07,4.01-7.97,7.79-8.93,8.37"/>
  <path class="cls-1" d="M54.52,34.95c-.11.85-1.37,5.6-.51,7.54.31.7,1.01,2.25,2.7,3.37.92.61,7.13.97,7.7,1.1"/>
  <path class="cls-1" d="M60.68,58.39c-.62-.29-4.38-.97-6.21-.38-.35.11-1.26.45-2.64,1.95-.9.98-3.83,9.27-4.75,12.02"/>
</svg>