<?xml version="1.0" encoding="UTF-8"?>
<svg id="_Слой_1" data-name="Слой 1" xmlns="http://www.w3.org/2000/svg" viewBox="0 0 100 100">
  <defs>
    <style>
      .cls-1 {
        fill: none;
        stroke: #000;
        stroke-miterlimit: 10;
      }
    </style>
  </defs>
  <path class="cls-1" d="M58.49,12.08c-.7,5.65-2.69,9.63-4.04,11.86-1.27,2.1-2.65,4.37-5.38,6.27-4.53,3.16-9.45,3-11.26,2.92-2.85-.13-5.84-.87-13.15-5.02-4.11-2.33-9.55-5.73-15.62-10.45"/>
  <path class="cls-1" d="M.22,67.34c6.55-1.74,11.56-3.77,15.08-5.4,3.54-1.64,6.78-3.43,11.34-3.16,1.76.1,4.17.24,6.13,1.82.98.78,3.47,3.23,2.9,14.5-.22,4.32-.93,10.61-3.19,18.09"/>
  <path class="cls-1" d="M57.16,92.14c-.22-8.04.34-14.65.94-19.4,1.09-8.63,2.38-11.53,3.89-13.8,1.12-1.68,4.69-7.05,10.48-7.78,2.26-.28,4.81.14,11.3,4.12,4.18,2.57,9.89,6.54,16.01,12.48"/>
  <path class="cls-1" d="M56.01,20.96c-.49,1.45-.66,7.33.26,9.54.59,1.42,1.16,2.8,2.4,3.25,2.1.77,4.67-1.62,5.76-2.63,2.08-1.94,3.07-3.9,4.58-7.09,1.33-2.82,2.83-6.12,4.43-9.84"/>
  <path class="cls-1" d="M66.72,28.39c-1.48,4.36-1.5,9.6-.48,11.72,1,2.08,2.23,3.38,3.53,4.71,1.15,1.19,11.58,8.96,14,10.44"/>
  <path class="cls-1" d="M35.15,80.59c1.4-4.65,5.33-15.55,6.67-17.99,1.23-2.24,2.48-4.14,4.65-5.71,1.35-.98,2.75-1.99,4.38-1.75,2.61.39,4.03,3.73,5.13,6.34,1.16,2.73,1.99,9.44,2.11,11.26"/>
  <path class="cls-1" d="M20.09,59.79c1.67-.94,11.63-5.92,13.89-9.05,1.06-1.46,2.51-3.48,2.95-6.29.83-5.3-4.37-11.76-6.06-13.14"/>
</svg>