<?xml version="1.0" encoding="UTF-8"?>
<svg id="_Слой_1" data-name="Слой 1" xmlns="http://www.w3.org/2000/svg" viewBox="0 0 100 100">
  <defs>
    <style>
      .cls-1 {
        fill: none;
        stroke: #000;
        stroke-miterlimit: 10;
      }
    </style>
  </defs>
  <path class="cls-1" d="M47.3,96.49c1.35-8.12,2.25-13.94,2.85-17.92.51-3.41.92-6.32,2.82-9.62,2.16-3.75,4.99-5.83,6.51-6.95,9.72-7.14,25.89-7.69,28.49-7.75"/>
  <path class="cls-1" d="M80.72,21.81c-4.87,4.69-8.59,8.77-11.19,11.77-3.44,3.97-4.97,6.11-7.48,6.13-4.29.04-7.34-6.14-7.73-6.93-2.43-4.92-.07-27.3-.22-29.28"/>
  <path class="cls-1" d="M16.09,27.63c4.74,3.56,8.77,6.31,11.65,8.22,7.43,4.92,10.57,6.39,11.6,10.19.67,2.49.42,5.89-1.6,8.07-.34.37-1.69,1.74-6,2.41-4.2.66-7.5.08-10.47-.47-5.97-1.11-10.79-2.06-14.17-2.75"/>
  <path class="cls-1" d="M50.15,78.56c.48-3.35-.53-8.77-.91-10.51-.32-1.45-.58-2.29-1.31-3-1.19-1.15-3.1-1.54-4.52-1.11-2.46.75-3.46,3.95-4.12,6.22-1.22,4.17-2.9,10.58-4.46,19.27"/>
  <path class="cls-1" d="M38.64,72.53c.22-.98,3.7-12.76-13.43-15.78"/>
  <path class="cls-1" d="M72.89,56.22c-.99.17-7.02.37-8.29-.81-2.18-2.03-2.46-4.75-2.61-6.2-.27-2.59.38-4.6.74-5.72.51-1.53,3.22-5.63,3.73-6.43"/>
  <path class="cls-1" d="M53.3,26.24c-.3,1.27-1.79,7.25-3.01,9.22-.77,1.24-2,3.23-4.28,4.63-3.48,2.15-9.99.74-11.29.49"/>
</svg>