<?xml version="1.0" encoding="UTF-8"?>
<svg id="_Слой_1" data-name="Слой 1" xmlns="http://www.w3.org/2000/svg" viewBox="0 0 100 100">
  <defs>
    <style>
      .cls-1 {
        fill: none;
        stroke: #000;
        stroke-miterlimit: 10;
      }
    </style>
  </defs>
  <path class="cls-1" d="M9.07,62.96c3.7-.68,6.7-1.24,8.72-1.63,3.63-.69,7.28-1.22,10.92-1.85,2.91-.51,4.29-.77,6.28-.41,3.03.54,5.01,2.07,5.43,2.41,2.72,2.17,3.66,4.98,4.05,6.2.96,2.99.74,5.6-.77,12.56-.77,3.56-1.84,8.09-3.31,13.33"/>
  <path class="cls-1" d="M23.81,25.9c3.22,3.64,5.75,6.65,7.44,8.7,4.71,5.69,6.79,8.58,10.71,9.45,2.6.58,4.21-.14,4.53-.29,3.09-1.45,3.79-5.27,3.9-5.87.67-3.6-.98-6.62-2.7-9.7-3.89-6.94-6.84-12.12-9.31-16.43"/>
  <path class="cls-1" d="M87.1,69.87c-5.49-2.24-9.73-4.74-12.71-6.74-2.99-2-5.77-4.2-8.28-7.47-2.43-3.17-2.72-4.88-2.8-5.64-.34-3.34,1.58-5.99,2.76-7.57,1.99-2.68,4.33-4.33,11.06-7.79,3.21-1.65,7.31-3.66,12.17-5.8"/>
  <path class="cls-1" d="M44.25,77.66c.48-1.5,3.67-9.56,5.35-11.83,1.03-1.4,3.13-4.25,6.81-5.88,5.24-2.33,15.31,1.81,16.76,2.34"/>
  <path class="cls-1" d="M29.9,59.3c1.01-.62,7.21-3.39,8.56-6,.49-.94,1.54-3.04,1.29-5.83-.14-1.52-5.14-8.51-5.5-9.24"/>
  <path class="cls-1" d="M49.76,32.32c.22.92,2.76,5.55,4.99,7.01.43.28,1.59.97,4.39,1.15,1.84.12,13.3-3.93,17.06-5.33"/>
</svg>