<?xml version="1.0" encoding="UTF-8"?>
<svg id="_Слой_1" data-name="Слой 1" xmlns="http://www.w3.org/2000/svg" viewBox="0 0 100 100">
  <defs>
    <style>
      .cls-1 {
        fill: #3a71c3;
        stroke: #000;
        stroke-miterlimit: 10;
      }
    </style>
  </defs>
  <path class="cls-1" d="M38.87,15.33c.58,3.47,2.36,19.01,2.43,20.68.12,2.77.35,3-.12,6.24-.11.76-.7,1.52-1.39,1.73-2.27.69-15-17.19-16.06-19.07.76,1.65,7.59,12.26,9.24,15.02,1.04,1.73,3,5.32,2.08,7.63-1.4,3.49-22.54,1.75-24.73,2.31,1.12-.31,19.27,2.46,21.49,2.77.81.11,6.3.97,9.24,6.01.69,1.18.9,4.8.12,8.67-.34,1.66-6.21,16.56-6.7,17.33,1.29-1.05,11.44-18.03,14.33-18.95,2.58-.83,2.52-.75,4.74-.58,3.82.29,12.86,16.42,13.75,17.56-.29-.73-7.7-16.56-6.59-19.53.28-.74.96-4.47,6.93-5.66,3.47-.69,18.66-1.66,25.65-1.5-1.43-.22-14.01-1.43-16.41-1.73-2.77-.35-5.59-.88-8.78-2.08-1.85-.69-4.51-2.2-5.32-4.62-1.71-5.14,11.51-15.47,12.02-16.29-.78.34-12.6,10.4-14.21,11.44-3.21,2.06-5.63,1.98-7.74,1.73-2.75-.32-4.57-2.14-6.24-3.81-4.03-4.03-7.23-22.47-7.74-25.31Z"/>
</svg>