<?xml version="1.0" encoding="UTF-8"?>
<svg id="_Слой_1" data-name="Слой 1" xmlns="http://www.w3.org/2000/svg" viewBox="0 0 100 100">
  <defs>
    <style>
      .cls-1 {
        fill: none;
        stroke: #000;
        stroke-miterlimit: 10;
      }
    </style>
  </defs>
  <path class="cls-1" d="M49.8,90.2c1.17-7.02,1.95-12.06,2.46-15.5.44-2.95.8-5.47,2.44-8.32,1.87-3.24,4.32-5.04,5.63-6.01,8.41-6.18,22.39-6.65,24.64-6.71"/>
  <path class="cls-1" d="M78.69,25.62c-4.22,4.05-7.43,7.59-9.68,10.18-2.97,3.44-4.3,5.28-6.47,5.3-3.71.03-6.35-5.31-6.68-5.99-2.1-4.26-.06-23.61-.19-25.32"/>
  <path class="cls-1" d="M22.8,30.65c4.1,3.08,7.58,5.46,10.08,7.11,6.43,4.25,9.14,5.52,10.03,8.82.58,2.15.37,5.1-1.38,6.98-.29.32-1.46,1.5-5.19,2.09-3.63.57-6.48.07-9.05-.41-5.16-.96-9.33-1.78-12.25-2.38"/>
  <path class="cls-1" d="M52.26,74.7c.42-2.9-.46-7.58-.79-9.09-.27-1.25-.5-1.98-1.13-2.6-1.03-1-2.68-1.33-3.91-.96-2.13.65-2.99,3.42-3.56,5.38-1.05,3.6-2.51,9.15-3.86,16.66"/>
  <path class="cls-1" d="M42.3,69.48c.19-.85,3.2-11.03-11.61-13.65"/>
  <path class="cls-1" d="M71.92,55.38c-.86.15-6.07.32-7.17-.7-1.88-1.76-2.12-4.11-2.25-5.36-.23-2.24.32-3.98.64-4.94.44-1.33,2.78-4.87,3.23-5.56"/>
  <path class="cls-1" d="M54.99,29.45c-.26,1.1-1.55,6.27-2.6,7.97-.66,1.07-1.73,2.79-3.7,4.01-3.01,1.86-8.64.64-9.76.43"/>
</svg>