<?xml version="1.0" encoding="UTF-8"?>
<svg id="_Слой_1" data-name="Слой 1" xmlns="http://www.w3.org/2000/svg" viewBox="0 0 115 115">
  <defs>
    <style>
      .cls-1 {
        fill: none;
        stroke: #000;
        stroke-miterlimit: 10;
      }

      .cls-2 {
        fill: #6db7a6;
        stroke-width: 0px;
      }
    </style>
  </defs>
  <path class="cls-2" d="M46.22,40.73c.96,2.45,1.84,4.94,2.62,7.46l.91-.39c-2.13-3.79-3.78-7.82-4.91-12.01l-.96.27c1.21,3.11,2.41,6.22,3.62,9.33.23.59,1.17.35.96-.27-1-3-2.17-5.93-3.5-8.8l-.86.5c1.14,1.94,2.17,3.95,3.08,6.01l.86-.5c-.71-1.36-1.42-2.71-2.14-4.07-.28-.52-1.02-.15-.91.39.7,3.39,1.1,6.84,1.21,10.3l.93-.25c-1.3-2.92-1.76-6.13-1.39-9.3l-.98.13c.69,3,.76,6.11.19,9.14h.96c-.55-2.6-.44-5.27.31-7.82l-.98-.13c.12,3.29-.29,6.56-1.22,9.72l.98.13c-.22-2.04.15-4.07,1.12-5.88l-.91-.39c-.91,2.29-1.74,4.6-2.51,6.94l.96.27c.64-2.09,1.49-4.1,2.56-6.01l-.86-.5c-1.23,2.31-2.31,4.69-3.23,7.14l.96.27c.5-1.9,1.2-3.73,2.11-5.47.3-.57-.55-1.07-.86-.5-.99,1.78-1.98,3.56-2.97,5.33-.31.56.53,1.06.86.5.77-1.27,1.53-2.53,2.3-3.8l-.86-.5c-1.3,2.38-3.02,4.5-5.08,6.27-1.01.87-2.1,1.63-3.26,2.3-.59.34-1.2.66-1.83.95-.68.31-1.56.75-2.29.38l-.25.93c5.78-.31,11.38,1.28,16.87,2.87.57.16.84-.6.39-.91-3.57-2.45-8.04-2.67-12.22-2.81l.25.93c3.35-1.79,6.39-4.12,8.98-6.89.45-.48-.22-1.11-.71-.71-.95.77-1.89,1.53-2.84,2.3-.48.39.13.99.61.79,3.9-1.71,6.11-6.29,5.12-10.41l-.91.39c.77,1.17,1.55,2.35,2.32,3.52.31.47,1.05.18.91-.39-.59-2.38-1.4-4.69-2.39-6.94l-.86.5c1.14,1.66,2.28,3.31,3.42,4.97.36.52,1.2.05.86-.5-1.53-2.52-3.07-5.03-4.6-7.55l-.86.5c1.3,1.98,2.63,3.96,4.44,5.51.4.34,1.15-.12.79-.61-1.7-2.31-3.41-4.63-5.11-6.94l-.79.61c2.55,2.05,4.85,4.41,6.81,7.04l.79-.61c-1.37-1.37-2.54-2.91-3.5-4.6l-.79.61c2.14,2.3,4.15,4.72,6.01,7.24l.79-.61c-1.64-1.84-3.18-3.75-4.62-5.75l-.68.68c2.07,1.17,4.14,2.33,6.21,3.5.56.32,1.06-.54.5-.86-1.84-1.06-3.69-2.11-5.53-3.17l-.39.91c2.7.82,5.49,1.3,8.31,1.45.55.03.7-.9.13-.98-1.74-.25-3.48-.3-5.23-.14l.13.98c1.57-.24,3.14-.49,4.71-.77,1.45-.26,2.9-.53,4.27-1.1,2.26-.95,4.29-2.98,4.17-5.59-.02-.47-.68-.71-.93-.25-1.7,3.13-3.39,6.27-5.09,9.4-.31.57.55,1.07.86.5,1.88-3.45,3.76-6.89,5.64-10.34.31-.57-.51-1.04-.86-.5-2.04,3.09-4.19,6.3-7.47,8.21l.61.79c1.24-1.47,2.69-2.73,4.34-3.73l-.68-.68c-1.56,3.03-3.17,6.27-2.87,9.78.05.54.82.7.98.13.66-2.28,1.33-4.56,1.99-6.84l-.98-.13c.3,2.83.82,5.62,1.56,8.36.15.53,1,.44.98-.13-.07-1.85-.14-3.7-.21-5.55-.06-1.61-.14-3.3.6-4.77l-.91-.12c.63,3.6,1.26,7.19,1.89,10.79.1.55,1.04.43.98-.13-.38-3.8-.77-7.61-1.15-11.41l-.98.13c.87,3.7,1.46,7.46,1.77,11.25l.98-.13c-.71-3.22-1.43-6.44-2.14-9.65l-.96.27c1.88,6.12,3.76,12.24,5.64,18.35l.91-.39c-2.62-3.83-4.13-8.23-5.6-12.59l-.91.39c2.25,5.08,4.49,10.16,6.74,15.24l.86-.5c-2.48-4.21-4.36-8.73-5.6-13.46l-.91.39c1.95,2.69,3.72,5.5,5.3,8.42l.86-.5c-1.73-3.01-3.31-6.11-4.74-9.28l-.79.61c2.06,1.78,3.98,3.7,5.78,5.75l.71-.71c-1.83-1.88-3.52-3.87-5.06-5.99l-.79.61c2.04,1.62,3.92,3.41,5.64,5.36l.71-.71c-2.22-1.74-4.27-3.68-6.13-5.8-.37-.42-1.11.14-.79.61,2.17,3.18,5.75,5.17,9.59,5.33.65.03.63-.93,0-1-1.8-.19-3.56-.64-5.25-1.3v.96c3.38-.89,7.12,2.01,10.27-.28l-.5-.86c-4.15,3.12-7.12,7.62-8.31,12.68l.96.27c.53-2.87,1.66-5.57,3.32-7.97l-.91-.39c-.39,1.86-.79,3.72-1.18,5.57-.13.63.76.88.96.27.94-2.8,2.28-5.44,3.99-7.85l-.86-.5c-1.6,3.53-2.77,7.22-3.44,11.04h.96c-.4-1.71-.54-3.44-.43-5.18l-.98.13c1.08,2.92,1.93,5.92,2.54,8.97l.91-.39c-1.37-2.86-1.85-6.05-1.44-9.19l-.98.13c1.22,3.47,2.45,6.93,3.67,10.4l.91-.39c-2.16-2.92-3.43-6.41-3.59-10.05l-.98.13c2.26,6.92,4.81,14.31,11.01,18.69.5.35.94-.38.61-.79-2.77-3.34-5.3-6.88-7.55-10.59l-.86.5c1.71,2.33,3.22,4.79,4.53,7.37l.79-.61c-4.64-4.67-8.06-10.33-11.42-15.94-.29-.48-1.07-.17-.91.39.74,2.64,1.76,5.2,3.04,7.63.22.42.98.25.93-.25-.27-2.79-.1-5.59.53-8.33.11-.47-.48-.86-.84-.49-.61.64-1.21,1.28-1.82,1.91l.79.61c.97-1.36,1.87-2.77,2.71-4.21.2-.35-.14-.9-.56-.73-1.51.58-2.64,1.76-3.11,3.31-.11.34.26.75.62.62,2.12-.78,3.57-2.67,3.79-4.91.04-.4-.45-.59-.75-.43-2.49,1.3-4.48,3.43-5.57,6.02-.16.37.1.88.56.73,2.29-.73,4.21-2.28,5.39-4.38.22-.39-.14-.84-.56-.73-3.01.74-5.64,2.56-7.42,5.1-.35.5.38.93.79.61,2.01-1.59,3.63-3.61,4.77-5.91.23-.47-.23-.88-.68-.68-1.91.82-2.96,2.89-2.67,4.92.04.27.38.41.62.35,1.85-.47,3.16-2.2,3.14-4.1,0-.52-.66-.65-.93-.25-.58.84-1.16,1.67-1.74,2.51l.91.39c.28-1.23-.09-2.48-1.04-3.32-.26-.23-.76-.17-.84.22-.19.99-.38,1.98-.57,2.97l.91-.12c-.46-.92-.92-1.83-1.38-2.75l-.86.5c.68,1.2,1.36,2.41,2.04,3.61l.86-.5-2.78-4.14c-.29-.44-1.13-.17-.91.39,1.27,3.25,2.22,6.61,2.82,10.04l.96-.27c-1.45-3.57-2.69-7.22-3.69-10.94l-.91.39c1.62,3.26,3.03,6.62,4.22,10.07l.91-.39c-1.87-3.36-3.53-6.82-4.96-10.39l-.84.49c1.76,2.1,3.38,4.29,4.89,6.57l.86-.5c-1.26-1.85-2.51-3.7-3.77-5.55l-.68.68c1.25.86,2.35,1.88,3.31,3.06l.71-.71c-1.16-1.37-2.22-2.8-3.19-4.31l-.79.61,2.76,3.42c.35.44,1.12-.15.79-.61l-2.86-3.95c-.37-.51-1.2-.06-.86.5,1.05,1.75,2.1,3.5,3.15,5.25l.79-.61-2.76-3.02c-.43-.48-1.14.23-.71.71l2.76,3.02c.38.42,1.08-.12.79-.61-1.05-1.75-2.1-3.5-3.15-5.25l-.86.5,2.86,3.95.79-.61-2.76-3.42c-.36-.44-1.09.13-.79.61,1.01,1.58,2.13,3.09,3.34,4.52.42.49,1.11-.21.71-.71-1.01-1.24-2.19-2.31-3.51-3.22-.41-.28-.96.28-.68.68l3.77,5.55c.36.53,1.22.04.86-.5-1.55-2.35-3.23-4.61-5.04-6.77-.31-.37-1.02.03-.84.49,1.47,3.64,3.16,7.19,5.07,10.63.27.49,1.1.16.91-.39-1.22-3.52-2.66-6.97-4.32-10.31-.26-.52-1.06-.15-.91.39,1.01,3.72,2.24,7.37,3.69,10.94.24.59,1.08.38.96-.27-.61-3.43-1.55-6.79-2.82-10.04l-.91.39,2.78,4.14c.36.53,1.18.06.86-.5-.68-1.2-1.36-2.41-2.04-3.61-.32-.56-1.15-.07-.86.5.46.92.92,1.83,1.38,2.75.19.37.83.3.91-.12.19-.99.38-1.98.57-2.97l-.84.22c.68.6.99,1.45.79,2.35-.13.57.59.85.91.39.58-.84,1.16-1.67,1.74-2.51l-.93-.25c.02,1.47-.98,2.77-2.41,3.14l.62.35c-.24-1.61.74-3.16,2.21-3.79l-.68-.68c-1.1,2.23-2.66,4.16-4.61,5.71l.79.61c1.63-2.32,4.07-3.96,6.83-4.64l-.56-.73c-1.05,1.87-2.74,3.27-4.79,3.92l.56.73c1.04-2.45,2.86-4.43,5.22-5.66l-.75-.43c-.17,1.77-1.39,3.34-3.06,3.95l.62.62c.36-1.19,1.24-2.17,2.41-2.61l-.56-.73c-.84,1.45-1.74,2.85-2.71,4.21-.33.47.4,1.01.79.61.61-.64,1.21-1.28,1.82-1.91l-.84-.49c-.65,2.82-.85,5.72-.57,8.6l.93-.25c-1.24-2.36-2.22-4.83-2.93-7.39l-.91.39c3.41,5.68,6.88,11.42,11.58,16.15.41.41,1.04-.11.79-.61-1.31-2.57-2.83-5.03-4.53-7.37-.37-.51-1.21-.06-.86.5,2.3,3.78,4.88,7.39,7.71,10.79l.61-.79c-5.97-4.21-8.39-11.46-10.55-18.1-.17-.51-1.01-.46-.98.13.18,3.8,1.46,7.49,3.73,10.56.31.42,1.12.2.91-.39-1.22-3.47-2.45-6.93-3.67-10.4-.2-.56-.91-.42-.98.13-.44,3.32.13,6.68,1.57,9.69.26.54,1.02.14.91-.39-.61-3.05-1.45-6.05-2.54-8.97-.19-.52-.95-.45-.98.13-.11,1.83.05,3.66.47,5.45.11.46.88.49.96,0,.66-3.72,1.78-7.35,3.34-10.8.27-.59-.49-1.03-.86-.5-1.76,2.48-3.13,5.2-4.1,8.09l.96.27c.39-1.86.79-3.72,1.18-5.57.12-.56-.59-.85-.91-.39-1.7,2.47-2.87,5.26-3.42,8.21-.12.62.82.9.96.27,1.13-4.79,3.91-9.12,7.85-12.08.51-.38.02-1.24-.5-.86-1.39,1.01-3.15.84-4.74.51-1.75-.35-3.52-.8-5.3-.34-.51.14-.43.8,0,.96,1.78.69,3.62,1.13,5.52,1.33v-1c-3.47-.14-6.77-1.96-8.73-4.83l-.79.61c1.86,2.12,3.91,4.06,6.13,5.8.5.39,1.14-.21.71-.71-1.72-1.95-3.61-3.74-5.64-5.36-.4-.32-1.15.1-.79.61,1.59,2.19,3.33,4.26,5.22,6.19.45.47,1.13-.23.71-.71-1.79-2.05-3.72-3.97-5.78-5.75-.44-.38-1.02.09-.79.61,1.42,3.17,3,6.26,4.74,9.28.32.56,1.17.06.86-.5-1.58-2.92-3.35-5.73-5.3-8.42-.32-.44-1.07-.2-.91.39,1.26,4.8,3.18,9.42,5.7,13.7.33.57,1.12.07.86-.5-2.25-5.08-4.49-10.16-6.74-15.24-.23-.52-1.09-.15-.91.39,1.5,4.44,3.04,8.93,5.7,12.83.3.45,1.09.19.91-.39-1.88-6.12-3.76-12.24-5.64-18.35-.19-.62-1.1-.36-.96.27.71,3.22,1.43,6.44,2.14,9.65.12.54,1.03.43.98-.13-.32-3.88-.92-7.73-1.8-11.52-.13-.54-1.04-.44-.98.13.38,3.8.77,7.61,1.15,11.41l.98-.13c-.63-3.6-1.26-7.19-1.89-10.79-.07-.42-.73-.49-.91-.12-.76,1.51-.81,3.18-.76,4.84.07,2,.15,3.99.22,5.99l.98-.13c-.72-2.66-1.24-5.36-1.53-8.1-.06-.54-.81-.71-.98-.13-.66,2.28-1.33,4.56-1.99,6.84l.98.13c-.29-3.34,1.24-6.39,2.73-9.28.22-.43-.24-.96-.68-.68-1.71,1.05-3.24,2.35-4.54,3.89-.35.42.09,1.09.61.79,3.43-1.99,5.69-5.33,7.83-8.57l-.86-.5c-1.88,3.45-3.76,6.89-5.64,10.34l.86.5c1.7-3.13,3.39-6.27,5.09-9.4l-.93-.25c.12,2.61-2.22,4.3-4.46,5-2.55.8-5.32,1.1-7.95,1.5-.55.08-.43,1.03.13.98,1.65-.15,3.32-.13,4.96.1l.13-.98c-2.73-.15-5.42-.62-8.04-1.42-.54-.17-.88.63-.39.91,1.84,1.06,3.69,2.11,5.53,3.17l.5-.86c-2.07-1.17-4.14-2.33-6.21-3.5-.41-.23-.99.26-.68.68,1.49,2.07,3.08,4.05,4.78,5.95.37.42,1.13-.14.79-.61-1.92-2.6-3.97-5.08-6.17-7.45-.39-.42-1.06.12-.79.61,1,1.76,2.22,3.37,3.66,4.8.39.39,1.13-.14.79-.61-2.01-2.7-4.34-5.13-6.97-7.25-.4-.32-1.15.11-.79.61,1.7,2.31,3.41,4.63,5.11,6.94l.79-.61c-1.75-1.49-3.03-3.4-4.28-5.31-.35-.53-1.2-.05-.86.5,1.53,2.52,3.07,5.03,4.6,7.55l.86-.5c-1.14-1.66-2.28-3.31-3.42-4.97-.37-.54-1.12-.08-.86.5.96,2.16,1.72,4.4,2.29,6.7l.91-.39c-.77-1.17-1.55-2.35-2.32-3.52-.31-.47-1.05-.18-.91.39.9,3.72-1.17,7.76-4.66,9.28l.61.79c.95-.77,1.89-1.53,2.84-2.3l-.71-.71c-2.54,2.72-5.5,4.99-8.78,6.74-.45.24-.22.92.25.93,4.02.13,8.29.32,11.72,2.67l.39-.91c-5.57-1.61-11.28-3.23-17.14-2.91-.46.03-.72.69-.25.93,1.39.71,2.93-.16,4.18-.81,1.35-.69,2.62-1.53,3.8-2.47,2.39-1.9,4.38-4.29,5.84-6.97.31-.57-.53-1.06-.86-.5-.77,1.27-1.53,2.53-2.3,3.8l.86.5c.99-1.78,1.98-3.56,2.97-5.33l-.86-.5c-.95,1.82-1.69,3.73-2.21,5.71-.17.63.74.86.96.27.89-2.37,1.94-4.67,3.13-6.9.3-.57-.55-1.07-.86-.5-1.11,1.98-2,4.08-2.66,6.25-.19.62.76.87.96.27.77-2.34,1.61-4.65,2.51-6.94.21-.53-.65-.88-.91-.39-1.05,1.96-1.5,4.17-1.26,6.39.06.54.81.71.98.13.95-3.24,1.38-6.61,1.26-9.99-.02-.56-.82-.68-.98-.13-.8,2.72-.91,5.58-.31,8.35.1.47.87.48.96,0,.6-3.21.54-6.49-.19-9.67-.14-.59-.92-.39-.98.13-.39,3.35.16,6.72,1.53,9.8.21.46.95.22.93-.25-.12-3.55-.53-7.08-1.25-10.56l-.91.39c.71,1.36,1.42,2.71,2.14,4.07.3.58,1.12.07.86-.5-.91-2.06-1.94-4.06-3.08-6.01-.33-.56-1.13-.07-.86.5,1.29,2.79,2.42,5.64,3.4,8.56l.96-.27c-1.21-3.11-2.41-6.22-3.62-9.33-.23-.59-1.14-.37-.96.27,1.16,4.27,2.84,8.39,5.01,12.25.27.49,1.08.16.91-.39-.78-2.52-1.65-5-2.62-7.46-.23-.59-1.2-.33-.96.27h0Z"/>
  <path class="cls-2" d="M50.21,47.89c1.97,4.27,3.87,8.57,5.7,12.89l.86-.5c-2.22-4.65-4.46-9.3-7.23-13.64-.29-.46-1.1-.18-.91.39,1.46,4.36,2.91,8.72,4.37,13.09l.91-.39c-2.53-4.19-4.19-8.84-4.9-13.68l-.91.39c1.7,3.33,3.13,6.8,4.27,10.36l.96-.27c-.56-1.55-1.24-3.04-2.09-4.46-.43-.72-.88-1.44-1.4-2.1-.37-.47-.87-.81-1.49-.66s-1.11.73-1.52,1.21-.79,1.03-1.18,1.56c-.82,1.14-1.67,2.27-2.97,2.89l.75.43c.08-1.03.16-2.06.24-3.09.03-.37-.45-.64-.75-.43-2.67,1.85-5.34,3.7-8.02,5.54-.46.32-.18,1.04.39.91,4.51-1.01,9.01-2.52,12.82-5.19.82-.58,1.8-1.2,2.23-2.15.34-.74.17-1.64-.56-2.08-1.52-.92-3.59.5-4.76,1.41-1.82,1.41-3.19,3.32-3.97,5.49-.14.39.39.82.73.56,3.25-2.42,5.6-5.86,6.62-9.79.11-.43-.35-.77-.73-.56-1.45.76-2.25,2.25-2.89,3.69-.76,1.72-1.3,3.52-1.61,5.37-.06.35.22.74.62.62.75-.24,1.25-.79,1.63-1.46.48-.84.86-1.74,1.26-2.62.87-1.92,1.67-3.88,2.39-5.86l-.96-.27c-.93,3.93-1.28,7.98-1.01,12.01.04.64.95.64,1,0,.24-3.29-.05-6.59-.84-9.79-.13-.55-.99-.43-.98.13.07,3.67.57,7.31,1.48,10.87l.91-.39c-.76-1.49-2.09-2.77-3.76-3.15-1.58-.36-3.33.13-4.37,1.39-.17.21-.21.5,0,.71,1.22,1.21,2.79,1.9,4.5,1.99.52.03.64-.68.25-.93-1.68-1.11-3.64-1.69-5.65-1.69-.42,0-.68.56-.35.85,1.44,1.31,3.16,2.22,5.06,2.64.55.12.88-.61.39-.91-2.06-1.27-4.4-1.96-6.81-2.02-.6-.02-.63.79-.13.98,3.62,1.44,7.38,2.46,11.23,3.04.53.08.91-.6.39-.91-1.9-1.12-3.83-2.19-5.78-3.22-.59-.31-1,.48-.5.86,2.95,2.28,5.95,4.48,9.01,6.6l.5-.86c-2.11-1.41-4.22-2.83-6.33-4.24-.54-.36-1.02.49-.5.86,2.12,1.54,4.11,3.25,5.96,5.11l.61-.79c-2.45-1.87-5.01-3.6-7.66-5.17l-.5.86c4.91,2.78,10.15,5.8,12.88,10.96.31.58,1.13.07.86-.5-.96-2.06-1.97-4.09-3.02-6.1l-.86.5c1.62,2.63,3.09,5.36,4.4,8.16l.86-.5c-1.94-2.72-3.88-5.45-5.82-8.17-.37-.52-1.19-.07-.86.5,1.69,3,3.21,6.09,4.54,9.27l.91-.39c-1.73-2.98-3.36-6.02-4.89-9.1l-.86.5c2.3,4.05,4.62,8.18,5.45,12.81l.96-.27c-.72-2.25-1.12-4.58-1.17-6.94l-.98.13c.65,3.29,1.13,6.61,1.42,9.95l.98-.13c-.84-2.65-.78-5.43-.69-8.18h-1c-.06,2.51-.11,5.02-.17,7.53l.98-.13c-.44-2.76-.89-5.53-1.33-8.29l-.96.27c.82,4.29,1.62,8.65,1.08,13.04-.08.61.79.61.98.13,1.26-3.1,2.34-6.27,3.26-9.49l-.96-.27c-.38,1.48-.86,2.92-1.45,4.33-.22.54.63.85.91.39,1.99-3.25,4.21-6.36,6.65-9.29.4-.49-.26-1.19-.71-.71-1.8,1.94-3.45,3.99-4.96,6.16l.86.5c2.03-3.33,5.14-5.93,8.8-7.31l-.39-.91c-3.75,1.99-7.72,4.26-9.74,8.18-.29.57.52,1.05.86.5,1.09-1.74,2.55-3.22,4.21-4.42s3.43-2.26,5.32-2.91c2.33-.8,4.53-.11,6.79.6s4.6,1.56,6.85,2.47c.54.22.85-.63.39-.91-2.77-1.74-5.8-3.31-9.1-3.7-.78-.09-1.57-.11-2.35-.04-.37.03-.73.08-1.09.15-.21.04-.95.34-1.16.22s-.02-.93,0-1.14c.05-.48.1-.96.17-1.44.13-.97.31-1.92.51-2.88l-.62.35c1.36.48,2.33,1.62,3.29,2.64s1.94,1.95,3.26,2.44c.33.12.76-.27.62-.62-.8-1.89-1.8-3.65-3.04-5.29-.38-.5-1.24-.03-.86.5,1.66,2.39,3.57,4.59,5.7,6.57.4.38,1.09-.11.79-.61-1.1-1.77-2.34-3.44-3.71-5-.37-.43-1.09.13-.79.61,1.22,1.92,2.59,3.74,4.08,5.46.37.43,1.09-.13.79-.61-.91-1.42-1.81-2.83-2.72-4.25l-.79.61c1.56,1.72,3.05,3.49,4.49,5.31l.71-.71c-2.79-3.36-5.77-6.58-8.9-9.62-.36-.35-.96,0-.84.49.64,2.53,2.11,4.71,4.18,6.29.34.26.88-.17.73-.56-.84-2.33-1.86-4.6-3.06-6.78-.31-.57-1.14-.07-.86.5,1.1,2.27,2.2,4.54,3.3,6.81l.86-.5c-.93-1.26-1.86-2.52-2.78-3.78-.23-.31-.83-.35-.91.12-.23,1.23-.13,2.46.33,3.62.24.59,1.09.38.96-.27-.24-1.21-.34-2.43-.31-3.67l-.98.13c.25,1.01.36,2.03.35,3.07,0,.66.93.63,1,0l.1-.93-.98.13.65,1.78c.19.51.97.46.98-.13.01-.75-.11-1.47-.38-2.17-.2-.52-.94-.45-.98.13l-.16,2.34.98-.13c-.21-.59-.48-1.13-.84-1.63-.21-.29-.67-.35-.86,0-.24.42-.35.85-.33,1.34h1c-.02-.33,0-.62.09-.95l-.91.12c.16.35.33.71.49,1.06.12.25.46.29.68.18.13-.06.23-.02.28.12.23.42.98.25.93-.25-.11-1.1-.27-2.2-.5-3.28-.11-.56-.99-.42-.98.13.02,1.44.03,2.89.05,4.33l.98-.13c-.21-1.49-.75-2.9-1.6-4.15-.19-.28-.7-.37-.86,0-.32.72-.4,1.42-.21,2.19.14.58.94.4.98-.13.06-.78.13-1.56.19-2.34h-1c.05,1.01.3,1.96.75,2.87.23.48.91.21.93-.25.07-1.29-.17-2.53-.69-3.71-.17-.39-.84-.29-.91.12-.19,1-.28,2-.26,3.02l.98-.13c-.19-.72-.38-1.43-.57-2.15-.13-.47-.84-.48-.96,0-.24.93-.32,1.88-.23,2.83.06.63.96.65,1,0,.08-1.52-.12-3.03-.6-4.47-.14-.42-.88-.53-.96,0-.21,1.3-.42,2.6-.63,3.9l.98.13c.08-1.25.02-2.49-.15-3.73-.08-.55-.81-.39-.96,0-.46,1.15-.74,2.35-.85,3.59-.05.57.84.67.98.13.66-2.47.96-5.01.89-7.57-.01-.45-.72-.74-.93-.25-.9,2.11-1.59,4.29-2.06,6.53l.98.13c.16-2.19.13-4.38-.08-6.57-.05-.51-.63-.65-.93-.25-1.82,2.4-2.89,5.26-3.13,8.26-.04.56.87.68.98.13.65-3.12,1.11-6.28,1.38-9.46.04-.48-.73-.7-.93-.25-1.32,3.02-2.25,6.17-2.74,9.43l.98.13c.23-1.91.45-3.83.68-5.74.11-.92.24-1.83.32-2.75.06-.71-.02-1.35-.49-1.9-.22-.25-.63-.15-.79.1-1.65,2.66-2.73,5.63-3.15,8.73l.98.13c0-2.24-.01-4.49-.02-6.73,0-1.06,0-2.11,0-3.17-.02-.95-.13-1.86-.58-2.71-.22-.41-.77-.26-.91.12-1.21,3.22-1.27,6.7-1.29,10.1h1c-.12-3.63-.47-7.25-1.03-10.83-.09-.6-.93-.38-.98.13-.44,3.94-.21,7.91.67,11.77.12.54,1.02.43.98-.13-.18-2.42-.5-4.84-.99-7.22-.43-2.11-.88-4.33-2.3-6.02-.26-.31-.72-.1-.84.22-1.35,3.9.42,7.95,0,11.92l.98-.13c-1.67-4.42-3.33-8.84-4.97-13.27-.22-.6-1.12-.37-.96.27,1.27,5.31,3.34,10.36,5.41,15.4l.91-.39c-2.01-4.55-4.03-9.1-6.04-13.64-.26-.59-1.12-.08-.86.5,2.01,4.55,4.03,9.1,6.04,13.64.23.51,1.13.14.91-.39-2.07-5.03-4.14-10.09-5.41-15.4l-.96.27c1.65,4.43,3.31,8.85,4.97,13.27.2.54.92.44.98-.13.41-3.87-1.35-7.87-.04-11.66l-.84.22c1.33,1.59,1.69,3.84,2.09,5.82.45,2.22.74,4.46.91,6.72l.98-.13c-.85-3.78-1.06-7.66-.63-11.51l-.98.13c.55,3.5.88,7.03,1,10.57.02.64,1,.65,1,0,.02-3.32.07-6.69,1.25-9.84l-.91.12c.45.85.44,1.81.45,2.75,0,1.04,0,2.08,0,3.12,0,2.08,0,4.16.01,6.24,0,.54.9.71.98.13.41-3.02,1.44-5.9,3.05-8.49l-.79.1c.44.52.16,1.5.09,2.11l-.3,2.57c-.2,1.67-.39,3.34-.59,5.01-.07.55.9.69.98.13.48-3.16,1.35-6.26,2.64-9.19l-.93-.25c-.26,3.09-.71,6.16-1.34,9.2l.98.13c.22-2.83,1.27-5.5,2.99-7.75l-.93-.25c.22,2.18.24,4.38.08,6.57-.04.56.87.68.98.13.45-2.16,1.09-4.27,1.96-6.3l-.93-.25c.07,2.47-.22,4.91-.86,7.3l.98.13c.11-1.15.39-2.25.82-3.32h-.96c.16,1.15.19,2.31.12,3.46-.04.55.89.69.98.13.21-1.3.42-2.6.63-3.9h-.96c.46,1.37.65,2.77.57,4.2h1c-.08-.87-.02-1.72.19-2.57h-.96c.19.72.38,1.43.57,2.15.14.54.99.44.98-.13-.02-.93.05-1.84.22-2.76l-.91.12c.45,1.02.62,2.1.55,3.21l.93-.25c-.37-.75-.57-1.53-.61-2.36-.03-.65-.95-.64-1,0-.06.78-.13,1.56-.19,2.34l.98-.13c-.12-.48-.1-.96.11-1.42h-.86c.8,1.19,1.3,2.49,1.5,3.91.08.56.99.42.98-.13-.02-1.44-.03-2.89-.05-4.33l-.98.13c.21,1,.36,2,.46,3.02l.93-.25c-.33-.62-1.04-.79-1.65-.48l.68.18c-.16-.35-.33-.71-.49-1.06-.19-.41-.8-.27-.91.12s-.16.79-.13,1.21c.05.64,1.03.65,1,0-.01-.32.04-.56.19-.84h-.86c.31.44.56.88.74,1.39.19.54.94.44.98-.13l.16-2.34-.98.13c.24.62.36,1.24.35,1.91l.98-.13-.65-1.78c-.2-.55-.92-.43-.98.13l-.1.93h1c.02-1.13-.11-2.24-.38-3.34-.14-.56-.97-.42-.98.13-.03,1.32.09,2.64.35,3.94l.96-.27c-.4-1-.53-2.03-.33-3.09l-.91.12c.93,1.26,1.86,2.52,2.78,3.78.38.51,1.15.08.86-.5-1.1-2.27-2.2-4.54-3.3-6.81l-.86.5c1.15,2.1,2.14,4.28,2.96,6.54l.73-.56c-1.85-1.42-3.15-3.44-3.72-5.69l-.84.49c3.14,3.05,6.11,6.26,8.9,9.62.42.5,1.1-.21.71-.71-1.44-1.82-2.93-3.59-4.49-5.31-.38-.42-1.09.13-.79.61.91,1.42,1.81,2.83,2.72,4.25l.79-.61c-1.43-1.66-2.74-3.41-3.92-5.26l-.79.61c1.32,1.5,2.5,3.1,3.55,4.8l.79-.61c-2.07-1.92-3.93-4.05-5.54-6.37l-.86.5c1.18,1.56,2.18,3.25,2.94,5.05l.62-.62c-1.35-.5-2.31-1.65-3.28-2.67s-1.95-1.94-3.27-2.41c-.24-.09-.56.1-.62.35-.22,1.03-.41,2.07-.55,3.12-.11.84-.35,1.83-.23,2.68.1.68.67.96,1.31.92.85-.06,1.67-.36,2.54-.4,3.77-.15,7.31,1.7,10.41,3.64l.39-.91c-2.4-.97-4.84-1.85-7.31-2.61-1.19-.37-2.38-.74-3.62-.86-1.18-.12-2.33.08-3.44.48-3.9,1.44-7.7,4.16-9.92,7.71l.86.5c1.94-3.76,5.78-5.91,9.38-7.82.49-.26.15-1.12-.39-.91-3.9,1.47-7.22,4.21-9.39,7.77-.34.56.5,1.03.86.5,1.46-2.1,3.06-4.09,4.8-5.96l-.71-.71c-2.49,3-4.77,6.17-6.81,9.5l.91.39c.59-1.41,1.07-2.85,1.45-4.33.16-.62-.79-.89-.96-.27-.91,3.22-2,6.38-3.26,9.49l.98.13c.55-4.47-.28-8.92-1.12-13.3-.12-.64-1.06-.36-.96.27.44,2.76.89,5.53,1.33,8.29.09.57.97.41.98-.13.06-2.51.11-5.02.17-7.53.01-.64-.98-.64-1,0-.09,2.83-.14,5.71.73,8.44.16.51,1.03.45.98-.13-.3-3.43-.78-6.84-1.45-10.22-.11-.56-.99-.42-.98.13.05,2.45.45,4.88,1.2,7.21.2.62,1.08.36.96-.27-.85-4.71-3.22-8.94-5.55-13.05-.32-.56-1.15-.07-.86.5,1.53,3.09,3.16,6.12,4.89,9.1.27.47,1.14.15.91-.39-1.37-3.26-2.91-6.43-4.64-9.51l-.86.5c1.94,2.72,3.88,5.45,5.82,8.17.37.53,1.14.08.86-.5-1.31-2.8-2.78-5.52-4.4-8.16-.34-.55-1.16-.07-.86.5,1.05,2.01,2.06,4.05,3.02,6.1l.86-.5c-2.81-5.31-8.19-8.46-13.24-11.32-.56-.32-1.06.53-.5.86,2.65,1.58,5.2,3.3,7.66,5.17.46.35,1-.39.61-.79-1.91-1.92-3.97-3.67-6.16-5.26l-.5.86c2.11,1.41,4.22,2.83,6.33,4.24.54.36,1.03-.5.5-.86-3.06-2.13-6.06-4.33-9.01-6.6l-.5.86c1.95,1.02,3.88,2.1,5.78,3.22l.39-.91c-3.85-.58-7.61-1.6-11.23-3.04l-.13.98c2.25.06,4.4.7,6.31,1.88l.39-.91c-1.73-.39-3.31-1.19-4.62-2.39l-.35.85c1.85,0,3.61.54,5.15,1.56l.25-.93c-1.44-.08-2.77-.68-3.79-1.69v.71c.86-1.04,2.27-1.44,3.57-1.09s2.36,1.43,2.98,2.64c.26.51,1.05.15.91-.39-.89-3.47-1.37-7.02-1.44-10.6l-.98.13c.77,3.12,1.04,6.32.8,9.52h1c-.26-3.95.06-7.9.97-11.75.15-.63-.75-.86-.96-.27-.64,1.75-1.34,3.48-2.1,5.19-.36.8-.72,1.59-1.11,2.38-.31.64-.64,1.45-1.38,1.68l.62.62c.28-1.66.73-3.28,1.38-4.83.58-1.38,1.27-2.91,2.66-3.64l-.73-.56c-.96,3.66-3.13,6.93-6.16,9.19l.73.56c.58-1.61,1.53-3.07,2.78-4.25.61-.58,1.28-1.08,2.01-1.5.61-.35,1.33-.75,2.07-.67,1.18.14.4,1.31-.12,1.76-.73.64-1.58,1.19-2.41,1.69-1.61.99-3.33,1.8-5.1,2.46-2.03.76-4.11,1.33-6.22,1.8l.39.91c2.67-1.85,5.34-3.7,8.02-5.54l-.75-.43c-.08,1.03-.16,2.06-.24,3.09-.03.41.44.58.75.43,2.11-1.01,3.1-3.2,4.58-4.88.21-.24.45-.57.78-.63.39-.07.59.36.79.65.41.58.79,1.17,1.15,1.78.75,1.28,1.37,2.63,1.87,4.03.21.6,1.16.35.96-.27-1.17-3.65-2.63-7.19-4.37-10.6-.28-.55-.99-.13-.91.39.73,4.92,2.44,9.66,5,13.92.28.47,1.1.17.91-.39-1.46-4.36-2.91-8.72-4.37-13.09l-.91.39c2.78,4.34,5.01,9,7.23,13.64.28.59,1.11.07.86-.5-1.83-4.33-3.73-8.63-5.7-12.89-.27-.58-1.13-.08-.86.5h0Z"/>
  <path class="cls-2" d="M75.06,64.03c1.03,2.37,2.4,4.55,4.04,6.54l.71-.71c-1.56-1.78-3.12-3.56-4.68-5.34-.35-.4-.93.04-.84.49.25,1.22.78,2.31,1.54,3.29.38.48,1-.13.79-.61l-.7-1.55-.86.5,1.27,2.37.68-.68c-.59-.34-1.12-.74-1.61-1.21-.23-.21-.63-.19-.79.1-.25.47-.31.95-.13,1.45l.91-.39c-.36-.56-.77-1.05-1.27-1.49-.24-.21-.62-.19-.79.1-.25.44-.37.88-.39,1.38l.98-.13c-.16-.47-.39-.86-.76-1.19-.32-.29-.85-.09-.85.35l-.02,1.11.98-.13c-.11-.75-.46-1.4-.99-1.93-.22-.22-.63-.18-.79.1-.36.67-.63,1.37-.82,2.1l.96.27c.11-.84.1-1.65-.05-2.49-.1-.54-.8-.4-.96,0-.29.72-.59,1.43-.88,2.15l.96.27c.18-.98.18-1.94-.03-2.93-.08-.39-.58-.46-.84-.22-1.18,1.09-2.04,2.44-2.55,3.97-.14.43.37.76.73.56.64-.35,1.27-.7,1.91-1.05.27-.15,1.83-1.2,1.99-.68l.48-.63c-.64-.03-1.26.06-1.87.26-.46.16-.49.82,0,.96.99.3,1.98.21,2.92-.23.34-.16.31-.69,0-.86-.9-.5-1.88-.38-2.85-.2-1.14.21-2.23.58-3.28,1.04l.5.86c1.13-.72,2.08-1.61,2.9-2.67.31-.4-.29-.95-.68-.68-3.08,2.08-5.66,4.74-8.22,7.4l.84.49c.08-.54.15-1.07.23-1.61.06-.42-.48-.93-.84-.49-1.46,1.85-2.72,3.82-3.77,5.92l.91.39c.67-2.31,1.45-4.59,2.32-6.84l-.96-.27c-.87,2.56-1.61,5.16-2.22,7.79l.98.13c.44-3.59,1.13-7.15,2.05-10.65.17-.63-.75-.87-.96-.27-.89,2.53-1.12,5.2-1.32,7.85h1c-.03-3.41.18-6.81.61-10.19.05-.36-.47-.65-.75-.43-.52.39-.68.9-.84,1.5-.24.91-.48,1.83-.71,2.75-.45,1.8-.89,3.6-1.31,5.4l.98.13c.11-2.49.56-4.93,1.33-7.29l-.98-.13c-.16,2.77-.31,5.55.03,8.32.07.52.82.72.98.13.65-2.38.97-4.84.97-7.31,0-.58-.8-.66-.98-.13-.76,2.2-1.25,4.47-1.51,6.78h1c.07-1.51.31-2.99.72-4.45.34-1.2.73-2.98,1.87-3.67l-.68-.18c.31.46.07,1.12-.03,1.63-.1.56-.22,1.13-.33,1.69-.23,1.12-.5,2.24-.78,3.35-.16.63.77.88.96.27,1.02-3.23,2.46-6.29,4.3-9.13l-.86-.5c-1.63,3.09-3.05,6.28-4.27,9.55-.21.57.6.8.91.39,2.28-3.08,4.56-6.15,6.84-9.23l-.86-.5c-1.93,2.88-3.86,5.76-5.79,8.64-.31.46.43,1.05.79.61,2.69-3.39,5.69-6.51,8.96-9.34.49-.42-.22-1.13-.71-.71-2.9,2.5-5.59,5.23-8.05,8.17-.41.49.28,1.2.71.71,2.71-3.15,5.64-6.09,8.76-8.82l-.71-.71c-2.71,2.56-5.11,5.42-7.17,8.52-.31.47.4,1.02.79.61,2.56-2.72,5.28-5.27,8.15-7.65l-.71-.71-3.78,3.24c-1.16,1-2.31,2.01-3.7,2.69l.73.56c1.75-4.22,5.9-6.79,8.1-10.74.28-.51-.36-.98-.79-.61-3.68,3.25-6.93,6.95-9.68,11.02-.31.46.43,1.06.79.61,2.86-3.67,5.63-7.4,8.32-11.19.34-.47-.39-.99-.79-.61-3.39,3.3-6.16,7.15-8.88,11l.86.5c2.32-3.93,4.76-7.79,7.31-11.58.28-.42-.27-.94-.68-.68-1.82,1.13-3.02,3.2-4.24,4.91-1.42,2-2.77,4.04-4.07,6.12l.91.39c.2-1.21.43-2.41.6-3.62.11-.78.09-1.63-.55-2.18-.49-.42-1.2.29-.71.71.56.48.27,1.43.16,2.04-.15.93-.31,1.86-.46,2.79-.09.54.6.89.91.39,1.21-1.94,2.48-3.86,3.8-5.73.64-.9,1.28-1.8,1.95-2.69s1.3-1.68,2.21-2.25l-.68-.68c-2.55,3.79-4.99,7.65-7.31,11.58-.33.56.5,1.02.86.5,2.67-3.79,5.4-7.55,8.72-10.8l-.79-.61c-2.64,3.72-5.36,7.39-8.17,10.99l.79.61c2.7-3.99,5.91-7.62,9.52-10.81l-.79-.61c-2.24,4.04-6.4,6.65-8.2,10.98-.18.44.39.73.73.56,1.39-.67,2.55-1.68,3.71-2.68,1.32-1.13,2.64-2.27,3.96-3.4.49-.42-.22-1.11-.71-.71-2.87,2.38-5.59,4.94-8.15,7.65l.79.61c2.01-3.03,4.36-5.82,7.01-8.32.47-.45-.23-1.13-.71-.71-3.13,2.73-6.05,5.68-8.76,8.82l.71.71c2.46-2.94,5.15-5.67,8.05-8.17l-.71-.71c-3.27,2.83-6.27,5.95-8.96,9.34l.79.61c1.93-2.88,3.86-5.76,5.79-8.64.36-.54-.49-1.01-.86-.5-2.28,3.08-4.56,6.15-6.84,9.23l.91.39c1.19-3.19,2.59-6.3,4.17-9.31.3-.57-.51-1.05-.86-.5-1.88,2.91-3.36,6.06-4.4,9.36l.96.27c.34-1.35.65-2.71.92-4.08.2-1,.73-2.43.11-3.36-.15-.22-.44-.33-.68-.18-1.3.79-1.78,2.46-2.2,3.84-.51,1.67-.79,3.4-.88,5.15-.03.65.93.63,1,0,.25-2.22.75-4.4,1.47-6.51l-.98-.13c0,2.39-.31,4.74-.93,7.04l.98.13c-.34-2.76-.19-5.54-.03-8.32.03-.58-.81-.65-.98-.13-.8,2.45-1.25,4.98-1.36,7.56-.02.56.85.68.98.13.36-1.56.74-3.12,1.13-4.68.19-.76.38-1.52.58-2.27.1-.4.21-.8.31-1.19.08-.29.13-.71.38-.91l-.75-.43c-.43,3.38-.63,6.78-.61,10.19,0,.65.95.63,1,0,.2-2.57.43-5.14,1.29-7.59l-.96-.27c-.94,3.59-1.63,7.24-2.09,10.92-.07.56.86.68.98.13.61-2.63,1.35-5.23,2.22-7.79.21-.62-.73-.85-.96-.27-.88,2.24-1.65,4.52-2.32,6.84-.15.53.66.9.91.39,1.01-2.02,2.21-3.95,3.61-5.72l-.84-.49c-.08.54-.15,1.07-.23,1.61-.06.45.45.88.84.49,2.5-2.6,5.02-5.22,8.02-7.25l-.68-.68c-.71.92-1.57,1.69-2.54,2.31-.55.36-.07,1.12.5.86.84-.37,1.72-.65,2.61-.85.8-.18,1.76-.41,2.52,0v-.86c-.69.32-1.42.35-2.15.13v.96c.54-.18,1.04-.26,1.61-.23.32.01.58-.33.48-.63-.29-.92-1.25-1.04-2.04-.68-1.14.52-2.22,1.21-3.32,1.81l.73.56c.45-1.37,1.24-2.55,2.29-3.53l-.84-.22c.17.8.18,1.59.03,2.39-.12.64.72.86.96.27.29-.72.59-1.43.88-2.15h-.96c.12.65.14,1.3.05,1.95-.08.62.8.91.96.27s.4-1.27.71-1.86l-.79.1c.42.42.65.9.73,1.49s.97.41.98-.13l.02-1.11-.85.35c.24.22.4.44.5.75.18.53.96.44.98-.13.01-.33.09-.59.25-.88l-.79.1c.44.38.8.8,1.11,1.28.29.45,1.12.17.91-.39-.09-.25-.1-.44.03-.68l-.79.1c.55.52,1.16.98,1.81,1.36.44.26.92-.25.68-.68l-1.27-2.37c-.31-.58-1.12-.07-.86.5l.7,1.55.79-.61c-.66-.84-1.07-1.81-1.28-2.85l-.84.49c1.56,1.78,3.12,3.56,4.68,5.34.43.49,1.11-.22.71-.71-1.59-1.92-2.89-4.05-3.89-6.33-.26-.59-1.12-.08-.86.5h0Z"/>
  <path class="cls-2" d="M50.54,54.62c1.16,3.98,2.8,7.8,4.87,11.39.33.57,1.13.07.86-.5-1.97-4.23-4.72-8.06-8.08-11.29-.23-.22-.62-.18-.79.1-.49.85.06,1.7.5,2.45.53.92,1.08,1.82,1.67,2.7,1.19,1.8,2.51,3.51,3.93,5.14.37.42,1.12-.14.79-.61-1.29-1.78-2.72-3.45-4.3-4.99-.79-.76-1.61-1.49-2.46-2.18-.59-.48-1.46-1.32-2.24-.73-.24.18-.3.41-.18.68.47,1.08,1.09,2.06,1.85,2.97.42.5,1.1-.21.71-.71-1.11-1.41-2.48-2.57-4.04-3.45-.29-.17-.81.04-.75.43.11.82.36,1.56.81,2.25l.79-.61c-.52-.66-1.14-1.21-1.85-1.65-.34-.21-.9.15-.73.56l.48,1.19.84-.49c-.41-.35-.76-.72-1.06-1.16-.36-.53-1.22-.04-.86.5.74,1.12,1.67,2.06,2.78,2.81.3.2.79-.06.75-.43-.15-1.68-.49-3.32-1.05-4.91-.21-.6-1.17-.35-.96.27.84,2.47,1.73,4.95,3.49,6.93.33.38.98-.02.84-.49-.87-2.84-1.73-5.71-1.96-8.68l-.98.13c1.2,3.19,2.42,6.41,4.39,9.22.31.44,1.08.19.91-.39-1.01-3.42-2.01-6.84-3.02-10.26l-.96.27c.6,1.66,1.2,3.33,1.87,4.97.54,1.34,1.11,2.71,2.19,3.72.34.32.81.07.85-.35.1-1.06-.18-2.08-.45-3.09s-.58-2-.87-3c-.59-2.06-1.1-4.14-1.09-6.29l-.93.25c.8,1.55,1.6,3.1,2.4,4.64.7,1.35,1.38,2.69,2.37,3.85.32.37,1-.02.84-.49-1.24-3.42-2.47-6.84-3.71-10.25l-.91.39c1.48,2.64,2.95,5.29,4.43,7.93.24.43.95.25.93-.25-.06-1.47-.73-2.79-1.31-4.11-.66-1.51-1.33-3.03-1.99-4.54l-.79.61c1.98,2.27,3.3,5,4.61,7.69.28.58,1.14.07.86-.5-1.34-2.78-2.72-5.55-4.76-7.89-.4-.46-1,.13-.79.61.6,1.36,1.2,2.72,1.79,4.09.57,1.29,1.32,2.63,1.38,4.06l.93-.25c-1.48-2.64-2.95-5.29-4.43-7.93-.27-.48-1.11-.16-.91.39,1.24,3.42,2.47,6.84,3.71,10.25l.84-.49c-.98-1.15-1.64-2.54-2.33-3.87-.76-1.47-1.53-2.95-2.29-4.42-.23-.45-.93-.23-.93.25-.02,2.08.43,4.12.99,6.11.28,1,.59,2,.87,3,.3,1.07.65,2.15.54,3.27l.85-.35c-1.06-1-1.58-2.4-2.11-3.72-.59-1.5-1.14-3.01-1.69-4.52-.22-.6-1.15-.36-.96.27,1.01,3.42,2.01,6.84,3.02,10.26l.91-.39c-1.92-2.74-3.12-5.86-4.28-8.98-.18-.49-1.03-.47-.98.13.23,3.07,1.1,6.02,1.99,8.95l.84-.49c-1.64-1.84-2.45-4.19-3.23-6.49l-.96.27c.52,1.51.87,3.06,1.01,4.65l.75-.43c-.97-.65-1.78-1.48-2.42-2.45l-.86.5c.35.51.75.96,1.22,1.36.34.28,1.04.02.84-.49l-.48-1.19-.73.56c.65.4,1.18.9,1.65,1.49.35.45,1.09-.13.79-.61-.35-.54-.59-1.11-.67-1.75l-.75.43c1.5.84,2.78,1.94,3.84,3.29l.71-.71c-.7-.84-1.26-1.76-1.69-2.76l-.18.68c.36-.27,1.84,1.25,2.12,1.49.69.6,1.35,1.23,1.99,1.88,1.28,1.3,2.45,2.69,3.52,4.17l.79-.61c-1.21-1.39-2.35-2.85-3.39-4.37-.51-.75-1-1.51-1.47-2.28-.22-.36-.43-.71-.63-1.07-.19-.34-.67-.95-.44-1.35l-.79.1c3.31,3.18,5.99,6.93,7.92,11.09l.86-.5c-2.03-3.51-3.63-7.25-4.77-11.15-.18-.62-1.15-.35-.96.27h0Z"/>
  <path class="cls-2" d="M54.3,53.05c.64,0,.64-1,0-1s-.64,1,0,1h0Z"/>
  <path class="cls-2" d="M52.08,48.8l-3.58-4.23c-.35-.41-.92.04-.84.49.43,2.24,1.56,4.26,2.14,6.46.14.55.25,1.11.28,1.68,0,.14.01.27.01.41,0,.14-.1.41.11.22.17-.15.04-.16-.1-.31-.1-.1-.19-.2-.29-.3-.8-.87-1.47-1.84-2.01-2.89l-.86.5c1.56,2.76,2.98,5.6,4.25,8.51l.86-.5c-1.52-3.21-2.86-6.51-4.01-9.88l-.96.27c1.53,3.72,3.45,7.26,5.76,10.55.37.53,1.13.08.86-.5-1.86-4.09-3.73-8.19-5.59-12.28-.21-.45-.96-.23-.93.25.09,1.35.63,2.57,1.15,3.79.6,1.4,1.25,2.77,1.91,4.15s1.29,2.67,1.91,4.01,1.44,2.82,1.48,4.37l.63-.48c-1.13-.37-2.08-1.52-2.96-2.29-1.01-.89-2.03-1.79-3.04-2.68-.49-.43-1.11.21-.71.71,1.37,1.68,2.85,3.25,4.44,4.73.3.28.7.13.84-.22.39-.98-.78-2.12-1.31-2.83-.76-1-1.57-1.95-2.43-2.87-.45-.47-1.11.22-.71.71,2.01,2.4,4.03,4.8,6.04,7.2l.71-.71c-2.11-1.98-4.22-3.95-6.33-5.93-.47-.44-1.14.23-.71.71,3.16,3.49,6.42,6.88,9.79,10.17.4.4,1.07-.11.79-.61-1.79-3.12-3.58-6.23-5.38-9.35l-.86.5c1.91,3.08,3.83,6.16,5.74,9.25l.86-.5c-2.99-4.21-5.29-8.84-7.56-13.45-.23-.47-.91-.21-.93.25-.04,1.14.52,2.14,1.04,3.11s1.1,1.97,1.71,2.93c1.23,1.95,2.61,3.8,4.1,5.55.37.43,1.08-.13.79-.61-2.25-3.59-4.68-7.15-7.97-9.87-.41-.34-1.11.09-.79.61,1.97,3.11,4.27,6,6.84,8.64.4.41,1.06-.11.79-.61-1.72-3.13-3.89-6-6.43-8.51-.41-.4-1.06.11-.79.61,1.99,3.66,4.8,6.77,7.85,9.57.33.31,1.03.01.84-.49-1.46-3.7-3.15-7.31-5.06-10.8-.26-.48-1.13-.15-.91.39,1.68,4.11,4.08,7.88,7.13,11.12.33.35,1.01-.01.84-.49-1.57-4.37-3.15-8.75-4.72-13.12-.22-.6-1.09-.37-.96.27.99,4.87,2.98,9.43,4.96,13.95l.86-.5c-1.12-1.78-2.24-3.57-3.4-5.33-.95-1.46-1.87-3.14-3.4-4.06-.32-.19-.76.05-.75.43.02,1.06.5,2,.96,2.94.51,1.03,1.08,2.03,1.68,3.01,1.17,1.9,2.51,3.69,3.99,5.36.34.38.97-.02.84-.49-1.03-3.54-2.69-6.87-4.91-9.82-.24-.32-.8-.33-.91.12-.25.96.51,1.98.93,2.79.49.94,1,1.86,1.54,2.77,1.12,1.89,2.34,3.71,3.65,5.46.31.41,1.14.19.91-.39-1.41-3.54-2.68-7.14-3.8-10.79-.19-.62-1.1-.36-.96.27.74,3.42,1.97,6.71,3.65,9.78.19.35.84.31.91-.12.55-3.46.54-7.94,3.84-10.09l-.75-.43c.19,1.65-.6,3.27-1.26,4.75s-1.37,2.86-2.17,4.23c-.29.49.38,1,.79.61,2.36-2.29,4.41-4.89,6.11-7.71.29-.48-.39-1.02-.79-.61-1.86,1.94-3.44,4.1-5.02,6.26l.91.39c1.5-3.58,3.91-6.68,6.28-9.71.39-.49-.27-1.2-.71-.71-2.45,2.72-4.51,5.76-6.13,9.04-.24.48.39,1.06.79.61,2.38-2.72,4.67-5.51,6.89-8.37.32-.41.02-.91-.49-.84-.87.12-1.43.81-1.96,1.44-.7.81-1.37,1.64-2.02,2.49-1.32,1.72-2.54,3.51-3.67,5.36-.29.47.42,1.05.79.61,2.59-3.18,5.18-6.36,7.77-9.54.4-.49-.24-1.17-.71-.71-1.62,1.61-3.24,3.22-4.86,4.83l-2.39,2.37-1.24,1.23c-.22.22-.93,1.17-1.24,1.04l.3.73c.5-1.09,1.24-2.03,1.96-2.98.78-1.02,1.55-2.04,2.33-3.06,1.58-2.08,3.16-4.15,4.74-6.23.34-.45-.41-1.03-.79-.61-3.24,3.63-6.11,7.56-8.58,11.75l.86.5c2.22-4.09,5.01-7.81,7.8-11.52.39-.52-.48-1.01-.86-.5-2.33,3.05-4.4,6.29-6.2,9.69-.31.58.49,1.02.86.5,2.2-3.05,4.54-6.01,7.01-8.85.42-.48-.26-1.18-.71-.71-2.87,2.98-5.31,6.35-7.25,10-.31.58.5,1.02.86.5,2.26-3.19,4.68-6.25,7.25-9.18.42-.48-.27-1.19-.71-.71-3.05,3.37-6.1,6.74-9.14,10.12l.79.61c2.05-4.37,5.51-7.87,7.58-12.23.22-.46-.22-.91-.68-.68-.9.45-1.5,1.25-2.08,2.04-.77,1.04-1.52,2.09-2.25,3.16-1.44,2.1-2.8,4.25-4.08,6.45l.86.5c2.11-4.23,4.5-8.32,7.14-12.24.37-.54-.49-1.01-.86-.5-2.54,3.44-4.68,7.16-6.81,10.87l.91.39c1.26-4.36,3.71-8.21,6.13-12l-.86-.5c-2.22,3.99-4.43,7.97-6.65,11.96l.91.39c.82-3.96,2.75-7.52,4.72-11.02l-.86-.5c-1.7,3.29-3.4,6.57-5.1,9.86l.91.39c1.15-4.53,3.24-8.72,5.33-12.87.29-.57-.57-1.08-.86-.5-2.18,4.32-4.05,8.79-5.59,13.38l.96.27c1.26-4.12,2.53-8.26,4.56-12.08l-.93-.25c.13,2.27.05,4.54-.27,6.79-.09.63.87.9.96.27.34-2.34.45-4.69.31-7.05-.03-.47-.69-.72-.93-.25-2.07,3.9-3.38,8.12-4.66,12.32-.19.62.76.87.96.27,1.51-4.51,3.34-8.9,5.49-13.14l-.86-.5c-2.13,4.23-4.27,8.5-5.43,13.11-.13.53.65.9.91.39,1.7-3.29,3.4-6.57,5.1-9.86.29-.57-.55-1.07-.86-.5-2,3.56-3.98,7.22-4.82,11.26-.11.53.63.9.91.39,2.22-3.99,4.43-7.97,6.65-11.96.31-.57-.52-1.05-.86-.5-2.47,3.87-4.95,7.8-6.23,12.24-.16.54.63.88.91.39,2.13-3.71,4.26-7.42,6.81-10.87l-.86-.5c-2.64,3.92-5.03,8.01-7.14,12.24-.29.57.54,1.07.86.5,1.2-2.06,2.47-4.09,3.81-6.07.66-.97,1.34-1.93,2.03-2.88.63-.86,1.23-1.85,2.21-2.34l-.68-.68c-2.07,4.35-5.53,7.86-7.58,12.23-.23.48.38,1.06.79.61,3.05-3.37,6.1-6.74,9.14-10.12l-.71-.71c-2.63,3-5.1,6.13-7.41,9.38l.86.5c1.9-3.58,4.29-6.88,7.1-9.8l-.71-.71c-2.52,2.91-4.91,5.93-7.16,9.06l.86.5c1.8-3.39,3.87-6.63,6.2-9.69l-.86-.5c-2.79,3.71-5.58,7.43-7.8,11.52-.31.57.54,1.06.86.5,2.43-4.12,5.25-7.98,8.43-11.55l-.79-.61c-1.58,2.08-3.16,4.15-4.74,6.23-.78,1.02-1.55,2.04-2.33,3.06-.72.95-1.46,1.89-1.96,2.98-.15.32-.02.61.3.73.95.38,1.82-.92,2.39-1.48l2.74-2.72c1.86-1.85,3.71-3.69,5.57-5.54l-.71-.71c-2.59,3.18-5.18,6.36-7.77,9.54l.79.61c1.01-1.65,2.09-3.26,3.26-4.81.59-.79,1.2-1.56,1.83-2.31.52-.62,1.11-1.58,1.96-1.7l-.49-.84c-2.21,2.86-4.51,5.65-6.89,8.37l.79.61c1.58-3.21,3.58-6.18,5.97-8.84l-.71-.71c-2.49,3.18-4.96,6.4-6.54,10.15-.24.56.61.8.91.39,1.53-2.1,3.07-4.19,4.86-6.06l-.79-.61c-1.65,2.76-3.65,5.27-5.95,7.51l.79.61c.87-1.51,1.66-3.06,2.35-4.66.65-1.52,1.4-3.13,1.21-4.83-.04-.35-.4-.66-.75-.43-3.59,2.34-3.69,6.89-4.3,10.69l.91-.12c-1.64-2.99-2.83-6.2-3.55-9.54l-.96.27c1.12,3.64,2.39,7.24,3.8,10.79l.91-.39c-1.18-1.57-2.28-3.2-3.3-4.88-.51-.84-1-1.69-1.47-2.56-.22-.4-.43-.8-.63-1.2s-.74-1.14-.62-1.62l-.91.12c2.17,2.88,3.8,6.12,4.81,9.58l.84-.49c-1.37-1.56-2.61-3.22-3.71-4.97-.53-.85-1.03-1.72-1.49-2.61-.49-.93-1.11-1.95-1.13-3.03l-.75.43c1.5.9,2.39,2.69,3.31,4.11,1.06,1.63,2.09,3.28,3.13,4.93.35.56,1.12.07.86-.5-1.95-4.45-3.89-8.93-4.86-13.72l-.96.27c1.57,4.37,3.15,8.75,4.72,13.12l.84-.49c-2.92-3.11-5.26-6.73-6.87-10.68l-.91.39c1.87,3.42,3.53,6.94,4.96,10.56l.84-.49c-2.99-2.75-5.74-5.78-7.69-9.37l-.79.61c2.49,2.46,4.59,5.25,6.27,8.31l.79-.61c-2.52-2.57-4.76-5.39-6.69-8.43l-.79.61c3.23,2.68,5.6,6.14,7.81,9.67l.79-.61c-1.39-1.63-2.67-3.35-3.82-5.15-.57-.89-1.11-1.79-1.61-2.72s-1.16-1.92-1.12-3.01l-.93.25c2.28,4.62,4.57,9.24,7.56,13.45.37.52,1.21.05.86-.5l-5.74-9.25c-.34-.55-1.19-.06-.86.5,1.79,3.12,3.58,6.23,5.38,9.35l.79-.61c-3.37-3.29-6.63-6.68-9.79-10.17l-.71.71c2.11,1.98,4.22,3.95,6.33,5.93.48.45,1.12-.22.71-.71-2.01-2.4-4.03-4.8-6.04-7.2l-.71.71c.67.72,1.32,1.45,1.93,2.23.3.38.59.77.88,1.17.22.31.83.93.67,1.32l.84-.22c-1.59-1.47-3.07-3.05-4.44-4.73l-.71.71c1.14,1,2.28,2.01,3.41,3.01.92.81,1.83,1.83,3.03,2.22.31.1.64-.17.63-.48-.03-1.39-.6-2.64-1.16-3.89-.62-1.39-1.29-2.76-1.94-4.13s-1.28-2.67-1.89-4.02-1.35-2.78-1.45-4.28l-.93.25c1.86,4.09,3.73,8.19,5.59,12.28l.86-.5c-2.25-3.22-4.16-6.68-5.66-10.31-.24-.58-1.18-.36-.96.27,1.18,3.45,2.55,6.82,4.11,10.11.28.59,1.12.07.86-.5-1.27-2.91-2.69-5.75-4.25-8.51-.32-.56-1.16-.06-.86.5.66,1.27,1.5,2.47,2.53,3.47.35.34.88.71,1.34.3.41-.36.29-1.14.25-1.61-.24-2.89-1.9-5.39-2.45-8.21l-.84.49,3.58,4.23c.42.49,1.12-.22.71-.71h0Z"/>
  <path class="cls-2" d="M64.08,49.64c.2-2.18.21-4.37.03-6.55l-.98.13c1.19,3.92,2.4,7.86,4.36,11.49.27.49,1.1.16.91-.39-1.39-4.09-2.78-8.19-4.17-12.28-.2-.6-1.16-.35-.96.27,1.31,4.2,2.29,8.5,2.93,12.85l.96-.27c-1.17-3.79-1.98-7.67-2.79-11.55-.12-.57-.97-.42-.98.13-.11,4.36.33,8.71,1.29,12.96.14.64,1.06.36.96-.27-.53-3.34-1.05-6.68-1.13-10.07l-.98.13c.77,3.63,1.26,7.3,1.48,11.01.04.64,1.04.64,1,0-.22-3.79-.72-7.56-1.51-11.27-.12-.55-1-.43-.98.13.08,3.47.62,6.91,1.16,10.33l.96-.27c-.94-4.17-1.36-8.42-1.25-12.69l-.98.13c.81,3.88,1.62,7.76,2.79,11.55.19.63,1.06.36.96-.27-.65-4.35-1.62-8.65-2.93-12.85l-.96.27c1.39,4.09,2.78,8.19,4.17,12.28l.91-.39c-1.92-3.55-3.1-7.41-4.26-11.25-.16-.52-1.03-.45-.98.13.18,2.18.17,4.37-.03,6.55-.06.64.94.64,1,0h0Z"/>
  <path class="cls-2" d="M54.78,51.64c1.42,3.94,3.01,7.82,4.77,11.62l.86-.5c-2.99-4.96-5.51-10.18-7.5-15.62l-.96.27c2.25,5.82,4.89,11.5,7.89,16.97.32.58,1.12.07.86-.5-2.74-6.15-5.09-12.46-7.04-18.9-.19-.61-1.14-.36-.96.27,1.63,5.65,3.98,11.08,6.99,16.13.28.47,1.13.16.91-.39-2.24-5.54-4.69-11-7.34-16.36-.29-.59-1.11-.07-.86.5,1.9,4.36,3.79,8.72,5.69,13.08l.86-.5c-2.62-4.62-5.25-9.25-7.87-13.87-.27-.48-1.13-.15-.91.39,1.03,2.57,2.21,5.09,3.55,7.51.66,1.19,1.36,2.37,2.09,3.52.39.61.78,1.21,1.19,1.8.3.42.64.82,1.2.76.29-.03.61-.3.48-.63-1.97-4.95-4.42-9.69-7.32-14.15-.36-.55-1.12-.07-.86.5,2.29,5.2,4.84,10.27,7.66,15.2.32.57,1.14.07.86-.5-2.22-4.57-4.2-9.26-5.94-14.03l-.96.27c2.27,5.89,4.69,11.75,8.05,17.12.35.55,1.13.07.86-.5-2.44-5.33-4.87-10.67-6.78-16.22l-.91.39c2.15,4.61,4.4,9.17,6.74,13.68l.86-.5c-2.86-4.63-5.4-9.44-7.62-14.4l-.68.68c1.24.95,1.87,2.67,2.56,4.02.79,1.55,1.57,3.1,2.34,4.66l.86-.5c-.97-1.74-1.92-3.49-2.86-5.25-.46-.86-.92-1.72-1.37-2.59-.33-.62-1.27-1.85-.78-2.55h-.86c2.83,4.5,4.3,9.66,6.76,14.35.31.58,1.11.07.86-.5-1.81-4.18-3.61-8.36-5.42-12.53l-.86.5c2.23,4.27,4.45,8.53,6.68,12.8.3.57,1.16.07.86-.5-2.08-4.01-4.15-8.03-5.7-12.28l-.91.39c1.38,2.8,2.54,5.7,3.48,8.69l.91-.39c-.78-1.56-1.53-3.13-2.23-4.73s-1.71-3.33-1.62-5.07l-.75.43c1.28.89,1.86,2.46,2.36,3.87.56,1.6.96,3.24,1.22,4.91l.91-.39c-.82-1.48-1.52-3.03-2.09-4.62-.28-.78-.53-1.58-.74-2.38-.1-.36-.19-.73-.28-1.1-.03-.12-.32-1.19-.28-1.22l-.61-.08c1.38,1.63,2.03,3.79,2.64,5.8.66,2.18,1.14,4.41,1.44,6.66l.93-.25c-1.67-3.7-2.71-7.66-3.09-11.7l-.93.25c1.42,1.86,2.04,4.23,2.75,6.43.77,2.39,1.47,4.8,2.11,7.23l.91-.39c-1.05-1.99-1.87-4.07-2.55-6.21-.32-1.02-.61-2.05-.88-3.09-.07-.27-.77-3.09-.78-3.08l-.56-.23c2.41,3.81,4.01,8.07,4.71,12.53l.91-.39c-1.22-1.86-2.05-3.92-2.71-6.04-.33-1.05-.61-2.11-.89-3.17-.31-1.19-.72-2.42-.46-3.65l-.48.37c.42.02.66.54.83.86.23.43.44.87.64,1.31.4.88.73,1.79,1.01,2.72.56,1.86.87,3.79.94,5.73l.85-.35c-1.26-1.34-1.99-3.03-2.46-4.79-.23-.84-.4-1.69-.56-2.55-.19-.99-.49-2.06-.17-3.05l-.91.12c1.81,3.15,2.64,6.71,3.45,10.22l.91-.39c-1.64-2.9-2.64-6.12-2.92-9.45l-.93.25c2.16,2.99,2.96,6.63,3.69,10.17l.91-.39c-.75-1.75-1.35-3.56-1.8-5.4-.22-.89-.39-1.79-.54-2.69-.08-.48-.14-.97-.2-1.45-.03-.31-.24-1.11-.02-1.39l-.79-.1c1.38,2.96,2.28,6.14,2.65,9.38l.98-.13c-1.05-2.77-1.75-5.66-2.05-8.61l-.85.35c1.12,1.07,1.51,2.75,1.93,4.19.47,1.64.81,3.3,1.04,4.99l.96-.27c-1.14-2.94-1.97-5.98-2.48-9.1l-.91.39c.96,1.55,1.79,3.17,2.49,4.86l.91-.39-1.8-3.41-.87-1.65c-.28-.53-.78-1.2-.69-1.82.05-.37-.21-.71-.62-.62-1.25.3-4.49,1.3-3.63,3.21.31.7,1.13.88,1.75.45.82-.57.68-1.61.45-2.45l-.91.39c.17.26.26.52.21.83l.73-.3c-.46-.24-.93-.49-1.39-.73-.4-.21-.82.14-.73.56.18.93,1.05,2.99,2.33,2.54s.77-2.53.4-3.37c-.2-.45-.97-.23-.93.25.1,1.34.11,2.69.04,4.04l.98-.13c-.24-.93-.7-1.94-1.42-2.6-.83-.76-1.58.1-1.92.86-.85,1.91-.73,4.18-1.97,5.92l.56-.23c-.62-.21-.68-1.55-.76-2.07-.14-.89-.18-1.8-.17-2.7l-.98.13c.66,2.48,1.33,4.97,1.99,7.45.15.57.94.41.98-.13.13-1.63-.21-3.22-.57-4.8-.14-.63-1.08-.36-.96.27.57,3,1.38,5.94,2.42,8.8.18.5,1.01.47.98-.13-.1-1.83-.19-3.67-.29-5.5l-.85.35c2.87,2.46,3.09,6.77,6.04,9.18.31.25.88.12.85-.35-.06-1.17-.13-2.33-.19-3.5l-.37.48c.29-.04.88,1.18,1.02,1.39.33.52.66,1.03,1,1.55.69,1.07,1.37,2.13,2.06,3.2.26.4.94.26.93-.25,0-.45-.02-.89-.02-1.34,0-.19-.13-.98.03-1.1.38-.28,1.66,1.21,1.9,1.47,1.05,1.17,1.91,2.51,3.09,3.57.91.82,2.38,1.85,3.7,1.65.59-.09.91-.58.67-1.14-.17-.39-.51-.77-.75-1.12-.27-.39-.54-.78-.81-1.17-.31-.45-1.07-.19-.91.39.17.64.41,1.24.7,1.84l.86-.5c-.41-.56-.7-1.16-.87-1.84l-.84.49c.38.49.69,1.03.92,1.6l.84-.49-1.53-1.71c-.32-.35-1.03.02-.84.49l.89,2.14.84-.49c-.58-.73-1.26-1.32-2.06-1.8-.29-.17-.64,0-.73.3-.09.27-.18.55-.27.82l.84-.22c-2.14-1.66-3.53-4.37-6.28-5.14-.28-.08-.51.1-.62.35-.48,1.19-.83,2.42-1.03,3.69l.48-.37c-.54-.05-.98-1.41-1.17-1.8-.36-.74-.71-1.48-1.05-2.23-.53-1.19-.93-2.53-1.78-3.55-.8-.96-2.02-1.3-3.21-.88-1.31.46-2.13,1.6-2.88,2.7-.37.53.5,1.03.86.5.71-1.04,1.63-2.37,3.04-2.39,1.31-.02,1.92,1.37,2.36,2.39.55,1.3,1.12,2.58,1.75,3.85.46.93.89,2.28,2.09,2.4.2.02.45-.17.48-.37.2-1.27.55-2.5,1.03-3.69l-.62.35c2.53.7,3.87,3.35,5.84,4.88.3.23.71.17.84-.22.09-.27.18-.55.27-.82l-.73.3c.72.44,1.33.98,1.85,1.65.3.38,1.03-.03.84-.49l-.89-2.14-.84.49,1.53,1.71c.32.36,1.03-.02.84-.49-.31-.74-.69-1.4-1.18-2.04-.33-.42-.94.04-.84.49.19.76.51,1.45.97,2.08.38.51,1.15.08.86-.5-.26-.52-.45-1.04-.6-1.6l-.91.39c.27.39.54.78.81,1.17.13.2.27.39.4.59l.13.2c.09.26.18.26.28,0-.33-.11-.7-.1-1.03-.22s-.68-.31-.99-.51c-1.34-.87-2.27-2.22-3.26-3.44-.49-.6-1-1.19-1.59-1.69-.47-.41-1.13-1.03-1.81-.92-.55.09-.81.59-.88,1.1-.11.78,0,1.63,0,2.42l.93-.25c-.89-1.37-1.77-2.75-2.66-4.12-.39-.61-.76-1.27-1.2-1.84-.36-.47-.75-.71-1.35-.63-.2.03-.38.29-.37.48.06,1.17.13,2.33.19,3.5l.85-.35c-2.93-2.4-3.16-6.71-6.04-9.18-.3-.26-.88-.11-.85.35.1,1.83.19,3.67.29,5.5l.98-.13c-1.04-2.87-1.84-5.81-2.42-8.8l-.96.27c.34,1.5.66,2.99.53,4.53l.98-.13c-.66-2.48-1.33-4.97-1.99-7.45-.15-.55-.97-.43-.98.13-.02,1.23.08,2.46.33,3.67.18.86.42,1.75,1.33,2.07.22.08.44-.06.56-.23.9-1.27,1.12-2.8,1.47-4.28.09-.38.18-.76.31-1.12.05-.14.34-1.11.53-1.13.23-.02.58.68.68.86.23.4.38.81.49,1.26.14.56.95.42.98-.13.07-1.35.05-2.69-.04-4.04l-.93.25c.15.34.23.71.25,1.08,0,.27.07.88-.31.67-.49-.26-.74-1.21-.83-1.7l-.73.56c.46.24.93.49,1.39.73.26.13.68.04.73-.3.09-.58.01-1.1-.31-1.6-.3-.47-1.07-.18-.91.39.08.28.41,1.31-.11,1.4-.25.04-.26-.21-.22-.37.05-.21.28-.39.45-.51.73-.53,1.68-.83,2.55-1.04l-.62-.62c-.18,1.29.74,2.49,1.32,3.58l2.15,4.07c.26.49,1.13.15.91-.39-.73-1.77-1.59-3.47-2.59-5.1-.31-.51-1-.16-.91.39.51,3.11,1.34,6.16,2.48,9.1.24.61,1.05.37.96-.27-.25-1.84-.64-3.66-1.17-5.44-.44-1.48-.9-3.08-2.05-4.18-.29-.27-.9-.1-.85.35.31,3.04,1,6.02,2.09,8.88.18.48,1.05.47.98-.13-.39-3.44-1.32-6.76-2.78-9.89-.13-.27-.59-.34-.79-.1-.59.75-.32,1.79-.21,2.66.14,1.07.32,2.12.55,3.17.48,2.17,1.18,4.27,2.05,6.31.23.55,1.02.14.91-.39-.74-3.63-1.58-7.36-3.79-10.41-.26-.36-.98-.29-.93.25.29,3.5,1.32,6.89,3.06,9.95.29.5,1.04.16.91-.39-.83-3.6-1.69-7.23-3.55-10.46-.22-.39-.78-.28-.91.12-.34,1.05-.09,2.13.1,3.19.18.99.37,1.97.64,2.94.52,1.92,1.34,3.77,2.72,5.23.29.31.87.08.85-.35-.08-2.33-.49-4.64-1.25-6.85-.37-1.07-.81-2.11-1.33-3.12-.41-.79-.88-1.6-1.85-1.66-.21-.01-.44.16-.48.37-.26,1.24,0,2.44.32,3.65s.61,2.34.96,3.49c.69,2.27,1.57,4.49,2.87,6.49.32.5,1,.16.91-.39-.71-4.53-2.35-8.89-4.81-12.76-.11-.18-.35-.3-.56-.23-1.06.34-.57,1.65-.39,2.42.32,1.34.66,2.67,1.05,3.99.76,2.56,1.7,5.07,2.95,7.44.27.51,1.06.16.91-.39-.66-2.51-1.39-4.99-2.19-7.46-.71-2.2-1.35-4.57-2.78-6.44-.26-.34-.98-.3-.93.25.39,4.23,1.48,8.33,3.22,12.2.2.44,1,.23.93-.25-.32-2.42-.82-4.82-1.54-7.15-.65-2.11-1.38-4.3-2.83-6.02-.13-.16-.44-.2-.61-.08-.72.51-.39,1.4-.23,2.13.22.99.49,1.98.81,2.95.64,1.94,1.46,3.82,2.45,5.61.29.53,1,.14.91-.39-.3-1.9-.78-3.77-1.46-5.56-.56-1.47-1.25-2.9-2.58-3.82-.33-.23-.73.08-.75.43-.09,1.79.87,3.53,1.56,5.14.76,1.75,1.57,3.47,2.42,5.17.25.51,1.08.15.91-.39-.96-3.06-2.16-6.05-3.58-8.92-.25-.5-1.11-.15-.91.39,1.57,4.33,3.68,8.43,5.8,12.51l.86-.5c-2.23-4.27-4.45-8.53-6.68-12.8-.3-.58-1.11-.07-.86.5,1.81,4.18,3.61,8.36,5.42,12.53l.86-.5c-2.46-4.69-3.93-9.85-6.76-14.35-.21-.33-.65-.31-.86,0-.48.69-.25,1.49.08,2.2.49,1.05,1.07,2.06,1.61,3.08,1.09,2.05,2.19,4.08,3.32,6.11.32.57,1.14.07.86-.5-.84-1.7-1.69-3.4-2.56-5.09-.73-1.43-1.39-2.95-2.7-3.95-.45-.34-.86.29-.68.68,2.21,4.97,4.76,9.78,7.62,14.4.34.55,1.16.07.86-.5-2.34-4.51-4.59-9.07-6.74-13.68-.24-.51-1.1-.15-.91.39,1.94,5.63,4.41,11.05,6.88,16.46l.86-.5c-3.32-5.29-5.71-11.07-7.95-16.88-.23-.59-1.19-.34-.96.27,1.77,4.86,3.79,9.62,6.04,14.27l.86-.5c-2.81-4.93-5.37-10.01-7.66-15.2l-.86.5c2.85,4.39,5.28,9.05,7.22,13.91l.48-.63c-.36.04-.99-1.23-1.16-1.49-.33-.51-.66-1.02-.97-1.54-.63-1.03-1.24-2.09-1.82-3.15-1.17-2.16-2.21-4.39-3.12-6.68l-.91.39c2.62,4.62,5.25,9.25,7.87,13.87.33.57,1.11.07.86-.5-1.9-4.36-3.79-8.72-5.69-13.08l-.86.5c2.62,5.28,5.03,10.66,7.24,16.12l.91-.39c-2.96-4.98-5.28-10.32-6.89-15.89l-.96.27c1.98,6.52,4.37,12.91,7.14,19.14l.86-.5c-2.97-5.4-5.57-10.99-7.79-16.73-.23-.59-1.19-.34-.96.27,2.03,5.51,4.57,10.83,7.6,15.86.34.56,1.13.07.86-.5-1.73-3.72-3.28-7.52-4.67-11.38-.22-.6-1.18-.34-.96.27h0Z"/>
  <g>
    <path class="cls-1" d="M27.5,6.91c2.52,4.49,4.58,8.12,5.98,10.57,2.5,4.39,4.81,8.89,7.24,13.32,1.95,3.55,2.9,5.22,3.32,7.95.64,4.17-.46,7.41-.71,8.1-1.61,4.49-4.83,6.95-6.23,7.99-3.44,2.56-6.92,3.44-16.6,4.57-4.95.58-11.29,1.2-18.73,1.62"/>
    <path class="cls-1" d="M82.01,9.56c-3.29,5.78-6.07,10.39-7.96,13.49-5.28,8.62-8.1,12.59-7.49,18.05.41,3.62,2.04,5.38,2.38,5.73,3.24,3.35,8.5,2.57,9.33,2.45,4.96-.74,8.14-4.2,11.36-7.79,7.26-8.11,12.66-14.22,17.14-19.34"/>
    <path class="cls-1" d="M53.14,110.99c.47-8.11,1.83-14.7,3.09-19.44,1.26-4.75,2.88-9.33,6-14.04,3.02-4.56,5.11-5.68,6.06-6.12,4.17-1.91,8.46-.61,11.03.22,4.36,1.39,7.52,3.69,14.99,10.86,3.56,3.42,7.98,7.84,12.91,13.19"/>
    <path class="cls-1" d="M24.06,58.96c2.15-.04,14,.52,17.68,1.68,2.27.71,6.88,2.17,10.63,6.21,5.34,5.76,4.44,20.63,4.41,22.74"/>
    <path class="cls-1" d="M41.47,32.24c1.25,1.03,7.59,7.83,11.57,8.42,1.43.21,4.62.65,8.12-.92,1.91-.86,8.74-10.43,9.52-11.22"/>
    <path class="cls-1" d="M85.22,46c-1.09.69-5.97,6.03-6.87,9.57-.17.68-.55,2.48.46,6.19.66,2.44,10.99,15.47,14.47,19.73"/>
  </g>
  <path class="cls-2" d="M46.22,40.73c.96,2.45,1.84,4.94,2.62,7.46l.91-.39c-2.13-3.79-3.78-7.82-4.91-12.01l-.96.27c1.21,3.11,2.41,6.22,3.62,9.33.23.59,1.17.35.96-.27-1-3-2.17-5.93-3.5-8.8l-.86.5c1.14,1.94,2.17,3.95,3.08,6.01l.86-.5c-.71-1.36-1.42-2.71-2.14-4.07-.28-.52-1.02-.15-.91.39.7,3.39,1.1,6.84,1.21,10.3l.93-.25c-1.3-2.92-1.76-6.13-1.39-9.3l-.98.13c.69,3,.76,6.11.19,9.14h.96c-.55-2.6-.44-5.27.31-7.82l-.98-.13c.12,3.29-.29,6.56-1.22,9.72l.98.13c-.22-2.04.15-4.07,1.12-5.88l-.91-.39c-.91,2.29-1.74,4.6-2.51,6.94l.96.27c.64-2.09,1.49-4.1,2.56-6.01l-.86-.5c-1.23,2.31-2.31,4.69-3.23,7.14l.96.27c.5-1.9,1.2-3.73,2.11-5.47.3-.57-.55-1.07-.86-.5-.99,1.78-1.98,3.56-2.97,5.33-.31.56.53,1.06.86.5.77-1.27,1.53-2.53,2.3-3.8l-.86-.5c-1.3,2.38-3.02,4.5-5.08,6.27-1.01.87-2.1,1.63-3.26,2.3-.59.34-1.2.66-1.83.95-.68.31-1.56.75-2.29.38l-.25.93c5.78-.31,11.38,1.28,16.87,2.87.57.16.84-.6.39-.91-3.57-2.45-8.04-2.67-12.22-2.81l.25.93c3.35-1.79,6.39-4.12,8.98-6.89.45-.48-.22-1.11-.71-.71-.95.77-1.89,1.53-2.84,2.3-.48.39.13.99.61.79,3.9-1.71,6.11-6.29,5.12-10.41l-.91.39c.77,1.17,1.55,2.35,2.32,3.52.31.47,1.05.18.91-.39-.59-2.38-1.4-4.69-2.39-6.94l-.86.5c1.14,1.66,2.28,3.31,3.42,4.97.36.52,1.2.05.86-.5-1.53-2.52-3.07-5.03-4.6-7.55l-.86.5c1.3,1.98,2.63,3.96,4.44,5.51.4.34,1.15-.12.79-.61-1.7-2.31-3.41-4.63-5.11-6.94l-.79.61c2.55,2.05,4.85,4.41,6.81,7.04l.79-.61c-1.37-1.37-2.54-2.91-3.5-4.6l-.79.61c2.14,2.3,4.15,4.72,6.01,7.24l.79-.61c-1.64-1.84-3.18-3.75-4.62-5.75l-.68.68c2.07,1.17,4.14,2.33,6.21,3.5.56.32,1.06-.54.5-.86-1.84-1.06-3.69-2.11-5.53-3.17l-.39.91c2.7.82,5.49,1.3,8.31,1.45.55.03.7-.9.13-.98-1.74-.25-3.48-.3-5.23-.14l.13.98c1.57-.24,3.14-.49,4.71-.77,1.45-.26,2.9-.53,4.27-1.1,2.26-.95,4.29-2.98,4.17-5.59-.02-.47-.68-.71-.93-.25-1.7,3.13-3.39,6.27-5.09,9.4-.31.57.55,1.07.86.5,1.88-3.45,3.76-6.89,5.64-10.34.31-.57-.51-1.04-.86-.5-2.04,3.09-4.19,6.3-7.47,8.21l.61.79c1.24-1.47,2.69-2.73,4.34-3.73l-.68-.68c-1.56,3.03-3.17,6.27-2.87,9.78.05.54.82.7.98.13.66-2.28,1.33-4.56,1.99-6.84l-.98-.13c.3,2.83.82,5.62,1.56,8.36.15.53,1,.44.98-.13-.07-1.85-.14-3.7-.21-5.55-.06-1.61-.14-3.3.6-4.77l-.91-.12c.63,3.6,1.26,7.19,1.89,10.79.1.55,1.04.43.98-.13-.38-3.8-.77-7.61-1.15-11.41l-.98.13c.87,3.7,1.46,7.46,1.77,11.25l.98-.13c-.71-3.22-1.43-6.44-2.14-9.65l-.96.27c1.88,6.12,3.76,12.24,5.64,18.35l.91-.39c-2.62-3.83-4.13-8.23-5.6-12.59l-.91.39c2.25,5.08,4.49,10.16,6.74,15.24l.86-.5c-2.48-4.21-4.36-8.73-5.6-13.46l-.91.39c1.95,2.69,3.72,5.5,5.3,8.42l.86-.5c-1.73-3.01-3.31-6.11-4.74-9.28l-.79.61c2.06,1.78,3.98,3.7,5.78,5.75l.71-.71c-1.83-1.88-3.52-3.87-5.06-5.99l-.79.61c2.04,1.62,3.92,3.41,5.64,5.36l.71-.71c-2.22-1.74-4.27-3.68-6.13-5.8-.37-.42-1.11.14-.79.61,2.17,3.18,5.75,5.17,9.59,5.33.65.03.63-.93,0-1-1.8-.19-3.56-.64-5.25-1.3v.96c3.38-.89,7.12,2.01,10.27-.28l-.5-.86c-4.15,3.12-7.12,7.62-8.31,12.68l.96.27c.53-2.87,1.66-5.57,3.32-7.97l-.91-.39c-.39,1.86-.79,3.72-1.18,5.57-.13.63.76.88.96.27.94-2.8,2.28-5.44,3.99-7.85l-.86-.5c-1.6,3.53-2.77,7.22-3.44,11.04h.96c-.4-1.71-.54-3.44-.43-5.18l-.98.13c1.08,2.92,1.93,5.92,2.54,8.97l.91-.39c-1.37-2.86-1.85-6.05-1.44-9.19l-.98.13c1.22,3.47,2.45,6.93,3.67,10.4l.91-.39c-2.16-2.92-3.43-6.41-3.59-10.05l-.98.13c2.26,6.92,4.81,14.31,11.01,18.69.5.35.94-.38.61-.79-2.77-3.34-5.3-6.88-7.55-10.59l-.86.5c1.71,2.33,3.22,4.79,4.53,7.37l.79-.61c-4.64-4.67-8.06-10.33-11.42-15.94-.29-.48-1.07-.17-.91.39.74,2.64,1.76,5.2,3.04,7.63.22.42.98.25.93-.25-.27-2.79-.1-5.59.53-8.33.11-.47-.48-.86-.84-.49-.61.64-1.21,1.28-1.82,1.91l.79.61c.97-1.36,1.87-2.77,2.71-4.21.2-.35-.14-.9-.56-.73-1.51.58-2.64,1.76-3.11,3.31-.11.34.26.75.62.62,2.12-.78,3.57-2.67,3.79-4.91.04-.4-.45-.59-.75-.43-2.49,1.3-4.48,3.43-5.57,6.02-.16.37.1.88.56.73,2.29-.73,4.21-2.28,5.39-4.38.22-.39-.14-.84-.56-.73-3.01.74-5.64,2.56-7.42,5.1-.35.5.38.93.79.61,2.01-1.59,3.63-3.61,4.77-5.91.23-.47-.23-.88-.68-.68-1.91.82-2.96,2.89-2.67,4.92.04.27.38.41.62.35,1.85-.47,3.16-2.2,3.14-4.1,0-.52-.66-.65-.93-.25-.58.84-1.16,1.67-1.74,2.51l.91.39c.28-1.23-.09-2.48-1.04-3.32-.26-.23-.76-.17-.84.22-.19.99-.38,1.98-.57,2.97l.91-.12c-.46-.92-.92-1.83-1.38-2.75l-.86.5c.68,1.2,1.36,2.41,2.04,3.61l.86-.5-2.78-4.14c-.29-.44-1.13-.17-.91.39,1.27,3.25,2.22,6.61,2.82,10.04l.96-.27c-1.45-3.57-2.69-7.22-3.69-10.94l-.91.39c1.62,3.26,3.03,6.62,4.22,10.07l.91-.39c-1.87-3.36-3.53-6.82-4.96-10.39l-.84.49c1.76,2.1,3.38,4.29,4.89,6.57l.86-.5c-1.26-1.85-2.51-3.7-3.77-5.55l-.68.68c1.25.86,2.35,1.88,3.31,3.06l.71-.71c-1.16-1.37-2.22-2.8-3.19-4.31l-.79.61,2.76,3.42c.35.44,1.12-.15.79-.61l-2.86-3.95c-.37-.51-1.2-.06-.86.5,1.05,1.75,2.1,3.5,3.15,5.25l.79-.61-2.76-3.02c-.43-.48-1.14.23-.71.71l2.76,3.02c.38.42,1.08-.12.79-.61-1.05-1.75-2.1-3.5-3.15-5.25l-.86.5,2.86,3.95.79-.61-2.76-3.42c-.36-.44-1.09.13-.79.61,1.01,1.58,2.13,3.09,3.34,4.52.42.49,1.11-.21.71-.71-1.01-1.24-2.19-2.31-3.51-3.22-.41-.28-.96.28-.68.68l3.77,5.55c.36.53,1.22.04.86-.5-1.55-2.35-3.23-4.61-5.04-6.77-.31-.37-1.02.03-.84.49,1.47,3.64,3.16,7.19,5.07,10.63.27.49,1.1.16.91-.39-1.22-3.52-2.66-6.97-4.32-10.31-.26-.52-1.06-.15-.91.39,1.01,3.72,2.24,7.37,3.69,10.94.24.59,1.08.38.96-.27-.61-3.43-1.55-6.79-2.82-10.04l-.91.39,2.78,4.14c.36.53,1.18.06.86-.5-.68-1.2-1.36-2.41-2.04-3.61-.32-.56-1.15-.07-.86.5.46.92.92,1.83,1.38,2.75.19.37.83.3.91-.12.19-.99.38-1.98.57-2.97l-.84.22c.68.6.99,1.45.79,2.35-.13.57.59.85.91.39.58-.84,1.16-1.67,1.74-2.51l-.93-.25c.02,1.47-.98,2.77-2.41,3.14l.62.35c-.24-1.61.74-3.16,2.21-3.79l-.68-.68c-1.1,2.23-2.66,4.16-4.61,5.71l.79.61c1.63-2.32,4.07-3.96,6.83-4.64l-.56-.73c-1.05,1.87-2.74,3.27-4.79,3.92l.56.73c1.04-2.45,2.86-4.43,5.22-5.66l-.75-.43c-.17,1.77-1.39,3.34-3.06,3.95l.62.62c.36-1.19,1.24-2.17,2.41-2.61l-.56-.73c-.84,1.45-1.74,2.85-2.71,4.21-.33.47.4,1.01.79.61.61-.64,1.21-1.28,1.82-1.91l-.84-.49c-.65,2.82-.85,5.72-.57,8.6l.93-.25c-1.24-2.36-2.22-4.83-2.93-7.39l-.91.39c3.41,5.68,6.88,11.42,11.58,16.15.41.41,1.04-.11.79-.61-1.31-2.57-2.83-5.03-4.53-7.37-.37-.51-1.21-.06-.86.5,2.3,3.78,4.88,7.39,7.71,10.79l.61-.79c-5.97-4.21-8.39-11.46-10.55-18.1-.17-.51-1.01-.46-.98.13.18,3.8,1.46,7.49,3.73,10.56.31.42,1.12.2.91-.39-1.22-3.47-2.45-6.93-3.67-10.4-.2-.56-.91-.42-.98.13-.44,3.32.13,6.68,1.57,9.69.26.54,1.02.14.91-.39-.61-3.05-1.45-6.05-2.54-8.97-.19-.52-.95-.45-.98.13-.11,1.83.05,3.66.47,5.45.11.46.88.49.96,0,.66-3.72,1.78-7.35,3.34-10.8.27-.59-.49-1.03-.86-.5-1.76,2.48-3.13,5.2-4.1,8.09l.96.27c.39-1.86.79-3.72,1.18-5.57.12-.56-.59-.85-.91-.39-1.7,2.47-2.87,5.26-3.42,8.21-.12.62.82.9.96.27,1.13-4.79,3.91-9.12,7.85-12.08.51-.38.02-1.24-.5-.86-1.39,1.01-3.15.84-4.74.51-1.75-.35-3.52-.8-5.3-.34-.51.14-.43.8,0,.96,1.78.69,3.62,1.13,5.52,1.33v-1c-3.47-.14-6.77-1.96-8.73-4.83l-.79.61c1.86,2.12,3.91,4.06,6.13,5.8.5.39,1.14-.21.71-.71-1.72-1.95-3.61-3.74-5.64-5.36-.4-.32-1.15.1-.79.61,1.59,2.19,3.33,4.26,5.22,6.19.45.47,1.13-.23.71-.71-1.79-2.05-3.72-3.97-5.78-5.75-.44-.38-1.02.09-.79.61,1.42,3.17,3,6.26,4.74,9.28.32.56,1.17.06.86-.5-1.58-2.92-3.35-5.73-5.3-8.42-.32-.44-1.07-.2-.91.39,1.26,4.8,3.18,9.42,5.7,13.7.33.57,1.12.07.86-.5-2.25-5.08-4.49-10.16-6.74-15.24-.23-.52-1.09-.15-.91.39,1.5,4.44,3.04,8.93,5.7,12.83.3.45,1.09.19.91-.39-1.88-6.12-3.76-12.24-5.64-18.35-.19-.62-1.1-.36-.96.27.71,3.22,1.43,6.44,2.14,9.65.12.54,1.03.43.98-.13-.32-3.88-.92-7.73-1.8-11.52-.13-.54-1.04-.44-.98.13.38,3.8.77,7.61,1.15,11.41l.98-.13c-.63-3.6-1.26-7.19-1.89-10.79-.07-.42-.73-.49-.91-.12-.76,1.51-.81,3.18-.76,4.84.07,2,.15,3.99.22,5.99l.98-.13c-.72-2.66-1.24-5.36-1.53-8.1-.06-.54-.81-.71-.98-.13-.66,2.28-1.33,4.56-1.99,6.84l.98.13c-.29-3.34,1.24-6.39,2.73-9.28.22-.43-.24-.96-.68-.68-1.71,1.05-3.24,2.35-4.54,3.89-.35.42.09,1.09.61.79,3.43-1.99,5.69-5.33,7.83-8.57l-.86-.5c-1.88,3.45-3.76,6.89-5.64,10.34l.86.5c1.7-3.13,3.39-6.27,5.09-9.4l-.93-.25c.12,2.61-2.22,4.3-4.46,5-2.55.8-5.32,1.1-7.95,1.5-.55.08-.43,1.03.13.98,1.65-.15,3.32-.13,4.96.1l.13-.98c-2.73-.15-5.42-.62-8.04-1.42-.54-.17-.88.63-.39.91,1.84,1.06,3.69,2.11,5.53,3.17l.5-.86c-2.07-1.17-4.14-2.33-6.21-3.5-.41-.23-.99.26-.68.68,1.49,2.07,3.08,4.05,4.78,5.95.37.42,1.13-.14.79-.61-1.92-2.6-3.97-5.08-6.17-7.45-.39-.42-1.06.12-.79.61,1,1.76,2.22,3.37,3.66,4.8.39.39,1.13-.14.79-.61-2.01-2.7-4.34-5.13-6.97-7.25-.4-.32-1.15.11-.79.61,1.7,2.31,3.41,4.63,5.11,6.94l.79-.61c-1.75-1.49-3.03-3.4-4.28-5.31-.35-.53-1.2-.05-.86.5,1.53,2.52,3.07,5.03,4.6,7.55l.86-.5c-1.14-1.66-2.28-3.31-3.42-4.97-.37-.54-1.12-.08-.86.5.96,2.16,1.72,4.4,2.29,6.7l.91-.39c-.77-1.17-1.55-2.35-2.32-3.52-.31-.47-1.05-.18-.91.39.9,3.72-1.17,7.76-4.66,9.28l.61.79c.95-.77,1.89-1.53,2.84-2.3l-.71-.71c-2.54,2.72-5.5,4.99-8.78,6.74-.45.24-.22.92.25.93,4.02.13,8.29.32,11.72,2.67l.39-.91c-5.57-1.61-11.28-3.23-17.14-2.91-.46.03-.72.69-.25.93,1.39.71,2.93-.16,4.18-.81,1.35-.69,2.62-1.53,3.8-2.47,2.39-1.9,4.38-4.29,5.84-6.97.31-.57-.53-1.06-.86-.5-.77,1.27-1.53,2.53-2.3,3.8l.86.5c.99-1.78,1.98-3.56,2.97-5.33l-.86-.5c-.95,1.82-1.69,3.73-2.21,5.71-.17.63.74.86.96.27.89-2.37,1.94-4.67,3.13-6.9.3-.57-.55-1.07-.86-.5-1.11,1.98-2,4.08-2.66,6.25-.19.62.76.87.96.27.77-2.34,1.61-4.65,2.51-6.94.21-.53-.65-.88-.91-.39-1.05,1.96-1.5,4.17-1.26,6.39.06.54.81.71.98.13.95-3.24,1.38-6.61,1.26-9.99-.02-.56-.82-.68-.98-.13-.8,2.72-.91,5.58-.31,8.35.1.47.87.48.96,0,.6-3.21.54-6.49-.19-9.67-.14-.59-.92-.39-.98.13-.39,3.35.16,6.72,1.53,9.8.21.46.95.22.93-.25-.12-3.55-.53-7.08-1.25-10.56l-.91.39c.71,1.36,1.42,2.71,2.14,4.07.3.58,1.12.07.86-.5-.91-2.06-1.94-4.06-3.08-6.01-.33-.56-1.13-.07-.86.5,1.29,2.79,2.42,5.64,3.4,8.56l.96-.27c-1.21-3.11-2.41-6.22-3.62-9.33-.23-.59-1.14-.37-.96.27,1.16,4.27,2.84,8.39,5.01,12.25.27.49,1.08.16.91-.39-.78-2.52-1.65-5-2.62-7.46-.23-.59-1.2-.33-.96.27h0Z"/>
  <path class="cls-2" d="M50.21,47.89c1.97,4.27,3.87,8.57,5.7,12.89l.86-.5c-2.22-4.65-4.46-9.3-7.23-13.64-.29-.46-1.1-.18-.91.39,1.46,4.36,2.91,8.72,4.37,13.09l.91-.39c-2.53-4.19-4.19-8.84-4.9-13.68l-.91.39c1.7,3.33,3.13,6.8,4.27,10.36l.96-.27c-.56-1.55-1.24-3.04-2.09-4.46-.43-.72-.88-1.44-1.4-2.1-.37-.47-.87-.81-1.49-.66s-1.11.73-1.52,1.21-.79,1.03-1.18,1.56c-.82,1.14-1.67,2.27-2.97,2.89l.75.43c.08-1.03.16-2.06.24-3.09.03-.37-.45-.64-.75-.43-2.67,1.85-5.34,3.7-8.02,5.54-.46.32-.18,1.04.39.91,4.51-1.01,9.01-2.52,12.82-5.19.82-.58,1.8-1.2,2.23-2.15.34-.74.17-1.64-.56-2.08-1.52-.92-3.59.5-4.76,1.41-1.82,1.41-3.19,3.32-3.97,5.49-.14.39.39.82.73.56,3.25-2.42,5.6-5.86,6.62-9.79.11-.43-.35-.77-.73-.56-1.45.76-2.25,2.25-2.89,3.69-.76,1.72-1.3,3.52-1.61,5.37-.06.35.22.74.62.62.75-.24,1.25-.79,1.63-1.46.48-.84.86-1.74,1.26-2.62.87-1.92,1.67-3.88,2.39-5.86l-.96-.27c-.93,3.93-1.28,7.98-1.01,12.01.04.64.95.64,1,0,.24-3.29-.05-6.59-.84-9.79-.13-.55-.99-.43-.98.13.07,3.67.57,7.31,1.48,10.87l.91-.39c-.76-1.49-2.09-2.77-3.76-3.15-1.58-.36-3.33.13-4.37,1.39-.17.21-.21.5,0,.71,1.22,1.21,2.79,1.9,4.5,1.99.52.03.64-.68.25-.93-1.68-1.11-3.64-1.69-5.65-1.69-.42,0-.68.56-.35.85,1.44,1.31,3.16,2.22,5.06,2.64.55.12.88-.61.39-.91-2.06-1.27-4.4-1.96-6.81-2.02-.6-.02-.63.79-.13.98,3.62,1.44,7.38,2.46,11.23,3.04.53.08.91-.6.39-.91-1.9-1.12-3.83-2.19-5.78-3.22-.59-.31-1,.48-.5.86,2.95,2.28,5.95,4.48,9.01,6.6l.5-.86c-2.11-1.41-4.22-2.83-6.33-4.24-.54-.36-1.02.49-.5.86,2.12,1.54,4.11,3.25,5.96,5.11l.61-.79c-2.45-1.87-5.01-3.6-7.66-5.17l-.5.86c4.91,2.78,10.15,5.8,12.88,10.96.31.58,1.13.07.86-.5-.96-2.06-1.97-4.09-3.02-6.1l-.86.5c1.62,2.63,3.09,5.36,4.4,8.16l.86-.5c-1.94-2.72-3.88-5.45-5.82-8.17-.37-.52-1.19-.07-.86.5,1.69,3,3.21,6.09,4.54,9.27l.91-.39c-1.73-2.98-3.36-6.02-4.89-9.1l-.86.5c2.3,4.05,4.62,8.18,5.45,12.81l.96-.27c-.72-2.25-1.12-4.58-1.17-6.94l-.98.13c.65,3.29,1.13,6.61,1.42,9.95l.98-.13c-.84-2.65-.78-5.43-.69-8.18h-1c-.06,2.51-.11,5.02-.17,7.53l.98-.13c-.44-2.76-.89-5.53-1.33-8.29l-.96.27c.82,4.29,1.62,8.65,1.08,13.04-.08.61.79.61.98.13,1.26-3.1,2.34-6.27,3.26-9.49l-.96-.27c-.38,1.48-.86,2.92-1.45,4.33-.22.54.63.85.91.39,1.99-3.25,4.21-6.36,6.65-9.29.4-.49-.26-1.19-.71-.71-1.8,1.94-3.45,3.99-4.96,6.16l.86.5c2.03-3.33,5.14-5.93,8.8-7.31l-.39-.91c-3.75,1.99-7.72,4.26-9.74,8.18-.29.57.52,1.05.86.5,1.09-1.74,2.55-3.22,4.21-4.42s3.43-2.26,5.32-2.91c2.33-.8,4.53-.11,6.79.6s4.6,1.56,6.85,2.47c.54.22.85-.63.39-.91-2.77-1.74-5.8-3.31-9.1-3.7-.78-.09-1.57-.11-2.35-.04-.37.03-.73.08-1.09.15-.21.04-.95.34-1.16.22s-.02-.93,0-1.14c.05-.48.1-.96.17-1.44.13-.97.31-1.92.51-2.88l-.62.35c1.36.48,2.33,1.62,3.29,2.64s1.94,1.95,3.26,2.44c.33.12.76-.27.62-.62-.8-1.89-1.8-3.65-3.04-5.29-.38-.5-1.24-.03-.86.5,1.66,2.39,3.57,4.59,5.7,6.57.4.38,1.09-.11.79-.61-1.1-1.77-2.34-3.44-3.71-5-.37-.43-1.09.13-.79.61,1.22,1.92,2.59,3.74,4.08,5.46.37.43,1.09-.13.79-.61-.91-1.42-1.81-2.83-2.72-4.25l-.79.61c1.56,1.72,3.05,3.49,4.49,5.31l.71-.71c-2.79-3.36-5.77-6.58-8.9-9.62-.36-.35-.96,0-.84.49.64,2.53,2.11,4.71,4.18,6.29.34.26.88-.17.73-.56-.84-2.33-1.86-4.6-3.06-6.78-.31-.57-1.14-.07-.86.5,1.1,2.27,2.2,4.54,3.3,6.81l.86-.5c-.93-1.26-1.86-2.52-2.78-3.78-.23-.31-.83-.35-.91.12-.23,1.23-.13,2.46.33,3.62.24.59,1.09.38.96-.27-.24-1.21-.34-2.43-.31-3.67l-.98.13c.25,1.01.36,2.03.35,3.07,0,.66.93.63,1,0l.1-.93-.98.13.65,1.78c.19.51.97.46.98-.13.01-.75-.11-1.47-.38-2.17-.2-.52-.94-.45-.98.13l-.16,2.34.98-.13c-.21-.59-.48-1.13-.84-1.63-.21-.29-.67-.35-.86,0-.24.42-.35.85-.33,1.34h1c-.02-.33,0-.62.09-.95l-.91.12c.16.35.33.71.49,1.06.12.25.46.29.68.18.13-.06.23-.02.28.12.23.42.98.25.93-.25-.11-1.1-.27-2.2-.5-3.28-.11-.56-.99-.42-.98.13.02,1.44.03,2.89.05,4.33l.98-.13c-.21-1.49-.75-2.9-1.6-4.15-.19-.28-.7-.37-.86,0-.32.72-.4,1.42-.21,2.19.14.58.94.4.98-.13.06-.78.13-1.56.19-2.34h-1c.05,1.01.3,1.96.75,2.87.23.48.91.21.93-.25.07-1.29-.17-2.53-.69-3.71-.17-.39-.84-.29-.91.12-.19,1-.28,2-.26,3.02l.98-.13c-.19-.72-.38-1.43-.57-2.15-.13-.47-.84-.48-.96,0-.24.93-.32,1.88-.23,2.83.06.63.96.65,1,0,.08-1.52-.12-3.03-.6-4.47-.14-.42-.88-.53-.96,0-.21,1.3-.42,2.6-.63,3.9l.98.13c.08-1.25.02-2.49-.15-3.73-.08-.55-.81-.39-.96,0-.46,1.15-.74,2.35-.85,3.59-.05.57.84.67.98.13.66-2.47.96-5.01.89-7.57-.01-.45-.72-.74-.93-.25-.9,2.11-1.59,4.29-2.06,6.53l.98.13c.16-2.19.13-4.38-.08-6.57-.05-.51-.63-.65-.93-.25-1.82,2.4-2.89,5.26-3.13,8.26-.04.56.87.68.98.13.65-3.12,1.11-6.28,1.38-9.46.04-.48-.73-.7-.93-.25-1.32,3.02-2.25,6.17-2.74,9.43l.98.13c.23-1.91.45-3.83.68-5.74.11-.92.24-1.83.32-2.75.06-.71-.02-1.35-.49-1.9-.22-.25-.63-.15-.79.1-1.65,2.66-2.73,5.63-3.15,8.73l.98.13c0-2.24-.01-4.49-.02-6.73,0-1.06,0-2.11,0-3.17-.02-.95-.13-1.86-.58-2.71-.22-.41-.77-.26-.91.12-1.21,3.22-1.27,6.7-1.29,10.1h1c-.12-3.63-.47-7.25-1.03-10.83-.09-.6-.93-.38-.98.13-.44,3.94-.21,7.91.67,11.77.12.54,1.02.43.98-.13-.18-2.42-.5-4.84-.99-7.22-.43-2.11-.88-4.33-2.3-6.02-.26-.31-.72-.1-.84.22-1.35,3.9.42,7.95,0,11.92l.98-.13c-1.67-4.42-3.33-8.84-4.97-13.27-.22-.6-1.12-.37-.96.27,1.27,5.31,3.34,10.36,5.41,15.4l.91-.39c-2.01-4.55-4.03-9.1-6.04-13.64-.26-.59-1.12-.08-.86.5,2.01,4.55,4.03,9.1,6.04,13.64.23.51,1.13.14.91-.39-2.07-5.03-4.14-10.09-5.41-15.4l-.96.27c1.65,4.43,3.31,8.85,4.97,13.27.2.54.92.44.98-.13.41-3.87-1.35-7.87-.04-11.66l-.84.22c1.33,1.59,1.69,3.84,2.09,5.82.45,2.22.74,4.46.91,6.72l.98-.13c-.85-3.78-1.06-7.66-.63-11.51l-.98.13c.55,3.5.88,7.03,1,10.57.02.64,1,.65,1,0,.02-3.32.07-6.69,1.25-9.84l-.91.12c.45.85.44,1.81.45,2.75,0,1.04,0,2.08,0,3.12,0,2.08,0,4.16.01,6.24,0,.54.9.71.98.13.41-3.02,1.44-5.9,3.05-8.49l-.79.1c.44.52.16,1.5.09,2.11l-.3,2.57c-.2,1.67-.39,3.34-.59,5.01-.07.55.9.69.98.13.48-3.16,1.35-6.26,2.64-9.19l-.93-.25c-.26,3.09-.71,6.16-1.34,9.2l.98.13c.22-2.83,1.27-5.5,2.99-7.75l-.93-.25c.22,2.18.24,4.38.08,6.57-.04.56.87.68.98.13.45-2.16,1.09-4.27,1.96-6.3l-.93-.25c.07,2.47-.22,4.91-.86,7.3l.98.13c.11-1.15.39-2.25.82-3.32h-.96c.16,1.15.19,2.31.12,3.46-.04.55.89.69.98.13.21-1.3.42-2.6.63-3.9h-.96c.46,1.37.65,2.77.57,4.2h1c-.08-.87-.02-1.72.19-2.57h-.96c.19.72.38,1.43.57,2.15.14.54.99.44.98-.13-.02-.93.05-1.84.22-2.76l-.91.12c.45,1.02.62,2.1.55,3.21l.93-.25c-.37-.75-.57-1.53-.61-2.36-.03-.65-.95-.64-1,0-.06.78-.13,1.56-.19,2.34l.98-.13c-.12-.48-.1-.96.11-1.42h-.86c.8,1.19,1.3,2.49,1.5,3.91.08.56.99.42.98-.13-.02-1.44-.03-2.89-.05-4.33l-.98.13c.21,1,.36,2,.46,3.02l.93-.25c-.33-.62-1.04-.79-1.65-.48l.68.18c-.16-.35-.33-.71-.49-1.06-.19-.41-.8-.27-.91.12s-.16.79-.13,1.21c.05.64,1.03.65,1,0-.01-.32.04-.56.19-.84h-.86c.31.44.56.88.74,1.39.19.54.94.44.98-.13l.16-2.34-.98.13c.24.62.36,1.24.35,1.91l.98-.13-.65-1.78c-.2-.55-.92-.43-.98.13l-.1.93h1c.02-1.13-.11-2.24-.38-3.34-.14-.56-.97-.42-.98.13-.03,1.32.09,2.64.35,3.94l.96-.27c-.4-1-.53-2.03-.33-3.09l-.91.12c.93,1.26,1.86,2.52,2.78,3.78.38.51,1.15.08.86-.5-1.1-2.27-2.2-4.54-3.3-6.81l-.86.5c1.15,2.1,2.14,4.28,2.96,6.54l.73-.56c-1.85-1.42-3.15-3.44-3.72-5.69l-.84.49c3.14,3.05,6.11,6.26,8.9,9.62.42.5,1.1-.21.71-.71-1.44-1.82-2.93-3.59-4.49-5.31-.38-.42-1.09.13-.79.61.91,1.42,1.81,2.83,2.72,4.25l.79-.61c-1.43-1.66-2.74-3.41-3.92-5.26l-.79.61c1.32,1.5,2.5,3.1,3.55,4.8l.79-.61c-2.07-1.92-3.93-4.05-5.54-6.37l-.86.5c1.18,1.56,2.18,3.25,2.94,5.05l.62-.62c-1.35-.5-2.31-1.65-3.28-2.67s-1.95-1.94-3.27-2.41c-.24-.09-.56.1-.62.35-.22,1.03-.41,2.07-.55,3.12-.11.84-.35,1.83-.23,2.68.1.68.67.96,1.31.92.85-.06,1.67-.36,2.54-.4,3.77-.15,7.31,1.7,10.41,3.64l.39-.91c-2.4-.97-4.84-1.85-7.31-2.61-1.19-.37-2.38-.74-3.62-.86-1.18-.12-2.33.08-3.44.48-3.9,1.44-7.7,4.16-9.92,7.71l.86.5c1.94-3.76,5.78-5.91,9.38-7.82.49-.26.15-1.12-.39-.91-3.9,1.47-7.22,4.21-9.39,7.77-.34.56.5,1.03.86.5,1.46-2.1,3.06-4.09,4.8-5.96l-.71-.71c-2.49,3-4.77,6.17-6.81,9.5l.91.39c.59-1.41,1.07-2.85,1.45-4.33.16-.62-.79-.89-.96-.27-.91,3.22-2,6.38-3.26,9.49l.98.13c.55-4.47-.28-8.92-1.12-13.3-.12-.64-1.06-.36-.96.27.44,2.76.89,5.53,1.33,8.29.09.57.97.41.98-.13.06-2.51.11-5.02.17-7.53.01-.64-.98-.64-1,0-.09,2.83-.14,5.71.73,8.44.16.51,1.03.45.98-.13-.3-3.43-.78-6.84-1.45-10.22-.11-.56-.99-.42-.98.13.05,2.45.45,4.88,1.2,7.21.2.62,1.08.36.96-.27-.85-4.71-3.22-8.94-5.55-13.05-.32-.56-1.15-.07-.86.5,1.53,3.09,3.16,6.12,4.89,9.1.27.47,1.14.15.91-.39-1.37-3.26-2.91-6.43-4.64-9.51l-.86.5c1.94,2.72,3.88,5.45,5.82,8.17.37.53,1.14.08.86-.5-1.31-2.8-2.78-5.52-4.4-8.16-.34-.55-1.16-.07-.86.5,1.05,2.01,2.06,4.05,3.02,6.1l.86-.5c-2.81-5.31-8.19-8.46-13.24-11.32-.56-.32-1.06.53-.5.86,2.65,1.58,5.2,3.3,7.66,5.17.46.35,1-.39.61-.79-1.91-1.92-3.97-3.67-6.16-5.26l-.5.86c2.11,1.41,4.22,2.83,6.33,4.24.54.36,1.03-.5.5-.86-3.06-2.13-6.06-4.33-9.01-6.6l-.5.86c1.95,1.02,3.88,2.1,5.78,3.22l.39-.91c-3.85-.58-7.61-1.6-11.23-3.04l-.13.98c2.25.06,4.4.7,6.31,1.88l.39-.91c-1.73-.39-3.31-1.19-4.62-2.39l-.35.85c1.85,0,3.61.54,5.15,1.56l.25-.93c-1.44-.08-2.77-.68-3.79-1.69v.71c.86-1.04,2.27-1.44,3.57-1.09s2.36,1.43,2.98,2.64c.26.51,1.05.15.91-.39-.89-3.47-1.37-7.02-1.44-10.6l-.98.13c.77,3.12,1.04,6.32.8,9.52h1c-.26-3.95.06-7.9.97-11.75.15-.63-.75-.86-.96-.27-.64,1.75-1.34,3.48-2.1,5.19-.36.8-.72,1.59-1.11,2.38-.31.64-.64,1.45-1.38,1.68l.62.62c.28-1.66.73-3.28,1.38-4.83.58-1.38,1.27-2.91,2.66-3.64l-.73-.56c-.96,3.66-3.13,6.93-6.16,9.19l.73.56c.58-1.61,1.53-3.07,2.78-4.25.61-.58,1.28-1.08,2.01-1.5.61-.35,1.33-.75,2.07-.67,1.18.14.4,1.31-.12,1.76-.73.64-1.58,1.19-2.41,1.69-1.61.99-3.33,1.8-5.1,2.46-2.03.76-4.11,1.33-6.22,1.8l.39.91c2.67-1.85,5.34-3.7,8.02-5.54l-.75-.43c-.08,1.03-.16,2.06-.24,3.09-.03.41.44.58.75.43,2.11-1.01,3.1-3.2,4.58-4.88.21-.24.45-.57.78-.63.39-.07.59.36.79.65.41.58.79,1.17,1.15,1.78.75,1.28,1.37,2.63,1.87,4.03.21.6,1.16.35.96-.27-1.17-3.65-2.63-7.19-4.37-10.6-.28-.55-.99-.13-.91.39.73,4.92,2.44,9.66,5,13.92.28.47,1.1.17.91-.39-1.46-4.36-2.91-8.72-4.37-13.09l-.91.39c2.78,4.34,5.01,9,7.23,13.64.28.59,1.11.07.86-.5-1.83-4.33-3.73-8.63-5.7-12.89-.27-.58-1.13-.08-.86.5h0Z"/>
  <path class="cls-2" d="M75.06,64.03c1.03,2.37,2.4,4.55,4.04,6.54l.71-.71c-1.56-1.78-3.12-3.56-4.68-5.34-.35-.4-.93.04-.84.49.25,1.22.78,2.31,1.54,3.29.38.48,1-.13.79-.61l-.7-1.55-.86.5,1.27,2.37.68-.68c-.59-.34-1.12-.74-1.61-1.21-.23-.21-.63-.19-.79.1-.25.47-.31.95-.13,1.45l.91-.39c-.36-.56-.77-1.05-1.27-1.49-.24-.21-.62-.19-.79.1-.25.44-.37.88-.39,1.38l.98-.13c-.16-.47-.39-.86-.76-1.19-.32-.29-.85-.09-.85.35l-.02,1.11.98-.13c-.11-.75-.46-1.4-.99-1.93-.22-.22-.63-.18-.79.1-.36.67-.63,1.37-.82,2.1l.96.27c.11-.84.1-1.65-.05-2.49-.1-.54-.8-.4-.96,0-.29.72-.59,1.43-.88,2.15l.96.27c.18-.98.18-1.94-.03-2.93-.08-.39-.58-.46-.84-.22-1.18,1.09-2.04,2.44-2.55,3.97-.14.43.37.76.73.56.64-.35,1.27-.7,1.91-1.05.27-.15,1.83-1.2,1.99-.68l.48-.63c-.64-.03-1.26.06-1.87.26-.46.16-.49.82,0,.96.99.3,1.98.21,2.92-.23.34-.16.31-.69,0-.86-.9-.5-1.88-.38-2.85-.2-1.14.21-2.23.58-3.28,1.04l.5.86c1.13-.72,2.08-1.61,2.9-2.67.31-.4-.29-.95-.68-.68-3.08,2.08-5.66,4.74-8.22,7.4l.84.49c.08-.54.15-1.07.23-1.61.06-.42-.48-.93-.84-.49-1.46,1.85-2.72,3.82-3.77,5.92l.91.39c.67-2.31,1.45-4.59,2.32-6.84l-.96-.27c-.87,2.56-1.61,5.16-2.22,7.79l.98.13c.44-3.59,1.13-7.15,2.05-10.65.17-.63-.75-.87-.96-.27-.89,2.53-1.12,5.2-1.32,7.85h1c-.03-3.41.18-6.81.61-10.19.05-.36-.47-.65-.75-.43-.52.39-.68.9-.84,1.5-.24.91-.48,1.83-.71,2.75-.45,1.8-.89,3.6-1.31,5.4l.98.13c.11-2.49.56-4.93,1.33-7.29l-.98-.13c-.16,2.77-.31,5.55.03,8.32.07.52.82.72.98.13.65-2.38.97-4.84.97-7.31,0-.58-.8-.66-.98-.13-.76,2.2-1.25,4.47-1.51,6.78h1c.07-1.51.31-2.99.72-4.45.34-1.2.73-2.98,1.87-3.67l-.68-.18c.31.46.07,1.12-.03,1.63-.1.56-.22,1.13-.33,1.69-.23,1.12-.5,2.24-.78,3.35-.16.63.77.88.96.27,1.02-3.23,2.46-6.29,4.3-9.13l-.86-.5c-1.63,3.09-3.05,6.28-4.27,9.55-.21.57.6.8.91.39,2.28-3.08,4.56-6.15,6.84-9.23l-.86-.5c-1.93,2.88-3.86,5.76-5.79,8.64-.31.46.43,1.05.79.61,2.69-3.39,5.69-6.51,8.96-9.34.49-.42-.22-1.13-.71-.71-2.9,2.5-5.59,5.23-8.05,8.17-.41.49.28,1.2.71.71,2.71-3.15,5.64-6.09,8.76-8.82l-.71-.71c-2.71,2.56-5.11,5.42-7.17,8.52-.31.47.4,1.02.79.61,2.56-2.72,5.28-5.27,8.15-7.65l-.71-.71-3.78,3.24c-1.16,1-2.31,2.01-3.7,2.69l.73.56c1.75-4.22,5.9-6.79,8.1-10.74.28-.51-.36-.98-.79-.61-3.68,3.25-6.93,6.95-9.68,11.02-.31.46.43,1.06.79.61,2.86-3.67,5.63-7.4,8.32-11.19.34-.47-.39-.99-.79-.61-3.39,3.3-6.16,7.15-8.88,11l.86.5c2.32-3.93,4.76-7.79,7.31-11.58.28-.42-.27-.94-.68-.68-1.82,1.13-3.02,3.2-4.24,4.91-1.42,2-2.77,4.04-4.07,6.12l.91.39c.2-1.21.43-2.41.6-3.62.11-.78.09-1.63-.55-2.18-.49-.42-1.2.29-.71.71.56.48.27,1.43.16,2.04-.15.93-.31,1.86-.46,2.79-.09.54.6.89.91.39,1.21-1.94,2.48-3.86,3.8-5.73.64-.9,1.28-1.8,1.95-2.69s1.3-1.68,2.21-2.25l-.68-.68c-2.55,3.79-4.99,7.65-7.31,11.58-.33.56.5,1.02.86.5,2.67-3.79,5.4-7.55,8.72-10.8l-.79-.61c-2.64,3.72-5.36,7.39-8.17,10.99l.79.61c2.7-3.99,5.91-7.62,9.52-10.81l-.79-.61c-2.24,4.04-6.4,6.65-8.2,10.98-.18.44.39.73.73.56,1.39-.67,2.55-1.68,3.71-2.68,1.32-1.13,2.64-2.27,3.96-3.4.49-.42-.22-1.11-.71-.71-2.87,2.38-5.59,4.94-8.15,7.65l.79.61c2.01-3.03,4.36-5.82,7.01-8.32.47-.45-.23-1.13-.71-.71-3.13,2.73-6.05,5.68-8.76,8.82l.71.71c2.46-2.94,5.15-5.67,8.05-8.17l-.71-.71c-3.27,2.83-6.27,5.95-8.96,9.34l.79.61c1.93-2.88,3.86-5.76,5.79-8.64.36-.54-.49-1.01-.86-.5-2.28,3.08-4.56,6.15-6.84,9.23l.91.39c1.19-3.19,2.59-6.3,4.17-9.31.3-.57-.51-1.05-.86-.5-1.88,2.91-3.36,6.06-4.4,9.36l.96.27c.34-1.35.65-2.71.92-4.08.2-1,.73-2.43.11-3.36-.15-.22-.44-.33-.68-.18-1.3.79-1.78,2.46-2.2,3.84-.51,1.67-.79,3.4-.88,5.15-.03.65.93.63,1,0,.25-2.22.75-4.4,1.47-6.51l-.98-.13c0,2.39-.31,4.74-.93,7.04l.98.13c-.34-2.76-.19-5.54-.03-8.32.03-.58-.81-.65-.98-.13-.8,2.45-1.25,4.98-1.36,7.56-.02.56.85.68.98.13.36-1.56.74-3.12,1.13-4.68.19-.76.38-1.52.58-2.27.1-.4.21-.8.31-1.19.08-.29.13-.71.38-.91l-.75-.43c-.43,3.38-.63,6.78-.61,10.19,0,.65.95.63,1,0,.2-2.57.43-5.14,1.29-7.59l-.96-.27c-.94,3.59-1.63,7.24-2.09,10.92-.07.56.86.68.98.13.61-2.63,1.35-5.23,2.22-7.79.21-.62-.73-.85-.96-.27-.88,2.24-1.65,4.52-2.32,6.84-.15.53.66.9.91.39,1.01-2.02,2.21-3.95,3.61-5.72l-.84-.49c-.08.54-.15,1.07-.23,1.61-.06.45.45.88.84.49,2.5-2.6,5.02-5.22,8.02-7.25l-.68-.68c-.71.92-1.57,1.69-2.54,2.31-.55.36-.07,1.12.5.86.84-.37,1.72-.65,2.61-.85.8-.18,1.76-.41,2.52,0v-.86c-.69.32-1.42.35-2.15.13v.96c.54-.18,1.04-.26,1.61-.23.32.01.58-.33.48-.63-.29-.92-1.25-1.04-2.04-.68-1.14.52-2.22,1.21-3.32,1.81l.73.56c.45-1.37,1.24-2.55,2.29-3.53l-.84-.22c.17.8.18,1.59.03,2.39-.12.64.72.86.96.27.29-.72.59-1.43.88-2.15h-.96c.12.65.14,1.3.05,1.95-.08.62.8.91.96.27s.4-1.27.71-1.86l-.79.1c.42.42.65.9.73,1.49s.97.41.98-.13l.02-1.11-.85.35c.24.22.4.44.5.75.18.53.96.44.98-.13.01-.33.09-.59.25-.88l-.79.1c.44.38.8.8,1.11,1.28.29.45,1.12.17.91-.39-.09-.25-.1-.44.03-.68l-.79.1c.55.52,1.16.98,1.81,1.36.44.26.92-.25.68-.68l-1.27-2.37c-.31-.58-1.12-.07-.86.5l.7,1.55.79-.61c-.66-.84-1.07-1.81-1.28-2.85l-.84.49c1.56,1.78,3.12,3.56,4.68,5.34.43.49,1.11-.22.71-.71-1.59-1.92-2.89-4.05-3.89-6.33-.26-.59-1.12-.08-.86.5h0Z"/>
  <path class="cls-2" d="M50.54,54.62c1.16,3.98,2.8,7.8,4.87,11.39.33.57,1.13.07.86-.5-1.97-4.23-4.72-8.06-8.08-11.29-.23-.22-.62-.18-.79.1-.49.85.06,1.7.5,2.45.53.92,1.08,1.82,1.67,2.7,1.19,1.8,2.51,3.51,3.93,5.14.37.42,1.12-.14.79-.61-1.29-1.78-2.72-3.45-4.3-4.99-.79-.76-1.61-1.49-2.46-2.18-.59-.48-1.46-1.32-2.24-.73-.24.18-.3.41-.18.68.47,1.08,1.09,2.06,1.85,2.97.42.5,1.1-.21.71-.71-1.11-1.41-2.48-2.57-4.04-3.45-.29-.17-.81.04-.75.43.11.82.36,1.56.81,2.25l.79-.61c-.52-.66-1.14-1.21-1.85-1.65-.34-.21-.9.15-.73.56l.48,1.19.84-.49c-.41-.35-.76-.72-1.06-1.16-.36-.53-1.22-.04-.86.5.74,1.12,1.67,2.06,2.78,2.81.3.2.79-.06.75-.43-.15-1.68-.49-3.32-1.05-4.91-.21-.6-1.17-.35-.96.27.84,2.47,1.73,4.95,3.49,6.93.33.38.98-.02.84-.49-.87-2.84-1.73-5.71-1.96-8.68l-.98.13c1.2,3.19,2.42,6.41,4.39,9.22.31.44,1.08.19.91-.39-1.01-3.42-2.01-6.84-3.02-10.26l-.96.27c.6,1.66,1.2,3.33,1.87,4.97.54,1.34,1.11,2.71,2.19,3.72.34.32.81.07.85-.35.1-1.06-.18-2.08-.45-3.09s-.58-2-.87-3c-.59-2.06-1.1-4.14-1.09-6.29l-.93.25c.8,1.55,1.6,3.1,2.4,4.64.7,1.35,1.38,2.69,2.37,3.85.32.37,1-.02.84-.49-1.24-3.42-2.47-6.84-3.71-10.25l-.91.39c1.48,2.64,2.95,5.29,4.43,7.93.24.43.95.25.93-.25-.06-1.47-.73-2.79-1.31-4.11-.66-1.51-1.33-3.03-1.99-4.54l-.79.61c1.98,2.27,3.3,5,4.61,7.69.28.58,1.14.07.86-.5-1.34-2.78-2.72-5.55-4.76-7.89-.4-.46-1,.13-.79.61.6,1.36,1.2,2.72,1.79,4.09.57,1.29,1.32,2.63,1.38,4.06l.93-.25c-1.48-2.64-2.95-5.29-4.43-7.93-.27-.48-1.11-.16-.91.39,1.24,3.42,2.47,6.84,3.71,10.25l.84-.49c-.98-1.15-1.64-2.54-2.33-3.87-.76-1.47-1.53-2.95-2.29-4.42-.23-.45-.93-.23-.93.25-.02,2.08.43,4.12.99,6.11.28,1,.59,2,.87,3,.3,1.07.65,2.15.54,3.27l.85-.35c-1.06-1-1.58-2.4-2.11-3.72-.59-1.5-1.14-3.01-1.69-4.52-.22-.6-1.15-.36-.96.27,1.01,3.42,2.01,6.84,3.02,10.26l.91-.39c-1.92-2.74-3.12-5.86-4.28-8.98-.18-.49-1.03-.47-.98.13.23,3.07,1.1,6.02,1.99,8.95l.84-.49c-1.64-1.84-2.45-4.19-3.23-6.49l-.96.27c.52,1.51.87,3.06,1.01,4.65l.75-.43c-.97-.65-1.78-1.48-2.42-2.45l-.86.5c.35.51.75.96,1.22,1.36.34.28,1.04.02.84-.49l-.48-1.19-.73.56c.65.4,1.18.9,1.65,1.49.35.45,1.09-.13.79-.61-.35-.54-.59-1.11-.67-1.75l-.75.43c1.5.84,2.78,1.94,3.84,3.29l.71-.71c-.7-.84-1.26-1.76-1.69-2.76l-.18.68c.36-.27,1.84,1.25,2.12,1.49.69.6,1.35,1.23,1.99,1.88,1.28,1.3,2.45,2.69,3.52,4.17l.79-.61c-1.21-1.39-2.35-2.85-3.39-4.37-.51-.75-1-1.51-1.47-2.28-.22-.36-.43-.71-.63-1.07-.19-.34-.67-.95-.44-1.35l-.79.1c3.31,3.18,5.99,6.93,7.92,11.09l.86-.5c-2.03-3.51-3.63-7.25-4.77-11.15-.18-.62-1.15-.35-.96.27h0Z"/>
  <path class="cls-2" d="M54.3,53.05c.64,0,.64-1,0-1s-.64,1,0,1h0Z"/>
  <path class="cls-2" d="M52.08,48.8l-3.58-4.23c-.35-.41-.92.04-.84.49.43,2.24,1.56,4.26,2.14,6.46.14.55.25,1.11.28,1.68,0,.14.01.27.01.41,0,.14-.1.41.11.22.17-.15.04-.16-.1-.31-.1-.1-.19-.2-.29-.3-.8-.87-1.47-1.84-2.01-2.89l-.86.5c1.56,2.76,2.98,5.6,4.25,8.51l.86-.5c-1.52-3.21-2.86-6.51-4.01-9.88l-.96.27c1.53,3.72,3.45,7.26,5.76,10.55.37.53,1.13.08.86-.5-1.86-4.09-3.73-8.19-5.59-12.28-.21-.45-.96-.23-.93.25.09,1.35.63,2.57,1.15,3.79.6,1.4,1.25,2.77,1.91,4.15s1.29,2.67,1.91,4.01,1.44,2.82,1.48,4.37l.63-.48c-1.13-.37-2.08-1.52-2.96-2.29-1.01-.89-2.03-1.79-3.04-2.68-.49-.43-1.11.21-.71.71,1.37,1.68,2.85,3.25,4.44,4.73.3.28.7.13.84-.22.39-.98-.78-2.12-1.31-2.83-.76-1-1.57-1.95-2.43-2.87-.45-.47-1.11.22-.71.71,2.01,2.4,4.03,4.8,6.04,7.2l.71-.71c-2.11-1.98-4.22-3.95-6.33-5.93-.47-.44-1.14.23-.71.71,3.16,3.49,6.42,6.88,9.79,10.17.4.4,1.07-.11.79-.61-1.79-3.12-3.58-6.23-5.38-9.35l-.86.5c1.91,3.08,3.83,6.16,5.74,9.25l.86-.5c-2.99-4.21-5.29-8.84-7.56-13.45-.23-.47-.91-.21-.93.25-.04,1.14.52,2.14,1.04,3.11s1.1,1.97,1.71,2.93c1.23,1.95,2.61,3.8,4.1,5.55.37.43,1.08-.13.79-.61-2.25-3.59-4.68-7.15-7.97-9.87-.41-.34-1.11.09-.79.61,1.97,3.11,4.27,6,6.84,8.64.4.41,1.06-.11.79-.61-1.72-3.13-3.89-6-6.43-8.51-.41-.4-1.06.11-.79.61,1.99,3.66,4.8,6.77,7.85,9.57.33.31,1.03.01.84-.49-1.46-3.7-3.15-7.31-5.06-10.8-.26-.48-1.13-.15-.91.39,1.68,4.11,4.08,7.88,7.13,11.12.33.35,1.01-.01.84-.49-1.57-4.37-3.15-8.75-4.72-13.12-.22-.6-1.09-.37-.96.27.99,4.87,2.98,9.43,4.96,13.95l.86-.5c-1.12-1.78-2.24-3.57-3.4-5.33-.95-1.46-1.87-3.14-3.4-4.06-.32-.19-.76.05-.75.43.02,1.06.5,2,.96,2.94.51,1.03,1.08,2.03,1.68,3.01,1.17,1.9,2.51,3.69,3.99,5.36.34.38.97-.02.84-.49-1.03-3.54-2.69-6.87-4.91-9.82-.24-.32-.8-.33-.91.12-.25.96.51,1.98.93,2.79.49.94,1,1.86,1.54,2.77,1.12,1.89,2.34,3.71,3.65,5.46.31.41,1.14.19.91-.39-1.41-3.54-2.68-7.14-3.8-10.79-.19-.62-1.1-.36-.96.27.74,3.42,1.97,6.71,3.65,9.78.19.35.84.31.91-.12.55-3.46.54-7.94,3.84-10.09l-.75-.43c.19,1.65-.6,3.27-1.26,4.75s-1.37,2.86-2.17,4.23c-.29.49.38,1,.79.61,2.36-2.29,4.41-4.89,6.11-7.71.29-.48-.39-1.02-.79-.61-1.86,1.94-3.44,4.1-5.02,6.26l.91.39c1.5-3.58,3.91-6.68,6.28-9.71.39-.49-.27-1.2-.71-.71-2.45,2.72-4.51,5.76-6.13,9.04-.24.48.39,1.06.79.61,2.38-2.72,4.67-5.51,6.89-8.37.32-.41.02-.91-.49-.84-.87.12-1.43.81-1.96,1.44-.7.81-1.37,1.64-2.02,2.49-1.32,1.72-2.54,3.51-3.67,5.36-.29.47.42,1.05.79.61,2.59-3.18,5.18-6.36,7.77-9.54.4-.49-.24-1.17-.71-.71-1.62,1.61-3.24,3.22-4.86,4.83l-2.39,2.37-1.24,1.23c-.22.22-.93,1.17-1.24,1.04l.3.73c.5-1.09,1.24-2.03,1.96-2.98.78-1.02,1.55-2.04,2.33-3.06,1.58-2.08,3.16-4.15,4.74-6.23.34-.45-.41-1.03-.79-.61-3.24,3.63-6.11,7.56-8.58,11.75l.86.5c2.22-4.09,5.01-7.81,7.8-11.52.39-.52-.48-1.01-.86-.5-2.33,3.05-4.4,6.29-6.2,9.69-.31.58.49,1.02.86.5,2.2-3.05,4.54-6.01,7.01-8.85.42-.48-.26-1.18-.71-.71-2.87,2.98-5.31,6.35-7.25,10-.31.58.5,1.02.86.5,2.26-3.19,4.68-6.25,7.25-9.18.42-.48-.27-1.19-.71-.71-3.05,3.37-6.1,6.74-9.14,10.12l.79.61c2.05-4.37,5.51-7.87,7.58-12.23.22-.46-.22-.91-.68-.68-.9.45-1.5,1.25-2.08,2.04-.77,1.04-1.52,2.09-2.25,3.16-1.44,2.1-2.8,4.25-4.08,6.45l.86.5c2.11-4.23,4.5-8.32,7.14-12.24.37-.54-.49-1.01-.86-.5-2.54,3.44-4.68,7.16-6.81,10.87l.91.39c1.26-4.36,3.71-8.21,6.13-12l-.86-.5c-2.22,3.99-4.43,7.97-6.65,11.96l.91.39c.82-3.96,2.75-7.52,4.72-11.02l-.86-.5c-1.7,3.29-3.4,6.57-5.1,9.86l.91.39c1.15-4.53,3.24-8.72,5.33-12.87.29-.57-.57-1.08-.86-.5-2.18,4.32-4.05,8.79-5.59,13.38l.96.27c1.26-4.12,2.53-8.26,4.56-12.08l-.93-.25c.13,2.27.05,4.54-.27,6.79-.09.63.87.9.96.27.34-2.34.45-4.69.31-7.05-.03-.47-.69-.72-.93-.25-2.07,3.9-3.38,8.12-4.66,12.32-.19.62.76.87.96.27,1.51-4.51,3.34-8.9,5.49-13.14l-.86-.5c-2.13,4.23-4.27,8.5-5.43,13.11-.13.53.65.9.91.39,1.7-3.29,3.4-6.57,5.1-9.86.29-.57-.55-1.07-.86-.5-2,3.56-3.98,7.22-4.82,11.26-.11.53.63.9.91.39,2.22-3.99,4.43-7.97,6.65-11.96.31-.57-.52-1.05-.86-.5-2.47,3.87-4.95,7.8-6.23,12.24-.16.54.63.88.91.39,2.13-3.71,4.26-7.42,6.81-10.87l-.86-.5c-2.64,3.92-5.03,8.01-7.14,12.24-.29.57.54,1.07.86.5,1.2-2.06,2.47-4.09,3.81-6.07.66-.97,1.34-1.93,2.03-2.88.63-.86,1.23-1.85,2.21-2.34l-.68-.68c-2.07,4.35-5.53,7.86-7.58,12.23-.23.48.38,1.06.79.61,3.05-3.37,6.1-6.74,9.14-10.12l-.71-.71c-2.63,3-5.1,6.13-7.41,9.38l.86.5c1.9-3.58,4.29-6.88,7.1-9.8l-.71-.71c-2.52,2.91-4.91,5.93-7.16,9.06l.86.5c1.8-3.39,3.87-6.63,6.2-9.69l-.86-.5c-2.79,3.71-5.58,7.43-7.8,11.52-.31.57.54,1.06.86.5,2.43-4.12,5.25-7.98,8.43-11.55l-.79-.61c-1.58,2.08-3.16,4.15-4.74,6.23-.78,1.02-1.55,2.04-2.33,3.06-.72.95-1.46,1.89-1.96,2.98-.15.32-.02.61.3.73.95.38,1.82-.92,2.39-1.48l2.74-2.72c1.86-1.85,3.71-3.69,5.57-5.54l-.71-.71c-2.59,3.18-5.18,6.36-7.77,9.54l.79.61c1.01-1.65,2.09-3.26,3.26-4.81.59-.79,1.2-1.56,1.83-2.31.52-.62,1.11-1.58,1.96-1.7l-.49-.84c-2.21,2.86-4.51,5.65-6.89,8.37l.79.61c1.58-3.21,3.58-6.18,5.97-8.84l-.71-.71c-2.49,3.18-4.96,6.4-6.54,10.15-.24.56.61.8.91.39,1.53-2.1,3.07-4.19,4.86-6.06l-.79-.61c-1.65,2.76-3.65,5.27-5.95,7.51l.79.61c.87-1.51,1.66-3.06,2.35-4.66.65-1.52,1.4-3.13,1.21-4.83-.04-.35-.4-.66-.75-.43-3.59,2.34-3.69,6.89-4.3,10.69l.91-.12c-1.64-2.99-2.83-6.2-3.55-9.54l-.96.27c1.12,3.64,2.39,7.24,3.8,10.79l.91-.39c-1.18-1.57-2.28-3.2-3.3-4.88-.51-.84-1-1.69-1.47-2.56-.22-.4-.43-.8-.63-1.2s-.74-1.14-.62-1.62l-.91.12c2.17,2.88,3.8,6.12,4.81,9.58l.84-.49c-1.37-1.56-2.61-3.22-3.71-4.97-.53-.85-1.03-1.72-1.49-2.61-.49-.93-1.11-1.95-1.13-3.03l-.75.43c1.5.9,2.39,2.69,3.31,4.11,1.06,1.63,2.09,3.28,3.13,4.93.35.56,1.12.07.86-.5-1.95-4.45-3.89-8.93-4.86-13.72l-.96.27c1.57,4.37,3.15,8.75,4.72,13.12l.84-.49c-2.92-3.11-5.26-6.73-6.87-10.68l-.91.39c1.87,3.42,3.53,6.94,4.96,10.56l.84-.49c-2.99-2.75-5.74-5.78-7.69-9.37l-.79.61c2.49,2.46,4.59,5.25,6.27,8.31l.79-.61c-2.52-2.57-4.76-5.39-6.69-8.43l-.79.61c3.23,2.68,5.6,6.14,7.81,9.67l.79-.61c-1.39-1.63-2.67-3.35-3.82-5.15-.57-.89-1.11-1.79-1.61-2.72s-1.16-1.92-1.12-3.01l-.93.25c2.28,4.62,4.57,9.24,7.56,13.45.37.52,1.21.05.86-.5l-5.74-9.25c-.34-.55-1.19-.06-.86.5,1.79,3.12,3.58,6.23,5.38,9.35l.79-.61c-3.37-3.29-6.63-6.68-9.79-10.17l-.71.71c2.11,1.98,4.22,3.95,6.33,5.93.48.45,1.12-.22.71-.71-2.01-2.4-4.03-4.8-6.04-7.2l-.71.71c.67.72,1.32,1.45,1.93,2.23.3.38.59.77.88,1.17.22.31.83.93.67,1.32l.84-.22c-1.59-1.47-3.07-3.05-4.44-4.73l-.71.71c1.14,1,2.28,2.01,3.41,3.01.92.81,1.83,1.83,3.03,2.22.31.1.64-.17.63-.48-.03-1.39-.6-2.64-1.16-3.89-.62-1.39-1.29-2.76-1.94-4.13s-1.28-2.67-1.89-4.02-1.35-2.78-1.45-4.28l-.93.25c1.86,4.09,3.73,8.19,5.59,12.28l.86-.5c-2.25-3.22-4.16-6.68-5.66-10.31-.24-.58-1.18-.36-.96.27,1.18,3.45,2.55,6.82,4.11,10.11.28.59,1.12.07.86-.5-1.27-2.91-2.69-5.75-4.25-8.51-.32-.56-1.16-.06-.86.5.66,1.27,1.5,2.47,2.53,3.47.35.34.88.71,1.34.3.41-.36.29-1.14.25-1.61-.24-2.89-1.9-5.39-2.45-8.21l-.84.49,3.58,4.23c.42.49,1.12-.22.71-.71h0Z"/>
  <path class="cls-2" d="M64.08,49.64c.2-2.18.21-4.37.03-6.55l-.98.13c1.19,3.92,2.4,7.86,4.36,11.49.27.49,1.1.16.91-.39-1.39-4.09-2.78-8.19-4.17-12.28-.2-.6-1.16-.35-.96.27,1.31,4.2,2.29,8.5,2.93,12.85l.96-.27c-1.17-3.79-1.98-7.67-2.79-11.55-.12-.57-.97-.42-.98.13-.11,4.36.33,8.71,1.29,12.96.14.64,1.06.36.96-.27-.53-3.34-1.05-6.68-1.13-10.07l-.98.13c.77,3.63,1.26,7.3,1.48,11.01.04.64,1.04.64,1,0-.22-3.79-.72-7.56-1.51-11.27-.12-.55-1-.43-.98.13.08,3.47.62,6.91,1.16,10.33l.96-.27c-.94-4.17-1.36-8.42-1.25-12.69l-.98.13c.81,3.88,1.62,7.76,2.79,11.55.19.63,1.06.36.96-.27-.65-4.35-1.62-8.65-2.93-12.85l-.96.27c1.39,4.09,2.78,8.19,4.17,12.28l.91-.39c-1.92-3.55-3.1-7.41-4.26-11.25-.16-.52-1.03-.45-.98.13.18,2.18.17,4.37-.03,6.55-.06.64.94.64,1,0h0Z"/>
  <path class="cls-2" d="M54.78,51.64c1.42,3.94,3.01,7.82,4.77,11.62l.86-.5c-2.99-4.96-5.51-10.18-7.5-15.62l-.96.27c2.25,5.82,4.89,11.5,7.89,16.97.32.58,1.12.07.86-.5-2.74-6.15-5.09-12.46-7.04-18.9-.19-.61-1.14-.36-.96.27,1.63,5.65,3.98,11.08,6.99,16.13.28.47,1.13.16.91-.39-2.24-5.54-4.69-11-7.34-16.36-.29-.59-1.11-.07-.86.5,1.9,4.36,3.79,8.72,5.69,13.08l.86-.5c-2.62-4.62-5.25-9.25-7.87-13.87-.27-.48-1.13-.15-.91.39,1.03,2.57,2.21,5.09,3.55,7.51.66,1.19,1.36,2.37,2.09,3.52.39.61.78,1.21,1.19,1.8.3.42.64.82,1.2.76.29-.03.61-.3.48-.63-1.97-4.95-4.42-9.69-7.32-14.15-.36-.55-1.12-.07-.86.5,2.29,5.2,4.84,10.27,7.66,15.2.32.57,1.14.07.86-.5-2.22-4.57-4.2-9.26-5.94-14.03l-.96.27c2.27,5.89,4.69,11.75,8.05,17.12.35.55,1.13.07.86-.5-2.44-5.33-4.87-10.67-6.78-16.22l-.91.39c2.15,4.61,4.4,9.17,6.74,13.68l.86-.5c-2.86-4.63-5.4-9.44-7.62-14.4l-.68.68c1.24.95,1.87,2.67,2.56,4.02.79,1.55,1.57,3.1,2.34,4.66l.86-.5c-.97-1.74-1.92-3.49-2.86-5.25-.46-.86-.92-1.72-1.37-2.59-.33-.62-1.27-1.85-.78-2.55h-.86c2.83,4.5,4.3,9.66,6.76,14.35.31.58,1.11.07.86-.5-1.81-4.18-3.61-8.36-5.42-12.53l-.86.5c2.23,4.27,4.45,8.53,6.68,12.8.3.57,1.16.07.86-.5-2.08-4.01-4.15-8.03-5.7-12.28l-.91.39c1.38,2.8,2.54,5.7,3.48,8.69l.91-.39c-.78-1.56-1.53-3.13-2.23-4.73s-1.71-3.33-1.62-5.07l-.75.43c1.28.89,1.86,2.46,2.36,3.87.56,1.6.96,3.24,1.22,4.91l.91-.39c-.82-1.48-1.52-3.03-2.09-4.62-.28-.78-.53-1.58-.74-2.38-.1-.36-.19-.73-.28-1.1-.03-.12-.32-1.19-.28-1.22l-.61-.08c1.38,1.63,2.03,3.79,2.64,5.8.66,2.18,1.14,4.41,1.44,6.66l.93-.25c-1.67-3.7-2.71-7.66-3.09-11.7l-.93.25c1.42,1.86,2.04,4.23,2.75,6.43.77,2.39,1.47,4.8,2.11,7.23l.91-.39c-1.05-1.99-1.87-4.07-2.55-6.21-.32-1.02-.61-2.05-.88-3.09-.07-.27-.77-3.09-.78-3.08l-.56-.23c2.41,3.81,4.01,8.07,4.71,12.53l.91-.39c-1.22-1.86-2.05-3.92-2.71-6.04-.33-1.05-.61-2.11-.89-3.17-.31-1.19-.72-2.42-.46-3.65l-.48.37c.42.02.66.54.83.86.23.43.44.87.64,1.31.4.88.73,1.79,1.01,2.72.56,1.86.87,3.79.94,5.73l.85-.35c-1.26-1.34-1.99-3.03-2.46-4.79-.23-.84-.4-1.69-.56-2.55-.19-.99-.49-2.06-.17-3.05l-.91.12c1.81,3.15,2.64,6.71,3.45,10.22l.91-.39c-1.64-2.9-2.64-6.12-2.92-9.45l-.93.25c2.16,2.99,2.96,6.63,3.69,10.17l.91-.39c-.75-1.75-1.35-3.56-1.8-5.4-.22-.89-.39-1.79-.54-2.69-.08-.48-.14-.97-.2-1.45-.03-.31-.24-1.11-.02-1.39l-.79-.1c1.38,2.96,2.28,6.14,2.65,9.38l.98-.13c-1.05-2.77-1.75-5.66-2.05-8.61l-.85.35c1.12,1.07,1.51,2.75,1.93,4.19.47,1.64.81,3.3,1.04,4.99l.96-.27c-1.14-2.94-1.97-5.98-2.48-9.1l-.91.39c.96,1.55,1.79,3.17,2.49,4.86l.91-.39-1.8-3.41-.87-1.65c-.28-.53-.78-1.2-.69-1.82.05-.37-.21-.71-.62-.62-1.25.3-4.49,1.3-3.63,3.21.31.7,1.13.88,1.75.45.82-.57.68-1.61.45-2.45l-.91.39c.17.26.26.52.21.83l.73-.3c-.46-.24-.93-.49-1.39-.73-.4-.21-.82.14-.73.56.18.93,1.05,2.99,2.33,2.54s.77-2.53.4-3.37c-.2-.45-.97-.23-.93.25.1,1.34.11,2.69.04,4.04l.98-.13c-.24-.93-.7-1.94-1.42-2.6-.83-.76-1.58.1-1.92.86-.85,1.91-.73,4.18-1.97,5.92l.56-.23c-.62-.21-.68-1.55-.76-2.07-.14-.89-.18-1.8-.17-2.7l-.98.13c.66,2.48,1.33,4.97,1.99,7.45.15.57.94.41.98-.13.13-1.63-.21-3.22-.57-4.8-.14-.63-1.08-.36-.96.27.57,3,1.38,5.94,2.42,8.8.18.5,1.01.47.98-.13-.1-1.83-.19-3.67-.29-5.5l-.85.35c2.87,2.46,3.09,6.77,6.04,9.18.31.25.88.12.85-.35-.06-1.17-.13-2.33-.19-3.5l-.37.48c.29-.04.88,1.18,1.02,1.39.33.52.66,1.03,1,1.55.69,1.07,1.37,2.13,2.06,3.2.26.4.94.26.93-.25,0-.45-.02-.89-.02-1.34,0-.19-.13-.98.03-1.1.38-.28,1.66,1.21,1.9,1.47,1.05,1.17,1.91,2.51,3.09,3.57.91.82,2.38,1.85,3.7,1.65.59-.09.91-.58.67-1.14-.17-.39-.51-.77-.75-1.12-.27-.39-.54-.78-.81-1.17-.31-.45-1.07-.19-.91.39.17.64.41,1.24.7,1.84l.86-.5c-.41-.56-.7-1.16-.87-1.84l-.84.49c.38.49.69,1.03.92,1.6l.84-.49-1.53-1.71c-.32-.35-1.03.02-.84.49l.89,2.14.84-.49c-.58-.73-1.26-1.32-2.06-1.8-.29-.17-.64,0-.73.3-.09.27-.18.55-.27.82l.84-.22c-2.14-1.66-3.53-4.37-6.28-5.14-.28-.08-.51.1-.62.35-.48,1.19-.83,2.42-1.03,3.69l.48-.37c-.54-.05-.98-1.41-1.17-1.8-.36-.74-.71-1.48-1.05-2.23-.53-1.19-.93-2.53-1.78-3.55-.8-.96-2.02-1.3-3.21-.88-1.31.46-2.13,1.6-2.88,2.7-.37.53.5,1.03.86.5.71-1.04,1.63-2.37,3.04-2.39,1.31-.02,1.92,1.37,2.36,2.39.55,1.3,1.12,2.58,1.75,3.85.46.93.89,2.28,2.09,2.4.2.02.45-.17.48-.37.2-1.27.55-2.5,1.03-3.69l-.62.35c2.53.7,3.87,3.35,5.84,4.88.3.23.71.17.84-.22.09-.27.18-.55.27-.82l-.73.3c.72.44,1.33.98,1.85,1.65.3.38,1.03-.03.84-.49l-.89-2.14-.84.49,1.53,1.71c.32.36,1.03-.02.84-.49-.31-.74-.69-1.4-1.18-2.04-.33-.42-.94.04-.84.49.19.76.51,1.45.97,2.08.38.51,1.15.08.86-.5-.26-.52-.45-1.04-.6-1.6l-.91.39c.27.39.54.78.81,1.17.13.2.27.39.4.59l.13.2c.09.26.18.26.28,0-.33-.11-.7-.1-1.03-.22s-.68-.31-.99-.51c-1.34-.87-2.27-2.22-3.26-3.44-.49-.6-1-1.19-1.59-1.69-.47-.41-1.13-1.03-1.81-.92-.55.09-.81.59-.88,1.1-.11.78,0,1.63,0,2.42l.93-.25c-.89-1.37-1.77-2.75-2.66-4.12-.39-.61-.76-1.27-1.2-1.84-.36-.47-.75-.71-1.35-.63-.2.03-.38.29-.37.48.06,1.17.13,2.33.19,3.5l.85-.35c-2.93-2.4-3.16-6.71-6.04-9.18-.3-.26-.88-.11-.85.35.1,1.83.19,3.67.29,5.5l.98-.13c-1.04-2.87-1.84-5.81-2.42-8.8l-.96.27c.34,1.5.66,2.99.53,4.53l.98-.13c-.66-2.48-1.33-4.97-1.99-7.45-.15-.55-.97-.43-.98.13-.02,1.23.08,2.46.33,3.67.18.86.42,1.75,1.33,2.07.22.08.44-.06.56-.23.9-1.27,1.12-2.8,1.47-4.28.09-.38.18-.76.31-1.12.05-.14.34-1.11.53-1.13.23-.02.58.68.68.86.23.4.38.81.49,1.26.14.56.95.42.98-.13.07-1.35.05-2.69-.04-4.04l-.93.25c.15.34.23.71.25,1.08,0,.27.07.88-.31.67-.49-.26-.74-1.21-.83-1.7l-.73.56c.46.24.93.49,1.39.73.26.13.68.04.73-.3.09-.58.01-1.1-.31-1.6-.3-.47-1.07-.18-.91.39.08.28.41,1.31-.11,1.4-.25.04-.26-.21-.22-.37.05-.21.28-.39.45-.51.73-.53,1.68-.83,2.55-1.04l-.62-.62c-.18,1.29.74,2.49,1.32,3.58l2.15,4.07c.26.49,1.13.15.91-.39-.73-1.77-1.59-3.47-2.59-5.1-.31-.51-1-.16-.91.39.51,3.11,1.34,6.16,2.48,9.1.24.61,1.05.37.96-.27-.25-1.84-.64-3.66-1.17-5.44-.44-1.48-.9-3.08-2.05-4.18-.29-.27-.9-.1-.85.35.31,3.04,1,6.02,2.09,8.88.18.48,1.05.47.98-.13-.39-3.44-1.32-6.76-2.78-9.89-.13-.27-.59-.34-.79-.1-.59.75-.32,1.79-.21,2.66.14,1.07.32,2.12.55,3.17.48,2.17,1.18,4.27,2.05,6.31.23.55,1.02.14.91-.39-.74-3.63-1.58-7.36-3.79-10.41-.26-.36-.98-.29-.93.25.29,3.5,1.32,6.89,3.06,9.95.29.5,1.04.16.91-.39-.83-3.6-1.69-7.23-3.55-10.46-.22-.39-.78-.28-.91.12-.34,1.05-.09,2.13.1,3.19.18.99.37,1.97.64,2.94.52,1.92,1.34,3.77,2.72,5.23.29.31.87.08.85-.35-.08-2.33-.49-4.64-1.25-6.85-.37-1.07-.81-2.11-1.33-3.12-.41-.79-.88-1.6-1.85-1.66-.21-.01-.44.16-.48.37-.26,1.24,0,2.44.32,3.65s.61,2.34.96,3.49c.69,2.27,1.57,4.49,2.87,6.49.32.5,1,.16.91-.39-.71-4.53-2.35-8.89-4.81-12.76-.11-.18-.35-.3-.56-.23-1.06.34-.57,1.65-.39,2.42.32,1.34.66,2.67,1.05,3.99.76,2.56,1.7,5.07,2.95,7.44.27.51,1.06.16.91-.39-.66-2.51-1.39-4.99-2.19-7.46-.71-2.2-1.35-4.57-2.78-6.44-.26-.34-.98-.3-.93.25.39,4.23,1.48,8.33,3.22,12.2.2.44,1,.23.93-.25-.32-2.42-.82-4.82-1.54-7.15-.65-2.11-1.38-4.3-2.83-6.02-.13-.16-.44-.2-.61-.08-.72.51-.39,1.4-.23,2.13.22.99.49,1.98.81,2.95.64,1.94,1.46,3.82,2.45,5.61.29.53,1,.14.91-.39-.3-1.9-.78-3.77-1.46-5.56-.56-1.47-1.25-2.9-2.58-3.82-.33-.23-.73.08-.75.43-.09,1.79.87,3.53,1.56,5.14.76,1.75,1.57,3.47,2.42,5.17.25.51,1.08.15.91-.39-.96-3.06-2.16-6.05-3.58-8.92-.25-.5-1.11-.15-.91.39,1.57,4.33,3.68,8.43,5.8,12.51l.86-.5c-2.23-4.27-4.45-8.53-6.68-12.8-.3-.58-1.11-.07-.86.5,1.81,4.18,3.61,8.36,5.42,12.53l.86-.5c-2.46-4.69-3.93-9.85-6.76-14.35-.21-.33-.65-.31-.86,0-.48.69-.25,1.49.08,2.2.49,1.05,1.07,2.06,1.61,3.08,1.09,2.05,2.19,4.08,3.32,6.11.32.57,1.14.07.86-.5-.84-1.7-1.69-3.4-2.56-5.09-.73-1.43-1.39-2.95-2.7-3.95-.45-.34-.86.29-.68.68,2.21,4.97,4.76,9.78,7.62,14.4.34.55,1.16.07.86-.5-2.34-4.51-4.59-9.07-6.74-13.68-.24-.51-1.1-.15-.91.39,1.94,5.63,4.41,11.05,6.88,16.46l.86-.5c-3.32-5.29-5.71-11.07-7.95-16.88-.23-.59-1.19-.34-.96.27,1.77,4.86,3.79,9.62,6.04,14.27l.86-.5c-2.81-4.93-5.37-10.01-7.66-15.2l-.86.5c2.85,4.39,5.28,9.05,7.22,13.91l.48-.63c-.36.04-.99-1.23-1.16-1.49-.33-.51-.66-1.02-.97-1.54-.63-1.03-1.24-2.09-1.82-3.15-1.17-2.16-2.21-4.39-3.12-6.68l-.91.39c2.62,4.62,5.25,9.25,7.87,13.87.33.57,1.11.07.86-.5-1.9-4.36-3.79-8.72-5.69-13.08l-.86.5c2.62,5.28,5.03,10.66,7.24,16.12l.91-.39c-2.96-4.98-5.28-10.32-6.89-15.89l-.96.27c1.98,6.52,4.37,12.91,7.14,19.14l.86-.5c-2.97-5.4-5.57-10.99-7.79-16.73-.23-.59-1.19-.34-.96.27,2.03,5.51,4.57,10.83,7.6,15.86.34.56,1.13.07.86-.5-1.73-3.72-3.28-7.52-4.67-11.38-.22-.6-1.18-.34-.96.27h0Z"/>
  <g>
    <path class="cls-1" d="M27.5,6.91c2.52,4.49,4.58,8.12,5.98,10.57,2.5,4.39,4.81,8.89,7.24,13.32,1.95,3.55,2.9,5.22,3.32,7.95.64,4.17-.46,7.41-.71,8.1-1.61,4.49-4.83,6.95-6.23,7.99-3.44,2.56-6.92,3.44-16.6,4.57-4.95.58-11.29,1.2-18.73,1.62"/>
    <path class="cls-1" d="M82.01,9.56c-3.29,5.78-6.07,10.39-7.96,13.49-5.28,8.62-8.1,12.59-7.49,18.05.41,3.62,2.04,5.38,2.38,5.73,3.24,3.35,8.5,2.57,9.33,2.45,4.96-.74,8.14-4.2,11.36-7.79,7.26-8.11,12.66-14.22,17.14-19.34"/>
    <path class="cls-1" d="M53.14,110.99c.47-8.11,1.83-14.7,3.09-19.44,1.26-4.75,2.88-9.33,6-14.04,3.02-4.56,5.11-5.68,6.06-6.12,4.17-1.91,8.46-.61,11.03.22,4.36,1.39,7.52,3.69,14.99,10.86,3.56,3.42,7.98,7.84,12.91,13.19"/>
    <path class="cls-1" d="M24.06,58.96c2.15-.04,14,.52,17.68,1.68,2.27.71,6.88,2.17,10.63,6.21,5.34,5.76,4.44,20.63,4.41,22.74"/>
    <path class="cls-1" d="M41.47,32.24c1.25,1.03,7.59,7.83,11.57,8.42,1.43.21,4.62.65,8.12-.92,1.91-.86,8.74-10.43,9.52-11.22"/>
    <path class="cls-1" d="M85.22,46c-1.09.69-5.97,6.03-6.87,9.57-.17.68-.55,2.48.46,6.19.66,2.44,10.99,15.47,14.47,19.73"/>
  </g>
</svg>