<?xml version="1.0" encoding="UTF-8"?>
<svg id="_Слой_1" data-name="Слой 1" xmlns="http://www.w3.org/2000/svg" viewBox="0 0 146 146">
  <defs>
    <style>
      .cls-1 {
        fill: #959bcb;
        stroke-width: 0px;
      }

      .cls-2 {
        fill: none;
        stroke: #000;
        stroke-miterlimit: 10;
      }
    </style>
  </defs>
  <path class="cls-1" d="M71.82,50.75l-.02,3.86h2l-.28-5.69c-.06-1.28-2.02-1.29-2,0,.02,1.6.21,3.17.54,4.74.23,1.09,2.06.87,1.96-.27-.33-3.74-.15-7.48.59-11.16l-1.96-.27c-.14,3.06-.88,6.02-2.23,8.77l1.86.5c.07-.58.24-1.04.52-1.56l-1.73-1.01c-.2.45-.39.89-.59,1.34l1.83.77c.32-.9.64-1.8.96-2.71.37-1.05-1.37-1.81-1.83-.77-3.24,7.34-8.36,13.73-14.88,18.41-1.04.75-.16,2.28,1.01,1.73,2.1-.99,3.77-2.65,4.77-4.75.51-1.06-.68-1.92-1.57-1.21-3.13,2.49-6.18,5.3-9.64,7.32-3.28,1.92-7.01,2.87-10.8,2.87-1.29,0-1.29,1.99,0,2,2.11.02,4.2.2,6.28.6,1.81.35,3.72.75,5.23,1.87,2.68,1.99,4.11,5.79,4.99,8.9,1.91,6.76,1.27,13.98-.66,20.66-.37,1.27,1.46,1.7,1.93.53,1.42-3.54,4.01-6.46,7.3-8.38l-1.37-1.37c-.67.99-1.53,1.71-2.58,2.27l1.21,1.57c1.75-1.78,3.82-3.1,6.2-3.88l-.97-1.67c-.62.74-1.3,1.28-2.21,1.61l.97,1.67c1.34-1.23,2.98-1.98,4.8-2.15l-.71-1.71c-.24.24-.47.47-.71.71-.69.69,0,1.98.97,1.67,9.08-2.9,17.45,3.37,20.98,11.44.45,1.03,2.22.29,1.83-.77-2.28-6.11-2.07-12.67-1.81-19.08h-2c-.02,2.48-.04,4.95-.06,7.43l1.86-.5c-.71-1.39-1.42-2.78-2.13-4.18-.46-.9-1.86-.45-1.86.5,0,1.57.15,3.11.43,4.65l1.93-.53c-.71-2.23-1.55-4.4-2.51-6.54-.48-1.08-2.06-.28-1.83.77l1.19,5.46,1.83-.77c-.32-.56-.65-1.13-.97-1.69-.55-.96-2.22-.32-1.83.77.49,1.37.98,2.75,1.46,4.12l1.93-.53c-.22-.58-.44-1.16-.66-1.74-.45-1.18-2.24-.74-1.93.53.25,1,.6,1.94,1.06,2.85.59,1.17,2.23.14,1.73-1.01-.8-1.85-1.76-3.61-2.87-5.29-.72-1.09-2.25-.15-1.73,1.01.64,1.4,1.27,2.81,1.91,4.21l1.73-1.01c-1.42-2.69-2.96-5.31-4.61-7.86-.71-1.1-2.24-.15-1.73,1.01,1.21,2.73,2.63,5.34,4.26,7.84.58.89,2.29.33,1.83-.77-1.2-2.87-2.6-5.63-4.24-8.27-.59-.95-2.14-.35-1.83.77.45,1.59,1.1,3.1,1.95,4.52.67,1.11,2.31.13,1.73-1.01-.66-1.31-1.53-2.45-2.59-3.46-.57-.53-1.82-.21-1.71.71.07.58.14,1.17.21,1.75l1.86-.5c-.99-1.88-2.31-3.53-3.93-4.9-.39-.33-1.04-.44-1.41,0-.85,1.01-.9,2.46.16,3.35.58.49,1.82.24,1.71-.71-.84-7.15-3.52-13.92-4.68-21.02s-1.34-14.78-.52-22.14c.13-1.17-1.63-1.28-1.96-.27-.99,3-.26,6.07.56,9.02.35,1.25,2.18.72,1.93-.53s-.47-2.41-.71-3.62l-1.93.53c.87,2.45,1.74,4.89,2.61,7.34l1.93-.53c-.74-1.89-1.49-3.79-2.23-5.68-.46-1.18-2.39-.68-1.93.53,1.4,3.65,3.23,7.08,5.52,10.25l1.73-1.01c-1.33-1.77-2.55-3.61-3.66-5.53l-1.73,1.01c3.03,4.52,7.94,8.03,13.54,8.14,5.15.1,10.14-2.91,12.05-7.74.44-1.1-1.24-1.67-1.83-.77-2.87,4.39-3.3,9.83-2.09,14.84.62,2.56,1.64,5.04,2.89,7.35.88,1.63,2.64,3.57,4.63,2.38.61-.37.68-1.37,0-1.73-1.76-.91-3.47.17-4.95,1.17-1.64,1.11-3.15,2.43-4.46,3.91-2.64,2.98-4.51,6.57-5.43,10.45l1.96.27c.14-2.63.72-5.22,1.75-7.65.53-1.23,1.17-2.41,1.9-3.53s1.68-2.07,2.46-3.15c.65-.9.73-1.86.48-2.91-.34-1.41-.81-2.79-1.11-4.22-.65-3-.94-6.04-.95-9.11,0-1.15-1.62-1.32-1.96-.27-1.5,4.57-.11,9.47,2.45,13.38.3.46.61.9.94,1.33.47.62.54.72-.06,1.23-1.1.96-2.22,1.9-3.33,2.85-2.28,1.95-4.56,3.9-6.84,5.86l1.57.2c-1.06-1.54-2.31-2.83-3.82-3.94-.49-.36-1.37,0-1.47.6-.14.88-.28,1.77-.42,2.65l1.83-.24c-.75-1.27-2.29-2.74-3.79-1.58-1.34,1.03-.67,2.88.16,4.01l1.13-1.47c-.31-.12-.61-.23-.92-.35-.82-.31-1.58.77-1.13,1.47,1,1.56,2,3.11,3,4.67l1.37-1.37c-3.33-2.48-7.56-3.66-11.71-3.35-2.01.15-3.96.63-5.79,1.45-2.24,1-4.16,2.62-6.49,3.42l1.23,1.23c.52-2.61.97-5.24.34-7.87s-1.99-4.93-3.2-7.25-2.3-4.53-3.63-6.68c-1.09-1.77-2.47-3.4-4.43-4.23v1.73c7.88-4.95,14.99-11.05,21.06-18.11l-1.67-.97c-2.07,8.19-11.42,11.28-16.34,17.38-.28.34-.41.81-.16,1.21,2.44,3.93,4.47,8.1,6,12.47.78,2.22,1.43,4.49,1.96,6.78.31,1.36.85,3.41,2.58,3.5,1.87.09,2.29-2.32,2.14-3.72-.23-2.22-1.53-4.32-2.47-6.3-2.15-4.55-4.29-9.1-6.44-13.65l-1.73,1.01c4.1,6.58,8.2,13.17,12.3,19.75l1.73-1.01c-4.86-7.1-5.03-16.38-10.57-23.12-.68-.83-1.86.08-1.67.97,1.73,8.02,6.28,15.31,12.75,20.35.8.62,2.32-.22,1.57-1.21-3.05-4.04-5.75-8.56-7.41-13.36-.77-2.21-1.35-4.83-.24-7.03.58-1.16,1.53-2.15,2.34-3.15.93-1.16,1.86-2.33,2.8-3.49.67-.83-.17-2.2-1.21-1.57-1.76,1.06-3.66,2.29-4.69,4.13-.45.81-.68,1.69-.72,2.62-.03.73.3,2.21-.5,2.56l1.47.6c-.28-.96-.68-1.84-1.23-2.67-.32-.49-1.14-.73-1.57-.2-.88,1.08-1.34,2.21-1.45,3.6-.08,1.13,1.71,1.36,1.96.27.16-.67.31-1.34.47-2.01l-1.96-.27c-.12,1.21.2,2.35.92,3.32.46.62,1.27.66,1.73,0,1.18-1.7,2.37-3.4,3.55-5.11h-1.73c.38.55.79.96,1.35,1.33.59.39,1.24-.04,1.47-.6.24-.59.57-1.08,1-1.55l-1.57-.2c.48.88.95,1.75,1.43,2.63s1.81.44,1.86-.5c.05-.81.26-1.5.66-2.21l-1.83-.24c.35.9.82,1.64,1.56,2.27.69.59,1.61.17,1.71-.71.17-1.57.33-3.15.5-4.72l-1.96.27c.53,2.11,1.06,4.22,1.58,6.32.27,1.09,1.99.87,1.96-.27-.04-1.89-.27-3.77-.67-5.62-.25-1.17-1.87-.79-1.96.27-.09.99,0,1.92.27,2.88.3,1.09,1.96.87,1.96-.27.01-1.52-.4-2.92-1.25-4.18-.42-.63-1.31-.66-1.73,0-.31.49-.61.98-.92,1.47l1.83.24c-.19-.77-.49-1.47-.92-2.15-.37-.58-1.4-.72-1.73,0-.4.88-.51,1.69-.18,2.62.27.76,1.4,1.05,1.83.24,1.42-2.73,2.07-5.72,1.82-8.79-.1-1.26-2.02-1.3-2,0,.12,6.58-2.12,13.05-6.36,18.1l1.67.97c.5-2.48.99-4.96,1.49-7.44.21-1.07-1.23-1.8-1.83-.77-1.94,3.36-2.18,7.39-1.14,11.09s3.34,6.9,5.71,9.98c.33.42.75.93.77,1.49.01.46-.19.98-.63.54-.46-.46-.24-1.98-.23-2.52.05-2.27.09-4.54.14-6.81.08-3.96.85-8.7-1.26-12.28-.46-.77-1.56-.56-1.83.24-2.73,8.08-.03,17.55,6.59,22.94.8.65,1.83.04,1.67-.97-.66-4.09-2.81-7.73-3.6-11.78s-.37-8.35,1.07-12.27l-1.96-.27c.02,9.31,1.95,18.47,5.62,27.02.44,1.04,2.19.3,1.83-.77-.83-2.43-1.17-4.96-1.51-7.5-.36-2.69-.72-5.38-1.08-8.07-.34-2.55-.71-5.1-.98-7.66-.14-1.32-.26-2.64-.28-3.97-.02-.97-.02-2.29.85-2.92l-1.37-.36c1.08,2.04,1.3,4.39,1.71,6.63.44,2.46.94,4.91,1.5,7.34,1.1,4.79,2.42,9.53,3.94,14.21.4,1.22,2.27.72,1.93-.53-2.37-8.66-3.86-17.52-4.43-26.48l-1.96.27c2.57,8.67,4.52,17.5,6.45,26.33.24,1.08,2.07.87,1.96-.27-.77-8.14-1.9-16.25-3.39-24.29-.23-1.26-2.16-.73-1.93.53,1.55,8.43,4.01,16.64,6.47,24.84.31,1.03,2.08.9,1.96-.27-.84-8.11-2.33-16.13-4.49-23.99l-1.93.53c2.53,7.57,5.09,15.24,5.65,23.26.09,1.27,2,1.3,2,0-.01-7.91-.16-16.14-4.03-23.27-.62-1.15-2.27-.14-1.73,1.01,3.08,6.53,5.14,13.48,6.18,20.62.16,1.1,2.08.86,1.96-.27-.74-7.46-1.55-14.95-4.51-21.91l-1.73,1.01c2.92,5.69,5.92,11.63,5.9,18.18l1.96-.27c-.13-.63-.25-1.27-.38-1.9-.25-1.26-2.18-.73-1.93.53.13.63.25,1.27.38,1.9.22,1.12,1.96.84,1.96-.27.02-6.91-3.09-13.18-6.18-19.19-.6-1.17-2.21-.14-1.73,1.01,2.8,6.61,3.53,13.83,4.23,20.9l1.96-.27c-1.06-7.32-3.23-14.41-6.38-21.1l-1.73,1.01c3.69,6.8,3.75,14.72,3.76,22.26h2c-.58-8.21-3.13-16.04-5.72-23.79-.41-1.21-2.27-.72-1.93.53,2.11,7.69,3.6,15.53,4.42,23.46l1.96-.27c-2.47-8.2-4.92-16.41-6.47-24.84l-1.93.53c1.46,7.87,2.56,15.8,3.32,23.76l1.96-.27c-1.93-8.83-3.87-17.66-6.45-26.33-.31-1.04-2.04-.9-1.96.27.58,9.13,2.09,18.18,4.5,27.01l1.93-.53c-1.57-4.83-2.93-9.73-4.05-14.68-.55-2.44-1.04-4.89-1.48-7.35-.41-2.28-.72-4.56-1.82-6.63-.24-.44-.94-.67-1.37-.36-1.9,1.37-1.92,3.63-1.79,5.77.17,3.03.61,6.03,1.02,9.04s.81,6.03,1.21,9.04.7,5.76,1.65,8.52l1.83-.77c-3.52-8.21-5.32-17.08-5.34-26.01,0-1.18-1.59-1.29-1.96-.27-1.47,3.99-1.88,8.27-1.22,12.47s3.05,8.27,3.76,12.65l1.67-.97c-6.11-4.98-8.6-13.52-6.07-20.99l-1.83.24c.97,1.64,1.1,3.48,1.1,5.35,0,2.06-.08,4.11-.12,6.17s-.08,4.06-.12,6.08c-.03,1.36-.19,2.92.57,4.13,1.64,2.64,4.91.11,4.19-2.44-.44-1.57-1.86-2.82-2.79-4.11-1.05-1.44-1.99-2.96-2.73-4.58-1.75-3.82-2.15-8.37.01-12.11l-1.83-.77c-.5,2.48-.99,4.96-1.49,7.44-.18.89.97,1.8,1.67.97,4.58-5.46,7.07-12.38,6.95-19.51h-2c.22,2.72-.28,5.36-1.55,7.78l1.83.24c-.19-.34-.19-.7-.02-1.08h-1.73c.34.54.56,1.05.72,1.67.21.86,1.39.95,1.83.24.31-.49.61-.98.92-1.47h-1.73c.66.98.98,1.98.97,3.17l1.96-.27c-.22-.8-.27-1.53-.2-2.35l-1.96.27c.36,1.68.55,3.37.59,5.09l1.96-.27c-.53-2.11-1.06-4.22-1.58-6.32-.29-1.17-1.85-.79-1.96.27-.17,1.57-.33,3.15-.5,4.72l1.71-.71c-.47-.4-.81-.81-1.04-1.39-.3-.76-1.37-1.05-1.83-.24-.57,1.01-.86,2.06-.93,3.22l1.86-.5c-.48-.88-.95-1.75-1.43-2.63-.3-.55-1.14-.67-1.57-.2-.68.73-1.15,1.51-1.52,2.43l1.47-.6c-.26-.15-.47-.35-.63-.61-.44-.65-1.28-.64-1.73,0-1.18,1.7-2.37,3.4-3.55,5.11h1.73c-.54-.72-.74-1.41-.65-2.31.11-1.13-1.71-1.35-1.96-.27-.16.67-.31,1.34-.47,2.01l1.96.27c.06-.82.34-1.55.86-2.19l-1.57-.2c.46.69.79,1.4,1.02,2.2.2.68.88.86,1.47.6,1.8-.79,1.36-2.86,1.49-4.43.2-2.35,2.59-3.78,4.41-4.87l-1.21-1.57c-1.04,1.29-2.07,2.58-3.11,3.88-.85,1.06-1.84,2.11-2.43,3.35-1.1,2.26-.9,4.86-.24,7.21,1.51,5.41,4.62,10.58,7.98,15.02l1.57-1.21c-6.23-4.86-10.57-11.74-12.24-19.47l-1.67.97c5.39,6.55,5.51,15.77,10.26,22.71.72,1.05,2.42.1,1.73-1.01-4.1-6.58-8.2-13.17-12.3-19.75-.69-1.11-2.27-.14-1.73,1.01,1.73,3.67,3.46,7.34,5.19,11.01.89,1.89,1.81,3.76,2.67,5.66.38.84.76,1.75.81,2.68,0,.15.02,1.16-.17,1.19-.23.04-.48-1.07-.52-1.26-1.72-7.22-4.39-14.05-8.31-20.38l-.16,1.21c5.2-6.46,14.65-9.55,16.85-18.27.23-.91-.99-1.76-1.67-.97-5.96,6.93-12.91,12.93-20.66,17.8-.57.36-.73,1.42,0,1.73,1.78.76,2.93,2.2,3.9,3.82,1.15,1.93,2.16,3.95,3.21,5.93,1.11,2.11,2.38,4.25,3.06,6.55.74,2.49.32,4.97-.17,7.46-.14.69.46,1.49,1.23,1.23,2-.68,3.7-1.86,5.53-2.89s3.78-1.67,5.85-1.88c3.95-.4,7.88.67,11.07,3.04.82.61,1.88-.56,1.37-1.37-1-1.56-2-3.11-3-4.67l-1.13,1.47c.31.12.61.23.92.35.79.3,1.63-.78,1.13-1.47-.21-.28-.73-.92-.64-1.29.05-.21.02-.07.24.11.25.21.42.51.58.78.4.68,1.69.65,1.83-.24s.28-1.77.42-2.65l-1.47.6c1.21.89,2.25,1.98,3.1,3.22.38.56,1.06.64,1.57.2,2.28-1.95,4.56-3.9,6.84-5.86,1.17-1,2.4-1.95,3.51-3.01.72-.68,1.25-1.51.84-2.52s-1.35-1.89-1.92-2.83c-.7-1.15-1.31-2.36-1.74-3.64-.85-2.52-1.02-5.13-.18-7.68l-1.96-.27c0,2.85.27,5.68.79,8.48.28,1.47.63,2.92,1.05,4.36.22.74.53,1.39.18,2.11-.3.61-.96,1.18-1.38,1.71-3.13,3.99-4.91,8.85-5.17,13.91-.06,1.12,1.7,1.36,1.96.27.75-3.16,2.15-6.15,4.18-8.69.94-1.19,2.01-2.28,3.17-3.25.86-.72,3.34-3,4.54-2.38v-1.73c-1.92,1.15-4.71-8.95-4.92-10.24-.65-4.01,0-8.17,2.24-11.59l-1.83-.77c-1.63,4.11-6.18,6.46-10.48,6.26-4.72-.23-8.9-3.32-11.46-7.14-.71-1.06-2.38-.12-1.73,1.01,1.11,1.92,2.33,3.76,3.66,5.53.76,1.01,2.49.04,1.73-1.01-2.18-3.02-3.98-6.29-5.32-9.77l-1.93.53c.74,1.89,1.49,3.79,2.23,5.68.46,1.18,2.37.7,1.93-.53-.87-2.45-1.74-4.89-2.61-7.34-.43-1.21-2.18-.74-1.93.53s.47,2.41.71,3.62l1.93-.53c-.73-2.61-1.44-5.3-.56-7.95l-1.96-.27c-.81,7.24-.66,14.54.44,21.73.54,3.58,1.37,7.09,2.32,10.57s2.01,7.16,2.44,10.85l1.71-.71c-.24-.12-.29-.29-.16-.53h-1.41c1.51,1.27,2.7,2.75,3.62,4.49.44.83,1.98.5,1.86-.5-.07-.58-.14-1.17-.21-1.75l-1.71.71c.95.89,1.69,1.89,2.28,3.05l1.73-1.01c-.77-1.28-1.34-2.61-1.74-4.04l-1.83.77c1.55,2.49,2.91,5.09,4.04,7.8l1.83-.77c-1.63-2.5-3.05-5.11-4.26-7.84l-1.73,1.01c1.65,2.55,3.18,5.17,4.61,7.86.61,1.16,2.25.14,1.73-1.01-.64-1.4-1.27-2.81-1.91-4.21l-1.73,1.01c1.11,1.68,2.07,3.44,2.87,5.29l1.73-1.01c-.38-.77-.66-1.54-.86-2.37l-1.93.53c.22.58.44,1.16.66,1.74.45,1.19,2.36.69,1.93-.53-.49-1.37-.98-2.75-1.46-4.12l-1.83.77c.32.56.65,1.13.97,1.69.58,1.01,2.06.32,1.83-.77-.4-1.82-.79-3.64-1.19-5.46l-1.83.77c.88,1.98,1.64,4,2.3,6.06.4,1.24,2.16.72,1.93-.53-.25-1.37-.36-2.73-.35-4.12l-1.86.5c.71,1.39,1.42,2.78,2.13,4.18.46.91,1.86.45,1.86-.5.02-2.48.04-4.95.06-7.43.01-1.29-1.95-1.28-2,0-.26,6.58-.45,13.34,1.89,19.61l1.83-.77c-3.87-8.87-13.37-15.51-23.23-12.36l.97,1.67c.24-.24.47-.47.71-.71.57-.57.18-1.79-.71-1.71-2.37.22-4.46,1.12-6.21,2.73-.71.65.03,2.02.97,1.67,1.23-.45,2.26-1.12,3.1-2.13.59-.71.06-2.01-.97-1.67-2.7.89-5.09,2.36-7.08,4.39-.81.82.21,2.1,1.21,1.57,1.36-.72,2.43-1.72,3.3-2.99.58-.85-.54-1.85-1.37-1.37-3.77,2.19-6.6,5.54-8.22,9.57l1.93.53c2.14-7.39,2.74-15.52.3-22.92-1.09-3.31-2.75-7.06-5.76-9.06-1.69-1.13-3.76-1.6-5.73-1.96-2.17-.4-4.36-.6-6.57-.62v2c3.99,0,7.94-.98,11.44-2.93,3.77-2.11,7.06-5.17,10.42-7.85l-1.57-1.21c-.88,1.83-2.22,3.16-4.06,4.03l1.01,1.73c6.8-4.88,12.21-11.47,15.6-19.13l-1.83-.77c-.32.9-.64,1.8-.96,2.71-.37,1.05,1.37,1.81,1.83.77.2-.45.39-.89.59-1.34.5-1.15-1.11-2.17-1.73-1.01-.44.84-.67,1.63-.79,2.57-.13.99,1.45,1.36,1.86.5,1.5-3.08,2.34-6.36,2.5-9.78.05-1.11-1.74-1.38-1.96-.27-.77,3.86-1,7.77-.66,11.69l1.96-.27c-.29-1.39-.44-2.79-.47-4.21h-2l.28,5.69c.06,1.28,1.99,1.3,2,0l.02-3.86c0-1.29-1.99-1.29-2,0h0Z"/>
  <path class="cls-1" d="M91.5,73.33c.17,2.24.41,4.47.72,6.69.05-2.45.2-4.89.44-7.33.35,2.61.53,5.24.53,7.87.18-1.83.37-3.66.55-5.49.36,1.4.37,2.88.01,4.28-.11-.56-.05-1.14.18-1.66.42.69.49,1.59.18,2.34.1-2.4-.14-4.82-.72-7.15-.06-.23-.21-.52-.44-.47-.18.04-.25.25-.28.42-.14.76-.13,1.54,0,2.29.53-1.63.56-3.42.09-5.07-.06-.2-.13-.41-.27-.56-.38-.41-1.13-.21-1.45.25s-.35,1.06-.36,1.62c0,.2.03.46.23.51.17.04.32-.12.41-.28.44-.73.66-1.58.62-2.43-.02-.36-.08-.73-.29-1.01s-.6-.47-.93-.36c-.2.07-.36.23-.51.39-.63.67-1.25,1.53-1.03,2.42.03.11.07.22.16.29.22.17.53-.04.72-.25.72-.82,1.17-1.88,1.24-2.97.01-.17.01-.35-.05-.51-.18-.44-.8-.54-1.22-.32s-.68.64-.93,1.04c.08.26.39.4.66.38s.52-.17.75-.32c.42-.26.82-.54,1.22-.83.16-.12.34-.27.36-.47.03-.44-.62-.52-1.04-.39-1.39.42-2.66,1.28-3.56,2.42.71.32,1.65.02,2.03-.66-.33-.05-.68.21-.74.54"/>
  <path class="cls-1" d="M92.58,76.84c-.15,1.72-.29,3.43-.44,5.15h2l.12-5.06h-2l.08,4.8c.02,1.08,1.78,1.42,1.96.27.25-1.57.5-3.13.75-4.7l-1.96-.27.31,3.31c.12,1.29,1.86,1.28,2,0l.29-2.6h-2l-.04,1.82h2c-.48-3.67-1.36-7.23-2.68-10.69-.33-.87-1.66-1.03-1.93,0-.4,1.54-.37,3.07.12,4.58.3.91,1.67.99,1.93,0,.67-2.52.35-5.09-.88-7.39-.34-.64-1.39-.66-1.73,0-1.11,2.18-1.37,4.55-.7,6.91.24.85,1.37.96,1.83.24,1.21-1.91,1.12-4.62-.66-6.17-1.65-1.43-4.25-1.3-5.75.25-.57.59-.23,1.39.44,1.67,2.09.88,4.49.59,6.33-.74.61-.44.67-1.3,0-1.73-1.32-.85-2.82-.86-4.2-.14-.7.36-.6,1.34,0,1.73,1.92,1.23,4.29.97,5.99-.49.61-.52.22-1.45-.44-1.67-2.19-.73-5.89.81-5.59,3.58.17,1.51,1.77,1.49,2.78.84,1.28-.82,2.11-2.23,2.31-3.72.1-.73-.68-1.73-1.47-1.13-1.95,1.48-3.3,3.47-3.79,5.88-.17.84.68,1.58,1.47,1.13,1.7-.97,2.47-2.79,2.12-4.7-.14-.76-1.17-.93-1.67-.44-1.59,1.57-2.85,3.38-3.74,5.42-.44,1.01.68,2.02,1.57,1.21,1.2-1.1,2.23-2.31,3.14-3.66l-1.73-1.01c-.44.91-1.18,1.98-1.34,2.99-.18,1.09.67,1.39,1.31,2.05,1.49,1.53.98,4.1-.03,5.73-1.22,1.96-3.14,3.38-4.77,4.98-1.86,1.83-3.49,3.87-4.92,6.05l1.83.24c-.12-.87-.25-1.74-.37-2.61-.14-.97-1.76-.94-1.93,0-.22,1.21-.44,2.41-.66,3.62h1.93c-.6-1.94-1.2-3.88-1.8-5.82-.28-.89-1.71-1.01-1.93,0-.35,1.59-.27,3.15.34,4.67.35.88,1.63,1.01,1.93,0,.27-.92.36-1.82.24-2.78-.13-1.06-1.63-1.43-1.96-.27-.26.92-.35,1.81-.25,2.76.14,1.27,1.89,1.3,2,0,.04-.46.15-.81.32-1.24.49-1.19-1.45-1.71-1.93-.53-.24.58-.35,1.14-.4,1.77h2c-.09-.79-.04-1.47.17-2.23l-1.96-.27c.1.79.06,1.48-.17,2.24h1.93c-.47-1.19-.61-2.35-.34-3.61h-1.93c.6,1.94,1.2,3.88,1.8,5.82.27.88,1.74,1.03,1.93,0,.22-1.21.44-2.41.66-3.62h-1.93c.12.87.25,1.74.37,2.61.13.92,1.41.88,1.83.24,1.49-2.28,3.22-4.36,5.21-6.23,1.68-1.58,3.53-3.1,4.68-5.14.92-1.64,1.28-3.62.81-5.46-.23-.88-.66-1.71-1.29-2.36-.16-.17-.41-.3-.55-.48-.34-.41-.08.01-.02-.19.17-.66.64-1.33.93-1.94.55-1.16-1-2.08-1.73-1.01-.82,1.2-1.76,2.27-2.83,3.25l1.57,1.21c.83-1.9,1.95-3.56,3.43-5.02l-1.67-.44c.19,1.03-.32,1.94-1.2,2.44l1.47,1.13c.38-1.87,1.33-3.52,2.87-4.69l-1.47-1.13c-.09.63-.25,1.21-.62,1.73-.13.19-.73.6-.77.79l.22.66c.05-.17.12-.33.22-.47.6-.97,1.8-1.29,2.84-.95l-.44-1.67c-1.04.89-2.44.9-3.57.18v1.73c.76-.4,1.48-.3,2.18.14v-1.73c-1.46,1.06-3.13,1.23-4.78.53l.44,1.67c.83-.86,2.3-.92,3.16-.03.95.96.77,2.48.11,3.53l1.83.24c-.52-1.83-.37-3.66.5-5.36h-1.73c.98,1.83,1.21,3.84.68,5.84h1.93c-.39-1.19-.44-2.31-.12-3.52h-1.93c1.25,3.28,2.15,6.68,2.61,10.16.16,1.24,1.97,1.33,2,0l.04-1.82c.03-1.32-1.86-1.25-2,0l-.29,2.6h2l-.31-3.31c-.1-1.03-1.77-1.47-1.96-.27-.25,1.57-.5,3.13-.75,4.7l1.96.27-.08-4.8c-.02-1.29-1.97-1.29-2,0l-.12,5.06c-.03,1.3,1.89,1.26,2,0,.15-1.72.29-3.43.44-5.15.11-1.28-1.89-1.28-2,0h0Z"/>
  <g>
    <path class="cls-2" d="M74.76,7.64c.17,4.64.23,10.3,0,16.77-.27,7.38-.42,11.15-1.52,15.24-.46,1.71-2.35,8.31-7.62,15.24-1.51,1.99-7.36,9.35-17.78,14.23-7.59,3.55-14.15,4.17-23.88,5.08-5.43.51-9.99.56-13.21.51"/>
    <path class="cls-2" d="M40.2,142.29c3.21-9.59,6.77-17.28,9.65-22.87,7.14-13.82,11.4-17.1,14.23-18.8,2.33-1.4,7.59-4.57,13.72-3.56,5.33.88,9.29,4.6,16.26,14.74,4.8,6.98,10.89,16.81,16.77,29.47"/>
    <path class="cls-2" d="M134.72,90.47c-9.6-1.69-16.96-4.44-21.85-6.61-6.67-2.96-10.05-4.51-12.2-8.13-3.47-5.85-1.35-12.86,1.02-20.33,2-6.3,7.11-16.77,12.2-28.46"/>
    <path class="cls-2" d="M95.08,113.33c-1.02-1.52-3.09-14.01-2.03-17.78,2.13-7.6,6.1-13.72,15.24-13.72"/>
    <path class="cls-2" d="M74.25,34.06c.12,2.44.65,15.29,3.05,19.82,1.51,2.86,3.09,6.01,6.61,7.62,12.2,5.59,20.33-11.18,21.34-15.24"/>
    <path class="cls-2" d="M32.58,73.19c1.97.25,14.58,1,17.78,3.56,4.72,3.78,5.63,9.15,6.61,12.7,1.53,5.56-.82,18.68-5.08,26.42"/>
  </g>
  <path class="cls-1" d="M71.82,50.75l-.02,3.86h2l-.28-5.69c-.06-1.28-2.02-1.29-2,0,.02,1.6.21,3.17.54,4.74.23,1.09,2.06.87,1.96-.27-.33-3.74-.15-7.48.59-11.16l-1.96-.27c-.14,3.06-.88,6.02-2.23,8.77l1.86.5c.07-.58.24-1.04.52-1.56l-1.73-1.01c-.2.45-.39.89-.59,1.34l1.83.77c.32-.9.64-1.8.96-2.71.37-1.05-1.37-1.81-1.83-.77-3.24,7.34-8.36,13.73-14.88,18.41-1.04.75-.16,2.28,1.01,1.73,2.1-.99,3.77-2.65,4.77-4.75.51-1.06-.68-1.92-1.57-1.21-3.13,2.49-6.18,5.3-9.64,7.32-3.28,1.92-7.01,2.87-10.8,2.87-1.29,0-1.29,1.99,0,2,2.11.02,4.2.2,6.28.6,1.81.35,3.72.75,5.23,1.87,2.68,1.99,4.11,5.79,4.99,8.9,1.91,6.76,1.27,13.98-.66,20.66-.37,1.27,1.46,1.7,1.93.53,1.42-3.54,4.01-6.46,7.3-8.38l-1.37-1.37c-.67.99-1.53,1.71-2.58,2.27l1.21,1.57c1.75-1.78,3.82-3.1,6.2-3.88l-.97-1.67c-.62.74-1.3,1.28-2.21,1.61l.97,1.67c1.34-1.23,2.98-1.98,4.8-2.15l-.71-1.71c-.24.24-.47.47-.71.71-.69.69,0,1.98.97,1.67,9.08-2.9,17.45,3.37,20.98,11.44.45,1.03,2.22.29,1.83-.77-2.28-6.11-2.07-12.67-1.81-19.08h-2c-.02,2.48-.04,4.95-.06,7.43l1.86-.5c-.71-1.39-1.42-2.78-2.13-4.18-.46-.9-1.86-.45-1.86.5,0,1.57.15,3.11.43,4.65l1.93-.53c-.71-2.23-1.55-4.4-2.51-6.54-.48-1.08-2.06-.28-1.83.77l1.19,5.46,1.83-.77c-.32-.56-.65-1.13-.97-1.69-.55-.96-2.22-.32-1.83.77.49,1.37.98,2.75,1.46,4.12l1.93-.53c-.22-.58-.44-1.16-.66-1.74-.45-1.18-2.24-.74-1.93.53.25,1,.6,1.94,1.06,2.85.59,1.17,2.23.14,1.73-1.01-.8-1.85-1.76-3.61-2.87-5.29-.72-1.09-2.25-.15-1.73,1.01.64,1.4,1.27,2.81,1.91,4.21l1.73-1.01c-1.42-2.69-2.96-5.31-4.61-7.86-.71-1.1-2.24-.15-1.73,1.01,1.21,2.73,2.63,5.34,4.26,7.84.58.89,2.29.33,1.83-.77-1.2-2.87-2.6-5.63-4.24-8.27-.59-.95-2.14-.35-1.83.77.45,1.59,1.1,3.1,1.95,4.52.67,1.11,2.31.13,1.73-1.01-.66-1.31-1.53-2.45-2.59-3.46-.57-.53-1.82-.21-1.71.71.07.58.14,1.17.21,1.75l1.86-.5c-.99-1.88-2.31-3.53-3.93-4.9-.39-.33-1.04-.44-1.41,0-.85,1.01-.9,2.46.16,3.35.58.49,1.82.24,1.71-.71-.84-7.15-3.52-13.92-4.68-21.02s-1.34-14.78-.52-22.14c.13-1.17-1.63-1.28-1.96-.27-.99,3-.26,6.07.56,9.02.35,1.25,2.18.72,1.93-.53s-.47-2.41-.71-3.62l-1.93.53c.87,2.45,1.74,4.89,2.61,7.34l1.93-.53c-.74-1.89-1.49-3.79-2.23-5.68-.46-1.18-2.39-.68-1.93.53,1.4,3.65,3.23,7.08,5.52,10.25l1.73-1.01c-1.33-1.77-2.55-3.61-3.66-5.53l-1.73,1.01c3.03,4.52,7.94,8.03,13.54,8.14,5.15.1,10.14-2.91,12.05-7.74.44-1.1-1.24-1.67-1.83-.77-2.87,4.39-3.3,9.83-2.09,14.84.62,2.56,1.64,5.04,2.89,7.35.88,1.63,2.64,3.57,4.63,2.38.61-.37.68-1.37,0-1.73-1.76-.91-3.47.17-4.95,1.17-1.64,1.11-3.15,2.43-4.46,3.91-2.64,2.98-4.51,6.57-5.43,10.45l1.96.27c.14-2.63.72-5.22,1.75-7.65.53-1.23,1.17-2.41,1.9-3.53s1.68-2.07,2.46-3.15c.65-.9.73-1.86.48-2.91-.34-1.41-.81-2.79-1.11-4.22-.65-3-.94-6.04-.95-9.11,0-1.15-1.62-1.32-1.96-.27-1.5,4.57-.11,9.47,2.45,13.38.3.46.61.9.94,1.33.47.62.54.72-.06,1.23-1.1.96-2.22,1.9-3.33,2.85-2.28,1.95-4.56,3.9-6.84,5.86l1.57.2c-1.06-1.54-2.31-2.83-3.82-3.94-.49-.36-1.37,0-1.47.6-.14.88-.28,1.77-.42,2.65l1.83-.24c-.75-1.27-2.29-2.74-3.79-1.58-1.34,1.03-.67,2.88.16,4.01l1.13-1.47c-.31-.12-.61-.23-.92-.35-.82-.31-1.58.77-1.13,1.47,1,1.56,2,3.11,3,4.67l1.37-1.37c-3.33-2.48-7.56-3.66-11.71-3.35-2.01.15-3.96.63-5.79,1.45-2.24,1-4.16,2.62-6.49,3.42l1.23,1.23c.52-2.61.97-5.24.34-7.87s-1.99-4.93-3.2-7.25-2.3-4.53-3.63-6.68c-1.09-1.77-2.47-3.4-4.43-4.23v1.73c7.88-4.95,14.99-11.05,21.06-18.11l-1.67-.97c-2.07,8.19-11.42,11.28-16.34,17.38-.28.34-.41.81-.16,1.21,2.44,3.93,4.47,8.1,6,12.47.78,2.22,1.43,4.49,1.96,6.78.31,1.36.85,3.41,2.58,3.5,1.87.09,2.29-2.32,2.14-3.72-.23-2.22-1.53-4.32-2.47-6.3-2.15-4.55-4.29-9.1-6.44-13.65l-1.73,1.01c4.1,6.58,8.2,13.17,12.3,19.75l1.73-1.01c-4.86-7.1-5.03-16.38-10.57-23.12-.68-.83-1.86.08-1.67.97,1.73,8.02,6.28,15.31,12.75,20.35.8.62,2.32-.22,1.57-1.21-3.05-4.04-5.75-8.56-7.41-13.36-.77-2.21-1.35-4.83-.24-7.03.58-1.16,1.53-2.15,2.34-3.15.93-1.16,1.86-2.33,2.8-3.49.67-.83-.17-2.2-1.21-1.57-1.76,1.06-3.66,2.29-4.69,4.13-.45.81-.68,1.69-.72,2.62-.03.73.3,2.21-.5,2.56l1.47.6c-.28-.96-.68-1.84-1.23-2.67-.32-.49-1.14-.73-1.57-.2-.88,1.08-1.34,2.21-1.45,3.6-.08,1.13,1.71,1.36,1.96.27.16-.67.31-1.34.47-2.01l-1.96-.27c-.12,1.21.2,2.35.92,3.32.46.62,1.27.66,1.73,0,1.18-1.7,2.37-3.4,3.55-5.11h-1.73c.38.55.79.96,1.35,1.33.59.39,1.24-.04,1.47-.6.24-.59.57-1.08,1-1.55l-1.57-.2c.48.88.95,1.75,1.43,2.63s1.81.44,1.86-.5c.05-.81.26-1.5.66-2.21l-1.83-.24c.35.9.82,1.64,1.56,2.27.69.59,1.61.17,1.71-.71.17-1.57.33-3.15.5-4.72l-1.96.27c.53,2.11,1.06,4.22,1.58,6.32.27,1.09,1.99.87,1.96-.27-.04-1.89-.27-3.77-.67-5.62-.25-1.17-1.87-.79-1.96.27-.09.99,0,1.92.27,2.88.3,1.09,1.96.87,1.96-.27.01-1.52-.4-2.92-1.25-4.18-.42-.63-1.31-.66-1.73,0-.31.49-.61.98-.92,1.47l1.83.24c-.19-.77-.49-1.47-.92-2.15-.37-.58-1.4-.72-1.73,0-.4.88-.51,1.69-.18,2.62.27.76,1.4,1.05,1.83.24,1.42-2.73,2.07-5.72,1.82-8.79-.1-1.26-2.02-1.3-2,0,.12,6.58-2.12,13.05-6.36,18.1l1.67.97c.5-2.48.99-4.96,1.49-7.44.21-1.07-1.23-1.8-1.83-.77-1.94,3.36-2.18,7.39-1.14,11.09s3.34,6.9,5.71,9.98c.33.42.75.93.77,1.49.01.46-.19.98-.63.54-.46-.46-.24-1.98-.23-2.52.05-2.27.09-4.54.14-6.81.08-3.96.85-8.7-1.26-12.28-.46-.77-1.56-.56-1.83.24-2.73,8.08-.03,17.55,6.59,22.94.8.65,1.83.04,1.67-.97-.66-4.09-2.81-7.73-3.6-11.78s-.37-8.35,1.07-12.27l-1.96-.27c.02,9.31,1.95,18.47,5.62,27.02.44,1.04,2.19.3,1.83-.77-.83-2.43-1.17-4.96-1.51-7.5-.36-2.69-.72-5.38-1.08-8.07-.34-2.55-.71-5.1-.98-7.66-.14-1.32-.26-2.64-.28-3.97-.02-.97-.02-2.29.85-2.92l-1.37-.36c1.08,2.04,1.3,4.39,1.71,6.63.44,2.46.94,4.91,1.5,7.34,1.1,4.79,2.42,9.53,3.94,14.21.4,1.22,2.27.72,1.93-.53-2.37-8.66-3.86-17.52-4.43-26.48l-1.96.27c2.57,8.67,4.52,17.5,6.45,26.33.24,1.08,2.07.87,1.96-.27-.77-8.14-1.9-16.25-3.39-24.29-.23-1.26-2.16-.73-1.93.53,1.55,8.43,4.01,16.64,6.47,24.84.31,1.03,2.08.9,1.96-.27-.84-8.11-2.33-16.13-4.49-23.99l-1.93.53c2.53,7.57,5.09,15.24,5.65,23.26.09,1.27,2,1.3,2,0-.01-7.91-.16-16.14-4.03-23.27-.62-1.15-2.27-.14-1.73,1.01,3.08,6.53,5.14,13.48,6.18,20.62.16,1.1,2.08.86,1.96-.27-.74-7.46-1.55-14.95-4.51-21.91l-1.73,1.01c2.92,5.69,5.92,11.63,5.9,18.18l1.96-.27c-.13-.63-.25-1.27-.38-1.9-.25-1.26-2.18-.73-1.93.53.13.63.25,1.27.38,1.9.22,1.12,1.96.84,1.96-.27.02-6.91-3.09-13.18-6.18-19.19-.6-1.17-2.21-.14-1.73,1.01,2.8,6.61,3.53,13.83,4.23,20.9l1.96-.27c-1.06-7.32-3.23-14.41-6.38-21.1l-1.73,1.01c3.69,6.8,3.75,14.72,3.76,22.26h2c-.58-8.21-3.13-16.04-5.72-23.79-.41-1.21-2.27-.72-1.93.53,2.11,7.69,3.6,15.53,4.42,23.46l1.96-.27c-2.47-8.2-4.92-16.41-6.47-24.84l-1.93.53c1.46,7.87,2.56,15.8,3.32,23.76l1.96-.27c-1.93-8.83-3.87-17.66-6.45-26.33-.31-1.04-2.04-.9-1.96.27.58,9.13,2.09,18.18,4.5,27.01l1.93-.53c-1.57-4.83-2.93-9.73-4.05-14.68-.55-2.44-1.04-4.89-1.48-7.35-.41-2.28-.72-4.56-1.82-6.63-.24-.44-.94-.67-1.37-.36-1.9,1.37-1.92,3.63-1.79,5.77.17,3.03.61,6.03,1.02,9.04s.81,6.03,1.21,9.04.7,5.76,1.65,8.52l1.83-.77c-3.52-8.21-5.32-17.08-5.34-26.01,0-1.18-1.59-1.29-1.96-.27-1.47,3.99-1.88,8.27-1.22,12.47s3.05,8.27,3.76,12.65l1.67-.97c-6.11-4.98-8.6-13.52-6.07-20.99l-1.83.24c.97,1.64,1.1,3.48,1.1,5.35,0,2.06-.08,4.11-.12,6.17s-.08,4.06-.12,6.08c-.03,1.36-.19,2.92.57,4.13,1.64,2.64,4.91.11,4.19-2.44-.44-1.57-1.86-2.82-2.79-4.11-1.05-1.44-1.99-2.96-2.73-4.58-1.75-3.82-2.15-8.37.01-12.11l-1.83-.77c-.5,2.48-.99,4.96-1.49,7.44-.18.89.97,1.8,1.67.97,4.58-5.46,7.07-12.38,6.95-19.51h-2c.22,2.72-.28,5.36-1.55,7.78l1.83.24c-.19-.34-.19-.7-.02-1.08h-1.73c.34.54.56,1.05.72,1.67.21.86,1.39.95,1.83.24.31-.49.61-.98.92-1.47h-1.73c.66.98.98,1.98.97,3.17l1.96-.27c-.22-.8-.27-1.53-.2-2.35l-1.96.27c.36,1.68.55,3.37.59,5.09l1.96-.27c-.53-2.11-1.06-4.22-1.58-6.32-.29-1.17-1.85-.79-1.96.27-.17,1.57-.33,3.15-.5,4.72l1.71-.71c-.47-.4-.81-.81-1.04-1.39-.3-.76-1.37-1.05-1.83-.24-.57,1.01-.86,2.06-.93,3.22l1.86-.5c-.48-.88-.95-1.75-1.43-2.63-.3-.55-1.14-.67-1.57-.2-.68.73-1.15,1.51-1.52,2.43l1.47-.6c-.26-.15-.47-.35-.63-.61-.44-.65-1.28-.64-1.73,0-1.18,1.7-2.37,3.4-3.55,5.11h1.73c-.54-.72-.74-1.41-.65-2.31.11-1.13-1.71-1.35-1.96-.27-.16.67-.31,1.34-.47,2.01l1.96.27c.06-.82.34-1.55.86-2.19l-1.57-.2c.46.69.79,1.4,1.02,2.2.2.68.88.86,1.47.6,1.8-.79,1.36-2.86,1.49-4.43.2-2.35,2.59-3.78,4.41-4.87l-1.21-1.57c-1.04,1.29-2.07,2.58-3.11,3.88-.85,1.06-1.84,2.11-2.43,3.35-1.1,2.26-.9,4.86-.24,7.21,1.51,5.41,4.62,10.58,7.98,15.02l1.57-1.21c-6.23-4.86-10.57-11.74-12.24-19.47l-1.67.97c5.39,6.55,5.51,15.77,10.26,22.71.72,1.05,2.42.1,1.73-1.01-4.1-6.58-8.2-13.17-12.3-19.75-.69-1.11-2.27-.14-1.73,1.01,1.73,3.67,3.46,7.34,5.19,11.01.89,1.89,1.81,3.76,2.67,5.66.38.84.76,1.75.81,2.68,0,.15.02,1.16-.17,1.19-.23.04-.48-1.07-.52-1.26-1.72-7.22-4.39-14.05-8.31-20.38l-.16,1.21c5.2-6.46,14.65-9.55,16.85-18.27.23-.91-.99-1.76-1.67-.97-5.96,6.93-12.91,12.93-20.66,17.8-.57.36-.73,1.42,0,1.73,1.78.76,2.93,2.2,3.9,3.82,1.15,1.93,2.16,3.95,3.21,5.93,1.11,2.11,2.38,4.25,3.06,6.55.74,2.49.32,4.97-.17,7.46-.14.69.46,1.49,1.23,1.23,2-.68,3.7-1.86,5.53-2.89s3.78-1.67,5.85-1.88c3.95-.4,7.88.67,11.07,3.04.82.61,1.88-.56,1.37-1.37-1-1.56-2-3.11-3-4.67l-1.13,1.47c.31.12.61.23.92.35.79.3,1.63-.78,1.13-1.47-.21-.28-.73-.92-.64-1.29.05-.21.02-.07.24.11.25.21.42.51.58.78.4.68,1.69.65,1.83-.24s.28-1.77.42-2.65l-1.47.6c1.21.89,2.25,1.98,3.1,3.22.38.56,1.06.64,1.57.2,2.28-1.95,4.56-3.9,6.84-5.86,1.17-1,2.4-1.95,3.51-3.01.72-.68,1.25-1.51.84-2.52s-1.35-1.89-1.92-2.83c-.7-1.15-1.31-2.36-1.74-3.64-.85-2.52-1.02-5.13-.18-7.68l-1.96-.27c0,2.85.27,5.68.79,8.48.28,1.47.63,2.92,1.05,4.36.22.74.53,1.39.18,2.11-.3.61-.96,1.18-1.38,1.71-3.13,3.99-4.91,8.85-5.17,13.91-.06,1.12,1.7,1.36,1.96.27.75-3.16,2.15-6.15,4.18-8.69.94-1.19,2.01-2.28,3.17-3.25.86-.72,3.34-3,4.54-2.38v-1.73c-1.92,1.15-4.71-8.95-4.92-10.24-.65-4.01,0-8.17,2.24-11.59l-1.83-.77c-1.63,4.11-6.18,6.46-10.48,6.26-4.72-.23-8.9-3.32-11.46-7.14-.71-1.06-2.38-.12-1.73,1.01,1.11,1.92,2.33,3.76,3.66,5.53.76,1.01,2.49.04,1.73-1.01-2.18-3.02-3.98-6.29-5.32-9.77l-1.93.53c.74,1.89,1.49,3.79,2.23,5.68.46,1.18,2.37.7,1.93-.53-.87-2.45-1.74-4.89-2.61-7.34-.43-1.21-2.18-.74-1.93.53s.47,2.41.71,3.62l1.93-.53c-.73-2.61-1.44-5.3-.56-7.95l-1.96-.27c-.81,7.24-.66,14.54.44,21.73.54,3.58,1.37,7.09,2.32,10.57s2.01,7.16,2.44,10.85l1.71-.71c-.24-.12-.29-.29-.16-.53h-1.41c1.51,1.27,2.7,2.75,3.62,4.49.44.83,1.98.5,1.86-.5-.07-.58-.14-1.17-.21-1.75l-1.71.71c.95.89,1.69,1.89,2.28,3.05l1.73-1.01c-.77-1.28-1.34-2.61-1.74-4.04l-1.83.77c1.55,2.49,2.91,5.09,4.04,7.8l1.83-.77c-1.63-2.5-3.05-5.11-4.26-7.84l-1.73,1.01c1.65,2.55,3.18,5.17,4.61,7.86.61,1.16,2.25.14,1.73-1.01-.64-1.4-1.27-2.81-1.91-4.21l-1.73,1.01c1.11,1.68,2.07,3.44,2.87,5.29l1.73-1.01c-.38-.77-.66-1.54-.86-2.37l-1.93.53c.22.58.44,1.16.66,1.74.45,1.19,2.36.69,1.93-.53-.49-1.37-.98-2.75-1.46-4.12l-1.83.77c.32.56.65,1.13.97,1.69.58,1.01,2.06.32,1.83-.77-.4-1.82-.79-3.64-1.19-5.46l-1.83.77c.88,1.98,1.64,4,2.3,6.06.4,1.24,2.16.72,1.93-.53-.25-1.37-.36-2.73-.35-4.12l-1.86.5c.71,1.39,1.42,2.78,2.13,4.18.46.91,1.86.45,1.86-.5.02-2.48.04-4.95.06-7.43.01-1.29-1.95-1.28-2,0-.26,6.58-.45,13.34,1.89,19.61l1.83-.77c-3.87-8.87-13.37-15.51-23.23-12.36l.97,1.67c.24-.24.47-.47.71-.71.57-.57.18-1.79-.71-1.71-2.37.22-4.46,1.12-6.21,2.73-.71.65.03,2.02.97,1.67,1.23-.45,2.26-1.12,3.1-2.13.59-.71.06-2.01-.97-1.67-2.7.89-5.09,2.36-7.08,4.39-.81.82.21,2.1,1.21,1.57,1.36-.72,2.43-1.72,3.3-2.99.58-.85-.54-1.85-1.37-1.37-3.77,2.19-6.6,5.54-8.22,9.57l1.93.53c2.14-7.39,2.74-15.52.3-22.92-1.09-3.31-2.75-7.06-5.76-9.06-1.69-1.13-3.76-1.6-5.73-1.96-2.17-.4-4.36-.6-6.57-.62v2c3.99,0,7.94-.98,11.44-2.93,3.77-2.11,7.06-5.17,10.42-7.85l-1.57-1.21c-.88,1.83-2.22,3.16-4.06,4.03l1.01,1.73c6.8-4.88,12.21-11.47,15.6-19.13l-1.83-.77c-.32.9-.64,1.8-.96,2.71-.37,1.05,1.37,1.81,1.83.77.2-.45.39-.89.59-1.34.5-1.15-1.11-2.17-1.73-1.01-.44.84-.67,1.63-.79,2.57-.13.99,1.45,1.36,1.86.5,1.5-3.08,2.34-6.36,2.5-9.78.05-1.11-1.74-1.38-1.96-.27-.77,3.86-1,7.77-.66,11.69l1.96-.27c-.29-1.39-.44-2.79-.47-4.21h-2l.28,5.69c.06,1.28,1.99,1.3,2,0l.02-3.86c0-1.29-1.99-1.29-2,0h0Z"/>
  <path class="cls-1" d="M91.5,73.33c.17,2.24.41,4.47.72,6.69.05-2.45.2-4.89.44-7.33.35,2.61.53,5.24.53,7.87.18-1.83.37-3.66.55-5.49.36,1.4.37,2.88.01,4.28-.11-.56-.05-1.14.18-1.66.42.69.49,1.59.18,2.34.1-2.4-.14-4.82-.72-7.15-.06-.23-.21-.52-.44-.47-.18.04-.25.25-.28.42-.14.76-.13,1.54,0,2.29.53-1.63.56-3.42.09-5.07-.06-.2-.13-.41-.27-.56-.38-.41-1.13-.21-1.45.25s-.35,1.06-.36,1.62c0,.2.03.46.23.51.17.04.32-.12.41-.28.44-.73.66-1.58.62-2.43-.02-.36-.08-.73-.29-1.01s-.6-.47-.93-.36c-.2.07-.36.23-.51.39-.63.67-1.25,1.53-1.03,2.42.03.11.07.22.16.29.22.17.53-.04.72-.25.72-.82,1.17-1.88,1.24-2.97.01-.17.01-.35-.05-.51-.18-.44-.8-.54-1.22-.32s-.68.64-.93,1.04c.08.26.39.4.66.38s.52-.17.75-.32c.42-.26.82-.54,1.22-.83.16-.12.34-.27.36-.47.03-.44-.62-.52-1.04-.39-1.39.42-2.66,1.28-3.56,2.42.71.32,1.65.02,2.03-.66-.33-.05-.68.21-.74.54"/>
  <path class="cls-1" d="M92.58,76.84c-.15,1.72-.29,3.43-.44,5.15h2l.12-5.06h-2l.08,4.8c.02,1.08,1.78,1.42,1.96.27.25-1.57.5-3.13.75-4.7l-1.96-.27.31,3.31c.12,1.29,1.86,1.28,2,0l.29-2.6h-2l-.04,1.82h2c-.48-3.67-1.36-7.23-2.68-10.69-.33-.87-1.66-1.03-1.93,0-.4,1.54-.37,3.07.12,4.58.3.91,1.67.99,1.93,0,.67-2.52.35-5.09-.88-7.39-.34-.64-1.39-.66-1.73,0-1.11,2.18-1.37,4.55-.7,6.91.24.85,1.37.96,1.83.24,1.21-1.91,1.12-4.62-.66-6.17-1.65-1.43-4.25-1.3-5.75.25-.57.59-.23,1.39.44,1.67,2.09.88,4.49.59,6.33-.74.61-.44.67-1.3,0-1.73-1.32-.85-2.82-.86-4.2-.14-.7.36-.6,1.34,0,1.73,1.92,1.23,4.29.97,5.99-.49.61-.52.22-1.45-.44-1.67-2.19-.73-5.89.81-5.59,3.58.17,1.51,1.77,1.49,2.78.84,1.28-.82,2.11-2.23,2.31-3.72.1-.73-.68-1.73-1.47-1.13-1.95,1.48-3.3,3.47-3.79,5.88-.17.84.68,1.58,1.47,1.13,1.7-.97,2.47-2.79,2.12-4.7-.14-.76-1.17-.93-1.67-.44-1.59,1.57-2.85,3.38-3.74,5.42-.44,1.01.68,2.02,1.57,1.21,1.2-1.1,2.23-2.31,3.14-3.66l-1.73-1.01c-.44.91-1.18,1.98-1.34,2.99-.18,1.09.67,1.39,1.31,2.05,1.49,1.53.98,4.1-.03,5.73-1.22,1.96-3.14,3.38-4.77,4.98-1.86,1.83-3.49,3.87-4.92,6.05l1.83.24c-.12-.87-.25-1.74-.37-2.61-.14-.97-1.76-.94-1.93,0-.22,1.21-.44,2.41-.66,3.62h1.93c-.6-1.94-1.2-3.88-1.8-5.82-.28-.89-1.71-1.01-1.93,0-.35,1.59-.27,3.15.34,4.67.35.88,1.63,1.01,1.93,0,.27-.92.36-1.82.24-2.78-.13-1.06-1.63-1.43-1.96-.27-.26.92-.35,1.81-.25,2.76.14,1.27,1.89,1.3,2,0,.04-.46.15-.81.32-1.24.49-1.19-1.45-1.71-1.93-.53-.24.58-.35,1.14-.4,1.77h2c-.09-.79-.04-1.47.17-2.23l-1.96-.27c.1.79.06,1.48-.17,2.24h1.93c-.47-1.19-.61-2.35-.34-3.61h-1.93c.6,1.94,1.2,3.88,1.8,5.82.27.88,1.74,1.03,1.93,0,.22-1.21.44-2.41.66-3.62h-1.93c.12.87.25,1.74.37,2.61.13.92,1.41.88,1.83.24,1.49-2.28,3.22-4.36,5.21-6.23,1.68-1.58,3.53-3.1,4.68-5.14.92-1.64,1.28-3.62.81-5.46-.23-.88-.66-1.71-1.29-2.36-.16-.17-.41-.3-.55-.48-.34-.41-.08.01-.02-.19.17-.66.64-1.33.93-1.94.55-1.16-1-2.08-1.73-1.01-.82,1.2-1.76,2.27-2.83,3.25l1.57,1.21c.83-1.9,1.95-3.56,3.43-5.02l-1.67-.44c.19,1.03-.32,1.94-1.2,2.44l1.47,1.13c.38-1.87,1.33-3.52,2.87-4.69l-1.47-1.13c-.09.63-.25,1.21-.62,1.73-.13.19-.73.6-.77.79l.22.66c.05-.17.12-.33.22-.47.6-.97,1.8-1.29,2.84-.95l-.44-1.67c-1.04.89-2.44.9-3.57.18v1.73c.76-.4,1.48-.3,2.18.14v-1.73c-1.46,1.06-3.13,1.23-4.78.53l.44,1.67c.83-.86,2.3-.92,3.16-.03.95.96.77,2.48.11,3.53l1.83.24c-.52-1.83-.37-3.66.5-5.36h-1.73c.98,1.83,1.21,3.84.68,5.84h1.93c-.39-1.19-.44-2.31-.12-3.52h-1.93c1.25,3.28,2.15,6.68,2.61,10.16.16,1.24,1.97,1.33,2,0l.04-1.82c.03-1.32-1.86-1.25-2,0l-.29,2.6h2l-.31-3.31c-.1-1.03-1.77-1.47-1.96-.27-.25,1.57-.5,3.13-.75,4.7l1.96.27-.08-4.8c-.02-1.29-1.97-1.29-2,0l-.12,5.06c-.03,1.3,1.89,1.26,2,0,.15-1.72.29-3.43.44-5.15.11-1.28-1.89-1.28-2,0h0Z"/>
  <path class="cls-1" d="M73.39,42.98c-.08,2.97,0,5.94.24,8.9.05.63,1.03.65,1,0-.19-4.24.97-8.56-.29-12.72-.17-.57-.92-.41-.98.13-.21,1.75-.43,3.5-.64,5.25h1l.3-2.99c.06-.64-.93-.63-1,0-.61,5.54-2.05,11.08-5.21,15.73l.91.39c1.3-4.45,2.61-8.89,3.91-13.34.18-.62-.76-.87-.96-.27-2.05,6-4.73,12-9.45,16.39l.79.61c2.34-4.48,6.87-7.4,8.87-12.09.2-.47-.39-1.09-.79-.61-1.8,2.24-3.63,4.47-5.37,6.76-.82,1.09-1.57,2.23-2.35,3.35s-1.85,2.07-2.95,2.97c-2.19,1.81-4.38,3.62-6.69,5.27s-4.55,3.13-7.13,4.09c-2.89,1.08-5.95,1.52-8.99,1.96l.27.96c4.11-1.54,8.27-2.99,12.32-4.68,1.87-.78,3.71-1.66,5.39-2.81s3.28-2.64,4.85-4.04c1.92-1.71,3.84-3.42,5.77-5.14l-.71-.71c-2.68,3.14-5.69,6.01-8.98,8.51-1.6,1.22-3.27,2.36-4.99,3.41s-3.76,2.47-5.93,2.21l.13.98c2.35-.94,4.7-1.87,7.05-2.81l-.39-.91c-.38.23-.76.45-1.14.68-.55.33-.05,1.19.5.86.38-.23.76-.45,1.14-.68.47-.28.16-1.13-.39-.91-2.35.94-4.7,1.87-7.05,2.81-.54.21-.44.91.13.98,2.15.26,4.11-.97,5.88-2.02,1.86-1.1,3.65-2.31,5.37-3.61,3.43-2.59,6.56-5.54,9.35-8.8.42-.49-.22-1.14-.71-.71-1.65,1.47-3.3,2.93-4.94,4.4s-3.13,2.89-4.83,4.16c-3.29,2.45-7.23,3.76-11.03,5.18-2.36.89-4.72,1.78-7.08,2.66-.61.23-.37,1.06.27.96,2.74-.4,5.49-.8,8.13-1.66s4.99-2.25,7.25-3.81,4.57-3.4,6.76-5.2c1.07-.88,2.2-1.72,3.14-2.74s1.63-2.23,2.43-3.35c1.93-2.73,4.11-5.29,6.19-7.9l-.79-.61c-2,4.69-6.54,7.61-8.87,12.09-.26.5.36,1,.79.61,4.85-4.5,7.6-10.67,9.71-16.83l-.96-.27c-1.3,4.45-2.61,8.89-3.91,13.34-.17.57.61.84.91.39,3.27-4.8,4.72-10.53,5.35-16.23h-1l-.3,2.99c-.06.64.92.63,1,0,.21-1.75.43-3.5.64-5.25l-.98.13c1.23,4.06.07,8.31.26,12.45h1c-.24-2.96-.32-5.93-.24-8.9.02-.64-.98-.64-1,0h0Z"/>
  <path class="cls-1" d="M60.93,68.82c-2.37,1.67-4.75,3.34-7.12,5l.73.56c.2-.74.43-1.47.6-2.22.1-.48.09-.99-.3-1.35-.78-.7-1.95-.15-2.75.17-1.33.52-2.72.96-4.14,1.13-.7.08-1.42.1-2.12.02-.43-.05-1.76-.16-1.81-.77l-.5.5c1.17-.14,2.34-.28,3.52-.43l-.13-.98c-1.96.32-3.83,1.01-5.54,2.01-.32.19-.33.68,0,.86,2.3,1.25,4.89,1.49,7.41,2.05,2.18.49,4.5,1.33,5.79,3.28l.79-.61c-1.57-1.68-3.5-2.92-5.67-3.67-.53-.18-.88.65-.39.91,2.45,1.29,4.6,3.1,6.26,5.33l.68-.68c-1.52-1.04-2.8-2.35-4.04-3.7-1.03-1.12-2.07-2.64-3.73-2.71-.41-.02-.69.58-.35.85,3.03,2.47,6.25,5.12,7.74,8.85l.91-.39c-.89-1.83-1.79-3.66-2.68-5.49l-.86.5c1.96,3.78,3.76,7.65,5.4,11.58l.91-.39c-2.74-3.68-3.49-8.38-5.98-12.2-.35-.54-1.16-.07-.86.5,2.04,3.99,3.9,8.07,5.56,12.23l.91-.39c-1.61-2.66-2.45-5.66-3.26-8.63-.17-.62-1.13-.36-.96.27,1,3.72,2.07,7.43,3.22,11.11l.91-.39c-1.02-1.41-1.08-3.38-1.43-5.03-.39-1.83-.85-3.64-1.39-5.43-1.07-3.55-2.44-7.01-4.07-10.34-.13-.27-.59-.34-.79-.1-.44.55-.33,1.1-.23,1.75.01.09.1.35.05.43-.08.13-.25.03-.42,0-.58-.14-1.15-.28-1.73-.42l-.13.98c4.84.02,9.62-1.31,13.75-3.84.21-.13.34-.46.18-.68-.41-.56-1-.63-1.65-.46-.93.25-1.84.73-2.73,1.09-1.96.8-3.93,1.6-5.89,2.4l.39.91c1.93-1.27,3.86-2.53,5.79-3.8.54-.35.07-1.16-.5-.86-2.46,1.27-4.47,3.27-5.78,5.71l.91.39c.41-1.24.68-2.5.84-3.8l-.98.13,1.96,5.97c.18.54.95.44.98-.13.11-1.85-.11-3.7-.64-5.48-.17-.56-.93-.42-.98.13-.21,2.42-.07,4.84.4,7.22.09.47.89.49.96,0,.26-1.58.51-3.16.77-4.74.07-.41.47-4.22.97-4.11l-.35-.35c.3,2.12.34,4.27.14,6.4-.05.56.86.68.98.13.7-3.29,1.42-6.61,2.84-9.68l-.91-.39c-.6,2.78-1.44,5.5-2.5,8.14l.96.27c.74-2.12,1.43-4.26,2.08-6.41.16-.53-.67-.91-.91-.39-1.47,3.18-2.51,6.53-3.07,9.99-.1.63.85.9.96.27.38-2.07.46-4.17.23-6.26-.04-.39-.39-.61-.75-.43-.92.46-1.06,1.59-1.26,2.49-.28,1.28-.55,2.56-.79,3.84l.98.13c.24-2.33.83-4.62,1.75-6.77l-.93-.25c-.08,2.24-.16,4.47-.24,6.71-.02.48.71.7.93.25,1.98-4.03,3.96-8.06,5.94-12.09l-.91-.39c-.78,3.39-1.99,6.65-3.21,9.9l.96.27c.9-3.4,1.8-6.82,3.21-10.06l-.91-.39c-.56,2.48-.98,4.98-1.29,7.5-.06.48.56.6.85.35.78-.65,1.24-1.54,1.59-2.48.44-1.18.78-2.41,1.17-3.61.83-2.62,1.66-5.24,2.49-7.86l-.98-.13c-.17,1.77-.17,3.53,0,5.3.03.3.3.59.63.48.65-.22.9-.77,1.04-1.4.22-1.01.4-2.03.6-3.05.4-2.07.8-4.15,1.19-6.23l-.96-.27c-.04.31-.09.61-.13.92-.09.63.87.9.96.27.04-.31.09-.61.13-.92.09-.62-.84-.91-.96-.27-.33,1.75-.66,3.5-1,5.25-.17.85-.33,1.71-.5,2.56-.08.41-.16.81-.24,1.22-.05.25-.09.85-.39.95l.63.48c-.17-1.77-.17-3.53,0-5.3.06-.58-.82-.65-.98-.13-.78,2.46-1.56,4.92-2.34,7.38-.37,1.15-.72,2.31-1.1,3.46-.33,1-.72,1.97-1.55,2.67l.85.35c.3-2.43.72-4.84,1.26-7.23.12-.52-.68-.93-.91-.39-1.44,3.32-2.39,6.81-3.31,10.3-.17.63.74.86.96.27,1.22-3.25,2.43-6.51,3.21-9.9.12-.53-.65-.92-.91-.39-1.98,4.03-3.96,8.06-5.94,12.09l.93.25c.08-2.24.16-4.47.24-6.71.02-.47-.73-.72-.93-.25-1,2.33-1.63,4.76-1.88,7.28-.06.56.88.69.98.13.2-1.05.41-2.1.64-3.15.11-.5.21-1.01.34-1.51.1-.42.2-.87.62-1.08l-.75-.43c.22,2,.17,4.01-.19,5.99l.96.27c.55-3.37,1.54-6.65,2.97-9.75l-.91-.39c-.65,2.15-1.34,4.29-2.08,6.41-.21.62.73.85.96.27,1.06-2.64,1.9-5.36,2.5-8.14.11-.52-.66-.93-.91-.39-1.46,3.15-2.21,6.54-2.94,9.92l.98.13c.2-2.23.13-4.45-.18-6.66-.02-.16-.2-.32-.35-.35-1.72-.37-1.79,2.29-1.96,3.35-.34,2.07-.67,4.14-1.01,6.2h.96c-.46-2.29-.57-4.63-.37-6.95l-.98.13c.51,1.7.71,3.44.61,5.21l.98-.13-1.96-5.97c-.19-.56-.92-.41-.98.13-.15,1.2-.42,2.38-.8,3.53-.18.54.65.88.91.39,1.23-2.3,3.1-4.15,5.42-5.35l-.5-.86c-1.93,1.27-3.86,2.53-5.79,3.8-.44.29-.17,1.14.39.91,1.58-.64,3.16-1.29,4.73-1.93.77-.31,1.54-.63,2.31-.94.25-.1,1.84-.97,2.09-.62l.18-.68c-3.98,2.44-8.57,3.73-13.24,3.7-.56,0-.69.85-.13.98.67.16,1.33.36,2.01.49.43.08.89.03,1.18-.33.23-.29.25-.64.21-.99-.03-.27-.28-.93-.09-1.17l-.79-.1c1.66,3.39,3.04,6.91,4.1,10.54.52,1.76.96,3.54,1.33,5.33.34,1.66.44,3.53,1.46,4.94.31.43,1.09.2.91-.39-1.15-3.68-2.22-7.38-3.22-11.11l-.96.27c.84,3.06,1.71,6.14,3.37,8.87.28.46,1.13.16.91-.39-1.69-4.24-3.58-8.41-5.66-12.47l-.86.5c2.49,3.82,3.25,8.52,5.98,12.2.3.41,1.15.19.91-.39-1.67-4.02-3.5-7.96-5.5-11.82-.3-.57-1.14-.07-.86.5.89,1.83,1.79,3.66,2.68,5.49.24.5,1.13.14.91-.39-1.56-3.92-4.81-6.68-8-9.29l-.35.85c.82.03,1.41.66,1.94,1.23.56.61,1.11,1.23,1.68,1.83,1.12,1.18,2.3,2.3,3.65,3.22.4.27.98-.28.68-.68-1.76-2.37-4-4.31-6.62-5.69l-.39.91c2.01.69,3.78,1.86,5.23,3.41.38.41,1.1-.13.79-.61-3.03-4.58-9.25-3.34-13.56-5.69v.86c1.64-.96,3.42-1.6,5.3-1.91.55-.09.43-1.05-.13-.98-1.17.14-2.34.28-3.52.43-.25.03-.52.2-.5.5.09,1.11,1.16,1.51,2.13,1.68,1.31.23,2.64.16,3.94-.1s2.62-.76,3.9-1.25c.37-.14,1.24-.47,1.2.16-.05.73-.41,1.55-.6,2.26-.11.39.36.82.73.56,2.37-1.67,4.75-3.34,7.12-5,.52-.37.02-1.23-.5-.86h0Z"/>
  <path class="cls-1" d="M72.13,50.55c.47,4.72,1.35,9.38,2.64,13.94.11.39.72.52.91.12.57-1.2.35-2.54.19-3.81-.17-1.42-.41-2.83-.66-4.23-.52-2.91-1.09-5.82-1.19-8.78h-1c.29,3.93.89,7.84,1.83,11.67.14.58.93.4.98-.13.18-1.96-.14-3.91-.42-5.85s-.57-3.96-.85-5.95l-.96.27c.61,3.21,1.21,6.42,1.82,9.62.12.64,1.06.36.96-.27-.5-3.21-1-6.43-1.5-9.64l-.96.27c.83,3.4,1.45,6.84,1.87,10.31l.98-.13c-.71-3.68-1.41-7.37-2.12-11.05l-.96.27c1.51,4.84,1.99,9.96,3.92,14.67.24.58,1.18.35.96-.27-1.12-3.2-2.1-6.44-2.94-9.72l-.96.27c1.49,3.67,2.82,7.4,3.99,11.19l.73-.56c-.83-.42-1.2-1.32-1.57-2.12-.5-1.07-.97-2.15-1.4-3.25-.83-2.09-1.57-4.22-2.31-6.34-.15-.43-.86-.52-.96,0-.46,2.21-.4,4.55-.51,6.8-.12,2.36-.24,4.72-.35,7.08l.98-.13c-.91-4.56-.55-9.35-.53-13.97,0-.54-.65-.62-.93-.25-.73.97-1.11,2.14-1.35,3.32-.28,1.35-.47,2.73-.64,4.1-.35,2.89-.52,5.8-.68,8.71h1c-.3-5.2.81-10.3,1.93-15.34.09-.39-.36-.84-.73-.56-1.11.79-1.43,2.13-1.76,3.38-.4,1.56-.7,3.14-.92,4.74-.45,3.21-.62,6.44-.79,9.67h1c.05-3.92.52-7.81,1.42-11.62l-.98-.13c-.47,3.9-.93,7.8-.9,11.73,0,.65.97.64,1,0,.1-2.1.16-4.2.2-6.3.02-1.03.03-2.06.04-3.09,0-.82.04-1.65-.39-2.38-.16-.27-.56-.34-.79-.1-.6.64-.68,1.45-.76,2.28-.11,1.11-.2,2.23-.27,3.34-.16,2.27-.26,4.55-.31,6.82h1c-.17-2.65-.08-5.31.27-7.95l-.98-.13c.29,3.22.59,6.45.88,9.67.06.64.97.65,1,0,.17-3.1.33-6.21.5-9.31h-1c0,.69,0,1.38,0,2.08,0,.64,1,.64,1,0,0-.69,0-1.38,0-2.08,0-.65-.97-.64-1,0-.17,3.1-.33,6.21-.5,9.31h1c-.29-3.22-.59-6.45-.88-9.67-.05-.51-.9-.73-.98-.13-.37,2.73-.48,5.47-.31,8.21.04.64.99.65,1,0,.04-2.03.13-4.05.26-6.08.06-.99.14-1.98.22-2.97.07-.81-.03-2.05.57-2.69l-.79-.1c.43.74.26,1.8.25,2.62,0,.95-.02,1.89-.04,2.84-.04,1.94-.11,3.87-.19,5.8h1c-.03-3.93.43-7.84.9-11.73.07-.56-.85-.67-.98-.13-.92,3.9-1.41,7.88-1.46,11.88,0,.65.97.64,1,0,.15-2.95.3-5.91.67-8.84.19-1.47.44-2.94.78-4.39.27-1.15.48-2.96,1.52-3.7l-.73-.56c-1.14,5.12-2.27,10.32-1.97,15.6.04.64.96.64,1,0,.16-2.75.31-5.5.63-8.23.15-1.34.34-2.68.6-4.01.23-1.21.56-2.38,1.31-3.38l-.93-.25c-.02,4.72-.36,9.58.56,14.23.11.58.96.41.98-.13.11-2.28.23-4.55.34-6.83s.03-4.59.49-6.78h-.96c.81,2.35,1.63,4.7,2.57,7,.45,1.1.92,2.19,1.44,3.25.4.82.88,1.62,1.73,2.05.37.19.87-.12.73-.56-1.17-3.78-2.5-7.52-3.99-11.19-.24-.58-1.13-.38-.96.27.84,3.28,1.82,6.53,2.94,9.72l.96-.27c-1.93-4.71-2.41-9.83-3.92-14.67-.19-.62-1.08-.36-.96.27.71,3.68,1.41,7.37,2.12,11.05.1.55,1.05.43.98-.13-.42-3.56-1.06-7.09-1.9-10.58-.16-.64-1.06-.35-.96.27.5,3.21,1,6.43,1.5,9.64l.96-.27c-.61-3.21-1.21-6.42-1.82-9.62-.12-.64-1.05-.36-.96.27.27,1.9.54,3.8.82,5.7s.59,3.87.42,5.83l.98-.13c-.91-3.75-1.51-7.56-1.79-11.4-.05-.63-1.02-.65-1,0,.09,2.73.57,5.43,1.05,8.11.24,1.32.48,2.65.67,3.98.11.74.2,1.48.26,2.22.06.68.1,1.38-.19,2.01l.91.12c-1.27-4.47-2.14-9.05-2.6-13.67-.06-.63-1.06-.64-1,0h0Z"/>
  <path class="cls-1" d="M73.43,55.27c1.74,4.41,3.86,8.66,6.34,12.7.3.48,1.05.17.91-.39-1.21-4.93-4.23-9.22-5.14-14.24l-.91.39c1.67,2.85,3.13,5.82,4.36,8.9l.91-.39c-1.51-3.49-3.02-6.97-4.53-10.46l-.86.5c1.52,2.95,3.04,5.91,4.56,8.86l.86-.5c-1.77-3.23-3.54-6.47-4.74-9.96l-.91.39c1.73,3.58,3.35,7.22,4.85,10.91l.91-.39c-1.74-3.72-3.29-7.53-4.64-11.4-.21-.6-1.18-.34-.96.27l2.52,7.27.91-.39c-1.91-3.29-2.44-7.1-2.92-10.81-.08-.64-.93-.65-1,0-.17,1.48.24,3.03.56,4.47.33,1.51.74,3,1.23,4.46.96,2.9,2.22,5.69,3.74,8.34.32.57,1.14.07.86-.5-1.5-3.12-2.88-6.3-4.13-9.53l-.91.39c1.82,2.76,3.54,5.58,5.17,8.46l.86-.5c-1.68-2.61-3.35-5.21-5.03-7.82l-.86.5c2.04,3.01,4.08,6.01,6.11,9.02l.86-.5c-2.18-2.94-4.17-6.01-5.95-9.21l-.79.61c2.29,2.89,4.38,5.94,6.27,9.11l.86-.5c-2.17-2.94-4.18-5.99-6-9.16l-.86.5c2.09,3.48,4.22,6.98,7.15,9.83.47.46,1.11-.22.71-.71-1.31-1.57-2.61-3.15-3.92-4.72l-.71.71c1.99,1.97,4.16,3.76,6.47,5.35.49.34.97-.38.61-.79-1.33-1.47-2.83-2.76-4.48-3.86l-.39.91c1.87.52,3.41,1.79,5.21,2.47,2.13.8,4.22.2,6.3-.44,1.98-.62,4.29-1.16,5.95-2.45.76-.59,1.25-1.37,1.56-2.28.33-.96.48-1.97,1-2.86.29-.49-.38-1.01-.79-.61-2.32,2.37-4.8,4.58-7.43,6.6-.4.31-.2,1.13.39.91,1.73-.63,3.29-1.57,4.65-2.8.3-.27.08-.9-.35-.85-1.85.22-3.07,1.53-4.45,2.64-1.69,1.37-3.84,1.83-5.83.75l-.39.91c2.12.43,4.52.82,6.43-.49.53-.36.03-1.23-.5-.86-1.68,1.15-3.8.76-5.66.38-.53-.11-.91.63-.39.91,1.85,1,4.13,1,5.93-.1,1.6-.97,2.88-2.92,4.85-3.15l-.35-.85c-1.23,1.11-2.65,1.98-4.21,2.55l.39.91c2.69-2.08,5.24-4.33,7.63-6.76l-.79-.61c-.96,1.62-.8,3.81-2.46,4.98s-3.8,1.64-5.68,2.23c-2.03.63-3.93,1.11-5.95.21-1.63-.73-3.07-1.82-4.81-2.31-.56-.16-.85.61-.39.91,1.58,1.06,3,2.3,4.28,3.71l.61-.79c-2.24-1.54-4.33-3.28-6.26-5.19-.47-.46-1.11.22-.71.71,1.31,1.57,2.61,3.15,3.92,4.72l.71-.71c-2.87-2.79-4.94-6.22-6.99-9.63-.33-.55-1.19-.05-.86.5,1.83,3.16,3.83,6.22,6,9.16.37.5,1.2.06.86-.5-1.93-3.25-4.08-6.35-6.42-9.31-.36-.46-1.05.13-.79.61,1.78,3.2,3.77,6.28,5.95,9.21.38.51,1.23.04.86-.5-2.04-3.01-4.08-6.01-6.11-9.02-.36-.53-1.21-.04-.86.5,1.68,2.61,3.35,5.21,5.03,7.82.35.54,1.18.06.86-.5-1.63-2.88-3.36-5.7-5.17-8.46-.29-.44-1.13-.17-.91.39,1.28,3.31,2.7,6.57,4.23,9.77l.86-.5c-1.48-2.58-2.7-5.29-3.64-8.1-.45-1.36-.84-2.73-1.16-4.13s-.77-3.04-.59-4.53h-1c.51,3.89,1.06,7.87,3.06,11.32.28.48,1.1.16.91-.39l-2.52-7.27-.96.27c1.38,3.96,2.96,7.85,4.74,11.64.24.51,1.13.14.91-.39-1.53-3.77-3.18-7.48-4.95-11.15-.25-.51-1.1-.15-.91.39,1.23,3.57,3.03,6.9,4.84,10.2.31.57,1.16.07.86-.5-1.52-2.95-3.04-5.91-4.56-8.86-.3-.58-1.11-.07-.86.5,1.51,3.49,3.02,6.97,4.53,10.46.22.51,1.12.14.91-.39-1.26-3.15-2.74-6.21-4.46-9.14-.3-.51-1.01-.15-.91.39.91,5.02,3.93,9.31,5.14,14.24l.91-.39c-2.43-3.97-4.53-8.13-6.24-12.46-.23-.59-1.2-.33-.96.27h0Z"/>
  <path class="cls-1" d="M97.73,61.22l-1.34,9.91.98.13c-.04-3.46.95-6.79,1.94-10.07l-.98-.13c-.37,2.75-.73,5.5-1.1,8.25-.07.55.89.69.98.13.51-3.1,1.02-6.21,1.53-9.31l-.96-.27c-.4,2.49-.96,4.95-1.69,7.36l.96.27.92-6.71c.08-.62-.84-.91-.96-.27-1.02,5.43-1.16,10.97-1.27,16.48h1c-.22-2.89-.29-5.78-.22-8.68l-.98.13c.81,3.7,1.78,7.36,2.89,10.98l.96-.27-2.59-6.34c-.24-.58-1.18-.35-.96.27.78,2.22,1.77,4.35,2.96,6.38.33.56,1.13.07.86-.5-.55-1.16-1.09-2.33-1.64-3.49l-.79.61c1.31,1.59,2.61,3.19,3.92,4.78l.71-.71c-.87-.82-1.58-1.74-2.15-2.78l-.79.61c.99.83,1.98,1.67,2.96,2.5l.71-.71c-1.21-.99-2.29-2.11-3.21-3.37l-.79.61c.99,1.06,1.95,2.15,2.87,3.27l.71-.71c-.74-.67-1.42-1.4-2.02-2.19-.38-.5-1.23-.04-.86.5,1.26,1.87,3.05,3.25,5.18,3.98l.13-.98c-2.16,0-4.19.75-6.16,1.57-1.6.66-3.26,1.34-4.24,2.85-.33.52.37.93.79.61,1.46-1.13,3.06-2.06,4.76-2.77l-.39-.91c-2.19,1.17-3.96,3-5.04,5.23-.28.58.5,1.04.86.5,1.23-1.81,2.45-3.63,3.68-5.44.46-.68.97-1.42.92-2.28-.05-.71-.46-1.28-1.12-1.53-.21-.08-.45.06-.56.23-.55.84-.93,1.75-1.15,2.73h.96c-.68-4.01-1.68-7.95-3-11.79-.17-.5-1.02-.46-.98.13.13,1.87.39,3.73.8,5.56.06.26.37.43.62.35.61-.19.76-.74.76-1.32,0-1.04-.12-2.08-.17-3.12-.11-2.04-.23-4.07-.34-6.11-.04-.65-.94-.64-1,0-.17,1.76-.33,3.52-.5,5.27h1c.1-2.34.2-4.68.3-7.02.03-.58-.81-.65-.98-.13-.53,1.62-1.02,3.25-1.49,4.89-.18.62.78.88.96.27l1.19-4.02c.16-.53-.69-.92-.91-.39-.72,1.68-1.24,3.42-1.51,5.24-.08.52.61.92.91.39.37-.66.87-1.75.66-2.53-.25-.95-1.54-.45-2.18-.34s-.36,1.08.27.96c.31-.06.92-.28,1.22-.17l-.3-.23c.1.19-.08.68-.13.87-.09.33-.23.63-.4.93l.91.39c.26-1.72.72-3.4,1.41-5l-.91-.39-1.19,4.02.96.27c.47-1.64.97-3.27,1.49-4.89l-.98-.13c-.1,2.34-.2,4.68-.3,7.02-.03.65.94.63,1,0,.17-1.76.33-3.52.5-5.27h-1c.09,1.66.19,3.33.28,4.99.04.79.09,1.58.13,2.37.01.2.24,2.18.08,2.23l.62.35c-.38-1.75-.64-3.51-.76-5.3l-.98.13c1.32,3.84,2.32,7.78,3,11.79.08.49.86.46.96,0,.2-.9.54-1.72,1.05-2.49l-.56.23c1.33.5-.97,3.19-1.34,3.75-.91,1.34-1.82,2.69-2.72,4.03l.86.5c1.02-2.09,2.63-3.78,4.68-4.88.49-.26.15-1.14-.39-.91-1.87.78-3.6,1.79-5.2,3.03l.79.61c.9-1.39,2.6-1.97,4.06-2.56,1.75-.71,3.56-1.35,5.47-1.36.58,0,.66-.8.13-.98-1.87-.64-3.48-1.88-4.59-3.52l-.86.5c.66.87,1.37,1.67,2.18,2.39.49.44,1.11-.21.71-.71-.92-1.12-1.88-2.21-2.87-3.27-.38-.4-1.13.14-.79.61.97,1.33,2.09,2.53,3.37,3.57.49.4,1.2-.29.71-.71-.99-.83-1.98-1.67-2.96-2.5-.42-.36-1.07.09-.79.61.61,1.11,1.39,2.11,2.31,2.98.48.45,1.11-.22.71-.71-1.31-1.59-2.61-3.19-3.92-4.78-.38-.47-1.01.13-.79.61.55,1.16,1.09,2.33,1.64,3.49l.86-.5c-1.15-1.95-2.11-4-2.86-6.14l-.96.27,2.59,6.34c.24.58,1.16.37.96-.27-1.11-3.62-2.08-7.28-2.89-10.98-.12-.56-.97-.42-.98.13-.07,2.89,0,5.79.22,8.68.05.64.99.65,1,0,.11-5.42.23-10.87,1.23-16.22l-.96-.27-.92,6.71c-.08.62.77.9.96.27.73-2.41,1.29-4.87,1.69-7.36.1-.63-.86-.9-.96-.27-.51,3.1-1.02,6.21-1.53,9.31l.98.13c.37-2.75.73-5.5,1.1-8.25.08-.58-.83-.65-.98-.13-1.02,3.37-2.02,6.79-1.98,10.34,0,.54.9.71.98.13l1.34-9.91c.08-.63-.88-.9-.96-.27h0Z"/>
  <path class="cls-1" d="M63.08,81.82c-.56,3.27-1.13,6.54-1.69,9.82l.98.13c-.19-3.3-.37-6.6-.56-9.89-.04-.65-.93-.63-1,0-.27,2.56-.5,5.12-.7,7.68-.1,1.24-.18,2.48-.26,3.72-.04.66-.08,1.32-.12,1.99-.02.33-.04.66-.06.99,0,.17-.02.33-.03.5-.07.18-.02.19.15.03l.35.15-.05.39-.49.13h.07c-.12-.19-.23-.4-.35-.61-1.26,3.97-2.73,7.86-4.41,11.67l.93.25c.11-3.14,1.33-6.07,2.85-8.77s3.46-5.49,5.52-7.99l-.79-.61c-2,3.84-4.03,7.66-6.1,11.47l.91.39c.98-2.5,1.99-5.06,3.69-7.17l-.79-.61c-1.74,4.05-3.47,8.09-5.21,12.14-.25.58.58,1.09.86.5,1.68-3.53,4.02-6.68,6.92-9.3.48-.43-.23-1.14-.71-.71-1.62,1.45-3.14,3.02-4.53,4.69-.37.44.08,1.04.61.79,1.42-.68,2.66-1.66,3.65-2.87.33-.4-.1-1.13-.61-.79-1.44.98-2.72,2.15-3.81,3.5-.4.5.21,1.12.71.71,2.83-2.36,5.85-4.49,9.01-6.39l-.5-.86c-1.63,1.01-3.26,2.03-4.89,3.04-.55.34-.07,1.16.5.86,3.17-1.65,6.41-3.17,9.71-4.54.58-.24.38-1.11-.27-.96-2.04.47-4.09.94-6.13,1.41-1.58.36-3.75.74-4.22-1.34-.2-.88-.12-1.84-.07-2.73.06-1.06.18-2.12.36-3.17.34-1.98.81-3.93.46-5.94-.05-.29-.37-.39-.62-.35-.71.11-1.09.74-1.26,1.39-.24.89-.27,1.87-.37,2.79-.23,2.2-.36,4.4-.4,6.61l.98-.13c-.57-4.14-.5-8.35-1.32-12.45-.2-.99-.45-1.97-.77-2.92-.28-.82-.58-1.87-1.13-2.55-.41-.51-1.29-.73-1.69-.06-.23.39-.12.92-.1,1.35.03.62.06,1.24.08,1.85l.98-.13c-.37-1-.66-2.03-.88-3.07l-.91.39c.85,1.94,1.78,3.84,2.82,5.7.28.5,1.07.16.91-.39-.33-1.18-.77-2.33-1.31-3.44-.25-.51-1.07-.15-.91.39,1.33,4.6,2.46,9.25,3.37,13.95l.96-.27c-.51-1.96-.89-3.94-1.12-5.95l-.98.13c.51,2.78.81,5.58.9,8.4l.98-.13c-.42-2.2-.84-4.4-1.26-6.59-.12-.64-1.05-.35-.96.27.46,3.35.85,6.71,1.19,10.07l.98-.13c-.8-1.98-1.15-4.07-1.03-6.2l-.98.13,1.31,6.47c.1.48.86.47.96,0,.36-1.68.97-3.27,1.82-4.76l-.93-.25c.13,1.65-.13,3.28-.81,4.79l.91.39c.34-1.59.69-3.27,1.81-4.51l-.85-.35c-.13,1.35-.76,2.56-1.73,3.49l.84.49c.38-2.22,1.27-4.31,2.67-6.08l-.84-.49c-.37,1.07-.84,2.1-1.4,3.08l.93.25c.11-2.8.22-5.6.32-8.4.02-.56-.87-.69-.98-.13-.54,2.67-.43,5.38-.29,8.08.03.64.97.64,1,0l.53-11.28-.98.13.88,4.29c.08.39.58.46.84.22,1.03-.94.76-2.8.79-4.04.05-1.78.08-3.56.08-5.34s-.02-3.56-.07-5.34c-.04-1.63-.04-3.3-.54-4.87-.14-.44-.86-.51-.96,0-.67,3.41-.67,6.88,0,10.29.12.58.94.4.98-.13.3-3.88.23-7.78-.21-11.65-.06-.51-.87-.74-.98-.13-.55,3.06-.76,6.16-.64,9.27.03.64,1.02.65,1,0l-.21-5.7h-1c.15,1.47.29,2.94.44,4.41l.98-.13c-.2-1.05-.41-2.09-.61-3.14l-.96.27c.42,1.57.84,3.13,1.26,4.7.17.62,1.13.36.96-.27-.42-1.57-.84-3.13-1.26-4.7-.17-.63-1.09-.36-.96.27.2,1.05.41,2.09.61,3.14.11.55,1.04.43.98-.13-.15-1.47-.29-2.94-.44-4.41-.06-.63-1.02-.65-1,0l.21,5.7h1c-.12-3.02.07-6.03.6-9l-.98-.13c.44,3.87.52,7.77.21,11.65l.98-.13c-.64-3.22-.65-6.54,0-9.76h-.96c.47,1.49.46,3.06.5,4.6s.06,3.23.07,4.84-.02,3.23-.05,4.84c-.02.83-.04,1.66-.07,2.48-.02.62.05,1.39-.45,1.85l.84.22-.88-4.29c-.12-.57-.96-.41-.98.13l-.53,11.28h1c-.14-2.61-.27-5.24.25-7.81l-.98-.13c-.11,2.8-.22,5.6-.32,8.4-.02.5.69.67.93.25.61-1.06,1.1-2.17,1.5-3.32.16-.45-.53-.88-.84-.49-1.5,1.91-2.51,4.12-2.92,6.52-.08.48.45.85.84.49,1.18-1.12,1.87-2.58,2.03-4.2.04-.43-.58-.66-.85-.35-1.24,1.39-1.69,3.18-2.06,4.95-.11.52.67.93.91.39.75-1.67,1.09-3.46.95-5.29-.04-.47-.67-.71-.93-.25-.9,1.56-1.55,3.24-1.92,4.99h.96l-1.31-6.47c-.12-.58-.95-.41-.98.13-.12,2.21.24,4.41,1.07,6.47.19.47,1.04.48.98-.13-.35-3.45-.76-6.9-1.23-10.34l-.96.27c.42,2.2.84,4.4,1.26,6.59.11.56,1,.43.98-.13-.09-2.91-.41-5.81-.94-8.67-.1-.55-1.05-.43-.98.13.25,2.1.63,4.17,1.16,6.21.16.63,1.09.36.96-.27-.92-4.7-2.04-9.35-3.37-13.95l-.91.39c.5,1.03.9,2.09,1.21,3.2l.91-.39c-1.03-1.85-1.97-3.75-2.82-5.7-.24-.54-1.02-.14-.91.39.22,1.05.51,2.07.88,3.07.18.5,1.01.47.98-.13-.02-.46-.04-.93-.06-1.39,0-.21-.17-1.06-.05-1.18,0,0,.57,1.16.61,1.24.15.37.29.74.41,1.12.55,1.64.88,3.34,1.1,5.05.44,3.4.49,6.83.96,10.22.08.57.97.41.98-.13.03-1.8.12-3.6.28-5.39.08-.9.17-1.79.28-2.68.06-.51.06-1.64.73-1.75l-.62-.35c.39,2.28-.39,4.58-.67,6.83-.15,1.16-.23,2.33-.23,3.5,0,.84.09,1.71.51,2.45.9,1.59,2.83,1.55,4.41,1.23,2.28-.46,4.54-1.04,6.81-1.56l-.27-.96c-3.38,1.41-6.7,2.95-9.95,4.64l.5.86c1.63-1.01,3.26-2.03,4.89-3.04.54-.34.05-1.2-.5-.86-3.24,1.94-6.32,4.13-9.21,6.54l.71.71c1.04-1.29,2.25-2.41,3.61-3.35l-.61-.79c-.95,1.16-2.1,2.06-3.45,2.72l.61.79c1.4-1.67,2.91-3.24,4.53-4.69l-.71-.71c-2.95,2.67-5.36,5.9-7.07,9.5l.86.5c1.74-4.05,3.47-8.09,5.21-12.14.2-.47-.39-1.09-.79-.61-1.82,2.26-2.9,4.94-3.95,7.61-.21.53.65.88.91.39,2.07-3.8,4.1-7.62,6.1-11.47.25-.48-.41-1.07-.79-.61-2.16,2.62-4.13,5.42-5.79,8.39-1.56,2.8-2.77,5.84-2.88,9.08-.02.47.73.72.93.25,1.71-3.89,3.22-7.86,4.51-11.91.07-.23-.09-.58-.35-.62-1.26-.18-.69,1.84.29,1.17.51-.35.42-1.13.45-1.66.05-.95.11-1.9.17-2.86.24-3.77.56-7.53.95-11.28h-1c.19,3.3.37,6.6.56,9.89.03.53.88.72.98.13.56-3.27,1.13-6.54,1.69-9.82.11-.63-.86-.9-.96-.27h0Z"/>
  <path class="cls-1" d="M87.74,100.25c1.48,2.74,2.95,5.49,4.43,8.23l.79-.61-1.54-1.76c-.37-.42-1.11.14-.79.61.62.9,1.24,1.81,1.86,2.71l.79-.61c-.18-.22-.3-.42-.4-.69l-.91.39c.38.74.87,1.4,1.44,2.01.38.4,1.12-.13.79-.61-1.4-2-2.79-4-4.19-6l-.79.61,2.08,2.62c.35.44,1.11-.14.79-.61-2.03-2.94-4.06-5.89-6.09-8.83l-.86.5c1.78,2.42,3.56,4.84,5.35,7.26l.79-.61-4.55-5.55c-.41-.5-1.1.21-.71.71l2.99,3.84.71-.71-2.79-3c-.44-.48-1.12.22-.71.71l2.39,2.84.71-.71-2.77-2.99c-.44-.48-1.12.22-.71.71,1.34,1.55,2.67,3.1,4.01,4.65l.61-.79c-2.59-1.94-3.65-5.42-6.66-6.89-.49-.24-1.03.37-.61.79l2.08,2.07c.46.46,1.12-.22.71-.71-2.79-3.25-7.13-4.34-11.26-4.43-3.82-.09-8.16.28-11.07,3.05-.44.42.12,1,.61.79,2.93-1.29,5.94-2.58,9.18-2.7l-.13-.98c-.6.23-1.45.59-2.08.28-.66-.33-.76-1.38-.92-2.01-.46-1.79-.93-3.59-1.39-5.38-.14-.53-.25-1.31-.85-1.53-.54-.2-.98.17-1.18.65-.32.76-.48,1.62-.71,2.41-.26.89-.52,1.78-.77,2.67l.98.13c-.03-2.12-.08-4.23-.15-6.35-.01-.36-.31-.53-.63-.48-.84.11-1.15.97-1.37,1.67-.37,1.16-.7,2.33-1.01,3.51-.17.62.77.88.96.27.45-1.41.81-2.85,1.07-4.31.11-.63-.77-.89-.96-.27-.64,2.04-1.01,4.16-1.12,6.3-.02.47.73.71.93.25,1.19-2.66,2.39-5.32,3.95-7.8l-.91-.39c-.7,2.49-1.53,4.94-2.5,7.34l.96.27c.92-2.59,2.01-5.11,3.25-7.56l-.86-.5c-1.4,3.04-2.72,6.11-3.97,9.21-.21.52.66.89.91.39,1.25-2.48,2.51-4.99,4.37-7.08l-.61.08c.21.16-.33,1.4-.39,1.6-.23.69-.47,1.38-.73,2.07-.52,1.36-1.13,2.69-1.79,3.98l.86.5c1.04-2.44,2.25-4.8,3.63-7.07.34-.55-.52-1.04-.86-.5-1.35,2.1-2.79,4.13-4.31,6.11l.91.39c.97-2.75,2.14-5.42,3.51-8l-.91-.39c-1.32,3.17-2.5,6.4-3.55,9.67-.17.53.66.9.91.39,1.26-2.57,2.32-5.23,3.17-7.96.19-.62-.74-.86-.96-.27-.8,2.15-1.45,4.34-1.94,6.58-.11.5.46.82.84.49,1.46-1.3,1.71-3.63,3.38-4.7l-.73-.56c-.47,1.42-1.06,2.78-1.79,4.09-.31.56.53,1.06.86.5l1.38-2.28c.29-.47-.42-1.06-.79-.61-.72.9-1.25,1.88-1.59,2.98-.16.51.48.79.84.49,1.12-.97,2.14-2.04,3.05-3.21l-.79-.61-.24.39c-.3.48.4,1.03.79.61.46-.51.93-1.02,1.39-1.53.43-.48-.27-1.18-.71-.71-.46.51-.93,1.02-1.39,1.53l.79.61.24-.39c.29-.47-.43-1.06-.79-.61-.91,1.17-1.93,2.24-3.05,3.21l.84.49c.28-.93.72-1.78,1.33-2.54l-.79-.61-1.38,2.28.86.5c.77-1.38,1.4-2.83,1.89-4.33.13-.41-.37-.8-.73-.56-1.8,1.16-2.04,3.48-3.58,4.86l.84.49c.49-2.24,1.14-4.44,1.94-6.58l-.96-.27c-.83,2.65-1.85,5.23-3.07,7.72l.91.39c1.05-3.27,2.23-6.5,3.55-9.67.22-.52-.65-.88-.91-.39-1.41,2.65-2.62,5.4-3.61,8.24-.2.58.6.79.91.39,1.52-1.98,2.96-4.01,4.31-6.11l-.86-.5c-1.38,2.27-2.59,4.63-3.63,7.07-.24.57.56,1.09.86.5.83-1.61,1.56-3.27,2.18-4.98.3-.83.64-1.69.83-2.56.13-.6.06-1.1-.44-1.48-.17-.13-.47-.07-.61.08-1.92,2.16-3.24,4.72-4.53,7.28l.91.39c1.22-3.02,2.51-6.01,3.87-8.97.26-.58-.57-1.09-.86-.5-1.28,2.53-2.4,5.13-3.35,7.8-.22.62.73.85.96.27.97-2.4,1.81-4.85,2.5-7.34.15-.55-.61-.86-.91-.39-1.56,2.47-2.76,5.13-3.95,7.8l.93.25c.1-2.05.47-4.07,1.09-6.03l-.96-.27c-.26,1.46-.61,2.9-1.07,4.31l.96.27c.23-.86.47-1.72.73-2.58.15-.5.31-1.82.96-1.91l-.63-.48c.07,2.12.12,4.23.15,6.35,0,.56.82.68.98.13.24-.81.47-1.62.71-2.43s.61-1.63.71-2.43l.06-.17-.09.09c.05.21.12.42.17.63.1.4.21.8.31,1.2.22.84.43,1.67.65,2.51s.41,1.59.62,2.39c.15.56.3,1.17.71,1.61.9.96,2.28.63,3.36.22.49-.19.47-1-.13-.98-3.43.12-6.59,1.48-9.69,2.83l.61.79c2.7-2.58,6.82-2.84,10.36-2.76,3.88.09,7.93,1.08,10.55,4.14l.71-.71-2.08-2.07-.61.79c2.96,1.44,4.09,4.95,6.66,6.89.48.36.95-.38.61-.79-1.34-1.55-2.67-3.1-4.01-4.65l-.71.71,2.77,2.99c.44.48,1.12-.22.71-.71l-2.39-2.84-.71.71,2.79,3c.45.48,1.09-.21.71-.71l-2.99-3.84-.71.71,4.55,5.55c.36.43,1.12-.15.79-.61-1.78-2.42-3.56-4.84-5.35-7.26-.37-.51-1.23-.03-.86.5,2.03,2.94,4.06,5.89,6.09,8.83l.79-.61-2.08-2.62c-.35-.44-1.11.14-.79.61,1.4,2,2.79,4,4.19,6l.79-.61c-.52-.54-.94-1.14-1.28-1.81-.26-.49-1.11-.15-.91.39.16.43.36.78.65,1.13.36.43,1.11-.14.79-.61l-1.86-2.71-.79.61,1.54,1.76c.39.44,1.05-.12.79-.61-1.48-2.74-2.95-5.49-4.43-8.23-.3-.57-1.17-.06-.86.5h0Z"/>
  <path class="cls-1" d="M94,87.01l-2.84,7.47.96.27,2.47-6.94c.19-.53-.69-.91-.91-.39-.99,2.31-1.69,4.72-2.08,7.21-.1.62.78.9.96.27.76-2.64,1.78-5.19,3.05-7.63l-.86-.5c-.8,1.59-1.48,3.23-2.03,4.92-.18.54.64.87.91.39.79-1.4,1.58-2.8,2.37-4.2.27-.48-.4-1.04-.79-.61-.77.86-1.42,1.81-1.92,2.86-.28.57.55,1.08.86.5.48-.89.96-1.77,1.44-2.66.31-.57-.52-1.05-.86-.5-2.18,3.49-3.52,7.42-3.97,11.5-.06.55.9.69.98.13.26-1.86.52-3.73.78-5.59l-.98-.13c-.24,2.1-.34,4.2-.29,6.31.01.66.93.63,1,0,.31-2.94.73-5.86,1.28-8.77.12-.63-.83-.9-.96-.27-.69,3.19-1.03,6.45-1.01,9.71,0,.65.98.64,1,0,.05-1.25.09-2.51.14-3.76h-1c-.04,2.36-.08,4.72-.12,7.08l.98-.13c-.62-3.83-1.44-7.62-2.45-11.36-.15-.55-.98-.43-.98.13-.04,3.51.6,6.97,1.25,10.4l.96-.27c-.79-3.02-1.58-6.05-2.37-9.07-.16-.62-1.13-.36-.96.27.77,2.99,1.68,5.94,2.71,8.85l.96-.27c-1.17-2.92-2.49-5.78-3.97-8.55-.28-.53-1.01-.15-.91.39.46,2.45,1.1,4.85,1.93,7.19l.91-.39c-1.02-1.64-2.04-3.28-3.06-4.92-.34-.55-1.14-.07-.86.5.92,1.94,2,3.79,3.23,5.55.37.53,1.15.08.86-.5-.78-1.61-1.66-3.16-2.65-4.66l-.86.5c1.29,1.71,2.58,3.42,3.87,5.12.38.5,1.23.04.86-.5-1.48-2.23-2.97-4.46-4.45-6.7l-.86.5c1.26,1.74,2.42,3.55,3.49,5.42l.79-.61c-1.71-2.19-3.42-4.38-5.13-6.57-.31-.4-.98.04-.84.49.65,2.07,1.79,3.9,2.95,5.7l.79-.61c-1.46-1.46-2.8-3.03-4.02-4.7l-.79.61c1.02,1.28,2.03,2.56,3.05,3.83.35.44,1.13-.15.79-.61-1.44-1.92-2.88-3.84-4.32-5.77l-.79.61c.78.92,1.46,1.91,2.04,2.97l.79-.61c-1.13-1.09-2.26-2.19-3.39-3.28-.36-.35-.96,0-.84.49.2.79.41,1.58.61,2.37l.73-.56c-.88-.64-1.68-1.37-2.42-2.17-.44-.48-1.11.22-.71.71.6.73,1.2,1.46,1.8,2.19.36.44,1.1-.14.79-.61l-1.68-2.52-.79.61c.86.93,1.82,1.75,2.86,2.47.38.26.82-.17.73-.56-.17-.76-.51-1.41-1-2.01-.41-.5-1.09.21-.71.71.76.98,1.6,1.88,2.53,2.7.48.43,1.16-.24.71-.71-1.64-1.72-3.44-3.28-5.37-4.66-.34-.24-.72.1-.75.43-.13,1.17.27,2.28,1.04,3.16l.71-.71c-.52-.57-1.05-1.13-1.57-1.7-.44-.48-1.13.23-.71.71.39.44.77.88,1.16,1.32l.71-.71-1.18-1.08c-.4-.37-1.1.11-.79.61.41.66.83,1.33,1.24,1.99l.79-.61c-.69-.79-1.37-1.59-2.06-2.38-.39-.45-1.02.12-.79.61l.93,1.88.68-.68c-.44-.23-.82-.52-1.12-.92-.38-.51-1.14-.09-.86.5s.63,1.17,1.03,1.71l.79-.61-2.33-2.72c-.39-.45-1.03.12-.79.61l.81,1.61.68-.68-1.92-1.21c-.41-.26-.97.27-.68.68l1.47,2.11.79-.61-1.93-1.97c-.39-.4-1.09.12-.79.61l.91,1.45.79-.61-1.13-.96c-.5-.42-1.11.21-.71.71.28.35.51.73.67,1.14l.84-.49c-.65-.64-1.29-1.27-1.94-1.91-.41-.4-1.05.11-.79.61l.94,1.77.79-.61-2.02-2.08c-.39-.4-1.09.12-.79.61l1.56,2.49.79-.61-1.71-1.43c-.35-.29-1.01-.03-.84.49l.51,1.51.84-.49c-.64-.59-1.33-1.11-2.07-1.57-.35-.22-.72.07-.75.43-.03.27-.11.6-.08.87-.08.15-.04.26.1.32-.08-.07-.16-.15-.24-.22-.27-.23-.53-.4-.89-.43-.72-.06-1.37.38-1.58,1.07-.14.47.5.85.84.49,1.42-1.51,2.8-3.04,4.14-4.62.67-.79,1.34-1.58,1.99-2.38.51-.63,1.06-1.31.95-2.17-.05-.38-.54-.72-.85-.35-1.62,1.9-2.96,4.01-3.95,6.3-.25.57.55,1.08.86.5,1.03-1.89,2.08-3.79,3.63-5.32l-.84-.49c-.64,1.93-1.27,3.86-1.91,5.79-.18.54.65.89.91.39,1.3-2.49,2.82-4.86,4.54-7.08l-.86-.5c-.87,1.92-1.9,3.76-3.1,5.49l.86.5c.88-1.34,1.85-2.6,2.91-3.8l-.79-.61c-.81,1.22-1.47,2.51-2.03,3.87-.19.47.52.84.84.49,1.07-1.19,2.14-2.38,3.21-3.57l-.79-.61c-.75,1.37-1.6,2.68-2.57,3.91l.79.61,2.88-4.41c.36-.55-.49-1.02-.86-.5-1.06,1.46-1.9,3.05-2.53,4.75-.18.48.5.82.84.49,2.19-2.2,4.38-4.39,6.57-6.59l-.84-.22c.09.53-.26,1.02-.51,1.46-.27.47-.53.93-.8,1.39-.51.89-1.03,1.79-1.54,2.68-.28.48.4,1.04.79.61,2.23-2.51,4.45-5.03,6.68-7.54l-.79-.61c-.92,1.47-1.84,2.95-2.76,4.42-.44.7-.88,1.4-1.31,2.1-.39.63-.79,1.27-.7,2.05.05.39.53.71.85.35,1.18-1.32,2.37-2.64,3.55-3.95,1-1.12,2-2.27,3.38-2.92l-.73-.56c-.82,2.45-2.01,4.74-3.51,6.83l.91.39c.42-2.16,1.06-4.27,1.89-6.31.22-.52-.66-.89-.91-.39-.97,1.95-1.94,3.89-2.91,5.84-.29.57.52,1.06.86.5,1.32-2.11,2.83-4.09,4.53-5.91l-.84-.49c-.28,1.79-.84,3.49-1.7,5.08l.86.5c.88-1.7,1.76-3.4,2.63-5.09l-.86-.5c-.87,1.98-1.75,3.97-2.62,5.95-.25.58.52,1.07.86.5,1.36-2.2,2.71-4.41,4.07-6.61l-.91-.39c-.58,1.81-1.16,3.61-1.74,5.42-.17.54.63.87.91.39.65-1.13,1.29-2.26,1.94-3.39l-.91-.39c-.2,1.19-.51,2.35-.93,3.48-.23.61.72.84.96.27l1.48-3.56-.96-.27-1.3,3.31.96.27c.91-2.34,1.91-4.65,2.99-6.92l-.91-.39c-.61,2.78-1.43,5.51-2.45,8.18l.96.27c.89-3.49,1.8-7,3.51-10.19l-.91-.39c-.5,2.4-1.19,4.75-2.07,7.04l.96.27c.53-1.64,1.12-3.26,1.78-4.85.34-.83.7-1.65,1.07-2.46.22-.49.57-1.76,1.15-1.9l-.62-.62c-.49,1.86-1.1,3.67-1.82,5.45l.96.27c.42-1.77.94-3.52,1.56-5.23l-.96-.27c-.25,1.37-.62,2.71-1.1,4.01l.96.27c.41-1.63.9-3.23,1.47-4.81h-.96c.29.86.57,1.72.86,2.58.16.47.81.48.96,0,.49-1.51.67-3.09.51-4.67l-.98.13c.25.75.5,1.5.75,2.25.2.61,1.12.36.96-.27l-.51-2.12-.96.27.81,2.08c.23.59,1.12.37.96-.27l-.66-2.71-.91.39.73,1.44c.3.58,1.12.07.86-.5-1.91-4.33-2.19-9.13-2.46-13.79-.03-.54-.85-.71-.98-.13-.84,3.81-.94,7.72-.3,11.57.07.4.58.44.84.22,1.3-1.12.99-3.4,1.01-4.93.03-2.2-.01-4.4-.12-6.6-.03-.57-.79-.67-.98-.13-.34.95-.38,1.93-.16,2.91.11.5.82.45.96,0,.22-.69.44-1.37.66-2.06.2-.61-.77-.88-.96-.27l-.35,1.09c-.18.55.63.86.91.39.63-1.05-.28-2.18-1.36-2.33-.74-.1-1.49.12-2.21.3-.88.22-1.75.46-2.63.67-2.78.65-6.46.94-8.43-1.62-.24-.31-.81-.35-.91.12-.47,2.11-.74,4.26-.81,6.43-.02.65.96.64,1,0,.12-1.83.15-3.66.11-5.49-.01-.54-.86-.7-.98-.13l-.5,2.37.91-.12c-.34-.57-.61-1.16-.83-1.79-.19-.55-.93-.43-.98.13s0,1.13.14,1.69c.16.63,1.1.36.96-.27l-.19-.86c-.1-.48-.86-.47-.96,0-.19.84-.08,1.63.33,2.38.26.48.87.19.93-.25.09-.7.19-1.4.28-2.1l-.85.35c.4.45.8.9,1.2,1.34.2.22.66.19.79-.1.43-.96.55-1.91.36-2.94l-.96.27c.34,1.02.67,2.05,1.01,3.07l.96-.27c-.42-1.16-.98-2.25-1.7-3.25-.19-.27-.7-.38-.86,0-.28.63-.43,1.26-.42,1.96l.93-.25c-.15-.34-.3-.69-.45-1.03l-.68.68c2.58,1.8,5.54,2.99,8.66,3.47.51.08.94-.63.39-.91-2-1.02-4.13-1.71-6.34-2.03l-.13.98c2.11.11,4.22.24,6.33.38.56.04.69-.88.13-.98l-6.4-1.15c-.62-.11-.9.81-.27.96,2.47.61,4.95,1.22,7.5,1.43,1.57.13,4.27.38,4.82-1.6.08-.29-.15-.66-.48-.63-1.26.12-2.39.61-3.33,1.46l.71.71c.29-.27.6-.41.98-.49l-.62-.35c.21.57.24,1.15,0,1.73s.48,1.03.86.5l.66-.9-.93-.25c.04,1.92.24,3.83.6,5.72.11.6.93.38.98-.13.22-2.02.21-4.04-.02-6.06-.06-.5-.9-.74-.98-.13-.24,1.8-.16,3.59.27,5.35.11.45.89.5.96,0,.21-1.52.26-3.04.1-4.57-.06-.63-.99-.66-1,0-.03,2.69.26,5.36.88,7.98.13.55.98.43.98-.13,0-1.53-.13-3.05-.4-4.56-.11-.64-1.06-.36-.96.27.33,2.13.75,4.25,1.26,6.34.13.54,1.01.44.98-.13l-.03-.56h-1c.14,1.24.09,2.46-.18,3.68h.96l-.53-2.8c-.12-.63-1.08-.36-.96.27l.71,3.96c.11.59.94.39.98-.13.1-1.26.13-2.53.08-3.79l-.98.13c.22,1.2.25,2.43.07,3.64h.96c-.22-1.6-.52-3.18-.91-4.75-.15-.59-.91-.39-.98.13-.19,1.44-.38,2.89-.57,4.33l.98-.13c-.35-1.49-.74-2.96-1.19-4.43-.14-.44-.86-.51-.96,0-.42,2.16-.74,4.33-.94,6.51h1c-.17-2.11-.13-4.22.15-6.32l-.98-.13c-.14,1.65-.46,3.26-.93,4.85l.98.13c.14-1.56.29-3.11.43-4.67h-1c-.12,1.9-.23,3.81-.35,5.71-.04.65.93.62,1,0,.25-2.16.43-4.33.54-6.5.03-.56-.87-.69-.98-.13-.3,1.46-.39,2.93-.24,4.41.05.53.83.72.98.13.47-1.85.77-3.74.92-5.65h-1l-.09,2.86h1l-.24-2.7h-1l.26,2.97c.06.64.96.65,1,0,.17-2.64-.35-5.29-1.5-7.67s-2.85-4.86-5.72-4.65-5.32,1.9-8,2.74c-1.36.43-2.85.69-4.27.38-1.3-.28-2.34-1.37-3.68-1.45s-2.29,1.02-3.02,2.03c-.86,1.21-1.54,2.67-1.09,4.17.1.33.59.53.84.22,1.06-1.32,1.77-2.84,2.03-4.52l-.98-.13c-.18,2.64-.22,5.28-.14,7.92.02.65.94.63,1,0,.27-2.63.14-5.27-.34-7.87-.11-.58-.95-.4-.98.13-.14,2.55-.28,5.1-.41,7.65l.98-.13c-.42-1.59-.91-3.16-1.47-4.7-.19-.52-.97-.46-.98.13-.03,1.6.3,3.15.95,4.61.22.49.91.2.93-.25l.09-1.7-.98.13c.47,1.91.95,3.81,1.42,5.72l.96-.27c-.56-1.78-1.4-3.44-2.52-4.92-.32-.42-1.09-.2-.91.39,1.03,3.42,2.71,6.59,4.93,9.39.32.4.97-.04.84-.49-.23-.79-.46-1.57-.7-2.36l-.91.39c.79,1.51,1.65,2.98,2.57,4.42.29.45,1.14.16.91-.39-.75-1.79-1.66-3.49-2.77-5.08-.3-.43-1.15-.17-.91.39.68,1.65,1.53,3.21,2.55,4.67.37.53,1.12.08.86-.5-.84-1.92-1.83-3.77-2.95-5.55-.29-.46-1.11-.17-.91.39.6,1.7,1.33,3.34,2.22,4.9.29.51,1.03.16.91-.39-.5-2.24-.99-4.48-1.49-6.72l-.96.27c.58,1.84,1.16,3.68,1.74,5.51.2.62,1.08.36.96-.27-.48-2.53-1.14-5.02-1.95-7.46-.17-.5-1.04-.46-.98.13.25,2.56.98,5.02,2.19,7.29.23.42.97.25.93-.25-.4-4.96-1.02-9.91-1.85-14.81-.1-.57-.97-.41-.98.13-.1,4.15.35,8.29,1.34,12.32.13.54,1.01.44.98-.13-.21-4.41-.87-8.79-1.96-13.07-.14-.54-1.01-.44-.98.13.25,4.97,2.15,9.6,4.05,14.14.24.58,1.1.38.96-.27-.44-2.17-1.01-4.3-1.71-6.4-.21-.62-1.07-.36-.96.27l.8,4.86.96-.27c-.69-2.13-1.27-4.29-1.72-6.48l-.96.27c.57,2.7,1.42,5.32,2.5,7.86.19.45.99.23.93-.25-.31-2.5-.61-4.99-.92-7.49l-.98.13c.53,2.5,1.07,4.99,1.6,7.49.13.63,1.09.36.96-.27-.54-2.77-1.3-5.48-2.27-8.13-.18-.5-1.01-.47-.98.13.13,2.92.69,5.79,1.69,8.53.22.6,1.16.36.96-.27-.58-1.86-1.15-3.72-1.73-5.57-.19-.61-1.14-.36-.96.27l.95,3.35c.15.54.99.44.98-.13l-.06-4.79-.93.25c1.65,3.55,3.3,7.11,4.95,10.66.24.51,1.09.15.91-.39-.45-1.37-.99-2.7-1.62-4-.26-.55-1-.13-.91.39.23,1.37.68,2.68,1.31,3.92.28.54,1,.14.91-.39l-.81-4.8-.96.27c.73,1.95,1.6,3.84,2.62,5.65.28.49,1.07.16.91-.39l-1.85-6.3-.96.27,2.89,6.86c.24.57,1.17.36.96-.27-2.49-7.57-4.37-15.33-5.63-23.2l-.96.27c1.24,3.74,1.79,7.67,3.01,11.42,1.15,3.53,3.34,6.72,3.98,10.42l.91-.39c-2.22-3.07-3.74-6.56-4.47-10.28l-.96.27c1.87,4.66,4.17,9.13,6.89,13.35.25.39.96.27.93-.25-.07-1.32-.52-2.53-1.01-3.75-.52-1.29-1-2.59-1.43-3.92-.85-2.66-1.48-5.39-1.89-8.16l-.91.39c.25.45.35.9.33,1.42-.02.64.98.64,1,0,.02-.69-.14-1.32-.47-1.92-.29-.54-.99-.14-.91.39.4,2.69,1,5.34,1.82,7.94.4,1.26.84,2.5,1.33,3.73s1.06,2.52,1.14,3.89l.93-.25c-2.68-4.14-4.96-8.53-6.79-13.11-.24-.59-1.09-.38-.96.27.75,3.79,2.31,7.38,4.58,10.52.34.47,1.01.18.91-.39-.64-3.7-2.84-6.88-3.98-10.42-1.22-3.75-1.77-7.68-3.01-11.42-.21-.62-1.06-.36-.96.27,1.25,7.87,3.13,15.63,5.63,23.2l.96-.27c-.96-2.29-1.93-4.58-2.89-6.86-.24-.57-1.15-.37-.96.27l1.85,6.3.91-.39c-.97-1.74-1.81-3.55-2.52-5.41-.23-.61-1.07-.37-.96.27l.81,4.8.91-.39c-.59-1.16-.99-2.39-1.21-3.68l-.91.39c.59,1.22,1.09,2.47,1.52,3.76l.91-.39c-1.65-3.55-3.3-7.11-4.95-10.66-.21-.46-.94-.22-.93.25l.06,4.79.98-.13-.95-3.35-.96.27c.58,1.86,1.15,3.72,1.73,5.57l.96-.27c-.97-2.66-1.53-5.43-1.66-8.26l-.98.13c.97,2.65,1.73,5.36,2.27,8.13l.96-.27c-.53-2.5-1.07-4.99-1.6-7.49-.12-.54-1.05-.43-.98.13.31,2.5.61,4.99.92,7.49l.93-.25c-1.05-2.46-1.84-5.01-2.4-7.62-.13-.63-1.09-.36-.96.27.45,2.19,1.02,4.35,1.72,6.48.2.62,1.07.36.96-.27l-.8-4.86-.96.27c.69,2.1,1.26,4.24,1.71,6.4l.96-.27c-1.86-4.44-3.76-9-4.01-13.87l-.98.13c1.07,4.2,1.71,8.48,1.92,12.8l.98-.13c-.97-3.95-1.4-7.99-1.3-12.06l-.98.13c.82,4.82,1.42,9.67,1.81,14.55l.93-.25c-1.12-2.11-1.83-4.41-2.06-6.79l-.98.13c.82,2.44,1.47,4.93,1.95,7.46l.96-.27c-.58-1.84-1.16-3.68-1.74-5.51-.19-.61-1.1-.36-.96.27.5,2.24.99,4.48,1.49,6.72l.91-.39c-.84-1.49-1.55-3.05-2.12-4.66l-.91.39c1.12,1.77,2.11,3.62,2.95,5.55l.86-.5c-.97-1.39-1.8-2.87-2.45-4.44l-.91.39c1.05,1.52,1.96,3.14,2.67,4.84l.91-.39c-.92-1.44-1.78-2.91-2.57-4.42-.26-.5-1.07-.16-.91.39.23.79.46,1.57.7,2.36l.84-.49c-2.11-2.66-3.69-5.7-4.67-8.95l-.91.39c1.07,1.42,1.88,2.99,2.42,4.68.19.61,1.12.36.96-.27-.47-1.91-.95-3.81-1.42-5.72-.14-.57-.95-.42-.98.13l-.09,1.7.93-.25c-.58-1.3-.85-2.68-.82-4.1l-.98.13c.56,1.54,1.05,3.11,1.47,4.7.15.56.95.42.98-.13.14-2.55.28-5.1.41-7.65l-.98.13c.47,2.51.57,5.07.31,7.61h1c-.08-2.64-.04-5.28.14-7.92.04-.55-.89-.69-.98-.13-.23,1.5-.82,2.89-1.77,4.08l.84.22c-.38-1.27.32-2.48,1.05-3.48.33-.45.7-.94,1.2-1.23.58-.34,1.17-.22,1.75.06,1.04.5,1.93,1.06,3.11,1.22s2.38.03,3.52-.26c2.42-.61,4.58-1.97,6.99-2.63,1.3-.35,2.7-.53,3.82.36.93.74,1.61,1.84,2.17,2.86,1.3,2.38,1.88,5.1,1.7,7.81h1l-.26-2.97c-.06-.64-1.06-.64-1,0l.24,2.7c.06.63.98.65,1,0l.09-2.86c.02-.65-.95-.64-1,0-.14,1.82-.43,3.62-.88,5.38l.98.13c-.14-1.39-.07-2.78.21-4.15l-.98-.13c-.11,2.17-.29,4.34-.54,6.5h1c.12-1.9.23-3.81.35-5.71.04-.65-.94-.63-1,0-.14,1.56-.29,3.11-.43,4.67-.05.58.83.65.98.13.5-1.67.82-3.38.97-5.11.05-.55-.91-.69-.98-.13-.29,2.19-.37,4.38-.19,6.58.05.65.94.64,1,0,.2-2.1.5-4.18.91-6.25h-.96c.45,1.46.84,2.94,1.19,4.43.14.6.91.38.98-.13.19-1.44.38-2.89.57-4.33l-.98.13c.39,1.56.7,3.15.91,4.75.06.48.9.48.96,0,.2-1.4.18-2.78-.07-4.17-.1-.56-1.01-.43-.98.13.05,1.27.03,2.53-.08,3.79l.98-.13-.71-3.96-.96.27.53,2.8c.09.48.86.47.96,0,.28-1.3.36-2.62.21-3.95-.07-.62-1.03-.66-1,0l.03.56.98-.13c-.51-2.1-.92-4.21-1.26-6.34l-.96.27c.25,1.42.36,2.85.36,4.3l.98-.13c-.59-2.53-.87-5.11-.84-7.72h-1c.14,1.43.13,2.88-.07,4.31h.96c-.39-1.58-.49-3.21-.27-4.82l-.98-.13c.23,2.02.24,4.04.02,6.06l.98-.13c-.34-1.8-.52-3.62-.56-5.45-.01-.53-.65-.64-.93-.25l-.66.9.86.5c.35-.82.42-1.65.11-2.5-.1-.26-.33-.41-.62-.35-.55.12-1.01.37-1.42.75-.48.44.23,1.14.71.71.74-.66,1.64-1.07,2.62-1.16l-.48-.63c-.2.73-1.1.89-1.76.94-1.01.06-2.05-.04-3.04-.17-2.13-.26-4.21-.78-6.28-1.3l-.27.96,6.4,1.15.13-.98c-2.11-.15-4.22-.27-6.33-.38-.55-.03-.7.9-.13.98,2.13.31,4.19.95,6.11,1.93l.39-.91c-3.04-.46-5.9-1.61-8.42-3.37-.46-.32-.86.28-.68.68.15.34.3.69.45,1.03.21.47.94.21.93-.25,0-.51.08-.98.28-1.45h-.86c.66.94,1.2,1.93,1.6,3.01.22.6,1.17.35.96-.27-.34-1.02-.67-2.05-1.01-3.07-.2-.62-1.08-.36-.96.27.13.74.05,1.48-.26,2.17l.79-.1c-.4-.45-.8-.9-1.2-1.34-.32-.36-.8-.03-.85.35-.09.7-.19,1.4-.28,2.1l.93-.25c-.28-.52-.35-1.04-.23-1.61h-.96l.19.86.96-.27c-.12-.48-.15-.93-.1-1.42l-.98.13c.25.71.55,1.38.93,2.03.21.35.82.31.91-.12l.5-2.37-.98-.13c.05,1.83.01,3.66-.11,5.49h1c.06-2.08.32-4.13.77-6.16l-.91.12c1.51,1.97,4.01,2.7,6.42,2.58,1.53-.08,3.03-.45,4.51-.83.74-.19,1.48-.41,2.24-.55.42-.08,1.95-.04,1.46.78l.91.39.35-1.09-.96-.27c-.22.69-.44,1.37-.66,2.06h.96c-.18-.82-.12-1.6.16-2.38l-.98-.13c.1,1.95.14,3.91.13,5.87,0,.98-.02,1.96-.06,2.93-.03.73-.07,1.51-.66,2.02l.84.22c-.61-3.66-.5-7.42.3-11.04l-.98-.13c.28,4.85.61,9.78,2.6,14.29l.86-.5-.73-1.44c-.26-.52-1.04-.15-.91.39l.66,2.71.96-.27-.81-2.08c-.23-.59-1.12-.37-.96.27l.51,2.12.96-.27c-.25-.75-.5-1.5-.75-2.25-.17-.5-1.04-.46-.98.13.15,1.5,0,2.97-.47,4.41h.96c-.29-.86-.57-1.72-.86-2.58-.16-.48-.8-.46-.96,0-.57,1.58-1.07,3.18-1.47,4.81-.16.63.74.86.96.27.48-1.31.85-2.64,1.1-4.01.12-.63-.74-.87-.96-.27-.62,1.71-1.14,3.46-1.56,5.23-.15.64.73.85.96.27.72-1.78,1.33-3.59,1.82-5.45.1-.38-.24-.71-.62-.62-.75.18-1.05.87-1.35,1.51-.44.92-.85,1.85-1.25,2.78-.78,1.84-1.48,3.72-2.1,5.62-.2.62.74.85.96.27.88-2.29,1.57-4.64,2.07-7.04.11-.53-.63-.91-.91-.39-1.76,3.26-2.7,6.85-3.61,10.43-.16.63.74.86.96.27,1.02-2.66,1.83-5.39,2.45-8.18.12-.52-.66-.92-.91-.39-1.12,2.35-2.15,4.74-3.09,7.16-.23.6.73.86.96.27l1.3-3.31c.24-.6-.72-.85-.96-.27l-1.48,3.56.96.27c.42-1.13.73-2.29.93-3.48.09-.53-.61-.91-.91-.39-.65,1.13-1.29,2.26-1.94,3.39l.91.39,1.74-5.42c.18-.55-.62-.86-.91-.39-1.36,2.2-2.71,4.41-4.07,6.61l.86.5c.87-1.98,1.75-3.97,2.62-5.95.25-.58-.56-1.09-.86-.5-.88,1.7-1.76,3.4-2.63,5.09-.29.57.55,1.07.86.5.9-1.66,1.52-3.45,1.81-5.32.07-.45-.46-.89-.84-.49-1.76,1.88-3.33,3.92-4.68,6.11l.86.5c.97-1.95,1.94-3.89,2.91-5.84l-.91-.39c-.84,2.04-1.47,4.14-1.89,6.31-.11.57.58.85.91.39,1.55-2.17,2.76-4.54,3.61-7.07.15-.45-.37-.74-.73-.56-1.38.66-2.41,1.78-3.42,2.9-1.24,1.38-2.48,2.76-3.72,4.14l.85.35c-.09-.77.5-1.45.89-2.07l1.25-2c.83-1.33,1.66-2.66,2.49-4,.3-.47-.4-1.04-.79-.61-2.23,2.51-4.45,5.03-6.68,7.54l.79.61c.64-1.11,1.27-2.22,1.91-3.33.53-.93,1.24-1.86,1.04-2.98-.07-.38-.59-.47-.84-.22-2.19,2.2-4.38,4.39-6.57,6.59l.84.49c.6-1.61,1.42-3.12,2.43-4.51l-.86-.5c-.96,1.47-1.92,2.94-2.88,4.41-.31.47.43,1.06.79.61,1.02-1.3,1.93-2.66,2.73-4.11.26-.48-.39-1.04-.79-.61-1.07,1.19-2.14,2.38-3.21,3.57l.84.49c.52-1.27,1.17-2.48,1.93-3.63.31-.47-.41-1.03-.79-.61-1.12,1.26-2.14,2.6-3.07,4-.36.54.5,1.03.86.5,1.2-1.74,2.24-3.57,3.1-5.49.27-.6-.47-1.01-.86-.5-1.72,2.23-3.23,4.59-4.54,7.08l.91.39c.64-1.93,1.27-3.86,1.91-5.79.16-.49-.49-.83-.84-.49-1.6,1.59-2.71,3.55-3.78,5.52l.86.5c.96-2.21,2.23-4.27,3.8-6.1l-.85-.35c.11.88-.83,1.68-1.34,2.3-.58.7-1.17,1.4-1.77,2.09-1.2,1.38-2.42,2.74-3.67,4.07l.84.49c.28-.93,1.3.39,1.82.37.99-.04.85-1.56.91-2.24l-.75.43c.67.42,1.29.88,1.87,1.42.35.32,1,.01.84-.49l-.51-1.51-.84.49,1.71,1.43c.41.34,1.11-.09.79-.61l-1.56-2.49-.79.61,2.02,2.08c.4.42,1.05-.11.79-.61l-.94-1.77-.79.61,1.94,1.91c.33.33,1.03,0,.84-.49-.23-.59-.53-1.1-.93-1.59l-.71.71,1.13.96c.41.35,1.11-.1.79-.61l-.91-1.45-.79.61,1.93,1.97c.39.4,1.12-.13.79-.61l-1.47-2.11-.68.68,1.92,1.21c.45.28.9-.26.68-.68l-.81-1.61-.79.61,2.33,2.72c.36.43,1.13-.15.79-.61-.4-.54-.74-1.1-1.03-1.71l-.86.5c.41.54.88.97,1.48,1.28.46.24.91-.23.68-.68l-.93-1.88-.79.61c.69.79,1.37,1.59,2.06,2.38.37.43,1.08-.13.79-.61-.41-.66-.83-1.33-1.24-1.99l-.79.61,1.18,1.08c.48.44,1.13-.22.71-.71-.39-.44-.77-.88-1.16-1.32l-.71.71c.52.57,1.05,1.13,1.57,1.7.44.48,1.13-.23.71-.71-.61-.69-.84-1.54-.75-2.45l-.75.43c1.86,1.34,3.59,2.85,5.17,4.51l.71-.71c-.93-.82-1.77-1.73-2.53-2.7l-.71.71c.38.46.61.99.74,1.57l.73-.56c-.97-.67-1.85-1.45-2.66-2.32-.38-.41-1.1.13-.79.61l1.68,2.52.79-.61c-.6-.73-1.2-1.46-1.8-2.19l-.71.71c.8.86,1.67,1.63,2.62,2.33.37.27.84-.18.73-.56-.2-.79-.41-1.58-.61-2.37l-.84.49c1.13,1.09,2.26,2.19,3.39,3.28.41.4,1.06-.11.79-.61-.62-1.13-1.36-2.19-2.2-3.17-.36-.43-1.13.15-.79.61,1.44,1.92,2.88,3.84,4.32,5.77l.79-.61c-1.02-1.28-2.03-2.56-3.05-3.83-.35-.44-1.12.15-.79.61,1.27,1.74,2.66,3.37,4.18,4.9.39.4,1.1-.12.79-.61-1.11-1.73-2.23-3.48-2.85-5.47l-.84.49c1.71,2.19,3.42,4.38,5.13,6.57.36.46,1.06-.13.79-.61-1.07-1.87-2.23-3.68-3.49-5.42-.37-.51-1.22-.04-.86.5,1.48,2.23,2.97,4.46,4.45,6.7l.86-.5c-1.29-1.71-2.58-3.42-3.87-5.12-.38-.5-1.23-.04-.86.5.99,1.49,1.87,3.05,2.65,4.66l.86-.5c-1.23-1.76-2.3-3.62-3.23-5.55l-.86.5c1.02,1.64,2.04,3.28,3.06,4.92.29.46,1.11.17.91-.39-.83-2.35-1.47-4.75-1.93-7.19l-.91.39c1.44,2.7,2.74,5.47,3.87,8.31.23.58,1.18.35.96-.27-1.03-2.91-1.93-5.86-2.71-8.85l-.96.27c.79,3.02,1.58,6.05,2.37,9.07.16.63,1.08.36.96-.27-.63-3.35-1.25-6.71-1.21-10.13l-.98.13c1.01,3.74,1.83,7.53,2.45,11.36.09.57.97.41.98-.13.04-2.36.08-4.72.12-7.08.01-.65-.98-.64-1,0-.05,1.25-.09,2.51-.14,3.76h1c-.02-3.18.31-6.34.98-9.45l-.96-.27c-.56,2.99-.99,6.01-1.31,9.03h1c-.05-2.11.05-4.21.29-6.31.06-.55-.9-.69-.98-.13-.26,1.86-.52,3.73-.78,5.59l.98.13c.43-3.91,1.76-7.66,3.84-11l-.86-.5-1.44,2.66.86.5c.47-.97,1.05-1.85,1.77-2.66l-.79-.61c-.79,1.4-1.58,2.8-2.37,4.2l.91.39c.53-1.61,1.18-3.17,1.93-4.68.29-.57-.56-1.08-.86-.5-1.31,2.51-2.37,5.14-3.15,7.86l.96.27c.37-2.4,1.02-4.74,1.98-6.97l-.91-.39-2.47,6.94c-.22.61.74.86.96.27l2.84-7.47c.23-.6-.74-.86-.96-.27h0Z"/>
  <path class="cls-1" d="M68.64,64.42c.15,2.98.48,5.95.98,8.89l.96-.27c-.57-2.63-.94-5.29-1.12-7.98l-.98.13c.28,1.54.57,3.07,1.03,4.56.18.57.92.41.98-.13.16-1.33.04-2.67-.33-3.96-.15-.52-1.03-.45-.98.13.11,1.45.22,2.9.34,4.35h1c-.12-1.38-.24-2.77-.36-4.15l-.98.13c.25,1.25.53,2.49.83,3.72.27,1.13.49,2.35,1.09,3.36.2.34.84.33.91-.12.15-.94-.09-1.86-.29-2.77s-.44-1.89-.69-2.83c-.15-.58-.93-.4-.98.13-.1,1,.03,2.01.4,2.95.23.59,1.2.33.96-.27-.34-.87-.46-1.76-.36-2.68l-.98.13c.22.83.43,1.66.62,2.5s.5,1.74.37,2.57l.91-.12c-.59-.98-.77-2.2-1.03-3.29-.28-1.18-.55-2.37-.79-3.56-.11-.55-1.03-.43-.98.13.12,1.38.24,2.77.36,4.15.06.63,1.05.64,1,0-.11-1.45-.22-2.9-.34-4.35l-.98.13c.35,1.21.45,2.44.3,3.69l.98-.13c-.47-1.49-.75-3.03-1.03-4.56-.1-.55-1.02-.43-.98.13.18,2.77.57,5.53,1.15,8.25.14.64,1.07.36.96-.27-.48-2.86-.8-5.73-.95-8.63-.03-.64-1.03-.64-1,0h0Z"/>
  <path class="cls-1" d="M90.54,87.27c-.5,3.15-.82,6.32-.93,9.51-.02.55.89.7.98.13.45-2.8.91-5.61,1.9-8.28l-.98-.13c.03,1.74.05,3.47.08,5.21,0,.57.81.67.98.13.32-.98.67-1.94,1.07-2.89l-.96-.27-.71,2.76c-.16.63.74.86.96.27l.76-1.98-.98-.13-.26,2.35c-.05.48.73.7.93.25l1.02-2.31-.91-.39c-.39,1.31-.88,2.58-1.47,3.8l.91.12-.45-2.38c-.09-.49-.86-.47-.96,0l-1.37,5.97h.96l-.83-2.92c-.15-.52-1.04-.45-.98.13.14,1.35.24,2.71.31,4.07l.93-.25c-.38-.79-.77-1.58-1.15-2.36-.26-.53-1.02-.14-.91.39.24,1.13.47,2.26.71,3.38l.96-.27-1.89-6.44c-.18-.62-1.1-.36-.96.27.23,1.06.46,2.12.69,3.17l.96-.27c-.71-2.34-1.42-4.68-2.13-7.02-.19-.61-1.14-.36-.96.27.38,1.37.76,2.74,1.15,4.1l.91-.39-1.26-2.56c-.29-.58-1.13-.07-.86.5.47,1.03.79,2.11.98,3.23l.84-.49c-1.45-1.56-2.93-3.17-4.54-4.57-.5-.44-1.23-.75-1.79-.2-.68.68-.13,1.48-.26,2.26h.96c-.32-.85-.64-1.7-.95-2.56l-.91.39c.33.58.67,1.15,1,1.73l.86-.5-.66-1.13c-.32-.56-1.19-.05-.86.5l.66,1.13c.32.56,1.19.05.86-.5s-.67-1.15-1-1.73c-.28-.47-1.12-.16-.91.39.32.85.64,1.7.95,2.56.15.41.87.54.96,0,.05-.3.06-.55,0-.86-.02-.16-.23-.86,0-.96.3-.14,1.41,1.19,1.63,1.4,1.12,1.1,2.22,2.22,3.29,3.37.37.4.91-.03.84-.49-.21-1.21-.58-2.36-1.09-3.47l-.86.5c.42.85.84,1.71,1.26,2.56.25.51,1.06.15.91-.39-.38-1.37-.76-2.74-1.15-4.1l-.96.27c.71,2.34,1.42,4.68,2.13,7.02.19.62,1.1.36.96-.27-.23-1.06-.46-2.12-.69-3.17l-.96.27,1.89,6.44c.18.62,1.1.36.96-.27-.24-1.13-.47-2.26-.71-3.38l-.91.39c.38.79.77,1.58,1.15,2.36.22.45.95.23.93-.25-.06-1.36-.17-2.71-.31-4.07l-.98.13.83,2.92c.13.46.85.49.96,0l1.37-5.97h-.96l.45,2.38c.08.41.73.5.91.12.63-1.3,1.16-2.65,1.57-4.04.16-.53-.68-.91-.91-.39l-1.02,2.31.93.25.26-2.35c.07-.6-.8-.62-.98-.13l-.76,1.98.96.27.71-2.76c.16-.64-.72-.84-.96-.27-.39.95-.75,1.92-1.07,2.89l.98.13c-.03-1.74-.05-3.47-.08-5.21,0-.59-.79-.65-.98-.13-.99,2.67-1.45,5.48-1.9,8.28l.98.13c.11-3.1.4-6.18.89-9.24.1-.63-.86-.9-.96-.27h0Z"/>
  <g>
    <path class="cls-2" d="M74.76,7.64c.17,4.64.23,10.3,0,16.77-.27,7.38-.42,11.15-1.52,15.24-.46,1.71-2.35,8.31-7.62,15.24-1.51,1.99-7.36,9.35-17.78,14.23-7.59,3.55-14.15,4.17-23.88,5.08-5.43.51-9.99.56-13.21.51"/>
    <path class="cls-2" d="M40.2,142.29c3.21-9.59,6.77-17.28,9.65-22.87,7.14-13.82,11.4-17.1,14.23-18.8,2.33-1.4,7.59-4.57,13.72-3.56,5.33.88,9.29,4.6,16.26,14.74,4.8,6.98,10.89,16.81,16.77,29.47"/>
    <path class="cls-2" d="M134.72,90.47c-9.6-1.69-16.96-4.44-21.85-6.61-6.67-2.96-10.05-4.51-12.2-8.13-3.47-5.85-1.35-12.86,1.02-20.33,2-6.3,7.11-16.77,12.2-28.46"/>
    <path class="cls-2" d="M95.08,113.33c-1.02-1.52-3.09-14.01-2.03-17.78,2.13-7.6,6.1-13.72,15.24-13.72"/>
    <path class="cls-2" d="M74.25,34.06c.12,2.44.65,15.29,3.05,19.82,1.51,2.86,3.09,6.01,6.61,7.62,12.2,5.59,20.33-11.18,21.34-15.24"/>
    <path class="cls-2" d="M32.58,73.19c1.97.25,14.58,1,17.78,3.56,4.72,3.78,5.63,9.15,6.61,12.7,1.53,5.56-.82,18.68-5.08,26.42"/>
  </g>
</svg>