<?xml version="1.0" encoding="UTF-8"?>
<svg id="_Слой_1" data-name="Слой 1" xmlns="http://www.w3.org/2000/svg" viewBox="0 0 100 100">
  <defs>
    <style>
      .cls-1 {
        fill: none;
        stroke: #000;
        stroke-miterlimit: 10;
      }
    </style>
  </defs>
  <path class="cls-1" d="M18.65,70.4c3-2.05,5.67-3.48,7.62-4.42,3.7-1.79,6.62-3.17,10.67-3.51,2.06-.17,4.16-.35,6.5.61,2.87,1.18,4.4,3.38,6.09,5.87,3.67,5.41,6.46,9.61,8.67,12.98"/>
  <path class="cls-1" d="M79.68,73.33c-3.91-3.65-7.33-6.12-9.83-7.74-2.04-1.32-3.94-2.39-5.3-4.78-.38-.67-1.78-3.21-1.32-6.38.61-4.2,4.07-6.65,6.2-8.16,2.28-1.62,4.39-2.35,8.02-3.61,2.43-.84,4.49-1.38,5.91-1.72"/>
  <path class="cls-1" d="M52.01,18.69c-.4,2.69-.79,5.13-1.16,7.26-1.09,6.37-1.55,7.96-2.51,9.71-1.09,2-2.28,4.19-4.63,5.01-3.6,1.25-7.49-1.59-9.23-2.86-.77-.56-1.91-1.49-7.82-9.01-1.15-1.46-2.09-2.68-2.74-3.52"/>
  <path class="cls-1" d="M26.27,65.97c1.29-.75,6.23-4.91,7.69-6.86,1.58-2.11,3.01-4.02,3.77-6.95.21-.8.9-3.74.12-7.43-.44-2.09-6.76-10.33-7.45-11.3"/>
  <path class="cls-1" d="M69.9,45.91c-1.38.63-6.28,1.38-8.34.9-.7-.16-3.77-.93-6.57-3.5-4.04-3.71-4.9-11.16-5.03-12.51"/>
  <path class="cls-1" d="M66.88,63.52c-1.16-.54-6.36-3.36-8.68-3.62-1.94-.22-3.56-.4-5.39.42-.4.18-2.97,1.72-4.03,4.57-.56,1.51.82,4.17,1.26,4.78"/>
</svg>