<?xml version="1.0" encoding="UTF-8"?>
<svg id="_Слой_1" data-name="Слой 1" xmlns="http://www.w3.org/2000/svg" viewBox="0 0 100 100">
  <defs>
    <style>
      .cls-1 {
        fill: none;
        stroke: #000;
        stroke-miterlimit: 10;
      }
    </style>
  </defs>
  <path class="cls-1" d="M96.79,70.88c-4.75-1.78-8.51-3.67-11.16-5.14-5.01-2.78-8.93-5.01-12.56-9.35-1.85-2.21-3.74-4.46-4.52-7.9-.96-4.22.32-7.73,1.8-11.65,3.23-8.52,5.77-15.07,7.84-20.31"/>
  <path class="cls-1" d="M51.16-1.06c-1.03,7.39-1.1,13.26-.94,17.42.13,3.38.44,6.4-1.2,9.88-.46.97-2.23,4.61-6.22,6.63-5.27,2.67-10.86.7-14.28-.52-3.68-1.3-6.2-3.12-10.56-6.25-2.91-2.09-5.18-4.01-6.7-5.36"/>
  <path class="cls-1" d="M11.07,74.33c3.39-1.7,6.48-3.21,9.21-4.51,8.14-3.87,10.32-4.62,13.08-4.93,3.16-.36,6.61-.76,9.42,1.26,4.32,3.1,4.2,9.81,4.15,12.81-.02,1.32-.17,3.37-4,16.15-.75,2.48-1.38,4.54-1.82,5.95"/>
  <path class="cls-1" d="M85.64,65.74c-1.89-.87-10.6-3.17-13.99-3.27-3.68-.11-6.99-.21-10.95,1.28-1.08.4-4.98,1.97-8.57,5.82-2.03,2.18-6.36,16-6.9,17.56"/>
  <path class="cls-1" d="M27.75,32.09c1.83,1.06,6.61,6.06,7.72,8.78.38.93,1.97,5.05,1.29,10.3-.99,7.58-8.79,14.53-10.23,15.77"/>
  <path class="cls-1" d="M50.25,21.41c.32,1.75,1.27,9.95,2.84,12.8,1.31,2.38,2.4,4.38,4.8,5.81.52.31,4.35,2,8.44.92,2.17-.57,4.1-4.29,4.44-5.27"/>
</svg>