<?xml version="1.0" encoding="UTF-8"?>
<svg id="_Слой_1" data-name="Слой 1" xmlns="http://www.w3.org/2000/svg" viewBox="0 0 100 100">
  <defs>
    <style>
      .cls-1 {
        fill: none;
        stroke: #000;
        stroke-miterlimit: 10;
      }
    </style>
  </defs>
  <path class="cls-1" d="M90.05,19.71c-3.61,3.17-6.87,5.47-9.27,7.02-4.56,2.94-8.17,5.22-13.41,6.31-2.67.56-5.39,1.13-8.61.24-3.95-1.08-6.31-3.72-8.92-6.71-5.67-6.5-10-11.55-13.45-15.61"/>
  <path class="cls-1" d="M9.62,25.68c5.7,4.16,10.58,6.84,14.12,8.56,2.88,1.4,5.54,2.49,7.71,5.41.6.81,2.85,3.92,2.76,8.15-.12,5.6-4.27,9.37-6.81,11.69-2.73,2.49-5.37,3.78-9.93,6.02-3.05,1.5-5.66,2.53-7.47,3.2"/>
  <path class="cls-1" d="M54.65,92.81c.09-3.59.22-6.84.35-9.7.4-8.52.76-10.68,1.72-13.12,1.11-2.8,2.32-5.86,5.26-7.3,4.52-2.22,10.07.87,12.55,2.26,1.09.61,2.74,1.64,11.69,10.55,1.74,1.73,3.17,3.18,4.15,4.17"/>
  <path class="cls-1" d="M80.78,26.73c-1.57,1.19-7.38,7.44-8.97,10.22-1.73,3.02-3.29,5.74-3.82,9.71-.14,1.08-.58,5.04,1.03,9.75.91,2.66,10.51,12.45,11.58,13.6"/>
  <path class="cls-1" d="M26.84,60.03c1.7-1.05,8.01-2.81,10.78-2.52.95.1,5.09.61,9.17,3.52,5.88,4.21,8.21,13.83,8.59,15.58"/>
  <path class="cls-1" d="M27.97,36.47c1.61.52,8.87,3.38,11.95,3.35,2.57-.03,4.73-.05,6.99-1.41.49-.29,3.61-2.73,4.54-6.64.49-2.06-1.75-5.34-2.42-6.05"/>
</svg>