<?xml version="1.0" encoding="UTF-8"?>
<svg id="_Слой_1" data-name="Слой 1" xmlns="http://www.w3.org/2000/svg" viewBox="0 0 124 124">
  <defs>
    <style>
      .cls-1 {
        fill: #333;
        stroke-width: 0px;
      }

      .cls-2 {
        fill: none;
        stroke: #333;
        stroke-miterlimit: 10;
      }
    </style>
  </defs>
  <path class="cls-1" d="M77.76,35.92c-2.47,8.74-5.22,17.46-7.02,26.37-.13.63.82.9.96.27.94-4.23,2.05-8.43,3.25-12.59.59-2.05,1.19-4.09,1.8-6.12s1.02-4.08,2.17-5.79l-.91-.39c-.87,5.72-.4,11.48.43,17.18l.96-.27c-.62-2.29-1.01-4.63-1.12-7-.1-2.03-.21-4.35,1.04-6.08l-.93-.25c-.27,7.21,1.01,14.43,3.73,21.11.24.59,1.21.33.96-.27-2.69-6.6-3.96-13.71-3.69-20.84.02-.54-.66-.63-.93-.25-1.3,1.81-1.28,4.21-1.19,6.34.1,2.54.5,5.06,1.17,7.51.17.64,1.05.35.96-.27-.8-5.5-1.28-11.12-.43-16.65.08-.55-.58-.88-.91-.39-1.11,1.66-1.57,3.67-2.13,5.56-.63,2.12-1.26,4.24-1.87,6.36-1.22,4.25-2.37,8.52-3.32,12.83l.96.27c1.8-8.91,4.56-17.63,7.02-26.37.18-.62-.79-.89-.96-.27h0Z"/>
  <path class="cls-1" d="M93.52,65.81c-3.39-1.01-6.8-2.02-10.29-2.59s-7.06-.62-10.61-.63l.13.98c4.66-.89,9.46-.32,13.97,1.05.51.16,1.02.32,1.53.5.28.1.57.24.86.31.06.01.45.18.09-.04-.22-.13-.29-.06-.54-.02-1.15.2-2.35-.18-3.47-.38-2.34-.42-4.72-.64-7.1-.64-2.7,0-5.39.28-8.04.82-.63.13-.36,1.09.27.96,2.71-.55,5.48-.81,8.24-.78,1.39.02,2.77.11,4.15.27s2.66.45,4,.67c.97.15,2.36.33,3.2-.33.31-.25.46-.65.24-1.01-.25-.42-.89-.53-1.31-.68-2.46-.87-5-1.52-7.59-1.86-2.92-.38-5.87-.35-8.77.2-.56.11-.42.98.13.98,3.54.02,7.09.05,10.58.64s6.74,1.57,10.06,2.55c.62.18.88-.78.27-.96h0Z"/>
  <path class="cls-1" d="M91.77,64.47c-2.77-1.83-4.99-4.34-7.87-6.02s-5.95-2.66-9.04-3.66c-.61-.2-.88.77-.27.96,3.08,1,6.19,2.01,8.99,3.67s4.98,4.12,7.68,5.91c.54.36,1.04-.51.5-.86h0Z"/>
  <path class="cls-1" d="M79.31,45.76c-.06,5.69.6,11.38,1.96,16.91.15.62,1.12.36.96-.27-1.33-5.45-1.97-11.03-1.92-16.64,0-.64-.99-.64-1,0h0Z"/>
  <path class="cls-1" d="M80.27,48.61c-.22,3.53.01,7.07.69,10.54.12.63,1.09.36.96-.27-.66-3.38-.87-6.83-.65-10.27.04-.64-.96-.64-1,0h0Z"/>
  <path class="cls-1" d="M80.86,50.77c.24,2.47.65,4.93,1.21,7.35.15.63,1.11.36.96-.27-.55-2.33-.94-4.7-1.18-7.09-.06-.63-1.06-.64-1,0h0Z"/>
  <path class="cls-1" d="M81.64,53.32c.98,2.94,2.54,5.64,4.58,7.96l.71-.71c-1.6-1.7-3.29-3.31-5.08-4.82-.49-.41-1.2.29-.71.71,1.79,1.51,3.48,3.11,5.08,4.82.44.47,1.13-.23.71-.71-1.93-2.19-3.4-4.75-4.33-7.52-.2-.61-1.17-.35-.96.27h0Z"/>
  <path class="cls-1" d="M90.17,64.34c-6.33-2.92-12.77-5.88-19.73-6.92l-.13.98c3.28.43,6.33,1.5,9.32,2.89,2.71,1.26,5.52,2.57,8.58,2.39.5-.03.67-.65.25-.93-2.96-1.99-6.17-3.56-9.55-4.7-.55-.19-.85.62-.39.91,2.86,1.82,5.8,3.52,8.8,5.1.57.3,1.04-.5.5-.86-3.21-2.17-6.62-4-10.2-5.49l-.27.96c2.22.72,4.42,1.52,6.59,2.38.51.2.77-.5.49-.84-1.72-2.04-3.97-3.54-6.5-4.38-.56-.19-.83.61-.39.91,2.67,1.82,5.4,3.55,8.17,5.21.55.33,1.06-.53.5-.86-4.22-2.55-8.52-4.95-12.9-7.2-.57-.29-1.08.57-.5.86,4.38,2.25,8.68,4.65,12.9,7.2l.5-.86c-2.77-1.66-5.5-3.39-8.17-5.21l-.39.91c2.37.79,4.45,2.22,6.06,4.12l.49-.84c-2.17-.86-4.37-1.65-6.59-2.38-.63-.2-.84.72-.27.96,3.49,1.46,6.83,3.27,9.96,5.39l.5-.86c-3-1.58-5.94-3.28-8.8-5.1l-.39.91c3.3,1.11,6.42,2.66,9.31,4.6l.25-.93c-3.19.19-6.06-1.33-8.87-2.62s-5.87-2.25-9.03-2.66c-.55-.07-.69.9-.13.98,6.87,1.03,13.23,3.93,19.49,6.82.58.27,1.09-.59.5-.86h0Z"/>
  <path class="cls-1" d="M76.45,43.07c-.41,4.9-1.04,9.77-1.9,14.61l.96.27c.86-5.47,1.99-10.89,3.12-16.31.11-.53-.63-.91-.91-.39-3.48,6.36-6.03,13.25-6.85,20.48-.07.61.79.61.98.13,1.92-4.75,3.08-9.77,3.46-14.88.04-.59-.81-.64-.98-.13-1.72,5.06-3.02,10.24-3.89,15.51-.09.53.6.9.91.39,2.95-4.89,5.13-10.22,6.43-15.78.11-.45-.49-.89-.84-.49-.96,1.13-1.48,2.53-2.03,3.9-.6,1.5-1.14,3.01-1.64,4.55-1.01,3.1-1.8,6.28-2.39,9.49-.11.62.8.9.96.27,1.43-5.68,2.86-11.36,3.94-17.12l-.96-.27c-.74,4.65-1.48,9.29-2.22,13.94-.1.63.76.89.96.27,1.43-4.3,2.86-8.61,3.93-13.02.13-.54-.63-.9-.91-.39-.66,1.21-1.05,2.52-1.43,3.84-.42,1.46-.84,2.92-1.26,4.38-.84,2.92-1.67,5.84-2.51,8.75-.16.54.63.88.91.39,2.37-4.2,4.01-8.77,4.81-13.53.09-.54-.59-.89-.91-.39-1.09,1.71-1.48,3.85-2.03,5.77-.61,2.12-1.22,4.24-1.84,6.36-.15.53.67.91.91.39,2.24-4.72,3.72-9.74,4.41-14.92h-1c.21,2.84.5,5.67.87,8.5.08.62,1.06.65,1,0-.19-2.08-.61-4.13-1.26-6.12l-.91.39c.93,1.47,1.9,2.94,3.23,4.07l.49-.84c-2.27-.38-4.53-.75-6.8-1.13-.63-.1-.89.76-.27.96,2.71.88,5.42,1.76,8.13,2.63l.27-.96c-5.26-.9-10.52-1.79-15.77-2.69-.62-.11-.9.79-.27.96,3.99,1.12,7.98,2.24,11.97,3.35l.13-.98c-4.84-.44-9.46-2.11-14.27-2.76-.62-.08-.9.77-.27.96,4.83,1.48,9.74,2.65,14.72,3.49l.13-.98c-4.64-.18-9.1-1.87-13.77-1.64-.55.03-.69.82-.13.98,4.19,1.2,8.37,2.39,12.56,3.59l.13-.98c-4.91-.61-9.82-1.21-14.73-1.82v1c3.3.19,6.58.61,9.85,1.06,1.56.21,3.12.43,4.68.64s3.13.46,4.59,1.08l.25-.93c-1.46-.18-2.87-.67-4.12-1.43-.26-.16-.59-.32-.79-.56-.47-.56.18-.31.48-.15.68.36,1.36.72,2.03,1.08.57.3,1.07-.56.5-.86s-1.15-.61-1.73-.92c-.43-.23-.9-.58-1.4-.6-.88-.03-1.27.97-.93,1.68.43.91,1.72,1.46,2.57,1.84,1.08.48,2.21.77,3.38.91.48.06.7-.74.25-.93-1.44-.62-2.95-.92-4.49-1.14-1.67-.24-3.35-.46-5.02-.69-3.36-.46-6.72-.9-10.11-1.09-.66-.04-.62.92,0,1,4.91.61,9.82,1.21,14.73,1.82.57.07.66-.83.13-.98-4.19-1.2-8.37-2.39-12.56-3.59l-.13.98c4.66-.22,9.13,1.46,13.77,1.64.55.02.7-.89.13-.98-4.98-.85-9.9-2.01-14.72-3.49l-.27.96c4.9.66,9.6,2.34,14.54,2.8.57.05.66-.83.13-.98-3.99-1.12-7.98-2.24-11.97-3.35l-.27.96c5.26.9,10.52,1.79,15.77,2.69.63.11.89-.76.27-.96-2.71-.88-5.42-1.76-8.13-2.63l-.27.96c2.27.38,4.53.75,6.8,1.13.44.07.91-.48.49-.84-1.27-1.09-2.18-2.47-3.07-3.87-.29-.46-1.1-.18-.91.39.62,1.9,1.04,3.86,1.22,5.85h1c-.37-2.82-.66-5.66-.87-8.5-.05-.66-.92-.63-1,0-.67,4.99-2.12,9.87-4.28,14.42l.91.39c.59-2.04,1.18-4.09,1.77-6.13.55-1.91.92-4.08,2-5.77l-.91-.39c-.79,4.67-2.38,9.16-4.71,13.29l.91.39c.81-2.84,1.63-5.68,2.44-8.52.4-1.38.79-2.76,1.19-4.14s.77-2.8,1.47-4.08l-.91-.39c-1.06,4.41-2.49,8.72-3.93,13.02l.96.27c.74-4.65,1.48-9.29,2.22-13.94.1-.62-.84-.9-.96-.27-1.08,5.76-2.51,11.44-3.94,17.12l.96.27c.56-3.06,1.3-6.07,2.24-9.04.46-1.46.97-2.91,1.53-4.34s1.05-2.95,2.03-4.12l-.84-.49c-1.29,5.48-3.42,10.72-6.33,15.54l.91.39c.87-5.27,2.17-10.46,3.89-15.51l-.98-.13c-.37,5.02-1.54,9.95-3.43,14.61l.98.13c.8-7.05,3.33-13.78,6.71-19.98l-.91-.39c-1.13,5.42-2.26,10.84-3.12,16.31-.1.63.85.9.96.27.87-4.93,1.51-9.89,1.93-14.88.05-.64-.95-.64-1,0h0Z"/>
  <path class="cls-1" d="M86.97,64.69c-6.28-.45-12.59-.19-18.82.77l.27.96c2.6-1.03,5.27-1.8,8.09-1.83s5.61.37,8.41-.11c.42-.07.49-.73.12-.91-5.83-2.94-12.54-3.83-18.93-2.51-.57.12-.41.97.13.98,4.03.12,8.05.54,12.02,1.25l.13-.98c-2.9-.04-5.79-.07-8.69-.11s-5.72.08-8.52-.44v.96c5.28-.73,10.7-.54,15.87-1.99.63-.18.36-1.06-.27-.96-4.48.72-9,1.18-13.53,1.37-.65.03-.63.94,0,1,3.82.38,7.66.66,11.49.86.65.03.63-.94,0-1-3.22-.32-6.45-.65-9.63-1.3l-.13.98c2.21-.14,4.42-.28,6.63-.42.53-.03,1.06-.07,1.6-.1.41-.02.94-.11,1.31.12.42.27.53.99.63,1.43.12.55.18,1.1.21,1.66.03.65.94.63,1,0,.37-3.85-1.42-7.41-1.81-11.18l-.98.13c1.39,3.8,2.33,7.74,2.79,11.76.07.62,1.02.66,1,0-.15-4.13,1.17-8.16.86-12.3-.04-.47-.68-.72-.93-.25-.74,1.35-1.36,2.75-1.85,4.21-.18.53.68.91.91.39.7-1.58,1.25-3.22,1.63-4.91.11-.5-.46-.82-.84-.49-1.28,1.12-2.55,2.24-3.83,3.36-.48.43.22,1.13.71.71,1.28-1.12,2.55-2.24,3.83-3.36l-.84-.49c-.36,1.6-.86,3.17-1.53,4.67l.91.39c.46-1.38,1.05-2.7,1.75-3.97l-.93-.25c.32,4.13-1,8.17-.86,12.3h1c-.46-4.11-1.4-8.14-2.82-12.02-.18-.49-1.04-.47-.98.13.39,3.76,2.18,7.35,1.81,11.18h1c-.04-1.07-.16-2.36-.71-3.31s-1.58-.96-2.55-.9c-2.7.17-5.4.34-8.1.51-.53.03-.72.86-.13.98,3.26.67,6.58,1,9.89,1.33v-1c-3.84-.2-7.67-.49-11.49-.86v1c4.62-.19,9.23-.67,13.79-1.4l-.27-.96c-5.17,1.45-10.59,1.26-15.87,1.99-.49.07-.47.88,0,.96,2.81.51,5.69.43,8.54.47s5.96.07,8.93.11c.55,0,.7-.88.13-.98-4.06-.73-8.16-1.16-12.29-1.28l.13.98c6.12-1.26,12.58-.41,18.16,2.41l.12-.91c-2.85.49-5.74-.02-8.61.08s-5.35.86-7.88,1.86c-.6.24-.37,1.06.27.96,6.13-.94,12.36-1.18,18.55-.74.64.05.64-.95,0-1h0Z"/>
  <path class="cls-1" d="M75.64,40.79c-4.27,6.49-8.27,13.15-11.98,19.98-.31.57.56,1.07.86.5,3.71-6.83,7.7-13.49,11.98-19.98.36-.54-.51-1.04-.86-.5h0Z"/>
  <path class="cls-1" d="M75.21,42.68c-2.69,5.61-5.98,10.92-9.82,15.81-.39.5.31,1.21.71.71,3.89-4.97,7.24-10.33,9.98-16.02.28-.58-.58-1.09-.86-.5h0Z"/>
  <path class="cls-1" d="M73.55,47.39c-1.72,3.54-3.67,6.96-5.83,10.24-.36.54.51,1.04.86.5,2.17-3.28,4.11-6.71,5.83-10.24.28-.58-.58-1.08-.86-.5h0Z"/>
  <path class="cls-1" d="M72.38,50.63c-1.14,2.85-2.28,5.71-3.42,8.56-.24.6.73.86.96.27,1.14-2.85,2.28-5.71,3.42-8.56.24-.6-.73-.86-.96-.27h0Z"/>
  <path class="cls-1" d="M74.31,42.07c-1.06,1.65-3.41,1.26-5.06,1.11-1.87-.17-3.86-.22-5.66-.78-1.71-.53-3.3-1.57-4.82-2.49s-2.89-1.92-4.04-3.24l-.71.71c3.58,3.88,2.94,9.82,5.59,14.22.74,1.22,1.71,2.3,2.77,3.24s2.2,1.79,3.53,2.29,2.68.48,3.86-.24,2.12-1.79,2.89-2.88c.89-1.27,1.5-2.74,1.66-4.28.2-1.87-.26-3.74-.72-5.54-.05-.2-.27-.38-.48-.37-2.45.12-4.9-.22-7.35-.18s-4.65.55-6.9,1.21-4.46,1.41-6.75,1.87-4.86.73-7.31.86c-2.73.14-5.37,0-8.06-.5-.63-.11-.88.76-.27.96,4.14,1.4,8.27,2.8,12.38,4.29,2.03.73,4.06,1.49,6.08,2.27s4.05,1.67,6.11,2.43c.54.2.86-.63.39-.91-5.95-3.6-12.59-5.91-19.48-6.82v1c8.21.61,15.72,4.48,23.82,5.68.63.09.9-.87.27-.96-8.19-1.21-15.78-5.1-24.09-5.71-.65-.05-.62.92,0,1,6.71.88,13.19,3.18,18.98,6.68l.39-.91c-2.06-.75-4.07-1.63-6.11-2.43s-4.04-1.54-6.08-2.27c-4.11-1.48-8.24-2.89-12.38-4.29l-.27.96c2.34.42,4.64.65,7.02.58s4.77-.27,7.12-.64,4.73-1.04,7.06-1.75,4.51-1.38,6.86-1.56c2.86-.22,5.71.27,8.57.13l-.48-.37c.38,1.53.78,3.09.72,4.69-.05,1.35-.49,2.64-1.18,3.79s-1.63,2.25-2.73,2.99c-1.23.83-2.65.61-3.91-.04-2.29-1.18-4.35-3.28-5.5-5.57-1.06-2.12-1.5-4.49-2.08-6.77-.63-2.48-1.46-4.95-3.23-6.86-.44-.48-1.13.23-.71.71,1.27,1.46,2.86,2.57,4.51,3.56s3.48,2.15,5.44,2.61,4.17.56,6.23.72c1.84.15,3.88.02,4.98-1.69.35-.54-.52-1.04-.86-.5h0Z"/>
  <path class="cls-1" d="M54.06,38.26c5.11,3.41,10.42,6.53,15.89,9.33l.5-.86c-2.32-1.15-4.78-1.99-7.32-2.5l-.13.98c2.88.29,5.76.57,8.64.86.89.09,2.31.51,3.09-.12.74-.59.37-1.53-.36-1.91-.97-.51-2.37-.37-3.42-.27-1.25.11-2.48.38-3.68.75-2.52.78-4.86,1.98-7.22,3.14-2.63,1.29-5.32,2.52-8.24,2.99l.39.91c5.62-2.74,11.68-4.52,17.89-5.24l-.13-.98c-4.91,1.65-9.82,3.31-14.73,4.96l.27.96c5.98-2.07,11.95-4.14,17.93-6.21l-.56-.73c-2.86,4.5-5.64,9.05-8.35,13.64-.34.57.49,1.01.86.5,3.23-4.32,6.31-8.76,9.22-13.31.25-.4-.28-1-.68-.68-4.71,3.63-8.79,7.97-12.12,12.9-.33.49.38.97.79.61,4.09-3.69,8.19-7.42,11.32-11.98.33-.48-.39-1-.79-.61-3.62,3.56-6.78,7.55-9.92,11.53l.79.61c1.29-1.8,2.59-3.6,3.88-5.39l1.87-2.6c.55-.77,1.37-1.57,1.46-2.54.04-.4-.45-.6-.75-.43-2.78,1.51-5.47,3.15-8.09,4.92l.61.79c2.67-2.31,6.38-3.2,8.62-6.04.29-.37.04-.98-.49-.84-6.57,1.86-13.01,4.19-19.26,6.95l.61.79c1.04-.97,2.4-1.38,3.81-1.19l-.25-.93c-.27.13-.54.23-.82.32-.34.11-.52.57-.22.84,3.07,2.75,6.7,4.8,10.64,5.99.56.17.85-.61.39-.91-3.34-2.19-6.81-4.17-10.39-5.94l-.25.93c4.09.21,8.03,1.4,11.92,2.59l.27-.96c-3.6-.86-7.19-1.72-10.79-2.58-.64-.15-.85.73-.27.96,3.62,1.45,7.2,3,10.74,4.63l.39-.91c-4.17-1.73-8.34-3.43-12.53-5.12l-.13.98c4.11.45,8.2,1.02,12.27,1.71.62.11.9-.8.27-.96-3.14-.84-6.28-1.67-9.43-2.51l-.27.96c4.64.68,9.25,1.56,13.81,2.65.62.15.89-.79.27-.96-3.87-1.06-7.77-2.01-11.69-2.86v.96c2.8-.63,5.68-.34,8.5-.05.65.07.62-.92,0-1l-9.25-1.2v1c3.18,0,6.32.5,9.35,1.48l.13-.98c-2.17.21-4.35.28-6.53.21v1c1.05-.11,2.1-.15,3.15-.11.49.02.97.05,1.45.1s.99.19,1.48.18c.83-.02,1.16-.97,1.51-1.6.48-.87.93-1.76,1.35-2.67.25-.53-.34-.96-.79-.61-1.95,1.52-3.85,3.08-5.71,4.7-.42.37.14,1.12.61.79,1.53-1.12,3.06-2.24,4.59-3.36.42-.31.19-1.12-.39-.91-3.46,1.25-6.93,2.43-10.43,3.56l.39.91c2.96-1.64,5.99-3.14,9.1-4.48.52-.22.15-1.08-.39-.91l-1.24.39c-.61.19-.35,1.16.27.96l1.24-.39-.39-.91c-3.11,1.34-6.15,2.83-9.1,4.48-.49.27-.16,1.09.39.91,3.5-1.12,6.98-2.31,10.43-3.56l-.39-.91c-1.53,1.12-3.06,2.24-4.59,3.36l.61.79c1.86-1.62,3.76-3.19,5.71-4.7l-.79-.61c-.36.76-.73,1.52-1.13,2.26-.2.37-.41.74-.62,1.11-.28.49-.49.37-1,.31-1.77-.24-3.55-.26-5.33-.07-.63.07-.66.98,0,1,2.18.06,4.36,0,6.53-.21.55-.05.69-.8.13-.98-3.11-1.01-6.35-1.52-9.61-1.52-.66,0-.62.92,0,1l9.25,1.2v-1c-2.92-.31-5.87-.57-8.77.08-.47.11-.48.86,0,.96,3.92.85,7.82,1.8,11.69,2.86l.27-.96c-4.56-1.09-9.17-1.98-13.81-2.65-.62-.09-.91.79-.27.96,3.14.84,6.28,1.67,9.43,2.51l.27-.96c-4.16-.71-8.34-1.29-12.53-1.74-.61-.07-.61.79-.13.98,4.18,1.68,8.36,3.39,12.53,5.12.52.22.9-.68.39-.91-3.62-1.67-7.28-3.25-10.98-4.73l-.27.96c3.6.86,7.19,1.72,10.79,2.58.63.15.88-.78.27-.96-3.98-1.21-8.01-2.41-12.19-2.62-.48-.03-.7.71-.25.93,3.58,1.76,7.05,3.74,10.39,5.94l.39-.91c-3.78-1.14-7.27-3.09-10.2-5.73l-.22.84c.36-.12.71-.26,1.06-.43.51-.24.18-.88-.25-.93-1.66-.22-3.3.35-4.52,1.49-.45.42.12,1,.61.79,6.17-2.73,12.53-5.01,19.02-6.85l-.49-.84c-2.23,2.82-5.96,3.73-8.62,6.04-.43.37.14,1.1.61.79,2.61-1.77,5.31-3.41,8.09-4.92l-.75-.43c-.04.47-.56.98-.82,1.34l-.86,1.2-1.8,2.5c-1.2,1.66-2.4,3.33-3.59,4.99-.33.46.43,1.05.79.61,3.14-3.98,6.3-7.97,9.92-11.53l-.79-.61c-3.08,4.49-7.14,8.16-11.16,11.78l.79.61c3.22-4.77,7.2-9.02,11.76-12.54l-.68-.68c-2.91,4.55-5.98,8.99-9.22,13.31l.86.5c2.71-4.59,5.49-9.14,8.35-13.64.23-.36-.15-.88-.56-.73-5.98,2.07-11.95,4.14-17.93,6.21-.6.21-.35,1.17.27.96,4.91-1.65,9.82-3.31,14.73-4.96.5-.17.46-1.05-.13-.98-6.39.74-12.61,2.55-18.4,5.37-.55.27-.13,1,.39.91,4.37-.7,8.17-3.08,12.15-4.86,2.13-.95,4.39-1.77,6.73-1.98.52-.05,1.05-.07,1.58-.05.4.01,1.17-.05,1.48.27.34.35-.54.26-.76.24-.66-.06-1.32-.13-1.97-.2-2.76-.27-5.51-.55-8.27-.82-.56-.06-.68.87-.13.98,2.46.49,4.83,1.29,7.08,2.4.57.28,1.08-.57.5-.86-5.47-2.8-10.78-5.92-15.89-9.33-.54-.36-1.04.51-.5.86h0Z"/>
  <path class="cls-1" d="M54.3,38.32c-.55,2.57-2.65,4.35-4.62,5.92-1.07.85-2.17,1.66-3.36,2.32-.6.33-1.22.63-1.86.86-.22.08-1.73.65-1.87.38l-.18.68c2.58-1.11,5.34-1.74,8.14-1.89l-.48-.63c-.2.49-1.17.76-1.61.94-.53.22-1.06.41-1.61.58-1.12.36-2.27.62-3.44.79-.48.07-.48.89,0,.96,3.8.6,7.07,2.81,10.79,3.68.54.13.89-.62.39-.91-2.82-1.65-5.85-2.93-9.01-3.8l-.27.96c3.67.69,7.19,1.97,10.68,3.27.46.17.87-.53.49-.84-1.32-1.06-2.89-1.62-4.49-2.12-.85-.27-1.71-.52-2.52-.88-.6-.26-.26-.52.08-.91.27-.31.55-.61.83-.91,2.2-2.33,4.71-4.53,5.69-7.69.14-.45-.52-.88-.84-.49-2.63,3.24-4.46,7.3-7.97,9.73-.52.36-.03,1.23.5.86,1.98-1.34,3.99-2.76,5.2-4.88.25-.43-.25-.94-.68-.68-1.21.71-2.43,1.42-3.64,2.13-.35.2-.29.65,0,.86l6.7,4.9.39-.91c-1.42-.53-2.78-1.18-4.08-1.96-.45-.27-2.42-1.81-2.47-.33-.02.55.66.61.93.25,2.1-2.76,6.13-4.28,6.35-8.21.03-.54-.66-.62-.93-.25-1.8,2.45-3.46,5.01-4.96,7.66-.32.56.55,1.07.86.5,1.5-2.65,3.15-5.21,4.96-7.66l-.93-.25c-.1,1.76-1.32,3.15-2.58,4.26s-2.6,2.1-3.63,3.44l.93.25v-.09c-.08.14-.16.29-.24.43-.17,0-.14.04.09.13.12.08.25.16.37.24.25.16.5.32.75.47.44.27.9.52,1.36.76.96.5,1.95.92,2.96,1.3.57.21.81-.61.39-.91l-6.7-4.9v.86c1.21-.71,2.43-1.42,3.64-2.13l-.68-.68c-1.12,1.97-3,3.27-4.84,4.52l.5.86c3.61-2.5,5.47-6.56,8.17-9.88l-.84-.49c-1.08,3.47-4.18,5.71-6.45,8.37-.45.53-.97,1.23-.36,1.86.53.55,1.58.79,2.28,1.02,1.78.6,3.69,1.03,5.19,2.24l.49-.84c-3.5-1.29-7.01-2.58-10.68-3.27-.62-.12-.9.79-.27.96,3.08.85,6.02,2.09,8.77,3.7l.39-.91c-3.72-.88-6.99-3.09-10.79-3.68v.96c1.47-.22,2.91-.57,4.3-1.08,1.07-.39,2.58-.79,3.05-1.93.12-.3-.19-.65-.48-.63-2.99.16-5.89.84-8.64,2.03-.25.11-.29.47-.18.68.64,1.19,2.83.17,3.7-.19,1.52-.64,2.89-1.56,4.2-2.56,2.36-1.81,4.99-3.89,5.64-6.95.13-.63-.83-.9-.96-.27h0Z"/>
  <path class="cls-1" d="M56.7,40.76c2.44,1.9,4.94,3.74,7.49,5.49l.5-.86c-2.59-1.66-5.21-3.31-8.15-4.29-.55-.18-.85.62-.39.91,2.72,1.71,5.43,3.42,8.15,5.13l.5-.86c-3.21-1.49-6.37-3.1-9.46-4.83-.57-.32-1.04.51-.5.86,2.88,1.93,5.62,4.04,8.36,6.16.45.35,1.03-.41.61-.79-2.63-2.34-5.81-3.84-8.99-5.29-.47-.21-1.09.41-.61.79,2.39,1.88,4.8,3.76,7.45,5.27.5.29.98-.37.61-.79-.65-.72-1.34-1.45-2.12-2.04-.63-.49-1.31-.48-1.91.06-.71.65-1.31,1.42-2,2.09s-1.46,1.33-2.24,1.94c-.38.3.03,1.02.49.84,2.17-.87,4.23-1.95,6.17-3.27.45-.3.18-1.09-.39-.91-2.58.81-5.15,1.63-7.73,2.44l.39.91c1.86-1.2,3.73-2.39,5.59-3.59.55-.35.07-1.13-.5-.86-1.88.85-3.72,1.79-5.51,2.82l.61.79c1.21-1.35,2.42-2.7,3.63-4.05.37-.41-.1-1.09-.61-.79-1.88,1.13-3.64,2.43-5.27,3.89l.71.71c1.47-1.65,3.05-3.18,4.73-4.61l-.79-.1c.22.33.45.65.67.98.16.24.41.83.72.79l.39.05-.11-.06c-.55-.33-1.06.53-.5.86s1.24-.12,1.15-.77c-.05-.37-.3-.67-.51-.98-.31-.46-.63-.91-.94-1.37-.19-.28-.53-.32-.79-.1-1.68,1.43-3.26,2.96-4.73,4.61-.43.48.23,1.14.71.71,1.57-1.4,3.27-2.64,5.07-3.73l-.61-.79c-1.21,1.35-2.42,2.7-3.63,4.05-.37.41.1,1.08.61.79,1.79-1.03,3.63-1.97,5.51-2.82l-.5-.86c-1.86,1.2-3.73,2.39-5.59,3.59-.46.3-.18,1.09.39.91,2.58-.81,5.15-1.63,7.73-2.44l-.39-.91c-1.86,1.26-3.84,2.33-5.93,3.16l.49.84c1.19-.95,2.32-1.97,3.37-3.08.25-.26.47-.58.74-.82.13-.11.37-.29.56-.24.15.04.36.28.49.39.6.53,1.16,1.09,1.7,1.69l.61-.79c-2.58-1.47-4.92-3.28-7.25-5.11l-.61.79c3.09,1.41,6.23,2.85,8.78,5.13l.61-.79c-2.74-2.12-5.48-4.23-8.36-6.16l-.5.86c3.09,1.73,6.24,3.35,9.46,4.83.58.27,1.06-.51.5-.86-2.72-1.71-5.43-3.42-8.15-5.13l-.39.91c2.86.95,5.4,2.57,7.91,4.19.55.35,1.03-.5.5-.86-2.48-1.71-4.91-3.49-7.29-5.34-.5-.39-1.21.31-.71.71h0Z"/>
  <path class="cls-1" d="M37.71,49.4c3.68,2.88,7.81,5.05,11.99,7.09,4.39,2.15,8.76,4.32,13.01,6.74,2.48,1.41,4.91,2.88,7.32,4.42.54.35,1.05-.52.5-.86-4.17-2.66-8.45-5.14-12.84-7.43-4.16-2.17-8.45-4.07-12.57-6.32-2.34-1.28-4.62-2.69-6.72-4.34-.5-.39-1.21.31-.71.71h0Z"/>
  <path class="cls-1" d="M38.91,49.55c6.87,4.57,13.66,9.26,20.37,14.06.52.38,1.02-.49.5-.86-6.71-4.8-13.5-9.49-20.37-14.06-.54-.36-1.04.51-.5.86h0Z"/>
  <path class="cls-1" d="M41.54,50.57c5.92,4.49,12.23,8.4,18.54,12.3.55.34,1.05-.53.5-.86-6.31-3.9-12.62-7.81-18.54-12.3-.51-.39-1.01.48-.5.86h0Z"/>
  <path class="cls-1" d="M43.04,50.62c5.5,4.17,11.34,7.86,17.46,11.04.57.3,1.08-.57.5-.86-6.12-3.18-11.96-6.87-17.46-11.04-.51-.39-1.01.48-.5.86h0Z"/>
  <path class="cls-1" d="M41.91,48.83c5.19,4.47,10.71,8.55,16.52,12.18.55.34,1.05-.52.5-.86-5.74-3.59-11.19-7.6-16.32-12.02-.49-.42-1.2.29-.71.71h0Z"/>
  <path class="cls-1" d="M46.89,51.32c5.09,3.65,10.38,7,15.86,10.03.56.31,1.07-.55.5-.86-5.48-3.03-10.78-6.38-15.86-10.03-.52-.38-1.02.49-.5.86h0Z"/>
  <path class="cls-1" d="M66.08,57.04c-3.76,2.49-7.21,5.4-10.29,8.69-.44.47.25,1.16.71.71,3.93-3.89,7.87-7.79,11.44-12.02.41-.49-.24-1.17-.71-.71-3.83,3.79-7.67,7.57-11.5,11.36-.46.45.25,1.16.71.71,3.25-3.17,6.51-6.36,9.34-9.93.32-.4-.11-1.16-.61-.79-4.22,3.26-8.29,6.71-12.2,10.35l.71.71c3.01-3.07,6.01-6.14,9.02-9.2.45-.46-.23-1.14-.71-.71-3.27,2.98-6.55,5.96-9.82,8.94-.48.44.23,1.13.71.71,1.84-1.61,3.55-3.35,5.1-5.24,1.43-1.72,2.98-3.6,3.35-5.87.07-.44-.47-.9-.84-.49-2.81,3.21-5.41,6.59-7.81,10.11-.32.47.4,1.01.79.61,2.96-3.07,5.93-6.22,7.61-10.21.21-.5-.5-.78-.84-.49-3.16,2.84-5.95,6.04-8.34,9.55l.86.5c2.08-3.48,4.13-6.97,5.68-10.73.23-.57-.61-.8-.91-.39-2.46,3.29-4.6,6.8-6.39,10.5-.23.48.39,1.07.79.61,2.27-2.65,4.31-5.49,6.09-8.5.28-.48-.41-1.05-.79-.61-1.76,2.05-3.28,4.29-4.52,6.69-.25.48.4,1.06.79.61,1.27-1.48,2.45-3.05,3.52-4.68,1-1.54,2.07-3.16,2.23-5.04.04-.48-.55-.59-.85-.35-2.79,2.23-4.99,5.13-6.38,8.41-.24.57.53,1.08.86.5,1.81-3.08,3.29-6.34,4.41-9.74.18-.54-.65-.88-.91-.39-1.78,3.33-3.38,6.76-4.81,10.26l.96.27c.76-2.47,1.37-4.98,1.83-7.52.09-.52-.64-.93-.91-.39-1.52,3.01-2.82,6.12-3.9,9.31-.21.63.72.84.96.27,1.35-3.22,2.33-6.59,2.91-10.03.11-.64-.72-.86-.96-.27-1.08,2.59-1.85,5.29-2.31,8.06l.96.27c.5-3.03.3-6.11-.62-9.05l-.96.27c.52,1.48,1.04,2.96,1.56,4.44l.96-.27c-.95-2.3-2.11-4.78-4.6-5.71-.58-.22-.8.6-.39.91,2.67,2.01,5.34,4.03,8.01,6.04.45.34,1.04-.42.61-.79-2.8-2.31-6.14-3.87-9.72-4.5-.24-.04-.57.06-.62.35-.22,1.53.45,2.85,1.09,4.19.7,1.46,1.41,2.92,2.19,4.34.22.41.99.25.93-.25-.34-2.85-1.36-5.55-3.03-7.89-.37-.51-1.19-.06-.86.5,1.58,2.72,2.99,5.53,4.22,8.42.23.54,1.04.14.91-.39-.61-2.54-1.34-5.04-2.21-7.5l-.96.27c.96,2.35,1.77,4.76,2.41,7.22.14.53,1.05.44.98-.13-.22-1.79-.43-3.57-.65-5.36l-.98.13c.19,1.3.38,2.6.58,3.9.07.48.69.42.91.12,1.88-2.51,3.76-5.03,5.64-7.54.34-.46-.41-1.02-.79-.61-3.29,3.61-5.51,8.11-6.33,12.93l.98.13c.2-1.62.28-3.24.22-4.87-.02-.66-.93-.63-1,0-.23,2.03-.46,4.06-.7,6.09h1c-.21-2.15-.18-4.32.12-6.46l-.98-.13c.36,3.11.71,6.3-.08,9.38l.98.13c-.03-.91-.06-1.83-.09-2.74-.02-.49-.68-.69-.93-.25-.86,1.47-1.7,2.96-2.5,4.46-.3.57.55,1.07.86.5.85-1.51,1.78-2.99,2.77-4.41l-.86-.5c-1.1,2.08-2.21,4.17-3.31,6.25-.22.41.25.99.68.68,3.09-2.17,6.37-4.04,9.81-5.6l-.5-.86c-1.27.71-2.54,1.42-3.81,2.13-.6.33-1.2.67-1.8,1-.63.35-1.31.85-2.05.88l.35.85c2.58-3.04,5.44-5.83,8.56-8.32.47-.37-.13-1.02-.61-.79-3.4,1.69-6.5,3.95-9.16,6.67-.38.39.13,1.13.61.79,3.6-2.6,7.08-5.38,10.42-8.31.42-.37-.13-1.1-.61-.79-2.51,1.67-4.98,3.41-7.39,5.23l.68.68c.88-1.79,1.6-3.65,2.14-5.57.18-.63-.73-.85-.96-.27-.71,1.78-1.32,3.59-1.82,5.43l.98.13c.1-1.69.32-3.37.66-5.03h-.96c.23.98.14,1.94-.23,2.87-.12.31.19.63.48.63,2.48.01,4.9-.51,7.17-1.53.55-.25.13-1.01-.39-.91-2.7.48-5.92,1.22-7.21,3.97-.51,1.1-.41,2.32.96,2.58,1.69.32,3.46.38,5.17.4l-.25-.93c-2.16,1.1-4.63,1.51-7.03,1.13v.96c5.4-1.56,11.02-1.99,16.61-2.39v-1c-4.58.42-9.16.85-13.74,1.27l.25.93c1.03-.64,2.21-.91,3.38-1.17s2.37-.49,3.55-.71c2.46-.45,4.93-.83,7.4-1.2l-.27-.96c-4.93,1.05-9.91,1.8-14.92,2.25l.35.85c1.41-1.79,2.95-3.45,4.63-4.98.48-.44-.23-1.13-.71-.71-1.49,1.31-2.99,2.62-4.48,3.93-.46.4.13,1,.61.79,5.62-2.52,11.26-5.06,16.46-8.38.54-.35.05-1.19-.5-.86-4.74,2.8-9.48,5.6-14.23,8.41l.5.86c4.15-3.09,8.43-6,12.83-8.73.55-.34.06-1.17-.5-.86-3.85,2.06-7.62,4.27-11.3,6.63l.5.86c3.97-2.84,8.01-5.56,12.13-8.18l-.5-.86c-4.98,3.46-9.88,7.02-14.71,10.68-.26.2-.38.69,0,.86,3.46,1.54,7.02,2.86,10.66,3.92l.27-.96c-3.43-.92-6.91-1.83-10.48-1.7-.65.02-.63.94,0,1,3.03.28,5.99.95,8.85,2l.27-.96c-1.36-.36-2.71-.72-4.07-1.09-.64-.17-.85.73-.27.96,2.88,1.15,5.23,3.55,6.38,6.42,1.44,3.57.6,7.23-.35,10.81-.17.63.75.87.96.27,1.88-5.33,6.06-9.41,8.31-14.56.25-.58-.61-1.09-.86-.5-2.28,5.23-6.49,9.38-8.41,14.8l.96.27c1.03-3.86,1.86-7.8.23-11.63-1.32-3.1-3.83-5.59-6.96-6.83l-.27.96c1.36.36,2.71.72,4.07,1.09.63.17.86-.75.27-.96-2.94-1.07-6-1.75-9.11-2.03v1c3.49-.12,6.87.77,10.22,1.66.62.17.88-.78.27-.96-3.55-1.04-7.04-2.32-10.42-3.82v.86c4.83-3.66,9.73-7.23,14.71-10.68.52-.36.04-1.21-.5-.86-4.11,2.62-8.16,5.35-12.13,8.18-.51.37-.05,1.22.5.86,3.68-2.36,7.45-4.57,11.3-6.63l-.5-.86c-4.4,2.73-8.68,5.64-12.83,8.73-.5.37-.06,1.2.5.86,4.74-2.8,9.48-5.6,14.23-8.41l-.5-.86c-5.2,3.32-10.84,5.86-16.46,8.38l.61.79c1.49-1.31,2.99-2.62,4.48-3.93l-.71-.71c-1.68,1.53-3.23,3.19-4.63,4.98-.24.3-.13.9.35.85,5.1-.46,10.18-1.22,15.19-2.29.64-.14.35-1.06-.27-.96-2.55.38-5.1.77-7.63,1.24-1.26.23-2.52.49-3.77.77-1.11.25-2.2.57-3.17,1.17-.39.24-.27.98.25.93,4.58-.42,9.16-.85,13.74-1.27.63-.06.65-1.05,0-1-5.67.41-11.39.84-16.88,2.43-.44.13-.51.88,0,.96,2.68.42,5.38,0,7.8-1.23.46-.23.22-.93-.25-.93-1.3-.01-2.6-.09-3.9-.23-.49-.05-1.52.02-1.56-.64-.02-.46.39-1.05.66-1.4,1.43-1.89,3.95-2.33,6.14-2.72l-.39-.91c-2.1.94-4.36,1.41-6.66,1.39l.48.63c.44-1.09.51-2.26.23-3.4-.11-.47-.87-.49-.96,0-.36,1.75-.59,3.52-.69,5.3-.03.57.83.67.98.13.51-1.84,1.12-3.66,1.82-5.43l-.96-.27c-.52,1.84-1.2,3.62-2.04,5.33-.2.4.25,1.01.68.68,2.41-1.81,4.87-3.56,7.39-5.23l-.61-.79c-3.27,2.88-6.68,5.6-10.21,8.16l.61.79c2.6-2.66,5.62-4.85,8.95-6.51l-.61-.79c-3.12,2.49-5.98,5.27-8.56,8.32-.26.31-.11.87.35.85.67-.03,1.23-.29,1.81-.61.71-.39,1.41-.79,2.12-1.18,1.41-.79,2.83-1.57,4.24-2.36.57-.32.07-1.12-.5-.86-3.44,1.56-6.72,3.43-9.81,5.6l.68.68c1.1-2.08,2.21-4.17,3.31-6.25.3-.58-.5-1.03-.86-.5-.99,1.43-1.92,2.9-2.77,4.41l.86.5c.8-1.5,1.64-2.99,2.5-4.46l-.93-.25c.03.91.06,1.83.09,2.74.02.55.84.69.98.13.81-3.17.48-6.44.11-9.65-.06-.5-.9-.74-.98-.13-.31,2.23-.38,4.48-.15,6.72.06.65.93.64,1,0,.23-2.03.46-4.06.7-6.09h-1c.06,1.63-.01,3.25-.22,4.87-.07.55.89.69.98.13.79-4.65,2.89-9,6.07-12.49l-.79-.61c-1.88,2.51-3.76,5.03-5.64,7.54l.91.12c-.19-1.3-.38-2.6-.58-3.9-.08-.55-1.05-.43-.98.13.22,1.79.43,3.57.65,5.36l.98-.13c-.64-2.46-1.45-4.87-2.41-7.22-.24-.58-1.18-.35-.96.27.86,2.46,1.6,4.97,2.21,7.5l.91-.39c-1.23-2.89-2.64-5.7-4.22-8.42l-.86.5c1.56,2.19,2.57,4.72,2.89,7.39l.93-.25c-.66-1.22-1.28-2.45-1.88-3.7s-1.51-2.65-1.3-4.07l-.62.35c3.4.6,6.61,2.05,9.27,4.25l.61-.79c-2.67-2.01-5.34-4.03-8.01-6.04l-.39.91c2.1.79,3.1,3.09,3.9,5.01.24.58,1.18.35.96-.27-.52-1.48-1.04-2.96-1.56-4.44-.21-.6-1.16-.35-.96.27.86,2.76,1.08,5.66.62,8.51-.1.63.86.9.96.27.46-2.77,1.23-5.47,2.31-8.06l-.96-.27c-.58,3.45-1.55,6.81-2.91,10.03l.96.27c1.05-3.11,2.31-6.14,3.8-9.07l-.91-.39c-.46,2.54-1.07,5.05-1.83,7.52-.19.63.73.84.96.27,1.39-3.42,2.97-6.76,4.71-10.02l-.91-.39c-1.09,3.31-2.54,6.49-4.31,9.5l.86.5c1.36-3.22,3.49-6.03,6.22-8.21l-.85-.35c-.15,1.74-1.29,3.31-2.22,4.72-.99,1.5-2.07,2.93-3.24,4.29l.79.61c1.2-2.33,2.66-4.5,4.36-6.49l-.79-.61c-1.73,2.93-3.71,5.71-5.93,8.3l.79.61c1.8-3.69,3.93-7.21,6.39-10.5l-.91-.39c-1.51,3.67-3.55,7.09-5.57,10.49-.33.56.5,1.03.86.5,2.34-3.43,5.1-6.56,8.19-9.34l-.84-.49c-1.6,3.81-4.52,6.84-7.35,9.77l.79.61c2.35-3.46,4.9-6.76,7.65-9.91l-.84-.49c-.36,2.24-1.96,4.09-3.38,5.78s-3.09,3.38-4.81,4.89l.71.71c3.27-2.98,6.55-5.96,9.82-8.94l-.71-.71c-3.01,3.07-6.01,6.14-9.02,9.2-.45.46.24,1.15.71.71,3.84-3.58,7.84-6.99,11.99-10.2l-.61-.79c-2.83,3.57-6.08,6.75-9.34,9.93l.71.71c3.83-3.79,7.67-7.57,11.5-11.36l-.71-.71c-3.57,4.23-7.5,8.13-11.44,12.02l.71.71c3.02-3.23,6.4-6.09,10.09-8.53.53-.35.03-1.22-.5-.86h0Z"/>
  <path class="cls-1" d="M82.6,64.41c-3.73,2.16-7.69,4.6-9.19,8.89-.17.48.5.82.84.49,3.23-3.23,6.46-6.46,9.69-9.69.41-.41-.11-1.04-.61-.79-4.88,2.51-9.59,5.32-14.12,8.41-.53.36-.03,1.23.5.86,4.53-3.09,9.24-5.9,14.12-8.41l-.61-.79c-3.23,3.23-6.46,6.46-9.69,9.69l.84.49c1.4-4.01,5.25-6.28,8.73-8.3.56-.32.05-1.19-.5-.86h0Z"/>
  <path class="cls-1" d="M69.22,58.94c-1.24.12-2.41.43-3.56.93-.5.22-.18.89.25.93,1.96.19,3.93.18,5.9-.02l-.13-.98c-2.72.51-5.51,1.1-8.29,1.08-1.21,0-2.42-.33-2.9-1.56s.05-2.51.87-3.43l-.79-.61c-.72,1.55-1.64,3.01-2.77,4.3s-2.3,2.32-3.5,3.43-2.27,2.16-3.22,3.41c-1.05,1.37-1.78,2.96-2.95,4.24l.61-.08c-.19-.14.57-.36.63-.36.36-.03.73,0,1.09-.01.81-.01,1.63-.05,2.44-.1,1.59-.1,3.17-.27,4.75-.49,3.23-.44,6.44-1.07,9.64-1.7.55-.11.43-1.01-.13-.98-3.52.2-7.03.41-10.55.61l.25.93c4.14-1.8,8.48-3.1,12.8-4.4.62-.18.36-1.12-.27-.96-5.14,1.3-10.3,2.46-15.5,3.48l.27.96c2.82-.67,5.64-1.34,8.46-2,2.55-.6,5.33-.99,7.65-2.26.52-.29.15-1.02-.39-.91-2.64.51-5.26,1.07-7.88,1.67-1.2.28-2.41.54-3.6.87-1.02.28-1.99.68-2.78,1.4-.36.33.02,1.01.49.84,1.91-.7,3.8-1.46,5.65-2.3.94-.43,1.88-.87,2.8-1.34.68-.35,1.25-.72,1.35-1.53.04-.3-.35-.6-.63-.48-3.63,1.48-7.01,3.48-10.06,5.95-.39.32.03.98.49.84,5.57-1.75,11.14-3.5,16.72-5.25l-.39-.91c-3.53,2.69-7.78,4.32-12.22,4.61l.25.93c2.54-1.17,5.22-2,7.89-2.83l-.39-.91c-2.54,1.95-5.36,3.49-8.37,4.56-.35.13-.55.73-.12.91,3.46,1.46,6.93,2.89,10.42,4.28.6.24.86-.73.27-.96-3.41-1.36-6.8-2.75-10.18-4.18l-.12.91c3.1-1.1,6-2.66,8.61-4.66.41-.32.2-1.1-.39-.91-2.75.86-5.5,1.73-8.12,2.93-.45.21-.23.96.25.93,4.6-.3,9.05-1.94,12.72-4.74.41-.32.2-1.1-.39-.91-5.57,1.75-11.14,3.5-16.72,5.25l.49.84c2.91-2.35,6.16-4.27,9.62-5.69l-.63-.48c-.04.33-.6.53-.86.66-.39.2-.78.39-1.18.58-.75.36-1.51.71-2.28,1.05-1.56.69-3.15,1.32-4.76,1.91l.49.84c.81-.74,1.87-1.03,2.91-1.29,1.17-.29,2.34-.56,3.51-.83,2.46-.56,4.93-1.08,7.4-1.56l-.39-.91c-1.13.62-2.36.96-3.6,1.26-1.35.33-2.7.64-4.05.96-2.74.65-5.48,1.3-8.22,1.95-.63.15-.36,1.09.27.96,5.2-1.03,10.37-2.19,15.5-3.48l-.27-.96c-4.41,1.32-8.81,2.66-13.04,4.5-.46.2-.22.96.25.93,3.52-.2,7.03-.41,10.55-.61l-.13-.98c-3.91.77-7.84,1.55-11.81,1.96-1.92.2-3.83.23-5.75.3-.61.02-1.27.18-1.57.77-.28.54-.13,1.1.34,1.46.17.13.47.07.61-.08,1.16-1.27,1.91-2.82,2.92-4.19s2.2-2.48,3.41-3.6,2.42-2.2,3.48-3.45c1.12-1.32,2.06-2.78,2.79-4.35.22-.48-.38-1.06-.79-.61-.93,1.04-1.52,2.36-1.29,3.77s1.19,2.42,2.53,2.76c1.5.38,3.2.12,4.71-.07,1.79-.22,3.57-.55,5.34-.88.55-.1.43-1.04-.13-.98-1.96.2-3.93.21-5.9.02l.25.93c.97-.42,2-.69,3.05-.79.63-.06.64-1.06,0-1h0Z"/>
  <path class="cls-1" d="M82.1,78.41c-2.03-1.01-3.98-2.16-5.83-3.46-1.75-1.23-3.69-2.58-4.8-4.46-.33-.55-1.19-.05-.86.5,1.14,1.93,3.05,3.3,4.84,4.59,1.95,1.4,4.01,2.63,6.16,3.69.57.28,1.08-.58.5-.86h0Z"/>
  <path class="cls-1" d="M77.39,64.65c-2.86,2.99-5.19,6.45-6.86,10.24-.22.51.34,1,.79.61,1.91-1.68,3.7-3.49,5.36-5.41,1.46-1.69,2.94-3.54,3.29-5.82.06-.37-.34-.87-.73-.56-5.37,4.14-7.84,10.57-11.07,16.3-.27.48.4,1.04.79.61,1.72-1.93,3.25-4.03,4.55-6.26.28-.47-.42-1.06-.79-.61-2.04,2.51-3.73,5.27-5.01,8.24-.22.51.34,1,.79.61,1.98-1.74,3.63-3.78,5.23-5.86,1.76-2.29,3.51-4.59,5.27-6.88.34-.45-.42-1.04-.79-.61-1.19,1.44-.92,3.36-.43,5.03s1.31,3.37,2.87,4.33v-.86c-2.51,1.1-5.41.22-7.93,1.32-1.16.51-2.13,1.37-2.99,2.28-1.01,1.07-1.92,2.23-2.76,3.44-.37.53.5,1.03.86.5.94-1.33,1.92-2.71,3.25-3.68s2.98-1.38,4.46-2.1c.65-.32,1.38-.7,1.82-1.29s.43-1.29.27-1.97c-.39-1.7-1.4-3.19-1.45-4.98l-.93.25c.58,1.06,1.15,2.13,1.71,3.2.3.57.6,1.15.89,1.72.25.5.58,1.12-.13,1.36-.42.14-.89.11-1.32.12-.59.01-1.17.02-1.76.06-1.03.08-2.02.27-2.96.73l.5.86c.83-.48,1.66-.96,2.5-1.44.64-.37,1.28-.64,1.41-1.44.14-.85.18-1.67.44-2.5s.64-1.62,1.11-2.36l-.91-.39c-.41,1.27-.82,2.55-1.38,3.77-.38.82-1.11,2.58-2.27,2.35l.3.73c.65-.87,1.29-1.74,1.94-2.61.34-.46-.39-1-.79-.61l-1.44,1.44c-.28.28-.09.9.35.85.84-.09,1.76-.82,2.59-.53.43.15.83.4,1.27.55.48.16.98.24,1.48.29l-.13-.98c-1.5.59-3.06,1-4.66,1.2l.35.85c.8-.83,1.76-1.4,2.87-1.7.62-.17.36-1.13-.27-.96-1.27.35-2.4,1.01-3.31,1.96-.27.28-.1.91.35.85,1.69-.21,3.34-.61,4.93-1.23.53-.21.44-.93-.13-.98s-1.18-.21-1.73-.46c-.38-.18-.73-.38-1.15-.44-.9-.12-1.6.51-2.46.6l.35.85,1.44-1.44-.79-.61c-.65.87-1.29,1.74-1.94,2.61-.18.25,0,.68.3.73,1.41.27,2.38-.86,2.99-1.99.82-1.53,1.36-3.19,1.89-4.83.18-.56-.62-.85-.91-.39-.82,1.29-1.36,2.73-1.57,4.25-.04.29,0,.66-.09.94-.13.45-.77.66-1.14.87-.76.44-1.53.88-2.29,1.32-.56.32-.07,1.14.5.86,1.24-.61,2.64-.62,3.99-.65.9-.02,2.15.07,2.75-.77.71-1-.25-2.29-.71-3.19-.68-1.33-1.38-2.64-2.1-3.95-.24-.43-.94-.24-.93.25.04,1.62.75,3.04,1.27,4.55.13.37.28.77.28,1.17.01.56-.35.86-.79,1.15-.67.44-1.41.75-2.15,1.05-1.39.55-2.73,1.1-3.88,2.09s-2.07,2.27-2.96,3.52l.86.5c.81-1.17,1.69-2.28,2.67-3.31.9-.94,1.91-1.82,3.18-2.21,2.44-.76,5.07-.11,7.46-1.16.36-.16.29-.68,0-.86-1.27-.79-1.93-2.17-2.36-3.56-.4-1.31-.85-3.07.12-4.24l-.79-.61c-1.71,2.23-3.41,4.47-5.13,6.7-1.59,2.07-3.24,4.11-5.21,5.84l.79.61c1.25-2.89,2.87-5.6,4.85-8.04l-.79-.61c-1.26,2.16-2.73,4.19-4.4,6.06l.79.61c3.12-5.55,5.51-11.93,10.71-15.94l-.73-.56c-.34,2.27-1.86,4.06-3.33,5.72-1.58,1.8-3.27,3.49-5.06,5.07l.79.61c1.63-3.71,3.89-7.1,6.7-10.03.45-.46-.26-1.17-.71-.71h0Z"/>
  <path class="cls-1" d="M76.66,65.05c.12,1.11-.41,2.13-.84,3.12-.48,1.1-.95,2.2-1.43,3.3-.22.51.34,1,.79.61,1.69-1.47,3.13-3.21,4.25-5.15.32-.56-.54-1.06-.86-.5-1.09,1.87-2.47,3.53-4.1,4.95l.79.61c.51-1.18,1.02-2.36,1.54-3.54.46-1.07,1-2.18.87-3.38-.03-.27-.21-.5-.5-.5-.25,0-.53.23-.5.5h0Z"/>
  <path class="cls-1" d="M78.52,65.43c-2.49,4.02-4.48,8.34-5.92,12.84l.96.27c.69-3.25,1.41-6.67,3.55-9.31.4-.5-.3-1.21-.71-.71-2.26,2.79-3.08,6.31-3.81,9.75-.13.63.77.88.96.27,1.42-4.43,3.37-8.65,5.82-12.6.34-.55-.53-1.05-.86-.5h0Z"/>
  <path class="cls-1" d="M83.32,64.98c-4.22,1.23-8.44,2.46-12.66,3.69l.49.84c1.67-1.59,3.49-2.98,5.46-4.18l-.61-.79c-3.26,3.75-6.47,7.62-8.73,12.08-.24.48.4,1.06.79.61,3.17-3.72,6.02-7.7,8.51-11.9.33-.56-.51-1.04-.86-.5-3.11,4.69-5.74,9.67-7.89,14.87l.96.27c.12-.88.25-1.75.37-2.63.07-.5-.67-.96-.91-.39-.85,1.97-1.39,4.01-1.62,6.14-.07.64.93.63,1,0,.21-1.94.71-3.84,1.48-5.63l-.91-.39c-.12.88-.25,1.75-.37,2.63-.09.64.72.87.96.27,2.12-5.12,4.73-10.02,7.79-14.64l-.86-.5c-2.45,4.13-5.24,8.05-8.35,11.7l.79.61c2.22-4.39,5.36-8.19,8.57-11.88.36-.41-.1-1.09-.61-.79-2.04,1.24-3.93,2.69-5.66,4.33-.36.34.01.97.49.84,4.22-1.23,8.44-2.46,12.66-3.69.62-.18.35-1.14-.27-.96h0Z"/>
  <path class="cls-1" d="M66.49,83.15c-.24.93-.39,1.87-.45,2.83h1c0-1.93.05-3.88-.02-5.81-.06-1.71-.64-3.21-1.45-4.71-.72-1.33-1.6-2.6-2.74-3.6-.57-.49-1.18-.91-1.86-1.24-.59-.29-1.41-.57-1.66-1.25l-.62.62c1.04.33,1.82,1.09,2.56,1.87s1.45,1.61,2.1,2.47c1.29,1.71,2.4,3.55,3.31,5.48.17.35.68.3.86,0,1.38-2.32,2.67-4.69,3.93-7.08.61-1.17,1.23-2.33,1.82-3.51.49-.97.9-2.05.51-3.12-.13-.37-.54-.48-.84-.22-1.82,1.58-3.33,3.5-4.42,5.66s-1.47,4.79-2.88,6.83l.91.12c-.46-1.86-.81-3.81-1.5-5.6s-1.84-3.13-3.03-4.52l-.61.79c2.92,2.25,5.01,5.46,5.93,9.03l.84-.49c-2.18-1.92-3.66-4.47-4.23-7.32l-.91.39c1.71,2.28,3.16,4.73,4.31,7.33l.86-.5c-.75-1.19-1.38-2.44-1.85-3.76-.22-.63-.42-1.27-.58-1.91s-.49-1.5.13-1.99c.52-.41,1.16-.72,1.73-1.05.62-.36,1.24-.71,1.87-1.06.93-.5,2.47-.94,2.57-2.17.03-.35-.34-.54-.63-.48-3.25.64-6.32,2-8.99,3.97-.41.31-.19,1.13.39.91,3.21-1.2,6.43-2.4,9.64-3.6l-.62-.62c-1.2,3.01-2.57,5.95-4.09,8.81-.26.48.4,1.05.79.61,1.7-1.97,3.41-3.95,5.11-5.92.43-.49-.21-1.11-.71-.71l-5.79,4.77.79.61c1.31-2.35,2.62-4.71,3.94-7.06.32-.57-.52-1.04-.86-.5-1.54,2.4-2.91,4.9-4.09,7.49l.79-.1c-1.43-1.23-2.63-2.66-3.59-4.28l-.79.61c1.74,1.53,3.22,3.31,4.39,5.31l.86-.5c-1.78-2.59-3.32-5.33-4.6-8.21l-.79.61c2.04,2.06,3.84,4.32,5.39,6.77.34.54,1.2.05.86-.5-1.33-2.21-2.63-4.45-3.9-6.69l-.43.75c.39-.05.93.98,1.14,1.26.34.47.67.94.98,1.42.61.93,1.18,1.89,1.72,2.87.31.57,1.16.06.86-.5-.72-1.37-1.24-2.82-1.57-4.34l-.91.39c.8,1.35,1.43,2.76,1.91,4.25.2.62,1.08.36.96-.27-.32-1.71-.65-3.41-.97-5.12l-.96.27c.34,1.45.68,2.9,1.03,4.35.14.59.92.39.98-.13.2-1.64.16-3.27-.1-4.89-.08-.48-.88-.48-.96,0-.25,1.51-.36,3.03-.3,4.56.03.66.93.63,1,0,.24-2.12.42-4.25.52-6.38.03-.64-.97-.64-1,0-.1,2.13-.28,4.26-.52,6.38h1c-.06-1.44.03-2.87.27-4.29h-.96c.25,1.53.26,3.09.06,4.63l.98-.13c-.34-1.45-.68-2.9-1.03-4.35-.15-.63-1.08-.36-.96.27.32,1.71.65,3.41.97,5.12l.96-.27c-.5-1.57-1.17-3.07-2.01-4.49-.3-.5-1.03-.16-.91.39.35,1.6.91,3.13,1.67,4.57l.86-.5c-.68-1.25-1.43-2.46-2.24-3.63-.39-.57-.8-1.13-1.23-1.67-.32-.41-.68-.81-1.24-.74-.37.04-.64.39-.43.75,1.27,2.25,2.57,4.48,3.9,6.69l.86-.5c-1.6-2.52-3.45-4.85-5.55-6.97-.42-.43-1.01.11-.79.61,1.28,2.87,2.82,5.61,4.6,8.21.36.52,1.19.06.86-.5-1.21-2.07-2.74-3.93-4.55-5.51-.41-.36-1.09.1-.79.61,1,1.69,2.26,3.2,3.75,4.48.22.19.64.21.79-.1,1.18-2.59,2.55-5.09,4.09-7.49l-.86-.5c-1.31,2.35-2.62,4.71-3.94,7.06-.29.52.36.96.79.61l5.79-4.77-.71-.71c-1.7,1.97-3.41,3.95-5.11,5.92l.79.61c1.57-2.94,2.96-5.96,4.19-9.05.14-.34-.28-.74-.62-.62-3.21,1.2-6.43,2.4-9.64,3.6l.39.91c2.6-1.92,5.57-3.24,8.75-3.87l-.63-.48c-.03.31-.58.51-.81.63-.35.19-.71.37-1.06.56-.67.36-1.33.73-1.98,1.11-.95.55-2.52,1.14-2.68,2.4-.08.61.11,1.25.25,1.83.17.68.37,1.36.61,2.02.5,1.36,1.14,2.67,1.91,3.9.35.56,1.12.07.86-.5-1.16-2.6-2.6-5.06-4.31-7.33-.33-.45-1.03-.2-.91.39.6,3,2.19,5.74,4.49,7.76.37.32.97.02.84-.49-1-3.84-3.26-7.21-6.39-9.62-.48-.37-.95.38-.61.79,1.18,1.37,2.33,2.76,2.92,4.5s.92,3.46,1.35,5.19c.11.45.68.46.91.12,1.39-2,1.73-4.48,2.79-6.64s2.54-4.06,4.35-5.64l-.84-.22c.4,1.11-.34,2.22-.84,3.18-.57,1.11-1.15,2.22-1.73,3.32-1.15,2.17-2.33,4.33-3.59,6.44h.86c-1-2.1-2.22-4.09-3.66-5.92-1.29-1.65-2.83-3.7-4.91-4.35-.34-.11-.75.26-.62.62.48,1.32,1.87,1.62,2.94,2.31,1.33.86,2.33,2.15,3.12,3.5.88,1.51,1.56,3.06,1.61,4.84.05,1.9.01,3.8.02,5.7,0,.65.96.64,1,0,.05-.87.19-1.72.41-2.56.16-.62-.8-.89-.96-.27h0Z"/>
  <g>
    <path class="cls-2" d="M122.38,78.8c-10.13-4.62-17.42-7.85-22.42-10.03-4.28-1.87-7.93-3.43-11.57-7.08-4.14-4.14-5.86-8.57-6.79-10.95-5.91-15.21-.93-36.53-.1-39.95"/>
    <path class="cls-2" d="M36.57,8.85c4.41,8.02,8.44,14.32,11.44,18.76,3.98,5.89,6.23,8.64,5.38,11.93-1.46,5.62-10.61,7.43-11.77,7.66-7.29,1.44-35.69-9.51-38.33-10.02"/>
    <path class="cls-2" d="M21.42,95.35c6.32-4.95,11.33-9.23,14.84-12.33,9.04-7.98,12.07-11.56,17.4-11.57,3.49,0,7.85,1.52,9.98,4.93.36.57,1.67,2.82,1.04,8.69-.61,5.72-2.54,9.82-4.3,13.51-3.55,7.41-6.49,13.37-8.58,17.55"/>
    <path class="cls-2" d="M99.96,68.77c-4.21-1.81-11.64-2.4-14.05-2.51-2.01-.1-3.2-.05-4.38.65-1.93,1.15-3.1,3.51-3.04,5.52.11,3.48,3.95,5.91,6.68,7.57,5.02,3.06,12.81,7.51,23.6,12.61"/>
    <path class="cls-2" d="M88.02,81.69c-1.21-.64-15.37-9.32-25.35,11.99"/>
    <path class="cls-2" d="M78.77,31.19c-.13,1.36-1.99,9.3-3.98,10.54-3.42,2.13-7.07,1.54-9.02,1.22-3.47-.56-5.88-2.11-7.21-2.98-1.82-1.2-6.22-6.19-7.09-7.14"/>
    <path class="cls-2" d="M32.7,46.22c1.55.84,8.84,4.89,10.98,7.18,1.35,1.44,3.51,3.75,4.55,7.22,1.58,5.3-2.55,13.32-3.33,14.92"/>
  </g>
  <path class="cls-1" d="M77.76,35.92c-2.47,8.74-5.22,17.46-7.02,26.37-.13.63.82.9.96.27.94-4.23,2.05-8.43,3.25-12.59.59-2.05,1.19-4.09,1.8-6.12s1.02-4.08,2.17-5.79l-.91-.39c-.87,5.72-.4,11.48.43,17.18l.96-.27c-.62-2.29-1.01-4.63-1.12-7-.1-2.03-.21-4.35,1.04-6.08l-.93-.25c-.27,7.21,1.01,14.43,3.73,21.11.24.59,1.21.33.96-.27-2.69-6.6-3.96-13.71-3.69-20.84.02-.54-.66-.63-.93-.25-1.3,1.81-1.28,4.21-1.19,6.34.1,2.54.5,5.06,1.17,7.51.17.64,1.05.35.96-.27-.8-5.5-1.28-11.12-.43-16.65.08-.55-.58-.88-.91-.39-1.11,1.66-1.57,3.67-2.13,5.56-.63,2.12-1.26,4.24-1.87,6.36-1.22,4.25-2.37,8.52-3.32,12.83l.96.27c1.8-8.91,4.56-17.63,7.02-26.37.18-.62-.79-.89-.96-.27h0Z"/>
  <path class="cls-1" d="M93.52,65.81c-3.39-1.01-6.8-2.02-10.29-2.59s-7.06-.62-10.61-.63l.13.98c4.66-.89,9.46-.32,13.97,1.05.51.16,1.02.32,1.53.5.28.1.57.24.86.31.06.01.45.18.09-.04-.22-.13-.29-.06-.54-.02-1.15.2-2.35-.18-3.47-.38-2.34-.42-4.72-.64-7.1-.64-2.7,0-5.39.28-8.04.82-.63.13-.36,1.09.27.96,2.71-.55,5.48-.81,8.24-.78,1.39.02,2.77.11,4.15.27s2.66.45,4,.67c.97.15,2.36.33,3.2-.33.31-.25.46-.65.24-1.01-.25-.42-.89-.53-1.31-.68-2.46-.87-5-1.52-7.59-1.86-2.92-.38-5.87-.35-8.77.2-.56.11-.42.98.13.98,3.54.02,7.09.05,10.58.64s6.74,1.57,10.06,2.55c.62.18.88-.78.27-.96h0Z"/>
  <path class="cls-1" d="M91.77,64.47c-2.77-1.83-4.99-4.34-7.87-6.02s-5.95-2.66-9.04-3.66c-.61-.2-.88.77-.27.96,3.08,1,6.19,2.01,8.99,3.67s4.98,4.12,7.68,5.91c.54.36,1.04-.51.5-.86h0Z"/>
  <path class="cls-1" d="M79.31,45.76c-.06,5.69.6,11.38,1.96,16.91.15.62,1.12.36.96-.27-1.33-5.45-1.97-11.03-1.92-16.64,0-.64-.99-.64-1,0h0Z"/>
  <path class="cls-1" d="M80.27,48.61c-.22,3.53.01,7.07.69,10.54.12.63,1.09.36.96-.27-.66-3.38-.87-6.83-.65-10.27.04-.64-.96-.64-1,0h0Z"/>
  <path class="cls-1" d="M80.86,50.77c.24,2.47.65,4.93,1.21,7.35.15.63,1.11.36.96-.27-.55-2.33-.94-4.7-1.18-7.09-.06-.63-1.06-.64-1,0h0Z"/>
  <path class="cls-1" d="M81.64,53.32c.98,2.94,2.54,5.64,4.58,7.96l.71-.71c-1.6-1.7-3.29-3.31-5.08-4.82-.49-.41-1.2.29-.71.71,1.79,1.51,3.48,3.11,5.08,4.82.44.47,1.13-.23.71-.71-1.93-2.19-3.4-4.75-4.33-7.52-.2-.61-1.17-.35-.96.27h0Z"/>
  <path class="cls-1" d="M90.17,64.34c-6.33-2.92-12.77-5.88-19.73-6.92l-.13.98c3.28.43,6.33,1.5,9.32,2.89,2.71,1.26,5.52,2.57,8.58,2.39.5-.03.67-.65.25-.93-2.96-1.99-6.17-3.56-9.55-4.7-.55-.19-.85.62-.39.91,2.86,1.82,5.8,3.52,8.8,5.1.57.3,1.04-.5.5-.86-3.21-2.17-6.62-4-10.2-5.49l-.27.96c2.22.72,4.42,1.52,6.59,2.38.51.2.77-.5.49-.84-1.72-2.04-3.97-3.54-6.5-4.38-.56-.19-.83.61-.39.91,2.67,1.82,5.4,3.55,8.17,5.21.55.33,1.06-.53.5-.86-4.22-2.55-8.52-4.95-12.9-7.2-.57-.29-1.08.57-.5.86,4.38,2.25,8.68,4.65,12.9,7.2l.5-.86c-2.77-1.66-5.5-3.39-8.17-5.21l-.39.91c2.37.79,4.45,2.22,6.06,4.12l.49-.84c-2.17-.86-4.37-1.65-6.59-2.38-.63-.2-.84.72-.27.96,3.49,1.46,6.83,3.27,9.96,5.39l.5-.86c-3-1.58-5.94-3.28-8.8-5.1l-.39.91c3.3,1.11,6.42,2.66,9.31,4.6l.25-.93c-3.19.19-6.06-1.33-8.87-2.62s-5.87-2.25-9.03-2.66c-.55-.07-.69.9-.13.98,6.87,1.03,13.23,3.93,19.49,6.82.58.27,1.09-.59.5-.86h0Z"/>
  <path class="cls-1" d="M76.45,43.07c-.41,4.9-1.04,9.77-1.9,14.61l.96.27c.86-5.47,1.99-10.89,3.12-16.31.11-.53-.63-.91-.91-.39-3.48,6.36-6.03,13.25-6.85,20.48-.07.61.79.61.98.13,1.92-4.75,3.08-9.77,3.46-14.88.04-.59-.81-.64-.98-.13-1.72,5.06-3.02,10.24-3.89,15.51-.09.53.6.9.91.39,2.95-4.89,5.13-10.22,6.43-15.78.11-.45-.49-.89-.84-.49-.96,1.13-1.48,2.53-2.03,3.9-.6,1.5-1.14,3.01-1.64,4.55-1.01,3.1-1.8,6.28-2.39,9.49-.11.62.8.9.96.27,1.43-5.68,2.86-11.36,3.94-17.12l-.96-.27c-.74,4.65-1.48,9.29-2.22,13.94-.1.63.76.89.96.27,1.43-4.3,2.86-8.61,3.93-13.02.13-.54-.63-.9-.91-.39-.66,1.21-1.05,2.52-1.43,3.84-.42,1.46-.84,2.92-1.26,4.38-.84,2.92-1.67,5.84-2.51,8.75-.16.54.63.88.91.39,2.37-4.2,4.01-8.77,4.81-13.53.09-.54-.59-.89-.91-.39-1.09,1.71-1.48,3.85-2.03,5.77-.61,2.12-1.22,4.24-1.84,6.36-.15.53.67.91.91.39,2.24-4.72,3.72-9.74,4.41-14.92h-1c.21,2.84.5,5.67.87,8.5.08.62,1.06.65,1,0-.19-2.08-.61-4.13-1.26-6.12l-.91.39c.93,1.47,1.9,2.94,3.23,4.07l.49-.84c-2.27-.38-4.53-.75-6.8-1.13-.63-.1-.89.76-.27.96,2.71.88,5.42,1.76,8.13,2.63l.27-.96c-5.26-.9-10.52-1.79-15.77-2.69-.62-.11-.9.79-.27.96,3.99,1.12,7.98,2.24,11.97,3.35l.13-.98c-4.84-.44-9.46-2.11-14.27-2.76-.62-.08-.9.77-.27.96,4.83,1.48,9.74,2.65,14.72,3.49l.13-.98c-4.64-.18-9.1-1.87-13.77-1.64-.55.03-.69.82-.13.98,4.19,1.2,8.37,2.39,12.56,3.59l.13-.98c-4.91-.61-9.82-1.21-14.73-1.82v1c3.3.19,6.58.61,9.85,1.06,1.56.21,3.12.43,4.68.64s3.13.46,4.59,1.08l.25-.93c-1.46-.18-2.87-.67-4.12-1.43-.26-.16-.59-.32-.79-.56-.47-.56.18-.31.48-.15.68.36,1.36.72,2.03,1.08.57.3,1.07-.56.5-.86s-1.15-.61-1.73-.92c-.43-.23-.9-.58-1.4-.6-.88-.03-1.27.97-.93,1.68.43.91,1.72,1.46,2.57,1.84,1.08.48,2.21.77,3.38.91.48.06.7-.74.25-.93-1.44-.62-2.95-.92-4.49-1.14-1.67-.24-3.35-.46-5.02-.69-3.36-.46-6.72-.9-10.11-1.09-.66-.04-.62.92,0,1,4.91.61,9.82,1.21,14.73,1.82.57.07.66-.83.13-.98-4.19-1.2-8.37-2.39-12.56-3.59l-.13.98c4.66-.22,9.13,1.46,13.77,1.64.55.02.7-.89.13-.98-4.98-.85-9.9-2.01-14.72-3.49l-.27.96c4.9.66,9.6,2.34,14.54,2.8.57.05.66-.83.13-.98-3.99-1.12-7.98-2.24-11.97-3.35l-.27.96c5.26.9,10.52,1.79,15.77,2.69.63.11.89-.76.27-.96-2.71-.88-5.42-1.76-8.13-2.63l-.27.96c2.27.38,4.53.75,6.8,1.13.44.07.91-.48.49-.84-1.27-1.09-2.18-2.47-3.07-3.87-.29-.46-1.1-.18-.91.39.62,1.9,1.04,3.86,1.22,5.85h1c-.37-2.82-.66-5.66-.87-8.5-.05-.66-.92-.63-1,0-.67,4.99-2.12,9.87-4.28,14.42l.91.39c.59-2.04,1.18-4.09,1.77-6.13.55-1.91.92-4.08,2-5.77l-.91-.39c-.79,4.67-2.38,9.16-4.71,13.29l.91.39c.81-2.84,1.63-5.68,2.44-8.52.4-1.38.79-2.76,1.19-4.14s.77-2.8,1.47-4.08l-.91-.39c-1.06,4.41-2.49,8.72-3.93,13.02l.96.27c.74-4.65,1.48-9.29,2.22-13.94.1-.62-.84-.9-.96-.27-1.08,5.76-2.51,11.44-3.94,17.12l.96.27c.56-3.06,1.3-6.07,2.24-9.04.46-1.46.97-2.91,1.53-4.34s1.05-2.95,2.03-4.12l-.84-.49c-1.29,5.48-3.42,10.72-6.33,15.54l.91.39c.87-5.27,2.17-10.46,3.89-15.51l-.98-.13c-.37,5.02-1.54,9.95-3.43,14.61l.98.13c.8-7.05,3.33-13.78,6.71-19.98l-.91-.39c-1.13,5.42-2.26,10.84-3.12,16.31-.1.63.85.9.96.27.87-4.93,1.51-9.89,1.93-14.88.05-.64-.95-.64-1,0h0Z"/>
  <path class="cls-1" d="M86.97,64.69c-6.28-.45-12.59-.19-18.82.77l.27.96c2.6-1.03,5.27-1.8,8.09-1.83s5.61.37,8.41-.11c.42-.07.49-.73.12-.91-5.83-2.94-12.54-3.83-18.93-2.51-.57.12-.41.97.13.98,4.03.12,8.05.54,12.02,1.25l.13-.98c-2.9-.04-5.79-.07-8.69-.11s-5.72.08-8.52-.44v.96c5.28-.73,10.7-.54,15.87-1.99.63-.18.36-1.06-.27-.96-4.48.72-9,1.18-13.53,1.37-.65.03-.63.94,0,1,3.82.38,7.66.66,11.49.86.65.03.63-.94,0-1-3.22-.32-6.45-.65-9.63-1.3l-.13.98c2.21-.14,4.42-.28,6.63-.42.53-.03,1.06-.07,1.6-.1.41-.02.94-.11,1.31.12.42.27.53.99.63,1.43.12.55.18,1.1.21,1.66.03.65.94.63,1,0,.37-3.85-1.42-7.41-1.81-11.18l-.98.13c1.39,3.8,2.33,7.74,2.79,11.76.07.62,1.02.66,1,0-.15-4.13,1.17-8.16.86-12.3-.04-.47-.68-.72-.93-.25-.74,1.35-1.36,2.75-1.85,4.21-.18.53.68.91.91.39.7-1.58,1.25-3.22,1.63-4.91.11-.5-.46-.82-.84-.49-1.28,1.12-2.55,2.24-3.83,3.36-.48.43.22,1.13.71.71,1.28-1.12,2.55-2.24,3.83-3.36l-.84-.49c-.36,1.6-.86,3.17-1.53,4.67l.91.39c.46-1.38,1.05-2.7,1.75-3.97l-.93-.25c.32,4.13-1,8.17-.86,12.3h1c-.46-4.11-1.4-8.14-2.82-12.02-.18-.49-1.04-.47-.98.13.39,3.76,2.18,7.35,1.81,11.18h1c-.04-1.07-.16-2.36-.71-3.31s-1.58-.96-2.55-.9c-2.7.17-5.4.34-8.1.51-.53.03-.72.86-.13.98,3.26.67,6.58,1,9.89,1.33v-1c-3.84-.2-7.67-.49-11.49-.86v1c4.62-.19,9.23-.67,13.79-1.4l-.27-.96c-5.17,1.45-10.59,1.26-15.87,1.99-.49.07-.47.88,0,.96,2.81.51,5.69.43,8.54.47s5.96.07,8.93.11c.55,0,.7-.88.13-.98-4.06-.73-8.16-1.16-12.29-1.28l.13.98c6.12-1.26,12.58-.41,18.16,2.41l.12-.91c-2.85.49-5.74-.02-8.61.08s-5.35.86-7.88,1.86c-.6.24-.37,1.06.27.96,6.13-.94,12.36-1.18,18.55-.74.64.05.64-.95,0-1h0Z"/>
  <path class="cls-1" d="M75.64,40.79c-4.27,6.49-8.27,13.15-11.98,19.98-.31.57.56,1.07.86.5,3.71-6.83,7.7-13.49,11.98-19.98.36-.54-.51-1.04-.86-.5h0Z"/>
  <path class="cls-1" d="M75.21,42.68c-2.69,5.61-5.98,10.92-9.82,15.81-.39.5.31,1.21.71.71,3.89-4.97,7.24-10.33,9.98-16.02.28-.58-.58-1.09-.86-.5h0Z"/>
  <path class="cls-1" d="M73.55,47.39c-1.72,3.54-3.67,6.96-5.83,10.24-.36.54.51,1.04.86.5,2.17-3.28,4.11-6.71,5.83-10.24.28-.58-.58-1.08-.86-.5h0Z"/>
  <path class="cls-1" d="M72.38,50.63c-1.14,2.85-2.28,5.71-3.42,8.56-.24.6.73.86.96.27,1.14-2.85,2.28-5.71,3.42-8.56.24-.6-.73-.86-.96-.27h0Z"/>
  <path class="cls-1" d="M74.31,42.07c-1.06,1.65-3.41,1.26-5.06,1.11-1.87-.17-3.86-.22-5.66-.78-1.71-.53-3.3-1.57-4.82-2.49s-2.89-1.92-4.04-3.24l-.71.71c3.58,3.88,2.94,9.82,5.59,14.22.74,1.22,1.71,2.3,2.77,3.24s2.2,1.79,3.53,2.29,2.68.48,3.86-.24,2.12-1.79,2.89-2.88c.89-1.27,1.5-2.74,1.66-4.28.2-1.87-.26-3.74-.72-5.54-.05-.2-.27-.38-.48-.37-2.45.12-4.9-.22-7.35-.18s-4.65.55-6.9,1.21-4.46,1.41-6.75,1.87-4.86.73-7.31.86c-2.73.14-5.37,0-8.06-.5-.63-.11-.88.76-.27.96,4.14,1.4,8.27,2.8,12.38,4.29,2.03.73,4.06,1.49,6.08,2.27s4.05,1.67,6.11,2.43c.54.2.86-.63.39-.91-5.95-3.6-12.59-5.91-19.48-6.82v1c8.21.61,15.72,4.48,23.82,5.68.63.09.9-.87.27-.96-8.19-1.21-15.78-5.1-24.09-5.71-.65-.05-.62.92,0,1,6.71.88,13.19,3.18,18.98,6.68l.39-.91c-2.06-.75-4.07-1.63-6.11-2.43s-4.04-1.54-6.08-2.27c-4.11-1.48-8.24-2.89-12.38-4.29l-.27.96c2.34.42,4.64.65,7.02.58s4.77-.27,7.12-.64,4.73-1.04,7.06-1.75,4.51-1.38,6.86-1.56c2.86-.22,5.71.27,8.57.13l-.48-.37c.38,1.53.78,3.09.72,4.69-.05,1.35-.49,2.64-1.18,3.79s-1.63,2.25-2.73,2.99c-1.23.83-2.65.61-3.91-.04-2.29-1.18-4.35-3.28-5.5-5.57-1.06-2.12-1.5-4.49-2.08-6.77-.63-2.48-1.46-4.95-3.23-6.86-.44-.48-1.13.23-.71.71,1.27,1.46,2.86,2.57,4.51,3.56s3.48,2.15,5.44,2.61,4.17.56,6.23.72c1.84.15,3.88.02,4.98-1.69.35-.54-.52-1.04-.86-.5h0Z"/>
  <path class="cls-1" d="M54.06,38.26c5.11,3.41,10.42,6.53,15.89,9.33l.5-.86c-2.32-1.15-4.78-1.99-7.32-2.5l-.13.98c2.88.29,5.76.57,8.64.86.89.09,2.31.51,3.09-.12.74-.59.37-1.53-.36-1.91-.97-.51-2.37-.37-3.42-.27-1.25.11-2.48.38-3.68.75-2.52.78-4.86,1.98-7.22,3.14-2.63,1.29-5.32,2.52-8.24,2.99l.39.91c5.62-2.74,11.68-4.52,17.89-5.24l-.13-.98c-4.91,1.65-9.82,3.31-14.73,4.96l.27.96c5.98-2.07,11.95-4.14,17.93-6.21l-.56-.73c-2.86,4.5-5.64,9.05-8.35,13.64-.34.57.49,1.01.86.5,3.23-4.32,6.31-8.76,9.22-13.31.25-.4-.28-1-.68-.68-4.71,3.63-8.79,7.97-12.12,12.9-.33.49.38.97.79.61,4.09-3.69,8.19-7.42,11.32-11.98.33-.48-.39-1-.79-.61-3.62,3.56-6.78,7.55-9.92,11.53l.79.61c1.29-1.8,2.59-3.6,3.88-5.39l1.87-2.6c.55-.77,1.37-1.57,1.46-2.54.04-.4-.45-.6-.75-.43-2.78,1.51-5.47,3.15-8.09,4.92l.61.79c2.67-2.31,6.38-3.2,8.62-6.04.29-.37.04-.98-.49-.84-6.57,1.86-13.01,4.19-19.26,6.95l.61.79c1.04-.97,2.4-1.38,3.81-1.19l-.25-.93c-.27.13-.54.23-.82.32-.34.11-.52.57-.22.84,3.07,2.75,6.7,4.8,10.64,5.99.56.17.85-.61.39-.91-3.34-2.19-6.81-4.17-10.39-5.94l-.25.93c4.09.21,8.03,1.4,11.92,2.59l.27-.96c-3.6-.86-7.19-1.72-10.79-2.58-.64-.15-.85.73-.27.96,3.62,1.45,7.2,3,10.74,4.63l.39-.91c-4.17-1.73-8.34-3.43-12.53-5.12l-.13.98c4.11.45,8.2,1.02,12.27,1.71.62.11.9-.8.27-.96-3.14-.84-6.28-1.67-9.43-2.51l-.27.96c4.64.68,9.25,1.56,13.81,2.65.62.15.89-.79.27-.96-3.87-1.06-7.77-2.01-11.69-2.86v.96c2.8-.63,5.68-.34,8.5-.05.65.07.62-.92,0-1l-9.25-1.2v1c3.18,0,6.32.5,9.35,1.48l.13-.98c-2.17.21-4.35.28-6.53.21v1c1.05-.11,2.1-.15,3.15-.11.49.02.97.05,1.45.1s.99.19,1.48.18c.83-.02,1.16-.97,1.51-1.6.48-.87.93-1.76,1.35-2.67.25-.53-.34-.96-.79-.61-1.95,1.52-3.85,3.08-5.71,4.7-.42.37.14,1.12.61.79,1.53-1.12,3.06-2.24,4.59-3.36.42-.31.19-1.12-.39-.91-3.46,1.25-6.93,2.43-10.43,3.56l.39.91c2.96-1.64,5.99-3.14,9.1-4.48.52-.22.15-1.08-.39-.91l-1.24.39c-.61.19-.35,1.16.27.96l1.24-.39-.39-.91c-3.11,1.34-6.15,2.83-9.1,4.48-.49.27-.16,1.09.39.91,3.5-1.12,6.98-2.31,10.43-3.56l-.39-.91c-1.53,1.12-3.06,2.24-4.59,3.36l.61.79c1.86-1.62,3.76-3.19,5.71-4.7l-.79-.61c-.36.76-.73,1.52-1.13,2.26-.2.37-.41.74-.62,1.11-.28.49-.49.37-1,.31-1.77-.24-3.55-.26-5.33-.07-.63.07-.66.98,0,1,2.18.06,4.36,0,6.53-.21.55-.05.69-.8.13-.98-3.11-1.01-6.35-1.52-9.61-1.52-.66,0-.62.92,0,1l9.25,1.2v-1c-2.92-.31-5.87-.57-8.77.08-.47.11-.48.86,0,.96,3.92.85,7.82,1.8,11.69,2.86l.27-.96c-4.56-1.09-9.17-1.98-13.81-2.65-.62-.09-.91.79-.27.96,3.14.84,6.28,1.67,9.43,2.51l.27-.96c-4.16-.71-8.34-1.29-12.53-1.74-.61-.07-.61.79-.13.98,4.18,1.68,8.36,3.39,12.53,5.12.52.22.9-.68.39-.91-3.62-1.67-7.28-3.25-10.98-4.73l-.27.96c3.6.86,7.19,1.72,10.79,2.58.63.15.88-.78.27-.96-3.98-1.21-8.01-2.41-12.19-2.62-.48-.03-.7.71-.25.93,3.58,1.76,7.05,3.74,10.39,5.94l.39-.91c-3.78-1.14-7.27-3.09-10.2-5.73l-.22.84c.36-.12.71-.26,1.06-.43.51-.24.18-.88-.25-.93-1.66-.22-3.3.35-4.52,1.49-.45.42.12,1,.61.79,6.17-2.73,12.53-5.01,19.02-6.85l-.49-.84c-2.23,2.82-5.96,3.73-8.62,6.04-.43.37.14,1.1.61.79,2.61-1.77,5.31-3.41,8.09-4.92l-.75-.43c-.04.47-.56.98-.82,1.34l-.86,1.2-1.8,2.5c-1.2,1.66-2.4,3.33-3.59,4.99-.33.46.43,1.05.79.61,3.14-3.98,6.3-7.97,9.92-11.53l-.79-.61c-3.08,4.49-7.14,8.16-11.16,11.78l.79.61c3.22-4.77,7.2-9.02,11.76-12.54l-.68-.68c-2.91,4.55-5.98,8.99-9.22,13.31l.86.5c2.71-4.59,5.49-9.14,8.35-13.64.23-.36-.15-.88-.56-.73-5.98,2.07-11.95,4.14-17.93,6.21-.6.21-.35,1.17.27.96,4.91-1.65,9.82-3.31,14.73-4.96.5-.17.46-1.05-.13-.98-6.39.74-12.61,2.55-18.4,5.37-.55.27-.13,1,.39.91,4.37-.7,8.17-3.08,12.15-4.86,2.13-.95,4.39-1.77,6.73-1.98.52-.05,1.05-.07,1.58-.05.4.01,1.17-.05,1.48.27.34.35-.54.26-.76.24-.66-.06-1.32-.13-1.97-.2-2.76-.27-5.51-.55-8.27-.82-.56-.06-.68.87-.13.98,2.46.49,4.83,1.29,7.08,2.4.57.28,1.08-.57.5-.86-5.47-2.8-10.78-5.92-15.89-9.33-.54-.36-1.04.51-.5.86h0Z"/>
  <path class="cls-1" d="M54.3,38.32c-.55,2.57-2.65,4.35-4.62,5.92-1.07.85-2.17,1.66-3.36,2.32-.6.33-1.22.63-1.86.86-.22.08-1.73.65-1.87.38l-.18.68c2.58-1.11,5.34-1.74,8.14-1.89l-.48-.63c-.2.49-1.17.76-1.61.94-.53.22-1.06.41-1.61.58-1.12.36-2.27.62-3.44.79-.48.07-.48.89,0,.96,3.8.6,7.07,2.81,10.79,3.68.54.13.89-.62.39-.91-2.82-1.65-5.85-2.93-9.01-3.8l-.27.96c3.67.69,7.19,1.97,10.68,3.27.46.17.87-.53.49-.84-1.32-1.06-2.89-1.62-4.49-2.12-.85-.27-1.71-.52-2.52-.88-.6-.26-.26-.52.08-.91.27-.31.55-.61.83-.91,2.2-2.33,4.71-4.53,5.69-7.69.14-.45-.52-.88-.84-.49-2.63,3.24-4.46,7.3-7.97,9.73-.52.36-.03,1.23.5.86,1.98-1.34,3.99-2.76,5.2-4.88.25-.43-.25-.94-.68-.68-1.21.71-2.43,1.42-3.64,2.13-.35.2-.29.65,0,.86l6.7,4.9.39-.91c-1.42-.53-2.78-1.18-4.08-1.96-.45-.27-2.42-1.81-2.47-.33-.02.55.66.61.93.25,2.1-2.76,6.13-4.28,6.35-8.21.03-.54-.66-.62-.93-.25-1.8,2.45-3.46,5.01-4.96,7.66-.32.56.55,1.07.86.5,1.5-2.65,3.15-5.21,4.96-7.66l-.93-.25c-.1,1.76-1.32,3.15-2.58,4.26s-2.6,2.1-3.63,3.44l.93.25v-.09c-.08.14-.16.29-.24.43-.17,0-.14.04.09.13.12.08.25.16.37.24.25.16.5.32.75.47.44.27.9.52,1.36.76.96.5,1.95.92,2.96,1.3.57.21.81-.61.39-.91l-6.7-4.9v.86c1.21-.71,2.43-1.42,3.64-2.13l-.68-.68c-1.12,1.97-3,3.27-4.84,4.52l.5.86c3.61-2.5,5.47-6.56,8.17-9.88l-.84-.49c-1.08,3.47-4.18,5.71-6.45,8.37-.45.53-.97,1.23-.36,1.86.53.55,1.58.79,2.28,1.02,1.78.6,3.69,1.03,5.19,2.24l.49-.84c-3.5-1.29-7.01-2.58-10.68-3.27-.62-.12-.9.79-.27.96,3.08.85,6.02,2.09,8.77,3.7l.39-.91c-3.72-.88-6.99-3.09-10.79-3.68v.96c1.47-.22,2.91-.57,4.3-1.08,1.07-.39,2.58-.79,3.05-1.93.12-.3-.19-.65-.48-.63-2.99.16-5.89.84-8.64,2.03-.25.11-.29.47-.18.68.64,1.19,2.83.17,3.7-.19,1.52-.64,2.89-1.56,4.2-2.56,2.36-1.81,4.99-3.89,5.64-6.95.13-.63-.83-.9-.96-.27h0Z"/>
  <path class="cls-1" d="M56.7,40.76c2.44,1.9,4.94,3.74,7.49,5.49l.5-.86c-2.59-1.66-5.21-3.31-8.15-4.29-.55-.18-.85.62-.39.91,2.72,1.71,5.43,3.42,8.15,5.13l.5-.86c-3.21-1.49-6.37-3.1-9.46-4.83-.57-.32-1.04.51-.5.86,2.88,1.93,5.62,4.04,8.36,6.16.45.35,1.03-.41.61-.79-2.63-2.34-5.81-3.84-8.99-5.29-.47-.21-1.09.41-.61.79,2.39,1.88,4.8,3.76,7.45,5.27.5.29.98-.37.61-.79-.65-.72-1.34-1.45-2.12-2.04-.63-.49-1.31-.48-1.91.06-.71.65-1.31,1.42-2,2.09s-1.46,1.33-2.24,1.94c-.38.3.03,1.02.49.84,2.17-.87,4.23-1.95,6.17-3.27.45-.3.18-1.09-.39-.91-2.58.81-5.15,1.63-7.73,2.44l.39.91c1.86-1.2,3.73-2.39,5.59-3.59.55-.35.07-1.13-.5-.86-1.88.85-3.72,1.79-5.51,2.82l.61.79c1.21-1.35,2.42-2.7,3.63-4.05.37-.41-.1-1.09-.61-.79-1.88,1.13-3.64,2.43-5.27,3.89l.71.71c1.47-1.65,3.05-3.18,4.73-4.61l-.79-.1c.22.33.45.65.67.98.16.24.41.83.72.79l.39.05-.11-.06c-.55-.33-1.06.53-.5.86s1.24-.12,1.15-.77c-.05-.37-.3-.67-.51-.98-.31-.46-.63-.91-.94-1.37-.19-.28-.53-.32-.79-.1-1.68,1.43-3.26,2.96-4.73,4.61-.43.48.23,1.14.71.71,1.57-1.4,3.27-2.64,5.07-3.73l-.61-.79c-1.21,1.35-2.42,2.7-3.63,4.05-.37.41.1,1.08.61.79,1.79-1.03,3.63-1.97,5.51-2.82l-.5-.86c-1.86,1.2-3.73,2.39-5.59,3.59-.46.3-.18,1.09.39.91,2.58-.81,5.15-1.63,7.73-2.44l-.39-.91c-1.86,1.26-3.84,2.33-5.93,3.16l.49.84c1.19-.95,2.32-1.97,3.37-3.08.25-.26.47-.58.74-.82.13-.11.37-.29.56-.24.15.04.36.28.49.39.6.53,1.16,1.09,1.7,1.69l.61-.79c-2.58-1.47-4.92-3.28-7.25-5.11l-.61.79c3.09,1.41,6.23,2.85,8.78,5.13l.61-.79c-2.74-2.12-5.48-4.23-8.36-6.16l-.5.86c3.09,1.73,6.24,3.35,9.46,4.83.58.27,1.06-.51.5-.86-2.72-1.71-5.43-3.42-8.15-5.13l-.39.91c2.86.95,5.4,2.57,7.91,4.19.55.35,1.03-.5.5-.86-2.48-1.71-4.91-3.49-7.29-5.34-.5-.39-1.21.31-.71.71h0Z"/>
  <path class="cls-1" d="M37.71,49.4c3.68,2.88,7.81,5.05,11.99,7.09,4.39,2.15,8.76,4.32,13.01,6.74,2.48,1.41,4.91,2.88,7.32,4.42.54.35,1.05-.52.5-.86-4.17-2.66-8.45-5.14-12.84-7.43-4.16-2.17-8.45-4.07-12.57-6.32-2.34-1.28-4.62-2.69-6.72-4.34-.5-.39-1.21.31-.71.71h0Z"/>
  <path class="cls-1" d="M38.91,49.55c6.87,4.57,13.66,9.26,20.37,14.06.52.38,1.02-.49.5-.86-6.71-4.8-13.5-9.49-20.37-14.06-.54-.36-1.04.51-.5.86h0Z"/>
  <path class="cls-1" d="M41.54,50.57c5.92,4.49,12.23,8.4,18.54,12.3.55.34,1.05-.53.5-.86-6.31-3.9-12.62-7.81-18.54-12.3-.51-.39-1.01.48-.5.86h0Z"/>
  <path class="cls-1" d="M43.04,50.62c5.5,4.17,11.34,7.86,17.46,11.04.57.3,1.08-.57.5-.86-6.12-3.18-11.96-6.87-17.46-11.04-.51-.39-1.01.48-.5.86h0Z"/>
  <path class="cls-1" d="M41.91,48.83c5.19,4.47,10.71,8.55,16.52,12.18.55.34,1.05-.52.5-.86-5.74-3.59-11.19-7.6-16.32-12.02-.49-.42-1.2.29-.71.71h0Z"/>
  <path class="cls-1" d="M46.89,51.32c5.09,3.65,10.38,7,15.86,10.03.56.31,1.07-.55.5-.86-5.48-3.03-10.78-6.38-15.86-10.03-.52-.38-1.02.49-.5.86h0Z"/>
  <path class="cls-1" d="M66.08,57.04c-3.76,2.49-7.21,5.4-10.29,8.69-.44.47.25,1.16.71.71,3.93-3.89,7.87-7.79,11.44-12.02.41-.49-.24-1.17-.71-.71-3.83,3.79-7.67,7.57-11.5,11.36-.46.45.25,1.16.71.71,3.25-3.17,6.51-6.36,9.34-9.93.32-.4-.11-1.16-.61-.79-4.22,3.26-8.29,6.71-12.2,10.35l.71.71c3.01-3.07,6.01-6.14,9.02-9.2.45-.46-.23-1.14-.71-.71-3.27,2.98-6.55,5.96-9.82,8.94-.48.44.23,1.13.71.71,1.84-1.61,3.55-3.35,5.1-5.24,1.43-1.72,2.98-3.6,3.35-5.87.07-.44-.47-.9-.84-.49-2.81,3.21-5.41,6.59-7.81,10.11-.32.47.4,1.01.79.61,2.96-3.07,5.93-6.22,7.61-10.21.21-.5-.5-.78-.84-.49-3.16,2.84-5.95,6.04-8.34,9.55l.86.5c2.08-3.48,4.13-6.97,5.68-10.73.23-.57-.61-.8-.91-.39-2.46,3.29-4.6,6.8-6.39,10.5-.23.48.39,1.07.79.61,2.27-2.65,4.31-5.49,6.09-8.5.28-.48-.41-1.05-.79-.61-1.76,2.05-3.28,4.29-4.52,6.69-.25.48.4,1.06.79.61,1.27-1.48,2.45-3.05,3.52-4.68,1-1.54,2.07-3.16,2.23-5.04.04-.48-.55-.59-.85-.35-2.79,2.23-4.99,5.13-6.38,8.41-.24.57.53,1.08.86.5,1.81-3.08,3.29-6.34,4.41-9.74.18-.54-.65-.88-.91-.39-1.78,3.33-3.38,6.76-4.81,10.26l.96.27c.76-2.47,1.37-4.98,1.83-7.52.09-.52-.64-.93-.91-.39-1.52,3.01-2.82,6.12-3.9,9.31-.21.63.72.84.96.27,1.35-3.22,2.33-6.59,2.91-10.03.11-.64-.72-.86-.96-.27-1.08,2.59-1.85,5.29-2.31,8.06l.96.27c.5-3.03.3-6.11-.62-9.05l-.96.27c.52,1.48,1.04,2.96,1.56,4.44l.96-.27c-.95-2.3-2.11-4.78-4.6-5.71-.58-.22-.8.6-.39.91,2.67,2.01,5.34,4.03,8.01,6.04.45.34,1.04-.42.61-.79-2.8-2.31-6.14-3.87-9.72-4.5-.24-.04-.57.06-.62.35-.22,1.53.45,2.85,1.09,4.19.7,1.46,1.41,2.92,2.19,4.34.22.41.99.25.93-.25-.34-2.85-1.36-5.55-3.03-7.89-.37-.51-1.19-.06-.86.5,1.58,2.72,2.99,5.53,4.22,8.42.23.54,1.04.14.91-.39-.61-2.54-1.34-5.04-2.21-7.5l-.96.27c.96,2.35,1.77,4.76,2.41,7.22.14.53,1.05.44.98-.13-.22-1.79-.43-3.57-.65-5.36l-.98.13c.19,1.3.38,2.6.58,3.9.07.48.69.42.91.12,1.88-2.51,3.76-5.03,5.64-7.54.34-.46-.41-1.02-.79-.61-3.29,3.61-5.51,8.11-6.33,12.93l.98.13c.2-1.62.28-3.24.22-4.87-.02-.66-.93-.63-1,0-.23,2.03-.46,4.06-.7,6.09h1c-.21-2.15-.18-4.32.12-6.46l-.98-.13c.36,3.11.71,6.3-.08,9.38l.98.13c-.03-.91-.06-1.83-.09-2.74-.02-.49-.68-.69-.93-.25-.86,1.47-1.7,2.96-2.5,4.46-.3.57.55,1.07.86.5.85-1.51,1.78-2.99,2.77-4.41l-.86-.5c-1.1,2.08-2.21,4.17-3.31,6.25-.22.41.25.99.68.68,3.09-2.17,6.37-4.04,9.81-5.6l-.5-.86c-1.27.71-2.54,1.42-3.81,2.13-.6.33-1.2.67-1.8,1-.63.35-1.31.85-2.05.88l.35.85c2.58-3.04,5.44-5.83,8.56-8.32.47-.37-.13-1.02-.61-.79-3.4,1.69-6.5,3.95-9.16,6.67-.38.39.13,1.13.61.79,3.6-2.6,7.08-5.38,10.42-8.31.42-.37-.13-1.1-.61-.79-2.51,1.67-4.98,3.41-7.39,5.23l.68.68c.88-1.79,1.6-3.65,2.14-5.57.18-.63-.73-.85-.96-.27-.71,1.78-1.32,3.59-1.82,5.43l.98.13c.1-1.69.32-3.37.66-5.03h-.96c.23.98.14,1.94-.23,2.87-.12.31.19.63.48.63,2.48.01,4.9-.51,7.17-1.53.55-.25.13-1.01-.39-.91-2.7.48-5.92,1.22-7.21,3.97-.51,1.1-.41,2.32.96,2.58,1.69.32,3.46.38,5.17.4l-.25-.93c-2.16,1.1-4.63,1.51-7.03,1.13v.96c5.4-1.56,11.02-1.99,16.61-2.39v-1c-4.58.42-9.16.85-13.74,1.27l.25.93c1.03-.64,2.21-.91,3.38-1.17s2.37-.49,3.55-.71c2.46-.45,4.93-.83,7.4-1.2l-.27-.96c-4.93,1.05-9.91,1.8-14.92,2.25l.35.85c1.41-1.79,2.95-3.45,4.63-4.98.48-.44-.23-1.13-.71-.71-1.49,1.31-2.99,2.62-4.48,3.93-.46.4.13,1,.61.79,5.62-2.52,11.26-5.06,16.46-8.38.54-.35.05-1.19-.5-.86-4.74,2.8-9.48,5.6-14.23,8.41l.5.86c4.15-3.09,8.43-6,12.83-8.73.55-.34.06-1.17-.5-.86-3.85,2.06-7.62,4.27-11.3,6.63l.5.86c3.97-2.84,8.01-5.56,12.13-8.18l-.5-.86c-4.98,3.46-9.88,7.02-14.71,10.68-.26.2-.38.69,0,.86,3.46,1.54,7.02,2.86,10.66,3.92l.27-.96c-3.43-.92-6.91-1.83-10.48-1.7-.65.02-.63.94,0,1,3.03.28,5.99.95,8.85,2l.27-.96c-1.36-.36-2.71-.72-4.07-1.09-.64-.17-.85.73-.27.96,2.88,1.15,5.23,3.55,6.38,6.42,1.44,3.57.6,7.23-.35,10.81-.17.63.75.87.96.27,1.88-5.33,6.06-9.41,8.31-14.56.25-.58-.61-1.09-.86-.5-2.28,5.23-6.49,9.38-8.41,14.8l.96.27c1.03-3.86,1.86-7.8.23-11.63-1.32-3.1-3.83-5.59-6.96-6.83l-.27.96c1.36.36,2.71.72,4.07,1.09.63.17.86-.75.27-.96-2.94-1.07-6-1.75-9.11-2.03v1c3.49-.12,6.87.77,10.22,1.66.62.17.88-.78.27-.96-3.55-1.04-7.04-2.32-10.42-3.82v.86c4.83-3.66,9.73-7.23,14.71-10.68.52-.36.04-1.21-.5-.86-4.11,2.62-8.16,5.35-12.13,8.18-.51.37-.05,1.22.5.86,3.68-2.36,7.45-4.57,11.3-6.63l-.5-.86c-4.4,2.73-8.68,5.64-12.83,8.73-.5.37-.06,1.2.5.86,4.74-2.8,9.48-5.6,14.23-8.41l-.5-.86c-5.2,3.32-10.84,5.86-16.46,8.38l.61.79c1.49-1.31,2.99-2.62,4.48-3.93l-.71-.71c-1.68,1.53-3.23,3.19-4.63,4.98-.24.3-.13.9.35.85,5.1-.46,10.18-1.22,15.19-2.29.64-.14.35-1.06-.27-.96-2.55.38-5.1.77-7.63,1.24-1.26.23-2.52.49-3.77.77-1.11.25-2.2.57-3.17,1.17-.39.24-.27.98.25.93,4.58-.42,9.16-.85,13.74-1.27.63-.06.65-1.05,0-1-5.67.41-11.39.84-16.88,2.43-.44.13-.51.88,0,.96,2.68.42,5.38,0,7.8-1.23.46-.23.22-.93-.25-.93-1.3-.01-2.6-.09-3.9-.23-.49-.05-1.52.02-1.56-.64-.02-.46.39-1.05.66-1.4,1.43-1.89,3.95-2.33,6.14-2.72l-.39-.91c-2.1.94-4.36,1.41-6.66,1.39l.48.63c.44-1.09.51-2.26.23-3.4-.11-.47-.87-.49-.96,0-.36,1.75-.59,3.52-.69,5.3-.03.57.83.67.98.13.51-1.84,1.12-3.66,1.82-5.43l-.96-.27c-.52,1.84-1.2,3.62-2.04,5.33-.2.4.25,1.01.68.68,2.41-1.81,4.87-3.56,7.39-5.23l-.61-.79c-3.27,2.88-6.68,5.6-10.21,8.16l.61.79c2.6-2.66,5.62-4.85,8.95-6.51l-.61-.79c-3.12,2.49-5.98,5.27-8.56,8.32-.26.31-.11.87.35.85.67-.03,1.23-.29,1.81-.61.71-.39,1.41-.79,2.12-1.18,1.41-.79,2.83-1.57,4.24-2.36.57-.32.07-1.12-.5-.86-3.44,1.56-6.72,3.43-9.81,5.6l.68.68c1.1-2.08,2.21-4.17,3.31-6.25.3-.58-.5-1.03-.86-.5-.99,1.43-1.92,2.9-2.77,4.41l.86.5c.8-1.5,1.64-2.99,2.5-4.46l-.93-.25c.03.91.06,1.83.09,2.74.02.55.84.69.98.13.81-3.17.48-6.44.11-9.65-.06-.5-.9-.74-.98-.13-.31,2.23-.38,4.48-.15,6.72.06.65.93.64,1,0,.23-2.03.46-4.06.7-6.09h-1c.06,1.63-.01,3.25-.22,4.87-.07.55.89.69.98.13.79-4.65,2.89-9,6.07-12.49l-.79-.61c-1.88,2.51-3.76,5.03-5.64,7.54l.91.12c-.19-1.3-.38-2.6-.58-3.9-.08-.55-1.05-.43-.98.13.22,1.79.43,3.57.65,5.36l.98-.13c-.64-2.46-1.45-4.87-2.41-7.22-.24-.58-1.18-.35-.96.27.86,2.46,1.6,4.97,2.21,7.5l.91-.39c-1.23-2.89-2.64-5.7-4.22-8.42l-.86.5c1.56,2.19,2.57,4.72,2.89,7.39l.93-.25c-.66-1.22-1.28-2.45-1.88-3.7s-1.51-2.65-1.3-4.07l-.62.35c3.4.6,6.61,2.05,9.27,4.25l.61-.79c-2.67-2.01-5.34-4.03-8.01-6.04l-.39.91c2.1.79,3.1,3.09,3.9,5.01.24.58,1.18.35.96-.27-.52-1.48-1.04-2.96-1.56-4.44-.21-.6-1.16-.35-.96.27.86,2.76,1.08,5.66.62,8.51-.1.63.86.9.96.27.46-2.77,1.23-5.47,2.31-8.06l-.96-.27c-.58,3.45-1.55,6.81-2.91,10.03l.96.27c1.05-3.11,2.31-6.14,3.8-9.07l-.91-.39c-.46,2.54-1.07,5.05-1.83,7.52-.19.63.73.84.96.27,1.39-3.42,2.97-6.76,4.71-10.02l-.91-.39c-1.09,3.31-2.54,6.49-4.31,9.5l.86.5c1.36-3.22,3.49-6.03,6.22-8.21l-.85-.35c-.15,1.74-1.29,3.31-2.22,4.72-.99,1.5-2.07,2.93-3.24,4.29l.79.61c1.2-2.33,2.66-4.5,4.36-6.49l-.79-.61c-1.73,2.93-3.71,5.71-5.93,8.3l.79.61c1.8-3.69,3.93-7.21,6.39-10.5l-.91-.39c-1.51,3.67-3.55,7.09-5.57,10.49-.33.56.5,1.03.86.5,2.34-3.43,5.1-6.56,8.19-9.34l-.84-.49c-1.6,3.81-4.52,6.84-7.35,9.77l.79.61c2.35-3.46,4.9-6.76,7.65-9.91l-.84-.49c-.36,2.24-1.96,4.09-3.38,5.78s-3.09,3.38-4.81,4.89l.71.71c3.27-2.98,6.55-5.96,9.82-8.94l-.71-.71c-3.01,3.07-6.01,6.14-9.02,9.2-.45.46.24,1.15.71.71,3.84-3.58,7.84-6.99,11.99-10.2l-.61-.79c-2.83,3.57-6.08,6.75-9.34,9.93l.71.71c3.83-3.79,7.67-7.57,11.5-11.36l-.71-.71c-3.57,4.23-7.5,8.13-11.44,12.02l.71.71c3.02-3.23,6.4-6.09,10.09-8.53.53-.35.03-1.22-.5-.86h0Z"/>
  <path class="cls-1" d="M82.6,64.41c-3.73,2.16-7.69,4.6-9.19,8.89-.17.48.5.82.84.49,3.23-3.23,6.46-6.46,9.69-9.69.41-.41-.11-1.04-.61-.79-4.88,2.51-9.59,5.32-14.12,8.41-.53.36-.03,1.23.5.86,4.53-3.09,9.24-5.9,14.12-8.41l-.61-.79c-3.23,3.23-6.46,6.46-9.69,9.69l.84.49c1.4-4.01,5.25-6.28,8.73-8.3.56-.32.05-1.19-.5-.86h0Z"/>
  <path class="cls-1" d="M69.22,58.94c-1.24.12-2.41.43-3.56.93-.5.22-.18.89.25.93,1.96.19,3.93.18,5.9-.02l-.13-.98c-2.72.51-5.51,1.1-8.29,1.08-1.21,0-2.42-.33-2.9-1.56s.05-2.51.87-3.43l-.79-.61c-.72,1.55-1.64,3.01-2.77,4.3s-2.3,2.32-3.5,3.43-2.27,2.16-3.22,3.41c-1.05,1.37-1.78,2.96-2.95,4.24l.61-.08c-.19-.14.57-.36.63-.36.36-.03.73,0,1.09-.01.81-.01,1.63-.05,2.44-.1,1.59-.1,3.17-.27,4.75-.49,3.23-.44,6.44-1.07,9.64-1.7.55-.11.43-1.01-.13-.98-3.52.2-7.03.41-10.55.61l.25.93c4.14-1.8,8.48-3.1,12.8-4.4.62-.18.36-1.12-.27-.96-5.14,1.3-10.3,2.46-15.5,3.48l.27.96c2.82-.67,5.64-1.34,8.46-2,2.55-.6,5.33-.99,7.65-2.26.52-.29.15-1.02-.39-.91-2.64.51-5.26,1.07-7.88,1.67-1.2.28-2.41.54-3.6.87-1.02.28-1.99.68-2.78,1.4-.36.33.02,1.01.49.84,1.91-.7,3.8-1.46,5.65-2.3.94-.43,1.88-.87,2.8-1.34.68-.35,1.25-.72,1.35-1.53.04-.3-.35-.6-.63-.48-3.63,1.48-7.01,3.48-10.06,5.95-.39.32.03.98.49.84,5.57-1.75,11.14-3.5,16.72-5.25l-.39-.91c-3.53,2.69-7.78,4.32-12.22,4.61l.25.93c2.54-1.17,5.22-2,7.89-2.83l-.39-.91c-2.54,1.95-5.36,3.49-8.37,4.56-.35.13-.55.73-.12.91,3.46,1.46,6.93,2.89,10.42,4.28.6.24.86-.73.27-.96-3.41-1.36-6.8-2.75-10.18-4.18l-.12.91c3.1-1.1,6-2.66,8.61-4.66.41-.32.2-1.1-.39-.91-2.75.86-5.5,1.73-8.12,2.93-.45.21-.23.96.25.93,4.6-.3,9.05-1.94,12.72-4.74.41-.32.2-1.1-.39-.91-5.57,1.75-11.14,3.5-16.72,5.25l.49.84c2.91-2.35,6.16-4.27,9.62-5.69l-.63-.48c-.04.33-.6.53-.86.66-.39.2-.78.39-1.18.58-.75.36-1.51.71-2.28,1.05-1.56.69-3.15,1.32-4.76,1.91l.49.84c.81-.74,1.87-1.03,2.91-1.29,1.17-.29,2.34-.56,3.51-.83,2.46-.56,4.93-1.08,7.4-1.56l-.39-.91c-1.13.62-2.36.96-3.6,1.26-1.35.33-2.7.64-4.05.96-2.74.65-5.48,1.3-8.22,1.95-.63.15-.36,1.09.27.96,5.2-1.03,10.37-2.19,15.5-3.48l-.27-.96c-4.41,1.32-8.81,2.66-13.04,4.5-.46.2-.22.96.25.93,3.52-.2,7.03-.41,10.55-.61l-.13-.98c-3.91.77-7.84,1.55-11.81,1.96-1.92.2-3.83.23-5.75.3-.61.02-1.27.18-1.57.77-.28.54-.13,1.1.34,1.46.17.13.47.07.61-.08,1.16-1.27,1.91-2.82,2.92-4.19s2.2-2.48,3.41-3.6,2.42-2.2,3.48-3.45c1.12-1.32,2.06-2.78,2.79-4.35.22-.48-.38-1.06-.79-.61-.93,1.04-1.52,2.36-1.29,3.77s1.19,2.42,2.53,2.76c1.5.38,3.2.12,4.71-.07,1.79-.22,3.57-.55,5.34-.88.55-.1.43-1.04-.13-.98-1.96.2-3.93.21-5.9.02l.25.93c.97-.42,2-.69,3.05-.79.63-.06.64-1.06,0-1h0Z"/>
  <path class="cls-1" d="M82.1,78.41c-2.03-1.01-3.98-2.16-5.83-3.46-1.75-1.23-3.69-2.58-4.8-4.46-.33-.55-1.19-.05-.86.5,1.14,1.93,3.05,3.3,4.84,4.59,1.95,1.4,4.01,2.63,6.16,3.69.57.28,1.08-.58.5-.86h0Z"/>
  <path class="cls-1" d="M77.39,64.65c-2.86,2.99-5.19,6.45-6.86,10.24-.22.51.34,1,.79.61,1.91-1.68,3.7-3.49,5.36-5.41,1.46-1.69,2.94-3.54,3.29-5.82.06-.37-.34-.87-.73-.56-5.37,4.14-7.84,10.57-11.07,16.3-.27.48.4,1.04.79.61,1.72-1.93,3.25-4.03,4.55-6.26.28-.47-.42-1.06-.79-.61-2.04,2.51-3.73,5.27-5.01,8.24-.22.51.34,1,.79.61,1.98-1.74,3.63-3.78,5.23-5.86,1.76-2.29,3.51-4.59,5.27-6.88.34-.45-.42-1.04-.79-.61-1.19,1.44-.92,3.36-.43,5.03s1.31,3.37,2.87,4.33v-.86c-2.51,1.1-5.41.22-7.93,1.32-1.16.51-2.13,1.37-2.99,2.28-1.01,1.07-1.92,2.23-2.76,3.44-.37.53.5,1.03.86.5.94-1.33,1.92-2.71,3.25-3.68s2.98-1.38,4.46-2.1c.65-.32,1.38-.7,1.82-1.29s.43-1.29.27-1.97c-.39-1.7-1.4-3.19-1.45-4.98l-.93.25c.58,1.06,1.15,2.13,1.71,3.2.3.57.6,1.15.89,1.72.25.5.58,1.12-.13,1.36-.42.14-.89.11-1.32.12-.59.01-1.17.02-1.76.06-1.03.08-2.02.27-2.96.73l.5.86c.83-.48,1.66-.96,2.5-1.44.64-.37,1.28-.64,1.41-1.44.14-.85.18-1.67.44-2.5s.64-1.62,1.11-2.36l-.91-.39c-.41,1.27-.82,2.55-1.38,3.77-.38.82-1.11,2.58-2.27,2.35l.3.73c.65-.87,1.29-1.74,1.94-2.61.34-.46-.39-1-.79-.61l-1.44,1.44c-.28.28-.09.9.35.85.84-.09,1.76-.82,2.59-.53.43.15.83.4,1.27.55.48.16.98.24,1.48.29l-.13-.98c-1.5.59-3.06,1-4.66,1.2l.35.85c.8-.83,1.76-1.4,2.87-1.7.62-.17.36-1.13-.27-.96-1.27.35-2.4,1.01-3.31,1.96-.27.28-.1.91.35.85,1.69-.21,3.34-.61,4.93-1.23.53-.21.44-.93-.13-.98s-1.18-.21-1.73-.46c-.38-.18-.73-.38-1.15-.44-.9-.12-1.6.51-2.46.6l.35.85,1.44-1.44-.79-.61c-.65.87-1.29,1.74-1.94,2.61-.18.25,0,.68.3.73,1.41.27,2.38-.86,2.99-1.99.82-1.53,1.36-3.19,1.89-4.83.18-.56-.62-.85-.91-.39-.82,1.29-1.36,2.73-1.57,4.25-.04.29,0,.66-.09.94-.13.45-.77.66-1.14.87-.76.44-1.53.88-2.29,1.32-.56.32-.07,1.14.5.86,1.24-.61,2.64-.62,3.99-.65.9-.02,2.15.07,2.75-.77.71-1-.25-2.29-.71-3.19-.68-1.33-1.38-2.64-2.1-3.95-.24-.43-.94-.24-.93.25.04,1.62.75,3.04,1.27,4.55.13.37.28.77.28,1.17.01.56-.35.86-.79,1.15-.67.44-1.41.75-2.15,1.05-1.39.55-2.73,1.1-3.88,2.09s-2.07,2.27-2.96,3.52l.86.5c.81-1.17,1.69-2.28,2.67-3.31.9-.94,1.91-1.82,3.18-2.21,2.44-.76,5.07-.11,7.46-1.16.36-.16.29-.68,0-.86-1.27-.79-1.93-2.17-2.36-3.56-.4-1.31-.85-3.07.12-4.24l-.79-.61c-1.71,2.23-3.41,4.47-5.13,6.7-1.59,2.07-3.24,4.11-5.21,5.84l.79.61c1.25-2.89,2.87-5.6,4.85-8.04l-.79-.61c-1.26,2.16-2.73,4.19-4.4,6.06l.79.61c3.12-5.55,5.51-11.93,10.71-15.94l-.73-.56c-.34,2.27-1.86,4.06-3.33,5.72-1.58,1.8-3.27,3.49-5.06,5.07l.79.61c1.63-3.71,3.89-7.1,6.7-10.03.45-.46-.26-1.17-.71-.71h0Z"/>
  <path class="cls-1" d="M76.66,65.05c.12,1.11-.41,2.13-.84,3.12-.48,1.1-.95,2.2-1.43,3.3-.22.51.34,1,.79.61,1.69-1.47,3.13-3.21,4.25-5.15.32-.56-.54-1.06-.86-.5-1.09,1.87-2.47,3.53-4.1,4.95l.79.61c.51-1.18,1.02-2.36,1.54-3.54.46-1.07,1-2.18.87-3.38-.03-.27-.21-.5-.5-.5-.25,0-.53.23-.5.5h0Z"/>
  <path class="cls-1" d="M78.52,65.43c-2.49,4.02-4.48,8.34-5.92,12.84l.96.27c.69-3.25,1.41-6.67,3.55-9.31.4-.5-.3-1.21-.71-.71-2.26,2.79-3.08,6.31-3.81,9.75-.13.63.77.88.96.27,1.42-4.43,3.37-8.65,5.82-12.6.34-.55-.53-1.05-.86-.5h0Z"/>
  <path class="cls-1" d="M83.32,64.98c-4.22,1.23-8.44,2.46-12.66,3.69l.49.84c1.67-1.59,3.49-2.98,5.46-4.18l-.61-.79c-3.26,3.75-6.47,7.62-8.73,12.08-.24.48.4,1.06.79.61,3.17-3.72,6.02-7.7,8.51-11.9.33-.56-.51-1.04-.86-.5-3.11,4.69-5.74,9.67-7.89,14.87l.96.27c.12-.88.25-1.75.37-2.63.07-.5-.67-.96-.91-.39-.85,1.97-1.39,4.01-1.62,6.14-.07.64.93.63,1,0,.21-1.94.71-3.84,1.48-5.63l-.91-.39c-.12.88-.25,1.75-.37,2.63-.09.64.72.87.96.27,2.12-5.12,4.73-10.02,7.79-14.64l-.86-.5c-2.45,4.13-5.24,8.05-8.35,11.7l.79.61c2.22-4.39,5.36-8.19,8.57-11.88.36-.41-.1-1.09-.61-.79-2.04,1.24-3.93,2.69-5.66,4.33-.36.34.01.97.49.84,4.22-1.23,8.44-2.46,12.66-3.69.62-.18.35-1.14-.27-.96h0Z"/>
  <path class="cls-1" d="M66.49,83.15c-.24.93-.39,1.87-.45,2.83h1c0-1.93.05-3.88-.02-5.81-.06-1.71-.64-3.21-1.45-4.71-.72-1.33-1.6-2.6-2.74-3.6-.57-.49-1.18-.91-1.86-1.24-.59-.29-1.41-.57-1.66-1.25l-.62.62c1.04.33,1.82,1.09,2.56,1.87s1.45,1.61,2.1,2.47c1.29,1.71,2.4,3.55,3.31,5.48.17.35.68.3.86,0,1.38-2.32,2.67-4.69,3.93-7.08.61-1.17,1.23-2.33,1.82-3.51.49-.97.9-2.05.51-3.12-.13-.37-.54-.48-.84-.22-1.82,1.58-3.33,3.5-4.42,5.66s-1.47,4.79-2.88,6.83l.91.12c-.46-1.86-.81-3.81-1.5-5.6s-1.84-3.13-3.03-4.52l-.61.79c2.92,2.25,5.01,5.46,5.93,9.03l.84-.49c-2.18-1.92-3.66-4.47-4.23-7.32l-.91.39c1.71,2.28,3.16,4.73,4.31,7.33l.86-.5c-.75-1.19-1.38-2.44-1.85-3.76-.22-.63-.42-1.27-.58-1.91s-.49-1.5.13-1.99c.52-.41,1.16-.72,1.73-1.05.62-.36,1.24-.71,1.87-1.06.93-.5,2.47-.94,2.57-2.17.03-.35-.34-.54-.63-.48-3.25.64-6.32,2-8.99,3.97-.41.31-.19,1.13.39.91,3.21-1.2,6.43-2.4,9.64-3.6l-.62-.62c-1.2,3.01-2.57,5.95-4.09,8.81-.26.48.4,1.05.79.61,1.7-1.97,3.41-3.95,5.11-5.92.43-.49-.21-1.11-.71-.71l-5.79,4.77.79.61c1.31-2.35,2.62-4.71,3.94-7.06.32-.57-.52-1.04-.86-.5-1.54,2.4-2.91,4.9-4.09,7.49l.79-.1c-1.43-1.23-2.63-2.66-3.59-4.28l-.79.61c1.74,1.53,3.22,3.31,4.39,5.31l.86-.5c-1.78-2.59-3.32-5.33-4.6-8.21l-.79.61c2.04,2.06,3.84,4.32,5.39,6.77.34.54,1.2.05.86-.5-1.33-2.21-2.63-4.45-3.9-6.69l-.43.75c.39-.05.93.98,1.14,1.26.34.47.67.94.98,1.42.61.93,1.18,1.89,1.72,2.87.31.57,1.16.06.86-.5-.72-1.37-1.24-2.82-1.57-4.34l-.91.39c.8,1.35,1.43,2.76,1.91,4.25.2.62,1.08.36.96-.27-.32-1.71-.65-3.41-.97-5.12l-.96.27c.34,1.45.68,2.9,1.03,4.35.14.59.92.39.98-.13.2-1.64.16-3.27-.1-4.89-.08-.48-.88-.48-.96,0-.25,1.51-.36,3.03-.3,4.56.03.66.93.63,1,0,.24-2.12.42-4.25.52-6.38.03-.64-.97-.64-1,0-.1,2.13-.28,4.26-.52,6.38h1c-.06-1.44.03-2.87.27-4.29h-.96c.25,1.53.26,3.09.06,4.63l.98-.13c-.34-1.45-.68-2.9-1.03-4.35-.15-.63-1.08-.36-.96.27.32,1.71.65,3.41.97,5.12l.96-.27c-.5-1.57-1.17-3.07-2.01-4.49-.3-.5-1.03-.16-.91.39.35,1.6.91,3.13,1.67,4.57l.86-.5c-.68-1.25-1.43-2.46-2.24-3.63-.39-.57-.8-1.13-1.23-1.67-.32-.41-.68-.81-1.24-.74-.37.04-.64.39-.43.75,1.27,2.25,2.57,4.48,3.9,6.69l.86-.5c-1.6-2.52-3.45-4.85-5.55-6.97-.42-.43-1.01.11-.79.61,1.28,2.87,2.82,5.61,4.6,8.21.36.52,1.19.06.86-.5-1.21-2.07-2.74-3.93-4.55-5.51-.41-.36-1.09.1-.79.61,1,1.69,2.26,3.2,3.75,4.48.22.19.64.21.79-.1,1.18-2.59,2.55-5.09,4.09-7.49l-.86-.5c-1.31,2.35-2.62,4.71-3.94,7.06-.29.52.36.96.79.61l5.79-4.77-.71-.71c-1.7,1.97-3.41,3.95-5.11,5.92l.79.61c1.57-2.94,2.96-5.96,4.19-9.05.14-.34-.28-.74-.62-.62-3.21,1.2-6.43,2.4-9.64,3.6l.39.91c2.6-1.92,5.57-3.24,8.75-3.87l-.63-.48c-.03.31-.58.51-.81.63-.35.19-.71.37-1.06.56-.67.36-1.33.73-1.98,1.11-.95.55-2.52,1.14-2.68,2.4-.08.61.11,1.25.25,1.83.17.68.37,1.36.61,2.02.5,1.36,1.14,2.67,1.91,3.9.35.56,1.12.07.86-.5-1.16-2.6-2.6-5.06-4.31-7.33-.33-.45-1.03-.2-.91.39.6,3,2.19,5.74,4.49,7.76.37.32.97.02.84-.49-1-3.84-3.26-7.21-6.39-9.62-.48-.37-.95.38-.61.79,1.18,1.37,2.33,2.76,2.92,4.5s.92,3.46,1.35,5.19c.11.45.68.46.91.12,1.39-2,1.73-4.48,2.79-6.64s2.54-4.06,4.35-5.64l-.84-.22c.4,1.11-.34,2.22-.84,3.18-.57,1.11-1.15,2.22-1.73,3.32-1.15,2.17-2.33,4.33-3.59,6.44h.86c-1-2.1-2.22-4.09-3.66-5.92-1.29-1.65-2.83-3.7-4.91-4.35-.34-.11-.75.26-.62.62.48,1.32,1.87,1.62,2.94,2.31,1.33.86,2.33,2.15,3.12,3.5.88,1.51,1.56,3.06,1.61,4.84.05,1.9.01,3.8.02,5.7,0,.65.96.64,1,0,.05-.87.19-1.72.41-2.56.16-.62-.8-.89-.96-.27h0Z"/>
  <g>
    <path class="cls-2" d="M122.38,78.8c-10.13-4.62-17.42-7.85-22.42-10.03-4.28-1.87-7.93-3.43-11.57-7.08-4.14-4.14-5.86-8.57-6.79-10.95-5.91-15.21-.93-36.53-.1-39.95"/>
    <path class="cls-2" d="M36.57,8.85c4.41,8.02,8.44,14.32,11.44,18.76,3.98,5.89,6.23,8.64,5.38,11.93-1.46,5.62-10.61,7.43-11.77,7.66-7.29,1.44-35.69-9.51-38.33-10.02"/>
    <path class="cls-2" d="M21.42,95.35c6.32-4.95,11.33-9.23,14.84-12.33,9.04-7.98,12.07-11.56,17.4-11.57,3.49,0,7.85,1.52,9.98,4.93.36.57,1.67,2.82,1.04,8.69-.61,5.72-2.54,9.82-4.3,13.51-3.55,7.41-6.49,13.37-8.58,17.55"/>
    <path class="cls-2" d="M99.96,68.77c-4.21-1.81-11.64-2.4-14.05-2.51-2.01-.1-3.2-.05-4.38.65-1.93,1.15-3.1,3.51-3.04,5.52.11,3.48,3.95,5.91,6.68,7.57,5.02,3.06,12.81,7.51,23.6,12.61"/>
    <path class="cls-2" d="M88.02,81.69c-1.21-.64-15.37-9.32-25.35,11.99"/>
    <path class="cls-2" d="M78.77,31.19c-.13,1.36-1.99,9.3-3.98,10.54-3.42,2.13-7.07,1.54-9.02,1.22-3.47-.56-5.88-2.11-7.21-2.98-1.82-1.2-6.22-6.19-7.09-7.14"/>
    <path class="cls-2" d="M32.7,46.22c1.55.84,8.84,4.89,10.98,7.18,1.35,1.44,3.51,3.75,4.55,7.22,1.58,5.3-2.55,13.32-3.33,14.92"/>
  </g>
</svg>