<?xml version="1.0" encoding="UTF-8"?>
<svg id="_Слой_1" data-name="Слой 1" xmlns="http://www.w3.org/2000/svg" viewBox="0 0 124 124">
  <defs>
    <style>
      .cls-1 {
        fill: none;
        stroke: #000;
        stroke-miterlimit: 10;
      }
    </style>
  </defs>
  <path class="cls-1" d="M61.09,14.17c-1.17,8.37-1.93,14.38-2.44,18.48-.43,3.52-.78,6.51-2.64,9.95-2.12,3.91-4.97,6.12-6.5,7.31-9.79,7.6-26.37,8.6-29.04,8.73"/>
  <path class="cls-1" d="M28.8,91.75c4.88-4.95,8.59-9.24,11.17-12.39,3.42-4.17,4.94-6.41,7.51-6.5,4.41-.16,7.7,6.11,8.12,6.9,2.63,4.99.81,28.03,1.02,30.06"/>
  <path class="cls-1" d="M95,84.03c-4.97-3.53-9.17-6.24-12.19-8.12-7.77-4.85-11.03-6.27-12.19-10.15-.76-2.54-.59-6.04,1.42-8.33.34-.38,1.69-1.83,6.09-2.64,4.29-.79,7.7-.28,10.76.2,6.16.97,11.13,1.82,14.62,2.44"/>
  <path class="cls-1" d="M58.65,32.65c-.41,3.45.78,8.99,1.22,10.76.37,1.48.65,2.34,1.42,3.05,1.25,1.15,3.23,1.5,4.67,1.02,2.51-.84,3.44-4.15,4.06-6.5,1.14-4.31,2.69-10.94,4.06-19.9"/>
  <path class="cls-1" d="M70.63,38.54c-.2,1.02-3.45,13.2,14.22,15.84"/>
  <path class="cls-1" d="M35.9,56.21c1.02-.2,7.2-.57,8.53.61,2.29,2.03,2.65,4.81,2.84,6.3.34,2.65-.26,4.73-.61,5.89-.48,1.59-3.15,5.87-3.66,6.7"/>
  <path class="cls-1" d="M56.82,86.47c.28-1.31,1.64-7.49,2.84-9.54.75-1.29,1.97-3.37,4.26-4.87,3.51-2.3,10.24-1.03,11.58-.81"/>
</svg>