<?xml version="1.0" encoding="UTF-8"?>
<svg id="_Слой_1" data-name="Слой 1" xmlns="http://www.w3.org/2000/svg" viewBox="0 0 124 124">
  <defs>
    <style>
      .cls-1 {
        fill: none;
        stroke: #000;
        stroke-miterlimit: 10;
      }
    </style>
  </defs>
  <path class="cls-1" d="M61.92,14.15c-1.17,8.38-1.93,14.38-2.44,18.49-.43,3.52-.78,6.52-2.64,9.96-2.12,3.91-4.97,6.12-6.5,7.31-9.79,7.6-26.38,8.6-29.05,8.74"/>
  <path class="cls-1" d="M29.61,91.76c4.88-4.95,8.59-9.24,11.17-12.39,3.42-4.17,4.94-6.41,7.52-6.5,4.41-.16,7.71,6.11,8.13,6.91,2.63,4.99.81,28.04,1.02,30.07"/>
  <path class="cls-1" d="M95.85,84.04c-4.97-3.53-9.18-6.25-12.19-8.13-7.77-4.85-11.03-6.28-12.19-10.16-.76-2.54-.59-6.04,1.42-8.33.34-.38,1.69-1.83,6.1-2.64,4.29-.79,7.7-.28,10.77.2,6.16.98,11.14,1.83,14.63,2.44"/>
  <path class="cls-1" d="M59.48,32.64c-.41,3.45.78,8.99,1.22,10.77.37,1.48.65,2.34,1.42,3.05,1.25,1.15,3.23,1.5,4.67,1.02,2.51-.84,3.44-4.15,4.06-6.5,1.14-4.31,2.69-10.95,4.06-19.91"/>
  <path class="cls-1" d="M71.47,38.53c-.2,1.02-3.45,13.21,14.22,15.85"/>
  <path class="cls-1" d="M36.73,56.21c1.02-.2,7.2-.57,8.53.61,2.29,2.03,2.65,4.81,2.84,6.3.34,2.65-.26,4.74-.61,5.89-.48,1.59-3.15,5.87-3.66,6.7"/>
  <path class="cls-1" d="M57.65,86.48c.28-1.31,1.64-7.49,2.84-9.55.75-1.29,1.97-3.37,4.27-4.88,3.51-2.3,10.25-1.03,11.58-.81"/>
</svg>