<?xml version="1.0" encoding="UTF-8"?>
<svg id="_Слой_1" data-name="Слой 1" xmlns="http://www.w3.org/2000/svg" viewBox="0 0 142 142">
  <defs>
    <style>
      .cls-1 {
        fill: #6db7a6;
        stroke: #000;
        stroke-miterlimit: 10;
      }
    </style>
  </defs>
  <path class="cls-1" d="M53.53,133.08c.78.4,16.43-33.45,22.77-36.06,4.2-1.73,8.61-.72,13.69.44,4.49,1.03,7.85,2.65,9.69,3.56,3.14,1.54,23.52,18.49,25.31,19.79-1.57-.85-23.18-18.44-25.64-23.02-.86-1.6-2.86-5.44-2.14-10.35,1.02-7.03,6.83-10.82,8.36-11.82,2.38-1.56,29.11-3.61,30.59-3.98-1.84-.43-28.87.21-31.86-.85-3.65-1.3-5.48-1.95-7.02-3.12-3.95-3.01-4.5-8.32-4.92-12.14-.84-7.65,9.94-31.64,11.69-35.37-1.48,2.99-12.8,25.3-17.73,29.5-2.64,2.25-6.02,5.14-10.61,6.08-10.26,2.12-36.56-32.5-37.68-33.68.77,1.14,18.13,24.92,18.66,31.95.48,6.31-1.64,10.08-2.3,10.92-7.5,9.49-47.53-1.44-48.54-1.45,1.55.47,38.14,9.27,40.87,10.26,6.52,2.36,9.78,3.55,12.66,5.49,1.56,1.05,8.95,6.04,10.13,13.84,1.06,7.02-16.76,39.61-15.98,40Z"/>
</svg>