<?xml version="1.0" encoding="UTF-8"?>
<svg id="_Слой_1" data-name="Слой 1" xmlns="http://www.w3.org/2000/svg" viewBox="0 0 100 100">
  <defs>
    <style>
      .cls-1 {
        fill: none;
        stroke: #000;
        stroke-miterlimit: 10;
      }
    </style>
  </defs>
  <path class="cls-1" d="M15.22,92.37c3.09-4.14,6-7.28,8.19-9.44,4.14-4.1,7.43-7.3,12.7-9.62,2.68-1.18,5.42-2.38,9-2.17,4.39.26,7.46,2.51,10.87,5.07,7.41,5.58,13.08,9.92,17.61,13.43"/>
  <path class="cls-1" d="M98.46,68.21c-6.92-3.11-12.65-4.84-16.75-5.86-3.34-.83-6.38-1.39-9.31-3.98-.82-.72-3.87-3.49-4.71-7.96-1.11-5.91,2.4-10.81,4.56-13.8,2.32-3.22,4.81-5.17,9.1-8.54,2.87-2.25,5.39-3.92,7.14-5.02"/>
  <path class="cls-1" d="M36.18,7.63c.7,3.79,1.29,7.24,1.79,10.28,1.47,9.05,1.58,11.39,1.1,14.18-.54,3.19-1.14,6.67-3.91,8.85-4.26,3.34-10.78,1.32-13.69.41-1.29-.4-3.25-1.12-14.64-8.5-2.22-1.43-4.04-2.64-5.29-3.47"/>
  <path class="cls-1" d="M23.41,82.92c1.39-1.6,6.1-9.46,7.16-12.74,1.15-3.57,2.19-6.77,1.86-11.06-.09-1.17-.51-5.43-3.26-10.02-1.55-2.6-13.82-10.76-15.2-11.73"/>
  <path class="cls-1" d="M72.72,35.92c-1.56,1.48-7.8,4.74-10.77,5.05-1.02.11-5.49.49-10.43-1.67-7.12-3.12-11.7-12.72-12.5-14.47"/>
  <path class="cls-1" d="M76.77,60.94c-1.8-.19-10.08-1.58-13.31-.86-2.7.6-4.96,1.11-7.04,3.04-.45.42-3.19,3.68-3.3,7.99-.06,2.28,3.03,5.22,3.89,5.83"/>
</svg>