<?xml version="1.0" encoding="UTF-8"?>
<svg id="_Слой_1" data-name="Слой 1" xmlns="http://www.w3.org/2000/svg" viewBox="0 0 100 100">
  <defs>
    <style>
      .cls-1 {
        fill: none;
        stroke: #000;
        stroke-miterlimit: 10;
      }
    </style>
  </defs>
  <path class="cls-1" d="M9.91,75.26c3.72-2.58,7.01-4.37,9.43-5.56,4.58-2.25,8.2-3.99,13.23-4.45,2.56-.23,5.17-.47,8.08.71,3.58,1.44,5.5,4.16,7.61,7.24,4.6,6.7,8.1,11.89,10.89,16.06"/>
  <path class="cls-1" d="M85.78,78.4c-4.88-4.51-9.16-7.54-12.28-9.54-2.54-1.62-4.91-2.93-6.63-5.9-.48-.82-2.24-3.98-1.7-7.92.72-5.22,5.01-8.3,7.63-10.19,2.82-2.03,5.43-2.96,9.94-4.56,3.01-1.07,5.57-1.76,7.33-2.18"/>
  <path class="cls-1" d="M50.95,10.74c-.47,3.35-.94,6.38-1.38,9.03-1.3,7.93-1.87,9.9-3.04,12.08-1.34,2.5-2.8,5.23-5.71,6.26-4.47,1.59-9.32-1.91-11.49-3.47-.96-.69-2.38-1.84-9.79-11.14-1.44-1.81-2.62-3.32-3.43-4.35"/>
  <path class="cls-1" d="M19.35,69.71c1.6-.94,7.7-6.15,9.5-8.59,1.95-2.64,3.7-5.01,4.63-8.67.25-1,1.09-4.65.09-9.23-.56-2.59-8.48-12.79-9.35-13.98"/>
  <path class="cls-1" d="M73.4,44.42c-1.71.8-7.8,1.76-10.35,1.19-.88-.2-4.7-1.12-8.19-4.29-5.05-4.57-6.18-13.82-6.35-15.5"/>
  <path class="cls-1" d="M69.79,66.32c-1.45-.66-7.93-4.12-10.81-4.43-2.41-.25-4.43-.47-6.69.56-.49.22-3.68,2.16-4.97,5.71-.68,1.88,1.06,5.18,1.6,5.92"/>
</svg>