<?xml version="1.0" encoding="UTF-8"?>
<svg id="_Слой_1" data-name="Слой 1" xmlns="http://www.w3.org/2000/svg" viewBox="0 0 111 111">
  <defs>
    <style>
      .cls-1 {
        fill: #333;
        stroke-width: 0px;
      }

      .cls-2 {
        fill: none;
        stroke: #333;
        stroke-miterlimit: 10;
      }
    </style>
  </defs>
  <g>
    <path class="cls-1" d="M41.59,26.49c3.39,4.95,6.75,10.01,8.86,15.66.22.59,1.18.35.96-.27-1.01-2.87-2.03-5.73-3.27-8.51-.57-1.28-1.14-2.65-1.95-3.8-.38-.54-.83-.96-1.36-1.34-.59-.42-1.37-.86-1.38-1.68l-.85.35c2.47,2.66,6.31,2.31,9.55,1.7,1.79-.34,3.71-.62,5.41-1.3,1.55-.62,2.73-1.88,4.28-2.51l-.49-.84c-5.16,6.65-8.36,14.65-9.21,23.02l.93-.25c-.18-.32,0-.97.05-1.31.06-.48.13-.96.22-1.44.16-.89.37-1.77.6-2.65.49-1.79,1.12-3.55,1.83-5.27s1.49-3.43,2.28-5.12c.59-1.26,1.81-3.04.9-4.42-.18-.28-.71-.37-.86,0-2.84,6.63-6.81,12.9-7.75,20.18-.07.56.85.67.98.13.79-3.28,1.75-6.51,2.88-9.69.55-1.55,1.14-3.09,1.77-4.61.34-.83.7-1.65,1.07-2.47.28-.63.72-1.31.45-2.01-.15-.39-.68-.52-.91-.12-1.76,3.01-3.17,6.19-4.28,9.5s-2.05,6.83-3.38,10.14l.96.27c.95-3.41,1.91-6.82,3.05-10.16.56-1.65,1.17-3.29,1.84-4.91s1.47-3.16,1.82-4.87c.11-.52-.65-.92-.91-.39-2.7,5.45-4.97,11.1-7.24,16.74l.98.13c.73-5.57,3.19-10.71,5.59-15.73.19-.41-.24-1-.68-.68-4.28,3.05-4.65,8.6-6.36,13.14l.96.27c.86-4.44,3.08-8.44,4.38-12.74.09-.29-.16-.66-.48-.63-.81.08-1.05.85-1.37,1.49-.41.81-.8,1.63-1.17,2.45-.75,1.65-1.45,3.33-2.09,5.02h.96c-.23-.89.13-1.8.43-2.64.28-.77.6-1.52.96-2.26.4-.8,1.63-2.75.71-3.55-1.21-1.05-1.86,1.62-2.09,2.25-.59,1.65-1.16,3.32-1.7,4.99h.96c-.29-1.32.19-2.68-.2-4-.34-1.15-1.14-2.08-1.91-2.96l-.49.84c1.45.29,2.92.43,4.4.42l-.25-.93c-.68.48-1.39.87-2.17,1.17-.35.14-.55.72-.12.91.28.13.53.28.74.51.09.1.16.21.23.32.05.08.09.16.12.25.02.14.05.14.08,0l.35-.15h-.1c.12.06.24.11.35.15l-.07-.06c-.49-.41-1.2.29-.71.71.63.53,1.29-.1,1.1-.82-.21-.8-.85-1.45-1.58-1.79l-.12.91c.85-.33,1.65-.75,2.4-1.27.39-.27.28-.94-.25-.93-1.39.01-2.77-.11-4.14-.39-.5-.1-.82.45-.49.84.74.85,1.56,1.77,1.75,2.92s-.16,2.4.11,3.6c.11.51.82.44.96,0,.42-1.28.85-2.56,1.29-3.83.23-.66.46-1.31.7-1.96.03-.08.39-.95.12-.92.03,0-.23.92-.24.96-.44,1.14-1.08,2.2-1.52,3.35s-.9,2.38-.59,3.61c.13.51.8.44.96,0,.54-1.43,1.12-2.85,1.74-4.25.29-.65.59-1.29.9-1.93.17-.35.34-.71.52-1.06.07-.14.39-.99.51-1l-.48-.63c-1.3,4.3-3.52,8.3-4.38,12.74-.12.64.74.87.96.27,1.59-4.22,1.91-9.71,5.9-12.54l-.68-.68c-2.49,5.19-4.97,10.47-5.73,16.23-.08.61.79.61.98.13,2.23-5.56,4.48-11.13,7.14-16.51l-.91-.39c-.34,1.67-1.12,3.2-1.77,4.76-.69,1.65-1.31,3.33-1.89,5.02-1.14,3.35-2.11,6.76-3.05,10.16-.18.64.73.85.96.27,1.31-3.23,2.21-6.6,3.31-9.91s2.5-6.48,4.26-9.49l-.91-.12c.15.4-.19.89-.35,1.24s-.32.72-.48,1.08c-.31.72-.62,1.45-.92,2.18-.61,1.49-1.18,2.99-1.71,4.51-1.06,3.04-1.97,6.12-2.73,9.25l.98.13c.91-7.08,4.85-13.23,7.61-19.68h-.86c.5.76-.13,1.76-.47,2.48-.39.83-.78,1.66-1.16,2.49-.77,1.67-1.5,3.35-2.16,5.07s-1.21,3.43-1.63,5.2c-.21.88-.37,1.77-.49,2.67-.1.72-.35,1.61.03,2.29.26.47.89.21.93-.25.82-8.08,3.93-15.89,8.91-22.31.26-.34.04-1.05-.49-.84-1.37.56-2.46,1.56-3.75,2.25-1.49.81-3.36,1.04-5.01,1.37-3.12.63-7.06,1.36-9.5-1.27-.3-.32-.86-.07-.85.35.02,1.49,1.32,2.01,2.28,2.87,1.08.96,1.66,2.54,2.25,3.82,1.34,2.9,2.41,5.91,3.47,8.92l.96-.27c-2.14-5.74-5.52-10.87-8.96-15.9-.36-.53-1.23-.03-.86.5h0Z"/>
    <path class="cls-1" d="M26.03,33.97c5.06,5.35,10.27,10.56,15.61,15.62.47.44,1.18-.26.71-.71-5.34-5.07-10.55-10.28-15.61-15.62-.44-.47-1.15.24-.71.71h0Z"/>
    <path class="cls-1" d="M28.32,35.59c2.96,4.76,8.84,5.67,13.52,7.93.58.28,1.05-.51.5-.86-2.07-1.32-4.4-2.1-6.52-3.32-1.08-.62-1.96-1.4-2.88-2.22-.44-.39-.91-.75-1.45-1-.47-.22-1.1-.34-1.4-.81l-.68.68c.95.64,1.72,1.51,2.62,2.22s1.88,1.15,2.98,1.37c2.26.44,4.59.04,6.83.55l.27-.96c-1.69-.25-3.37-.49-5.06-.74-.81-.12-1.62-.22-2.42-.36-.5-.08-1.26-.19-1.42-.77l-.73.56c2.3.98,4.63,2.04,7.17,1.38,2.32-.61,4.18-2.28,5.42-4.28.87-1.4,2.85-4.84.61-5.92-.88-.43-1.75.09-2,.99-.15.53-.14,1.12-.18,1.67-.05.8-.1,1.6-.22,2.4-.22,1.36-.66,2.77-1.64,3.79s-2.31,1.46-3.61,1l.3.73c.3-.43.93-.61,1.37-.88.37-.22.72-.48,1.06-.75.77-.63,1.44-1.37,2.02-2.17,1.28-1.76,2.07-3.82,2.72-5.88h-.96c.89,6.56,2.03,13.07,3.42,19.54.13.6.92.38.98-.13.32-2.59-.32-5.27-.79-7.81s-1.05-5.23-1.68-7.82l-.96.27c1.78,5.26,3.27,10.62,4.48,16.04.12.54,1.05.43.98-.13-.65-5.18-1.31-10.39-3.07-15.34-.21-.6-1.14-.36-.96.27,1.49,5.16,2.97,10.31,4.46,15.47l.91-.39c-1.32-2.67-2.4-5.44-3.48-8.22s-2.15-5.61-2.86-8.53c-.09-.39-.74-.52-.91-.12-2.43,5.43-2.38,11.48-1.66,17.28.08.63.94.65,1,0,.6-6.09.92-12.21.98-18.33,0-.55-.87-.7-.98-.13-.65,3.22-.23,6.6.4,9.79s1.65,6.29,2.99,9.26c.24.53,1.04.14.91-.39-1.09-4.65-2.18-9.3-3.27-13.95-.13-.54-1.02-.44-.98.13.45,7.19,2.94,14.1,3.12,21.32h1c-.72-6.78-1.85-13.51-3.4-20.15-.13-.56-.98-.42-.98.13-.04,6.95,2.32,13.57,3.14,20.42l.98-.13c-.72-3.7-1.45-7.4-2.17-11.1-.36-1.86-.72-3.72-1.1-5.57-.3-1.5-.43-3.29-1.5-4.47-.23-.26-.78-.15-.84.22-.93,5.93-.6,12,1.02,17.78.18.63,1.08.36.96-.27-.98-5.07-.56-11.24-5.16-14.69-.34-.25-.72.1-.75.43-.25,2.49-.27,4.99-.06,7.48.05.64,1.05.64,1,0-.21-2.49-.19-4.99.06-7.48l-.75.43c4.28,3.21,3.8,9.4,4.7,14.09l.96-.27c-1.57-5.6-1.93-11.5-1.02-17.25l-.84.22c.52.58.68,1.35.84,2.09.19.89.37,1.78.54,2.67.35,1.77.7,3.55,1.04,5.33.69,3.54,1.38,7.08,2.08,10.62.11.55,1.05.43.98-.13-.82-6.84-3.19-13.48-3.14-20.42l-.98.13c1.53,6.55,2.66,13.19,3.37,19.88.07.63,1.02.66,1,0-.19-7.22-2.67-14.13-3.12-21.32l-.98.13c1.09,4.65,2.18,9.3,3.27,13.95l.91-.39c-1.27-2.81-2.23-5.77-2.84-8.79s-1.08-6.38-.45-9.49l-.98-.13c-.05,6.12-.38,12.24-.98,18.33h1c-.69-5.59-.82-11.52,1.53-16.77l-.91-.12c.72,3,1.83,5.88,2.94,8.75s2.16,5.56,3.49,8.24c.25.51,1.07.15.91-.39-1.49-5.16-2.97-10.31-4.46-15.47l-.96.27c1.73,4.86,2.4,9.98,3.03,15.07l.98-.13c-1.2-5.42-2.7-10.78-4.48-16.04-.2-.61-1.12-.36-.96.27.61,2.51,1.16,5.04,1.64,7.58s1.12,5.2.8,7.78l.98-.13c-1.39-6.47-2.54-12.98-3.42-19.54-.07-.52-.83-.42-.96,0-.65,2.05-1.44,4.1-2.76,5.83-.59.78-1.3,1.49-2.1,2.06-.74.52-1.69.79-2.22,1.56-.19.28.02.64.3.73,1.8.62,3.75-.19,4.9-1.63,1.34-1.68,1.65-3.84,1.8-5.92.04-.54.04-1.09.11-1.62.03-.21.07-.63.29-.75.24-.13.54.07.68.27.58.81-.37,2.44-.74,3.19-.96,1.93-2.4,3.68-4.41,4.56-1.14.5-2.41.68-3.63.43-1.3-.27-2.56-.84-3.78-1.36-.38-.16-.86.11-.73.56.41,1.48,2.32,1.5,3.55,1.68,2.01.3,4.03.59,6.04.89.62.09.91-.82.27-.96-2.19-.5-4.44-.14-6.64-.52-1.14-.19-2.14-.64-3.03-1.38s-1.61-1.52-2.54-2.14c-.42-.28-.94.27-.68.68.61.98,1.91,1.11,2.76,1.81.99.82,1.87,1.7,2.98,2.38,2.2,1.34,4.69,2.14,6.86,3.53l.5-.86c-4.47-2.15-10.34-3.02-13.16-7.57-.34-.55-1.2-.04-.86.5h0Z"/>
    <path class="cls-1" d="M28.46,36.81c2.31,3.97,4.19,8.17,5.63,12.54.2.61,1.16.35.96-.27-1.38-4.27-2.86-8.5-4.53-12.67-.24-.6-1.07-.37-.96.27.71,4.48,3.21,8.54,3.42,13.11l.98-.13c-.97-4.03-1.97-8.09-3.91-11.78-.26-.49-1.13-.14-.91.39,1.27,3.08,2.68,6.14,3.64,9.34s1.27,6.49.98,9.8h1c-.21-2.34-.42-4.7-.98-6.98-.27-1.08-.62-2.13-1.06-3.16-.49-1.15-1.02-2.3-.94-3.59l-.98.13c1.32,5.51,1.93,11.32.41,16.86l.98.13c.2-2.01.69-3.96,1.44-5.83l-.96-.27c-.48,2.42-.96,4.84-1.44,7.25-.21,1.06-.37,2.14-.66,3.18-.24.84-.6,1.65-1.42,2.06l.73.56c.55-3.48,2.8-6.35,3.71-9.72.17-.62-.79-.88-.96-.27-.86,2.99-1.72,5.98-2.58,8.98-.17.59.59.81.91.39,4.03-5.28,8.06-10.55,12.08-15.83.31-.41-.28-.93-.68-.68-5.45,3.34-7.87,9.47-11.65,14.33l.79.61c1.82-3.55,4.15-6.8,6.48-10.03,2.49-3.44,4.98-6.87,7.46-10.31.33-.46-.4-1.02-.79-.61-4.46,4.78-7.95,10.33-11.4,15.86l.91.39c.49-2.49,2.23-4.4,4.04-6.07,2.02-1.86,4.11-3.65,6.16-5.47.38-.34-.02-.97-.49-.84-4.73,1.39-7.49,5.68-9.9,9.66l.86.5c1.28-2.6,2.74-5.11,4.4-7.49.84-1.2,1.72-2.37,2.65-3.5s1.86-2.17,3.08-2.94l-.61-.79c-3.96,3.85-7.97,7.78-10.7,12.64l.91.39c1.92-5.82,6.54-10.16,10.06-15.01l-.86-.5c-3.09,4.32-6.28,8.57-9.58,12.74l.84.49c.49-1.33,1.29-2.53,2.06-3.72s1.57-2.35,2.4-3.5c1.65-2.3,3.38-4.54,5.11-6.78.36-.47-.39-.97-.79-.61-4.04,3.68-7.47,7.99-10.17,12.75l.86.5c2.21-4.81,5.63-8.87,9.02-12.87.42-.5-.21-1.1-.71-.71-3.8,2.99-6.92,6.78-9.16,11.06l.86.5c2.09-4.41,5.2-8.19,8.47-11.77.36-.4-.13-1.14-.61-.79-3.28,2.46-6.05,5.49-8.19,8.98l.86.5c1.55-2.99,3.9-5.41,6.23-7.79.34-.35,0-.98-.49-.84-1.48.43-2.62,1.47-3.61,2.6-1.16,1.33-2.2,2.76-3.24,4.19l.91.12c-.08-.41.32-.88.47-1.25s.22-.77.06-1.15c-.18-.42-.56-.63-.95-.85-.59-.32-1.12-.69-1.44-1.3l-.79.61c1.53,1.94,2.82,4.05,3.86,6.29l.86-.5c-1.29-2.42-2.58-4.85-3.87-7.27l-.79.61c1.72,1.47,3.44,2.94,5.16,4.41.48.41,1.18-.26.71-.71l-5.44-5.07-.49.84c2.35.43,4.66,1.03,6.92,1.8l.27-.96c-1.78-.41-3.48-1.06-5.08-1.95l-.25.93c1.72.16,3.38.67,4.89,1.5.32.18.77-.04.75-.43-.03-.83-.17-1.63-.44-2.42-.12-.34-.56-.51-.84-.22-.86.92-1.79,1.77-2.8,2.54-.25.19-.35.54-.1.79.34.34.72.56,1.18.69.62.17.89-.79.27-.96-.3-.08-.52-.21-.74-.43l-.1.79c1.07-.82,2.08-1.71,3-2.7l-.84-.22c.24.7.38,1.41.41,2.15l.75-.43c-1.68-.92-3.49-1.46-5.4-1.64-.51-.05-.67.7-.25.93,1.67.93,3.45,1.62,5.31,2.05.63.14.87-.76.27-.96-2.26-.77-4.57-1.37-6.92-1.8-.46-.08-.88.47-.49.84,1.81,1.69,3.63,3.38,5.44,5.07l.71-.71c-1.72-1.47-3.44-2.94-5.16-4.41-.42-.36-1.06.09-.79.61,1.29,2.42,2.58,4.85,3.87,7.27.31.58,1.13.07.86-.5-1.08-2.32-2.43-4.48-4.02-6.49-.37-.46-1.04.13-.79.61s.58.84,1,1.15c.2.15.41.29.63.41.18.1.62.25.71.46.12.31-.28.81-.4,1.08-.18.4-.26.77-.17,1.21.09.46.68.43.91.12.95-1.3,1.9-2.6,2.95-3.82.91-1.06,1.93-2.1,3.31-2.51l-.49-.84c-2.39,2.44-4.8,4.93-6.39,7.99-.3.57.53,1.06.86.5,2.04-3.34,4.7-6.28,7.83-8.63l-.61-.79c-3.32,3.64-6.5,7.49-8.62,11.97-.27.57.56,1.08.86.5,2.2-4.22,5.26-7.91,9-10.86l-.71-.71c-3.45,4.06-6.94,8.19-9.18,13.08-.26.57.54,1.08.86.5,2.66-4.68,6.03-8.91,10.01-12.55l-.79-.61c-1.78,2.3-3.56,4.61-5.25,6.98-.82,1.15-1.62,2.32-2.39,3.51s-1.54,2.41-2.04,3.76c-.17.45.53.88.84.49,3.35-4.23,6.6-8.54,9.74-12.94.38-.53-.49-1.02-.86-.5-3.58,4.94-8.2,9.32-10.16,15.25-.18.54.64.88.91.39,2.68-4.79,6.63-8.64,10.54-12.43.4-.39-.12-1.09-.61-.79-2.42,1.52-4.2,4.12-5.83,6.42-1.76,2.49-3.32,5.12-4.66,7.86-.28.57.53,1.06.86.5,2.27-3.74,4.85-7.89,9.3-9.2l-.49-.84c-2.17,1.92-4.39,3.8-6.5,5.79-1.8,1.7-3.47,3.7-3.96,6.19-.11.55.6.88.91.39,3.41-5.45,6.84-10.93,11.24-15.65l-.79-.61c-2.49,3.44-4.98,6.87-7.46,10.31-2.34,3.23-4.66,6.47-6.48,10.03-.24.47.42,1.08.79.61,3.7-4.77,6.11-10.91,11.44-14.17l-.68-.68c-4.03,5.28-8.06,10.55-12.08,15.83l.91.39c.86-2.99,1.72-5.98,2.58-8.98l-.96-.27c-.91,3.37-3.16,6.24-3.71,9.72-.07.43.32.77.73.56,1.84-.92,2.04-3.33,2.4-5.11.53-2.66,1.05-5.32,1.58-7.98.13-.64-.73-.86-.96-.27-.79,1.96-1.27,4-1.48,6.09-.06.57.84.66.98.13,1.57-5.71.95-11.71-.41-17.39-.14-.57-.95-.41-.98.13-.08,1.18.3,2.27.76,3.35s.87,2.11,1.16,3.22c.63,2.34.85,4.76,1.06,7.16.06.64.94.64,1,0,.29-3.3-.03-6.65-.95-9.84s-2.41-6.41-3.71-9.56l-.91.39c1.9,3.61,2.86,7.6,3.81,11.54.13.54,1.01.43.98-.13-.22-4.68-2.73-8.8-3.45-13.38l-.96.27c1.67,4.16,3.15,8.4,4.53,12.67l.96-.27c-1.46-4.45-3.38-8.73-5.73-12.78-.32-.56-1.19-.05-.86.5h0Z"/>
    <path class="cls-1" d="M33.87,63.86c4.24.66,9.36-.27,12.9,2.69l.35-.85c-1.31-.17-2.67-.39-3.93-.82-.51-.17-1-.42-1.35-.84-.33-.39-.54-.79-1.01-1.04l-.39.91c3.22,1.24,5.36,4.16,7.31,6.86.37.51,1.19.07.86-.5-1.34-2.39-2.69-4.77-4.03-7.16l-.79.61c1.72,2.05,3.3,4.21,4.72,6.48.69,1.1,1.34,2.23,1.95,3.38.65,1.21,1.35,2.46,1.66,3.81.15.64,1.07.36.96-.27-.63-3.72-1.25-7.44-1.62-11.2-.18-1.86-.31-3.72-.34-5.58-.03-1.76.09-3.54-.37-5.25-.17-.62-1.13-.36-.96.27.48,1.77.3,3.65.35,5.47s.19,3.73.38,5.58c.38,3.68.99,7.33,1.61,10.98l.96-.27c-.31-1.33-.98-2.55-1.61-3.75s-1.36-2.48-2.11-3.68c-1.46-2.34-3.1-4.57-4.87-6.68-.37-.44-1.06.12-.79.61,1.34,2.39,2.69,4.77,4.03,7.16l.86-.5c-2.12-2.94-4.41-5.97-7.91-7.32-.53-.2-.88.65-.39.91s.72.85,1.13,1.2.93.59,1.46.77c1.34.46,2.79.67,4.19.85.42.05.67-.59.35-.85-3.77-3.16-8.84-2.25-13.34-2.95-.63-.1-.9.87-.27.96h0Z"/>
    <path class="cls-1" d="M51.81,72.31c-2.97-9.22-4.48-18.86-4.48-28.55,0-.64-1-.64-1,0,0,9.77,1.52,19.52,4.52,28.81.2.61,1.16.35.96-.27h0Z"/>
    <path class="cls-1" d="M49.96,69.79c-.19-4.4-.57-8.79-1.15-13.15-.28-2.11-.56-4.23-.99-6.32-.32-1.56-.65-3.52-2.14-4.41-.35-.21-.71.07-.75.43-.3,2.81.31,5.46,1.08,8.15s1.65,5.55,2.56,8.3c.21.63,1.05.36.96-.27-.45-3.17-1-6.32-1.67-9.45-.33-1.54-.69-3.08-1.08-4.62-.18-.72-.33-1.49-.58-2.19-.18-.47-.45-.83-.94-.98-.31-.1-.64.17-.63.48.04,3.99.63,7.96,1.75,11.79.18.62,1.14.35.96-.27-1.09-3.75-1.67-7.62-1.71-11.52l-.63.48c.43.13.56,1.41.65,1.76.17.67.34,1.34.5,2,.34,1.42.66,2.84.96,4.27.58,2.82,1.07,5.65,1.47,8.5l.96-.27c-.89-2.67-1.72-5.36-2.5-8.07s-1.41-5.31-1.11-8.12l-.75.43c.72.43,1.02,1.23,1.24,1.99.26.9.45,1.82.61,2.74.36,2.02.65,4.06.9,6.1.51,4.04.84,8.11,1.02,12.18.03.64,1.03.64,1,0h0Z"/>
    <path class="cls-1" d="M35.12,62.88c3.15.38,6.36.93,9.29,2.22,1.45.64,2.82,1.47,4,2.52,1.31,1.16,2.39,2.53,3.46,3.9.35.44,1.13-.15.79-.61-2.38-3.11-4.19-6.62-5.29-10.37-.58-1.98-.89-4-1.25-6.03s-1.15-4.19-1.21-6.34h-1c.66,6.72,2.12,13.34,3.42,19.95l.96-.27c-1.83-5.86-2.06-12.34-5.55-17.59-.25-.37-1-.28-.93.25.72,5.73,2.72,11.15,4.74,16.53.22.59,1.16.36.96-.27-1.56-5-3.11-10.02-3.84-15.22l-.96.27c1.24,4.94,2.47,9.92,2.55,15.04l.98-.13c-1.33-4.89-2.65-9.78-3.98-14.67-.14-.53-1.03-.44-.98.13.29,3.72,1.4,7.28,2.54,10.82l.91-.39c-2.06-3.5-2.92-7.5-3.75-11.43-.11-.54-1.04-.43-.98.13.44,4.59,2.33,8.82,3.48,13.24l.91-.39c-1.99-2.92-3.7-6.02-5.09-9.26l-.86.5c1.2,2.29,2.51,4.53,3.92,6.7.27.42.9.25.93-.25.09-1.68-.58-3.43-1.07-5.02-.42-1.36-.74-3-1.95-3.88-.29-.21-.8.07-.75.43.39,3.14,1.4,6.13,2.44,9.11.21.6,1.12.37.96-.27-.63-2.55-1.29-5.1-2.59-7.41-.24-.43-.95-.25-.93.25.1,3.05.89,6.01,2.32,8.71.31.58,1.13.07.86-.5-1.12-2.45-2.36-4.84-3.72-7.16-.29-.5-1.05-.16-.91.39.55,2.23,1.23,4.43,2.03,6.59l.91-.39c-1.1-1.69-2.21-3.37-3.58-4.85-.41-.45-1,.12-.79.61.8,1.79,1.78,3.49,2.93,5.08l.79-.61c-1.31-1.61-2.92-3.34-5.2-3.15-.44.04-.65.52-.35.85.76.85,1.66,1.57,2.66,2.13l.25-.93c-.61.02-1.17-.06-1.74-.31l-.12.91c.75-.31,1.5-.62,2.25-.93.5-.21,1.17-.37,1.49-.84.65-.95-.46-2.41-1.04-3.12-.34-.41-.94.04-.84.49.26,1.11.52,2.22.78,3.33l.91-.39c-.66-1.37-1.32-2.73-2.05-4.07-.6-1.1-1.21-2.38-2.37-2.99-.27-.14-.67-.03-.73.3-.21,1-.47,1.97-.79,2.94l.73-.3c-.12-.09-.23-.17-.35-.26-.52-.38-1.02.49-.5.86.12.09.23.17.35.26.28.2.64-.02.73-.3.32-.97.58-1.94.79-2.94l-.73.3c1.1.57,1.67,1.99,2.23,3.04.64,1.2,1.23,2.43,1.83,3.65.25.53,1.04.15.91-.39-.26-1.11-.52-2.22-.78-3.33l-.84.49c.29.35.53.72.72,1.13.05.1.25.51.22.65-.05.19-.35.26-.49.32-.9.38-1.8.75-2.7,1.12-.34.14-.56.72-.12.91.73.31,1.45.47,2.24.44.48-.02.7-.68.25-.93-.93-.52-1.74-1.18-2.45-1.97l-.35.85c2-.17,3.35,1.46,4.49,2.86.35.44,1.12-.14.79-.61-1.14-1.59-2.12-3.29-2.93-5.08l-.79.61c1.31,1.42,2.37,3.03,3.43,4.64.29.45,1.12.17.91-.39-.8-2.16-1.48-4.35-2.03-6.59l-.91.39c1.36,2.33,2.6,4.72,3.72,7.16l.86-.5c-1.35-2.54-2.09-5.33-2.19-8.2l-.93.25c1.25,2.23,1.88,4.71,2.49,7.17l.96-.27c-1.01-2.88-2.03-5.79-2.41-8.84l-.75.43c.52.38.74,1.02.94,1.61.24.71.47,1.42.68,2.13.41,1.37.97,2.86.9,4.3l.93-.25c-1.41-2.17-2.72-4.41-3.92-6.7-.31-.58-1.11-.07-.86.5,1.4,3.25,3.1,6.34,5.09,9.26.31.46,1.06.19.91-.39-1.13-4.33-3.02-8.49-3.45-12.97l-.98.13c.85,4.02,1.74,8.09,3.85,11.67.28.48,1.09.17.91-.39-1.11-3.44-2.22-6.92-2.5-10.55l-.98.13c1.33,4.89,2.65,9.78,3.98,14.67.15.54.99.44.98-.13-.08-5.21-1.33-10.28-2.59-15.3-.16-.64-1.05-.35-.96.27.74,5.2,2.29,10.22,3.84,15.22l.96-.27c-1.99-5.28-4-10.63-4.71-16.26l-.93.25c3.44,5.17,3.64,11.57,5.45,17.35.19.62,1.09.36.96-.27-1.28-6.53-2.73-13.06-3.38-19.69-.06-.63-1.02-.65-1,0,.06,2.13.8,4.17,1.18,6.25s.7,4.29,1.31,6.38c1.13,3.83,2.97,7.44,5.39,10.61l.79-.61c-1.14-1.45-2.3-2.92-3.71-4.11-1.25-1.05-2.65-1.89-4.14-2.54-3.05-1.32-6.33-1.89-9.61-2.28-.64-.08-.63.92,0,1h0Z"/>
    <path class="cls-1" d="M53.35,75.06c0-5,.21-10,.63-14.98.21-2.47.47-4.93.77-7.38s.51-4.8.14-7.22c-.21-1.35-.32-2.59-.07-3.95.23-1.28.57-2.54.61-3.85.02-.64-.98-.64-1,0-.08,2.31-1,4.45-.7,6.79.15,1.22.37,2.4.38,3.64s-.11,2.42-.25,3.63c-.57,4.96-1.07,9.92-1.31,14.91-.13,2.81-.2,5.62-.2,8.43,0,.64,1,.64,1,0h0Z"/>
    <path class="cls-1" d="M57.57,30.13c-1.35,6.58-2.06,13.41-.57,20.04.14.63,1.07.36.96-.27-.17-.98-.35-1.97-.52-2.95-.11-.63-1.08-.36-.96.27.17.98.35,1.97.52,2.95l.96-.27c-1.44-6.44-.74-13.1.57-19.51.13-.63-.83-.9-.96-.27h0Z"/>
    <path class="cls-1" d="M56.01,32.47c.44,6.94,1.73,13.81,3.87,20.43.2.61,1.1.36.96-.27-1.32-6.04-4.15-11.79-4.41-18.04l-.98.13c1.39,3.46,2.71,6.94,3.95,10.46.21.6,1.12.37.96-.27-.88-3.53-1.88-7.03-3.02-10.49l-.96.27c1.45,4.01,2.95,8.08,5.52,11.53.39.52,1.12.09.86-.5-1.11-2.59-2.3-5.15-3.57-7.66l-.79.61c1.12,1.21,2.23,2.42,3.35,3.63,1,1.08,1.95,2.35,3.17,3.2,2.34,1.62,5.54,1.14,8.17.78l-.49-.84c-4.71,4-8.69,8.83-11.74,14.21-.32.56.55,1.07.86.5,3.01-5.31,6.93-10.05,11.58-14,.43-.36-.05-.89-.49-.84-2.52.34-5.74.83-7.82-1.02-1.04-.93-1.94-2.04-2.88-3.07-1-1.09-2.01-2.18-3.01-3.27-.4-.43-1.03.12-.79.61,1.27,2.52,2.47,5.07,3.57,7.66l.86-.5c-2.53-3.38-4-7.35-5.42-11.29-.22-.6-1.17-.35-.96.27,1.14,3.46,2.15,6.96,3.02,10.49l.96-.27c-1.24-3.51-2.56-7-3.95-10.46-.19-.48-1.01-.48-.98.13.26,6.36,3.1,12.17,4.44,18.31l.96-.27c-2.11-6.54-3.41-13.31-3.84-20.17-.04-.64-1.04-.64-1,0h0Z"/>
    <path class="cls-1" d="M53,37.84c2.29,6.58,4.58,13.17,6.44,19.89.17.62,1.1.36.96-.27-.81-3.61-1.5-7.25-2.06-10.92-.28-1.85-.53-3.7-.75-5.55-.19-1.63-.13-3.5-.88-5-.18-.36-.85-.3-.91.12-1.06,6.66-.54,13.5,1.56,19.91.16.5,1.05.46.98-.13-.72-6.57-1.88-13.07-3.04-19.57l-.91.39c3.76,6.32,6.56,13.16,8.31,20.3.16.64,1.06.36.96-.27-.8-4.98-1.8-9.92-2.98-14.82l-.96.27c1.45,5.37,2.91,10.74,4.81,15.96.22.6,1.14.36.96-.27-1.32-4.71-2.31-9.52-2.93-14.37l-.93.25c1.23,2.56,2.67,5.01,4.13,7.45l.86-.5c-1.82-3.06-3.65-6.12-5.47-9.18l-.79.61c2.65,3.14,6.48,7.05,11.03,5.33.6-.23.37-1.08-.27-.96-.83.15-1.58,1.02-2.17,1.57-.69.63-1.35,1.29-1.98,1.98-1.27,1.38-2.42,2.86-3.42,4.45-2.01,3.18-3.34,6.74-3.75,10.48-.05.5.71.67.93.25,2.32-4.48,3.25-9.87,7.01-13.48l-.84-.49c-.76,2.88-1.75,5.7-2.97,8.43l.91.39c.31-1.81.79-3.59,1.44-5.31.6-1.6,1.29-3.36,2.55-4.56l-.84-.22c.21.53-.39,1.24-.63,1.68-.3.54-.6,1.09-.9,1.63-.62,1.12-1.24,2.25-1.86,3.37l.91.39c.42-1.68.84-3.37,1.26-5.05.36-1.45.64-2.99,1.57-4.21.15-.2.04-.58-.18-.68-1.86-.85-3.78-1.53-5.76-2.01-.44-.11-.9.51-.49.84,1.81,1.42,3.79,2.55,5.94,3.39l.27-.96c-1.03-.16-2.06-.2-3.09-.06-.72.1-1.59.21-2,.9s-.37,1.72-.34,2.49c.04,1,.24,1.99.58,2.94.16.43.85.52.96,0,.34-1.52.49-3.07.4-4.63-.07-1.15-.21-2.36-1.23-3.07-.36-.25-.86.17-.73.56.85,2.63,1.69,5.25,2.54,7.88.15.47.82.48.96,0,.62-2.06,1.18-4.13,1.68-6.23.14-.57-.59-.84-.91-.39-1.38,1.94-2.71,3.92-3.99,5.93-.36.56.49,1,.86.5,1.82-2.38,3.63-4.77,5.45-7.15.31-.41-.28-.93-.68-.68-2.3,1.43-4.33,3.23-6.34,5.04-.48.43.23,1.14.71.71,1.95-1.75,3.9-3.49,6.13-4.88l-.68-.68-5.45,7.15.86.5c1.28-2.01,2.61-3.98,3.99-5.93l-.91-.39c-.5,2.09-1.06,4.17-1.68,6.23h.96c-.85-2.63-1.69-5.25-2.54-7.88l-.73.56c.82.58.74,2.03.76,2.91.02,1.24-.12,2.46-.39,3.66h.96c-.48-1.32-.75-2.86-.46-4.26.16-.76.97-.78,1.62-.84.82-.08,1.65-.06,2.46.07.64.1.87-.73.27-.96-1.98-.76-3.83-1.82-5.5-3.13l-.49.84c1.9.47,3.75,1.1,5.53,1.91l-.18-.68c-.93,1.22-1.24,2.75-1.61,4.21-.44,1.76-.88,3.53-1.32,5.29-.13.54.63.89.91.39.74-1.34,1.48-2.68,2.22-4.03.35-.64.73-1.28,1.06-1.93.24-.48.42-.98.21-1.5-.14-.35-.54-.5-.84-.22-1.29,1.23-2,2.95-2.64,4.57-.73,1.85-1.26,3.77-1.6,5.74-.09.51.66.94.91.39,1.25-2.8,2.28-5.7,3.07-8.67.13-.49-.48-.83-.84-.49-3.84,3.69-4.79,9.11-7.16,13.68l.93.25c.38-3.5,1.66-6.83,3.51-9.81.93-1.49,1.99-2.89,3.17-4.19.58-.64,1.19-1.26,1.82-1.86.31-.3.63-.59.96-.87s.69-.7,1.14-.78l-.27-.96c-4.19,1.59-7.64-2.21-10.06-5.07-.37-.44-1.07.13-.79.61,1.82,3.06,3.65,6.12,5.47,9.18.33.55,1.19.05.86-.5-1.45-2.44-2.9-4.89-4.13-7.45-.21-.43-1-.24-.93.25.64,4.95,1.62,9.83,2.97,14.64l.96-.27c-1.9-5.23-3.36-10.6-4.81-15.96-.17-.62-1.11-.36-.96.27,1.18,4.9,2.17,9.84,2.98,14.82l.96-.27c-1.77-7.22-4.61-14.15-8.41-20.54-.3-.51-1.01-.16-.91.39,1.15,6.41,2.29,12.83,3.01,19.3l.98-.13c-2.04-6.23-2.59-12.9-1.56-19.37l-.91.12c.4.79.44,1.69.53,2.55s.19,1.78.3,2.67c.22,1.78.46,3.56.73,5.33.55,3.58,1.23,7.14,2.02,10.67l.96-.27c-1.85-6.72-4.14-13.31-6.44-19.89-.21-.6-1.18-.34-.96.27h0Z"/>
    <path class="cls-1" d="M53.64,75.2c.61-1.09,1.23-2.17,1.84-3.26.29-.51.49-.91,1.12-.98.59-.06,1.22.03,1.81.08l-.25-.93c-1.44,1.09-3.52.95-4.55,2.62-.28.46.26.89.68.68,1.43-.69,2.91-1.27,4.43-1.75,1.4-.44,2.94-.96,4.42-.85s3.09.76,4.56,1.2c1.58.47,3.15.94,4.73,1.41.58.17.82-.6.39-.91-3.22-2.36-5.9-5.39-7.87-8.86-.32-.56-1.18-.06-.86.5,2.06,3.63,4.87,6.76,8.23,9.22l.39-.91c-1.66-.49-3.31-.99-4.97-1.48-1.55-.46-3.18-1.13-4.82-1.18-1.54-.04-3.12.47-4.57.93-1.56.5-3.08,1.11-4.55,1.82l.68.68c.86-1.4,2.95-1.32,4.19-2.26.4-.3.27-.89-.25-.93-1.16-.1-2.61-.34-3.4.73-.4.54-.69,1.17-1.02,1.75l-1.23,2.17c-.32.56.55,1.07.86.5h0Z"/>
    <path class="cls-1" d="M71.69,71.99c-1.9-2.8-3.41-5.85-4.31-9.12l-.96.27c1.35,3.32,3.08,6.45,5.18,9.35l.79-.61c-2.07-2.17-4.17-4.4-5.5-7.12-.71-1.46-1.11-3.04-1.44-4.62s-.88-3.37-.22-4.89l-.91-.12c.71,3.91,1.41,7.82,2.12,11.74.1.55,1.02.43.98-.13-.27-3.7-1.59-7.4-.93-11.12h-.96c.37,2.21.54,4.44.53,6.68l.63-.48c-.18,0-.33-.07-.45-.22-.45-.46-1.16.24-.71.71.26.26.53.42.89.48.32.05.63-.13.63-.48.01-2.33-.18-4.65-.57-6.95-.08-.48-.88-.48-.96,0-.68,3.84.62,7.58.9,11.39l.98-.13c-.71-3.91-1.41-7.82-2.12-11.74-.07-.4-.74-.51-.91-.12-.69,1.58-.36,3.23-.04,4.87.34,1.73.73,3.46,1.44,5.08,1.33,3.05,3.66,5.51,5.92,7.89.38.4,1.12-.14.79-.61-2.05-2.82-3.76-5.88-5.08-9.11-.24-.58-1.14-.37-.96.27.92,3.35,2.46,6.49,4.41,9.36.36.53,1.23.03.86-.5h0Z"/>
    <path class="cls-1" d="M53.43,42.55c1.85,5.06,3.69,10.13,5.32,15.27.19.62,1.1.36.96-.27-.71-3.29-1.43-6.59-2.18-9.88-.71-3.1-1.26-6.36-2.54-9.29-.19-.44-1-.23-.93.25.22,1.65.89,3.16,1.53,4.68.7,1.66,1.42,3.31,2.14,4.96,1.44,3.3,2.86,6.6,4.09,9.98.22.6,1.13.37.96-.27-1.17-4.37-2.33-8.74-3.5-13.11l-.96.27c1.85,4.94,2.88,10.11,3.9,15.27l.91-.39c-2.42-4.67-4.85-9.33-7.15-14.06-.22-.44-.96-.23-.93.25.21,4.01.27,8.03.18,12.04l.98-.13c-.88-2.2-1.63-4.45-2.25-6.73-.17-.62-1.13-.36-.96.27.62,2.29,1.37,4.53,2.25,6.73.2.5.97.47.98-.13.09-4.02.03-8.03-.18-12.04l-.93.25c2.31,4.73,4.73,9.39,7.15,14.06.27.53,1.02.15.91-.39-1.02-5.16-2.06-10.33-3.9-15.27-.22-.59-1.13-.37-.96.27,1.17,4.37,2.33,8.74,3.5,13.11l.96-.27c-1.18-3.24-2.53-6.4-3.9-9.56-.69-1.58-1.38-3.15-2.05-4.73s-1.53-3.3-1.77-5.06l-.93.25c.63,1.44.99,2.97,1.36,4.49.39,1.6.77,3.2,1.13,4.8.73,3.21,1.43,6.42,2.12,9.64l.96-.27c-1.63-5.14-3.47-10.2-5.32-15.27-.22-.6-1.19-.34-.96.27h0Z"/>
    <path class="cls-1" d="M51.58,43.42c-3.91,1.19-5.29,5.33-6.26,8.88-.13.46.5.87.84.49,1.14-1.3,2.28-2.6,3.42-3.9.54-.62,1.08-1.24,1.63-1.86.44-.5,1.19-1.62,1.99-1.25l.12-.91c-3.51,1.06-5.11,4.5-6.42,7.62-.2.48.51.82.84.49,2.59-2.68,5.34-5.2,8.23-7.55.38-.31-.03-1-.49-.84-2.26.82-4.38,1.75-5.9,3.69-1.4,1.79-2.23,3.93-3.36,5.88-.3.53.36.94.79.61,3.3-2.58,6.46-5.34,9.47-8.25.46-.45-.24-1.14-.71-.71-2.41,2.22-4.58,4.69-6.49,7.36-.34.48.39.98.79.61,2.97-2.81,6.11-5.43,9.39-7.86.51-.37.06-1.2-.5-.86-4.51,2.65-8.62,5.93-12.19,9.75-.44.47.22,1.12.71.71,2.56-2.21,5.15-4.41,8.25-5.83l-.5-.86c-3.07,2.32-6.16,4.65-8.87,7.39-.39.4.11,1.09.61.79,2.74-1.69,5.53-3.29,8.37-4.79l-.5-.86c-3.21,2.02-6.95,3.06-10.01,5.35-.42.32-.2,1.09.39.91,3.77-1.14,7.46-2.54,11.04-4.18.51-.23.14-1.13-.39-.91-3.39,1.4-6.79,2.82-9.99,4.63-.49.28-.16,1.08.39.91,4.04-1.25,8.08-2.51,12.12-3.76l-.27-.96c-3.97,1.28-8,2.59-11.49,4.94-.53.36-.07,1.16.5.86,3.72-1.94,7.68-3.37,11.77-4.29l-.27-.96c-4.32,1.12-8.76,2.31-12.41,5-.41.3-.19,1.15.39.91,3.9-1.58,7.91-2.88,12-3.88l-.27-.96c-3.91,1.51-8.26,1.95-11.79,4.35-.46.31-.19,1.06.39.91,4.02-1.05,8.03-2.09,12.05-3.14.63-.16.36-1.1-.27-.96-4.25.9-8.61,1.87-12.24,4.39-.43.3-.19,1.11.39.91,4.54-1.6,9.3-2.45,14.12-2.53.64-.01.64-.99,0-1-4.6-.1-9.18.69-13.48,2.32l.27.96c4.39-1.79,8.89-3.31,13.47-4.55l-.39-.91c-1.9,1.17-3.99,1.92-6.02,2.82-.99.44-1.97.92-2.88,1.5-.23.15-.45.3-.67.46-.2.14-.45.43-.69.43-.27,0-.46-.37-.64-.57-.24-.28-.47-.55-.71-.83-.36-.42-.91.05-.84.49.57,3.53,1.55,6.97,2.92,10.28.2.47,1.02.48.98-.13-.18-2.95-.74-5.85-1.67-8.65-.2-.61-1.16-.35-.96.27,1.24,3.9,2.73,7.71,4.45,11.42.27.59,1.13.08.86-.5-1.8-3.97-1.92-8.44-3.32-12.53-.17-.5-1.02-.46-.98.13.26,4.17,1.64,8.2,4.03,11.63.33.48,1,.18.91-.39-.63-3.89-2.82-7.28-3.73-11.09l-.91.39c1.03,1.47,1.64,3.23,2.34,4.87.75,1.75,1.51,3.51,2.26,5.26.2.47.94.21.93-.25-.04-3.95-1.28-7.72-2.54-11.42-.17-.51-1.01-.46-.98.13.13,2.43.61,4.85,1.48,7.12.16.42.33.81.69,1.09.43.33.98.51,1.48.71,1.14.48,2.28.93,3.44,1.36v-.96c-1.13.4-2.28.75-3.45,1.05-.45.12-.5.88,0,.96,2.42.39,4.84.19,7.27-.03,1.27-.12,2.55-.24,3.83-.26.54,0,1.17-.07,1.7.08.11.02.22.07.31.13.09.21.19.2.29-.03-.14-.1-.59-.11-.78-.15-1.12-.27-2.19-.72-3.31-1s-2.23-.35-3.36-.24-2.26.35-3.38.6c-.6.13-1.2.27-1.8.38-.3.06-.6.11-.9.15-.15.03-.3.04-.45.05-.14-.04-.17-.03-.09.03l-.35.62c4.17-1.67,8.73-1.19,13.08-.69.42.05.67-.59.35-.85-3.16-2.62-7.43-1.79-10.96-.49-1.05.38-2.08.88-3.15,1.18-.05.01-.27.05-.29.06-.14.12.27-.03.16.01.22-.09.45-.33.65-.47.46-.31.93-.59,1.42-.85s.98-.47,1.49-.68c.35-.14.72-.28.95-.6.53-.76-.4-1.79-.78-2.42-1.36-2.32-2.72-4.64-4.07-6.95-.3-.51-1.01-.15-.91.39.82,4.41,2.22,8.67,3.97,12.79.23.53,1.05.15.91-.39-1.04-4-2.08-7.99-3.11-11.99l-.96.27c1.48,3.58,2.96,7.16,4.44,10.73.19.47,1.03.48.98-.13-.38-4.68-1.54-9.23-3.44-13.52-.25-.56-.99-.12-.91.39.67,4.53,1.74,9.1,4.26,13,.32.5.99.16.91-.39-.64-4.38-1.62-8.69-2.93-12.92l-.96.27c1.39,4.02,2.94,7.97,4.49,11.92.23.59,1.19.34.96-.27-1.34-3.53-2.27-7.18-2.8-10.92l-.96.27c1.22,3.85,2.66,7.63,4.31,11.31.23.52,1.09.15.91-.39-1.17-3.59-2.34-7.18-3.51-10.77l-.91.39c1.5,3.43,2.99,6.86,4.49,10.29.24.56,1,.13.91-.39-.66-3.97-1.35-7.95-2.74-11.73-.22-.59-1.16-.36-.96.27,1.31,4.22,3.35,8.14,5.4,12.04l.86-.5c-2.14-3.66-3.48-7.75-3.88-11.97l-.93.25c.89,1.66,1.6,3.41,2.09,5.23.23.86.43,1.73.57,2.6.08.47.14.94.19,1.41.02.21.07.44.04.65-.01.12-.09.33-.05.33l.48.37c-.47-1.63-.86-3.29-1.18-4.96-.11-.56-1-.42-.98.13.05,1.96.36,3.9.91,5.78.18.62,1.15.35.96-.27-.53-1.8-.82-3.64-.87-5.52l-.98.13c.32,1.67.71,3.33,1.18,4.96.06.2.26.38.48.37.81-.05,1.08-.82,1.05-1.54-.05-1.18-.28-2.39-.54-3.53-.52-2.32-1.37-4.56-2.49-6.65-.22-.42-.98-.25-.93.25.42,4.4,1.78,8.66,4.02,12.47.33.56,1.16.06.86-.5-2.01-3.82-4.02-7.66-5.3-11.8l-.96.27c1.39,3.79,2.08,7.77,2.74,11.73l.91-.39c-1.5-3.43-2.99-6.86-4.49-10.29-.23-.52-1.09-.15-.91.39,1.17,3.59,2.34,7.18,3.51,10.77l.91-.39c-1.61-3.61-3.02-7.31-4.21-11.07-.2-.63-1.05-.36-.96.27.53,3.73,1.47,7.39,2.8,10.92l.96-.27c-1.56-3.95-3.11-7.91-4.49-11.92-.21-.6-1.16-.35-.96.27,1.31,4.23,2.28,8.54,2.93,12.92l.91-.39c-2.47-3.83-3.49-8.31-4.16-12.76l-.91.39c1.83,4.11,2.94,8.52,3.3,13.01l.98-.13c-1.48-3.58-2.96-7.16-4.44-10.73-.24-.58-1.13-.38-.96.27,1.04,4,2.08,7.99,3.11,11.99l.91-.39c-1.72-4.04-3.06-8.23-3.87-12.55l-.91.39c1.19,2.04,2.39,4.07,3.58,6.11.29.49.58.98.86,1.48.1.17.41.52.35.71-.07.21-.51.28-.71.37-.96.4-1.88.88-2.74,1.46-.57.38-1.67,1-1.22,1.85.38.73,1.31.43,1.9.22,2.1-.77,4.17-1.69,6.38-2.09s4.59-.15,6.32,1.29l.35-.85c-4.44-.5-9.09-.97-13.35.73-.26.1-.42.33-.35.62.19.83,1.13.71,1.77.62,1.14-.17,2.25-.44,3.37-.69s2.28-.47,3.45-.47,2.19.26,3.26.6c.98.32,2.06.8,3.1.83.79.02,1.14-.74.73-1.39s-1.29-.75-2-.76c-1.2-.03-2.4.05-3.59.15-2.72.23-5.48.61-8.2.18v.96c1.17-.3,2.31-.65,3.45-1.05.48-.17.47-.79,0-.96-.97-.36-1.93-.73-2.88-1.13-.49-.2-1.06-.38-1.51-.66s-.59-.85-.76-1.35c-.69-2-1.09-4.08-1.21-6.19l-.98.13c1.23,3.62,2.46,7.29,2.5,11.15l.93-.25c-.75-1.75-1.51-3.51-2.26-5.26-.7-1.64-1.31-3.4-2.34-4.87-.32-.45-1.05-.19-.91.39.9,3.81,3.1,7.2,3.73,11.09l.91-.39c-2.28-3.29-3.64-7.13-3.89-11.13l-.98.13c1.43,4.19,1.58,8.71,3.42,12.77l.86-.5c-1.68-3.64-3.13-7.37-4.34-11.19l-.96.27c.91,2.72,1.46,5.53,1.64,8.39l.98-.13c-1.37-3.3-2.35-6.75-2.92-10.28l-.84.49c.63.73,1.47,2.28,2.62,1.6.54-.32,1.02-.76,1.56-1.09s1.12-.64,1.7-.91c2.3-1.11,4.76-1.9,6.95-3.24.48-.29.17-1.06-.39-.91-4.58,1.24-9.08,2.76-13.47,4.55-.58.24-.34,1.2.27.96,4.22-1.61,8.7-2.39,13.22-2.29v-1c-4.9.08-9.76.94-14.39,2.57l.39.91c3.56-2.47,7.83-3.4,12-4.29l-.27-.96c-4.02,1.05-8.03,2.09-12.05,3.14l.39.91c3.45-2.35,7.73-2.77,11.55-4.25.59-.23.37-1.12-.27-.96-4.09,1-8.1,2.3-12,3.88l.39.91c3.59-2.64,7.93-3.8,12.17-4.9.63-.16.36-1.1-.27-.96-4.18.93-8.21,2.41-12.01,4.39l.5.86c3.42-2.3,7.35-3.59,11.25-4.84.61-.2.35-1.16-.27-.96-4.04,1.25-8.08,2.51-12.12,3.76l.39.91c3.13-1.77,6.44-3.15,9.76-4.52l-.39-.91c-3.51,1.6-7.12,2.96-10.81,4.07l.39.91c3.05-2.29,6.79-3.33,10.01-5.35.55-.34.06-1.17-.5-.86-2.84,1.51-5.63,3.11-8.37,4.79l.61.79c2.66-2.68,5.66-4.97,8.67-7.24.51-.39.09-1.14-.5-.86-3.17,1.45-5.83,3.73-8.45,5.99l.71.71c3.52-3.76,7.55-6.99,11.99-9.59l-.5-.86c-3.36,2.48-6.56,5.15-9.6,8.02l.79.61c1.86-2.6,3.98-4.99,6.33-7.16l-.71-.71c-3.01,2.91-6.17,5.67-9.47,8.25l.79.61c1.04-1.81,1.82-3.78,3.06-5.47,1.41-1.94,3.42-2.84,5.61-3.64l-.49-.84c-2.89,2.35-5.64,4.87-8.23,7.55l.84.49c1.17-2.76,2.6-5.98,5.73-6.92.38-.11.53-.72.12-.91-1.77-.81-3.03,1.2-4.02,2.34-1.41,1.61-2.82,3.22-4.23,4.83l.84.49c.87-3.17,2.03-7.1,5.57-8.18.61-.19.35-1.15-.27-.96h0Z"/>
    <path class="cls-1" d="M52.8,61.39c.04-3.3.06-6.59.07-9.89,0-1.59.02-3.19.02-4.78s-.08-3.12-.54-4.61c-.19-.61-1.15-.35-.96.27.46,1.49.5,3.03.5,4.58s-.01,3.2-.02,4.8c-.01,3.21-.04,6.43-.07,9.64,0,.64.99.64,1,0h0Z"/>
    <g>
      <path class="cls-2" d="M3.02,10.17c7.95,8.42,13.72,14.37,17.67,18.42,3.39,3.47,6.3,6.41,8.38,11.34,2.37,5.61,2.29,10.55,2.25,13.21-.25,16.97-13.38,35.55-15.52,38.52"/>
      <path class="cls-2" d="M58.32,111.1c-1.11-9.45-2.53-17.09-3.68-22.55-1.53-7.23-2.63-10.76-.52-13.6,3.61-4.85,13.13-3.01,14.34-2.77,7.58,1.46,30.66,23.12,33,24.64"/>
      <path class="cls-2" d="M106.74,33.71c-8.02,2.29-14.53,4.46-19.11,6.07-11.83,4.15-16.14,6.42-21.29,4.34-3.36-1.36-6.96-4.54-7.69-8.65-.12-.69-.51-3.37,2.39-8.77,2.83-5.26,6.28-8.47,9.43-11.33,6.32-5.75,11.48-10.34,15.12-13.55"/>
      <path class="cls-2" d="M20.69,28.6c3.34,3.39,10.28,6.86,12.55,7.91,1.89.88,3.06,1.3,4.47,1.09,2.3-.35,4.36-2.17,5.08-4.12,1.25-3.39-1.49-7.23-3.47-9.91-3.64-4.91-9.4-12.24-17.8-21.38"/>
      <path class="cls-2" d="M37.24,20.83c.91,1.09,11.16,14.99,29.1-1.64"/>
      <path class="cls-2" d="M26.41,73.08c.65-1.26,5.55-8.18,7.95-8.6,4.13-.71,7.41,1.28,9.16,2.35,3.12,1.9,4.84,4.33,5.78,5.69,1.29,1.87,3.58,8.39,4.04,9.64"/>
      <path class="cls-2" d="M76.66,76.62c-1.16-1.42-6.6-8.17-7.77-11.21-.74-1.91-1.92-4.98-1.56-8.73.55-5.72,7.66-11.83,9.04-13.07"/>
    </g>
    <path class="cls-1" d="M41.59,26.49c3.39,4.95,6.75,10.01,8.86,15.66.22.59,1.18.35.96-.27-1.01-2.87-2.03-5.73-3.27-8.51-.57-1.28-1.14-2.65-1.95-3.8-.38-.54-.83-.96-1.36-1.34-.59-.42-1.37-.86-1.38-1.68l-.85.35c2.47,2.66,6.31,2.31,9.55,1.7,1.79-.34,3.71-.62,5.41-1.3,1.55-.62,2.73-1.88,4.28-2.51l-.49-.84c-5.16,6.65-8.36,14.65-9.21,23.02l.93-.25c-.18-.32,0-.97.05-1.31.06-.48.13-.96.22-1.44.16-.89.37-1.77.6-2.65.49-1.79,1.12-3.55,1.83-5.27s1.49-3.43,2.28-5.12c.59-1.26,1.81-3.04.9-4.42-.18-.28-.71-.37-.86,0-2.84,6.63-6.81,12.9-7.75,20.18-.07.56.85.67.98.13.79-3.28,1.75-6.51,2.88-9.69.55-1.55,1.14-3.09,1.77-4.61.34-.83.7-1.65,1.07-2.47.28-.63.72-1.31.45-2.01-.15-.39-.68-.52-.91-.12-1.76,3.01-3.17,6.19-4.28,9.5s-2.05,6.83-3.38,10.14l.96.27c.95-3.41,1.91-6.82,3.05-10.16.56-1.65,1.17-3.29,1.84-4.91s1.47-3.16,1.82-4.87c.11-.52-.65-.92-.91-.39-2.7,5.45-4.97,11.1-7.24,16.74l.98.13c.73-5.57,3.19-10.71,5.59-15.73.19-.41-.24-1-.68-.68-4.28,3.05-4.65,8.6-6.36,13.14l.96.27c.86-4.44,3.08-8.44,4.38-12.74.09-.29-.16-.66-.48-.63-.81.08-1.05.85-1.37,1.49-.41.81-.8,1.63-1.17,2.45-.75,1.65-1.45,3.33-2.09,5.02h.96c-.23-.89.13-1.8.43-2.64.28-.77.6-1.52.96-2.26.4-.8,1.63-2.75.71-3.55-1.21-1.05-1.86,1.62-2.09,2.25-.59,1.65-1.16,3.32-1.7,4.99h.96c-.29-1.32.19-2.68-.2-4-.34-1.15-1.14-2.08-1.91-2.96l-.49.84c1.45.29,2.92.43,4.4.42l-.25-.93c-.68.48-1.39.87-2.17,1.17-.35.14-.55.72-.12.91.28.13.53.28.74.51.09.1.16.21.23.32.05.08.09.16.12.25.02.14.05.14.08,0l.35-.15h-.1c.12.06.24.11.35.15l-.07-.06c-.49-.41-1.2.29-.71.71.63.53,1.29-.1,1.1-.82-.21-.8-.85-1.45-1.58-1.79l-.12.91c.85-.33,1.65-.75,2.4-1.27.39-.27.28-.94-.25-.93-1.39.01-2.77-.11-4.14-.39-.5-.1-.82.45-.49.84.74.85,1.56,1.77,1.75,2.92s-.16,2.4.11,3.6c.11.51.82.44.96,0,.42-1.28.85-2.56,1.29-3.83.23-.66.46-1.31.7-1.96.03-.08.39-.95.12-.92.03,0-.23.92-.24.96-.44,1.14-1.08,2.2-1.52,3.35s-.9,2.38-.59,3.61c.13.51.8.44.96,0,.54-1.43,1.12-2.85,1.74-4.25.29-.65.59-1.29.9-1.93.17-.35.34-.71.52-1.06.07-.14.39-.99.51-1l-.48-.63c-1.3,4.3-3.52,8.3-4.38,12.74-.12.64.74.87.96.27,1.59-4.22,1.91-9.71,5.9-12.54l-.68-.68c-2.49,5.19-4.97,10.47-5.73,16.23-.08.61.79.61.98.13,2.23-5.56,4.48-11.13,7.14-16.51l-.91-.39c-.34,1.67-1.12,3.2-1.77,4.76-.69,1.65-1.31,3.33-1.89,5.02-1.14,3.35-2.11,6.76-3.05,10.16-.18.64.73.85.96.27,1.31-3.23,2.21-6.6,3.31-9.91s2.5-6.48,4.26-9.49l-.91-.12c.15.4-.19.89-.35,1.24s-.32.72-.48,1.08c-.31.72-.62,1.45-.92,2.18-.61,1.49-1.18,2.99-1.71,4.51-1.06,3.04-1.97,6.12-2.73,9.25l.98.13c.91-7.08,4.85-13.23,7.61-19.68h-.86c.5.76-.13,1.76-.47,2.48-.39.83-.78,1.66-1.16,2.49-.77,1.67-1.5,3.35-2.16,5.07s-1.21,3.43-1.63,5.2c-.21.88-.37,1.77-.49,2.67-.1.72-.35,1.61.03,2.29.26.47.89.21.93-.25.82-8.08,3.93-15.89,8.91-22.31.26-.34.04-1.05-.49-.84-1.37.56-2.46,1.56-3.75,2.25-1.49.81-3.36,1.04-5.01,1.37-3.12.63-7.06,1.36-9.5-1.27-.3-.32-.86-.07-.85.35.02,1.49,1.32,2.01,2.28,2.87,1.08.96,1.66,2.54,2.25,3.82,1.34,2.9,2.41,5.91,3.47,8.92l.96-.27c-2.14-5.74-5.52-10.87-8.96-15.9-.36-.53-1.23-.03-.86.5h0Z"/>
    <path class="cls-1" d="M26.03,33.97c5.06,5.35,10.27,10.56,15.61,15.62.47.44,1.18-.26.71-.71-5.34-5.07-10.55-10.28-15.61-15.62-.44-.47-1.15.24-.71.71h0Z"/>
    <path class="cls-1" d="M28.32,35.59c2.96,4.76,8.84,5.67,13.52,7.93.58.28,1.05-.51.5-.86-2.07-1.32-4.4-2.1-6.52-3.32-1.08-.62-1.96-1.4-2.88-2.22-.44-.39-.91-.75-1.45-1-.47-.22-1.1-.34-1.4-.81l-.68.68c.95.64,1.72,1.51,2.62,2.22s1.88,1.15,2.98,1.37c2.26.44,4.59.04,6.83.55l.27-.96c-1.69-.25-3.37-.49-5.06-.74-.81-.12-1.62-.22-2.42-.36-.5-.08-1.26-.19-1.42-.77l-.73.56c2.3.98,4.63,2.04,7.17,1.38,2.32-.61,4.18-2.28,5.42-4.28.87-1.4,2.85-4.84.61-5.92-.88-.43-1.75.09-2,.99-.15.53-.14,1.12-.18,1.67-.05.8-.1,1.6-.22,2.4-.22,1.36-.66,2.77-1.64,3.79s-2.31,1.46-3.61,1l.3.73c.3-.43.93-.61,1.37-.88.37-.22.72-.48,1.06-.75.77-.63,1.44-1.37,2.02-2.17,1.28-1.76,2.07-3.82,2.72-5.88h-.96c.89,6.56,2.03,13.07,3.42,19.54.13.6.92.38.98-.13.32-2.59-.32-5.27-.79-7.81s-1.05-5.23-1.68-7.82l-.96.27c1.78,5.26,3.27,10.62,4.48,16.04.12.54,1.05.43.98-.13-.65-5.18-1.31-10.39-3.07-15.34-.21-.6-1.14-.36-.96.27,1.49,5.16,2.97,10.31,4.46,15.47l.91-.39c-1.32-2.67-2.4-5.44-3.48-8.22s-2.15-5.61-2.86-8.53c-.09-.39-.74-.52-.91-.12-2.43,5.43-2.38,11.48-1.66,17.28.08.63.94.65,1,0,.6-6.09.92-12.21.98-18.33,0-.55-.87-.7-.98-.13-.65,3.22-.23,6.6.4,9.79s1.65,6.29,2.99,9.26c.24.53,1.04.14.91-.39-1.09-4.65-2.18-9.3-3.27-13.95-.13-.54-1.02-.44-.98.13.45,7.19,2.94,14.1,3.12,21.32h1c-.72-6.78-1.85-13.51-3.4-20.15-.13-.56-.98-.42-.98.13-.04,6.95,2.32,13.57,3.14,20.42l.98-.13c-.72-3.7-1.45-7.4-2.17-11.1-.36-1.86-.72-3.72-1.1-5.57-.3-1.5-.43-3.29-1.5-4.47-.23-.26-.78-.15-.84.22-.93,5.93-.6,12,1.02,17.78.18.63,1.08.36.96-.27-.98-5.07-.56-11.24-5.16-14.69-.34-.25-.72.1-.75.43-.25,2.49-.27,4.99-.06,7.48.05.64,1.05.64,1,0-.21-2.49-.19-4.99.06-7.48l-.75.43c4.28,3.21,3.8,9.4,4.7,14.09l.96-.27c-1.57-5.6-1.93-11.5-1.02-17.25l-.84.22c.52.58.68,1.35.84,2.09.19.89.37,1.78.54,2.67.35,1.77.7,3.55,1.04,5.33.69,3.54,1.38,7.08,2.08,10.62.11.55,1.05.43.98-.13-.82-6.84-3.19-13.48-3.14-20.42l-.98.13c1.53,6.55,2.66,13.19,3.37,19.88.07.63,1.02.66,1,0-.19-7.22-2.67-14.13-3.12-21.32l-.98.13c1.09,4.65,2.18,9.3,3.27,13.95l.91-.39c-1.27-2.81-2.23-5.77-2.84-8.79s-1.08-6.38-.45-9.49l-.98-.13c-.05,6.12-.38,12.24-.98,18.33h1c-.69-5.59-.82-11.52,1.53-16.77l-.91-.12c.72,3,1.83,5.88,2.94,8.75s2.16,5.56,3.49,8.24c.25.51,1.07.15.91-.39-1.49-5.16-2.97-10.31-4.46-15.47l-.96.27c1.73,4.86,2.4,9.98,3.03,15.07l.98-.13c-1.2-5.42-2.7-10.78-4.48-16.04-.2-.61-1.12-.36-.96.27.61,2.51,1.16,5.04,1.64,7.58s1.12,5.2.8,7.78l.98-.13c-1.39-6.47-2.54-12.98-3.42-19.54-.07-.52-.83-.42-.96,0-.65,2.05-1.44,4.1-2.76,5.83-.59.78-1.3,1.49-2.1,2.06-.74.52-1.69.79-2.22,1.56-.19.28.02.64.3.73,1.8.62,3.75-.19,4.9-1.63,1.34-1.68,1.65-3.84,1.8-5.92.04-.54.04-1.09.11-1.62.03-.21.07-.63.29-.75.24-.13.54.07.68.27.58.81-.37,2.44-.74,3.19-.96,1.93-2.4,3.68-4.41,4.56-1.14.5-2.41.68-3.63.43-1.3-.27-2.56-.84-3.78-1.36-.38-.16-.86.11-.73.56.41,1.48,2.32,1.5,3.55,1.68,2.01.3,4.03.59,6.04.89.62.09.91-.82.27-.96-2.19-.5-4.44-.14-6.64-.52-1.14-.19-2.14-.64-3.03-1.38s-1.61-1.52-2.54-2.14c-.42-.28-.94.27-.68.68.61.98,1.91,1.11,2.76,1.81.99.82,1.87,1.7,2.98,2.38,2.2,1.34,4.69,2.14,6.86,3.53l.5-.86c-4.47-2.15-10.34-3.02-13.16-7.57-.34-.55-1.2-.04-.86.5h0Z"/>
    <path class="cls-1" d="M28.46,36.81c2.31,3.97,4.19,8.17,5.63,12.54.2.61,1.16.35.96-.27-1.38-4.27-2.86-8.5-4.53-12.67-.24-.6-1.07-.37-.96.27.71,4.48,3.21,8.54,3.42,13.11l.98-.13c-.97-4.03-1.97-8.09-3.91-11.78-.26-.49-1.13-.14-.91.39,1.27,3.08,2.68,6.14,3.64,9.34s1.27,6.49.98,9.8h1c-.21-2.34-.42-4.7-.98-6.98-.27-1.08-.62-2.13-1.06-3.16-.49-1.15-1.02-2.3-.94-3.59l-.98.13c1.32,5.51,1.93,11.32.41,16.86l.98.13c.2-2.01.69-3.96,1.44-5.83l-.96-.27c-.48,2.42-.96,4.84-1.44,7.25-.21,1.06-.37,2.14-.66,3.18-.24.84-.6,1.65-1.42,2.06l.73.56c.55-3.48,2.8-6.35,3.71-9.72.17-.62-.79-.88-.96-.27-.86,2.99-1.72,5.98-2.58,8.98-.17.59.59.81.91.39,4.03-5.28,8.06-10.55,12.08-15.83.31-.41-.28-.93-.68-.68-5.45,3.34-7.87,9.47-11.65,14.33l.79.61c1.82-3.55,4.15-6.8,6.48-10.03,2.49-3.44,4.98-6.87,7.46-10.31.33-.46-.4-1.02-.79-.61-4.46,4.78-7.95,10.33-11.4,15.86l.91.39c.49-2.49,2.23-4.4,4.04-6.07,2.02-1.86,4.11-3.65,6.16-5.47.38-.34-.02-.97-.49-.84-4.73,1.39-7.49,5.68-9.9,9.66l.86.5c1.28-2.6,2.74-5.11,4.4-7.49.84-1.2,1.72-2.37,2.65-3.5s1.86-2.17,3.08-2.94l-.61-.79c-3.96,3.85-7.97,7.78-10.7,12.64l.91.39c1.92-5.82,6.54-10.16,10.06-15.01l-.86-.5c-3.09,4.32-6.28,8.57-9.58,12.74l.84.49c.49-1.33,1.29-2.53,2.06-3.72s1.57-2.35,2.4-3.5c1.65-2.3,3.38-4.54,5.11-6.78.36-.47-.39-.97-.79-.61-4.04,3.68-7.47,7.99-10.17,12.75l.86.5c2.21-4.81,5.63-8.87,9.02-12.87.42-.5-.21-1.1-.71-.71-3.8,2.99-6.92,6.78-9.16,11.06l.86.5c2.09-4.41,5.2-8.19,8.47-11.77.36-.4-.13-1.14-.61-.79-3.28,2.46-6.05,5.49-8.19,8.98l.86.5c1.55-2.99,3.9-5.41,6.23-7.79.34-.35,0-.98-.49-.84-1.48.43-2.62,1.47-3.61,2.6-1.16,1.33-2.2,2.76-3.24,4.19l.91.12c-.08-.41.32-.88.47-1.25s.22-.77.06-1.15c-.18-.42-.56-.63-.95-.85-.59-.32-1.12-.69-1.44-1.3l-.79.61c1.53,1.94,2.82,4.05,3.86,6.29l.86-.5c-1.29-2.42-2.58-4.85-3.87-7.27l-.79.61c1.72,1.47,3.44,2.94,5.16,4.41.48.41,1.18-.26.71-.71l-5.44-5.07-.49.84c2.35.43,4.66,1.03,6.92,1.8l.27-.96c-1.78-.41-3.48-1.06-5.08-1.95l-.25.93c1.72.16,3.38.67,4.89,1.5.32.18.77-.04.75-.43-.03-.83-.17-1.63-.44-2.42-.12-.34-.56-.51-.84-.22-.86.92-1.79,1.77-2.8,2.54-.25.19-.35.54-.1.79.34.34.72.56,1.18.69.62.17.89-.79.27-.96-.3-.08-.52-.21-.74-.43l-.1.79c1.07-.82,2.08-1.71,3-2.7l-.84-.22c.24.7.38,1.41.41,2.15l.75-.43c-1.68-.92-3.49-1.46-5.4-1.64-.51-.05-.67.7-.25.93,1.67.93,3.45,1.62,5.31,2.05.63.14.87-.76.27-.96-2.26-.77-4.57-1.37-6.92-1.8-.46-.08-.88.47-.49.84,1.81,1.69,3.63,3.38,5.44,5.07l.71-.71c-1.72-1.47-3.44-2.94-5.16-4.41-.42-.36-1.06.09-.79.61,1.29,2.42,2.58,4.85,3.87,7.27.31.58,1.13.07.86-.5-1.08-2.32-2.43-4.48-4.02-6.49-.37-.46-1.04.13-.79.61s.58.84,1,1.15c.2.15.41.29.63.41.18.1.62.25.71.46.12.31-.28.81-.4,1.08-.18.4-.26.77-.17,1.21.09.46.68.43.91.12.95-1.3,1.9-2.6,2.95-3.82.91-1.06,1.93-2.1,3.31-2.51l-.49-.84c-2.39,2.44-4.8,4.93-6.39,7.99-.3.57.53,1.06.86.5,2.04-3.34,4.7-6.28,7.83-8.63l-.61-.79c-3.32,3.64-6.5,7.49-8.62,11.97-.27.57.56,1.08.86.5,2.2-4.22,5.26-7.91,9-10.86l-.71-.71c-3.45,4.06-6.94,8.19-9.18,13.08-.26.57.54,1.08.86.5,2.66-4.68,6.03-8.91,10.01-12.55l-.79-.61c-1.78,2.3-3.56,4.61-5.25,6.98-.82,1.15-1.62,2.32-2.39,3.51s-1.54,2.41-2.04,3.76c-.17.45.53.88.84.49,3.35-4.23,6.6-8.54,9.74-12.94.38-.53-.49-1.02-.86-.5-3.58,4.94-8.2,9.32-10.16,15.25-.18.54.64.88.91.39,2.68-4.79,6.63-8.64,10.54-12.43.4-.39-.12-1.09-.61-.79-2.42,1.52-4.2,4.12-5.83,6.42-1.76,2.49-3.32,5.12-4.66,7.86-.28.57.53,1.06.86.5,2.27-3.74,4.85-7.89,9.3-9.2l-.49-.84c-2.17,1.92-4.39,3.8-6.5,5.79-1.8,1.7-3.47,3.7-3.96,6.19-.11.55.6.88.91.39,3.41-5.45,6.84-10.93,11.24-15.65l-.79-.61c-2.49,3.44-4.98,6.87-7.46,10.31-2.34,3.23-4.66,6.47-6.48,10.03-.24.47.42,1.08.79.61,3.7-4.77,6.11-10.91,11.44-14.17l-.68-.68c-4.03,5.28-8.06,10.55-12.08,15.83l.91.39c.86-2.99,1.72-5.98,2.58-8.98l-.96-.27c-.91,3.37-3.16,6.24-3.71,9.72-.07.43.32.77.73.56,1.84-.92,2.04-3.33,2.4-5.11.53-2.66,1.05-5.32,1.58-7.98.13-.64-.73-.86-.96-.27-.79,1.96-1.27,4-1.48,6.09-.06.57.84.66.98.13,1.57-5.71.95-11.71-.41-17.39-.14-.57-.95-.41-.98.13-.08,1.18.3,2.27.76,3.35s.87,2.11,1.16,3.22c.63,2.34.85,4.76,1.06,7.16.06.64.94.64,1,0,.29-3.3-.03-6.65-.95-9.84s-2.41-6.41-3.71-9.56l-.91.39c1.9,3.61,2.86,7.6,3.81,11.54.13.54,1.01.43.98-.13-.22-4.68-2.73-8.8-3.45-13.38l-.96.27c1.67,4.16,3.15,8.4,4.53,12.67l.96-.27c-1.46-4.45-3.38-8.73-5.73-12.78-.32-.56-1.19-.05-.86.5h0Z"/>
    <path class="cls-1" d="M33.87,63.86c4.24.66,9.36-.27,12.9,2.69l.35-.85c-1.31-.17-2.67-.39-3.93-.82-.51-.17-1-.42-1.35-.84-.33-.39-.54-.79-1.01-1.04l-.39.91c3.22,1.24,5.36,4.16,7.31,6.86.37.51,1.19.07.86-.5-1.34-2.39-2.69-4.77-4.03-7.16l-.79.61c1.72,2.05,3.3,4.21,4.72,6.48.69,1.1,1.34,2.23,1.95,3.38.65,1.21,1.35,2.46,1.66,3.81.15.64,1.07.36.96-.27-.63-3.72-1.25-7.44-1.62-11.2-.18-1.86-.31-3.72-.34-5.58-.03-1.76.09-3.54-.37-5.25-.17-.62-1.13-.36-.96.27.48,1.77.3,3.65.35,5.47s.19,3.73.38,5.58c.38,3.68.99,7.33,1.61,10.98l.96-.27c-.31-1.33-.98-2.55-1.61-3.75s-1.36-2.48-2.11-3.68c-1.46-2.34-3.1-4.57-4.87-6.68-.37-.44-1.06.12-.79.61,1.34,2.39,2.69,4.77,4.03,7.16l.86-.5c-2.12-2.94-4.41-5.97-7.91-7.32-.53-.2-.88.65-.39.91s.72.85,1.13,1.2.93.59,1.46.77c1.34.46,2.79.67,4.19.85.42.05.67-.59.35-.85-3.77-3.16-8.84-2.25-13.34-2.95-.63-.1-.9.87-.27.96h0Z"/>
    <path class="cls-1" d="M51.81,72.31c-2.97-9.22-4.48-18.86-4.48-28.55,0-.64-1-.64-1,0,0,9.77,1.52,19.52,4.52,28.81.2.61,1.16.35.96-.27h0Z"/>
    <path class="cls-1" d="M49.96,69.79c-.19-4.4-.57-8.79-1.15-13.15-.28-2.11-.56-4.23-.99-6.32-.32-1.56-.65-3.52-2.14-4.41-.35-.21-.71.07-.75.43-.3,2.81.31,5.46,1.08,8.15s1.65,5.55,2.56,8.3c.21.63,1.05.36.96-.27-.45-3.17-1-6.32-1.67-9.45-.33-1.54-.69-3.08-1.08-4.62-.18-.72-.33-1.49-.58-2.19-.18-.47-.45-.83-.94-.98-.31-.1-.64.17-.63.48.04,3.99.63,7.96,1.75,11.79.18.62,1.14.35.96-.27-1.09-3.75-1.67-7.62-1.71-11.52l-.63.48c.43.13.56,1.41.65,1.76.17.67.34,1.34.5,2,.34,1.42.66,2.84.96,4.27.58,2.82,1.07,5.65,1.47,8.5l.96-.27c-.89-2.67-1.72-5.36-2.5-8.07s-1.41-5.31-1.11-8.12l-.75.43c.72.43,1.02,1.23,1.24,1.99.26.9.45,1.82.61,2.74.36,2.02.65,4.06.9,6.1.51,4.04.84,8.11,1.02,12.18.03.64,1.03.64,1,0h0Z"/>
    <path class="cls-1" d="M35.12,62.88c3.15.38,6.36.93,9.29,2.22,1.45.64,2.82,1.47,4,2.52,1.31,1.16,2.39,2.53,3.46,3.9.35.44,1.13-.15.79-.61-2.38-3.11-4.19-6.62-5.29-10.37-.58-1.98-.89-4-1.25-6.03s-1.15-4.19-1.21-6.34h-1c.66,6.72,2.12,13.34,3.42,19.95l.96-.27c-1.83-5.86-2.06-12.34-5.55-17.59-.25-.37-1-.28-.93.25.72,5.73,2.72,11.15,4.74,16.53.22.59,1.16.36.96-.27-1.56-5-3.11-10.02-3.84-15.22l-.96.27c1.24,4.94,2.47,9.92,2.55,15.04l.98-.13c-1.33-4.89-2.65-9.78-3.98-14.67-.14-.53-1.03-.44-.98.13.29,3.72,1.4,7.28,2.54,10.82l.91-.39c-2.06-3.5-2.92-7.5-3.75-11.43-.11-.54-1.04-.43-.98.13.44,4.59,2.33,8.82,3.48,13.24l.91-.39c-1.99-2.92-3.7-6.02-5.09-9.26l-.86.5c1.2,2.29,2.51,4.53,3.92,6.7.27.42.9.25.93-.25.09-1.68-.58-3.43-1.07-5.02-.42-1.36-.74-3-1.95-3.88-.29-.21-.8.07-.75.43.39,3.14,1.4,6.13,2.44,9.11.21.6,1.12.37.96-.27-.63-2.55-1.29-5.1-2.59-7.41-.24-.43-.95-.25-.93.25.1,3.05.89,6.01,2.32,8.71.31.58,1.13.07.86-.5-1.12-2.45-2.36-4.84-3.72-7.16-.29-.5-1.05-.16-.91.39.55,2.23,1.23,4.43,2.03,6.59l.91-.39c-1.1-1.69-2.21-3.37-3.58-4.85-.41-.45-1,.12-.79.61.8,1.79,1.78,3.49,2.93,5.08l.79-.61c-1.31-1.61-2.92-3.34-5.2-3.15-.44.04-.65.52-.35.85.76.85,1.66,1.57,2.66,2.13l.25-.93c-.61.02-1.17-.06-1.74-.31l-.12.91c.75-.31,1.5-.62,2.25-.93.5-.21,1.17-.37,1.49-.84.65-.95-.46-2.41-1.04-3.12-.34-.41-.94.04-.84.49.26,1.11.52,2.22.78,3.33l.91-.39c-.66-1.37-1.32-2.73-2.05-4.07-.6-1.1-1.21-2.38-2.37-2.99-.27-.14-.67-.03-.73.3-.21,1-.47,1.97-.79,2.94l.73-.3c-.12-.09-.23-.17-.35-.26-.52-.38-1.02.49-.5.86.12.09.23.17.35.26.28.2.64-.02.73-.3.32-.97.58-1.94.79-2.94l-.73.3c1.1.57,1.67,1.99,2.23,3.04.64,1.2,1.23,2.43,1.83,3.65.25.53,1.04.15.91-.39-.26-1.11-.52-2.22-.78-3.33l-.84.49c.29.35.53.72.72,1.13.05.1.25.51.22.65-.05.19-.35.26-.49.32-.9.38-1.8.75-2.7,1.12-.34.14-.56.72-.12.91.73.31,1.45.47,2.24.44.48-.02.7-.68.25-.93-.93-.52-1.74-1.18-2.45-1.97l-.35.85c2-.17,3.35,1.46,4.49,2.86.35.44,1.12-.14.79-.61-1.14-1.59-2.12-3.29-2.93-5.08l-.79.61c1.31,1.42,2.37,3.03,3.43,4.64.29.45,1.12.17.91-.39-.8-2.16-1.48-4.35-2.03-6.59l-.91.39c1.36,2.33,2.6,4.72,3.72,7.16l.86-.5c-1.35-2.54-2.09-5.33-2.19-8.2l-.93.25c1.25,2.23,1.88,4.71,2.49,7.17l.96-.27c-1.01-2.88-2.03-5.79-2.41-8.84l-.75.43c.52.38.74,1.02.94,1.61.24.71.47,1.42.68,2.13.41,1.37.97,2.86.9,4.3l.93-.25c-1.41-2.17-2.72-4.41-3.92-6.7-.31-.58-1.11-.07-.86.5,1.4,3.25,3.1,6.34,5.09,9.26.31.46,1.06.19.91-.39-1.13-4.33-3.02-8.49-3.45-12.97l-.98.13c.85,4.02,1.74,8.09,3.85,11.67.28.48,1.09.17.91-.39-1.11-3.44-2.22-6.92-2.5-10.55l-.98.13c1.33,4.89,2.65,9.78,3.98,14.67.15.54.99.44.98-.13-.08-5.21-1.33-10.28-2.59-15.3-.16-.64-1.05-.35-.96.27.74,5.2,2.29,10.22,3.84,15.22l.96-.27c-1.99-5.28-4-10.63-4.71-16.26l-.93.25c3.44,5.17,3.64,11.57,5.45,17.35.19.62,1.09.36.96-.27-1.28-6.53-2.73-13.06-3.38-19.69-.06-.63-1.02-.65-1,0,.06,2.13.8,4.17,1.18,6.25s.7,4.29,1.31,6.38c1.13,3.83,2.97,7.44,5.39,10.61l.79-.61c-1.14-1.45-2.3-2.92-3.71-4.11-1.25-1.05-2.65-1.89-4.14-2.54-3.05-1.32-6.33-1.89-9.61-2.28-.64-.08-.63.92,0,1h0Z"/>
    <path class="cls-1" d="M53.35,75.06c0-5,.21-10,.63-14.98.21-2.47.47-4.93.77-7.38s.51-4.8.14-7.22c-.21-1.35-.32-2.59-.07-3.95.23-1.28.57-2.54.61-3.85.02-.64-.98-.64-1,0-.08,2.31-1,4.45-.7,6.79.15,1.22.37,2.4.38,3.64s-.11,2.42-.25,3.63c-.57,4.96-1.07,9.92-1.31,14.91-.13,2.81-.2,5.62-.2,8.43,0,.64,1,.64,1,0h0Z"/>
    <path class="cls-1" d="M57.57,30.13c-1.35,6.58-2.06,13.41-.57,20.04.14.63,1.07.36.96-.27-.17-.98-.35-1.97-.52-2.95-.11-.63-1.08-.36-.96.27.17.98.35,1.97.52,2.95l.96-.27c-1.44-6.44-.74-13.1.57-19.51.13-.63-.83-.9-.96-.27h0Z"/>
    <path class="cls-1" d="M56.01,32.47c.44,6.94,1.73,13.81,3.87,20.43.2.61,1.1.36.96-.27-1.32-6.04-4.15-11.79-4.41-18.04l-.98.13c1.39,3.46,2.71,6.94,3.95,10.46.21.6,1.12.37.96-.27-.88-3.53-1.88-7.03-3.02-10.49l-.96.27c1.45,4.01,2.95,8.08,5.52,11.53.39.52,1.12.09.86-.5-1.11-2.59-2.3-5.15-3.57-7.66l-.79.61c1.12,1.21,2.23,2.42,3.35,3.63,1,1.08,1.95,2.35,3.17,3.2,2.34,1.62,5.54,1.14,8.17.78l-.49-.84c-4.71,4-8.69,8.83-11.74,14.21-.32.56.55,1.07.86.5,3.01-5.31,6.93-10.05,11.58-14,.43-.36-.05-.89-.49-.84-2.52.34-5.74.83-7.82-1.02-1.04-.93-1.94-2.04-2.88-3.07-1-1.09-2.01-2.18-3.01-3.27-.4-.43-1.03.12-.79.61,1.27,2.52,2.47,5.07,3.57,7.66l.86-.5c-2.53-3.38-4-7.35-5.42-11.29-.22-.6-1.17-.35-.96.27,1.14,3.46,2.15,6.96,3.02,10.49l.96-.27c-1.24-3.51-2.56-7-3.95-10.46-.19-.48-1.01-.48-.98.13.26,6.36,3.1,12.17,4.44,18.31l.96-.27c-2.11-6.54-3.41-13.31-3.84-20.17-.04-.64-1.04-.64-1,0h0Z"/>
    <path class="cls-1" d="M53,37.84c2.29,6.58,4.58,13.17,6.44,19.89.17.62,1.1.36.96-.27-.81-3.61-1.5-7.25-2.06-10.92-.28-1.85-.53-3.7-.75-5.55-.19-1.63-.13-3.5-.88-5-.18-.36-.85-.3-.91.12-1.06,6.66-.54,13.5,1.56,19.91.16.5,1.05.46.98-.13-.72-6.57-1.88-13.07-3.04-19.57l-.91.39c3.76,6.32,6.56,13.16,8.31,20.3.16.64,1.06.36.96-.27-.8-4.98-1.8-9.92-2.98-14.82l-.96.27c1.45,5.37,2.91,10.74,4.81,15.96.22.6,1.14.36.96-.27-1.32-4.71-2.31-9.52-2.93-14.37l-.93.25c1.23,2.56,2.67,5.01,4.13,7.45l.86-.5c-1.82-3.06-3.65-6.12-5.47-9.18l-.79.61c2.65,3.14,6.48,7.05,11.03,5.33.6-.23.37-1.08-.27-.96-.83.15-1.58,1.02-2.17,1.57-.69.63-1.35,1.29-1.98,1.98-1.27,1.38-2.42,2.86-3.42,4.45-2.01,3.18-3.34,6.74-3.75,10.48-.05.5.71.67.93.25,2.32-4.48,3.25-9.87,7.01-13.48l-.84-.49c-.76,2.88-1.75,5.7-2.97,8.43l.91.39c.31-1.81.79-3.59,1.44-5.31.6-1.6,1.29-3.36,2.55-4.56l-.84-.22c.21.53-.39,1.24-.63,1.68-.3.54-.6,1.09-.9,1.63-.62,1.12-1.24,2.25-1.86,3.37l.91.39c.42-1.68.84-3.37,1.26-5.05.36-1.45.64-2.99,1.57-4.21.15-.2.04-.58-.18-.68-1.86-.85-3.78-1.53-5.76-2.01-.44-.11-.9.51-.49.84,1.81,1.42,3.79,2.55,5.94,3.39l.27-.96c-1.03-.16-2.06-.2-3.09-.06-.72.1-1.59.21-2,.9s-.37,1.72-.34,2.49c.04,1,.24,1.99.58,2.94.16.43.85.52.96,0,.34-1.52.49-3.07.4-4.63-.07-1.15-.21-2.36-1.23-3.07-.36-.25-.86.17-.73.56.85,2.63,1.69,5.25,2.54,7.88.15.47.82.48.96,0,.62-2.06,1.18-4.13,1.68-6.23.14-.57-.59-.84-.91-.39-1.38,1.94-2.71,3.92-3.99,5.93-.36.56.49,1,.86.5,1.82-2.38,3.63-4.77,5.45-7.15.31-.41-.28-.93-.68-.68-2.3,1.43-4.33,3.23-6.34,5.04-.48.43.23,1.14.71.71,1.95-1.75,3.9-3.49,6.13-4.88l-.68-.68-5.45,7.15.86.5c1.28-2.01,2.61-3.98,3.99-5.93l-.91-.39c-.5,2.09-1.06,4.17-1.68,6.23h.96c-.85-2.63-1.69-5.25-2.54-7.88l-.73.56c.82.58.74,2.03.76,2.91.02,1.24-.12,2.46-.39,3.66h.96c-.48-1.32-.75-2.86-.46-4.26.16-.76.97-.78,1.62-.84.82-.08,1.65-.06,2.46.07.64.1.87-.73.27-.96-1.98-.76-3.83-1.82-5.5-3.13l-.49.84c1.9.47,3.75,1.1,5.53,1.91l-.18-.68c-.93,1.22-1.24,2.75-1.61,4.21-.44,1.76-.88,3.53-1.32,5.29-.13.54.63.89.91.39.74-1.34,1.48-2.68,2.22-4.03.35-.64.73-1.28,1.06-1.93.24-.48.42-.98.21-1.5-.14-.35-.54-.5-.84-.22-1.29,1.23-2,2.95-2.64,4.57-.73,1.85-1.26,3.77-1.6,5.74-.09.51.66.94.91.39,1.25-2.8,2.28-5.7,3.07-8.67.13-.49-.48-.83-.84-.49-3.84,3.69-4.79,9.11-7.16,13.68l.93.25c.38-3.5,1.66-6.83,3.51-9.81.93-1.49,1.99-2.89,3.17-4.19.58-.64,1.19-1.26,1.82-1.86.31-.3.63-.59.96-.87s.69-.7,1.14-.78l-.27-.96c-4.19,1.59-7.64-2.21-10.06-5.07-.37-.44-1.07.13-.79.61,1.82,3.06,3.65,6.12,5.47,9.18.33.55,1.19.05.86-.5-1.45-2.44-2.9-4.89-4.13-7.45-.21-.43-1-.24-.93.25.64,4.95,1.62,9.83,2.97,14.64l.96-.27c-1.9-5.23-3.36-10.6-4.81-15.96-.17-.62-1.11-.36-.96.27,1.18,4.9,2.17,9.84,2.98,14.82l.96-.27c-1.77-7.22-4.61-14.15-8.41-20.54-.3-.51-1.01-.16-.91.39,1.15,6.41,2.29,12.83,3.01,19.3l.98-.13c-2.04-6.23-2.59-12.9-1.56-19.37l-.91.12c.4.79.44,1.69.53,2.55s.19,1.78.3,2.67c.22,1.78.46,3.56.73,5.33.55,3.58,1.23,7.14,2.02,10.67l.96-.27c-1.85-6.72-4.14-13.31-6.44-19.89-.21-.6-1.18-.34-.96.27h0Z"/>
    <path class="cls-1" d="M53.64,75.2c.61-1.09,1.23-2.17,1.84-3.26.29-.51.49-.91,1.12-.98.59-.06,1.22.03,1.81.08l-.25-.93c-1.44,1.09-3.52.95-4.55,2.62-.28.46.26.89.68.68,1.43-.69,2.91-1.27,4.43-1.75,1.4-.44,2.94-.96,4.42-.85s3.09.76,4.56,1.2c1.58.47,3.15.94,4.73,1.41.58.17.82-.6.39-.91-3.22-2.36-5.9-5.39-7.87-8.86-.32-.56-1.18-.06-.86.5,2.06,3.63,4.87,6.76,8.23,9.22l.39-.91c-1.66-.49-3.31-.99-4.97-1.48-1.55-.46-3.18-1.13-4.82-1.18-1.54-.04-3.12.47-4.57.93-1.56.5-3.08,1.11-4.55,1.82l.68.68c.86-1.4,2.95-1.32,4.19-2.26.4-.3.27-.89-.25-.93-1.16-.1-2.61-.34-3.4.73-.4.54-.69,1.17-1.02,1.75l-1.23,2.17c-.32.56.55,1.07.86.5h0Z"/>
    <path class="cls-1" d="M71.69,71.99c-1.9-2.8-3.41-5.85-4.31-9.12l-.96.27c1.35,3.32,3.08,6.45,5.18,9.35l.79-.61c-2.07-2.17-4.17-4.4-5.5-7.12-.71-1.46-1.11-3.04-1.44-4.62s-.88-3.37-.22-4.89l-.91-.12c.71,3.91,1.41,7.82,2.12,11.74.1.55,1.02.43.98-.13-.27-3.7-1.59-7.4-.93-11.12h-.96c.37,2.21.54,4.44.53,6.68l.63-.48c-.18,0-.33-.07-.45-.22-.45-.46-1.16.24-.71.71.26.26.53.42.89.48.32.05.63-.13.63-.48.01-2.33-.18-4.65-.57-6.95-.08-.48-.88-.48-.96,0-.68,3.84.62,7.58.9,11.39l.98-.13c-.71-3.91-1.41-7.82-2.12-11.74-.07-.4-.74-.51-.91-.12-.69,1.58-.36,3.23-.04,4.87.34,1.73.73,3.46,1.44,5.08,1.33,3.05,3.66,5.51,5.92,7.89.38.4,1.12-.14.79-.61-2.05-2.82-3.76-5.88-5.08-9.11-.24-.58-1.14-.37-.96.27.92,3.35,2.46,6.49,4.41,9.36.36.53,1.23.03.86-.5h0Z"/>
    <path class="cls-1" d="M53.43,42.55c1.85,5.06,3.69,10.13,5.32,15.27.19.62,1.1.36.96-.27-.71-3.29-1.43-6.59-2.18-9.88-.71-3.1-1.26-6.36-2.54-9.29-.19-.44-1-.23-.93.25.22,1.65.89,3.16,1.53,4.68.7,1.66,1.42,3.31,2.14,4.96,1.44,3.3,2.86,6.6,4.09,9.98.22.6,1.13.37.96-.27-1.17-4.37-2.33-8.74-3.5-13.11l-.96.27c1.85,4.94,2.88,10.11,3.9,15.27l.91-.39c-2.42-4.67-4.85-9.33-7.15-14.06-.22-.44-.96-.23-.93.25.21,4.01.27,8.03.18,12.04l.98-.13c-.88-2.2-1.63-4.45-2.25-6.73-.17-.62-1.13-.36-.96.27.62,2.29,1.37,4.53,2.25,6.73.2.5.97.47.98-.13.09-4.02.03-8.03-.18-12.04l-.93.25c2.31,4.73,4.73,9.39,7.15,14.06.27.53,1.02.15.91-.39-1.02-5.16-2.06-10.33-3.9-15.27-.22-.59-1.13-.37-.96.27,1.17,4.37,2.33,8.74,3.5,13.11l.96-.27c-1.18-3.24-2.53-6.4-3.9-9.56-.69-1.58-1.38-3.15-2.05-4.73s-1.53-3.3-1.77-5.06l-.93.25c.63,1.44.99,2.97,1.36,4.49.39,1.6.77,3.2,1.13,4.8.73,3.21,1.43,6.42,2.12,9.64l.96-.27c-1.63-5.14-3.47-10.2-5.32-15.27-.22-.6-1.19-.34-.96.27h0Z"/>
    <path class="cls-1" d="M51.58,43.42c-3.91,1.19-5.29,5.33-6.26,8.88-.13.46.5.87.84.49,1.14-1.3,2.28-2.6,3.42-3.9.54-.62,1.08-1.24,1.63-1.86.44-.5,1.19-1.62,1.99-1.25l.12-.91c-3.51,1.06-5.11,4.5-6.42,7.62-.2.48.51.82.84.49,2.59-2.68,5.34-5.2,8.23-7.55.38-.31-.03-1-.49-.84-2.26.82-4.38,1.75-5.9,3.69-1.4,1.79-2.23,3.93-3.36,5.88-.3.53.36.94.79.61,3.3-2.58,6.46-5.34,9.47-8.25.46-.45-.24-1.14-.71-.71-2.41,2.22-4.58,4.69-6.49,7.36-.34.48.39.98.79.61,2.97-2.81,6.11-5.43,9.39-7.86.51-.37.06-1.2-.5-.86-4.51,2.65-8.62,5.93-12.19,9.75-.44.47.22,1.12.71.71,2.56-2.21,5.15-4.41,8.25-5.83l-.5-.86c-3.07,2.32-6.16,4.65-8.87,7.39-.39.4.11,1.09.61.79,2.74-1.69,5.53-3.29,8.37-4.79l-.5-.86c-3.21,2.02-6.95,3.06-10.01,5.35-.42.32-.2,1.09.39.91,3.77-1.14,7.46-2.54,11.04-4.18.51-.23.14-1.13-.39-.91-3.39,1.4-6.79,2.82-9.99,4.63-.49.28-.16,1.08.39.91,4.04-1.25,8.08-2.51,12.12-3.76l-.27-.96c-3.97,1.28-8,2.59-11.49,4.94-.53.36-.07,1.16.5.86,3.72-1.94,7.68-3.37,11.77-4.29l-.27-.96c-4.32,1.12-8.76,2.31-12.41,5-.41.3-.19,1.15.39.91,3.9-1.58,7.91-2.88,12-3.88l-.27-.96c-3.91,1.51-8.26,1.95-11.79,4.35-.46.31-.19,1.06.39.91,4.02-1.05,8.03-2.09,12.05-3.14.63-.16.36-1.1-.27-.96-4.25.9-8.61,1.87-12.24,4.39-.43.3-.19,1.11.39.91,4.54-1.6,9.3-2.45,14.12-2.53.64-.01.64-.99,0-1-4.6-.1-9.18.69-13.48,2.32l.27.96c4.39-1.79,8.89-3.31,13.47-4.55l-.39-.91c-1.9,1.17-3.99,1.92-6.02,2.82-.99.44-1.97.92-2.88,1.5-.23.15-.45.3-.67.46-.2.14-.45.43-.69.43-.27,0-.46-.37-.64-.57-.24-.28-.47-.55-.71-.83-.36-.42-.91.05-.84.49.57,3.53,1.55,6.97,2.92,10.28.2.47,1.02.48.98-.13-.18-2.95-.74-5.85-1.67-8.65-.2-.61-1.16-.35-.96.27,1.24,3.9,2.73,7.71,4.45,11.42.27.59,1.13.08.86-.5-1.8-3.97-1.92-8.44-3.32-12.53-.17-.5-1.02-.46-.98.13.26,4.17,1.64,8.2,4.03,11.63.33.48,1,.18.91-.39-.63-3.89-2.82-7.28-3.73-11.09l-.91.39c1.03,1.47,1.64,3.23,2.34,4.87.75,1.75,1.51,3.51,2.26,5.26.2.47.94.21.93-.25-.04-3.95-1.28-7.72-2.54-11.42-.17-.51-1.01-.46-.98.13.13,2.43.61,4.85,1.48,7.12.16.42.33.81.69,1.09.43.33.98.51,1.48.71,1.14.48,2.28.93,3.44,1.36v-.96c-1.13.4-2.28.75-3.45,1.05-.45.12-.5.88,0,.96,2.42.39,4.84.19,7.27-.03,1.27-.12,2.55-.24,3.83-.26.54,0,1.17-.07,1.7.08.11.02.22.07.31.13.09.21.19.2.29-.03-.14-.1-.59-.11-.78-.15-1.12-.27-2.19-.72-3.31-1s-2.23-.35-3.36-.24-2.26.35-3.38.6c-.6.13-1.2.27-1.8.38-.3.06-.6.11-.9.15-.15.03-.3.04-.45.05-.14-.04-.17-.03-.09.03l-.35.62c4.17-1.67,8.73-1.19,13.08-.69.42.05.67-.59.35-.85-3.16-2.62-7.43-1.79-10.96-.49-1.05.38-2.08.88-3.15,1.18-.05.01-.27.05-.29.06-.14.12.27-.03.16.01.22-.09.45-.33.65-.47.46-.31.93-.59,1.42-.85s.98-.47,1.49-.68c.35-.14.72-.28.95-.6.53-.76-.4-1.79-.78-2.42-1.36-2.32-2.72-4.64-4.07-6.95-.3-.51-1.01-.15-.91.39.82,4.41,2.22,8.67,3.97,12.79.23.53,1.05.15.91-.39-1.04-4-2.08-7.99-3.11-11.99l-.96.27c1.48,3.58,2.96,7.16,4.44,10.73.19.47,1.03.48.98-.13-.38-4.68-1.54-9.23-3.44-13.52-.25-.56-.99-.12-.91.39.67,4.53,1.74,9.1,4.26,13,.32.5.99.16.91-.39-.64-4.38-1.62-8.69-2.93-12.92l-.96.27c1.39,4.02,2.94,7.97,4.49,11.92.23.59,1.19.34.96-.27-1.34-3.53-2.27-7.18-2.8-10.92l-.96.27c1.22,3.85,2.66,7.63,4.31,11.31.23.52,1.09.15.91-.39-1.17-3.59-2.34-7.18-3.51-10.77l-.91.39c1.5,3.43,2.99,6.86,4.49,10.29.24.56,1,.13.91-.39-.66-3.97-1.35-7.95-2.74-11.73-.22-.59-1.16-.36-.96.27,1.31,4.22,3.35,8.14,5.4,12.04l.86-.5c-2.14-3.66-3.48-7.75-3.88-11.97l-.93.25c.89,1.66,1.6,3.41,2.09,5.23.23.86.43,1.73.57,2.6.08.47.14.94.19,1.41.02.21.07.44.04.65-.01.12-.09.33-.05.33l.48.37c-.47-1.63-.86-3.29-1.18-4.96-.11-.56-1-.42-.98.13.05,1.96.36,3.9.91,5.78.18.62,1.15.35.96-.27-.53-1.8-.82-3.64-.87-5.52l-.98.13c.32,1.67.71,3.33,1.18,4.96.06.2.26.38.48.37.81-.05,1.08-.82,1.05-1.54-.05-1.18-.28-2.39-.54-3.53-.52-2.32-1.37-4.56-2.49-6.65-.22-.42-.98-.25-.93.25.42,4.4,1.78,8.66,4.02,12.47.33.56,1.16.06.86-.5-2.01-3.82-4.02-7.66-5.3-11.8l-.96.27c1.39,3.79,2.08,7.77,2.74,11.73l.91-.39c-1.5-3.43-2.99-6.86-4.49-10.29-.23-.52-1.09-.15-.91.39,1.17,3.59,2.34,7.18,3.51,10.77l.91-.39c-1.61-3.61-3.02-7.31-4.21-11.07-.2-.63-1.05-.36-.96.27.53,3.73,1.47,7.39,2.8,10.92l.96-.27c-1.56-3.95-3.11-7.91-4.49-11.92-.21-.6-1.16-.35-.96.27,1.31,4.23,2.28,8.54,2.93,12.92l.91-.39c-2.47-3.83-3.49-8.31-4.16-12.76l-.91.39c1.83,4.11,2.94,8.52,3.3,13.01l.98-.13c-1.48-3.58-2.96-7.16-4.44-10.73-.24-.58-1.13-.38-.96.27,1.04,4,2.08,7.99,3.11,11.99l.91-.39c-1.72-4.04-3.06-8.23-3.87-12.55l-.91.39c1.19,2.04,2.39,4.07,3.58,6.11.29.49.58.98.86,1.48.1.17.41.52.35.71-.07.21-.51.28-.71.37-.96.4-1.88.88-2.74,1.46-.57.38-1.67,1-1.22,1.85.38.73,1.31.43,1.9.22,2.1-.77,4.17-1.69,6.38-2.09s4.59-.15,6.32,1.29l.35-.85c-4.44-.5-9.09-.97-13.35.73-.26.1-.42.33-.35.62.19.83,1.13.71,1.77.62,1.14-.17,2.25-.44,3.37-.69s2.28-.47,3.45-.47,2.19.26,3.26.6c.98.32,2.06.8,3.1.83.79.02,1.14-.74.73-1.39s-1.29-.75-2-.76c-1.2-.03-2.4.05-3.59.15-2.72.23-5.48.61-8.2.18v.96c1.17-.3,2.31-.65,3.45-1.05.48-.17.47-.79,0-.96-.97-.36-1.93-.73-2.88-1.13-.49-.2-1.06-.38-1.51-.66s-.59-.85-.76-1.35c-.69-2-1.09-4.08-1.21-6.19l-.98.13c1.23,3.62,2.46,7.29,2.5,11.15l.93-.25c-.75-1.75-1.51-3.51-2.26-5.26-.7-1.64-1.31-3.4-2.34-4.87-.32-.45-1.05-.19-.91.39.9,3.81,3.1,7.2,3.73,11.09l.91-.39c-2.28-3.29-3.64-7.13-3.89-11.13l-.98.13c1.43,4.19,1.58,8.71,3.42,12.77l.86-.5c-1.68-3.64-3.13-7.37-4.34-11.19l-.96.27c.91,2.72,1.46,5.53,1.64,8.39l.98-.13c-1.37-3.3-2.35-6.75-2.92-10.28l-.84.49c.63.73,1.47,2.28,2.62,1.6.54-.32,1.02-.76,1.56-1.09s1.12-.64,1.7-.91c2.3-1.11,4.76-1.9,6.95-3.24.48-.29.17-1.06-.39-.91-4.58,1.24-9.08,2.76-13.47,4.55-.58.24-.34,1.2.27.96,4.22-1.61,8.7-2.39,13.22-2.29v-1c-4.9.08-9.76.94-14.39,2.57l.39.91c3.56-2.47,7.83-3.4,12-4.29l-.27-.96c-4.02,1.05-8.03,2.09-12.05,3.14l.39.91c3.45-2.35,7.73-2.77,11.55-4.25.59-.23.37-1.12-.27-.96-4.09,1-8.1,2.3-12,3.88l.39.91c3.59-2.64,7.93-3.8,12.17-4.9.63-.16.36-1.1-.27-.96-4.18.93-8.21,2.41-12.01,4.39l.5.86c3.42-2.3,7.35-3.59,11.25-4.84.61-.2.35-1.16-.27-.96-4.04,1.25-8.08,2.51-12.12,3.76l.39.91c3.13-1.77,6.44-3.15,9.76-4.52l-.39-.91c-3.51,1.6-7.12,2.96-10.81,4.07l.39.91c3.05-2.29,6.79-3.33,10.01-5.35.55-.34.06-1.17-.5-.86-2.84,1.51-5.63,3.11-8.37,4.79l.61.79c2.66-2.68,5.66-4.97,8.67-7.24.51-.39.09-1.14-.5-.86-3.17,1.45-5.83,3.73-8.45,5.99l.71.71c3.52-3.76,7.55-6.99,11.99-9.59l-.5-.86c-3.36,2.48-6.56,5.15-9.6,8.02l.79.61c1.86-2.6,3.98-4.99,6.33-7.16l-.71-.71c-3.01,2.91-6.17,5.67-9.47,8.25l.79.61c1.04-1.81,1.82-3.78,3.06-5.47,1.41-1.94,3.42-2.84,5.61-3.64l-.49-.84c-2.89,2.35-5.64,4.87-8.23,7.55l.84.49c1.17-2.76,2.6-5.98,5.73-6.92.38-.11.53-.72.12-.91-1.77-.81-3.03,1.2-4.02,2.34-1.41,1.61-2.82,3.22-4.23,4.83l.84.49c.87-3.17,2.03-7.1,5.57-8.18.61-.19.35-1.15-.27-.96h0Z"/>
    <path class="cls-1" d="M52.8,61.39c.04-3.3.06-6.59.07-9.89,0-1.59.02-3.19.02-4.78s-.08-3.12-.54-4.61c-.19-.61-1.15-.35-.96.27.46,1.49.5,3.03.5,4.58s-.01,3.2-.02,4.8c-.01,3.21-.04,6.43-.07,9.64,0,.64.99.64,1,0h0Z"/>
    <g>
      <path class="cls-2" d="M3.02,10.17c7.95,8.42,13.72,14.37,17.67,18.42,3.39,3.47,6.3,6.41,8.38,11.34,2.37,5.61,2.29,10.55,2.25,13.21-.25,16.97-13.38,35.55-15.52,38.52"/>
      <path class="cls-2" d="M58.32,111.1c-1.11-9.45-2.53-17.09-3.68-22.55-1.53-7.23-2.63-10.76-.52-13.6,3.61-4.85,13.13-3.01,14.34-2.77,7.58,1.46,30.66,23.12,33,24.64"/>
      <path class="cls-2" d="M106.74,33.71c-8.02,2.29-14.53,4.46-19.11,6.07-11.83,4.15-16.14,6.42-21.29,4.34-3.36-1.36-6.96-4.54-7.69-8.65-.12-.69-.51-3.37,2.39-8.77,2.83-5.26,6.28-8.47,9.43-11.33,6.32-5.75,11.48-10.34,15.12-13.55"/>
      <path class="cls-2" d="M20.69,28.6c3.34,3.39,10.28,6.86,12.55,7.91,1.89.88,3.06,1.3,4.47,1.09,2.3-.35,4.36-2.17,5.08-4.12,1.25-3.39-1.49-7.23-3.47-9.91-3.64-4.91-9.4-12.24-17.8-21.38"/>
      <path class="cls-2" d="M37.24,20.83c.91,1.09,11.16,14.99,29.1-1.64"/>
      <path class="cls-2" d="M26.41,73.08c.65-1.26,5.55-8.18,7.95-8.6,4.13-.71,7.41,1.28,9.16,2.35,3.12,1.9,4.84,4.33,5.78,5.69,1.29,1.87,3.58,8.39,4.04,9.64"/>
      <path class="cls-2" d="M76.66,76.62c-1.16-1.42-6.6-8.17-7.77-11.21-.74-1.91-1.92-4.98-1.56-8.73.55-5.72,7.66-11.83,9.04-13.07"/>
    </g>
  </g>
  <path class="cls-1" d="M30.59,40.72c1.36,2.1,2.59,4.27,3.7,6.51l.86-.5c-2.43-3.34-4.54-6.89-6.32-10.61l-.86.5c1.45,2.42,2.89,4.84,4.34,7.26.33.55,1.18.06.86-.5-1.41-2.47-2.82-4.94-4.23-7.42-.32-.56-1.17-.06-.86.5,1.07,1.93,2.14,3.87,3.2,5.8.32.57,1.13.07.86-.5-1.59-3.42-3.74-6.54-6.36-9.25l-.61.79c2.38,1.81,4.86,3.49,7.43,5.02l.5-.86c-1.74-1.02-3.42-2.12-5.04-3.31-.49-.36-.94.38-.61.79,2.5,3.05,5.01,6.14,6.56,9.81l.79-.61c-1.39-1.44-2.55-3.06-3.49-4.83l-.86.5c1.24,2.29,2.13,4.73,2.66,7.28l.91-.39c-1.43-2.52-2.7-5.12-3.79-7.81-.24-.58-1.2-.34-.96.27.95,2.5,1.9,5,2.85,7.5l.91-.39c-1.02-2.2-1.85-4.48-2.5-6.82-.17-.62-1.13-.36-.96.27.94,3.64,1.89,7.28,2.83,10.92l.96-.27c-.32-.95-.57-1.92-.75-2.91l-.96.27c.74,3.78,1.09,7.63,1.05,11.48l.98-.13c-.73-3.22-.99-6.52-.79-9.81h-1c.28,3.03.48,6.07.59,9.11l.98-.13c-.55-2.96-.7-5.97-.48-8.98h-1c.06,2.26.11,4.52.17,6.79h1c-.11-2.21-.21-4.41-.32-6.62-.03-.64-.99-.65-1,0-.03,2.74-.05,5.48-.08,8.22h1c-.24-2.56-.35-5.13-.35-7.7h-1c.07,2.79.23,5.58.48,8.37.06.63,1.01.65,1,0l-.09-3.97c-.01-.65-.94-.63-1,0-.2,2.25-.51,4.48-.93,6.7l.98.13c.06-1.71.31-3.39.74-5.05l-.96-.27c-.42,2.35-.9,4.69-1.43,7.02l.98.13.13-1.61h-1c-.09,2.56-.9,5.01-2.35,7.13l.86.5c1.93-3.99,4.86-7.34,7.76-10.64l-.71-.71c-1.53,1.83-3.06,3.65-4.59,5.48-.37.44.08,1.04.61.79l2.03-.99-.73-.56c-.1.46-.25.87-.49,1.28s.15.83.56.73c.46-.11.83-.33,1.15-.68.36-.41-.1-1.11-.61-.79-.35.23-.71.46-1.06.69l.68.68c.73-.96,1.32-2,1.77-3.12.37-.92.99-2.28.42-3.24-.52-.87-1.57-.83-2.16-.08-.72.92-1.17,2.18-1.54,3.27l.96.27c.54-1.76,1.15-3.49,1.82-5.2l-.96-.27-1.09,4.36c-.16.63.75.87.96.27.46-1.33.99-2.63,1.58-3.9l-.93-.25c-.02,1.99-.35,3.94-.98,5.83-.09.28.11.52.35.62,1.26.51,2.63.42,3.84-.19.46-.23.22-.93-.25-.93h-3.3c-.55,0-.7.88-.13.99.88.17,1.77.21,2.66.09.63-.09,1.73-.21,2.06-.87.37-.74-.51-1.45-.96-1.92-.64-.67-1.34-1.27-2.08-1.82-.46-.35-.99.39-.61.79,1,1.04,2,2.07,3,3.11l.61-.79c-.73-.36-1.49-.67-2.27-.91-.64-.19-1.43-.39-1.98.13-.4.37-.53,1.06,0,1.36.57.33,1.36.28,1.95.07,1.33-.47,2.18-1.84,2.66-3.1.52-1.39.55-2.92-.16-4.24-.12-.23-.47-.33-.68-.18-1.56,1.08-2.29,3.03-1.76,4.86.07.24.36.44.62.35.87-.32,1.2-1.12,1.43-1.95.31-1.13.44-2.3.42-3.47-.01-.6-.78-.63-.98-.13-.43,1.06-.61,2.17-.51,3.31.04.53.85.72.98.13l.86-3.92-.98-.13c.1.9.04,1.76-.21,2.63h.96c-.39-2.49-1.01-4.95-1.86-7.32-.4-1.12-.85-2.22-1.35-3.3-.11-.24-.34-.56-.37-.81-.04-.44.43-.34.77-.35.71-.02,1.41-.04,2.12-.06.53-.02.63-.64.25-.93-1.57-1.19-2.94-2.62-4.05-4.25l-.68.68c1.25.67,2.41,1.49,3.46,2.45l.35-.85c-1.7-.16-3.32-.83-4.65-1.9l-.49.84c1.35.32,2.7.63,4.05.95.82.19,1.92.39,2.39-.51.13-.26.05-.51-.18-.68-1.03-.79-2.22-1.27-3.41-1.74l-.13.98c2-.09,4-.17,5.99-.26.56-.02.69-.82.13-.98-1.54-.45-3.12-.52-4.69-.22-.57.11-.42.98.13.98,1.59.02,3.18-.16,4.73-.53.57-.13.41-.95-.13-.98-1.2-.06-2.27.4-3.4.74-.94.28-2.12.45-2.9-.28l-.35.85c2.26.29,4.41,1.06,6.35,2.24.55.34,1.05-.53.5-.86-2.1-1.28-4.41-2.07-6.85-2.38-.44-.06-.65.58-.35.85,2.1,1.96,4.68-.28,7.01-.16l-.13-.98c-1.47.35-2.95.51-4.46.49l.13.98c1.4-.27,2.8-.18,4.16.22l.13-.98c-2,.09-4,.17-5.99.26-.59.03-.65.78-.13.98,1.12.44,2.22.9,3.17,1.64l-.18-.68c-.28.55-1.99-.12-2.42-.22-.97-.23-1.93-.45-2.9-.68-.45-.1-.9.5-.49.84,1.55,1.26,3.36,2,5.35,2.2.43.04.66-.57.35-.85-1.11-1.02-2.33-1.9-3.66-2.61-.41-.22-.98.25-.68.68,1.22,1.78,2.69,3.31,4.41,4.61l.25-.93c-.83.02-1.66.04-2.49.07-.53.02-1.09.05-1.34.59-.22.47-.04,1,.16,1.44.33.73.67,1.45.97,2.19,1.14,2.84,1.95,5.8,2.43,8.82.08.51.84.44.96,0,.27-.95.35-1.91.24-2.9-.06-.52-.85-.73-.98-.13l-.86,3.92.98.13c-.09-1.06.07-2.06.48-3.05l-.98-.13c.02.85-.04,1.69-.22,2.53-.12.56-.26,1.7-.9,1.93l.62.35c-.4-1.38.1-2.91,1.3-3.73l-.68-.18c.66,1.23.46,2.69-.14,3.91-.52,1.06-1.66,2.59-3.03,1.95l.25.43c-.06-.61,2.81.62,3.09.75.5.25,1.01-.36.61-.79-1-1.04-2-2.07-3-3.11l-.61.79c.49.37.96.77,1.41,1.2.22.21,1.1.89,1.07,1.2-.02.28-1.29.39-1.56.41-.61.05-1.22,0-1.83-.11l-.13.98h3.3c-.08-.32-.17-.63-.25-.94-.99.49-2.06.49-3.07.09l.35.62c.66-1.97,1-4.02,1.02-6.1,0-.47-.72-.72-.93-.25-.63,1.35-1.19,2.73-1.68,4.14l.96.27,1.09-4.36c.16-.64-.73-.85-.96-.27-.67,1.71-1.28,3.44-1.82,5.2-.19.62.76.87.96.27.27-.79.6-1.56.99-2.29.12-.23.42-.98.8-.77s.1.95.02,1.24c-.43,1.53-1.17,2.95-2.13,4.21-.31.41.28.94.68.68.35-.23.71-.46,1.06-.69l-.61-.79c-.2.23-.4.35-.7.42l.56.73c.28-.48.47-.97.59-1.52.09-.44-.34-.76-.73-.56l-2.03.99.61.79c1.53-1.83,3.06-3.65,4.59-5.48.41-.49-.28-1.19-.71-.71-2.96,3.36-5.95,6.78-7.92,10.85-.28.58.5,1.04.86.5,1.54-2.26,2.39-4.9,2.48-7.63.02-.65-.95-.63-1,0l-.13,1.61c-.05.56.86.68.98.13.53-2.33,1.01-4.67,1.43-7.02.11-.62-.8-.9-.96-.27-.45,1.74-.71,3.52-.78,5.32-.02.55.88.69.98.13.43-2.31.75-4.63.96-6.97h-1l.09,3.97h1c-.25-2.78-.41-5.57-.48-8.37-.02-.64-1-.65-1,0,0,2.57.11,5.14.35,7.7.06.63.99.66,1,0,.03-2.74.05-5.48.08-8.22h-1c.11,2.21.21,4.41.32,6.62.03.64,1.02.65,1,0-.06-2.26-.11-4.52-.17-6.79-.02-.65-.95-.64-1,0-.23,3.09-.05,6.19.52,9.24.1.56,1,.43.98-.13-.12-3.04-.31-6.08-.59-9.11-.06-.64-.96-.65-1,0-.21,3.38.07,6.77.82,10.08.13.56.98.42.98-.13.04-3.94-.33-7.88-1.09-11.75-.12-.63-1.08-.36-.96.27.19.99.44,1.96.75,2.91.2.61,1.13.36.96-.27-.94-3.64-1.89-7.28-2.83-10.92l-.96.27c.67,2.42,1.54,4.78,2.6,7.06.24.51,1.12.15.91-.39-.95-2.5-1.9-5-2.85-7.5l-.96.27c1.12,2.77,2.42,5.45,3.89,8.05.29.51,1.03.16.91-.39-.54-2.63-1.48-5.16-2.76-7.52-.31-.57-1.16-.06-.86.5.98,1.84,2.2,3.53,3.65,5.04.43.44.99-.12.79-.61-1.58-3.74-4.16-6.9-6.71-10.01l-.61.79c1.63,1.19,3.31,2.29,5.04,3.31.56.33,1.06-.53.5-.86-2.57-1.54-5.05-3.21-7.43-5.02-.46-.35-.99.39-.61.79,2.56,2.65,4.65,5.7,6.2,9.05l.86-.5c-1.07-1.93-2.14-3.87-3.2-5.8l-.86.5,4.23,7.42.86-.5c-1.45-2.42-2.89-4.84-4.34-7.26-.33-.56-1.14-.07-.86.5,1.78,3.73,3.89,7.28,6.32,10.61.38.52,1.15.08.86-.5-1.11-2.24-2.34-4.41-3.7-6.51-.35-.54-1.21-.04-.86.5h0Z"/>
  <path class="cls-1" d="M43.19,28.88c1.13,1.98,2.26,3.97,3.39,5.95.32.56,1.14.07.86-.5-1.5-3.05-3.16-6.02-4.98-8.89-.34-.54-1.21-.04-.86.5l1.96,3.1.86-.5c-.99-1.28-1.98-2.57-2.97-3.85-.38-.49-1.23-.04-.86.5,2.03,3,3.82,6.15,5.37,9.42l.86-.5c-1.32-2.25-2.5-4.58-3.52-6.98l-.86.5c.99,1.87,1.82,3.82,2.49,5.83l.91-.39-2.02-4.14c-.25-.5-1.11-.15-.91.39.37.99.74,1.97,1.11,2.96.22.6,1.19.34.96-.27l-1.23-3.33-.91.39,1.41,2.54c.27.48.87.2.93-.25.21-1.61-.11-3.21-.9-4.62l-.79.61c1.69,1.31,3.44,2.63,5.58,3.06.55.11.87-.6.39-.91l-5.58-3.63-.39.91c2.5.63,4.76,1.86,7.01,3.09.48.26,1.06-.41.61-.79-1.28-1.04-2.75-1.75-4.38-2.05-.62-.12-.89.79-.27.96,2.28.64,4.62.76,6.96.38.59-.09.39-.94-.13-.98-1.15-.1-2.29.06-3.37.46-.52.19-.45.96.13.98,2.86.11,5.64-.89,7.8-2.76l-.79-.61c-.57.82-1.22,1.56-1.94,2.25-.4.38.14,1.12.61.79,2.27-1.63,4.54-3.27,6.81-4.9l-.61-.79c-2.22,1.91-4.06,4.22-5.45,6.81l.86.5c.86-1.7,1.89-3.31,3.08-4.79l-.79-.61c-2.09,2.72-3.47,5.94-3.98,9.34-.09.62.77.9.96.27.72-2.26,1.62-4.45,2.71-6.56l-.91-.39c-.73,2.36-1.3,4.76-1.7,7.2-.1.62.82.9.96.27.49-2.11.98-4.21,1.47-6.32l-.98-.13c-.22,2.17-.62,4.31-1.19,6.41l.98.13c.15-2.59.75-5.11,1.75-7.5l-.96-.27c-.57,2.74-1.28,5.44-2.11,8.11l.96.27c.56-2.87,1.29-5.71,2.18-8.5.2-.63-.73-.85-.96-.27-1.51,3.78-2.12,7.87-1.78,11.93h1l-.63-5.41-.98.13c.61,2.13,1.41,4.19,2.4,6.16.25.5,1.13.15.91-.39l-1.54-3.84-.91.39,1.35,3.07.86-.5c-2.23-3.64-2.59-8.19-1.01-12.15.19-.46-.52-.85-.84-.49l-2.33,2.7.71.71c1.02-1.19,2.22-2.17,3.59-2.94l-.68-.68c-.87,1.41-1.55,2.92-2.04,4.5-.16.51.48.79.84.49.98-.83,1.81-1.79,2.48-2.88.34-.55-.51-1.04-.86-.5-.25.39-.5.77-.75,1.16-.34.52.37.93.79.61.58-.45.87-1.12.86-1.84,0-.42-.55-.68-.85-.35-1.91,2.05-3.51,4.35-4.74,6.87-.28.57.57,1.08.86.5.83-1.65,1.65-3.47,1.07-5.33-.05-.16-.18-.32-.35-.35-1.57-.28-2.52,1.18-3.27,2.33-.92,1.43-1.66,2.95-2.26,4.54-.2.53.69.9.91.39.94-2.14,2.13-4.16,3.55-6.02l-.91-.39c-.57,2.36-1.27,4.69-2.11,6.97l.96.27c.78-2.51,1.56-5.02,2.34-7.53.16-.53-.67-.91-.91-.39-1.22,2.63-2.24,5.34-3.07,8.12-.18.62.78.88.96.27.79-2.56,1.47-5.16,2.06-7.78.12-.55-.61-.88-.91-.39-1.3,2.15-1.95,4.62-1.87,7.14.02.59.78.65.98.13.95-2.46,1.29-5.11.98-7.73-.06-.48-.65-.7-.93-.25-1.3,2.02-2.04,4.33-2.2,6.73-.03.48.72.7.93.25,1.01-2.1,1.74-4.3,2.16-6.59.1-.55-.6-.88-.91-.39-1.34,2.1-2.17,4.43-2.5,6.89-.08.6.8.62.98.13.57-1.5.62-3.12.17-4.67-.12-.41-.7-.5-.91-.12-1.05,1.85-1.13,4.02-.27,5.96.19.43.78.24.91-.12.85-2.27,1.27-4.67,1.23-7.09,0-.6-.78-.64-.98-.13-.72,1.81-1,3.76-.82,5.7.05.5.64.67.93.25,1.2-1.69,1.22-4.03.06-5.75-.24-.36-.78-.3-.91.12-.59,1.82-.72,3.71-.43,5.59.08.53.82.42.96,0,.73-2.2.14-4.66-1.48-6.31-.22-.23-.63-.18-.79.1-.88,1.59-.78,3.59.33,5.05.3.4.88.26.93-.25.16-1.64-.41-3.24-1.52-4.45-.26-.28-.74-.13-.84.22-.3,1.16-.13,2.34.51,3.36.35.56,1.11.07.86-.5-.49-1.15-1.18-2.18-2.05-3.08-.34-.35-.99,0-.84.49.57,1.78,1.53,3.39,2.84,4.74.36.37.95-.01.84-.49-.41-1.72-1.44-3.18-2.89-4.17-.37-.25-.85.16-.73.56.65,2.29,1.55,4.49,2.69,6.57.26.49,1.12.15.91-.39-.42-1.08-2.36-4.62-3.9-3.01-.65.68-.59,1.94-.69,2.8-.14,1.27-.26,2.54-.35,3.81h1c-.22-1.83-.44-3.65-.65-5.48-.05-.43-.7-.76-.93-.25-.88,1.95-1.36,4.01-1.41,6.15-.01.59.79.64.98.13.66-1.77.97-3.64.93-5.53,0-.4-.41-.6-.75-.43-1.62.79-2.81,2.2-3.38,3.9-.13.4.38.82.73.56,1.31-.93,2.27-2.16,2.86-3.65.13-.34-.28-.75-.62-.62-1.7.66-2.85,2.16-3.01,3.98-.05.54.67.61.93.25.52-.73,1.15-1.38,1.88-1.91l-.73-.3c.13.95.06,1.9-.19,2.83l.98.13c.14-1.2-.06-2.36-.54-3.47-.19-.44-.78-.23-.91.12-.56,1.5-.79,3.08-.7,4.68.03.46.69.73.93.25.57-1.15.89-2.36.95-3.63.03-.56-.86-.68-.98-.13-.41,1.81-.83,3.62-1.24,5.43l.98.13-.18-3.21c-.03-.53-.87-.71-.98-.13-.47,2.34-.75,4.72-.85,7.1l.93-.25c-1.42-1.98-2.96-3.88-4.61-5.67-.24-.26-.77-.15-.84.22-.15.84-.02,1.62.44,2.34l.79-.61c-.41-.52-.83-1.03-1.24-1.55-.31-.38-1.02.03-.84.49.88,2.21,1.89,4.36,3.04,6.44l.86-.5c-.82-1.45-1.92-2.67-3.25-3.66-.42-.31-.92.28-.68.68,1.24,2.1,2.48,4.2,3.72,6.3.19.32,1.75,2.47,1.06,2.73-.27.1-.76-.14-1.04-.19-.39-.08-.76-.1-1.13.03-.25.09-.44.34-.35.62.72,2.27,1.8,4.4,3.22,6.31l.3-.73c-.75.25-1.5.49-2.25.74-.37.12-.47.55-.22.84,1.17,1.34,2.45,2.56,3.84,3.68l.49-.84-2.52-.47c-.45-.08-.9.48-.49.84.9.79,1.91,1.38,3.03,1.81.54.21.86-.63.39-.91-.87-.52-1.75-1.03-2.62-1.55l-.39.91,2.37.89c.55.21.84-.62.39-.91-1.01-.66-1.93-1.42-2.79-2.27l-.61.79c1.51.65,3.01,1.3,4.52,1.95.48.21,1.05-.36.61-.79-1.58-1.5-3.04-3.1-4.38-4.81l-.61.79c2.04,1.53,4,3.17,5.86,4.91l.71-.71c-2.05-1.87-4.16-3.68-6.32-5.43-.5-.4-1.14.21-.71.71,1.81,2.08,3.79,4.01,5.92,5.77.49.4,1.2-.28.71-.71-1.29-1.12-2.67-2.13-4.13-3.02-.49-.3-1.01.38-.61.79,1.12,1.12,2.31,2.17,3.56,3.15l.61-.79c-1.18-.78-2.36-1.55-3.54-2.33-.47-.31-1.04.41-.61.79l3.08,2.7.61-.79-1.47-.82c-.47-.26-1.07.42-.61.79l2.32,1.83.61-.79-1.58-.96c-.56-.34-1.01.49-.5.86l2.55,1.88c.45.33,1.05-.43.61-.79l-2.29-1.8-.61.79c1.48,1.01,2.99,1.97,4.53,2.88.49.28,1.02-.39.61-.79l-1.21-1.17-.71.71c1.53,1.34,2.83,2.88,3.9,4.61l.79-.61-3.88-3.67c-.47-.44-1.14.23-.71.71l3.46,3.81.71-.71c-.91-.94-1.68-1.98-2.33-3.11l-.79.61,2.83,3.52c.28.34.86.05.85-.35l-.02-.83-.98.13,1.24,3,.73-.56c-.24-.13-.41-.28-.55-.52-.29-.47-1.08-.17-.91.39l.7,2.38.91-.39-.97-1.76c-.27-.48-1.14-.15-.91.39l1,2.41.96-.27-.33-.79-.91.39c.21.31.3.58.28.95h1c-.08-4.66-.01-9.33.21-13.98.03-.64-.97-.64-1,0-.22,4.66-.29,9.32-.21,13.98.01.64.98.64,1,0,.02-.53-.12-1.02-.42-1.46s-1.15-.17-.91.39l.33.79c.24.59,1.21.33.96-.27l-1-2.41-.91.39.97,1.76c.27.49,1.07.16.91-.39l-.7-2.38-.91.39c.23.37.52.66.91.87.34.19.91-.14.73-.56l-1.24-3c-.2-.48-1-.48-.98.13l.02.83.85-.35c-.94-1.17-1.89-2.34-2.83-3.52-.36-.45-1.06.13-.79.61.69,1.21,1.53,2.31,2.49,3.32.45.47,1.14-.23.71-.71l-3.46-3.81-.71.71,3.88,3.67c.4.38,1.09-.11.79-.61-1.11-1.8-2.47-3.42-4.05-4.81-.48-.42-1.18.26-.71.71l1.21,1.17.61-.79c-1.54-.91-3.05-1.87-4.53-2.88-.46-.32-1.05.43-.61.79l2.29,1.8.61-.79-2.55-1.88-.5.86,1.58.96c.47.29,1.06-.43.61-.79l-2.32-1.83-.61.79,1.47.82c.48.27,1.05-.4.61-.79-1.03-.9-2.06-1.8-3.08-2.7l-.61.79c1.18.78,2.36,1.55,3.54,2.33.47.31,1.06-.43.61-.79-1.25-.98-2.44-2.03-3.56-3.15l-.61.79c1.39.84,2.7,1.79,3.93,2.86l.71-.71c-2.13-1.76-4.11-3.69-5.92-5.77l-.71.71c2.16,1.74,4.27,3.55,6.32,5.43.47.43,1.18-.27.71-.71-1.92-1.8-3.95-3.49-6.06-5.06-.5-.37-.92.38-.61.79,1.34,1.71,2.8,3.31,4.38,4.81l.61-.79-4.52-1.95c-.49-.21-1.04.35-.61.79.92.91,1.92,1.71,2.99,2.42l.39-.91-2.37-.89c-.54-.2-.86.63-.39.91.87.52,1.75,1.03,2.62,1.55l.39-.91c-.95-.36-1.82-.89-2.59-1.56l-.49.84,2.52.47c.43.08.92-.49.49-.84-1.39-1.11-2.67-2.34-3.84-3.68l-.22.84c.75-.25,1.5-.49,2.25-.74.28-.09.5-.46.3-.73-1.37-1.84-2.42-3.88-3.12-6.07l-.35.62c.83-.3,1.69.53,2.53,0,.95-.59.51-1.79.06-2.55-1.52-2.61-3.07-5.2-4.6-7.8l-.68.68c1.19.89,2.16,2.01,2.89,3.31.32.56,1.18.06.86-.5-1.11-2-2.09-4.07-2.94-6.2l-.84.49c.41.52.83,1.03,1.24,1.55.36.44,1.09-.13.79-.61s-.44-1-.34-1.57l-.84.22c1.6,1.73,3.08,3.55,4.46,5.47.28.4.91.27.93-.25.1-2.3.37-4.58.82-6.84l-.98-.13.18,3.21c.03.54.85.71.98.13.41-1.81.83-3.62,1.24-5.43l-.98-.13c-.05,1.1-.32,2.15-.81,3.13l.93.25c-.09-1.52.13-2.99.66-4.41l-.91.12c.41.95.52,1.95.41,2.97-.07.57.84.67.98.13.29-1.11.34-2.22.19-3.36-.04-.3-.5-.47-.73-.3-.87.64-1.61,1.39-2.24,2.27l.93.25c.12-1.34,1.02-2.54,2.27-3.02l-.62-.62c-.48,1.23-1.32,2.29-2.4,3.05l.73.56c.49-1.47,1.53-2.63,2.92-3.31l-.75-.43c.04,1.81-.26,3.57-.89,5.26l.98.13c.04-1.95.46-3.86,1.27-5.64l-.93-.25c.22,1.83.44,3.65.65,5.48.08.63.95.65,1,0,.12-1.67.28-3.34.49-5,.03-.23.05-.73.24-.89.31-.26.73.27.93.48.57.6,1.01,1.31,1.31,2.08l.91-.39c-1.1-2.01-1.96-4.13-2.59-6.34l-.73.56c1.24.85,2.09,2.12,2.44,3.58l.84-.49c-1.19-1.22-2.06-2.67-2.58-4.29l-.84.49c.81.84,1.43,1.8,1.89,2.88l.86-.5c-.5-.79-.64-1.68-.41-2.59l-.84.22c.94,1.03,1.36,2.36,1.23,3.75l.93-.25c-.89-1.18-1.05-2.73-.33-4.04l-.79.1c1.38,1.41,1.84,3.47,1.22,5.34h.96c-.26-1.71-.1-3.42.43-5.06l-.91.12c.98,1.45.95,3.32-.06,4.74l.93.25c-.17-1.87.09-3.69.78-5.43l-.98-.13c.03,2.34-.37,4.63-1.2,6.83l.91-.12c-.71-1.6-.59-3.44.27-4.95l-.91-.12c.4,1.38.33,2.79-.17,4.13l.98.13c.3-2.28,1.12-4.45,2.36-6.39l-.91-.39c-.41,2.2-1.09,4.33-2.06,6.35l.93.25c.14-2.23.86-4.35,2.06-6.22l-.93-.25c.3,2.54-.02,5.07-.94,7.46l.98.13c-.07-2.35.52-4.62,1.74-6.63l-.91-.39c-.59,2.62-1.28,5.21-2.06,7.78l.96.27c.8-2.7,1.78-5.33,2.97-7.88l-.91-.39c-.78,2.51-1.56,5.02-2.34,7.53-.19.62.75.86.96.27.83-2.28,1.54-4.61,2.11-6.97.14-.58-.58-.82-.91-.39-1.42,1.86-2.61,3.88-3.55,6.02l.91.39c.46-1.23,1.02-2.42,1.69-3.55.48-.8,1.43-2.82,2.6-2.62l-.35-.35c.5,1.59-.26,3.16-.97,4.56l.86.5c1.19-2.44,2.73-4.68,4.58-6.67l-.85-.35c0,.49-.18.84-.57,1.14l.79.61c.25-.39.5-.77.75-1.16l-.86-.5c-.63,1.02-1.41,1.9-2.33,2.68l.84.49c.46-1.5,1.11-2.92,1.94-4.26.27-.44-.26-.92-.68-.68-1.44.8-2.72,1.84-3.8,3.09-.42.49.29,1.2.71.71l2.33-2.7-.84-.49c-1.67,4.19-1.24,9.07,1.11,12.92.34.56,1.12.07.86-.5-.45-1.02-.9-2.05-1.35-3.07-.22-.51-1.12-.14-.91.39l1.54,3.84.91-.39c-.95-1.9-1.72-3.88-2.3-5.92-.15-.52-1.05-.45-.98.13l.63,5.41c.07.63,1.05.65,1,0-.34-3.98.26-7.96,1.74-11.66l-.96-.27c-.89,2.79-1.62,5.63-2.18,8.5-.12.63.77.89.96.27.83-2.67,1.53-5.38,2.11-8.11.14-.65-.72-.85-.96-.27-1.04,2.47-1.63,5.09-1.79,7.77-.03.57.84.67.98.13.59-2.19.99-4.42,1.22-6.68.06-.56-.86-.68-.98-.13-.49,2.11-.98,4.21-1.47,6.32l.96.27c.4-2.44.97-4.84,1.7-7.2.17-.54-.65-.89-.91-.39-1.13,2.18-2.07,4.46-2.81,6.8l.96.27c.5-3.32,1.82-6.44,3.87-9.1.34-.45-.43-1.05-.79-.61-1.25,1.55-2.34,3.21-3.24,4.99-.29.57.56,1.08.86.5,1.35-2.52,3.13-4.74,5.29-6.6.42-.37-.14-1.12-.61-.79-2.27,1.63-4.54,3.27-6.81,4.9l.61.79c.78-.75,1.48-1.57,2.1-2.45.34-.49-.38-.96-.79-.61-1.96,1.7-4.5,2.56-7.09,2.46l.13.98c1.01-.38,2.03-.52,3.11-.43l-.13-.98c-2.15.34-4.33.2-6.42-.38l-.27.96c1.45.27,2.79.87,3.94,1.8l.61-.79c-2.32-1.28-4.66-2.55-7.25-3.19-.56-.14-.86.61-.39.91l5.58,3.63.39-.91c-1.97-.39-3.58-1.59-5.14-2.8-.42-.33-1.08.07-.79.61.71,1.27.96,2.67.77,4.12l.93-.25-1.41-2.54c-.27-.48-1.11-.16-.91.39l1.23,3.33.96-.27c-.37-.99-.74-1.97-1.11-2.96l-.91.39c.67,1.38,1.34,2.76,2.02,4.14.25.51,1.09.15.91-.39-.7-2.09-1.56-4.12-2.59-6.07-.31-.58-1.11-.07-.86.5,1.02,2.4,2.19,4.73,3.52,6.98.33.56,1.13.07.86-.5-1.54-3.28-3.34-6.42-5.37-9.42l-.86.5,2.97,3.85c.38.49,1.22.06.86-.5l-1.96-3.1-.86.5c1.83,2.87,3.49,5.83,4.98,8.89l.86-.5c-1.13-1.98-2.26-3.97-3.39-5.95-.32-.56-1.18-.06-.86.5h0Z"/>
  <path class="cls-1" d="M54.31,60.5c-.64,2.78-1.09,5.59-1.34,8.43-.04.48.74.71.93.25.33-.77.53-1.53.62-2.36.06-.59-.81-.64-.98-.13-.63,1.85-.99,3.76-1.1,5.71-.03.48.73.71.93.25.45-.99.9-1.98,1.35-2.97l-.91-.39c-.56,2.07-1.12,4.14-1.69,6.21-.17.62.77.88.96.27l1.15-3.65c.2-.63-.73-.85-.96-.27-.53,1.31-.91,2.67-1.14,4.06-.08.52.62.92.91.39.6-1.08,1.19-2.17,1.79-3.25l-.91-.39c-.19.52-.38,1.04-.57,1.56-.17.47.51.85.84.49.86-.96,1.87-1.72,3.03-2.28l-.61-.79c-.55.5-1.17.8-1.9.95l.49.84c1.36-1.1,2.84-2.03,4.41-2.81l-.61-.79-.83.65c-.38.3.03,1.02.49.84,1.34-.56,2.72-.99,4.14-1.31l-.39-.91c-.71.38-1.47.63-2.27.73l.13.98c1.18-.22,2.36-.37,3.56-.44l-.13-.98c-1.22.21-2.43.5-3.61.86-.47.14-.48.82,0,.96,1.19.36,2.43.36,3.62,0,.57-.17.41-.93-.13-.98-1.19-.12-2.36-.07-3.54.14-.5.09-.45.84,0,.96,1.12.3,2.24.35,3.39.2.55-.08.43-1.05-.13-.98-1.34.16-2.68.32-4.03.48l.13.98c2.71-.72,5.46-1.25,8.25-1.57l-.13-.98c-1.12.2-2.24.41-3.35.61-.54.1-.4.8,0,.96.68.28,1.37.42,2.11.48.56.04.68-.87.13-.98-1.04-.22-2.05-.24-3.1-.1-.6.08-.38.93.13.98,3.35.35,8.1-.45,10.25,2.88l.68-.68c-1.26-.96-2.53-1.88-3.83-2.78-.53-.37-1.03.5-.5.86,1.3.89,2.58,1.82,3.83,2.78.4.31.94-.28.68-.68-2.42-3.74-7.32-2.98-11.11-3.37l.13.98c.86-.12,1.72-.08,2.57.1l.13-.98c-.64-.05-1.24-.2-1.84-.44v.96c1.12-.2,2.24-.41,3.35-.61.55-.1.43-1.05-.13-.98-2.87.33-5.72.86-8.51,1.61-.53.14-.44,1.05.13.98,1.34-.16,2.68-.32,4.03-.48l-.13-.98c-.96.13-1.92.05-2.86-.2v.96c1.09-.19,2.18-.22,3.28-.1l-.13-.98c-1.03.31-2.06.32-3.09,0v.96c1.19-.36,2.39-.65,3.61-.86.55-.1.43-1.01-.13-.98-1.28.08-2.56.23-3.82.47-.55.1-.43,1.05.13.98.99-.12,1.89-.4,2.77-.87.52-.28.15-1.03-.39-.91-1.42.32-2.8.75-4.14,1.31l.49.84.83-.65c.47-.37-.13-1.02-.61-.79-1.65.82-3.18,1.82-4.61,2.97-.42.34.05.92.49.84.89-.18,1.67-.59,2.34-1.2.44-.4-.12-1.02-.61-.79-1.23.59-2.32,1.42-3.24,2.43l.84.49c.19-.52.38-1.04.57-1.56s-.64-.88-.91-.39c-.6,1.08-1.19,2.17-1.79,3.25l.91.39c.23-1.4.61-2.75,1.14-4.06l-.96-.27-1.15,3.65.96.27c.56-2.07,1.12-4.14,1.69-6.21.14-.53-.67-.92-.91-.39-.45.99-.9,1.98-1.35,2.97l.93.25c.1-1.86.46-3.68,1.06-5.44l-.98-.13c-.07.64-.23,1.26-.49,1.86l.93.25c.24-2.75.68-5.48,1.3-8.17.14-.63-.82-.89-.96-.27h0Z"/>
  <path class="cls-1" d="M46,44.28c-1.81,2.02-3.51,4.12-5.1,6.32l.91.39,1.25-4.63c.26-.95,1-2.46-.01-3.19-.16-.12-.48-.08-.61.08-1.55,1.96-2.85,4.07-3.87,6.35-.26.58.52,1.07.86.5,1.26-2.06,2.47-4.16,3.61-6.3.3-.57-.55-1.07-.86-.5-1.32,2.33-2.62,4.68-3.4,7.25-.18.58.6.81.91.39,1.75-2.37,3.18-4.94,4.3-7.67.23-.55-.62-.83-.91-.39-1.85,2.75-3.25,5.77-4.15,8.95-.16.55.62.86.91.39,2.15-3.48,4.16-7.15,6.91-10.21.31-.34.62-.76.99-1.04s.27-.04.23.21c-.03.23-.13.45-.2.67-.33,1.05-.65,2.1-.98,3.15-.66,2.14-1.33,4.28-1.99,6.42-.16.53.69.91.91.39,1.76-4.11,3.51-8.22,5.27-12.33l-.91-.39c-.93,2.32-1.85,4.64-2.5,7.06-.31,1.17-.55,2.36-.7,3.56-.13,1.07-.16,2.13.35,3.11.14.27.58.34.79.1,1.51-1.76,2.05-4.29,2.62-6.49.64-2.48,1.1-5,1.39-7.55.07-.6-.8-.62-.98-.13-1.58,4.32-2.18,8.95-1.75,13.53.05.57.78.67.98.13,1.56-4.19,1.34-8.72,1.08-13.1-.03-.55-.82-.69-.98-.13-1.16,4.05-1.16,8.35-.02,12.4.14.5.8.45.96,0,1.14-3.18.82-6.76-.85-9.69-.17-.3-.55-.31-.79-.1-1.91,1.63-2.47,4.35-2.98,6.69-.62,2.84-.94,5.74-.98,8.64h1c-.03-3.12-.43-6.22-1.18-9.24-.14-.58-.93-.4-.98.13-.29,3.09-.06,6.2.66,9.21.13.54,1.02.44.98-.13-.19-3.21-.75-6.38-1.68-9.46-.14-.47-.82-.48-.96,0-.6,2,.01,4.28.38,6.27.41,2.22.91,4.42,1.51,6.6.18.64,1.05.35.96-.27-.51-3.54-1.28-7.04-2.32-10.46-.19-.62-1.08-.36-.96.27.77,4.26,1.95,8.42,3.51,12.46.19.48,1.05.48.98-.13-.31-2.84-.83-5.65-1.59-8.41-.17-.62-1.13-.36-.96.27,1.3,4.82,2.81,9.58,4.54,14.27.22.59,1.15.36.96-.27-.62-2.13-1.23-4.27-1.85-6.4-.18-.63-1.08-.36-.96.27.5,2.69,1,5.37,1.5,8.06l.96-.27c-.95-2.64-1.89-5.29-2.84-7.93-.22-.6-1.1-.37-.96.27.52,2.45,1.27,4.83,2.24,7.13.24.57,1.16.37.96-.27-.75-2.36-1.66-4.67-2.71-6.92-.24-.51-1.1-.15-.91.39.89,2.58,1.9,5.11,3.03,7.59.24.52,1.07.15.91-.39-.79-2.67-1.77-5.28-2.93-7.81-.24-.52-1.06-.15-.91.39.84,3.08,2.16,6.01,3.92,8.68.24.37.77.29.91-.12.37-1.05.37-2.17.39-3.27.02-1.28.04-2.57.06-3.85l-.98.13c.53,1.55,1.07,3.11,1.6,4.66.41,1.18.69,2.54,1.74,3.32.33.24.73-.09.75-.43.11-2.15.33-4.28.66-6.41l-.91.12c1.15,1.9.28,4.56,2.09,6.14.31.27.69.13.84-.22.54-1.3,1.05-2.62,1.53-3.94.19-.53-.66-.89-.91-.39-.41.82-.73,1.68-.95,2.57-.14.55.62.87.91.39.93-1.52,1.62-3.16,2.05-4.88.13-.52-.46-.78-.84-.49-1.48,1.16-2.49,2.79-2.88,4.63-.1.47.47.86.84.49,1.21-1.26,2.27-2.65,3.15-4.17.28-.47-.41-1.06-.79-.61-1.04,1.26-2.07,2.51-3.11,3.77l.84.49c.52-1.56,1.38-2.96,2.53-4.14l-.79-.61c-1.15,1.8-2.18,3.67-3.09,5.61-.24.51.34.99.79.61,1.42-1.24,2.85-2.47,4.27-3.71l-.71-.71c-1.13,1.43-2.41,2.73-3.82,3.88l.79.61c.65-.89,1.56-1.53,2.52-2.06.46-.26.94-.5,1.42-.73.29-.14.63-.34.96-.35-.06,0,.62.14.37.29h.5c-.77-.58-1.8-.72-2.69-.34-.4.17-.49.65-.12.91,1.07.76,2.29,1.18,3.59,1.3v-1c-1.27.08-2.55.09-3.83.05-.66-.02-.62.93,0,1,2,.22,3.99.17,5.97-.12l-.27-.96-3.43.52c-.55.08-.43,1.04.13.98,1.42-.15,2.81-.33,4.12-.91.38-.17.29-.85-.12-.91-1.5-.24-2.57-1.76-2.18-3.25.16-.62-.78-.88-.96-.27-.5,1.69-1.01,3.38-1.51,5.07-.14.46.51.88.84.49,1.28-1.56,1.38-3.81,1.59-5.74.25-2.34.43-4.69.64-7.04l-.98.13c1.11,2.65,1.93,5.4,2.45,8.22.12.64,1.05.35.96-.27-.1-.77-.42-1.43-.91-2.03-.22-.28-.78-.14-.84.22-.22,1.48-.44,2.96-.65,4.44l.98.13.17-1.92-.98.13.31,1.58c.08.43.71.47.91.12l.28-.48c.3-.52-.36-.95-.79-.61-1.26,1.01-2.63,1.85-4.08,2.54-.44.21-.23.97.25.93,2.48-.17,3.64-2.55,3.97-4.74.42-2.81.59-5.68.88-8.51l-.98.13c.56,1.88.89,3.8,1,5.75.03.64,1.01.65,1,0-.01-1.24-.12-2.46-.31-3.69l-.96.27c.38,1.3.63,2.62.74,3.97l.98-.13c-.64-2.7-1.18-5.41-1.64-8.15-.09-.55-1.03-.43-.98.13.15,1.81.38,3.61.66,5.4.09.55,1.02.43.98-.13-.2-3.24-.08-6.49.33-9.72h-1c-.1,2.73-.2,5.47-.3,8.2-.02.55.87.69.98.13.49-2.49.98-4.98,1.46-7.47.12-.63-.75-.88-.96-.27-.57,1.65-.97,3.35-1.22,5.08-.09.62.86.91.96.27.4-2.35,1.06-4.63,1.97-6.82.22-.52-.67-.89-.91-.39-.59,1.21-1.18,2.43-1.77,3.64l.86.5c.86-1.96,1.87-3.83,3.04-5.62.31-.47-.4-1.03-.79-.61-1.01,1.12-1.88,2.36-2.6,3.69-.31.58.49,1.01.86.5.89-1.19,1.78-2.38,2.67-3.57.34-.45-.42-1.04-.79-.61-.86,1.02-1.66,2.1-2.38,3.22-.33.52.37.93.79.61.77-.61,1.45-1.29,2.06-2.06l-.79-.61-1.55,2.18c-.33.46.41,1.03.79.61.96-1.1,1.85-2.25,2.68-3.45.27-.4-.29-.99-.68-.68-.95.73-1.87,1.5-2.75,2.31l.79.61c1.19-1.67,2.56-3.18,4.09-4.55.45-.41-.12-1.01-.61-.79l-2.23,1.02.5.86c1.08-.83,2.22-1.58,3.41-2.26l-.75-.43c-.05.39-.26.66-.56.89-.39.3.03,1.02.49.84s.81-.39,1.17-.7c.44-.38-.12-1.06-.61-.79l-1.93,1.1.5.86.92-.68c.41-.3.26-.88-.25-.93-1.57-.15-3.13-.11-4.69.11-.55.07-.43,1.03.13.98l2.16-.17c.64-.05.65-.98,0-1-1.67-.06-3.33-.17-4.99-.33-.57-.06-.67.84-.13.98l2.53.68.27-.96c-1.37-.21-2.67-.65-3.89-1.31-.57-.31-1.06.53-.5.86l3.2,1.95c.56.34,1.01-.49.5-.86-1.03-.77-1.96-1.65-2.81-2.62l-.71.71,3.38,2.78.61-.79-2.36-1.46-.5.86c1.2.62,2.39,1.24,3.59,1.87l.12-.91c-1.13.2-2.2.56-3.24,1.03-.51.23-.14,1.12.39.91l2.87-1.12-.27-.96c-1.96.77-3.95,1.45-5.97,2.06l.39.91c.5-.27.89-.65,1.17-1.15.13-.24.05-.54-.18-.68-1.25-.79-2.09,1.01-2.5,1.87-.7,1.48-1.31,3-1.83,4.55l.98.13c.08-1.54.33-3.04.77-4.51l-.98-.13c.25,3.47.4,6.95.48,10.42.01.64.98.64,1,0,.1-2.89.18-5.78-.38-8.63-.11-.58-.95-.4-.98.13-.15,2.6-.49,5.19-1.03,7.74-.13.63.83.9.96.27.56-2.64.91-5.31,1.07-8l-.98.13c.54,2.76.44,5.57.34,8.36h1c-.07-3.48-.23-6.95-.48-10.42-.04-.55-.82-.69-.98-.13-.46,1.56-.72,3.16-.8,4.78-.03.59.81.65.98.13.2-.6,2.23-6.22,2.86-5.82l-.18-.68c-.2.36-.44.6-.81.8-.5.27-.16,1.08.39.91,2.02-.6,4.01-1.29,5.97-2.06.59-.23.34-1.2-.27-.96l-2.87,1.12.39.91c.96-.44,1.96-.74,3-.93.42-.08.49-.72.12-.91l-3.59-1.87c-.57-.3-1.05.52-.5.86l2.36,1.46c.47.29,1.05-.42.61-.79l-3.38-2.78c-.49-.41-1.13.22-.71.71.9,1.04,1.91,1.95,3.01,2.77l.5-.86-3.2-1.95-.5.86c1.29.71,2.68,1.19,4.13,1.42.62.1.9-.79.27-.96l-2.53-.68-.13.98c1.66.16,3.33.27,4.99.33v-1l-2.16.17.13.98c1.47-.2,2.95-.21,4.43-.07l-.25-.93-.92.68c-.5.37-.07,1.19.5.86l1.93-1.1-.61-.79c-.22.19-.46.34-.73.45l.49.84c.52-.41.77-.95.85-1.59.05-.39-.45-.6-.75-.43-1.19.67-2.32,1.43-3.41,2.26-.51.39-.09,1.13.5.86l2.23-1.02-.61-.79c-1.59,1.42-3,3.02-4.25,4.75-.34.48.39.98.79.61.82-.75,1.66-1.47,2.55-2.15l-.68-.68c-.78,1.13-1.62,2.21-2.52,3.25l.79.61,1.55-2.18c.33-.46-.43-1.05-.79-.61-.61.77-1.29,1.46-2.06,2.06l.79.61c.67-1.06,1.41-2.07,2.22-3.02l-.79-.61c-.89,1.19-1.78,2.38-2.67,3.57l.86.5c.68-1.26,1.49-2.42,2.44-3.49l-.79-.61c-1.17,1.79-2.18,3.67-3.04,5.62-.25.58.58,1.09.86.5.59-1.21,1.18-2.43,1.77-3.64l-.91-.39c-.92,2.2-1.58,4.48-1.97,6.82l.96.27c.24-1.73.65-3.43,1.22-5.08l-.96-.27c-.49,2.49-.98,4.98-1.46,7.47l.98.13c.1-2.73.2-5.47.3-8.2.02-.66-.92-.62-1,0-.42,3.22-.53,6.47-.33,9.72l.98-.13c-.27-1.71-.48-3.42-.63-5.14l-.98.13c.45,2.73,1,5.45,1.64,8.15.13.54,1.03.44.98-.13-.12-1.44-.37-2.85-.77-4.23-.18-.63-1.06-.36-.96.27.18,1.13.26,2.27.28,3.42h1c-.11-2.04-.45-4.06-1.03-6.02-.17-.57-.93-.41-.98.13-.24,2.43-.48,4.86-.73,7.29-.2,1.89-.71,4.79-3.11,4.95l.25.93c1.54-.73,2.96-1.63,4.28-2.69l-.79-.61-.28.48.91.12-.31-1.58c-.12-.59-.93-.39-.98.13l-.17,1.92c-.05.55.9.69.98.13.22-1.48.44-2.96.65-4.44l-.84.22c.38.47.57,1,.65,1.59l.96-.27c-.53-2.82-1.35-5.57-2.45-8.22-.22-.52-.93-.45-.98.13-.19,2.1-.36,4.2-.57,6.3-.1,1.06-.22,2.12-.4,3.17-.16.91-.36,1.86-.97,2.59l.84.49c.5-1.69,1.01-3.38,1.51-5.07l-.96-.27c-.52,1.97.84,4.16,2.88,4.48l-.12-.91c-1.14.51-2.39.64-3.62.77l.13.98,3.43-.52c.63-.1.36-1.06-.27-.96-1.89.28-3.81.3-5.71.09v1c1.28.05,2.55.03,3.83-.05.65-.04.64-.94,0-1-1.13-.11-2.16-.51-3.08-1.16l-.12.91c.68-.29,1.33-.21,1.92.24.14.1.37.08.5,0,.59-.35.64-1.08.27-1.62-.52-.77-1.52-.55-2.23-.23-1.76.78-3.51,1.75-4.67,3.32-.36.49.38.94.79.61,1.41-1.16,2.69-2.45,3.82-3.88.39-.5-.21-1.14-.71-.71-1.42,1.24-2.85,2.47-4.27,3.71l.79.61c.91-1.94,1.94-3.81,3.09-5.61.31-.48-.39-1.01-.79-.61-1.27,1.31-2.21,2.86-2.79,4.59-.15.46.52.87.84.49,1.04-1.26,2.07-2.51,3.11-3.77l-.79-.61c-.84,1.44-1.84,2.76-2.99,3.96l.84.49c.36-1.68,1.27-3.12,2.63-4.18l-.84-.49c-.42,1.65-1.07,3.19-1.95,4.64l.91.39c.2-.81.48-1.58.85-2.33l-.91-.39c-.48,1.33-.99,2.64-1.53,3.94l.84-.22c-.84-.74-.97-1.86-1.1-2.91s-.27-2.1-.83-3.02c-.2-.33-.84-.33-.91.12-.34,2.21-.58,4.44-.7,6.67l.75-.43c-.45-.33-.65-.88-.82-1.39-.24-.67-.46-1.34-.69-2.02-.46-1.33-.91-2.65-1.37-3.98-.18-.52-.97-.45-.98.13-.02,1.2-.04,2.4-.06,3.61-.02,1.1,0,2.2-.35,3.25l.91-.12c-1.71-2.6-3-5.43-3.82-8.44l-.91.39c1.12,2.45,2.06,4.98,2.83,7.57l.91-.39c-1.09-2.4-2.06-4.86-2.93-7.35l-.91.39c1.01,2.17,1.88,4.4,2.61,6.68l.96-.27c-.97-2.3-1.72-4.69-2.24-7.13l-.96.27c.95,2.64,1.89,5.29,2.84,7.93.22.61,1.08.37.96-.27-.5-2.69-1-5.37-1.5-8.06l-.96.27c.62,2.13,1.23,4.27,1.85,6.4l.96-.27c-1.73-4.69-3.24-9.45-4.54-14.27l-.96.27c.73,2.67,1.26,5.39,1.56,8.14l.98-.13c-1.56-4.03-2.74-8.2-3.51-12.46l-.96.27c1.04,3.43,1.81,6.92,2.32,10.46l.96-.27c-.56-2.02-1.03-4.06-1.42-6.12-.19-1.03-.37-2.06-.52-3.1s-.25-2.09.06-3.12h-.96c.9,3,1.45,6.07,1.64,9.2l.98-.13c-.7-2.94-.9-5.94-.62-8.95l-.98.13c.74,2.94,1.12,5.94,1.15,8.98,0,.64.99.64,1,0,.04-2.74.33-5.46.9-8.14.47-2.23.95-4.92,2.77-6.48l-.79-.1c1.54,2.72,1.8,5.98.75,8.92h.96c-1.09-3.89-1.09-7.99.02-11.87l-.98-.13c.25,4.3.49,8.72-1.04,12.83l.98.13c-.43-4.5.15-9.02,1.71-13.26l-.98-.13c-.27,2.38-.7,4.73-1.3,7.05-.29,1.12-.61,2.24-.97,3.34s-.73,2.09-1.46,2.94l.79.1c-.53-1.02-.28-2.31-.1-3.4s.43-2.13.74-3.18c.63-2.18,1.47-4.28,2.31-6.38.21-.52-.69-.91-.91-.39-1.76,4.11-3.51,8.22-5.27,12.33l.91.39c.62-1.98,1.23-3.97,1.85-5.95.3-.97.6-1.94.91-2.92.21-.69.61-1.52.43-2.26-.15-.59-.7-.92-1.28-.72-.76.25-1.41,1.21-1.92,1.8-1.21,1.4-2.28,2.91-3.28,4.46-1.2,1.85-2.33,3.74-3.49,5.62l.91.39c.88-3.11,2.25-6.03,4.05-8.71l-.91-.39c-1.08,2.64-2.5,5.13-4.2,7.43l.91.39c.76-2.49,2.03-4.76,3.3-7.02l-.86-.5c-1.14,2.13-2.35,4.23-3.61,6.3l.86.5c.98-2.19,2.22-4.26,3.72-6.15l-.61.08c.21.15-.23,1.28-.29,1.47l-.45,1.66-.96,3.56c-.16.58.59.83.91.39,1.54-2.13,3.19-4.16,4.94-6.12.43-.48-.28-1.19-.71-.71h0Z"/>
  <path class="cls-1" d="M48.4,38.16l-.1,4.3.93-.25c-.27-.54-.45-1.1-.57-1.7-.07-.37-.59-.48-.84-.22-.49.51-.57,1.14-.57,1.82,0,.96.04,1.92.11,2.88.13,1.92.38,3.84.7,5.73.65,3.84,1.63,7.62,2.66,11.38.17.64,1.06.35.96-.27-.93-6.28-1.51-12.6-1.77-18.94-.02-.54-.86-.71-.98-.13-.76,3.65-.34,7.58.09,11.25s1.17,7.46,2.19,11.09c.15.52,1.04.44.98-.13-.8-7.99-1.6-15.98-2.4-23.98-.05-.51-.88-.73-.98-.13-1.4,8.06.77,16.16,4.06,23.5.2.45.97.23.93-.25-.52-7.27-1.05-14.53-1.57-21.8-.03-.41-.54-.68-.85-.35-.6.62-.65,1.53-.76,2.35-.14,1.02-.22,2.04-.25,3.07-.05,2.05.1,4.1.33,6.13.49,4.19,1.35,8.34,1.7,12.55h1c-.92-7.06-1.32-14.26-.16-21.32l-.98-.13c.06,5.98.64,11.94,1.73,17.81.09.48.87.47.96,0,.35-1.67.27-3.36.14-5.05-.13-1.78-.28-3.56-.43-5.34-.3-3.6-.64-7.2-1.01-10.79-.04-.39-.39-.6-.75-.43-.57.27-.74.87-.79,1.46-.07.92-.03,1.87-.01,2.8.04,1.92.16,3.84.36,5.74.41,3.78,1.15,7.52,2.2,11.18.15.52,1.06.44.98-.13-.96-7.52-2.05-15.03-3.25-22.51-.08-.49-.87-.47-.96,0-.38,1.92-.26,3.85.03,5.77s.7,3.94,1.18,5.88c.94,3.8,2.21,7.51,3.76,11.1.21.48.93.21.93-.25.01-1.66-.31-3.31-.56-4.94s-.51-3.42-.77-5.14c-.51-3.42-1.03-6.85-1.54-10.27-.09-.58-.96-.4-.98.13-.33,7.39,2.06,14.48,3.4,21.66.12.63,1.08.36.96-.27-1.2-6.73-1.9-13.56-1.44-20.4h-1c-.22,6.77.54,13.55,2.27,20.1.14.53,1.03.44.98-.13-.62-7.16-1.66-14.27-3.12-21.31-.12-.59-.93-.39-.98.13-.3,3.1.18,6.2.9,9.21s1.63,6.14,2.64,9.16c.21.62,1.08.36.96-.27-1.07-5.77-2.61-11.44-4.17-17.1-.14-.52-1.05-.44-.98.13.65,5.37,1.8,10.67,3.47,15.82.16.51,1.04.46.98-.13-.48-5.22-.96-10.45-1.43-15.67-.06-.63-1.04-.65-1,0,.43,6.3,1.25,12.57,2.46,18.77.11.55,1.01.43.98-.13-.2-4.91-.41-9.86.31-14.74h-.96c.88,5.51,1.77,11.03,2.65,16.54.09.55,1.05.43.98-.13-.71-5.69-1.41-11.37-2.12-17.06-.06-.51-.85-.74-.98-.13-.31,1.42-.25,2.85-.11,4.29.15,1.59.32,3.17.51,4.76.37,3.1.81,6.19,1.31,9.27.09.55,1.05.43.98-.13-.71-5.63-1.09-11.29-1.13-16.96l-.98.13c.55,3.77,1.1,7.53,1.65,11.3.08.55,1.04.43.98-.13-.52-4.68-1.04-9.36-1.55-14.04-.07-.63-1.04-.65-1,0,.29,4.69.94,9.35,1.6,14l.96-.27c-.82-4.05-1.65-8.1-2.85-12.06-.14-.46-.85-.5-.96,0-1.13,4.72.02,9.56-.62,14.32h.96c-.76-4.01-1.52-8.01-2.29-12.02-.1-.53-.81-.42-.96,0-.35.92-.37,1.89-.32,2.86.06,1.08.15,2.16.25,3.23.22,2.17.52,4.34.91,6.49l.96-.27c-.55-2.9-1.4-5.72-2.55-8.43-.2-.48-1-.48-.98.13.09,2.78.59,5.51,1.51,8.14.21.6,1.12.37.96-.27-.52-2.18-1.07-4.35-2.07-6.37-.26-.52-1.04-.15-.91.39.81,3.33,2.14,6.53,3.95,9.45.29.46.62,1.26,1.27,1.26s.87-.62,1.02-1.13c.27-.92.48-1.87.64-2.82.13-.77.14-1.7.71-2.29l-.79-.1c.76,1.08.92,2.55,1.23,3.81.34,1.39.68,2.78,1.01,4.17.13.55,1,.43.98-.13-.04-1.76-.3-3.5-.77-5.2-.18-.63-1.07-.36-.96.27.32,1.84.59,3.69.8,5.55l.98-.13c-.67-2.99-1.2-6.01-1.59-9.04l-.98.13c.43,1.68.87,3.35,1.3,5.03.13.48.83.47.96,0,.3-1.05.24-2.12.19-3.19-.05-1.19-.09-2.38-.14-3.57-.09-2.42-.19-4.85-.28-7.27l-.93.25c.53.96.48,2.05.49,3.11.01,1,.1,1.97.53,2.88.18.37.85.3.91-.12.31-2.08.87-4.12,1.71-6.06l-.91-.12c.16,1.05-.24,2.07-.61,3.03l.96.27c.46-2.14,1.48-4.07,2.99-5.65l-.79-.61c-.59,1.2-1.18,2.4-1.77,3.6-.24.48.39,1.06.79.61,1.08-1.25,2.28-2.38,3.62-3.35l-.73-.56c-.28.9-.74,1.7-1.36,2.41-.42.48.23,1.14.71.71.95-.85,1.84-1.77,2.66-2.74.34-.4-.11-1.13-.61-.79-1.18.81-2.32,1.68-3.41,2.6l.71.71,1.56-1.4c.42-.38-.13-1.09-.61-.79l-2.15,1.37.68.68c.16-.24.21-.46.21-.75s-.32-.61-.63-.48c-.35.14-.7.28-1.05.41-.23.09-.76.43-1,.34l.3.23c-.19-.3.53-1.21.67-1.5.17-.38.24-.85-.07-1.18-.74-.82-1.94.31-2.25,1-.17.4.11.84.56.73,1.21-.27.91-1.88-.08-2.24-1.25-.45-2.75.28-3.61,1.17-.45.46.26,1.17.71.71s.94-.76,1.54-.91c.24-.06.51-.11.75-.08.15.02.34.03.43.17.04.06.14.2,0,.23l.56.73c.13-.3.3-.53.58-.7l-.02-.09c-.03.08-.07.15-.11.22-.08.13-.17.26-.24.4-.23.43-.55,1.05-.44,1.55.1.47.53.67.98.57.68-.15,1.38-.53,2.03-.79l-.63-.48-.07.25c-.27.42.27.95.68.68l2.15-1.37-.61-.79-1.56,1.4c-.48.44.22,1.12.71.71,1.03-.87,2.1-1.68,3.21-2.44l-.61-.79c-.83.97-1.71,1.89-2.66,2.74l.71.71c.74-.84,1.28-1.79,1.61-2.85.12-.39-.38-.82-.73-.56-1.41,1.02-2.69,2.19-3.82,3.51l.79.61c.59-1.2,1.18-2.4,1.77-3.6.24-.49-.37-1.04-.79-.61-1.62,1.7-2.75,3.79-3.24,6.09-.14.64.74.86.96.27.45-1.16.8-2.3.61-3.56-.06-.41-.75-.5-.91-.12-.87,2.02-1.49,4.12-1.81,6.3l.91-.12c-.9-1.89.03-4.11-1.02-5.99-.24-.43-.95-.25-.93.25.09,2.34.18,4.68.27,7.02.04,1.15.09,2.3.13,3.45s.16,2.22-.14,3.29h.96c-.43-1.68-.87-3.35-1.3-5.03-.14-.53-1.05-.44-.98.13.4,3.13.94,6.23,1.63,9.31.12.54,1.05.43.98-.13-.22-1.95-.5-3.89-.84-5.82l-.96.27c.45,1.61.7,3.26.74,4.93l.98-.13c-.36-1.47-.72-2.94-1.07-4.41-.31-1.28-.5-2.72-1.27-3.81-.18-.25-.55-.35-.79-.1-.93.96-.89,2.45-1.14,3.68-.16.76-.33,1.52-.59,2.25h.15c-.06-.1-.12-.2-.18-.29-.1-.15-.2-.31-.3-.47-.19-.31-.38-.63-.57-.95-1.48-2.58-2.58-5.37-3.29-8.26l-.91.39c.96,1.94,1.47,4.04,1.97,6.13l.96-.27c-.89-2.54-1.38-5.18-1.47-7.87l-.98.13c1.14,2.72,1.99,5.54,2.55,8.43.12.63,1.08.36.96-.27-.38-2.06-.67-4.14-.88-6.22-.1-1-.18-2.01-.24-3.02s-.08-1.9.27-2.81h-.96c.76,4.01,1.52,8.01,2.29,12.02.09.47.9.49.96,0,.65-4.75-.5-9.62.62-14.32h-.96c1.2,3.96,2.03,8.01,2.85,12.06.13.64,1.05.35.96-.27-.64-4.56-1.28-9.13-1.56-13.74h-1c.52,4.68,1.04,9.36,1.55,14.04l.98-.13c-.55-3.77-1.1-7.53-1.65-11.3-.08-.57-.99-.42-.98.13.04,5.67.42,11.34,1.13,16.96l.98-.13c-.49-2.99-.92-5.99-1.28-9-.17-1.47-.33-2.93-.47-4.4s-.27-2.93.05-4.38l-.98-.13c.71,5.69,1.41,11.37,2.12,17.06l.98-.13c-.88-5.51-1.77-11.03-2.65-16.54-.08-.47-.89-.48-.96,0-.73,4.98-.55,10-.34,15l.98-.13c-1.19-6.11-2-12.29-2.43-18.5h-1c.48,5.22.96,10.45,1.43,15.67l.98-.13c-1.64-5.06-2.8-10.27-3.44-15.55l-.98.13c1.56,5.66,3.1,11.32,4.17,17.1l.96-.27c-.98-2.94-1.86-5.91-2.59-8.92s-1.21-6.08-.92-9.18l-.98.13c1.44,6.95,2.47,13.97,3.08,21.04l.98-.13c-1.7-6.47-2.45-13.15-2.23-19.84.02-.65-.96-.64-1,0-.47,6.92.26,13.85,1.47,20.66l.96-.27c-1.32-7.09-3.69-14.1-3.36-21.4l-.98.13c.5,3.34,1,6.69,1.5,10.03.24,1.63.49,3.26.73,4.89s.61,3.43.6,5.16l.93-.25c-1.48-3.44-2.69-7-3.6-10.63-.45-1.78-.82-3.58-1.13-5.4-.33-1.97-.53-3.98-.14-5.96h-.96c1.19,7.4,2.26,14.82,3.22,22.25l.98-.13c-.96-3.34-1.67-6.75-2.09-10.2-.2-1.67-.33-3.34-.4-5.02-.04-.88-.05-1.76-.05-2.64,0-.49-.23-1.94.31-2.2l-.75-.43c.36,3.51.69,7.02.99,10.54.15,1.74.29,3.48.42,5.21s.28,3.46-.08,5.16h.96c-1.07-5.79-1.64-11.66-1.7-17.55,0-.54-.89-.71-.98-.13-1.17,7.16-.81,14.42.13,21.58.08.62,1.05.65,1,0-.33-3.98-1.11-7.89-1.61-11.84-.25-1.96-.43-3.92-.43-5.9,0-.94.03-1.88.12-2.82.05-.5.11-1.01.19-1.51.07-.43.1-.99.42-1.32l-.85-.35c.52,7.27,1.05,14.53,1.57,21.8l.93-.25c-3.17-7.06-5.31-14.96-3.96-22.72l-.98-.13c.8,7.99,1.6,15.98,2.4,23.98l.98-.13c-.99-3.55-1.72-7.17-2.15-10.83-.21-1.79-.35-3.59-.43-5.39s-.08-3.75.3-5.59l-.98-.13c.26,6.43.87,12.84,1.81,19.2l.96-.27c-.94-3.45-1.84-6.92-2.49-10.44-.33-1.77-.59-3.55-.75-5.34-.08-.88-.14-1.76-.17-2.64-.02-.68-.27-1.89.25-2.44l-.84-.22c.13.68.35,1.32.67,1.94.23.46.92.22.93-.25l.1-4.3c.02-.64-.98-.64-1,0h0Z"/>
  <path class="cls-1" d="M56.82,43.35c.68,1.5,1.38,2.99,2.11,4.47.35.71.71,1.43,1.07,2.13.27.53.51,1.31,1.09,1.59.53.26,1.06-.04,1.32-.52.3-.58.27-1.33.27-1.97,0-1.63-.3-3.25-.59-4.86l-.91.39c.45.81.87,1.64,1.36,2.42.36.58.89,1.12,1.63,1.08.41-.02.58-.4.43-.75-.62-1.46-1.24-2.92-1.86-4.38l-.79.61c.65.74,1.3,1.48,1.95,2.23.35.41.92-.04.84-.49-.16-.81-.45-1.59-.87-2.3-.31-.52-.92-1.57-1.66-1.05-.62.44-.36,1.49-.31,2.12.07.95.13,1.9-.18,2.81-.21.61.76.87.96.27.44-1.3.21-2.64.16-3.97,0-.06.03-.33-.01-.4.04-.11,0-.1-.11.02-.15.05-.16.12-.03.21.1.26.33.5.46.75.3.57.5,1.18.62,1.81l.84-.49c-.65-.74-1.3-1.48-1.95-2.23-.41-.47-.99.13-.79.61.62,1.46,1.24,2.92,1.86,4.38l.43-.75c-.54.03-.83-.7-1.05-1.09-.36-.64-.71-1.28-1.07-1.92-.29-.52-1.01-.15-.91.39.24,1.3.47,2.6.54,3.91.03.62.07,1.29-.05,1.9-.02.11-.15.35-.09.36-.15-.03-.35-.6-.42-.73-1.2-2.32-2.33-4.68-3.41-7.06-.26-.59-1.13-.08-.86.5h0Z"/>
  <path class="cls-1" d="M62.6,58.08c1.24,2.83,2.36,5.71,3.36,8.62l.91-.39c-1.1-2.42-2.05-4.91-2.86-7.44l-.91.39c1.08,2.43,1.59,5.06,1.54,7.72l.75-.43c-.44-.25-.58-.78-.79-1.21s-.49-.8-.93-1c-.26-.12-.68-.05-.73.3-.19,1.2-.28,2.4-.23,3.61.01.31.05.62.06.93,0,.36-.11.35-.45.47-.59.21-1.15.33-1.75.09l.12.91c.55-.33,1.12-.53,1.76-.58.59-.05.65-.77.13-.98-.74-.31-1.49-.62-2.23-.93-.59-.25-.85.72-.27.96.74.31,1.49.62,2.23.93l.13-.98c-.82.07-1.56.29-2.27.71-.4.24-.26.76.12.91.68.28,1.39.2,2.08-.02.54-.17,1.19-.35,1.36-.96.18-.65-.05-1.49-.05-2.17,0-.89.07-1.77.21-2.65l-.73.3c.46.22.6.74.81,1.16s.48.81.91,1.05c.33.19.75-.05.75-.43.05-2.84-.53-5.63-1.68-8.23-.23-.52-1.09-.15-.91.39.84,2.62,1.83,5.18,2.96,7.68.23.51,1.1.15.91-.39-1.04-3-2.2-5.95-3.47-8.86-.26-.59-1.12-.08-.86.5h0Z"/>
</svg>