<?xml version="1.0" encoding="UTF-8"?>
<svg id="_Слой_1" data-name="Слой 1" xmlns="http://www.w3.org/2000/svg" viewBox="0 0 100 100">
  <defs>
    <style>
      .cls-1 {
        fill: none;
        stroke: #000;
        stroke-miterlimit: 10;
      }
    </style>
  </defs>
  <path class="cls-1" d="M54.39,11.64c-.19,4.02-.72,7.32-1.19,9.67-.89,4.45-1.63,7.96-4.03,11.75-1.22,1.93-2.47,3.9-4.88,5.32-2.96,1.74-5.92,1.63-9.23,1.45-7.22-.38-12.78-.72-17.24-1.02"/>
  <path class="cls-1" d="M11.06,63.49c5.83-1,10.29-2.38,13.39-3.5,2.53-.92,4.73-1.88,7.76-1.48.84.11,4.02.57,6.51,3.1,3.29,3.34,3.15,8.03,3.06,10.91-.1,3.09-.86,5.44-2.17,9.49-.88,2.71-1.78,4.88-2.43,6.36"/>
  <path class="cls-1" d="M77.7,75.57c-2.11-2.15-3.99-4.12-5.63-5.87-4.89-5.21-5.98-6.68-6.89-8.69-1.04-2.3-2.17-4.81-1.32-7.42,1.3-4.02,6.4-5.54,8.68-6.23,1.01-.3,2.59-.69,13.17-.87,2.06-.04,3.76-.05,4.93-.06"/>
  <path class="cls-1" d="M53.2,21.31c-.2,1.64.17,8.77.91,11.36.81,2.81,1.53,5.33,3.61,7.97.57.72,2.69,3.29,6.47,5.07,2.13,1,13.62.94,14.94.97"/>
  <path class="cls-1" d="M41.76,73.17c.36-1.64,2.98-6.46,4.77-7.95.61-.51,3.34-2.71,7.47-3.46,5.96-1.08,13.11,3.13,14.38,3.92"/>
  <path class="cls-1" d="M28.25,58.75c1.25-.66,7.21-3.36,8.99-5.24,1.49-1.56,2.73-2.87,3.23-5.03.11-.47.46-3.77-1.34-6.6-.95-1.5-4.23-2.06-5.05-2.08"/>
</svg>