<?xml version="1.0" encoding="UTF-8"?>
<svg id="_Слой_1" data-name="Слой 1" xmlns="http://www.w3.org/2000/svg" viewBox="0 0 100 100">
  <defs>
    <style>
      .cls-1 {
        fill: none;
        stroke: #000;
        stroke-miterlimit: 10;
      }
    </style>
  </defs>
  <path class="cls-1" d="M27.63,21.23c2.57,2.58,4.45,4.94,5.74,6.69,2.43,3.31,4.32,5.93,5.39,9.85.54,1.99,1.1,4.03.58,6.5-.64,3.04-2.52,4.94-4.66,7.05-4.65,4.59-8.27,8.1-11.19,10.89"/>
  <path class="cls-1" d="M35.85,81.78c2.88-4.51,4.68-8.32,5.82-11.07.93-2.24,1.63-4.31,3.74-6.08.59-.49,2.83-2.34,6.03-2.46,4.24-.16,7.28,2.8,9.15,4.61,2.01,1.95,3.11,3.89,5.01,7.23,1.27,2.24,2.18,4.17,2.76,5.5"/>
  <path class="cls-1" d="M84.54,44.63c-2.72.1-5.18.15-7.35.18-6.46.09-8.11-.08-10-.7-2.17-.71-4.54-1.48-5.77-3.64-1.89-3.32.2-7.65,1.13-9.59.41-.86,1.12-2.15,7.44-9.33,1.23-1.4,2.26-2.54,2.97-3.33"/>
  <path class="cls-1" d="M33.37,27.92c.97,1.13,5.96,5.24,8.14,6.31,2.37,1.17,4.5,2.23,7.52,2.44.82.06,3.84.21,7.33-1.23,1.97-.81,8.93-8.52,9.75-9.38"/>
  <path class="cls-1" d="M61.03,67.18c-.87-1.24-2.5-5.93-2.41-8.03.03-.72.23-3.88,2.24-7.1,2.91-4.64,10.08-6.84,11.38-7.22"/>
  <path class="cls-1" d="M43.17,67.41c.32-1.24,2.15-6.87,1.98-9.19-.14-1.95-.26-3.57-1.39-5.22-.25-.36-2.23-2.61-5.23-3.13-1.58-.28-3.95,1.57-4.47,2.11"/>
</svg>