<?xml version="1.0" encoding="UTF-8"?>
<svg id="_Слой_1" data-name="Слой 1" xmlns="http://www.w3.org/2000/svg" viewBox="0 0 110 110">
  <defs>
    <style>
      .cls-1 {
        fill: none;
        stroke: #000;
        stroke-miterlimit: 10;
      }
    </style>
  </defs>
  <path class="cls-1" d="M13.52,16.69c4.57,3.35,8.03,6.53,10.42,8.91,4.53,4.51,8.07,8.09,10.66,13.85,1.32,2.93,2.66,5.93,2.45,9.86-.25,4.82-2.69,8.2-5.47,11.96-6.06,8.17-10.78,14.43-14.59,19.43"/>
  <path class="cls-1" d="M40.7,107.8c3.35-7.62,5.2-13.91,6.29-18.42.89-3.67,1.47-7.01,4.29-10.25.78-.9,3.8-4.27,8.69-5.23,6.48-1.27,11.87,2.55,15.18,4.89,3.55,2.51,5.71,5.23,9.44,9.92,2.49,3.13,4.35,5.88,5.57,7.8"/>
  <path class="cls-1" d="M106.64,39c-4.16.8-7.93,1.48-11.26,2.04-9.92,1.69-12.49,1.82-15.55,1.33-3.5-.57-7.33-1.19-9.74-4.21-3.7-4.65-1.53-11.81-.57-15.02.43-1.41,1.2-3.57,9.2-16.13,1.56-2.44,2.86-4.45,3.76-5.83"/>
  <path class="cls-1" d="M23.95,25.6c1.77,1.51,10.42,6.62,14.04,7.75,3.92,1.23,7.45,2.34,12.15,1.95,1.28-.11,5.95-.6,10.97-3.65,2.84-1.72,11.69-15.25,12.74-16.77"/>
  <path class="cls-1" d="M75.91,79.31c-1.64-1.7-5.26-8.51-5.63-11.77-.12-1.12-.58-6.02,1.74-11.45,3.36-7.84,13.85-12.94,15.77-13.83"/>
  <path class="cls-1" d="M48.5,83.95c.19-1.98,1.65-11.07.84-14.61-.68-2.96-1.25-5.43-3.39-7.69-.46-.49-4.06-3.47-8.79-3.56-2.5-.04-5.7,3.36-6.36,4.31"/>
</svg>