<?xml version="1.0" encoding="UTF-8"?>
<svg id="_Слой_1" data-name="Слой 1" xmlns="http://www.w3.org/2000/svg" viewBox="0 0 110 110">
  <defs>
    <style>
      .cls-1 {
        fill: none;
        stroke: #000;
        stroke-miterlimit: 10;
      }

      .cls-2 {
        fill: #9d5187;
        stroke-width: 0px;
      }
    </style>
  </defs>
  <path class="cls-2" d="M48.37,36.63c.24,2.14.54,4.28.91,6.41.1.56,1.01.43.98-.13-.15-3.31-.49-6.61-1.02-9.89-.1-.6-.93-.38-.98.13-.16,1.49-.21,2.98-.13,4.48.03.64,1.03.64,1,0-.07-1.46-.14-2.92-.21-4.38h-1c.38,5.37.48,10.91-1.47,16.02l.98.13c.21-2.52.69-5.01,1.41-7.44l-.96-.27c-.79,2.78-1.58,5.55-2.38,8.33l.96.27,1.82-6.65c.17-.63-.74-.85-.96-.27-1.03,2.67-2.06,5.33-3.08,8l.96.27c.48-2.38,1.19-4.71,2.15-6.94.25-.58-.58-1.09-.86-.5-1.2,2.52-2.4,5.03-3.6,7.55l.91.39c.46-1.18.93-2.36,1.39-3.54.2-.52-.68-.9-.91-.39-1.31,2.85-2.98,5.53-5,7.93-1,1.19-2.08,2.3-3.23,3.34-1.08.98-2.19,1.94-2.92,3.23-.18.31,0,.61.3.73,2.44,1.02,4.89,2.04,7.33,3.06.57.24.79-.6.39-.91l-3-2.31c-.4-.31-.94.29-.68.68,1.04,1.63,2.09,3.27,3.13,4.9l.79-.61c-1.14-1.2-2.28-2.41-3.42-3.61-.45-.48-1.1.22-.71.71,1.17,1.46,2.34,2.92,3.51,4.39l.71-.71c-1.39-1.35-2.66-2.82-3.8-4.39l-.79.61c.66.69,1.4,1.28,2.21,1.77.35.21.9-.15.73-.56-.51-1.3-1.12-2.54-1.85-3.73l-.68.68c.92.48,1.74,1.08,2.49,1.8l.61-.79c-.73-.53-1.36-1.16-1.91-1.87l-.61.79c2.02,1.28,3.97,2.67,5.85,4.15.4.32,1.16-.11.79-.61-.81-1.06-1.62-2.12-2.43-3.18-.38-.5-1.15-.09-.86.5,1.65,3.35,3.42,7.1,2.23,10.89-.18.57.6.83.91.39.71-1.01,1.56-1.88,2.52-2.65l-.79-.61c-.42.98-.85,1.95-1.27,2.93-.21.48.37,1.07.79.61.64-.72,1.48-1.2,2.44-1.32l-.25-.93c-.7.44-1.37.9-1.8,1.62-.27.44.26.91.68.68,2.42-1.29,4.99-2.23,7.67-2.79.55-.12.43-1.01-.13-.98-.47.03-.86.13-1.29.33-.5.24-.18.88.25.93,2.58.33,5.14.84,7.66,1.5.51.13.8-.47.49-.84-1.24-1.46-2.89-2.49-4.74-2.97-.55-.14-.87.62-.39.91,2.35,1.44,4.87,2.53,7.4,3.61.47.2,1.09-.39.61-.79-1.45-1.18-2.33-2.88-2.39-4.76l-.98.13c.82,2.51,1.87,4.94,3.15,7.25.31.56,1.17.06.86-.5-2.16-3.98-3.11-8.51-2.75-13.02h-1c.08,2.14.06,4.28-.04,6.41h1c0-1.77-.18-3.53-.54-5.27-.13-.63-1.1-.36-.96.27.35,1.65.52,3.32.51,5,0,.65.97.64,1,0,.1-2.14.12-4.27.04-6.41-.02-.65-.95-.64-1,0-.37,4.68.65,9.4,2.89,13.52l.86-.5c-1.24-2.24-2.26-4.58-3.05-7.01-.17-.52-1-.45-.98.13.06,2.12,1.03,4.13,2.68,5.46l.61-.79c-2.53-1.08-5.05-2.17-7.4-3.61l-.39.91c1.7.44,3.17,1.37,4.3,2.71l.49-.84c-2.61-.69-5.25-1.2-7.93-1.54l.25.93c.27-.13.49-.18.78-.2l-.13-.98c-2.76.59-5.42,1.56-7.91,2.9l.68.68c.35-.57.89-.92,1.44-1.27.38-.24.27-.99-.25-.93-1.23.15-2.32.68-3.15,1.61l.79.61c.42-.98.85-1.95,1.27-2.93.23-.53-.33-.97-.79-.61-1.03.82-1.92,1.77-2.68,2.85l.91.39c1.28-4.06-.56-8.07-2.33-11.66l-.86.5c.81,1.06,1.62,2.12,2.43,3.18l.79-.61c-1.94-1.54-3.96-2.98-6.05-4.31-.52-.33-.93.37-.61.79.61.78,1.32,1.44,2.12,2.02.46.34,1.01-.4.61-.79-.8-.78-1.7-1.44-2.69-1.96-.43-.22-.96.24-.68.68.68,1.11,1.27,2.27,1.75,3.49l.73-.56c-.74-.45-1.4-.99-2.01-1.62-.38-.4-1.12.14-.79.61,1.18,1.64,2.5,3.18,3.95,4.59.47.46,1.1-.22.71-.71l-3.51-4.39-.71.71c1.14,1.2,2.28,2.41,3.42,3.61.39.41,1.09-.12.79-.61-1.04-1.63-2.09-3.27-3.13-4.9l-.68.68,3,2.31.39-.91c-2.44-1.02-4.89-2.04-7.33-3.06l.3.73c.76-1.33,1.97-2.28,3.07-3.3s2.21-2.19,3.19-3.39c1.96-2.38,3.6-5,4.89-7.81l-.91-.39c-.46,1.18-.93,2.36-1.39,3.54-.21.52.67.9.91.39,1.2-2.52,2.4-5.03,3.6-7.55l-.86-.5c-1,2.31-1.76,4.7-2.26,7.17-.13.64.73.86.96.27,1.03-2.67,2.06-5.33,3.08-8l-.96-.27-1.82,6.65c-.17.62.79.88.96.27.79-2.78,1.58-5.55,2.38-8.33.18-.62-.78-.88-.96-.27-.75,2.51-1.23,5.09-1.45,7.7-.05.6.8.62.98.13,1.97-5.19,1.89-10.83,1.5-16.29-.05-.64-1.03-.65-1,0,.07,1.46.14,2.92.21,4.38h1c-.08-1.5-.03-2.99.13-4.48l-.98.13c.51,3.19.84,6.4.99,9.62l.98-.13c-.35-2.04-.64-4.09-.87-6.14-.07-.63-1.07-.64-1,0h0Z"/>
  <path class="cls-2" d="M49.95,37.61c.84,2.84,1.88,5.62,3.11,8.31.24.52,1.07.15.91-.39-.74-2.58-1.57-5.14-2.5-7.66-.39-1.07-.81-2.1-1.5-3.02-.61-.81-1.44-1.63-1.39-2.71l-.98.13c.33,2.36-.24,4.7-.79,6.98-.16.64.72.84.96.27.86-2.06,1.23-4.28,1.08-6.51l-.93.25c1.92,2.91,3.84,5.81,5.76,8.72l.86-.5-2.17-2.85c-.31-.41-1.1-.2-.91.39.9,2.81,2.23,5.46,3.97,7.85.37.52,1.16.08.86-.5-.91-1.82-1.83-3.64-2.74-5.46l-.86.5c1.23,1.95,2.4,3.95,3.5,5.98l.86-.5c-1.02-1.35-1.91-2.78-2.65-4.31l-.86.5c1.17,1.82,2.59,3.47,4.26,4.85,1.42,1.19,3.53,3.02,5.52,2.36.22-.07.35-.25.37-.48.06-1.09-.88-1.81-1.59-2.48-.97-.92-1.94-1.85-2.92-2.77l-.71.71c1.66,1.4,3.56,2.44,5.64,3.06.62.19.86-.75.27-.96-1.9-.7-3.91-.97-5.93-.81-.53.04-.72.85-.13.98,3.02.66,6.1.75,9.15.28.36-.06.49-.61.22-.84-1.7-1.44-4.01-.91-5.88-1.9l-.25.93c1.46-.15,2.89-.06,4.32.3l.27-.96c-1.06-.25-2.13-.39-3.21-.43-.64-.03-.64.97,0,1,2.53.13,5.05.43,7.54.89l-.22-.84-2.05,1.82c-.42.37.13,1.1.61.79,3.56-2.32,7.4-4.14,11.45-5.41l-.27-.96c-2.61.97-5.26,1.95-8.04,2.27v1l3.42-.43-.25-.93c-1.16.67-2.22,1.46-3.19,2.38-.43.41.11,1.03.61.79l2.58-1.27-.61-.79c-1.28,1.07-2.55,2.13-3.83,3.2l.84.49c.49-1.33.91-2.68,1.27-4.04.11-.4-.25-.67-.62-.62-1.65.25-3.09,1.31-3.84,2.79-.18.36.12.89.56.73.66-.23,1.14-.72,1.25-1.42.06-.37-.34-.86-.73-.56-1.95,1.44-3.57,3.25-4.77,5.36-.27.48.39,1.04.79.61.86-.95,1.73-1.9,2.59-2.85.4-.44-.1-1.02-.61-.79-1.36.62-2.37,1.76-2.87,3.17-.18.49.49.81.84.49l3.78-3.57-.85-.35c-.1,1.31-.25,2.61-.44,3.9-.08.5.65.95.91.39.62-1.34,1.05-2.74,1.28-4.21.09-.62-.82-.91-.96-.27-.51,2.3-.46,4.66.16,6.93.13.48.83.47.96,0,.36-1.28.36-2.6-.03-3.87-.16-.51-1.04-.45-.98.13.29,2.95.73,5.89,1.32,8.79.12.57.96.41.98-.13.06-1.56.05-3.13-.03-4.69l-.98.13c.52,1.58.85,3.2.98,4.86l.98-.13c-.48-1.94-.97-3.88-1.45-5.82-.16-.63-1.07-.36-.96.27.43,2.44.85,4.87,1.28,7.31l.96-.27c-.83-2.29-1.37-4.67-1.58-7.1l-.98.13.89,2.69c.17.52.99.45.98-.13l-.04-3.64h-1l.21,4.79.98-.13-.55-2.42c-.14-.64-1.07-.36-.96.27.4,2.41.74,5,1.66,7.27.75,1.87,2.18,3.48,4.28,3.7.48.05.69-.73.25-.93-1.48-.68-3.02-1.11-4.63-1.32v1l1.87.19c.51.05.66-.7.25-.93-2.51-1.39-5.4-1.3-8.15-.83-1.23.21-2.81.32-3.7,1.29-.79.87-.97,2.1-1.1,3.23-.05.45.57.63.85.35,1.16-1.14,2.31-2.28,3.47-3.42l-.84-.49c-.52,1.35-1.12,2.66-1.78,3.94-.3.57.56,1.07.86.5l1.67-3.12c.26-.48-.39-1.04-.79-.61-.44.48-.79,1.01-1.06,1.6-.23.5.35,1.01.79.61,1.48-1.36,3.06-2.6,4.74-3.72l-.61-.79c-.81.72-1.7,1.32-2.66,1.83-.57.3-.07,1.15.5.86,1.7-.85,3.45-1.58,5.25-2.18.62-.21.36-1.06-.27-.96-1.16.18-2.33.26-3.51.24l.25.93c.84-.48,1.7-.88,2.62-1.19.61-.2.35-1.15-.27-.96-1.41.43-2.86.66-4.34.68l.25.93,2.27-1.15c.58-.29.07-1.14-.5-.86-1.33.65-2.43,1.63-3.23,2.87-.31.48.39,1.01.79.61,1.9-1.98,3.35-4.29,4.34-6.85.15-.4-.39-.81-.73-.56-.93.66-1.71,1.45-2.37,2.39l.86.5,2.29-4.01c.32-.57-.5-1.02-.86-.5-.8,1.14-1.53,2.32-2.19,3.54-.31.57.55,1.07.86.5.84-1.52,1.59-3.09,2.25-4.7.19-.45-.53-.87-.84-.49-.73.92-1.38,1.88-1.94,2.9-.31.56.54,1.06.86.5.87-1.52,1.62-3.11,2.25-4.75.21-.56-.61-.82-.91-.39-1.35,1.97-2.69,3.93-4.04,5.9l.86.5,2.04-3.89c.25-.48-.39-1.05-.79-.61-1.59,1.77-3.12,3.59-4.58,5.47-.72.93-1.43,1.86-2.11,2.82-.32.44-.64.89-.95,1.34-.19.27-.66,1.24-1.1,1.11-.32-.1-.43-.73-.49-1-.12-.58-.18-1.18-.28-1.76-.21-1.22-.47-2.44-.77-3.64-.22-.87-.39-1.9-1.05-2.57-.53-.53-1.36-.61-1.92-.09-.79.74-.97,2.18-1.21,3.17-.32,1.31-.53,2.65-.68,3.99h1c-.15-4.14-.77-8.25-1.86-12.25-.15-.56-.95-.42-.98.13-.1,1.9.38,3.77,1.39,5.39.18.29.54.32.79.1.76-.66.16-1.88-.06-2.66-.35-1.22-.7-2.43-1.05-3.65-.71-2.47-1.44-4.93-2.17-7.4-.15-.52-1.05-.45-.98.13.26,2.26.77,4.47,1.53,6.61.19.52.97.45.98-.13.06-2.46-.06-4.91-.36-7.35-.08-.62-1-.66-1,0,0,2.51.04,5.02.14,7.54l.98-.13c-.32-1.76-.63-3.53-.95-5.29l-.96.27c1.02,5.33,2.03,10.67,3.05,16l.96-.27c-.65-1.62-1.3-3.24-1.96-4.86-.16-.41-.86-.54-.96,0-.31,1.64-.45,3.3-.4,4.97l.93-.25c-.55-1.28-.94-2.61-1.2-3.98-.12-.64-1.05-.36-.96.27.29,2,.75,3.95,1.4,5.86.2.61,1.12.36.96-.27-.46-1.89-1.15-3.71-2.08-5.42-.28-.52-1.03-.15-.91.39.46,2.2,1.32,4.3,2.55,6.18.31.47,1.05.18.91-.39-.37-1.54-1.01-2.98-1.91-4.29-.25-.36-1-.29-.93.25.15,1.23.61,2.32,1.41,3.27.29.35.85.05.85-.35l.04-3.53-.93.25c.71,1.61,1.41,3.23,2.12,4.84.24.55,1.02.14.91-.39-.3-1.52-.79-2.98-1.43-4.39l-.86.5,1.51,2.89c.26.49,1.12.15.91-.39-.48-1.22-1.06-2.38-1.76-3.49-.29-.46-1.09-.18-.91.39.43,1.35,1.3,2.47,2.52,3.2.21.13.58.07.68-.18.32-.75.46-1.51.36-2.33l-.93.25c.48.75.96,1.5,1.43,2.26.24.38.99.27.93-.25-.1-.93-.21-1.85-.31-2.78l-.93.25,1.1,1.89c.33.57,1.12.07.86-.5l-.46-1.02-.86.5.71,1.32.86-.5c-.6-1.1-1.32-2.12-2.14-3.06-.34-.38-.97.02-.84.49l1.01,3.54.84-.49-.54-.5c-.33-.3-.83-.08-.85.35-.05.8.05,1.59.27,2.36.18.62,1.14.35.96-.27-.2-.69-.27-1.38-.23-2.1l-.85.35.54.5c.36.33.98.01.84-.49l-1.01-3.54-.84.49c.77.88,1.43,1.83,1.98,2.86.31.57,1.17.06.86-.5l-.71-1.32c-.31-.58-1.12-.07-.86.5l.46,1.02.86-.5-1.1-1.89c-.23-.4-.99-.26-.93.25.1.93.21,1.85.31,2.78l.93-.25c-.48-.75-.96-1.5-1.43-2.26-.24-.38-1-.27-.93.25.08.63.03,1.23-.22,1.82l.68-.18c-.99-.6-1.71-1.5-2.06-2.6l-.91.39c.66,1.03,1.22,2.11,1.66,3.25l.91-.39-1.51-2.89c-.3-.58-1.13-.07-.86.5.6,1.33,1.04,2.72,1.33,4.15l.91-.39c-.71-1.61-1.41-3.23-2.12-4.84-.21-.48-.93-.21-.93.25l-.04,3.53.85-.35c-.61-.73-1-1.62-1.12-2.56l-.93.25c.85,1.24,1.46,2.59,1.81,4.05l.91-.39c-1.19-1.82-2.01-3.82-2.45-5.94l-.91.39c.88,1.64,1.54,3.37,1.97,5.18l.96-.27c-.64-1.91-1.11-3.87-1.4-5.86l-.96.27c.28,1.46.72,2.86,1.3,4.22.2.47.95.22.93-.25-.05-1.58.07-3.15.37-4.7h-.96c.65,1.62,1.3,3.24,1.96,4.86.24.59,1.09.38.96-.27-1.02-5.33-2.03-10.67-3.05-16-.12-.63-1.08-.36-.96.27.32,1.76.63,3.53.95,5.29.1.56,1,.43.98-.13-.1-2.51-.15-5.02-.14-7.54h-1c.3,2.44.42,4.89.36,7.35l.98-.13c-.73-2.06-1.24-4.18-1.49-6.35l-.98.13c.64,2.15,1.27,4.3,1.9,6.46.31,1.06.61,2.12.92,3.17.16.55.32,1.1.47,1.65.09.3.52,1.21.25,1.45l.79.1c-.92-1.48-1.35-3.14-1.26-4.88l-.98.13c1.07,3.92,1.68,7.93,1.83,11.99.02.66.93.63,1,0,.13-1.22.34-2.42.62-3.61.13-.54.27-1.07.43-1.61.1-.35.24-1.17.67-1.28.8-.21,1.13,2.03,1.24,2.49.29,1.17.53,2.34.73,3.52.19,1.1.38,4.05,2.29,3.3.82-.33,1.32-1.41,1.79-2.09.65-.92,1.32-1.83,2.01-2.73,1.61-2.11,3.3-4.14,5.08-6.11l-.79-.61-2.04,3.89c-.3.57.5,1.03.86.5,1.35-1.97,2.69-3.93,4.04-5.9l-.91-.39c-.6,1.56-1.32,3.06-2.15,4.51l.86.5c.52-.95,1.11-1.85,1.78-2.7l-.84-.49c-.63,1.53-1.35,3.01-2.15,4.46l.86.5c.66-1.22,1.39-2.4,2.19-3.54l-.86-.5-2.29,4.01c-.32.57.5,1.02.86.5.55-.79,1.23-1.47,2.01-2.03l-.73-.56c-.92,2.39-2.31,4.56-4.08,6.41l.79.61c.72-1.1,1.7-1.94,2.88-2.51l-.5-.86-2.27,1.15c-.45.23-.23.94.25.93,1.56-.02,3.11-.26,4.6-.72l-.27-.96c-1,.33-1.95.76-2.86,1.29-.43.25-.24.92.25.93,1.27.02,2.52-.08,3.78-.27l-.27-.96c-1.88.63-3.72,1.39-5.49,2.28l.5.86c1.04-.54,1.99-1.21,2.87-1.98.42-.37-.13-1.1-.61-.79-1.75,1.16-3.4,2.46-4.94,3.88l.79.61c.23-.52.52-.98.9-1.4l-.79-.61-1.67,3.12.86.5c.7-1.36,1.33-2.75,1.88-4.18.19-.49-.5-.81-.84-.49-1.16,1.14-2.31,2.28-3.47,3.42l.85.35c.11-.92.25-2.07,1-2.71.47-.4,1.14-.48,1.72-.6s1.17-.23,1.76-.32c2.34-.36,4.83-.38,6.96.8l.25-.93-1.87-.19c-.65-.07-.63.92,0,1,1.43.18,2.82.58,4.13,1.18l.25-.93c-2.05-.22-3.16-2.24-3.68-4.01-.59-2.03-.95-4.14-1.3-6.22l-.96.27.55,2.42c.12.55,1.01.43.98-.13l-.21-4.79c-.03-.64-1.01-.65-1,0l.04,3.64.98-.13-.89-2.69c-.17-.51-1.03-.46-.98.13.22,2.52.76,4.99,1.62,7.36.22.61,1.07.37.96-.27-.43-2.44-.85-4.87-1.28-7.31l-.96.27c.48,1.94.97,3.88,1.45,5.82.13.54,1.03.44.98-.13-.14-1.75-.48-3.46-1.02-5.13-.17-.51-1.01-.46-.98.13.08,1.56.09,3.13.03,4.69l.98-.13c-.57-2.82-1-5.67-1.29-8.53l-.98.13c.34,1.11.35,2.22.03,3.34h.96c-.57-2.1-.63-4.27-.16-6.4l-.96-.27c-.21,1.37-.59,2.7-1.17,3.97l.91.39c.21-1.38.37-2.77.48-4.17.04-.45-.56-.63-.85-.35l-3.78,3.57.84.49c.42-1.17,1.28-2.06,2.41-2.57l-.61-.79c-.86.95-1.73,1.9-2.59,2.85l.79.61c1.11-1.95,2.6-3.66,4.41-5l-.73-.56c-.05.35-.21.61-.55.73l.56.73c.65-1.28,1.82-2.12,3.24-2.33l-.62-.62c-.36,1.37-.78,2.72-1.27,4.04-.19.51.49.77.84.49,1.28-1.07,2.55-2.13,3.83-3.2.46-.38-.13-1.02-.61-.79l-2.58,1.27.61.79c.91-.86,1.9-1.6,2.98-2.23.4-.23.26-1-.25-.93l-3.42.43c-.63.08-.64,1.07,0,1,2.89-.32,5.6-1.29,8.31-2.3.59-.22.36-1.16-.27-.96-4.13,1.3-8.07,3.15-11.69,5.51l.61.79,2.05-1.82c.27-.24.14-.77-.22-.84-2.58-.48-5.18-.79-7.8-.93v1c1,.04,1.97.17,2.95.4.63.15.89-.81.27-.96-1.5-.37-3.04-.49-4.58-.33-.45.05-.73.68-.25.93.89.47,1.85.63,2.83.78s2.05.29,2.84.96l.22-.84c-2.87.44-5.79.34-8.62-.28l-.13.98c1.94-.16,3.84.1,5.66.77l.27-.96c-1.91-.57-3.68-1.52-5.2-2.81-.48-.41-1.18.26-.71.71.8.76,1.59,1.51,2.39,2.27.38.36.77.72,1.15,1.09.34.33.71.67.68,1.19l.37-.48c-1.03.34-2.01-.29-2.84-.84-.76-.5-1.49-1.06-2.18-1.67-1.4-1.24-2.62-2.67-3.63-4.25-.35-.55-1.14-.07-.86.5.74,1.52,1.63,2.96,2.65,4.31.38.5,1.18.08.86-.5-1.1-2.03-2.26-4.03-3.5-5.98-.35-.55-1.15-.07-.86.5.91,1.82,1.83,3.64,2.74,5.46l.86-.5c-1.69-2.32-2.99-4.88-3.87-7.61l-.91.39c.72.95,1.44,1.9,2.17,2.85.38.5,1.23.05.86-.5-1.92-2.91-3.84-5.81-5.76-8.72-.25-.38-.97-.27-.93.25.14,2.15-.21,4.25-1.05,6.24l.96.27c.6-2.47,1.14-4.96.79-7.51-.08-.58-.96-.4-.98.13-.05,1.02.47,1.85,1.07,2.63.77,1,1.34,1.96,1.78,3.15.96,2.59,1.81,5.22,2.58,7.88l.91-.39c-1.2-2.62-2.2-5.31-3.01-8.07-.18-.62-1.15-.35-.96.27h0Z"/>
  <g>
    <path class="cls-2" d="M47.87,30.69c1.57,9.39,3.14,18.77,4.71,28.16.45,2.66.89,5.33,1.34,7.99l.96-.27c-1.08-4.27-1.17-8.67-1.57-13.04s-1.48-8.48-2.48-12.68c-.55-2.31-.99-4.7-1.92-6.9-.2-.48-.99-.48-.98.13.08,6.54-.99,13.05-3.17,19.22l.96.27c1.35-5.06,3.38-10.06,3.26-15.38,0-.4-.56-.7-.85-.35-.9,1.05-1.1,2.44-1.43,3.73-.4,1.55-.82,3.09-1.27,4.62-.9,3.06-1.92,6.1-3.03,9.09-.2.55.63.85.91.39,1.54-2.51,3.07-5.09,3.69-8,.08-.38-.36-.85-.73-.56-2.12,1.6-3.09,4.03-4.21,6.35-1.38,2.85-3.32,5.31-5.31,7.76l.79.61c2.52-3.72,5.04-7.45,7.56-11.17.37-.54-.49-1.01-.86-.5-3.03,4.03-6.06,8.06-9.08,12.08l.86.5c2.02-3.52,6.36-5.37,7.32-9.56.12-.52-.45-.79-.84-.49-1.41,1.11-2.32,2.7-3.42,4.09s-2.32,2.67-3.63,3.85c-2.65,2.39-5.69,4.31-8.97,5.71l.61.79c2.42-2.3,5.59-3.58,8.25-5.56s5.15-4.53,7.52-7.01l-.71-.71c-.72.79-1.45,1.59-2.17,2.38-.43.48.27,1.18.71.71.72-.79,1.45-1.59,2.17-2.38.43-.47-.26-1.17-.71-.71-2.41,2.52-4.84,5.07-7.67,7.11-2.64,1.91-5.71,3.19-8.1,5.45-.44.42.12.99.61.79,3.29-1.41,6.34-3.35,9.02-5.73,1.32-1.18,2.55-2.46,3.66-3.83s2.09-3.1,3.55-4.24l-.84-.49c-.92,4.02-5.27,5.91-7.22,9.32-.33.57.49,1.01.86.5,3.03-4.03,6.06-8.06,9.08-12.08l-.86-.5c-2.52,3.72-5.04,7.45-7.56,11.17-.31.46.43,1.05.79.61,1.91-2.35,3.84-4.73,5.21-7.45,1.14-2.26,2-4.92,4.1-6.5l-.73-.56c-.6,2.83-2.1,5.32-3.59,7.76l.91.39c1.06-2.84,2.02-5.72,2.89-8.63.42-1.42.82-2.84,1.2-4.27.19-.72.37-1.44.55-2.17s.36-1.38.84-1.94l-.85-.35c.11,5.23-1.9,10.14-3.23,15.12-.17.63.75.87.96.27,2.2-6.25,3.29-12.86,3.2-19.49l-.98.13c.82,1.94,1.24,4.02,1.72,6.06.51,2.14,1.02,4.29,1.52,6.44s.88,4.27,1.09,6.45.31,4.36.51,6.54c.22,2.4.54,4.8,1.13,7.14.16.64,1.07.36.96-.27-1.57-9.39-3.14-18.77-4.71-28.16-.45-2.66-.89-5.33-1.34-7.99-.11-.63-1.07-.36-.96.27h0Z"/>
    <path class="cls-2" d="M28.98,66.4c5.6-.94,11.13-2.19,16.59-3.75.62-.18.35-1.14-.27-.96-5.45,1.56-10.99,2.82-16.59,3.75-.63.11-.36,1.07.27.96h0Z"/>
    <path class="cls-2" d="M31.9,64.82c5.75-1.81,11.49-3.61,17.24-5.42.61-.19.35-1.16-.27-.96-5.75,1.81-11.49,3.61-17.24,5.42-.61.19-.35,1.16.27.96h0Z"/>
    <path class="cls-2" d="M31.63,65.24c5.35-.6,10.64-1.53,15.93-2.49.73-.13,1.98-.45,1.59-1.49-.33-.89-1.78-.93-2.56-1.04-2.33-.32-4.69-.13-6.98.39-2.63.6-5.15,1.65-7.52,2.92-.49.26-.15,1.11.39.91,6.2-2.27,12.4-4.53,18.6-6.8l-.39-.91c-4.93,2.67-10.13,4.8-15.57,6.2l.27.96c6.04-2.24,12.2-4.13,18.46-5.66l-.39-.91c-5.02,3.34-10.76,5.25-16.45,7.12l.39.91c5.6-2.64,11.58-4.4,17.71-5.24.56-.08.43-1.01-.13-.98-5.94.32-11.82,1.34-17.52,3.03l.27.96c3.75-1.24,7.58-2.16,11.48-2.77l-.39-.91c-3.22,1.47-6.9,1.4-10.13,2.87-.52.24-.15,1.07.39.91,2.39-.69,4.77-1.39,7.16-2.08.55-.16.43-.96-.13-.98-2.22-.07-4.43.12-6.61.57l.56.73c1.44-2.08,3.01-4.08,4.71-5.96.81-.9,1.65-1.77,2.52-2.62.91-.89,1.83-1.78,2.98-2.36l-.68-.68c-2.38,4.33-6.33,7.42-10.18,10.39l.68.68c2.12-3.82,4.66-7.38,7.2-10.93.33-.46-.42-1.04-.79-.61-3.15,3.65-6.05,7.51-8.69,11.54-.36.55.49,1.02.86.5,2.53-3.5,5.21-6.89,8.05-10.15l-.79-.61c-2.45,3.24-4.9,6.49-7.03,9.95-.29.47.41,1.04.79.61,4.63-5.42,8.8-11.22,12.45-17.34.33-.56-.51-1.04-.86-.5-2.81,4.3-5.27,8.81-7.36,13.5l.91.39c.59-1.69,1.14-3.39,1.69-5.1s1.13-3.28,1.03-5.01c-.03-.56-.8-.68-.98-.13-.9,2.7-1.79,5.4-2.69,8.09l.96.27c.81-3.18,1.3-6.43,1.47-9.7.03-.64-.97-.64-1,0-.17,3.19-.65,6.34-1.44,9.44-.16.63.76.87.96.27.9-2.7,1.79-5.4,2.69-8.09l-.98-.13c.1,1.72-.55,3.37-1.07,4.98s-1.05,3.25-1.61,4.87c-.18.53.68.91.91.39,2.09-4.69,4.55-9.2,7.36-13.5l-.86-.5c-3.61,6.05-7.72,11.78-12.3,17.13l.79.61c2.13-3.46,4.58-6.71,7.03-9.95.34-.45-.41-1.03-.79-.61-2.89,3.33-5.63,6.78-8.2,10.35l.86.5c2.59-3.96,5.44-7.75,8.54-11.34l-.79-.61c-2.54,3.55-5.08,7.11-7.2,10.93-.22.4.26,1.01.68.68,3.98-3.07,8.06-6.26,10.53-10.75.25-.45-.24-.91-.68-.68-1.12.57-2.04,1.42-2.93,2.28-.95.92-1.87,1.88-2.76,2.86-1.76,1.94-3.38,4.01-4.87,6.16-.27.39.17.81.56.73,2.09-.43,4.21-.6,6.34-.53l-.13-.98c-2.39.69-4.77,1.39-7.16,2.08l.39.91c3.22-1.46,6.9-1.39,10.13-2.87.56-.26.13-.99-.39-.91-3.9.6-7.74,1.53-11.48,2.77-.61.2-.36,1.15.27.96,5.62-1.67,11.41-2.68,17.26-2.99l-.13-.98c-6.22.86-12.27,2.67-17.95,5.35-.51.24-.15,1.09.39.91,5.76-1.9,11.6-3.84,16.69-7.22.47-.31.18-1.05-.39-.91-6.26,1.53-12.42,3.42-18.46,5.66-.59.22-.37,1.13.27.96,5.51-1.42,10.8-3.59,15.81-6.3.49-.26.15-1.11-.39-.91-6.2,2.27-12.4,4.53-18.6,6.8l.39.91c3.62-1.94,7.65-3.37,11.81-3.33,1.01,0,2.01.1,3,.3.14.03.58.04.66.17.1.16.09-.04.02.08-.02.04-.3.08-.31.08-.56.12-1.13.21-1.7.31-2.22.4-4.44.79-6.67,1.16-2.59.42-5.18.79-7.79,1.08-.63.07-.64,1.07,0,1h0Z"/>
    <path class="cls-2" d="M48.76,33.57c2.54,6.86,6.44,13.1,9.15,19.89l.91-.39c-3.36-5.49-6.19-11.29-8.43-17.32-.22-.6-1.1-.37-.96.27,1.5,7.09,3.89,13.97,5.17,21.1l.96-.27c-2.42-6.18-4.24-12.58-5.42-19.11-.1-.55-1.02-.43-.98.13.69,9.53,2.08,19,4.18,28.31l.96-.27c-1.8-7.75-2.27-15.7-2.93-23.61-.05-.65-.92-.63-1,0-1.09,8.71-1.55,17.49-1.36,26.27.01.64.99.64,1,0,.12-8.35-.38-16.69-.94-25.01h-1c.41,5.23,1.1,10.43,2.07,15.58.11.56.99.42.98-.13-.05-6.54-1.78-12.94-1.71-19.48h-1c.13,8.29.94,16.56,2.4,24.73.1.55,1.05.43.98-.13-.58-4.72-1.16-9.44-1.73-14.16l-.98.13c.07.22.14.44.21.66.2.61,1.17.35.96-.27-.07-.22-.14-.44-.21-.66-.16-.5-1.05-.46-.98.13.58,4.72,1.16,9.44,1.73,14.16l.98-.13c-1.45-8.07-2.24-16.26-2.37-24.46-.01-.64-.99-.64-1,0-.07,6.54,1.66,12.94,1.71,19.48l.98-.13c-.95-5.07-1.63-10.18-2.03-15.32-.05-.64-1.04-.65-1,0,.56,8.33,1.06,16.66.94,25.01h1c-.19-8.78.27-17.56,1.36-26.27h-1c.67,7.99,1.14,16.04,2.96,23.87.15.63,1.11.36.96-.27-2.07-9.23-3.46-18.61-4.14-28.05l-.98.13c1.19,6.53,3.01,12.93,5.42,19.11.23.6,1.08.37.96-.27-1.29-7.14-3.67-14.01-5.17-21.1l-.96.27c2.27,6.11,5.13,12,8.53,17.56.28.46,1.13.16.91-.39-2.7-6.79-6.61-13.03-9.15-19.89-.22-.6-1.19-.34-.96.27h0Z"/>
    <path class="cls-2" d="M48.14,42.23l-1.28,3.17-.64,1.58c-.15.38-.31,1.04-.74,1.19l.62.35c-.19-.85.02-1.64.54-2.33h-.86c1.56,2.56,2.15,5.62,1.62,8.57-.12.64.72.85.96.27.7-1.68,1.27-3.41,1.62-5.2.31-1.61.57-3.36-.05-4.93-.14-.34-.72-.56-.91-.12-2.63,6.13-3.81,12.81-3.4,19.47.03.52.89.72.98.13.91-5.88,1.53-11.81,1.85-17.76.04-.65-.93-.63-1,0-.57,5.06-.69,10.15-.35,15.23.04.65.94.64,1,0,.37-3.93.46-7.89.27-11.83-.03-.64-1.02-.65-1,0,.14,5.5.18,11.01.11,16.51l.98-.13c-.95-3.8-.66-7.79-1.74-11.57-.16-.56-.94-.42-.98.13-.45,5.89-.89,11.77-1.34,17.66-.05.65.94.63,1,0,.28-2.9.55-5.81.83-8.71l.4-4.23c.14-1.47.33-2.95.2-4.43-.05-.55-.81-.7-.98-.13-1.54,4.97-2.8,10.03-3.79,15.14l.98.13c.21-3.43.59-6.86.97-10.27.07-.64-.93-.63-1,0-.38,3.42-.76,6.84-.97,10.27-.03.56.87.69.98.13.99-5.11,2.25-10.16,3.79-15.14l-.98-.13c.13,1.44-.05,2.87-.18,4.3s-.28,2.9-.41,4.35c-.28,2.9-.55,5.81-.83,8.71h1c.45-5.89.89-11.77,1.34-17.66l-.98.13c1.08,3.77.79,7.77,1.74,11.57.14.55.98.43.98-.13.07-5.5.03-11.01-.11-16.51h-1c.18,3.95.09,7.9-.27,11.83h1c-.34-5.08-.22-10.17.35-15.23h-1c-.32,5.86-.93,11.69-1.82,17.49l.98.13c-.41-6.47.7-13,3.26-18.97l-.91-.12c.61,1.54.29,3.28-.05,4.85s-.89,3.21-1.53,4.74l.96.27c.58-3.22-.02-6.54-1.72-9.34-.21-.35-.64-.29-.86,0-.68.9-.88,2.01-.64,3.1.06.25.37.44.62.35,1.06-.38,1.34-1.63,1.72-2.57l1.64-4.07c.24-.6-.73-.86-.96-.27h0Z"/>
    <path class="cls-2" d="M35.1,65.48c1.52.05,2.53,1.47,3.32,2.6.92,1.32,1.84,2.66,2.52,4.12,1.51,3.2,1.19,6.97.28,10.31-.17.63.75.86.96.27,1.23-3.39,3.07-6.51,5.1-9.48,1-1.47,2.05-2.9,3.1-4.33s2.12-2.92,3.51-4.09c.49-.41-.22-1.12-.71-.71-1.37,1.15-2.41,2.6-3.47,4.03-1.12,1.52-2.24,3.04-3.3,4.59-2.08,3.05-3.94,6.25-5.2,9.72l.96.27c1-3.7,1.25-7.75-.48-11.27-.8-1.63-1.84-3.18-2.93-4.62-.92-1.22-2.06-2.35-3.68-2.4-.64-.02-.64.98,0,1h0Z"/>
    <path class="cls-2" d="M43.66,78.3c2.49-5.33,5.38-10.45,8.67-15.32.36-.54-.51-1.04-.86-.5-3.29,4.87-6.18,10-8.67,15.32-.27.58.59,1.09.86.5h0Z"/>
    <path class="cls-2" d="M43.31,77.67c-.45-3.15.47-6.67-1.82-9.31-.33-.39-.97.03-.84.49.71,2.51,1.42,5.02,2.13,7.53l.96-.27c-.78-2.33-1.53-4.68-2.46-6.95-.76-1.86-1.75-3.6-3.41-4.8-.52-.38-1.01.48-.5.86,1.76,1.32,3.35,2.84,4.76,4.53.32.38,1-.03.84-.49l-2.33-6.64c-.18-.51-1-.46-.98.13.04,1.11,1.27,1.39,2.1.89.59-.36,1.1-.89,1.62-1.35.54-.49,1.08-.98,1.6-1.49,2.14-2.04,4.14-4.22,6.09-6.44.31-.36.02-.99-.49-.84-4.38,1.31-8.6,3.96-10.09,8.51-.16.5.49.81.84.49,3-2.76,6.01-5.52,9.01-8.27l-.71-.71c-2.87,3.38-5.73,6.75-8.6,10.13l.79.61,4.95-8.51-.86-.5c-1.41,2.68-2.61,5.47-3.6,8.34l.98.13c0-1.29-.22-2.55-.67-3.76-.19-.5-.99-.46-.98.13.04,2.9.32,5.79.84,8.65l.84-.49c-1.46-1.64-2.92-3.27-4.38-4.91l-.71.71c1.32,1.46,2.59,2.95,3.83,4.48l.61-.79c-.94-.68-1.75-1.5-2.42-2.45l-.68.68c.76.51,1.47,1.08,2.14,1.71.2.19.51.19.71,0,.37-.35.5-.78.57-1.27.1-.75.16-1.51.22-2.26.11-1.52.16-3.04.14-4.56,0-.66-.92-.62-1,0-.36,2.69-.64,5.39-.85,8.09-.04.57.84.67.98.13.98-3.77,1.97-7.53,2.95-11.3.14-.53-.68-.92-.91-.39-1.19,2.7-2.24,5.46-3.15,8.27l.98.13c-.23-1.93.03-3.82.77-5.62l-.98-.13c-.26,3.53-.53,7.06-.59,10.6-.02.86-.02,1.73-.01,2.59,0,.56-.14,1.41.26,1.87.44.51,1.17.26,1.71.11.82-.22,1.65-.43,2.47-.65.62-.16.36-1.13-.27-.96-.67.18-1.35.36-2.02.53-.22.06-.77.32-1,.26-.18-.05-.12-.07-.14-.3-.01-.16,0-.33,0-.49-.03-1.52,0-3.04.05-4.56.1-3,.33-6,.55-8.99.05-.61-.79-.61-.98-.13-.77,1.86-1.04,3.88-.81,5.88.06.54.8.7.98.13.88-2.73,1.89-5.41,3.05-8.04l-.91-.39c-.98,3.77-1.97,7.53-2.95,11.3l.98.13c.21-2.7.49-5.4.85-8.09h-1c.01,1.27-.02,2.55-.09,3.82-.04.62-.08,1.23-.14,1.84-.05.52.01,1.33-.4,1.72h.71c-.73-.69-1.51-1.31-2.34-1.87-.4-.27-.97.28-.68.68.77,1.09,1.69,2.02,2.78,2.81.5.36.93-.38.61-.79-1.23-1.53-2.51-3.02-3.83-4.48-.43-.48-1.13.23-.71.71,1.46,1.64,2.92,3.27,4.38,4.91.36.4.92-.04.84-.49-.5-2.77-.77-5.57-.8-8.38l-.98.13c.42,1.13.63,2.29.63,3.49,0,.58.8.66.98.13.96-2.79,2.13-5.49,3.5-8.1.3-.57-.54-1.06-.86-.5l-4.95,8.51c-.28.48.41,1.05.79.61,2.87-3.38,5.73-6.75,8.6-10.13.41-.49-.23-1.15-.71-.71-3,2.76-6.01,5.52-9.01,8.27l.84.49c1.37-4.2,5.37-6.61,9.39-7.81l-.49-.84c-1.49,1.7-3.02,3.38-4.61,4.99-.78.79-1.58,1.56-2.4,2.32-.39.36-.79.72-1.2,1.08-.12.1-1.47,1.3-1.49.71l-.98.13,2.33,6.64.84-.49c-1.47-1.76-3.13-3.31-4.96-4.68l-.5.86c1.58,1.15,2.47,2.97,3.16,4.75.82,2.11,1.53,4.26,2.25,6.4.2.61,1.14.36.96-.27-.71-2.51-1.42-5.02-2.13-7.53l-.84.49c2.07,2.39,1.15,6,1.56,8.86.09.63,1.05.36.96-.27h0Z"/>
    <path class="cls-2" d="M44.46,78.13c.91-.98,1.82-1.96,2.74-2.94.42-.45.76-.83,1.41-.85.6-.02,1.15.07,1.74-.08.63-.16.36-1.09-.27-.96-1.4.29-2.74.74-4.03,1.34-.51.24-.15,1.11.39.91,3.17-1.18,6.65-1.94,10.05-1.85.92.03,1.75.24,2.56.69.67.37,1.3.79,2.01,1.09,1.16.5,2.62.8,3.4,1.88.38.53,1.11.09.86-.5-2.19-5.19-3.3-10.79-3.3-16.42,0-.64-1-.64-1,0,0,5.82,1.17,11.57,3.43,16.92l.86-.5c-.85-1.17-2.16-1.61-3.46-2.12-1.61-.63-2.9-1.79-4.67-1.99s-3.67.06-5.44.35c-1.9.31-3.77.82-5.57,1.49l.39.91c1.21-.56,2.48-.97,3.79-1.24l-.27-.96c-.64.16-1.29-.02-1.93.09-.56.09-.98.4-1.37.8-1.03,1.06-2.02,2.16-3.02,3.24-.44.47.27,1.18.71.71h0Z"/>
    <path class="cls-2" d="M63.63,75.4c-2.88-7.57-5.78-15.2-7.36-23.17-.46-2.29-.79-4.61-.99-6.94-.05-.64-1.05-.64-1,0,.7,8.19,3.11,16.07,5.91,23.75.81,2.21,1.64,4.41,2.48,6.62.23.6,1.19.34.96-.27h0Z"/>
    <path class="cls-2" d="M62.93,72.08c-1.65-4.82-3.31-9.65-4.54-14.6-.56-2.24-1.01-4.51-1.7-6.72-.34-1.09-.74-2.17-1.22-3.21-.42-.9-.87-1.93-1.76-2.47-.3-.18-.79.05-.75.43.58,5.7,2.38,11.22,5.3,16.15.29.49,1.06.17.91-.39-1.74-6.49-4.2-12.75-6.66-19-.19-.47-1.06-.48-.98.13,1.02,7.77,3.64,15.17,6.62,22.38.85,2.05,1.72,4.09,2.6,6.14.22.52,1.11.15.91-.39-2.36-6.56-3.68-13.51-7-19.7-.29-.54-.99-.14-.91.39.95,6.33,3.28,12.34,4.45,18.62l.96-.27c-1.03-3.07-2.06-6.14-3.1-9.21s-1.92-5.86-3.28-8.63c-.22-.45-.94-.23-.93.25.07,2.93.14,5.86.21,8.79l.85-.35c-1.75-2.18-2.95-4.73-3.53-7.46-.1-.47-.88-.49-.96,0-.44,2.61-.89,5.23-1.33,7.84-.08.45.47.89.84.49,1.82-1.97,3.64-3.94,5.47-5.91.21-.22.2-.63-.1-.79-.96-.49-2.06-.25-2.84.48-.92.87-1.07,2.23-.96,3.43.03.35.41.65.75.43,2.18-1.4,3.99-3.28,5.3-5.51.28-.48-.41-1.05-.79-.61-1.87,2.19-3.65,4.45-5.33,6.79h.86c-.19-.42.17-1.14.3-1.55.15-.51.32-1.03.49-1.53.36-1.05.76-2.08,1.21-3.09l-.91-.39c-.48,2.04-.96,4.08-1.43,6.12l.98.13c.01-2.04.02-4.08.04-6.12,0-.64-1-.64-1,0-.01,2.04-.02,4.08-.04,6.12,0,.56.85.69.98.13.48-2.04.96-4.08,1.43-6.12.12-.52-.68-.93-.91-.39-.54,1.23-1.03,2.49-1.45,3.77-.34,1.02-1.01,2.37-.54,3.42.17.38.67.27.86,0,1.63-2.27,3.35-4.46,5.17-6.59l-.79-.61c-1.23,2.08-2.91,3.84-4.95,5.15l.75.43c-.07-.81-.07-1.72.41-2.42.4-.59,1.2-.97,1.88-.63l-.1-.79c-1.82,1.97-3.64,3.94-5.47,5.91l.84.49c.44-2.61.89-5.23,1.33-7.84h-.96c.62,2.91,1.92,5.59,3.78,7.91.28.34.86.05.85-.35-.07-2.93-.14-5.86-.21-8.79l-.93.25c1.35,2.77,2.28,5.71,3.26,8.62s2.01,5.99,3.02,8.98c.21.61,1.08.36.96-.27-1.18-6.28-3.51-12.29-4.45-18.62l-.91.39c3.28,6.11,4.57,12.99,6.9,19.46l.91-.39c-3.87-9.01-7.79-18.2-9.08-28.01l-.98.13c2.46,6.25,4.91,12.51,6.66,19l.91-.39c-2.83-4.77-4.6-10.13-5.16-15.65l-.75.43c.87.53,1.33,1.89,1.7,2.8.43,1.02.77,2.07,1.07,3.14.62,2.17,1.06,4.39,1.63,6.57,1.22,4.7,2.79,9.3,4.36,13.9.21.61,1.17.35.96-.27h0Z"/>
    <path class="cls-2" d="M44.24,70.43c-.66,1.68-1.32,3.35-1.99,5.03l.96.27c.82-5.04,1.28-10.13,1.35-15.23,0-.66-.93-.62-1,0-.66,5.47-1.31,10.96-1.33,16.48,0,.55.87.7.98.13.77-3.95,1.77-7.86,2.99-11.7.17-.53-.66-.9-.91-.39-2,4.01-2.09,8.53-3.06,12.82l.96.27c.99-4.87,1.97-9.75,2.33-14.71.04-.55-.9-.69-.98-.13-.56,3.63-.93,7.29-1.09,10.96-.02.55.88.69.98.13.3-1.74.61-3.48.91-5.22s.47-3.46.9-5.11c.21-.82,1.15-1.06,1.84-1.4.77-.38,1.54-.76,2.31-1.14,1.61-.79,3.23-1.59,4.84-2.38l-.5-.86c-3.22,1.92-6.44,3.84-9.79,5.53l.5.86c3.58-1.85,7.03-3.94,10.34-6.25.52-.36.04-1.22-.5-.86-3.78,2.46-7.46,5.08-11.02,7.84l.71.71c2.68-2.61,5.47-5.1,8.37-7.45l-.71-.71c-2.87,3.66-6.24,6.87-9.61,10.06-.48.46.21,1.09.71.71,4.79-3.71,9.59-7.41,14.73-10.63l-.5-.86c-4.39,3.12-8.78,6.24-13.18,9.36-.52.37-.04,1.22.5.86,4.67-3.08,9.34-6.15,14.01-9.23l-.5-.86c-4.85,3.33-9.7,6.67-14.3,10.35-.44.35.15,1.13.61.79,2.79-2.13,5.58-4.25,8.38-6.38l-.61-.79c-3.09,2.76-6.19,5.53-9.28,8.29-.42.38.13,1.09.61.79,5.53-3.5,11.01-7.15,16.79-10.25l-.5-.86c-5.21,3.47-10.55,6.71-16.03,9.73l.61.79c4.92-4.4,9.91-8.72,14.99-12.93l-.71-.71c-4.21,3.54-8.44,7.11-11.92,11.39-.33.4.1,1.14.61.79,5.15-3.66,10.15-7.52,14.99-11.58.43-.36-.14-1.11-.61-.79-6.43,4.57-12.91,9.18-18.32,14.97-.44.47.23,1.13.71.71,4.81-4.3,9.64-8.6,15.02-12.19l-.61-.79c-4.9,4.01-9.8,8.04-14.39,12.41-.48.46.21,1.09.71.71,5.19-4.04,10.38-8.08,15.57-12.11l-.71-.71c-5.12,4.61-10.57,8.82-16.02,13.03-.49.38-.04,1.24.5.86,5.96-4.08,11.92-8.17,18.15-11.82l-.61-.79c-5.34,4.21-10.84,8.22-16.48,12.03l.61.79c4.35-3.75,8.89-7.27,13.6-10.54.52-.36.04-1.22-.5-.86-4.24,2.8-8.31,5.84-12.21,9.1-.43.36.15,1.12.61.79,3.88-2.82,7.77-5.64,11.82-8.21l-.61-.79c-3.65,3.29-7.44,6.39-11.29,9.43-.84.66-1.61,1.36-2.25,2.21-.19.25-.36.51-.59.72-.05.04-.84.58-.88.35-.02-.12,1.45-.53,1.6-.58,1.15-.38,2.3-.76,3.44-1.14s2.4-.79,3.67-.88c.64-.05.65-.99,0-1-1.9-.02-3.79.05-5.68.2l.13.98c2.62-.46,5.25-.9,7.92-.65l-.13-.98c-1.48.45-3,.73-4.54.82-.64.04-.65.98,0,1,2.22.07,4.43.25,6.62.57,1.69.25,3.67.45,4.83,1.86.36.44,1.11-.14.79-.61-1.27-1.82-1.89-4.06-2.56-6.15s-1.33-4.06-2.35-5.94c-.29-.53-1-.14-.91.39.57,3.37,1.45,6.67,2.63,9.88l.84-.49c-1.93-2.4-2.86-5.46-5.06-7.66-.36-.36-.96,0-.84.49.71,2.74,2.31,5.08,3.92,7.37l.68-.68c-2.14-.91-4-2.34-5.37-4.21-.34-.46-1-.18-.91.39.34,2.11,2.76,2.72,3.63,4.51l.56-.73c-1.62-.31-3.21-.74-4.76-1.29l.12.91c1.76-.95,3.63-1.63,5.58-2.05.41-.09.5-.72.12-.91-2.61-1.33-5.45-.48-8.04.44l.39.91c2.66-1.19,5.31-2.38,7.97-3.57l-.61-.79c-2.96,2.43-5.91,4.86-8.87,7.29l.71.71c2.58-3.14,5.55-5.93,8.86-8.28l-.5-.86c-2.68,1.95-5.4,3.85-8.16,5.7-.44.29-.17,1.13.39.91,2.33-.92,4.71-1.7,7.14-2.32l-.49-.84c-.99,1.17-2.08,2.24-3.28,3.19-.45.36.13,1.08.61.79,1.9-1.18,3.79-2.36,5.69-3.54l-.61-.79c-1.11,1.09-2.22,2.18-3.33,3.28-.4.39.12,1.1.61.79.61-.39,1.15-.86,1.61-1.42.4-.49-.24-1.17-.71-.71l.07-.02c-.29-.58-1.15-.07-.86.5s1.05.66,1.5.22l-.71-.71c-.41.5-.87.92-1.41,1.26l.61.79c1.11-1.09,2.22-2.18,3.33-3.28.4-.39-.12-1.09-.61-.79-1.9,1.18-3.79,2.36-5.69,3.54l.61.79c1.2-.95,2.29-2.02,3.28-3.19.31-.37.02-.97-.49-.84-2.43.62-4.81,1.4-7.14,2.32l.39.91c2.76-1.84,5.48-3.74,8.16-5.7.51-.37.02-1.24-.5-.86-3.38,2.41-6.43,5.24-9.06,8.44-.41.5.21,1.12.71.71,2.96-2.43,5.91-4.86,8.87-7.29.47-.39-.13-1-.61-.79-2.66,1.19-5.31,2.38-7.97,3.57-.51.23-.15,1.1.39.91,2.3-.81,4.93-1.73,7.27-.54l.12-.91c-2.04.44-3.99,1.16-5.82,2.15-.4.22-.27.78.12.91,1.56.55,3.14.98,4.76,1.29.44.08.76-.33.56-.73-.42-.87-1.16-1.48-1.89-2.09s-1.47-1.2-1.63-2.18l-.91.39c1.48,2.01,3.43,3.6,5.73,4.57.4.17,1.01-.22.68-.68-1.56-2.21-3.13-4.48-3.81-7.13l-.84.49c2.19,2.19,3.13,5.27,5.06,7.66.31.39,1-.03.84-.49-1.18-3.21-2.06-6.51-2.63-9.88l-.91.39c1.05,1.94,1.71,4.03,2.38,6.12s1.29,4.2,2.53,5.97l.79-.61c-1.22-1.5-3.23-1.82-5.03-2.09-2.36-.35-4.74-.57-7.13-.64v1c1.63-.1,3.24-.38,4.81-.85.56-.17.41-.93-.13-.98-2.75-.27-5.48.2-8.19.68-.55.1-.43,1.03.13.98,1.89-.15,3.78-.22,5.68-.2v-1c-2.3.16-4.51,1.11-6.69,1.83-.54.18-1.07.36-1.61.53-.44.15-.93.27-1.26.63-.51.56-.19,1.32.49,1.54.91.29,1.74-.29,2.28-.98.69-.87,1.36-1.64,2.23-2.33,1.8-1.45,3.64-2.86,5.42-4.33,2.08-1.72,4.12-3.49,6.13-5.3.42-.38-.13-1.09-.61-.79-4.05,2.57-7.93,5.39-11.82,8.21l.61.79c3.83-3.2,7.84-6.19,12.01-8.95l-.5-.86c-4.79,3.32-9.4,6.89-13.81,10.69-.43.37.13,1.1.61.79,5.71-3.85,11.27-7.92,16.68-12.18.45-.36-.13-1.07-.61-.79-6.23,3.65-12.2,7.73-18.15,11.82l.5.86c5.52-4.26,11.04-8.53,16.22-13.19.49-.44-.21-1.09-.71-.71-5.19,4.04-10.38,8.08-15.57,12.11l.71.71c4.59-4.37,9.49-8.39,14.39-12.41.44-.36-.14-1.1-.61-.79-5.45,3.64-10.35,8-15.22,12.35l.71.71c5.35-5.73,11.75-10.3,18.12-14.82l-.61-.79c-4.77,4-9.71,7.81-14.79,11.42l.61.79c3.48-4.28,7.71-7.85,11.92-11.39.49-.42-.22-1.11-.71-.71-5.08,4.22-10.08,8.53-14.99,12.93-.43.39.12,1.05.61.79,5.48-3.02,10.83-6.27,16.03-9.73.53-.36.07-1.17-.5-.86-5.78,3.1-11.25,6.74-16.79,10.25l.61.79c3.09-2.76,6.19-5.53,9.28-8.29.42-.37-.15-1.13-.61-.79-2.79,2.13-5.58,4.25-8.38,6.38l.61.79c4.53-3.63,9.31-6.92,14.09-10.2.53-.36.04-1.22-.5-.86-4.67,3.08-9.34,6.15-14.01,9.23l.5.86c4.39-3.12,8.78-6.24,13.18-9.36.52-.37.05-1.21-.5-.86-5.21,3.26-10.08,7.03-14.93,10.79l.71.71c3.37-3.19,6.74-6.4,9.61-10.06.4-.51-.2-1.12-.71-.71-2.9,2.35-5.7,4.84-8.37,7.45-.47.46.21,1.09.71.71,3.5-2.71,7.11-5.28,10.82-7.69l-.5-.86c-3.31,2.31-6.76,4.39-10.34,6.25-.57.3-.07,1.15.5.86,3.35-1.68,6.57-3.6,9.79-5.53.56-.33.07-1.15-.5-.86-1.69.83-3.37,1.66-5.06,2.49-.84.41-1.69.83-2.53,1.24-.66.32-1.36.6-1.69,1.3s-.36,1.57-.5,2.32c-.17.97-.34,1.94-.51,2.91-.33,1.86-.65,3.72-.98,5.58l.98.13c.16-3.58.51-7.15,1.06-10.69l-.98-.13c-.34,4.87-1.32,9.66-2.29,14.44-.13.63.82.9.96.27.95-4.19,1.01-8.67,2.95-12.58l-.91-.39c-1.22,3.84-2.22,7.74-2.99,11.7l.98.13c.02-5.52.67-11,1.33-16.48h-1c-.07,5.02-.5,10.02-1.31,14.97-.1.64.73.87.96.27.66-1.68,1.32-3.35,1.99-5.03.24-.6-.73-.86-.96-.27h0Z"/>
    <path class="cls-2" d="M63.29,69.6c.6-2.26-.04-5.98,2.61-7.11l-.75-.43c-.03,2-1.71,3.56-2.31,5.4-.19.58.6.8.91.39.61-.8,1.33-1.52,2.15-2.12l-.68-.68c-.2.32-.44.57-.73.81l.71.71c1.16-1.44,3.1-1.66,4.83-1.64,1.93.02,4.05.26,5.56,1.58.48.42,1.19-.28.71-.71-1.73-1.51-4.05-1.85-6.27-1.88-1.98-.02-4.22.29-5.54,1.93-.4.5.21,1.12.71.71.35-.29.64-.63.88-1.01s-.28-.99-.68-.68c-.96.71-1.78,1.53-2.5,2.48l.91.39c.65-1.97,2.32-3.49,2.35-5.67,0-.42-.42-.57-.75-.43-3.01,1.29-2.38,5.14-3.07,7.71-.17.62.8.89.96.27h0Z"/>
    <path class="cls-2" d="M51.26,38.94c2.58,2.6,5.83,4.51,9.35,5.5,1.76.5,3.59.77,5.42.79,2.21.03,4.41-.33,6.6-.61,1.23-.16,2.47-.31,3.7-.47,1.08-.14,2.32-.14,3.29-.7.56-.32.05-1.19-.5-.86-.86.5-2.06.47-3.03.6-1.03.13-2.06.26-3.09.39-2.08.26-4.17.6-6.26.65-3.49.08-6.98-.78-10.04-2.44-1.75-.95-3.33-2.14-4.73-3.55-.45-.46-1.16.25-.71.71h0Z"/>
    <path class="cls-2" d="M79.14,42.42c-1.2.51-2.4,1.02-3.6,1.54s-2.38.96-3.5,1.58c-1.97,1.09-3.11,3-4.15,4.92-.31.57.56,1.07.86.5,1.04-1.92,2.12-3.73,4.14-4.75,2.18-1.1,4.5-1.98,6.75-2.94.59-.25.08-1.11-.5-.86h0Z"/>
    <path class="cls-2" d="M76.45,43.95c-.64.73-1.48,1.2-2.24,1.8s-1.31,1.36-1.7,2.27c-.45,1.05-.8,2.15-1.18,3.23s-.8,2.21-.96,3.36c-.15,1.1.04,2.17.23,3.25s.4,2.21.74,3.28c.59,1.84,1.62,3.54,3.28,4.59.49.31,1-.38.61-.79-2.47-2.55-4.21-5.71-5.04-9.17-.15-.63-1.12-.36-.96.27.87,3.62,2.71,6.94,5.3,9.61l.61-.79c-1.65-1.03-2.52-2.81-3.01-4.63-.25-.94-.42-1.9-.59-2.86-.19-1.07-.31-2.1-.08-3.18.22-.99.58-1.95.92-2.91s.64-1.89,1.02-2.81.93-1.6,1.73-2.18c.71-.52,1.45-.98,2.03-1.65.42-.48-.28-1.19-.71-.71h0Z"/>
    <path class="cls-2" d="M74.16,63.72c-1.44-2.69-2.51-5.55-3.2-8.52-.15-.63-1.11-.36-.96.27.71,3.05,1.83,6,3.3,8.76.3.57,1.17.06.86-.5h0Z"/>
    <path class="cls-2" d="M52.93,41.14c3.49,3.61,6.85,7.36,10.05,11.23l.61-.79c-2.29-.97-3.95-3.36-5.32-5.35-.7-1.03-1.35-2.09-1.94-3.19s-.99-2.22-1.94-2.98c-.38-.3-.96-.03-.84.49.69,2.83,2.07,5.47,3.29,8.09,1.31,2.79,2.66,5.57,4.04,8.32.25.5,1.13.15.91-.39-2.32-5.84-4.89-11.58-7.69-17.2-.25-.51-1.08-.15-.91.39,1.67,5.32,3.72,10.51,6.15,15.53.28.58,1.14.07.86-.5-2.39-4.94-4.41-10.05-6.05-15.29l-.91.39c2.77,5.55,5.3,11.2,7.59,16.96l.91-.39c-1.35-2.68-2.67-5.38-3.94-8.1s-2.6-5.25-3.29-8.08l-.84.49c.98.78,1.4,2.09,1.99,3.16.64,1.15,1.34,2.27,2.11,3.34,1.39,1.94,3.02,4.21,5.3,5.17.52.22.98-.33.61-.79-3.2-3.87-6.56-7.61-10.05-11.23-.45-.46-1.15.24-.71.71h0Z"/>
    <path class="cls-2" d="M55.19,43.55c3.09.71,6.11,1.73,8.99,3.06l.39-.91c-2.63-.75-5.31-1.26-8.03-1.55v1c4.75.5,9.51,2.32,14.3,1.09.57-.15.41-.94-.13-.98-2.5-.22-5.01-.22-7.52-.01-.63.05-.65,1.02,0,1,3.71-.11,7.77,1.09,11.12-1.07.32-.21.34-.85-.12-.91-1.68-.23-3.05.76-4.54,1.35-1.63.65-3.36,1.08-5.1,1.28-.5.06-.74.89-.13.98,2.71.4,5.64.79,8.25-.32.49-.21,1.15-.47,1.44-.96.26-.45.11-.97-.37-1.19-.65-.29-1.56-.29-2.26-.4-.9-.14-1.8-.28-2.71-.43-.27-.04-.53.07-.62.35-1.09,3.7-.74,7.68-2.05,11.33-.22.61.75.87.96.27,1.32-3.65.97-7.62,2.05-11.33l-.62.35c1.31.21,2.62.41,3.94.62.22.03.71.02.89.15-.24-.17-.32-.04-.56.09-.5.27-1.02.46-1.57.6-2.12.54-4.38.22-6.52-.09l-.13.98c1.61-.18,3.2-.52,4.72-1.07.72-.26,1.43-.57,2.12-.9.78-.37,1.63-.82,2.53-.7l-.12-.91c-3.16,2.04-7.12.84-10.61.94v1c2.5-.21,5.02-.21,7.52.01l-.13-.98c-4.66,1.19-9.4-.65-14.03-1.13-.64-.07-.63.93,0,1,2.63.28,5.22.79,7.76,1.52.53.15.91-.67.39-.91-2.96-1.37-6.05-2.43-9.23-3.16-.63-.14-.89.82-.27.96h0Z"/>
    <path class="cls-2" d="M56.45,44.6c2.39,1.07,4.86,1.89,7.43,2.43l.13-.98c-3.46.23-6.91-.13-10.24-1.09l-.13.98c3.74-.12,7.45.31,11.07,1.27l.13-.98c-2.75.09-5.45-.36-8.15-.84l-.27.96c4.42.77,8.91.92,13.36.44l-.5-.5c.04,2.41-.33,4.77-1.1,7.05l.96.27c.28-.95.56-1.89.84-2.84.21-.71.36-1.65,1.07-2.04l-.73-.56c-.59,2.6-1.18,5.19-1.77,7.79l.96.27c.65-3.17,1.6-6.26,2.85-9.24l-.96-.27c-.71,3.75-1.9,7.38-3.58,10.8l.86.5c.9-1.91,1.8-3.83,2.7-5.74l1.35-2.87c.33-.7.84-1.49.52-2.28-.11-.28-.32-.39-.62-.35-.49.07-.81.41-1.11.79-.4.51-.78,1.04-1.14,1.59-.72,1.09-1.35,2.23-1.92,3.39-1.14,2.33-2.03,4.76-2.83,7.22l.96.27c.59-4.23,1.4-8.42,2.43-12.57.16-.63-.76-.88-.96-.27-1.08,3.27-1.9,6.62-2.45,10.02-.09.55.59.88.91.39,1.47-2.21,2.3-4.75,2.46-7.4.02-.34-.33-.55-.63-.48-.56.13-.89.53-1.22.97-.43.57-.84,1.15-1.24,1.73-.83,1.2-1.61,2.44-2.34,3.7-1.43,2.46-2.68,5.03-3.75,7.67-.21.52.66.89.91.39,1.05-2.12,1.98-4.31,2.75-6.55.38-1.1.73-2.21,1.03-3.33.16-.6.34-1.2.46-1.8.08-.42.05-.72-.22-1.06-.12-.15-.44-.2-.61-.08-2.66,2.05-5.32,4.1-7.98,6.15l.73.56c.74-2.03,1.6-4.06,2.21-6.14.44-1.5.24-3.5-1.54-3.97l-.13.98c3.16.01,6.3.27,9.42.8.43.07.93-.49.49-.84-1.08-.84-2.48-.99-3.79-1.2-1.53-.25-3.06-.43-4.6-.54-.64-.05-.64.95,0,1,2.92.22,5.85.43,8.77.65.56.04.68-.87.13-.98l-1.62-.34v.96c1.04-.21,2.09-.41,3.13-.62.26-.05.42-.37.35-.62-.5-1.69-3.17-.66-4.19-.19-.38.18-.29.83.12.91,1.6.32,3.21.63,4.81.95l-.12-.91c-3.59,1.94-7.55,3.08-11.62,3.33l.25.93c2.17-.94,4.34-1.88,6.51-2.81.49-.21.19-.9-.25-.93-3.11-.2-6.24.14-9.24,1-.52.15-.45,1.05.13.98,2.21-.27,4.17-1.24,6.12-2.26.57-.3.07-1.14-.5-.86-2.54,1.23-4.92,2.74-7.12,4.5-.39.31.03.99.49.84,3.31-1.12,6.53-2.46,9.65-4.03l-.5-.86c-3.94,2.24-7.87,4.48-11.81,6.71l.61.79c2.17-1.76,4.4-3.46,6.67-5.09l-.61-.79c-2.47,2.33-4.95,4.66-7.42,6.99-.41.39.12,1.09.61.79,4.43-2.77,8.86-5.54,13.48-7.98l-.61-.79c-3.59,3.35-7.67,6.11-11.74,8.85l.5.86c3.54-2.47,7.04-4.99,10.51-7.55.51-.37.07-1.19-.5-.86-4.25,2.41-8.38,5.03-12.38,7.84-.52.36-.06,1.19.5.86,4.52-2.62,8.98-5.35,13.37-8.19l-.61-.79c-3.8,3.56-7.59,7.12-11.39,10.68l.71.71c3.65-3.58,7.3-7.15,11.16-10.5l-.71-.71c-3.39,3.63-6.78,7.25-10.16,10.88-.44.48.22,1.12.71.71,4.17-3.54,8.35-7.08,12.52-10.63l-.71-.71c-3.91,3.85-7.85,7.67-11.83,11.45l.79.61c3.44-4.57,7.04-9.02,10.8-13.34.42-.48-.24-1.16-.71-.71-2.88,2.82-5.98,5.41-9.27,7.74-.52.37-.05,1.21.5.86,3.16-1.93,6.32-3.87,9.48-5.8l-.5-.86c-4.16,2.55-8.31,5.1-12.47,7.65-.55.34-.06,1.18.5.86,4.29-2.45,8.58-4.89,12.87-7.34l-.61-.79c-3.13,3.34-6.25,6.69-9.38,10.03-.44.47.26,1.18.71.71,3.26-3.43,6.4-6.97,9.41-10.61.41-.49-.3-1.2-.71-.71-4.12,4.97-8.06,10.07-11.84,15.31-.35.49.38.94.79.61,2.29-1.9,4.34-4.08,6.34-6.27,2.12-2.32,4.24-4.65,6.36-6.98.43-.47-.25-1.17-.71-.71-4.98,5.07-9.49,10.59-13.46,16.49-.36.54.5,1.03.86.5,4.39-6.26,8.61-12.62,12.68-19.09.3-.47-.41-1.04-.79-.61-2.96,3.47-5.79,7.05-8.19,10.94-.29.47.42,1.06.79.61,2.36-2.95,4.56-6.02,6.57-9.22l-.91-.39c-.53,2.99-1.88,5.83-3.07,8.6s-2.5,5.66-3.84,8.45c-.28.58.57,1.08.86.5,2.33-4.64,4.66-9.29,6.69-14.08.24-.58-.57-1.09-.86-.5-2.12,4.19-4.23,8.38-6.35,12.56l.91.39c1.13-3.43,2.36-6.82,3.69-10.17.21-.52-.67-.89-.91-.39-1.46,3-2.47,6.18-3,9.47-.1.62.83.91.96.27.53-2.53,1.06-5.06,1.6-7.6h-.96c.45,3.06.3,6.17-.43,9.17-.15.63.77.88.96.27,1.1-3.47,1.98-7,2.64-10.58l-.96-.27c-.5,3.36-.97,6.73-1.41,10.1-.07.51.71.66.93.25,2.04-3.72,3.46-7.73,4.85-11.72l-.96-.27c-.58,3.35-1.55,6.62-2.9,9.74l.91.39c1.24-4.44,2.63-8.84,4.18-13.18.2-.56-.61-.82-.91-.39-2.4,3.45-3.47,7.58-5.34,11.3l.91.39c1.49-3.77,2.99-7.54,4.48-11.31.21-.53-.66-.88-.91-.39-1.68,3.25-2.67,6.77-3.63,10.28l.96.27c.98-3.8,2.29-7.5,3.92-11.07l-.68.18c.12.08,0,.96,0,1.11-.02.46-.05.91-.1,1.37-.09.9-.23,1.8-.41,2.69-.36,1.76-.9,3.47-1.59,5.12l.96.27c.94-2.45,1.87-4.9,2.81-7.36.2-.52-.68-.9-.91-.39-1.24,2.73-2.49,5.47-4.09,8.01l.93.25c.21-2.26.51-4.52.87-6.76.08-.51-.64-.93-.91-.39-1,2-1.47,4.16-1.91,6.34-.13.63.77.89.96.27.88-2.84,1.66-5.72,2.34-8.62.15-.63-.75-.87-.96-.27-.9,2.59-1.4,5.3-1.5,8.04-.02.43.56.67.85.35.85-.92,1.71-1.84,2.56-2.76l-.84-.49c-.74,1.96-1.48,3.92-2.22,5.87-.14.38.28.69.62.62.53-.12,1.01-.3,1.48-.57l-.68-.68c-.11.25-.24.43-.47.58-.39.26-.27.96.25.93,2.33-.12,4.64-.5,6.89-1.12.25-.07.44-.36.35-.62-.75-2.11-1.66-4.16-2.72-6.13-.26-.49-1.11-.15-.91.39.95,2.57,1.93,5.16,3.46,7.45l.79-.61c-1.85-2.01-3.32-4.34-4.32-6.88-.19-.48-1.01-.48-.98.13.05,1.04.53,1.92.99,2.84.52,1.05,1.04,2.1,1.55,3.14l.79-.61c-1.8-1.64-2.87-3.84-3.91-6.01-.23-.49-.9-.2-.93.25-.19,2.53,1.91,4.31,2.63,6.57l.84-.49c-1.27-1.19-2.43-2.47-3.46-3.87-.37-.51-1.19-.07-.86.5.79,1.39,1.58,2.78,2.37,4.18l.43-.75c-.76.08-1.18-.62-1.58-1.15-.35-.47-.72-.9-1.27-1.14-.3-.13-.81.01-.75.43.09.68.53,1.14,1.23,1.16.16,0,.36-.09.43-.25.58-1.22-.03-2.67-.47-3.85-.51-1.38-1.17-2.7-1.96-3.94-.35-.54-1.21-.04-.86.5.66,1.04,1.24,2.14,1.7,3.28.22.56.42,1.13.58,1.71s.41,1.23.15,1.8l.43-.25-.23-.16-.75.43c1.31.58,1.62,2.61,3.35,2.42.37-.04.63-.4.43-.75-.79-1.39-1.58-2.78-2.37-4.18l-.86.5c1.08,1.47,2.28,2.83,3.62,4.07.35.33.99,0,.84-.49-.68-2.13-2.78-3.96-2.6-6.31l-.93.25c1.07,2.24,2.2,4.51,4.06,6.21.43.39,1.04-.1.79-.61-.45-.9-.89-1.81-1.34-2.71s-1.02-1.78-1.06-2.77l-.98.13c1.07,2.71,2.61,5.17,4.58,7.32.38.41,1.1-.13.79-.61-1.49-2.22-2.44-4.72-3.36-7.21l-.91.39c1.03,1.9,1.9,3.86,2.62,5.89l.35-.62c-2.17.6-4.38.96-6.63,1.08l.25.93c.37-.24.64-.54.83-.94.2-.44-.22-.94-.68-.68-.4.22-.8.37-1.25.47l.62.62c.74-1.96,1.48-3.92,2.22-5.87.18-.47-.51-.84-.84-.49-.85.92-1.71,1.84-2.56,2.76l.85.35c.1-2.66.59-5.27,1.47-7.78l-.96-.27c-.68,2.9-1.46,5.78-2.34,8.62l.96.27c.42-2.08.85-4.18,1.81-6.1l-.91-.39c-.38,2.33-.69,4.68-.91,7.03-.05.52.69.64.93.25,1.61-2.54,2.85-5.28,4.09-8.01l-.91-.39c-.94,2.45-1.87,4.9-2.81,7.36-.23.61.72.85.96.27.83-1.97,1.43-4.03,1.78-6.13.17-1.02.29-2.05.34-3.09.04-.73.25-1.75-.48-2.2-.21-.13-.57-.06-.68.18-1.67,3.64-3.02,7.42-4.02,11.3-.16.62.79.89.96.27.94-3.43,1.89-6.87,3.53-10.04l-.91-.39c-1.49,3.77-2.99,7.54-4.48,11.31-.21.53.66.89.91.39,1.87-3.73,2.94-7.85,5.34-11.3l-.91-.39c-1.55,4.34-2.94,8.74-4.18,13.18-.15.53.68.92.91.39,1.39-3.2,2.4-6.54,3-9.98.11-.63-.75-.88-.96-.27-1.36,3.91-2.74,7.84-4.75,11.48l.93.25c.44-3.28.9-6.56,1.38-9.83.09-.62-.85-.91-.96-.27-.66,3.58-1.54,7.11-2.64,10.58l.96.27c.78-3.19.92-6.46.43-9.71-.07-.49-.87-.46-.96,0-.53,2.53-1.06,5.06-1.6,7.6l.96.27c.51-3.2,1.48-6.31,2.9-9.23l-.91-.39c-1.33,3.35-2.56,6.75-3.69,10.17-.18.53.66.89.91.39,2.12-4.19,4.23-8.38,6.35-12.56l-.86-.5c-2.03,4.79-4.36,9.44-6.69,14.08l.86.5c1.38-2.86,2.69-5.75,3.94-8.67s2.54-5.62,3.07-8.61c.1-.54-.6-.89-.91-.39-1.96,3.13-4.1,6.14-6.41,9.02l.79.61c2.35-3.81,5.13-7.33,8.03-10.73l-.79-.61c-4.06,6.47-8.29,12.84-12.68,19.09l.86.5c3.92-5.83,8.38-11.28,13.3-16.29l-.71-.71c-2.12,2.33-4.23,4.66-6.36,6.98-2.01,2.2-4.05,4.37-6.34,6.27l.79.61c3.72-5.16,7.62-10.2,11.68-15.1l-.71-.71c-3.01,3.64-6.15,7.18-9.41,10.61l.71.71c3.13-3.34,6.25-6.69,9.38-10.03.38-.41-.1-1.07-.61-.79-4.29,2.45-8.58,4.89-12.87,7.34l.5.86c4.16-2.55,8.31-5.1,12.47-7.65.55-.34.05-1.2-.5-.86-3.16,1.93-6.32,3.87-9.48,5.8l.5.86c3.36-2.38,6.53-5.01,9.47-7.89l-.71-.71c-3.81,4.38-7.46,8.9-10.95,13.54-.35.47.39.98.79.61,3.98-3.78,7.92-7.6,11.83-11.45.46-.46-.22-1.12-.71-.71-4.17,3.54-8.35,7.08-12.52,10.63l.71.71c3.39-3.63,6.78-7.25,10.16-10.88.44-.47-.22-1.13-.71-.71-3.86,3.35-7.51,6.93-11.16,10.5-.46.45.24,1.15.71.71,3.8-3.56,7.59-7.12,11.39-10.68.41-.38-.13-1.1-.61-.79-4.39,2.84-8.85,5.57-13.37,8.19l.5.86c4-2.81,8.13-5.43,12.38-7.84l-.5-.86c-3.47,2.56-6.98,5.08-10.51,7.55-.52.36-.03,1.23.5.86,4.14-2.79,8.28-5.59,11.94-9,.43-.4-.12-1.04-.61-.79-4.62,2.44-9.05,5.21-13.48,7.98l.61.79c2.47-2.33,4.95-4.66,7.42-6.99.4-.38-.14-1.12-.61-.79-2.34,1.68-4.63,3.43-6.87,5.24-.45.36.13,1.06.61.79,3.94-2.24,7.87-4.48,11.81-6.71.56-.32.07-1.15-.5-.86-3.04,1.53-6.18,2.85-9.41,3.93l.49.84c2.13-1.71,4.46-3.15,6.92-4.34l-.5-.86c-1.77.93-3.6,1.88-5.62,2.12l.13.98c2.92-.84,5.94-1.16,8.97-.97l-.25-.93c-2.17.94-4.34,1.88-6.51,2.81-.46.2-.22.96.25.93,4.25-.26,8.38-1.44,12.13-3.47.36-.2.31-.83-.12-.91-1.6-.32-3.21-.63-4.81-.95l.12.91c.33-.15,2.54-1.05,2.72-.41l.35-.62c-1.04.21-2.09.41-3.13.62-.48.09-.47.87,0,.96l1.62.34.13-.98c-2.92-.22-5.85-.43-8.77-.65v1c1.37.1,2.74.25,4.1.47,1.13.18,2.65.26,3.59.99l.49-.84c-3.2-.54-6.44-.82-9.68-.83-.56,0-.68.84-.13.98,1.79.47.79,2.93.38,4.05-.58,1.61-1.17,3.22-1.75,4.83-.14.39.39.83.73.56,2.66-2.05,5.32-4.1,7.98-6.15l-.61-.08c.07.09-.34,1.3-.38,1.44-.12.45-.24.9-.38,1.34-.3,1-.62,2-.97,2.99-.71,1.97-1.53,3.89-2.46,5.76l.91.39c.98-2.42,2.13-4.77,3.43-7.04.63-1.1,1.3-2.19,2-3.25.35-.53.71-1.05,1.08-1.57.33-.46.76-1.37,1.34-1.51l-.63-.48c-.15,2.47-.95,4.83-2.32,6.9l.91.39c.56-3.4,1.38-6.75,2.45-10.02l-.96-.27c-1.03,4.14-1.85,8.34-2.43,12.57-.09.62.76.9.96.27.74-2.24,1.53-4.46,2.54-6.59.5-1.05,1.04-2.07,1.65-3.06.3-.49.62-.98.96-1.45.28-.39.64-1.12,1.16-1.2l-.62-.35c.18.44-.13.89-.31,1.29l-.57,1.21-1.2,2.54c-.8,1.69-1.6,3.39-2.39,5.08-.27.58.58,1.09.86.5,1.71-3.5,2.96-7.21,3.68-11.04.12-.65-.72-.85-.96-.27-1.25,2.98-2.2,6.07-2.85,9.24-.13.63.82.9.96.27.59-2.6,1.18-5.19,1.77-7.79.1-.43-.34-.78-.73-.56-.76.41-1.09,1.19-1.34,1.99-.35,1.16-.69,2.32-1.03,3.49-.18.62.76.87.96.27.8-2.36,1.18-4.83,1.13-7.31,0-.25-.23-.53-.5-.5-4.36.47-8.77.34-13.1-.41-.63-.11-.9.85-.27.96,2.78.49,5.58.97,8.41.87.55-.02.69-.83.13-.98-3.69-.98-7.51-1.42-11.33-1.3-.56.02-.69.82-.13.98,3.41.98,6.97,1.36,10.51,1.12.53-.04.72-.86.13-.98-2.47-.52-4.88-1.29-7.19-2.33-.58-.26-1.09.6-.5.86h0Z"/>
    <g>
      <path class="cls-1" d="M39.98,3.28c1.41,3.36,3.2,8.05,4.82,13.81,1.96,6.99,3.04,10.85,2.88,16.23-.22,7.29-2.58,12.72-3.49,14.64-3.59,7.58-8.9,11.8-12.88,14.9-9.83,7.64-20.21,10.52-26.98,11.69"/>
      <path class="cls-1" d="M37.01,107.97c.67-8.14,2.15-14.64,3.42-19.13,2.67-9.45,4.76-11.36,6.04-12.28,4.33-3.13,10.69-3.16,15.11-.72,1.86,1.03,3.02,2.3,6.28,7.03,2.41,3.5,5.57,8.31,9.03,14.29"/>
      <path class="cls-1" d="M96.74,80.06c-5.02-3.79-9.25-6.74-12.24-8.76-6.56-4.43-8.6-5.4-10.34-8.46-.21-.37-3.87-7.01-1.02-13.21,1.76-3.84,5.1-5.5,11.7-8.66,5.38-2.58,10.22-4,13.81-4.82"/>
      <path class="cls-1" d="M46.86,25.02c.42,1.34,4.39,11.89,6.18,13.83,2.79,3.03,6.18,3.9,8.64,4.49,6.31,1.51,20.78-1.48,23.57-2.49"/>
      <path class="cls-1" d="M67.06,81.78c-.1-.76-4.97-9.56-3.2-12.97.56-1.08,1.81-2.83,5.22-3.46s12.78,4.14,13.13,4.42"/>
      <path class="cls-1" d="M19.92,69.62c1.17-.48,12.77-4.64,15.56-3.57,4.35,1.67,5.48,6.81,5.85,8.52.64,2.92-.41,11.92-.75,13.32"/>
    </g>
    <path class="cls-2" d="M47.87,30.69c1.57,9.39,3.14,18.77,4.71,28.16.45,2.66.89,5.33,1.34,7.99l.96-.27c-1.08-4.27-1.17-8.67-1.57-13.04s-1.48-8.48-2.48-12.68c-.55-2.31-.99-4.7-1.92-6.9-.2-.48-.99-.48-.98.13.08,6.54-.99,13.05-3.17,19.22l.96.27c1.35-5.06,3.38-10.06,3.26-15.38,0-.4-.56-.7-.85-.35-.9,1.05-1.1,2.44-1.43,3.73-.4,1.55-.82,3.09-1.27,4.62-.9,3.06-1.92,6.1-3.03,9.09-.2.55.63.85.91.39,1.54-2.51,3.07-5.09,3.69-8,.08-.38-.36-.85-.73-.56-2.12,1.6-3.09,4.03-4.21,6.35-1.38,2.85-3.32,5.31-5.31,7.76l.79.61c2.52-3.72,5.04-7.45,7.56-11.17.37-.54-.49-1.01-.86-.5-3.03,4.03-6.06,8.06-9.08,12.08l.86.5c2.02-3.52,6.36-5.37,7.32-9.56.12-.52-.45-.79-.84-.49-1.41,1.11-2.32,2.7-3.42,4.09s-2.32,2.67-3.63,3.85c-2.65,2.39-5.69,4.31-8.97,5.71l.61.79c2.42-2.3,5.59-3.58,8.25-5.56s5.15-4.53,7.52-7.01l-.71-.71c-.72.79-1.45,1.59-2.17,2.38-.43.48.27,1.18.71.71.72-.79,1.45-1.59,2.17-2.38.43-.47-.26-1.17-.71-.71-2.41,2.52-4.84,5.07-7.67,7.11-2.64,1.91-5.71,3.19-8.1,5.45-.44.42.12.99.61.79,3.29-1.41,6.34-3.35,9.02-5.73,1.32-1.18,2.55-2.46,3.66-3.83s2.09-3.1,3.55-4.24l-.84-.49c-.92,4.02-5.27,5.91-7.22,9.32-.33.57.49,1.01.86.5,3.03-4.03,6.06-8.06,9.08-12.08l-.86-.5c-2.52,3.72-5.04,7.45-7.56,11.17-.31.46.43,1.05.79.61,1.91-2.35,3.84-4.73,5.21-7.45,1.14-2.26,2-4.92,4.1-6.5l-.73-.56c-.6,2.83-2.1,5.32-3.59,7.76l.91.39c1.06-2.84,2.02-5.72,2.89-8.63.42-1.42.82-2.84,1.2-4.27.19-.72.37-1.44.55-2.17s.36-1.38.84-1.94l-.85-.35c.11,5.23-1.9,10.14-3.23,15.12-.17.63.75.87.96.27,2.2-6.25,3.29-12.86,3.2-19.49l-.98.13c.82,1.94,1.24,4.02,1.72,6.06.51,2.14,1.02,4.29,1.52,6.44s.88,4.27,1.09,6.45.31,4.36.51,6.54c.22,2.4.54,4.8,1.13,7.14.16.64,1.07.36.96-.27-1.57-9.39-3.14-18.77-4.71-28.16-.45-2.66-.89-5.33-1.34-7.99-.11-.63-1.07-.36-.96.27h0Z"/>
    <path class="cls-2" d="M28.98,66.4c5.6-.94,11.13-2.19,16.59-3.75.62-.18.35-1.14-.27-.96-5.45,1.56-10.99,2.82-16.59,3.75-.63.11-.36,1.07.27.96h0Z"/>
    <path class="cls-2" d="M31.9,64.82c5.75-1.81,11.49-3.61,17.24-5.42.61-.19.35-1.16-.27-.96-5.75,1.81-11.49,3.61-17.24,5.42-.61.19-.35,1.16.27.96h0Z"/>
    <path class="cls-2" d="M31.63,65.24c5.35-.6,10.64-1.53,15.93-2.49.73-.13,1.98-.45,1.59-1.49-.33-.89-1.78-.93-2.56-1.04-2.33-.32-4.69-.13-6.98.39-2.63.6-5.15,1.65-7.52,2.92-.49.26-.15,1.11.39.91,6.2-2.27,12.4-4.53,18.6-6.8l-.39-.91c-4.93,2.67-10.13,4.8-15.57,6.2l.27.96c6.04-2.24,12.2-4.13,18.46-5.66l-.39-.91c-5.02,3.34-10.76,5.25-16.45,7.12l.39.91c5.6-2.64,11.58-4.4,17.71-5.24.56-.08.43-1.01-.13-.98-5.94.32-11.82,1.34-17.52,3.03l.27.96c3.75-1.24,7.58-2.16,11.48-2.77l-.39-.91c-3.22,1.47-6.9,1.4-10.13,2.87-.52.24-.15,1.07.39.91,2.39-.69,4.77-1.39,7.16-2.08.55-.16.43-.96-.13-.98-2.22-.07-4.43.12-6.61.57l.56.73c1.44-2.08,3.01-4.08,4.71-5.96.81-.9,1.65-1.77,2.52-2.62.91-.89,1.83-1.78,2.98-2.36l-.68-.68c-2.38,4.33-6.33,7.42-10.18,10.39l.68.68c2.12-3.82,4.66-7.38,7.2-10.93.33-.46-.42-1.04-.79-.61-3.15,3.65-6.05,7.51-8.69,11.54-.36.55.49,1.02.86.5,2.53-3.5,5.21-6.89,8.05-10.15l-.79-.61c-2.45,3.24-4.9,6.49-7.03,9.95-.29.47.41,1.04.79.61,4.63-5.42,8.8-11.22,12.45-17.34.33-.56-.51-1.04-.86-.5-2.81,4.3-5.27,8.81-7.36,13.5l.91.39c.59-1.69,1.14-3.39,1.69-5.1s1.13-3.28,1.03-5.01c-.03-.56-.8-.68-.98-.13-.9,2.7-1.79,5.4-2.69,8.09l.96.27c.81-3.18,1.3-6.43,1.47-9.7.03-.64-.97-.64-1,0-.17,3.19-.65,6.34-1.44,9.44-.16.63.76.87.96.27.9-2.7,1.79-5.4,2.69-8.09l-.98-.13c.1,1.72-.55,3.37-1.07,4.98s-1.05,3.25-1.61,4.87c-.18.53.68.91.91.39,2.09-4.69,4.55-9.2,7.36-13.5l-.86-.5c-3.61,6.05-7.72,11.78-12.3,17.13l.79.61c2.13-3.46,4.58-6.71,7.03-9.95.34-.45-.41-1.03-.79-.61-2.89,3.33-5.63,6.78-8.2,10.35l.86.5c2.59-3.96,5.44-7.75,8.54-11.34l-.79-.61c-2.54,3.55-5.08,7.11-7.2,10.93-.22.4.26,1.01.68.68,3.98-3.07,8.06-6.26,10.53-10.75.25-.45-.24-.91-.68-.68-1.12.57-2.04,1.42-2.93,2.28-.95.92-1.87,1.88-2.76,2.86-1.76,1.94-3.38,4.01-4.87,6.16-.27.39.17.81.56.73,2.09-.43,4.21-.6,6.34-.53l-.13-.98c-2.39.69-4.77,1.39-7.16,2.08l.39.91c3.22-1.46,6.9-1.39,10.13-2.87.56-.26.13-.99-.39-.91-3.9.6-7.74,1.53-11.48,2.77-.61.2-.36,1.15.27.96,5.62-1.67,11.41-2.68,17.26-2.99l-.13-.98c-6.22.86-12.27,2.67-17.95,5.35-.51.24-.15,1.09.39.91,5.76-1.9,11.6-3.84,16.69-7.22.47-.31.18-1.05-.39-.91-6.26,1.53-12.42,3.42-18.46,5.66-.59.22-.37,1.13.27.96,5.51-1.42,10.8-3.59,15.81-6.3.49-.26.15-1.11-.39-.91-6.2,2.27-12.4,4.53-18.6,6.8l.39.91c3.62-1.94,7.65-3.37,11.81-3.33,1.01,0,2.01.1,3,.3.14.03.58.04.66.17.1.16.09-.04.02.08-.02.04-.3.08-.31.08-.56.12-1.13.21-1.7.31-2.22.4-4.44.79-6.67,1.16-2.59.42-5.18.79-7.79,1.08-.63.07-.64,1.07,0,1h0Z"/>
    <path class="cls-2" d="M48.76,33.57c2.54,6.86,6.44,13.1,9.15,19.89l.91-.39c-3.36-5.49-6.19-11.29-8.43-17.32-.22-.6-1.1-.37-.96.27,1.5,7.09,3.89,13.97,5.17,21.1l.96-.27c-2.42-6.18-4.24-12.58-5.42-19.11-.1-.55-1.02-.43-.98.13.69,9.53,2.08,19,4.18,28.31l.96-.27c-1.8-7.75-2.27-15.7-2.93-23.61-.05-.65-.92-.63-1,0-1.09,8.71-1.55,17.49-1.36,26.27.01.64.99.64,1,0,.12-8.35-.38-16.69-.94-25.01h-1c.41,5.23,1.1,10.43,2.07,15.58.11.56.99.42.98-.13-.05-6.54-1.78-12.94-1.71-19.48h-1c.13,8.29.94,16.56,2.4,24.73.1.55,1.05.43.98-.13-.58-4.72-1.16-9.44-1.73-14.16l-.98.13c.07.22.14.44.21.66.2.61,1.17.35.96-.27-.07-.22-.14-.44-.21-.66-.16-.5-1.05-.46-.98.13.58,4.72,1.16,9.44,1.73,14.16l.98-.13c-1.45-8.07-2.24-16.26-2.37-24.46-.01-.64-.99-.64-1,0-.07,6.54,1.66,12.94,1.71,19.48l.98-.13c-.95-5.07-1.63-10.18-2.03-15.32-.05-.64-1.04-.65-1,0,.56,8.33,1.06,16.66.94,25.01h1c-.19-8.78.27-17.56,1.36-26.27h-1c.67,7.99,1.14,16.04,2.96,23.87.15.63,1.11.36.96-.27-2.07-9.23-3.46-18.61-4.14-28.05l-.98.13c1.19,6.53,3.01,12.93,5.42,19.11.23.6,1.08.37.96-.27-1.29-7.14-3.67-14.01-5.17-21.1l-.96.27c2.27,6.11,5.13,12,8.53,17.56.28.46,1.13.16.91-.39-2.7-6.79-6.61-13.03-9.15-19.89-.22-.6-1.19-.34-.96.27h0Z"/>
    <path class="cls-2" d="M48.14,42.23l-1.28,3.17-.64,1.58c-.15.38-.31,1.04-.74,1.19l.62.35c-.19-.85.02-1.64.54-2.33h-.86c1.56,2.56,2.15,5.62,1.62,8.57-.12.64.72.85.96.27.7-1.68,1.27-3.41,1.62-5.2.31-1.61.57-3.36-.05-4.93-.14-.34-.72-.56-.91-.12-2.63,6.13-3.81,12.81-3.4,19.47.03.52.89.72.98.13.91-5.88,1.53-11.81,1.85-17.76.04-.65-.93-.63-1,0-.57,5.06-.69,10.15-.35,15.23.04.65.94.64,1,0,.37-3.93.46-7.89.27-11.83-.03-.64-1.02-.65-1,0,.14,5.5.18,11.01.11,16.51l.98-.13c-.95-3.8-.66-7.79-1.74-11.57-.16-.56-.94-.42-.98.13-.45,5.89-.89,11.77-1.34,17.66-.05.65.94.63,1,0,.28-2.9.55-5.81.83-8.71l.4-4.23c.14-1.47.33-2.95.2-4.43-.05-.55-.81-.7-.98-.13-1.54,4.97-2.8,10.03-3.79,15.14l.98.13c.21-3.43.59-6.86.97-10.27.07-.64-.93-.63-1,0-.38,3.42-.76,6.84-.97,10.27-.03.56.87.69.98.13.99-5.11,2.25-10.16,3.79-15.14l-.98-.13c.13,1.44-.05,2.87-.18,4.3s-.28,2.9-.41,4.35c-.28,2.9-.55,5.81-.83,8.71h1c.45-5.89.89-11.77,1.34-17.66l-.98.13c1.08,3.77.79,7.77,1.74,11.57.14.55.98.43.98-.13.07-5.5.03-11.01-.11-16.51h-1c.18,3.95.09,7.9-.27,11.83h1c-.34-5.08-.22-10.17.35-15.23h-1c-.32,5.86-.93,11.69-1.82,17.49l.98.13c-.41-6.47.7-13,3.26-18.97l-.91-.12c.61,1.54.29,3.28-.05,4.85s-.89,3.21-1.53,4.74l.96.27c.58-3.22-.02-6.54-1.72-9.34-.21-.35-.64-.29-.86,0-.68.9-.88,2.01-.64,3.1.06.25.37.44.62.35,1.06-.38,1.34-1.63,1.72-2.57l1.64-4.07c.24-.6-.73-.86-.96-.27h0Z"/>
    <path class="cls-2" d="M35.1,65.48c1.52.05,2.53,1.47,3.32,2.6.92,1.32,1.84,2.66,2.52,4.12,1.51,3.2,1.19,6.97.28,10.31-.17.63.75.86.96.27,1.23-3.39,3.07-6.51,5.1-9.48,1-1.47,2.05-2.9,3.1-4.33s2.12-2.92,3.51-4.09c.49-.41-.22-1.12-.71-.71-1.37,1.15-2.41,2.6-3.47,4.03-1.12,1.52-2.24,3.04-3.3,4.59-2.08,3.05-3.94,6.25-5.2,9.72l.96.27c1-3.7,1.25-7.75-.48-11.27-.8-1.63-1.84-3.18-2.93-4.62-.92-1.22-2.06-2.35-3.68-2.4-.64-.02-.64.98,0,1h0Z"/>
    <path class="cls-2" d="M43.66,78.3c2.49-5.33,5.38-10.45,8.67-15.32.36-.54-.51-1.04-.86-.5-3.29,4.87-6.18,10-8.67,15.32-.27.58.59,1.09.86.5h0Z"/>
    <path class="cls-2" d="M43.31,77.67c-.45-3.15.47-6.67-1.82-9.31-.33-.39-.97.03-.84.49.71,2.51,1.42,5.02,2.13,7.53l.96-.27c-.78-2.33-1.53-4.68-2.46-6.95-.76-1.86-1.75-3.6-3.41-4.8-.52-.38-1.01.48-.5.86,1.76,1.32,3.35,2.84,4.76,4.53.32.38,1-.03.84-.49l-2.33-6.64c-.18-.51-1-.46-.98.13.04,1.11,1.27,1.39,2.1.89.59-.36,1.1-.89,1.62-1.35.54-.49,1.08-.98,1.6-1.49,2.14-2.04,4.14-4.22,6.09-6.44.31-.36.02-.99-.49-.84-4.38,1.31-8.6,3.96-10.09,8.51-.16.5.49.81.84.49,3-2.76,6.01-5.52,9.01-8.27l-.71-.71c-2.87,3.38-5.73,6.75-8.6,10.13l.79.61,4.95-8.51-.86-.5c-1.41,2.68-2.61,5.47-3.6,8.34l.98.13c0-1.29-.22-2.55-.67-3.76-.19-.5-.99-.46-.98.13.04,2.9.32,5.79.84,8.65l.84-.49c-1.46-1.64-2.92-3.27-4.38-4.91l-.71.71c1.32,1.46,2.59,2.95,3.83,4.48l.61-.79c-.94-.68-1.75-1.5-2.42-2.45l-.68.68c.76.51,1.47,1.08,2.14,1.71.2.19.51.19.71,0,.37-.35.5-.78.57-1.27.1-.75.16-1.51.22-2.26.11-1.52.16-3.04.14-4.56,0-.66-.92-.62-1,0-.36,2.69-.64,5.39-.85,8.09-.04.57.84.67.98.13.98-3.77,1.97-7.53,2.95-11.3.14-.53-.68-.92-.91-.39-1.19,2.7-2.24,5.46-3.15,8.27l.98.13c-.23-1.93.03-3.82.77-5.62l-.98-.13c-.26,3.53-.53,7.06-.59,10.6-.02.86-.02,1.73-.01,2.59,0,.56-.14,1.41.26,1.87.44.51,1.17.26,1.71.11.82-.22,1.65-.43,2.47-.65.62-.16.36-1.13-.27-.96-.67.18-1.35.36-2.02.53-.22.06-.77.32-1,.26-.18-.05-.12-.07-.14-.3-.01-.16,0-.33,0-.49-.03-1.52,0-3.04.05-4.56.1-3,.33-6,.55-8.99.05-.61-.79-.61-.98-.13-.77,1.86-1.04,3.88-.81,5.88.06.54.8.7.98.13.88-2.73,1.89-5.41,3.05-8.04l-.91-.39c-.98,3.77-1.97,7.53-2.95,11.3l.98.13c.21-2.7.49-5.4.85-8.09h-1c.01,1.27-.02,2.55-.09,3.82-.04.62-.08,1.23-.14,1.84-.05.52.01,1.33-.4,1.72h.71c-.73-.69-1.51-1.31-2.34-1.87-.4-.27-.97.28-.68.68.77,1.09,1.69,2.02,2.78,2.81.5.36.93-.38.61-.79-1.23-1.53-2.51-3.02-3.83-4.48-.43-.48-1.13.23-.71.71,1.46,1.64,2.92,3.27,4.38,4.91.36.4.92-.04.84-.49-.5-2.77-.77-5.57-.8-8.38l-.98.13c.42,1.13.63,2.29.63,3.49,0,.58.8.66.98.13.96-2.79,2.13-5.49,3.5-8.1.3-.57-.54-1.06-.86-.5l-4.95,8.51c-.28.48.41,1.05.79.61,2.87-3.38,5.73-6.75,8.6-10.13.41-.49-.23-1.15-.71-.71-3,2.76-6.01,5.52-9.01,8.27l.84.49c1.37-4.2,5.37-6.61,9.39-7.81l-.49-.84c-1.49,1.7-3.02,3.38-4.61,4.99-.78.79-1.58,1.56-2.4,2.32-.39.36-.79.72-1.2,1.08-.12.1-1.47,1.3-1.49.71l-.98.13,2.33,6.64.84-.49c-1.47-1.76-3.13-3.31-4.96-4.68l-.5.86c1.58,1.15,2.47,2.97,3.16,4.75.82,2.11,1.53,4.26,2.25,6.4.2.61,1.14.36.96-.27-.71-2.51-1.42-5.02-2.13-7.53l-.84.49c2.07,2.39,1.15,6,1.56,8.86.09.63,1.05.36.96-.27h0Z"/>
    <path class="cls-2" d="M44.46,78.13c.91-.98,1.82-1.96,2.74-2.94.42-.45.76-.83,1.41-.85.6-.02,1.15.07,1.74-.08.63-.16.36-1.09-.27-.96-1.4.29-2.74.74-4.03,1.34-.51.24-.15,1.11.39.91,3.17-1.18,6.65-1.94,10.05-1.85.92.03,1.75.24,2.56.69.67.37,1.3.79,2.01,1.09,1.16.5,2.62.8,3.4,1.88.38.53,1.11.09.86-.5-2.19-5.19-3.3-10.79-3.3-16.42,0-.64-1-.64-1,0,0,5.82,1.17,11.57,3.43,16.92l.86-.5c-.85-1.17-2.16-1.61-3.46-2.12-1.61-.63-2.9-1.79-4.67-1.99s-3.67.06-5.44.35c-1.9.31-3.77.82-5.57,1.49l.39.91c1.21-.56,2.48-.97,3.79-1.24l-.27-.96c-.64.16-1.29-.02-1.93.09-.56.09-.98.4-1.37.8-1.03,1.06-2.02,2.16-3.02,3.24-.44.47.27,1.18.71.71h0Z"/>
    <path class="cls-2" d="M63.63,75.4c-2.88-7.57-5.78-15.2-7.36-23.17-.46-2.29-.79-4.61-.99-6.94-.05-.64-1.05-.64-1,0,.7,8.19,3.11,16.07,5.91,23.75.81,2.21,1.64,4.41,2.48,6.62.23.6,1.19.34.96-.27h0Z"/>
    <path class="cls-2" d="M62.93,72.08c-1.65-4.82-3.31-9.65-4.54-14.6-.56-2.24-1.01-4.51-1.7-6.72-.34-1.09-.74-2.17-1.22-3.21-.42-.9-.87-1.93-1.76-2.47-.3-.18-.79.05-.75.43.58,5.7,2.38,11.22,5.3,16.15.29.49,1.06.17.91-.39-1.74-6.49-4.2-12.75-6.66-19-.19-.47-1.06-.48-.98.13,1.02,7.77,3.64,15.17,6.62,22.38.85,2.05,1.72,4.09,2.6,6.14.22.52,1.11.15.91-.39-2.36-6.56-3.68-13.51-7-19.7-.29-.54-.99-.14-.91.39.95,6.33,3.28,12.34,4.45,18.62l.96-.27c-1.03-3.07-2.06-6.14-3.1-9.21s-1.92-5.86-3.28-8.63c-.22-.45-.94-.23-.93.25.07,2.93.14,5.86.21,8.79l.85-.35c-1.75-2.18-2.95-4.73-3.53-7.46-.1-.47-.88-.49-.96,0-.44,2.61-.89,5.23-1.33,7.84-.08.45.47.89.84.49,1.82-1.97,3.64-3.94,5.47-5.91.21-.22.2-.63-.1-.79-.96-.49-2.06-.25-2.84.48-.92.87-1.07,2.23-.96,3.43.03.35.41.65.75.43,2.18-1.4,3.99-3.28,5.3-5.51.28-.48-.41-1.05-.79-.61-1.87,2.19-3.65,4.45-5.33,6.79h.86c-.19-.42.17-1.14.3-1.55.15-.51.32-1.03.49-1.53.36-1.05.76-2.08,1.21-3.09l-.91-.39c-.48,2.04-.96,4.08-1.43,6.12l.98.13c.01-2.04.02-4.08.04-6.12,0-.64-1-.64-1,0-.01,2.04-.02,4.08-.04,6.12,0,.56.85.69.98.13.48-2.04.96-4.08,1.43-6.12.12-.52-.68-.93-.91-.39-.54,1.23-1.03,2.49-1.45,3.77-.34,1.02-1.01,2.37-.54,3.42.17.38.67.27.86,0,1.63-2.27,3.35-4.46,5.17-6.59l-.79-.61c-1.23,2.08-2.91,3.84-4.95,5.15l.75.43c-.07-.81-.07-1.72.41-2.42.4-.59,1.2-.97,1.88-.63l-.1-.79c-1.82,1.97-3.64,3.94-5.47,5.91l.84.49c.44-2.61.89-5.23,1.33-7.84h-.96c.62,2.91,1.92,5.59,3.78,7.91.28.34.86.05.85-.35-.07-2.93-.14-5.86-.21-8.79l-.93.25c1.35,2.77,2.28,5.71,3.26,8.62s2.01,5.99,3.02,8.98c.21.61,1.08.36.96-.27-1.18-6.28-3.51-12.29-4.45-18.62l-.91.39c3.28,6.11,4.57,12.99,6.9,19.46l.91-.39c-3.87-9.01-7.79-18.2-9.08-28.01l-.98.13c2.46,6.25,4.91,12.51,6.66,19l.91-.39c-2.83-4.77-4.6-10.13-5.16-15.65l-.75.43c.87.53,1.33,1.89,1.7,2.8.43,1.02.77,2.07,1.07,3.14.62,2.17,1.06,4.39,1.63,6.57,1.22,4.7,2.79,9.3,4.36,13.9.21.61,1.17.35.96-.27h0Z"/>
    <path class="cls-2" d="M44.24,70.43c-.66,1.68-1.32,3.35-1.99,5.03l.96.27c.82-5.04,1.28-10.13,1.35-15.23,0-.66-.93-.62-1,0-.66,5.47-1.31,10.96-1.33,16.48,0,.55.87.7.98.13.77-3.95,1.77-7.86,2.99-11.7.17-.53-.66-.9-.91-.39-2,4.01-2.09,8.53-3.06,12.82l.96.27c.99-4.87,1.97-9.75,2.33-14.71.04-.55-.9-.69-.98-.13-.56,3.63-.93,7.29-1.09,10.96-.02.55.88.69.98.13.3-1.74.61-3.48.91-5.22s.47-3.46.9-5.11c.21-.82,1.15-1.06,1.84-1.4.77-.38,1.54-.76,2.31-1.14,1.61-.79,3.23-1.59,4.84-2.38l-.5-.86c-3.22,1.92-6.44,3.84-9.79,5.53l.5.86c3.58-1.85,7.03-3.94,10.34-6.25.52-.36.04-1.22-.5-.86-3.78,2.46-7.46,5.08-11.02,7.84l.71.71c2.68-2.61,5.47-5.1,8.37-7.45l-.71-.71c-2.87,3.66-6.24,6.87-9.61,10.06-.48.46.21,1.09.71.71,4.79-3.71,9.59-7.41,14.73-10.63l-.5-.86c-4.39,3.12-8.78,6.24-13.18,9.36-.52.37-.04,1.22.5.86,4.67-3.08,9.34-6.15,14.01-9.23l-.5-.86c-4.85,3.33-9.7,6.67-14.3,10.35-.44.35.15,1.13.61.79,2.79-2.13,5.58-4.25,8.38-6.38l-.61-.79c-3.09,2.76-6.19,5.53-9.28,8.29-.42.38.13,1.09.61.79,5.53-3.5,11.01-7.15,16.79-10.25l-.5-.86c-5.21,3.47-10.55,6.71-16.03,9.73l.61.79c4.92-4.4,9.91-8.72,14.99-12.93l-.71-.71c-4.21,3.54-8.44,7.11-11.92,11.39-.33.4.1,1.14.61.79,5.15-3.66,10.15-7.52,14.99-11.58.43-.36-.14-1.11-.61-.79-6.43,4.57-12.91,9.18-18.32,14.97-.44.47.23,1.13.71.71,4.81-4.3,9.64-8.6,15.02-12.19l-.61-.79c-4.9,4.01-9.8,8.04-14.39,12.41-.48.46.21,1.09.71.71,5.19-4.04,10.38-8.08,15.57-12.11l-.71-.71c-5.12,4.61-10.57,8.82-16.02,13.03-.49.38-.04,1.24.5.86,5.96-4.08,11.92-8.17,18.15-11.82l-.61-.79c-5.34,4.21-10.84,8.22-16.48,12.03l.61.79c4.35-3.75,8.89-7.27,13.6-10.54.52-.36.04-1.22-.5-.86-4.24,2.8-8.31,5.84-12.21,9.1-.43.36.15,1.12.61.79,3.88-2.82,7.77-5.64,11.82-8.21l-.61-.79c-3.65,3.29-7.44,6.39-11.29,9.43-.84.66-1.61,1.36-2.25,2.21-.19.25-.36.51-.59.72-.05.04-.84.58-.88.35-.02-.12,1.45-.53,1.6-.58,1.15-.38,2.3-.76,3.44-1.14s2.4-.79,3.67-.88c.64-.05.65-.99,0-1-1.9-.02-3.79.05-5.68.2l.13.98c2.62-.46,5.25-.9,7.92-.65l-.13-.98c-1.48.45-3,.73-4.54.82-.64.04-.65.98,0,1,2.22.07,4.43.25,6.62.57,1.69.25,3.67.45,4.83,1.86.36.44,1.11-.14.79-.61-1.27-1.82-1.89-4.06-2.56-6.15s-1.33-4.06-2.35-5.94c-.29-.53-1-.14-.91.39.57,3.37,1.45,6.67,2.63,9.88l.84-.49c-1.93-2.4-2.86-5.46-5.06-7.66-.36-.36-.96,0-.84.49.71,2.74,2.31,5.08,3.92,7.37l.68-.68c-2.14-.91-4-2.34-5.37-4.21-.34-.46-1-.18-.91.39.34,2.11,2.76,2.72,3.63,4.51l.56-.73c-1.62-.31-3.21-.74-4.76-1.29l.12.91c1.76-.95,3.63-1.63,5.58-2.05.41-.09.5-.72.12-.91-2.61-1.33-5.45-.48-8.04.44l.39.91c2.66-1.19,5.31-2.38,7.97-3.57l-.61-.79c-2.96,2.43-5.91,4.86-8.87,7.29l.71.71c2.58-3.14,5.55-5.93,8.86-8.28l-.5-.86c-2.68,1.95-5.4,3.85-8.16,5.7-.44.29-.17,1.13.39.91,2.33-.92,4.71-1.7,7.14-2.32l-.49-.84c-.99,1.17-2.08,2.24-3.28,3.19-.45.36.13,1.08.61.79,1.9-1.18,3.79-2.36,5.69-3.54l-.61-.79c-1.11,1.09-2.22,2.18-3.33,3.28-.4.39.12,1.1.61.79.61-.39,1.15-.86,1.61-1.42.4-.49-.24-1.17-.71-.71l.07-.02c-.29-.58-1.15-.07-.86.5s1.05.66,1.5.22l-.71-.71c-.41.5-.87.92-1.41,1.26l.61.79c1.11-1.09,2.22-2.18,3.33-3.28.4-.39-.12-1.09-.61-.79-1.9,1.18-3.79,2.36-5.69,3.54l.61.79c1.2-.95,2.29-2.02,3.28-3.19.31-.37.02-.97-.49-.84-2.43.62-4.81,1.4-7.14,2.32l.39.91c2.76-1.84,5.48-3.74,8.16-5.7.51-.37.02-1.24-.5-.86-3.38,2.41-6.43,5.24-9.06,8.44-.41.5.21,1.12.71.71,2.96-2.43,5.91-4.86,8.87-7.29.47-.39-.13-1-.61-.79-2.66,1.19-5.31,2.38-7.97,3.57-.51.23-.15,1.1.39.91,2.3-.81,4.93-1.73,7.27-.54l.12-.91c-2.04.44-3.99,1.16-5.82,2.15-.4.22-.27.78.12.91,1.56.55,3.14.98,4.76,1.29.44.08.76-.33.56-.73-.42-.87-1.16-1.48-1.89-2.09s-1.47-1.2-1.63-2.18l-.91.39c1.48,2.01,3.43,3.6,5.73,4.57.4.17,1.01-.22.68-.68-1.56-2.21-3.13-4.48-3.81-7.13l-.84.49c2.19,2.19,3.13,5.27,5.06,7.66.31.39,1-.03.84-.49-1.18-3.21-2.06-6.51-2.63-9.88l-.91.39c1.05,1.94,1.71,4.03,2.38,6.12s1.29,4.2,2.53,5.97l.79-.61c-1.22-1.5-3.23-1.82-5.03-2.09-2.36-.35-4.74-.57-7.13-.64v1c1.63-.1,3.24-.38,4.81-.85.56-.17.41-.93-.13-.98-2.75-.27-5.48.2-8.19.68-.55.1-.43,1.03.13.98,1.89-.15,3.78-.22,5.68-.2v-1c-2.3.16-4.51,1.11-6.69,1.83-.54.18-1.07.36-1.61.53-.44.15-.93.27-1.26.63-.51.56-.19,1.32.49,1.54.91.29,1.74-.29,2.28-.98.69-.87,1.36-1.64,2.23-2.33,1.8-1.45,3.64-2.86,5.42-4.33,2.08-1.72,4.12-3.49,6.13-5.3.42-.38-.13-1.09-.61-.79-4.05,2.57-7.93,5.39-11.82,8.21l.61.79c3.83-3.2,7.84-6.19,12.01-8.95l-.5-.86c-4.79,3.32-9.4,6.89-13.81,10.69-.43.37.13,1.1.61.79,5.71-3.85,11.27-7.92,16.68-12.18.45-.36-.13-1.07-.61-.79-6.23,3.65-12.2,7.73-18.15,11.82l.5.86c5.52-4.26,11.04-8.53,16.22-13.19.49-.44-.21-1.09-.71-.71-5.19,4.04-10.38,8.08-15.57,12.11l.71.71c4.59-4.37,9.49-8.39,14.39-12.41.44-.36-.14-1.1-.61-.79-5.45,3.64-10.35,8-15.22,12.35l.71.71c5.35-5.73,11.75-10.3,18.12-14.82l-.61-.79c-4.77,4-9.71,7.81-14.79,11.42l.61.79c3.48-4.28,7.71-7.85,11.92-11.39.49-.42-.22-1.11-.71-.71-5.08,4.22-10.08,8.53-14.99,12.93-.43.39.12,1.05.61.79,5.48-3.02,10.83-6.27,16.03-9.73.53-.36.07-1.17-.5-.86-5.78,3.1-11.25,6.74-16.79,10.25l.61.79c3.09-2.76,6.19-5.53,9.28-8.29.42-.37-.15-1.13-.61-.79-2.79,2.13-5.58,4.25-8.38,6.38l.61.79c4.53-3.63,9.31-6.92,14.09-10.2.53-.36.04-1.22-.5-.86-4.67,3.08-9.34,6.15-14.01,9.23l.5.86c4.39-3.12,8.78-6.24,13.18-9.36.52-.37.05-1.21-.5-.86-5.21,3.26-10.08,7.03-14.93,10.79l.71.71c3.37-3.19,6.74-6.4,9.61-10.06.4-.51-.2-1.12-.71-.71-2.9,2.35-5.7,4.84-8.37,7.45-.47.46.21,1.09.71.71,3.5-2.71,7.11-5.28,10.82-7.69l-.5-.86c-3.31,2.31-6.76,4.39-10.34,6.25-.57.3-.07,1.15.5.86,3.35-1.68,6.57-3.6,9.79-5.53.56-.33.07-1.15-.5-.86-1.69.83-3.37,1.66-5.06,2.49-.84.41-1.69.83-2.53,1.24-.66.32-1.36.6-1.69,1.3s-.36,1.57-.5,2.32c-.17.97-.34,1.94-.51,2.91-.33,1.86-.65,3.72-.98,5.58l.98.13c.16-3.58.51-7.15,1.06-10.69l-.98-.13c-.34,4.87-1.32,9.66-2.29,14.44-.13.63.82.9.96.27.95-4.19,1.01-8.67,2.95-12.58l-.91-.39c-1.22,3.84-2.22,7.74-2.99,11.7l.98.13c.02-5.52.67-11,1.33-16.48h-1c-.07,5.02-.5,10.02-1.31,14.97-.1.64.73.87.96.27.66-1.68,1.32-3.35,1.99-5.03.24-.6-.73-.86-.96-.27h0Z"/>
    <path class="cls-2" d="M63.29,69.6c.6-2.26-.04-5.98,2.61-7.11l-.75-.43c-.03,2-1.71,3.56-2.31,5.4-.19.58.6.8.91.39.61-.8,1.33-1.52,2.15-2.12l-.68-.68c-.2.32-.44.57-.73.81l.71.71c1.16-1.44,3.1-1.66,4.83-1.64,1.93.02,4.05.26,5.56,1.58.48.42,1.19-.28.71-.71-1.73-1.51-4.05-1.85-6.27-1.88-1.98-.02-4.22.29-5.54,1.93-.4.5.21,1.12.71.71.35-.29.64-.63.88-1.01s-.28-.99-.68-.68c-.96.71-1.78,1.53-2.5,2.48l.91.39c.65-1.97,2.32-3.49,2.35-5.67,0-.42-.42-.57-.75-.43-3.01,1.29-2.38,5.14-3.07,7.71-.17.62.8.89.96.27h0Z"/>
    <path class="cls-2" d="M51.26,38.94c2.58,2.6,5.83,4.51,9.35,5.5,1.76.5,3.59.77,5.42.79,2.21.03,4.41-.33,6.6-.61,1.23-.16,2.47-.31,3.7-.47,1.08-.14,2.32-.14,3.29-.7.56-.32.05-1.19-.5-.86-.86.5-2.06.47-3.03.6-1.03.13-2.06.26-3.09.39-2.08.26-4.17.6-6.26.65-3.49.08-6.98-.78-10.04-2.44-1.75-.95-3.33-2.14-4.73-3.55-.45-.46-1.16.25-.71.71h0Z"/>
    <path class="cls-2" d="M79.14,42.42c-1.2.51-2.4,1.02-3.6,1.54s-2.38.96-3.5,1.58c-1.97,1.09-3.11,3-4.15,4.92-.31.57.56,1.07.86.5,1.04-1.92,2.12-3.73,4.14-4.75,2.18-1.1,4.5-1.98,6.75-2.94.59-.25.08-1.11-.5-.86h0Z"/>
    <path class="cls-2" d="M76.45,43.95c-.64.73-1.48,1.2-2.24,1.8s-1.31,1.36-1.7,2.27c-.45,1.05-.8,2.15-1.18,3.23s-.8,2.21-.96,3.36c-.15,1.1.04,2.17.23,3.25s.4,2.21.74,3.28c.59,1.84,1.62,3.54,3.28,4.59.49.31,1-.38.61-.79-2.47-2.55-4.21-5.71-5.04-9.17-.15-.63-1.12-.36-.96.27.87,3.62,2.71,6.94,5.3,9.61l.61-.79c-1.65-1.03-2.52-2.81-3.01-4.63-.25-.94-.42-1.9-.59-2.86-.19-1.07-.31-2.1-.08-3.18.22-.99.58-1.95.92-2.91s.64-1.89,1.02-2.81.93-1.6,1.73-2.18c.71-.52,1.45-.98,2.03-1.65.42-.48-.28-1.19-.71-.71h0Z"/>
    <path class="cls-2" d="M74.16,63.72c-1.44-2.69-2.51-5.55-3.2-8.52-.15-.63-1.11-.36-.96.27.71,3.05,1.83,6,3.3,8.76.3.57,1.17.06.86-.5h0Z"/>
    <path class="cls-2" d="M52.93,41.14c3.49,3.61,6.85,7.36,10.05,11.23l.61-.79c-2.29-.97-3.95-3.36-5.32-5.35-.7-1.03-1.35-2.09-1.94-3.19s-.99-2.22-1.94-2.98c-.38-.3-.96-.03-.84.49.69,2.83,2.07,5.47,3.29,8.09,1.31,2.79,2.66,5.57,4.04,8.32.25.5,1.13.15.91-.39-2.32-5.84-4.89-11.58-7.69-17.2-.25-.51-1.08-.15-.91.39,1.67,5.32,3.72,10.51,6.15,15.53.28.58,1.14.07.86-.5-2.39-4.94-4.41-10.05-6.05-15.29l-.91.39c2.77,5.55,5.3,11.2,7.59,16.96l.91-.39c-1.35-2.68-2.67-5.38-3.94-8.1s-2.6-5.25-3.29-8.08l-.84.49c.98.78,1.4,2.09,1.99,3.16.64,1.15,1.34,2.27,2.11,3.34,1.39,1.94,3.02,4.21,5.3,5.17.52.22.98-.33.61-.79-3.2-3.87-6.56-7.61-10.05-11.23-.45-.46-1.15.24-.71.71h0Z"/>
    <path class="cls-2" d="M55.19,43.55c3.09.71,6.11,1.73,8.99,3.06l.39-.91c-2.63-.75-5.31-1.26-8.03-1.55v1c4.75.5,9.51,2.32,14.3,1.09.57-.15.41-.94-.13-.98-2.5-.22-5.01-.22-7.52-.01-.63.05-.65,1.02,0,1,3.71-.11,7.77,1.09,11.12-1.07.32-.21.34-.85-.12-.91-1.68-.23-3.05.76-4.54,1.35-1.63.65-3.36,1.08-5.1,1.28-.5.06-.74.89-.13.98,2.71.4,5.64.79,8.25-.32.49-.21,1.15-.47,1.44-.96.26-.45.11-.97-.37-1.19-.65-.29-1.56-.29-2.26-.4-.9-.14-1.8-.28-2.71-.43-.27-.04-.53.07-.62.35-1.09,3.7-.74,7.68-2.05,11.33-.22.61.75.87.96.27,1.32-3.65.97-7.62,2.05-11.33l-.62.35c1.31.21,2.62.41,3.94.62.22.03.71.02.89.15-.24-.17-.32-.04-.56.09-.5.27-1.02.46-1.57.6-2.12.54-4.38.22-6.52-.09l-.13.98c1.61-.18,3.2-.52,4.72-1.07.72-.26,1.43-.57,2.12-.9.78-.37,1.63-.82,2.53-.7l-.12-.91c-3.16,2.04-7.12.84-10.61.94v1c2.5-.21,5.02-.21,7.52.01l-.13-.98c-4.66,1.19-9.4-.65-14.03-1.13-.64-.07-.63.93,0,1,2.63.28,5.22.79,7.76,1.52.53.15.91-.67.39-.91-2.96-1.37-6.05-2.43-9.23-3.16-.63-.14-.89.82-.27.96h0Z"/>
    <path class="cls-2" d="M56.45,44.6c2.39,1.07,4.86,1.89,7.43,2.43l.13-.98c-3.46.23-6.91-.13-10.24-1.09l-.13.98c3.74-.12,7.45.31,11.07,1.27l.13-.98c-2.75.09-5.45-.36-8.15-.84l-.27.96c4.42.77,8.91.92,13.36.44l-.5-.5c.04,2.41-.33,4.77-1.1,7.05l.96.27c.28-.95.56-1.89.84-2.84.21-.71.36-1.65,1.07-2.04l-.73-.56c-.59,2.6-1.18,5.19-1.77,7.79l.96.27c.65-3.17,1.6-6.26,2.85-9.24l-.96-.27c-.71,3.75-1.9,7.38-3.58,10.8l.86.5c.9-1.91,1.8-3.83,2.7-5.74l1.35-2.87c.33-.7.84-1.49.52-2.28-.11-.28-.32-.39-.62-.35-.49.07-.81.41-1.11.79-.4.51-.78,1.04-1.14,1.59-.72,1.09-1.35,2.23-1.92,3.39-1.14,2.33-2.03,4.76-2.83,7.22l.96.27c.59-4.23,1.4-8.42,2.43-12.57.16-.63-.76-.88-.96-.27-1.08,3.27-1.9,6.62-2.45,10.02-.09.55.59.88.91.39,1.47-2.21,2.3-4.75,2.46-7.4.02-.34-.33-.55-.63-.48-.56.13-.89.53-1.22.97-.43.57-.84,1.15-1.24,1.73-.83,1.2-1.61,2.44-2.34,3.7-1.43,2.46-2.68,5.03-3.75,7.67-.21.52.66.89.91.39,1.05-2.12,1.98-4.31,2.75-6.55.38-1.1.73-2.21,1.03-3.33.16-.6.34-1.2.46-1.8.08-.42.05-.72-.22-1.06-.12-.15-.44-.2-.61-.08-2.66,2.05-5.32,4.1-7.98,6.15l.73.56c.74-2.03,1.6-4.06,2.21-6.14.44-1.5.24-3.5-1.54-3.97l-.13.98c3.16.01,6.3.27,9.42.8.43.07.93-.49.49-.84-1.08-.84-2.48-.99-3.79-1.2-1.53-.25-3.06-.43-4.6-.54-.64-.05-.64.95,0,1,2.92.22,5.85.43,8.77.65.56.04.68-.87.13-.98l-1.62-.34v.96c1.04-.21,2.09-.41,3.13-.62.26-.05.42-.37.35-.62-.5-1.69-3.17-.66-4.19-.19-.38.18-.29.83.12.91,1.6.32,3.21.63,4.81.95l-.12-.91c-3.59,1.94-7.55,3.08-11.62,3.33l.25.93c2.17-.94,4.34-1.88,6.51-2.81.49-.21.19-.9-.25-.93-3.11-.2-6.24.14-9.24,1-.52.15-.45,1.05.13.98,2.21-.27,4.17-1.24,6.12-2.26.57-.3.07-1.14-.5-.86-2.54,1.23-4.92,2.74-7.12,4.5-.39.31.03.99.49.84,3.31-1.12,6.53-2.46,9.65-4.03l-.5-.86c-3.94,2.24-7.87,4.48-11.81,6.71l.61.79c2.17-1.76,4.4-3.46,6.67-5.09l-.61-.79c-2.47,2.33-4.95,4.66-7.42,6.99-.41.39.12,1.09.61.79,4.43-2.77,8.86-5.54,13.48-7.98l-.61-.79c-3.59,3.35-7.67,6.11-11.74,8.85l.5.86c3.54-2.47,7.04-4.99,10.51-7.55.51-.37.07-1.19-.5-.86-4.25,2.41-8.38,5.03-12.38,7.84-.52.36-.06,1.19.5.86,4.52-2.62,8.98-5.35,13.37-8.19l-.61-.79c-3.8,3.56-7.59,7.12-11.39,10.68l.71.71c3.65-3.58,7.3-7.15,11.16-10.5l-.71-.71c-3.39,3.63-6.78,7.25-10.16,10.88-.44.48.22,1.12.71.71,4.17-3.54,8.35-7.08,12.52-10.63l-.71-.71c-3.91,3.85-7.85,7.67-11.83,11.45l.79.61c3.44-4.57,7.04-9.02,10.8-13.34.42-.48-.24-1.16-.71-.71-2.88,2.82-5.98,5.41-9.27,7.74-.52.37-.05,1.21.5.86,3.16-1.93,6.32-3.87,9.48-5.8l-.5-.86c-4.16,2.55-8.31,5.1-12.47,7.65-.55.34-.06,1.18.5.86,4.29-2.45,8.58-4.89,12.87-7.34l-.61-.79c-3.13,3.34-6.25,6.69-9.38,10.03-.44.47.26,1.18.71.71,3.26-3.43,6.4-6.97,9.41-10.61.41-.49-.3-1.2-.71-.71-4.12,4.97-8.06,10.07-11.84,15.31-.35.49.38.94.79.61,2.29-1.9,4.34-4.08,6.34-6.27,2.12-2.32,4.24-4.65,6.36-6.98.43-.47-.25-1.17-.71-.71-4.98,5.07-9.49,10.59-13.46,16.49-.36.54.5,1.03.86.5,4.39-6.26,8.61-12.62,12.68-19.09.3-.47-.41-1.04-.79-.61-2.96,3.47-5.79,7.05-8.19,10.94-.29.47.42,1.06.79.61,2.36-2.95,4.56-6.02,6.57-9.22l-.91-.39c-.53,2.99-1.88,5.83-3.07,8.6s-2.5,5.66-3.84,8.45c-.28.58.57,1.08.86.5,2.33-4.64,4.66-9.29,6.69-14.08.24-.58-.57-1.09-.86-.5-2.12,4.19-4.23,8.38-6.35,12.56l.91.39c1.13-3.43,2.36-6.82,3.69-10.17.21-.52-.67-.89-.91-.39-1.46,3-2.47,6.18-3,9.47-.1.62.83.91.96.27.53-2.53,1.06-5.06,1.6-7.6h-.96c.45,3.06.3,6.17-.43,9.17-.15.63.77.88.96.27,1.1-3.47,1.98-7,2.64-10.58l-.96-.27c-.5,3.36-.97,6.73-1.41,10.1-.07.51.71.66.93.25,2.04-3.72,3.46-7.73,4.85-11.72l-.96-.27c-.58,3.35-1.55,6.62-2.9,9.74l.91.39c1.24-4.44,2.63-8.84,4.18-13.18.2-.56-.61-.82-.91-.39-2.4,3.45-3.47,7.58-5.34,11.3l.91.39c1.49-3.77,2.99-7.54,4.48-11.31.21-.53-.66-.88-.91-.39-1.68,3.25-2.67,6.77-3.63,10.28l.96.27c.98-3.8,2.29-7.5,3.92-11.07l-.68.18c.12.08,0,.96,0,1.11-.02.46-.05.91-.1,1.37-.09.9-.23,1.8-.41,2.69-.36,1.76-.9,3.47-1.59,5.12l.96.27c.94-2.45,1.87-4.9,2.81-7.36.2-.52-.68-.9-.91-.39-1.24,2.73-2.49,5.47-4.09,8.01l.93.25c.21-2.26.51-4.52.87-6.76.08-.51-.64-.93-.91-.39-1,2-1.47,4.16-1.91,6.34-.13.63.77.89.96.27.88-2.84,1.66-5.72,2.34-8.62.15-.63-.75-.87-.96-.27-.9,2.59-1.4,5.3-1.5,8.04-.02.43.56.67.85.35.85-.92,1.71-1.84,2.56-2.76l-.84-.49c-.74,1.96-1.48,3.92-2.22,5.87-.14.38.28.69.62.62.53-.12,1.01-.3,1.48-.57l-.68-.68c-.11.25-.24.43-.47.58-.39.26-.27.96.25.93,2.33-.12,4.64-.5,6.89-1.12.25-.07.44-.36.35-.62-.75-2.11-1.66-4.16-2.72-6.13-.26-.49-1.11-.15-.91.39.95,2.57,1.93,5.16,3.46,7.45l.79-.61c-1.85-2.01-3.32-4.34-4.32-6.88-.19-.48-1.01-.48-.98.13.05,1.04.53,1.92.99,2.84.52,1.05,1.04,2.1,1.55,3.14l.79-.61c-1.8-1.64-2.87-3.84-3.91-6.01-.23-.49-.9-.2-.93.25-.19,2.53,1.91,4.31,2.63,6.57l.84-.49c-1.27-1.19-2.43-2.47-3.46-3.87-.37-.51-1.19-.07-.86.5.79,1.39,1.58,2.78,2.37,4.18l.43-.75c-.76.08-1.18-.62-1.58-1.15-.35-.47-.72-.9-1.27-1.14-.3-.13-.81.01-.75.43.09.68.53,1.14,1.23,1.16.16,0,.36-.09.43-.25.58-1.22-.03-2.67-.47-3.85-.51-1.38-1.17-2.7-1.96-3.94-.35-.54-1.21-.04-.86.5.66,1.04,1.24,2.14,1.7,3.28.22.56.42,1.13.58,1.71s.41,1.23.15,1.8l.43-.25-.23-.16-.75.43c1.31.58,1.62,2.61,3.35,2.42.37-.04.63-.4.43-.75-.79-1.39-1.58-2.78-2.37-4.18l-.86.5c1.08,1.47,2.28,2.83,3.62,4.07.35.33.99,0,.84-.49-.68-2.13-2.78-3.96-2.6-6.31l-.93.25c1.07,2.24,2.2,4.51,4.06,6.21.43.39,1.04-.1.79-.61-.45-.9-.89-1.81-1.34-2.71s-1.02-1.78-1.06-2.77l-.98.13c1.07,2.71,2.61,5.17,4.58,7.32.38.41,1.1-.13.79-.61-1.49-2.22-2.44-4.72-3.36-7.21l-.91.39c1.03,1.9,1.9,3.86,2.62,5.89l.35-.62c-2.17.6-4.38.96-6.63,1.08l.25.93c.37-.24.64-.54.83-.94.2-.44-.22-.94-.68-.68-.4.22-.8.37-1.25.47l.62.62c.74-1.96,1.48-3.92,2.22-5.87.18-.47-.51-.84-.84-.49-.85.92-1.71,1.84-2.56,2.76l.85.35c.1-2.66.59-5.27,1.47-7.78l-.96-.27c-.68,2.9-1.46,5.78-2.34,8.62l.96.27c.42-2.08.85-4.18,1.81-6.1l-.91-.39c-.38,2.33-.69,4.68-.91,7.03-.05.52.69.64.93.25,1.61-2.54,2.85-5.28,4.09-8.01l-.91-.39c-.94,2.45-1.87,4.9-2.81,7.36-.23.61.72.85.96.27.83-1.97,1.43-4.03,1.78-6.13.17-1.02.29-2.05.34-3.09.04-.73.25-1.75-.48-2.2-.21-.13-.57-.06-.68.18-1.67,3.64-3.02,7.42-4.02,11.3-.16.62.79.89.96.27.94-3.43,1.89-6.87,3.53-10.04l-.91-.39c-1.49,3.77-2.99,7.54-4.48,11.31-.21.53.66.89.91.39,1.87-3.73,2.94-7.85,5.34-11.3l-.91-.39c-1.55,4.34-2.94,8.74-4.18,13.18-.15.53.68.92.91.39,1.39-3.2,2.4-6.54,3-9.98.11-.63-.75-.88-.96-.27-1.36,3.91-2.74,7.84-4.75,11.48l.93.25c.44-3.28.9-6.56,1.38-9.83.09-.62-.85-.91-.96-.27-.66,3.58-1.54,7.11-2.64,10.58l.96.27c.78-3.19.92-6.46.43-9.71-.07-.49-.87-.46-.96,0-.53,2.53-1.06,5.06-1.6,7.6l.96.27c.51-3.2,1.48-6.31,2.9-9.23l-.91-.39c-1.33,3.35-2.56,6.75-3.69,10.17-.18.53.66.89.91.39,2.12-4.19,4.23-8.38,6.35-12.56l-.86-.5c-2.03,4.79-4.36,9.44-6.69,14.08l.86.5c1.38-2.86,2.69-5.75,3.94-8.67s2.54-5.62,3.07-8.61c.1-.54-.6-.89-.91-.39-1.96,3.13-4.1,6.14-6.41,9.02l.79.61c2.35-3.81,5.13-7.33,8.03-10.73l-.79-.61c-4.06,6.47-8.29,12.84-12.68,19.09l.86.5c3.92-5.83,8.38-11.28,13.3-16.29l-.71-.71c-2.12,2.33-4.23,4.66-6.36,6.98-2.01,2.2-4.05,4.37-6.34,6.27l.79.61c3.72-5.16,7.62-10.2,11.68-15.1l-.71-.71c-3.01,3.64-6.15,7.18-9.41,10.61l.71.71c3.13-3.34,6.25-6.69,9.38-10.03.38-.41-.1-1.07-.61-.79-4.29,2.45-8.58,4.89-12.87,7.34l.5.86c4.16-2.55,8.31-5.1,12.47-7.65.55-.34.05-1.2-.5-.86-3.16,1.93-6.32,3.87-9.48,5.8l.5.86c3.36-2.38,6.53-5.01,9.47-7.89l-.71-.71c-3.81,4.38-7.46,8.9-10.95,13.54-.35.47.39.98.79.61,3.98-3.78,7.92-7.6,11.83-11.45.46-.46-.22-1.12-.71-.71-4.17,3.54-8.35,7.08-12.52,10.63l.71.71c3.39-3.63,6.78-7.25,10.16-10.88.44-.47-.22-1.13-.71-.71-3.86,3.35-7.51,6.93-11.16,10.5-.46.45.24,1.15.71.71,3.8-3.56,7.59-7.12,11.39-10.68.41-.38-.13-1.1-.61-.79-4.39,2.84-8.85,5.57-13.37,8.19l.5.86c4-2.81,8.13-5.43,12.38-7.84l-.5-.86c-3.47,2.56-6.98,5.08-10.51,7.55-.52.36-.03,1.23.5.86,4.14-2.79,8.28-5.59,11.94-9,.43-.4-.12-1.04-.61-.79-4.62,2.44-9.05,5.21-13.48,7.98l.61.79c2.47-2.33,4.95-4.66,7.42-6.99.4-.38-.14-1.12-.61-.79-2.34,1.68-4.63,3.43-6.87,5.24-.45.36.13,1.06.61.79,3.94-2.24,7.87-4.48,11.81-6.71.56-.32.07-1.15-.5-.86-3.04,1.53-6.18,2.85-9.41,3.93l.49.84c2.13-1.71,4.46-3.15,6.92-4.34l-.5-.86c-1.77.93-3.6,1.88-5.62,2.12l.13.98c2.92-.84,5.94-1.16,8.97-.97l-.25-.93c-2.17.94-4.34,1.88-6.51,2.81-.46.2-.22.96.25.93,4.25-.26,8.38-1.44,12.13-3.47.36-.2.31-.83-.12-.91-1.6-.32-3.21-.63-4.81-.95l.12.91c.33-.15,2.54-1.05,2.72-.41l.35-.62c-1.04.21-2.09.41-3.13.62-.48.09-.47.87,0,.96l1.62.34.13-.98c-2.92-.22-5.85-.43-8.77-.65v1c1.37.1,2.74.25,4.1.47,1.13.18,2.65.26,3.59.99l.49-.84c-3.2-.54-6.44-.82-9.68-.83-.56,0-.68.84-.13.98,1.79.47.79,2.93.38,4.05-.58,1.61-1.17,3.22-1.75,4.83-.14.39.39.83.73.56,2.66-2.05,5.32-4.1,7.98-6.15l-.61-.08c.07.09-.34,1.3-.38,1.44-.12.45-.24.9-.38,1.34-.3,1-.62,2-.97,2.99-.71,1.97-1.53,3.89-2.46,5.76l.91.39c.98-2.42,2.13-4.77,3.43-7.04.63-1.1,1.3-2.19,2-3.25.35-.53.71-1.05,1.08-1.57.33-.46.76-1.37,1.34-1.51l-.63-.48c-.15,2.47-.95,4.83-2.32,6.9l.91.39c.56-3.4,1.38-6.75,2.45-10.02l-.96-.27c-1.03,4.14-1.85,8.34-2.43,12.57-.09.62.76.9.96.27.74-2.24,1.53-4.46,2.54-6.59.5-1.05,1.04-2.07,1.65-3.06.3-.49.62-.98.96-1.45.28-.39.64-1.12,1.16-1.2l-.62-.35c.18.44-.13.89-.31,1.29l-.57,1.21-1.2,2.54c-.8,1.69-1.6,3.39-2.39,5.08-.27.58.58,1.09.86.5,1.71-3.5,2.96-7.21,3.68-11.04.12-.65-.72-.85-.96-.27-1.25,2.98-2.2,6.07-2.85,9.24-.13.63.82.9.96.27.59-2.6,1.18-5.19,1.77-7.79.1-.43-.34-.78-.73-.56-.76.41-1.09,1.19-1.34,1.99-.35,1.16-.69,2.32-1.03,3.49-.18.62.76.87.96.27.8-2.36,1.18-4.83,1.13-7.31,0-.25-.23-.53-.5-.5-4.36.47-8.77.34-13.1-.41-.63-.11-.9.85-.27.96,2.78.49,5.58.97,8.41.87.55-.02.69-.83.13-.98-3.69-.98-7.51-1.42-11.33-1.3-.56.02-.69.82-.13.98,3.41.98,6.97,1.36,10.51,1.12.53-.04.72-.86.13-.98-2.47-.52-4.88-1.29-7.19-2.33-.58-.26-1.09.6-.5.86h0Z"/>
    <g>
      <path class="cls-1" d="M39.98,3.28c1.41,3.36,3.2,8.05,4.82,13.81,1.96,6.99,3.04,10.85,2.88,16.23-.22,7.29-2.58,12.72-3.49,14.64-3.59,7.58-8.9,11.8-12.88,14.9-9.83,7.64-20.21,10.52-26.98,11.69"/>
      <path class="cls-1" d="M37.01,107.97c.67-8.14,2.15-14.64,3.42-19.13,2.67-9.45,4.76-11.36,6.04-12.28,4.33-3.13,10.69-3.16,15.11-.72,1.86,1.03,3.02,2.3,6.28,7.03,2.41,3.5,5.57,8.31,9.03,14.29"/>
      <path class="cls-1" d="M96.74,80.06c-5.02-3.79-9.25-6.74-12.24-8.76-6.56-4.43-8.6-5.4-10.34-8.46-.21-.37-3.87-7.01-1.02-13.21,1.76-3.84,5.1-5.5,11.7-8.66,5.38-2.58,10.22-4,13.81-4.82"/>
      <path class="cls-1" d="M46.86,25.02c.42,1.34,4.39,11.89,6.18,13.83,2.79,3.03,6.18,3.9,8.64,4.49,6.31,1.51,20.78-1.48,23.57-2.49"/>
      <path class="cls-1" d="M67.06,81.78c-.1-.76-4.97-9.56-3.2-12.97.56-1.08,1.81-2.83,5.22-3.46s12.78,4.14,13.13,4.42"/>
      <path class="cls-1" d="M19.92,69.62c1.17-.48,12.77-4.64,15.56-3.57,4.35,1.67,5.48,6.81,5.85,8.52.64,2.92-.41,11.92-.75,13.32"/>
    </g>
  </g>
</svg>