<?xml version="1.0" encoding="UTF-8"?>
<svg id="_Слой_1" data-name="Слой 1" xmlns="http://www.w3.org/2000/svg" viewBox="0 0 125 127">
  <defs>
    <style>
      .cls-1 {
        fill: none;
        stroke: #000;
        stroke-miterlimit: 10;
      }

      .cls-2 {
        fill: #6db7a6;
        stroke-width: 0px;
      }
    </style>
  </defs>
  <path class="cls-2" d="M57.7,42.46c.64,0,.64-1,0-1s-.64,1,0,1h0Z"/>
  <path class="cls-2" d="M56.06,36.09c.02,3.06.16,6.11.44,9.16.06.65.92.63,1,0,.57-4.65.48-9.35-.24-13.97-.08-.54-.81-.41-.96,0-1.33,3.6-1.61,7.5-.84,11.25.1.48.86.47.96,0,.87-4.06,1.22-8.21,1.01-12.35-.03-.52-.64-.65-.93-.25-.68.94-.98,2.06-1.18,3.19-.25,1.38-.46,2.78-.66,4.17-.42,2.82-.77,5.65-1.08,8.49-.06.55.91.69.98.13.35-2.58.71-5.16,1.06-7.75.09-.62-.75-.89-.96-.27-1.04,3.05-1.94,6.14-2.7,9.27l.96.27c.49-2.15.99-4.29,1.48-6.44.14-.63-.82-.89-.96-.27-.6,2.58-1.63,5.01-3.08,7.23l.91.39c.39-1.57.99-3.05,1.81-4.44l-.91-.39c-1.19,3.3-3.79,5.98-6.27,8.37s-6.09,4.71-9.59,3.07l-.39.91c3.73.73,7.24-1.55,10.42-3.16,1.59-.8,3.31-1.52,4.64-2.73s2.09-2.7,2.88-4.19c.3-.57-.56-1.08-.86-.5-.72,1.36-1.44,2.77-2.57,3.85-1.22,1.18-2.88,1.85-4.38,2.61s-3.06,1.61-4.64,2.3-3.43,1.23-5.23.88c-.52-.1-.93.66-.39.91,3.7,1.74,7.57-.26,10.33-2.79s5.68-5.61,7-9.25c.2-.54-.63-.86-.91-.39-.86,1.46-1.5,3.03-1.91,4.68-.14.56.61.86.91.39,1.49-2.29,2.56-4.81,3.18-7.47l-.96-.27c-.49,2.15-.99,4.29-1.48,6.44-.14.63.81.89.96.27.76-3.13,1.66-6.22,2.7-9.27l-.96-.27c-.35,2.58-.71,5.16-1.06,7.75l.98.13c.29-2.75.64-5.49,1.04-8.22.19-1.29.39-2.58.61-3.87.2-1.15.44-2.28,1.13-3.24l-.93-.25c.21,4.06-.12,8.12-.97,12.09h.96c-.73-3.59-.42-7.29.84-10.72h-.96c.71,4.54.77,9.15.21,13.71h1c-.27-3.05-.42-6.1-.44-9.16,0-.64-1-.64-1,0h0Z"/>
  <path class="cls-2" d="M58.52,38.76c1.08,3.09,2.44,6.08,4.06,8.93.32.56,1.15.07.86-.5-1.92-3.78-3.83-7.55-5.75-11.33l-.86.5c1.74,2.58,3.49,5.15,5.23,7.73.36.53,1.2.05.86-.5-1.96-3.26-3.92-6.51-5.88-9.77l-.86.5c2.12,3.08,4.26,6.18,6.88,8.87.39.4,1.12-.13.79-.61-1.96-2.74-3.92-5.49-5.88-8.23-.37-.51-1.21-.05-.86.5,2.45,3.99,5.65,7.46,9.42,10.25.5.37.92-.38.61-.79-1.66-2.12-3.61-3.97-5.81-5.53l-.5.86c3.04,2.04,6.11,4.06,9.59,5.26.46.16.86-.51.49-.84-1.67-1.42-3.62-2.41-5.75-2.89l-.27.96c6.14,1.04,13.15,2.07,18.53-1.91l-.61-.79c-3.54,3.52-6.25,7.78-7.95,12.46-.22.61.74.86.96.27,1.38-3.68,3.2-7.17,5.38-10.44l-.91-.39c-1.08,2.73-2.16,5.47-3.24,8.2l.96.27c1.07-3.1,2.66-6,4.7-8.57l-.79-.61c-2.84,5.11-5.67,10.26-7.46,15.84l.98.13c.38-3.5,1.4-6.92,2.98-10.06l-.93-.25c-.4,4.08-.8,8.16-1.2,12.24l.98-.13c-.52-3.39-.37-6.85.4-10.18l-.98-.13c.09,4.24-.05,8.49-.44,12.72l.98-.13c-.88-4.04-1.16-8.19-.8-12.31.04-.51.1-1.03.16-1.54.05-.38.16-.79.1-1.18-.13-.88-.91-.88-1.63-.85-2.16.08-4.32.16-6.49.24l.5.5c-.02-.59,1.18-.75,1.58-.86.78-.2,1.56-.39,2.34-.55,1.6-.34,3.22-.62,4.85-.82.62-.08.65-1.05,0-1-3.09.22-6.19.44-9.28.66-.64.05-.64,1.04,0,1,3.53-.22,7.08-.25,10.61-.09l-.13-.98c-2.12.48-4.05,1.5-5.65,2.96-.42.38.13,1.09.61.79,1.92-1.22,3.84-2.44,5.75-3.66l-.61-.79c-4.24,4.43-7.44,9.78-9.34,15.61-.2.61.76.88.96.27,1.85-5.66,4.97-10.86,9.09-15.17.38-.4-.11-1.1-.61-.79-1.92,1.22-3.84,2.44-5.75,3.66l.61.79c1.48-1.35,3.25-2.26,5.2-2.7.57-.13.41-.96-.13-.98-3.54-.17-7.08-.14-10.61.09v1c3.09-.22,6.19-.44,9.28-.66v-1c-2.03.26-4.06.6-6.05,1.07-1.15.27-3.77.5-3.72,2.16,0,.26.22.51.5.5,1.95-.07,3.91-.14,5.86-.22.25,0,.5-.02.75-.03.22,0,.45-.09.52.06.11.23-.11.95-.14,1.21-.11.95-.19,1.9-.24,2.85-.18,3.7.15,7.41.94,11.03.13.59.93.4.98-.13.39-4.23.54-8.47.44-12.72-.01-.55-.85-.7-.98-.13-.82,3.52-.95,7.14-.4,10.71.09.6.93.38.98-.13.4-4.08.8-8.16,1.2-12.24.05-.49-.72-.68-.93-.25-1.67,3.32-2.71,6.88-3.12,10.57-.06.58.82.65.98.13,1.76-5.5,4.57-10.57,7.36-15.6.26-.47-.42-1.07-.79-.61-2.16,2.71-3.84,5.73-4.96,9.01-.21.62.73.85.96.27,1.08-2.73,2.16-5.47,3.24-8.2.22-.55-.62-.83-.91-.39-2.24,3.34-4.07,6.92-5.48,10.68l.96.27c1.65-4.52,4.29-8.63,7.7-12.02.39-.39-.14-1.13-.61-.79-5.15,3.82-11.86,2.81-17.75,1.81-.62-.11-.9.82-.27.96,1.96.45,3.77,1.33,5.31,2.64l.49-.84c-3.39-1.17-6.39-3.17-9.35-5.16-.54-.36-1.02.5-.5.86,2.13,1.51,4.01,3.32,5.61,5.38l.61-.79c-3.62-2.68-6.7-6.05-9.06-9.89l-.86.5c1.96,2.74,3.92,5.49,5.88,8.23l.79-.61c-2.56-2.63-4.65-5.65-6.73-8.67-.36-.52-1.2-.05-.86.5,1.96,3.26,3.92,6.51,5.88,9.77l.86-.5c-1.74-2.58-3.49-5.15-5.23-7.73-.36-.53-1.16-.07-.86.5,1.92,3.78,3.83,7.55,5.75,11.33l.86-.5c-1.59-2.77-2.91-5.67-3.96-8.69-.21-.6-1.18-.34-.96.27h0Z"/>
  <path class="cls-2" d="M48.75,57.22c2.83,1.87,5.53,3.91,8.11,6.11l.61-.79c-5.95-2.73-11.5-7.75-18.48-7.14-.51.04-.73.9-.13.98,3.12.42,6.11,1.42,8.84,2.98.56.32,1.06-.53.5-.86-2.71-1.61-5.63-2.82-8.69-3.59-.64-.16-.85.73-.27.96,4.04,1.61,8.26,3.36,11.08,6.82l.22-.84c-.64.09-1.18-.48-1.59-.89-.48-.49-.95-.99-1.43-1.49-.96-1.01-1.92-2.01-2.88-3.02-.45-.47-1.12.22-.71.71,1.77,2.07,3.37,4.27,4.79,6.59l.79-.61c-1.49-1.26-2.49-2.92-2.9-4.82l-.91.39c1.26,2.05,2.09,4.3,2.46,6.67l.91-.39c-.58-.97-.88-2.01-.91-3.13l-.98.13c.27,1.16.25,2.44-.22,3.54-.5,1.2-1.73,1.34-2.86,1.64-2.51.67-5.03,1.34-7.54,2.01-.56.15-.42.95.13.98,4.46.23,8.82-1.91,11.42-5.52.31-.42-.28-.91-.68-.68-.93.53-1.59,1.34-1.95,2.35-.16.47.51.86.84.49,2.05-2.33,2.9-5.46,2.34-8.51l-.96.27c.58,1.93.99,3.91,1.19,5.91.1,1.02.15,2.05.15,3.08,0,.78.01,1.88-.99,1.99-.84.09-1.74-.31-2.56-.44-.89-.15-1.78-.22-2.68-.2-1.86.03-3.71.42-5.42,1.14-.35.15-.55.7-.12.91,3.96,1.94,7.72,4.26,11.21,6.97l.71-.71c-2.73-2.11-5.39-4.32-7.96-6.62l-.61.79c2.42,1.36,4.7,2.93,6.84,4.71l.71-.71c-2.6-2.07-5.43-3.81-8.47-5.17l-.12.91c4.07-1.25,8.58-.46,12.43-2.53.3-.16.35-.71,0-.86-2.69-1.15-5.56-.57-8.3.08l.39.91c1.63-.73,3.27-1.46,4.9-2.19.6-.27,1.34-.47,1.77-1.01.31-.39.38-.95-.04-1.29-.47-.39-1.06-.14-1.52.13-.62.36-1.2.78-1.75,1.22-1.13.91-2.09,2.01-2.89,3.22-.3.45.27.89.68.68,1.45-.7,2.63-1.84,3.39-3.25.26-.48-.41-1.06-.79-.61-1.04,1.25-1.73,2.7-1.98,4.31-.1.64.72.87.96.27.47-1.16,1.02-2.28,1.65-3.37h-.86c.51,1.16,1.01,2.32,1.52,3.48.2.46.95.22.93-.25-.06-1.22-.25-2.43-.58-3.61l-.91.39,1.55,3.43c.23.51,1.12.14.91-.39-.64-1.64-1.29-3.29-1.93-4.93-.19-.48-1.02-.48-.98.13.15,2.45.57,4.87,1.28,7.22l.91-.39c-.58-1.21-1.16-2.41-1.75-3.62-.25-.52-1.05-.15-.91.39.32,1.24.69,2.47,1.13,3.67.22.6,1.13.37.96-.27-.33-1.29-.86-2.51-1.58-3.64-.3-.47-1.05-.18-.91.39.34,1.35.76,2.67,1.26,3.97l.84-.49c-1.17-.97-2.34-1.94-3.51-2.9-.36-.3-.98-.03-.84.49.35,1.21.95,2.3,1.77,3.25l.71-.71c-1.11-1.05-2.21-2.1-3.32-3.15-.34-.32-1.02,0-.84.49.42,1.15,2.07,1.79,2.95.72.77-.94-.01-2.6-1.25-2.5-.29.02-.61.31-.48.63.66,1.71,1.53,3.32,2.62,4.79l.79-.61c-1.25-1.04-2.49-2.08-3.74-3.12-.4-.33-1.15.11-.79.61,1.29,1.73,2.75,3.31,4.4,4.7.49.41,1.2-.28.71-.71-1.84-1.59-3.78-3.06-5.8-4.4-.44-.29-.9.27-.68.68.63,1.24,1.62,2.23,2.85,2.88.58.3,1.02-.49.5-.86-1.17-.85-2.35-1.71-3.52-2.56-.45-.33-1.05.44-.61.79,1.88,1.46,3.87,2.77,5.97,3.9.58.31,1.02-.49.5-.86l-3.41-2.48c-.45-.33-1.05.44-.61.79,3.04,2.36,5.98,4.83,8.84,7.4.48.43,1.13-.22.71-.71l-3.12-3.57c-.39-.45-1.03.12-.79.61l2.53,5.07.79-.61c-1.81-1.68-3.46-3.5-4.93-5.48-.38-.5-1.23-.04-.86.5,1.41,2.08,2.83,4.16,4.24,6.24l.79-.61c-1.6-2.06-3.2-4.13-4.8-6.19-.35-.46-1.06.13-.79.61,1.07,1.87,2.32,3.61,3.74,5.23.43.49,1.12-.22.71-.71-1.33-1.58-2.6-3.2-3.8-4.87-.37-.52-1.24-.02-.86.5,1.43,2.01,2.98,3.92,4.64,5.74.44.48,1.1-.22.71-.71-1.52-1.88-2.96-3.82-4.33-5.81-.17-.24-.57-.37-.79-.1l-.15.08c-.46-.11-.87.48-.49.84,3.94,3.61,6.92,8.17,8.63,13.24l.91-.39c-1.97-3.44-3.94-6.88-5.91-10.31l-.86.5c3.03,4.37,6.14,8.9,7.16,14.22l.91-.39c-1.45-2.45-2.26-5.16-3.06-7.87l-.96.27c1.49,3.77,2.67,7.66,3.51,11.62.13.6.92.38.98-.13.5-4,1.5-7.93,2.95-11.68l-.96-.27c-.78,2.8-1.7,5.55-2.77,8.25-.21.53.64.87.91.39,1.35-2.4,3.05-4.57,5.05-6.47l-.71-.71c-2.27,2.19-4.58,4.47-5.83,7.42-.19.44.21.95.68.68,1.23-.68,1.78-1.95,2.54-3.06.94-1.39,2.46-2.23,3.85-3.1,2.91-1.81,6.11-3.58,9.65-3.29.65.05.63-.93,0-1-2.56-.27-5.13.26-7.39,1.49-.42.23-.25.98.25.93,3.88-.36,7.79-.27,11.65.31.63.09.88-.74.27-.96-2.51-.89-5.16-1.11-7.8-1.32-.55-.04-.69.89-.13.98,4.41.71,8.98,1.47,12.71,4.1l.39-.91c-.83-.3-1.57-.74-2.22-1.34l-.61.79c2.63,1.36,4.93,3.3,6.7,5.69l.79-.61c-4.11-3.69-4.59-9.49-4.95-14.65-.04-.64-1.04-.64-1,0,.37,5.43.93,11.49,5.24,15.36.4.36,1.14-.12.79-.61-1.87-2.53-4.26-4.6-7.05-6.05-.48-.25-1.04.38-.61.79.78.72,1.66,1.24,2.66,1.6.57.2.82-.61.39-.91-3.8-2.67-8.46-3.48-12.95-4.2l-.13.98c2.55.2,5.11.42,7.53,1.28l.27-.96c-3.95-.59-7.94-.72-11.91-.35l.25.93c2.12-1.15,4.49-1.6,6.88-1.35v-1c-3.56-.29-6.83,1.39-9.78,3.2-1.38.85-2.9,1.68-3.99,2.91-.97,1.1-1.44,2.75-2.78,3.48l.68.68c1.22-2.88,3.46-5.08,5.68-7.22.46-.45-.24-1.15-.71-.71-2.06,1.95-3.81,4.2-5.21,6.67l.91.39c1.07-2.7,1.99-5.45,2.77-8.25.18-.63-.74-.85-.96-.27-1.49,3.85-2.48,7.86-2.99,11.95l.98-.13c-.85-3.97-2.02-7.85-3.51-11.62-.23-.58-1.15-.37-.96.27.82,2.79,1.67,5.59,3.16,8.11.3.51,1.02.16.91-.39-1.03-5.4-4.18-10.03-7.26-14.46-.36-.52-1.19-.06-.86.5,1.97,3.44,3.94,6.88,5.91,10.31.28.48,1.1.16.91-.39-1.77-5.22-4.83-9.95-8.89-13.68l-.49.84c.43.1.83,0,1.12-.34l-.79-.1c1.42,2.06,2.92,4.06,4.49,6.01l.71-.71c-1.61-1.75-3.11-3.6-4.49-5.54l-.86.5c1.26,1.74,2.58,3.43,3.96,5.07l.71-.71c-1.36-1.55-2.56-3.23-3.59-5.03l-.79.61c1.6,2.06,3.2,4.13,4.8,6.19.35.45,1.1-.14.79-.61-1.41-2.08-2.83-4.16-4.24-6.24l-.86.5c1.53,2.05,3.22,3.95,5.09,5.68.42.39,1.04-.1.79-.61l-2.53-5.07-.79.61,3.12,3.57.71-.71c-2.85-2.57-5.8-5.04-8.84-7.4l-.61.79,3.41,2.48.5-.86c-2.02-1.09-3.95-2.34-5.76-3.75l-.61.79c1.17.85,2.35,1.71,3.52,2.56l.5-.86c-1.09-.57-1.93-1.42-2.49-2.52l-.68.68c1.95,1.3,3.82,2.72,5.6,4.25l.71-.71c-1.58-1.33-3.01-2.84-4.25-4.5l-.79.61c1.25,1.04,2.49,2.08,3.74,3.12.4.33,1.15-.12.79-.61-1.04-1.4-1.9-2.92-2.52-4.55l-.48.63c.42-.03.76.56.46.9-.35.39-1.05.01-1.19-.38l-.84.49c1.11,1.05,2.21,2.1,3.32,3.15.47.45,1.12-.22.71-.71-.71-.82-1.21-1.77-1.51-2.81l-.84.49c1.17.97,2.34,1.94,3.51,2.9.34.28,1.04.03.84-.49-.51-1.3-.93-2.62-1.26-3.97l-.91.39c.68,1.05,1.17,2.18,1.48,3.4l.96-.27c-.44-1.21-.81-2.43-1.13-3.67l-.91.39c.58,1.21,1.16,2.41,1.75,3.62.25.51,1.08.15.91-.39-.68-2.27-1.11-4.59-1.25-6.95l-.98.13c.64,1.64,1.29,3.29,1.93,4.93l.91-.39c-.52-1.14-1.03-2.29-1.55-3.43-.24-.52-1.07-.15-.91.39.31,1.1.5,2.2.55,3.34l.93-.25c-.51-1.16-1.01-2.32-1.52-3.48-.16-.35-.69-.3-.86,0-.67,1.16-1.25,2.36-1.75,3.61l.96.27c.23-1.43.8-2.75,1.73-3.87l-.79-.61c-.69,1.28-1.73,2.26-3.03,2.89l.68.68c.61-.92,1.32-1.75,2.13-2.49.36-.33.74-.65,1.15-.93.22-.16.44-.31.67-.45.15-.09.64-.27.72-.4-.02-.23-.08-.25-.18-.05-.09.08-.19.14-.3.19-.28.15-.6.27-.89.4-.52.23-1.04.46-1.56.7-1.19.53-2.38,1.06-3.57,1.59-.53.24-.14,1.04.39.91,2.43-.58,5.13-1.21,7.53-.18v-.86c-3.74,2.01-8.22,1.2-12.19,2.42-.37.11-.54.73-.12.91,2.95,1.32,5.73,3,8.27,5.01.5.39,1.21-.29.71-.71-2.2-1.83-4.55-3.46-7.04-4.87-.48-.27-1.04.4-.61.79,2.57,2.3,5.23,4.51,7.96,6.62.5.39,1.22-.31.71-.71-3.55-2.76-7.37-5.15-11.41-7.13l-.12.91c1.95-.82,4.04-1.2,6.16-1.09,1.05.06,2.03.29,3.05.51.8.17,1.69.25,2.37-.31.61-.51.77-1.3.8-2.05.05-1.07-.02-2.16-.11-3.23-.19-2.22-.62-4.4-1.26-6.53-.19-.62-1.08-.36-.96.27.5,2.67-.29,5.49-2.08,7.53l.84.49c.27-.76.79-1.35,1.49-1.75l-.68-.68c-2.4,3.33-6.47,5.23-10.56,5.03l.13.98c2.95-.79,5.93-1.49,8.85-2.36,1.12-.33,1.87-.97,2.28-2.08.47-1.27.49-2.68.18-3.99-.13-.55-1-.43-.98.13.03,1.29.38,2.52,1.05,3.64.31.52,1,.15.91-.39-.39-2.45-1.26-4.8-2.56-6.91-.3-.49-1.03-.17-.91.39.44,2.05,1.55,3.91,3.16,5.26.41.35,1.1-.09.79-.61-1.46-2.4-3.12-4.67-4.94-6.8l-.71.71c1.19,1.24,2.37,2.48,3.56,3.73.91.95,1.85,2.14,3.31,1.93.41-.06.43-.58.22-.84-2.93-3.59-7.33-5.4-11.53-7.07l-.27.96c2.98.75,5.81,1.92,8.45,3.48l.5-.86c-2.8-1.6-5.88-2.65-9.08-3.08l-.13.98c6.77-.59,12.19,4.35,17.97,7.01.47.22,1.07-.39.61-.79-2.64-2.26-5.41-4.35-8.31-6.27-.54-.36-1.04.51-.5.86h0Z"/>
  <path class="cls-2" d="M81.59,76.68c.2,2.81.42,5.62.68,8.43.2,2.23.17,4.79,1.68,6.61.35.42.92-.05.84-.49-.4-2.17-.61-4.36-.65-6.57l-.98.13c.65,2.31,1.3,4.62,1.94,6.92.17.62,1.1.36.96-.27-.58-2.63-.95-5.29-1.11-7.98l-.98.13c.27,1.39.36,2.8.29,4.21h1c.06-2.87.59-5.68,1.58-8.38l-.96-.27c-.69,2.26-1.3,4.54-1.81,6.84l.96.27c.49-3.33,1.85-6.48,4-9.09l-.79-.61c-1.21,1.87-2.42,3.74-3.63,5.62l.86.5c1.3-2.61,3.05-4.94,5.21-6.91.48-.44-.22-1.12-.71-.71-1.11.93-2.21,1.86-3.32,2.79l.71.71c1.65-1.44,3.46-2.67,5.41-3.69l-.5-.86c-1.96,1.36-3.75,2.93-5.32,4.73-.42.48.25,1.17.71.71,2.54-2.57,5.53-5.49,9.46-5.09v-1c-3.51.4-7.05.36-10.55-.11-.64-.09-.63.92,0,1,3.5.47,7.04.51,10.55.11.64-.07.65-.93,0-1-4.19-.43-7.45,2.63-10.17,5.38l.71.71c1.52-1.73,3.23-3.26,5.12-4.57.53-.36.07-1.17-.5-.86-2.02,1.06-3.89,2.35-5.61,3.85-.49.43.22,1.12.71.71,1.11-.93,2.21-1.86,3.32-2.79l-.71-.71c-2.21,2.02-4.03,4.43-5.36,7.11-.29.57.51,1.05.86.5,1.21-1.87,2.42-3.74,3.63-5.62.3-.47-.42-1.05-.79-.61-2.25,2.74-3.74,6.02-4.25,9.53-.09.62.82.91.96.27.52-2.3,1.12-4.58,1.81-6.84.19-.62-.75-.86-.96-.27-1.01,2.77-1.55,5.69-1.61,8.64-.01.65.97.64,1,0,.08-1.51-.04-3-.32-4.48-.11-.55-1.02-.43-.98.13.16,2.78.55,5.53,1.15,8.25l.96-.27c-.65-2.31-1.3-4.62-1.94-6.92-.15-.54-.99-.44-.98.13.04,2.29.27,4.58.68,6.83l.84-.49c-.73-.88-.97-2.02-1.11-3.12-.15-1.17-.23-2.35-.34-3.52-.23-2.56-.43-5.12-.61-7.69-.04-.64-1.05-.64-1,0h0Z"/>
  <path class="cls-2" d="M75.39,52.69c-.17,5.84.88,11.69,3.09,17.1.24.59,1.08.38.96-.27-.7-4.05-1.4-8.11-2.1-12.16l-.96.27c1,4.82,2.1,9.79,5.02,13.85.38.53,1.13.08.86-.5-1.71-3.81-3.42-7.62-5.13-11.43-.26-.59-1.12-.08-.86.5,2.03,4.62,4.92,8.83,8.5,12.39.47.46,1.11-.22.71-.71-3.3-4-6.67-8.12-8.36-13.1-.21-.61-1.12-.36-.96.27,1.03,4.26,3.14,8.19,6.1,11.41.38.42,1.09-.13.79-.61l-2.1-3.26-.79.61c2.34,2.79,5.12,5.18,8.21,7.09.55.34,1.03-.5.5-.86-1.62-1.13-3.24-2.25-4.86-3.38l-.5.86c2.19,1.2,4.49,2.19,6.86,2.95.53.17.91-.69.39-.91-2.09-.89-4.17-1.77-6.26-2.66-.57-.24-1.09.56-.5.86,2.95,1.52,6.12,2.55,9.4,3.03.51.08.94-.64.39-.91-.96-.46-1.95-.71-3.01-.73-.48,0-.7.71-.25.93,1.5.76,3.13.99,4.79.71.54-.09.41-.81,0-.96-.29-.11-.57-.22-.86-.33-.6-.23-.86.74-.27.96.29.11.57.22.86.33v-.96c-1.38.24-2.77.02-4.02-.61l-.25.93c.88.02,1.72.21,2.51.59l.39-.91c-3.2-.47-6.29-1.45-9.16-2.93l-.5.86c2.09.89,4.17,1.77,6.26,2.66l.39-.91c-2.3-.73-4.51-1.68-6.62-2.85-.57-.31-1.03.5-.5.86,1.62,1.13,3.24,2.25,4.86,3.38l.5-.86c-3.03-1.87-5.72-4.21-8.01-6.94-.37-.43-1.09.13-.79.61l2.1,3.26.79-.61c-2.85-3.1-4.85-6.88-5.84-10.97l-.96.27c1.75,5.15,5.2,9.4,8.61,13.54l.71-.71c-3.53-3.5-6.35-7.64-8.35-12.19l-.86.5c1.71,3.81,3.42,7.62,5.13,11.43l.86-.5c-2.87-4-3.94-8.88-4.92-13.62-.13-.64-1.07-.36-.96.27.7,4.05,1.4,8.11,2.1,12.16l.96-.27c-2.18-5.34-3.23-11.07-3.06-16.84.02-.64-.98-.64-1,0h0Z"/>
  <path class="cls-2" d="M55.25,46.04c-.2,3.27-.41,6.54-.61,9.8h1c.19-4.29.37-8.59.56-12.88.02-.47-.73-.71-.93-.25-1.77,4-3.55,8-5.32,11.99l.93.25c.3-2.62.9-5.19,1.74-7.68.16-.48-.5-.84-.84-.49-1.72,1.79-3.43,3.59-5.15,5.38l.79.61c.84-1.92,2-3.64,3.47-5.14.45-.46-.24-1.15-.71-.71-1.79,1.72-3.41,3.61-4.85,5.64-.28.4.28.97.68.68l.89-.64c.52-.38.08-1.14-.5-.86-1.53.73-2.89,1.76-4,3.04-.35.41.1,1.11.61.79l.73-.46-.61-.79-.87.8c-.42.39.12,1.07.61.79.56-.32,1.05-.72,1.48-1.21l-.79-.61c-.29.52-.44,1.05-.48,1.65-.03.42.57.67.85.35.76-.86,1.34-1.83,1.74-2.9.2-.53-.68-.9-.91-.39l-1.09,2.4c-.22.49.36,1.04.79.61.57-.58.96-1.27,1.15-2.06l-.96-.27-.52,2.47c-.12.56.59.86.91.39.66-.97,1.11-2.04,1.36-3.18.11-.52-.66-.93-.91-.39-.5,1.06-.75,2.17-.72,3.34.01.5.67.68.93.25.63-1.03,1.09-2.14,1.35-3.32.14-.64-.73-.85-.96-.27-.43,1.08-.73,2.18-.89,3.33-.07.51.62.93.91.39.62-1.18,1.04-2.43,1.23-3.76.07-.5-.67-.96-.91-.39-.61,1.41-.92,2.88-.91,4.42,0,.53.66.64.93.25.89-1.25,1.39-2.68,1.52-4.2.04-.48-.73-.7-.93-.25-.68,1.55-1.02,3.18-.98,4.88.01.46.72.73.93.25.82-1.85,1.4-3.77,1.7-5.77.09-.62-.77-.9-.96-.27-.67,2.23-.88,4.55-.62,6.86.06.56.78.69.98.13,1.02-2.82,1.62-5.76,1.81-8.76.04-.6-.8-.63-.98-.13-.99,2.67-1.4,5.52-1.19,8.36.04.55.81.69.98.13.86-2.74,1.46-5.53,1.81-8.38.07-.57-.84-.66-.98-.13-.7,2.61-1.23,5.25-1.59,7.93-.08.62.82.91.96.27l2.04-9.1-.96-.27c-.64,3.57-.77,7.2-.36,10.8.04.38.55.73.85.35.77-.95,1.18-2.07,1.43-3.26.31-1.45.53-2.92.78-4.38.53-3.03,1.06-6.06,1.59-9.09.11-.62-.8-.9-.96-.27-.86,3.39-1.39,6.85-1.59,10.34-.03.56.86.69.98.13.89-4.1,1.78-8.19,2.67-12.29.14-.63-.78-.88-.96-.27-1.05,3.43-1.52,7.01-1.4,10.59.02.57.8.67.98.13,1.31-3.84,2.25-7.79,2.8-11.8l-.98-.13c-.27,3.68-.55,7.36-.82,11.04-.04.56.87.68.98.13.71-3.39.95-6.86.71-10.32-.04-.55-.81-.69-.98-.13-.85,2.82-1.43,5.71-1.75,8.64-.06.55.89.69.98.13.39-2.5.63-5.01.7-7.53.02-.56-.86-.69-.98-.13-.65,2.91-.9,5.88-.74,8.86.03.54.85.71.98.13.74-3.12,1.06-6.33.92-9.54-.03-.64-.97-.64-1,0-.37,6.87.19,13.73.75,20.58l.98-.13c-.79-1.89-1.59-3.78-2.78-5.46-.27-.38-.94-.28-.93.25.04,3.96.07,7.91.11,11.87l.98-.13c-1.09-2.91-2.18-5.82-3.27-8.73-.2-.53-.94-.45-.98.13-.09,1.34,0,2.67.21,3.99.09.55,1.03.43.98-.13-.2-2.5-.7-4.95-1.52-7.32-.17-.5-1.06-.46-.98.13.32,2.43.76,4.85,1.3,7.24.12.54,1.05.43.98-.13-.18-1.5-.57-2.92-1.19-4.3-.25-.55-1.01-.13-.91.39.48,2.7.72,5.43.7,8.18,0,.59.08,1.29-.6,1.5-.61.19-1.31.2-1.94.29-1.39.2-2.78.39-4.17.59l.27.96c1.42-.58,2.84-1.16,4.26-1.73.37-.15.53-.69.12-.91-1.54-.85-3.34-.89-4.93-.13-.41.19-.26.8.12.91,1.91.58,3.88.69,5.85.36l-.27-.96c-1.32.25-2.49.94-3.34,1.97-.29.36-.03,1,.49.84,1.42-.45,2.6-1.3,3.5-2.48.32-.42-.28-.91-.68-.68-1.31.73-2.51,2.59-1.92,4.13.26.69.98.92,1.62.59.82-.42.84-1.3,1.31-2h-.86c.81,1.84,1.52,3.72,2.14,5.63l.96-.27c-.62-1.53-1.37-2.99-2.25-4.39-.29-.45-1.12-.17-.91.39,1.03,2.77,2.37,5.41,4.03,7.85.36.53,1.15.07.86-.5-1.24-2.55-2.63-5.02-4.14-7.41-.35-.55-1.14-.07-.86.5,1.46,3.1,2.93,6.2,4.39,9.3l.86-.5c-1.6-2.36-3.19-4.72-4.79-7.07-.3-.44-1.1-.18-.91.39.76,2.33,1.76,4.56,2.99,6.68.28.48,1.11.16.91-.39-1.12-3.14-2.09-6.34-2.92-9.57-.14-.54-1-.44-.98.13.03,1.38.27,2.74.73,4.04.17.49,1.05.46.98-.13l-.59-5.01c-.07-.63-1.07-.64-1,0,.19,1.75.47,3.48.87,5.2l.96-.27c-.62-1.9-1.35-3.76-2.18-5.58-.25-.55-1.01-.13-.91.39.42,2.32,1.34,4.51,2.7,6.43.32.45,1.04.19.91-.39l-.82-3.62-.91.39c2.24,4.01,4.47,8.02,6.71,12.04.32.57,1.15.07.86-.5-1.33-2.64-2.66-5.29-3.99-7.93-.3-.59-1.11-.07-.86.5,1.5,3.52,2.75,7.13,3.76,10.82l.91-.39c-1.25-2.7-2.32-5.48-3.21-8.32l-.96.27c1.27,3.33,2.53,6.65,3.8,9.98l.91-.39c-1.11-2.62-2.21-5.23-3.32-7.85-.22-.52-1.1-.15-.91.39.69,1.96,1.38,3.93,2.07,5.89l.91-.39c-1.09-2.53-2.26-5.03-3.49-7.49-.25-.5-1.11-.15-.91.39.99,2.69,2.13,5.33,3.41,7.9.25.51,1.07.15.91-.39-.58-2.01-1.16-4.02-1.73-6.03l-.91.39c1.54,3.32,2.95,6.7,4.23,10.13.22.6,1.08.37.96-.27-.28-1.5-.41-3.01-.4-4.54h-1c.15,1.65.29,3.3.44,4.95l.98-.13c-.36-2.11-.58-4.23-.66-6.36-.02-.53-.9-.72-.98-.13-.22,1.57-.25,3.13-.07,4.71.06.51.87.74.98.13.5-2.72,1.55-5.28,3.1-7.57l-.91-.39c-.36,2.63-.92,5.23-1.68,7.78-.16.53.65.9.91.39.85-1.68,1.71-3.35,2.56-5.03.29-.57-.57-1.08-.86-.5-.69,1.35-1.38,2.69-2.07,4.04-.22.43.24.96.68.68,1.91-1.17,3.74-2.46,5.49-3.86l-.79-.61c-.79,1.14-1.87,2-3.14,2.57l.61.79c1.76-1.53,3.72-2.78,5.83-3.75l-.61-.79c-1.55,1.55-3.5,2.55-5.66,2.93l.63.48c.05-1.64.85-3.19,2.19-4.16l-.68-.68c-1.12,1.63-2.24,3.25-3.36,4.88-.32.46.42,1.04.79.61,1.52-1.79,3.26-3.37,5.2-4.7l-.61-.79-2.53,3.1c-.33.41.09,1.12.61.79,1.81-1.17,3.76-2.07,5.82-2.7l-.39-.91-2.03,1.18c-.42.24-.25.95.25.93l7.42-.31c.64-.03.65-.98,0-1l-2.45-.08c-.55-.02-.7.88-.13.98l7.16,1.32.27-.96-2.99-.49c-.62-.1-.9.79-.27.96,1.38.37,2.75.77,4.12,1.21.64.21,1.28.42,1.92.64.47.16,1.39.4,1.39,1.02l.93-.25c-1.87-3.11.35-6.87.33-10.16,0-.65-.96-.64-1,0-.13,1.89-.27,3.79-.4,5.68l-.09,1.33c0,.11.02.55-.05.65-.13.18-.36.11-.54.09-.93-.09-1.83-.32-2.7-.65-.51-.19-.78.49-.49.84.97,1.14,2.12,2.09,3.41,2.83l.5-.86c-.7-.35-1.4-.71-2.1-1.06-.57-.29-1.05.51-.5.86l.91.6c.25.16.69.02.73-.3.58-3.82,1.23-7.95,3.89-10.93l-.85-.35c-.18,2.77-.74,5.48-1.64,8.1l.96.27c.3-2.2.93-4.33,1.91-6.33l-.91-.39-1.71,4.41c-.2.52.68.9.91.39.72-1.62,1.64-3.14,2.77-4.51l-.79-.61c-.66,1.55-1.32,3.1-1.97,4.66l.91.39c.84-2.18,1.95-4.23,3.31-6.12l-.86-.5c-1.33,2.23-2.54,4.52-3.62,6.87l.91.39c1.03-2.82,2.53-5.45,4.45-7.76.34-.41-.09-1.1-.61-.79l-2.79,1.7.5.86,3.94-2.64c.43-.29.24-.89-.25-.93-.87-.08-1.72.02-2.55.28-.62.2-.36,1.08.27.96l2.6-.49-.62-.62c-.38,1-1.08,1.83-1.98,2.4-.55.35-.07,1.14.5.86,1.15-.56,2.1-1.38,2.84-2.43.18-.25,0-.68-.3-.73l-2.61-.44.3.73c.28-.38.61-.67,1.02-.9s.26-.96-.25-.93c-.65.04-1.19.26-1.67.71-.35.32-.04.81.35.85.69.08,1.37.16,2.06.25l-.35-.85c-.45.41-.98.57-1.58.54l.43.75c.36-.52.72-1.03,1.08-1.55.17-.24.01-.69-.3-.73-2.54-.36-5.09-.72-7.63-1.08-.62-.09-.9.78-.27.96,1.33.37,2.47,1.17,3.26,2.31.21.31.85.35.91-.12l.23-1.69-.84.22,1.3,1.22c.37.35.94,0,.84-.49l-.16-.72-.84.49c.42.41.61.94.49,1.53l.73-.3c-.24-.14-.4-.3-.54-.55-.26-.47-.88-.21-.93.25l-.1,1,.85-.35c-.33-.41-.41-.96-.2-1.44l-.79.1c.37.42.29,1.01-.1,1.37l.79.1c-.59-.93-1.03-1.9-1.32-2.96-.18-.64-1.05-.35-.96.27.16,1.16.33,2.31.49,3.47l.91-.39c-.76-1.39-1.39-2.84-1.89-4.35-.21-.62-1.06-.36-.96.27l.68,4.39.91-.39c-.73-1.36-1.21-2.8-1.46-4.32l-.96.27c.57,1.36.97,2.78,1.17,4.24l.93-.25c-.46-1.03-.63-2.13-.56-3.26l-.85.35c.95,1.14,1.55,2.5,1.78,3.97l.96-.27c-.42-1.43-.84-2.86-1.26-4.29l-.91.39c.6,1.11.97,2.3,1.08,3.56l.98-.13c-.27-.81-.4-1.62-.39-2.48l-.75.43c.46.34.74.8.88,1.35l.96-.27-.26-.94-.91.39c.61,1.1.93,2.28.94,3.54l.93-.25c-1.26-2.42-2.33-4.92-3.2-7.5-.2-.6-1.13-.36-.96.27l1.97,7.42c.16.62,1.13.36.96-.27-.51-1.92-.9-3.86-1.2-5.82l-.91.39c.58,1.06.91,2.2.98,3.41l.98-.13c-.89-2.16-1.93-4.25-3.11-6.27-.2-.34-.85-.32-.91.12-.07.47-.59.64-1.02.5-.58-.19-.93-.84-1.21-1.33-.69-1.23-1.33-2.5-1.96-3.76-1.29-2.59-2.48-5.24-3.56-7.92-.17-.43-.82-.52-.96,0-.59,2.19-1.18,4.37-1.77,6.56-.17.62.8.89.96.27.59-2.19,1.18-4.37,1.77-6.56h-.96c1.35,3.36,2.86,6.65,4.52,9.86.64,1.24,1.3,3.12,2.66,3.75.94.44,2.33.02,2.5-1.1l-.91.12c1.14,1.94,2.15,3.95,3.01,6.03.2.47,1.02.48.98-.13-.08-1.38-.46-2.69-1.12-3.91-.29-.54-.99-.14-.91.39.29,1.96.69,3.9,1.2,5.82l.96-.27-1.97-7.42-.96.27c.9,2.66,2,5.25,3.3,7.74.23.45.94.23.93-.25-.01-1.43-.38-2.79-1.07-4.04-.28-.5-1.06-.16-.91.39l.26.94c.17.62,1.12.36.96-.27-.21-.82-.67-1.45-1.34-1.94-.32-.23-.75.08-.75.43-.01.94.13,1.85.42,2.74.17.5,1.03.46.98-.13-.12-1.44-.52-2.79-1.21-4.06-.27-.5-1.07-.16-.91.39.42,1.43.84,2.86,1.26,4.29.18.63,1.07.36.96-.27-.27-1.64-.98-3.13-2.04-4.41-.3-.36-.83-.04-.85.35-.09,1.31.16,2.56.69,3.76.2.44,1,.23.93-.25-.2-1.56-.59-3.06-1.2-4.51-.25-.59-1.07-.38-.96.27.27,1.6.8,3.13,1.56,4.56.29.54.99.14.91-.39l-.68-4.39-.96.27c.53,1.59,1.19,3.12,2,4.59.29.54.99.14.91-.39-.16-1.16-.33-2.31-.49-3.47l-.96.27c.32,1.13.79,2.2,1.42,3.2.18.28.54.32.79.1.81-.75.82-1.98.1-2.79-.2-.22-.66-.19-.79.1-.4.93-.28,1.86.36,2.65.3.37.81.03.85-.35l.1-1-.93.25c.22.39.51.68.9.91.26.15.67.02.73-.3.19-.93-.06-1.83-.75-2.5-.37-.36-.94,0-.84.49l.16.72.84-.49-1.3-1.22c-.24-.23-.78-.17-.84.22l-.23,1.69.91-.12c-.94-1.36-2.27-2.32-3.86-2.77l-.27.96c2.54.36,5.09.72,7.63,1.08l-.3-.73c-.36.52-.72,1.03-1.08,1.55-.23.33.08.73.43.75.87.04,1.64-.25,2.29-.83.36-.32.04-.81-.35-.85-.69-.08-1.37-.16-2.06-.25l.35.85c.28-.25.59-.39.96-.41l-.25-.93c-.56.33-1,.74-1.38,1.26-.18.25,0,.68.3.73l2.61.44-.3-.73c-.64.9-1.49,1.59-2.48,2.07l.5.86c1.14-.72,1.96-1.74,2.44-3,.15-.39-.28-.68-.62-.62l-2.6.49.27.96c.75-.24,1.5-.32,2.29-.25l-.25-.93-3.94,2.64c-.53.35-.05,1.2.5.86l2.79-1.7-.61-.79c-2.04,2.45-3.62,5.21-4.71,8.2-.19.53.68.9.91.39,1.09-2.35,2.3-4.64,3.62-6.87.34-.56-.5-1.02-.86-.5-1.41,1.97-2.54,4.1-3.41,6.36-.2.52.69.91.91.39.66-1.55,1.32-3.1,1.97-4.66.2-.47-.39-1.09-.79-.61-1.18,1.44-2.17,3.01-2.92,4.71l.91.39,1.71-4.41c.2-.53-.67-.89-.91-.39-1.01,2.08-1.7,4.28-2.01,6.57-.08.62.75.89.96.27.93-2.71,1.48-5.51,1.67-8.37.03-.43-.57-.67-.85-.35-2.8,3.13-3.54,7.36-4.15,11.37l.73-.3-.91-.6-.5.86c.7.35,1.4.71,2.1,1.06.57.29,1.07-.54.5-.86-1.23-.7-2.3-1.59-3.21-2.67l-.49.84c1.01.37,2.11.66,3.19.7.94.04,1.28-.54,1.34-1.4.19-2.46.35-4.92.52-7.37h-1c.01,3.55-2.23,7.28-.2,10.66.25.42.94.25.93-.25-.01-1.48-1.8-1.88-2.92-2.26-1.73-.58-3.48-1.11-5.25-1.58l-.27.96,2.99.49c.63.1.9-.85.27-.96l-7.16-1.32-.13.98,2.45.08v-1l-7.42.31.25.93,2.03-1.18c.48-.28.17-1.08-.39-.91-2.14.65-4.18,1.59-6.06,2.8l.61.79,2.53-3.1c.33-.4-.1-1.13-.61-.79-2.01,1.38-3.83,3-5.41,4.86l.79.61c1.12-1.63,2.24-3.25,3.36-4.88.28-.4-.28-.98-.68-.68-1.63,1.18-2.62,3-2.69,5.02-.01.35.33.54.63.48,2.32-.4,4.44-1.52,6.1-3.18.42-.42-.11-1.01-.61-.79-2.19,1.01-4.21,2.33-6.03,3.91-.46.4.13,1,.61.79,1.43-.64,2.61-1.65,3.5-2.93.35-.5-.38-.93-.79-.61-1.68,1.35-3.45,2.58-5.29,3.7l.68.68,2.07-4.04-.86-.5c-.85,1.68-1.71,3.35-2.56,5.03l.91.39c.75-2.55,1.31-5.15,1.68-7.78.08-.55-.58-.88-.91-.39-1.6,2.35-2.69,5.01-3.2,7.81l.98.13c-.17-1.48-.17-2.97.03-4.44l-.98-.13c.08,2.22.31,4.44.69,6.63.09.55,1.03.43.98-.13-.15-1.65-.29-3.3-.44-4.95-.06-.63-.99-.65-1,0-.01,1.61.14,3.22.43,4.8l.96-.27c-1.31-3.51-2.75-6.97-4.33-10.37-.24-.52-1.07-.15-.91.39.58,2.01,1.16,4.02,1.73,6.03l.91-.39c-1.24-2.49-2.35-5.05-3.31-7.66l-.91.39c1.24,2.46,2.4,4.96,3.49,7.49.22.52,1.1.15.91-.39-.69-1.96-1.38-3.93-2.07-5.89l-.91.39c1.11,2.62,2.21,5.23,3.32,7.85.22.52,1.12.14.91-.39-1.27-3.33-2.53-6.65-3.8-9.98-.22-.59-1.16-.36-.96.27.92,2.92,2.03,5.78,3.31,8.56.24.52,1.06.15.91-.39-1.03-3.77-2.33-7.46-3.86-11.06l-.86.5c1.33,2.64,2.66,5.29,3.99,7.93l.86-.5c-2.24-4.01-4.47-8.02-6.71-12.04-.28-.51-1.04-.16-.91.39l.82,3.62.91-.39c-1.32-1.86-2.19-3.95-2.6-6.19l-.91.39c.79,1.74,1.48,3.52,2.08,5.34.2.61,1.11.36.96-.27-.37-1.63-.65-3.27-.83-4.93h-1l.59,5.01.98-.13c-.43-1.23-.66-2.48-.69-3.78l-.98.13c.83,3.23,1.8,6.43,2.92,9.57l.91-.39c-1.19-2.04-2.16-4.19-2.89-6.44l-.91.39c1.6,2.36,3.19,4.72,4.79,7.07.36.54,1.14.08.86-.5-1.46-3.1-2.93-6.2-4.39-9.3l-.86.5c1.52,2.39,2.9,4.87,4.14,7.41l.86-.5c-1.61-2.38-2.93-4.93-3.93-7.62l-.91.39c.84,1.32,1.56,2.7,2.15,4.15.24.58,1.17.36.96-.27-.64-2-1.39-3.95-2.24-5.87-.16-.37-.68-.28-.86,0-.25.37-.33.8-.54,1.19-.06.12-.3.56-.51.47s-.13-.61-.12-.77c.1-.96.69-1.78,1.52-2.24l-.68-.68c-.74.96-1.75,1.66-2.9,2.02l.49.84c.76-.92,1.74-1.5,2.9-1.72.64-.12.36-1.07-.27-.96-1.78.3-3.59.17-5.32-.36l.12.91c1.25-.6,2.7-.54,3.92.13l.12-.91c-1.42.58-2.84,1.16-4.26,1.73-.6.24-.37,1.05.27.96,1.64-.23,3.27-.46,4.91-.69.6-.08,1.28-.1,1.8-.45.47-.32.65-.84.71-1.38.16-1.49.01-3.08-.1-4.57-.12-1.57-.33-3.14-.61-4.69l-.91.39c.54,1.2.9,2.48,1.05,3.79l.98-.13c-.53-2.31-.95-4.63-1.27-6.98l-.98.13c.79,2.29,1.29,4.65,1.48,7.06l.98-.13c-.21-1.24-.26-2.48-.18-3.73l-.98.13c1.09,2.91,2.18,5.82,3.27,8.73.19.5.99.47.98-.13-.04-3.96-.07-7.91-.11-11.87l-.93.25c1.14,1.61,1.92,3.41,2.68,5.22.2.47,1.03.49.98-.13-.56-6.84-1.11-13.71-.75-20.58h-1c.13,3.12-.17,6.23-.89,9.27l.98.13c-.15-2.89.08-5.77.71-8.59l-.98-.13c-.07,2.44-.28,4.86-.66,7.27l.98.13c.32-2.84.9-5.64,1.72-8.38l-.98-.13c.23,3.37,0,6.74-.68,10.05l.98.13c.27-3.68.55-7.36.82-11.04.04-.55-.9-.69-.98-.13-.55,4.02-1.49,7.97-2.8,11.8l.98.13c-.12-3.5.34-6.97,1.36-10.32l-.96-.27c-.89,4.1-1.78,8.19-2.67,12.29l.98.13c.19-3.4.71-6.77,1.55-10.08l-.96-.27c-.5,2.87-1,5.74-1.5,8.61-.24,1.39-.47,2.78-.73,4.16-.23,1.24-.5,2.52-1.31,3.52l.85.35c-.4-3.51-.3-7.06.32-10.53.11-.62-.82-.9-.96-.27-.68,3.03-1.36,6.07-2.04,9.1l.96.27c.36-2.67.9-5.32,1.59-7.93l-.98-.13c-.34,2.75-.94,5.47-1.78,8.11l.98.13c-.21-2.76.18-5.5,1.15-8.09l-.98-.13c-.18,2.91-.78,5.75-1.78,8.49l.98.13c-.26-2.23-.07-4.45.58-6.6l-.96-.27c-.29,1.91-.82,3.77-1.6,5.53l.93.25c-.04-1.51.23-2.99.84-4.38l-.93-.25c-.11,1.35-.6,2.6-1.39,3.7l.93.25c0-1.35.24-2.67.78-3.92l-.91-.39c-.18,1.24-.55,2.41-1.13,3.52l.91.39c.17-1.15.46-2.25.89-3.33l-.96-.27c-.24,1.1-.65,2.12-1.25,3.08l.93.25c-.02-.99.16-1.94.59-2.84l-.91-.39c-.23,1.07-.64,2.04-1.26,2.94l.91.39.52-2.47c.13-.63-.81-.9-.96-.27s-.44,1.15-.89,1.62l.79.61,1.09-2.4-.91-.39c-.34.91-.84,1.73-1.48,2.46l.85.35c.03-.42.14-.78.34-1.14.27-.48-.4-1.05-.79-.61s-.78.77-1.27,1.05l.61.79.87-.8c.42-.38-.12-1.09-.61-.79l-.73.46.61.79c1.06-1.23,2.33-2.19,3.8-2.89l-.5-.86-.89.64.68.68c1.39-1.96,2.96-3.77,4.69-5.44l-.71-.71c-1.53,1.55-2.76,3.35-3.63,5.34-.21.48.36,1.05.79.61,1.72-1.79,3.43-3.59,5.15-5.38l-.84-.49c-.88,2.58-1.47,5.24-1.78,7.95-.06.48.74.7.93.25,1.77-4,3.55-8,5.32-11.99l-.93-.25c-.19,4.29-.37,8.59-.56,12.88-.03.65.96.64,1,0,.2-3.27.41-6.54.61-9.8.04-.64-.96-.64-1,0h0Z"/>
  <path class="cls-2" d="M57.74,58.24c-1.26,3.97-2.52,7.94-3.79,11.92h7.71c-.36-2.3-.72-4.61-1.08-6.91-.16-1.05-.24-2.16-.52-3.18-.5-1.76-1.82-3.5-3.71-3.85-1.03-.19-2.16-.19-3.08.4-.87.56-1.57,1.37-1.84,2.39-.71,2.71-1.14,5.5-1.36,8.29h8c-.3-2.48-.64-4.96-1.04-7.43-.36-2.27-.99-4.54-2.74-6.17-1.62-1.51-4.03-1.53-5.66,0-1.4,1.32-2.17,3.42-2.01,5.33.07.91.22,1.8.54,2.65.35.92.77,1.81,1.16,2.71l-.4-.96c.42,1.03.68,2.09.84,3.19l-.14-1.06c.41,3.16.18,6.36.9,9.48.67,2.9,2.19,5.54,3.35,8.26l-.4-.96c.56,1.33,1.02,2.69,1.22,4.12l-.14-1.06.03.2c.09.71.18,1.39.55,2.02.44.75,1.12,1.3,1.91,1.64,1.46.62,3.23.32,4.37-.83.23-.23.46-.44.71-.64l-.81.63c.56-.42,1.17-.76,1.82-1.04l-.96.4c1.36-.57,2.81-.88,4.25-1.18,1.77-.37,3.55-.72,5.34-.96l-1.06.14c2.24-.29,4.48-.35,6.72-.06l-1.06-.14c1.6.22,3.27.84,4.88.38,1.35-.39,2.42-1.2,3.27-2.28.94-1.2,1.8-2.37,2.2-3.87.46-1.73.14-3.54-.75-5.08-.48-.84-1.11-1.6-1.63-2.41s-1.04-1.72-1.52-2.61c-.97-1.82-1.8-3.7-2.6-5.59l.4.96c-1.14-2.71-2.47-5.47-2.9-8.4l.14,1.06c-.18-1.43-.13-2.85.06-4.27l-.14,1.06c.2-1.39.51-2.76.84-4.12.21-.88.47-1.77.52-2.68.09-1.64-.78-3.38-2.22-4.21-1.61-.93-3.44-.89-5.23-.85-1.4.03-2.8-.06-4.19-.24l1.06.14c-1.89-.27-3.82-.67-5.59-1.4l.96.4c-.6-.26-1.16-.57-1.68-.97l.81.63c-.26-.22-.49-.45-.71-.71l.63.81c-.16-.22-.29-.45-.4-.7l.4.96c-.08-.21-.13-.41-.16-.63l.14,1.06-.02-.17c-.1-1.04-.37-2.09-1.17-2.83-.66-.61-1.4-.98-2.3-1.1s-1.81,0-2.55.47c-.81.53-1.69,1.39-1.84,2.39-.71,4.77-1.98,9.43-3.77,13.9h7.71c-.31-1.33-.61-2.66-.92-3.99-.55-2.41-3.78-3.8-5.88-2.39-1.39.94-2.49,2.26-2.87,3.93-.32,1.38-.31,2.9.21,4.23,1.08,2.75,3.26,4.49,5.64,6.1,1.54,1.04,3.22,1.93,5.14,1.43,2.37-.62,3.44-2.76,3.68-5,.12-1.13.06-2.29.08-3.42.02-1.23.04-2.46.05-3.69l-7.86,1.06c1.53,5.56,3.05,11.13,4.58,16.69.55,2.02,2.87,3.46,4.92,2.79s3.36-2.75,2.79-4.92c-.99-3.77-1.74-7.59-2.27-11.45l.14,1.06c-.14-1.06-.4-2.22-.32-3.28l-.14,1.06c.02-.16.05-.3.1-.45l-.4.96c.03-.09.08-.17.13-.25l-.63.81.09-.1-.81.63c.06-.06.14-.11.22-.14l-.96.4.14-.03-1.06.14h.16c-.35-.05-.71-.09-1.06-.14l.15.04-.96-.4c.1.04.2.1.28.17l-.81-.63c.09.08.17.16.24.25l-.63-.81c.82,1.09,1.48,2.34,2.12,3.53s1.27,2.51,1.82,3.8l-.4-.96c1.15,2.73,2.04,5.56,2.65,8.46l7.31-3.08c-.58-1.05-1.1-2.12-1.57-3.22l.4.96c-1.12-2.69-1.89-5.51-2.28-8.4l.14,1.06c-.17-1.34-.37-2.77-.23-4.12l-.14,1.06c.04-.27.1-.53.2-.79l-.4.96c.07-.15.14-.27.22-.41l-.63.81c.1-.13.2-.22.32-.33l-.81.63.13-.09-5.88-2.39c1.14,2.78,2.18,5.6,3.09,8.46s1.81,5.75,2.23,8.71l-.14-1.06c.17,1.32.21,2.64.04,3.96l.14-1.06c-.07.49-.15.98-.34,1.44l.4-.96-.09.16.63-.81c-.07.1-.15.18-.25.25l.81-.63-.15.08.96-.4c-.1.05-.21.08-.33.1l1.06-.14c-.76.1-1.57-.08-2.33-.18l1.06.14c-2.19-.3-4.37-.71-6.52-1.24-.73-.18-1.46-.4-2.22-.42-1.55-.04-3.06.83-3.88,2.13-.72,1.14-.82,2.55-1,3.85-.23,1.72-.53,3.38.28,5.02.55,1.11,1.63,1.85,2.79,2.21,1.01.31,2.04.15,3.05,0,2.08-.31,4.11-1.49,5.56-3,1.87-1.94,2.99-4.51,3.02-7.22.03-2.55-2.58-4.61-5.06-3.86-4,1.21-5.33,6.2-2.84,9.42,1.05,1.36,2.64,2.33,4.36,2.61.84.13,1.66.24,2.51.18,1-.07,1.98-.25,2.97-.38l-1.06.14c.75-.09,1.49-.15,2.24-.06l-1.06-.14c.57.08,1.11.23,1.64.44l-.96-.4c.52.23,1.01.51,1.47.85l-.81-.63c.45.35.84.75,1.19,1.2.58.75,1.93,1.17,2.83,1.17.98,0,2.15-.44,2.83-1.17s1.22-1.76,1.17-2.83c-.05-1.13-.48-1.94-1.17-2.83-1.21-1.56-3.02-2.62-4.87-3.24-2.17-.72-4.31-.38-6.51-.08l1.06-.14c-.77.1-1.53.17-2.31.08l1.06.14c-.43-.06-.84-.17-1.24-.33l.96.4c-.22-.1-.42-.22-.62-.36l.81.63c-.19-.15-.36-.31-.51-.5l.63.81c-.11-.16-.2-.32-.28-.49l.4.96c-.07-.18-.11-.36-.14-.56l.14,1.06c-.02-.19-.02-.38,0-.57l-.14,1.06c.03-.19.07-.36.13-.54l-.4.96c.07-.17.16-.32.27-.47l-.63.81c.09-.1.18-.19.28-.28l-.81.63c.07-.05.15-.1.23-.14l-.96.4c.08-.04.17-.07.26-.09l-5.06-3.86c0,.23-.02.46-.04.7l.14-1.06c-.08.58-.23,1.13-.46,1.67l.4-.96c-.24.54-.54,1.03-.89,1.49l.63-.81c-.37.46-.78.86-1.24,1.23l.81-.63c-.47.35-.97.64-1.5.87l.96-.4c-.49.19-.99.33-1.51.4l1.06-.14c-.28.03-.56.05-.84.02l1.06.14-.15-.04.96.4-.14-.07.81.63-.11-.11.63.81-.08-.17.55,2.02c-.1-.79.09-1.68.19-2.47l-.14,1.06c.1-.7.18-1.44.38-2.12l-.4.96c.03-.09.08-.17.14-.25l-.63.81.11-.09-1.77,1.03.15-.05-1.06.14h.16c-.35-.06-.71-.1-1.06-.15,1.17.17,2.34.57,3.51.81,1.22.25,2.45.47,3.69.64,1.6.23,3.33.63,4.93.24,2.16-.52,3.52-2.38,3.88-4.48.93-5.38-.77-10.74-2.43-15.82-.86-2.63-1.82-5.22-2.87-7.78-.5-1.2-1.08-2.07-2.32-2.59-1.12-.47-2.5-.49-3.56.2-2.18,1.42-2.99,3.76-2.88,6.28.08,2.03.35,4.07.75,6.06.73,3.66,2.1,7.22,3.91,10.47.97,1.74,3.21,2.39,5,1.64,1.89-.8,2.73-2.74,2.32-4.72-1.06-4.99-2.94-9.86-5.47-14.29-.68-1.18-1.4-2.6-2.4-3.53-2.18-2.02-5.91-1.78-7.4.98-.84,1.56-.73,3.12-.53,4.79s.42,3.2.68,4.8c.48,2.96,1.11,5.9,1.87,8.81l7.71-2.13c-1.53-5.56-3.05-11.13-4.58-16.69-.53-1.93-2.44-3.13-4.39-2.87s-3.44,1.92-3.47,3.93c-.02,1.23-.04,2.46-.05,3.69-.02,1.13.06,2.3-.08,3.42l.14-1.06c-.04.21-.09.4-.17.6l.4-.96c-.04.09-.09.17-.14.25l.63-.81c-.05.07-.12.13-.19.19l.81-.63-.11.06.96-.4-.13.04,1.06-.14c-.11.02-.22.02-.32,0l1.06.14-.17-.06.96.4c-1.1-.54-2.12-1.32-3.09-2.07l.81.63c-.62-.48-1.19-1-1.68-1.62l.63.81c-.23-.31-.43-.63-.59-.99l.4.96c-.13-.32-.22-.63-.27-.97l.14,1.06c-.03-.28-.03-.54,0-.82l-.14,1.06c.04-.27.1-.52.2-.78l-.4.96c.09-.19.19-.37.31-.55l-.63.81c.14-.17.28-.31.45-.44l-.81.63.13-.09-5.88-2.39c.31,1.33.61,2.66.92,3.99.38,1.64,2.17,3.01,3.86,2.94.71-.03,1.39-.21,2.02-.55.96-.51,1.45-1.43,1.84-2.39,1.79-4.47,3.06-9.14,3.77-13.9l-7.86-1.06c.12,1.22.35,2.34,1.03,3.39s1.49,1.77,2.52,2.48c1.35.95,3.05,1.48,4.63,1.9,1.88.5,3.83.8,5.77.96,1.69.14,3.4-.08,5.08.11l-1.06-.14c.27.04.53.09.79.19l-.96-.4.15.09-.81-.63.12.13-.63-.81.08.14-.4-.96.04.16-.14-1.06c.01.11.01.22,0,.33l.14-1.06c-.18,1.06-.5,2.1-.73,3.14-.3,1.33-.51,2.66-.67,4.02-.3,2.45-.06,4.97.66,7.33.61,1.99,1.47,3.92,2.28,5.84.9,2.15,1.81,4.29,2.89,6.36.53,1.02,1.1,2.03,1.72,3s1.4,1.83,1.86,2.86l-.4-.96c.07.19.12.37.17.58l-.14-1.06c.03.27.03.51,0,.78l.14-1.06c-.05.26-.13.5-.23.75l.4-.96c-.26.56-.61,1.06-.98,1.55l.63-.81c-.27.34-.53.68-.87.95l.81-.63c-.09.07-.19.13-.3.19l.96-.4c-.11.05-.22.09-.33.11l1.06-.14c-.23.03-.42.02-.66,0l1.06.14c-2.29-.41-4.56-.78-6.89-.71s-4.64.43-6.92.86c-3.91.74-8.1,1.45-11.03,4.39l6.83,2.83c-.23-1.9-.65-3.63-1.39-5.39s-1.55-3.41-2.29-5.13l.4.96c-.61-1.44-1.07-2.89-1.3-4.44l.14,1.06c-.27-2.07-.22-4.16-.41-6.23-.12-1.3-.28-2.62-.64-3.88s-.97-2.45-1.48-3.66l.4.96c-.22-.53-.4-1.06-.49-1.63l.14,1.06c-.05-.36-.05-.72-.02-1.08l-.14,1.06c.04-.3.11-.57.22-.85l-.4.96c.1-.21.22-.4.36-.59l-.63.81c.08-.09.16-.17.25-.25h-5.66c.18.17.35.35.5.55l-.63-.81c.21.31.39.63.53.97l-.4-.96c.39,1,.55,2.07.71,3.13.21,1.3.4,2.61.57,3.91l-.14-1.06c.1.74.19,1.47.28,2.21.13,1.1.36,2.01,1.17,2.83.69.69,1.83,1.22,2.83,1.17,2.31-.1,3.82-1.76,4-4,.06-.79.14-1.57.25-2.35l-.14,1.06c.23-1.64.55-3.27.97-4.87l-4.92,2.79c.1,0,.19.03.28.08l-.96-.4.12.07-.81-.63c.08.06.14.12.2.2l-.63-.81c.09.13.16.26.22.4l-.4-.96c.26.71.32,1.5.43,2.25l.43,2.71c.28,1.81.57,3.62.85,5.43l.4.96c.25.47.59.84,1.03,1.12.67.52,1.55.9,2.42.86,1.81-.08,3.3-1.2,3.86-2.94,1.26-3.97,2.52-7.94,3.79-11.92.63-1.99-.74-4.45-2.79-4.92-2.18-.5-4.24.66-4.92,2.79h0Z"/>
  <g>
    <g>
      <path class="cls-1" d="M4.43,48.97c9.09,1.69,15.55,3.63,20.71,4.5,5.6.95,10.83,2.74,16.34,4.11.75.19,2.92.71,4.27,2.58.24.34,1.28,1.85,1.04,3.43-.41,2.76-4.46,4.18-7.6,5.24-3.28,1.11-8.36,2.34-15.03,2.12"/>
      <path class="cls-1" d="M100.58,26.96c-2.45,2.12-6.12,5.12-10.92,8.28-5.42,3.57-8.22,5.38-12.22,6.23-2.36.5-8.71,1.85-14.25-1.83-.88-.59-3.25-2.19-4.75-5.19-1.29-2.56-1.66-5.58.24-14.32.86-3.97,2.23-9.31,4.47-15.53"/>
      <path class="cls-1" d="M120.57,74.63c-6.73-.38-12.35-.4-16.51-.34-8.26.13-10.58.62-12.84,2.22-3.2,2.27-5.31,6.09-5.62,9.9-.31,3.78,1.23,6.59,3.33,10.3,4.73,8.37,8.22,14.47,10.71,18.79"/>
      <path class="cls-1" d="M103.86,74.29c-2.99.07-17.28-2.5-20.26-5.48-1.06-1.06-4.31-4.54-5.53-10-1.96-8.8,6.66-19.8,7.5-20.97"/>
      <path class="cls-1" d="M88.92,96.72c-1.47-2.85-9.67-9.3-12.5-9.91-3.74-.81-7.76-1.8-11.95.07-.99.44-4.47,2.14-6.23,5.9-1.35,2.87-1.07,5.59-.91,7.13.55,5.57,1.01,12.27,1.47,20.77"/>
      <path class="cls-1" d="M57.45,101.5c-.42-2.17-3.7-11.93-5.29-15.37-1.27-2.75-2.87-6.21-6.35-9.44-3.26-3.03-8.86-6.76-12.66-6.34"/>
      <path class="cls-1" d="M27.12,53.76c5.15.63,12.41,2.94,19.23-2.53,1.39-1.12,5.35-6.02,7.54-12.81.98-3.02,3.96-12.72,4.03-14.55"/>
    </g>
    <g>
      <path class="cls-1" d="M4.43,48.97c9.09,1.69,15.55,3.63,20.71,4.5,5.6.95,10.83,2.74,16.34,4.11.75.19,2.92.71,4.27,2.58.24.34,1.28,1.85,1.04,3.43-.41,2.76-4.46,4.18-7.6,5.24-3.28,1.11-8.36,2.34-15.03,2.12"/>
      <path class="cls-1" d="M100.58,26.96c-2.45,2.12-6.12,5.12-10.92,8.28-5.42,3.57-8.22,5.38-12.22,6.23-2.36.5-8.71,1.85-14.25-1.83-.88-.59-3.25-2.19-4.75-5.19-1.29-2.56-1.66-5.58.24-14.32.86-3.97,2.23-9.31,4.47-15.53"/>
      <path class="cls-1" d="M120.57,74.63c-6.73-.38-12.35-.4-16.51-.34-8.26.13-10.58.62-12.84,2.22-3.2,2.27-5.31,6.09-5.62,9.9-.31,3.78,1.23,6.59,3.33,10.3,4.73,8.37,8.22,14.47,10.71,18.79"/>
      <path class="cls-1" d="M103.86,74.29c-2.99.07-17.28-2.5-20.26-5.48-1.06-1.06-4.31-4.54-5.53-10-1.96-8.8,6.66-19.8,7.5-20.97"/>
      <path class="cls-1" d="M88.92,96.72c-1.47-2.85-9.67-9.3-12.5-9.91-3.74-.81-7.76-1.8-11.95.07-.99.44-4.47,2.14-6.23,5.9-1.35,2.87-1.07,5.59-.91,7.13.55,5.57,1.01,12.27,1.47,20.77"/>
      <path class="cls-1" d="M57.45,101.5c-.42-2.17-3.7-11.93-5.29-15.37-1.27-2.75-2.87-6.21-6.35-9.44-3.26-3.03-8.86-6.76-12.66-6.34"/>
      <path class="cls-1" d="M27.12,53.76c5.15.63,12.41,2.94,19.23-2.53,1.39-1.12,5.35-6.02,7.54-12.81.98-3.02,3.96-12.72,4.03-14.55"/>
    </g>
  </g>
</svg>