<?xml version="1.0" encoding="UTF-8"?>
<svg id="_Слой_1" data-name="Слой 1" xmlns="http://www.w3.org/2000/svg" viewBox="0 0 100 100">
  <defs>
    <style>
      .cls-1 {
        fill: none;
        stroke: #000;
        stroke-miterlimit: 10;
      }
    </style>
  </defs>
  <path class="cls-1" d="M67.3,87.53c-2.07-6.09-3.61-10.43-4.67-13.39-.91-2.54-1.7-4.69-1.61-7.67.1-3.38,1.28-5.86,1.91-7.19,4.05-8.52,14.98-14.87,16.74-15.88"/>
  <path class="cls-1" d="M62.68,23.75c-1.62,5.03-2.67,9.22-3.35,12.24-.9,4.01-1.16,6.05-2.88,6.99-2.94,1.62-7.33-1.51-7.89-1.91-3.49-2.49-10.15-18.77-10.99-20.08"/>
  <path class="cls-1" d="M20.33,51.67c4.58.69,8.37,1.1,11.06,1.35,6.94.63,9.64.49,11.76,2.73,1.38,1.46,2.47,3.9,1.89,6.15-.1.38-.52,1.82-3.24,3.88-2.65,2.01-5.13,2.83-7.38,3.55-4.52,1.45-8.19,2.57-10.77,3.35"/>
  <path class="cls-1" d="M62.63,74.13c-.91-2.49-3.61-5.84-4.51-6.9-.75-.88-1.25-1.37-2.01-1.58-1.25-.35-2.71.09-3.52.91-1.42,1.43-.92,4-.53,5.81.7,3.32,1.92,8.36,4.06,14.92"/>
  <path class="cls-1" d="M52.47,74.24c-.21-.76-2.18-10.15-15.09-5.9"/>
  <path class="cls-1" d="M70.02,50.33c-.62.49-4.69,2.85-6.01,2.51-2.25-.59-3.45-2.36-4.09-3.3-1.14-1.68-1.44-3.31-1.6-4.21-.22-1.24.13-5.07.19-5.81"/>
  <path class="cls-1" d="M45.44,36.94c.26.98,1.45,5.65,1.34,7.46-.07,1.14-.18,2.96-1.23,4.77-1.6,2.77-6.61,4.21-7.59,4.52"/>
</svg>