<?xml version="1.0" encoding="UTF-8"?>
<svg id="_Слой_1" data-name="Слой 1" xmlns="http://www.w3.org/2000/svg" viewBox="0 0 114 114">
  <defs>
    <style>
      .cls-1 {
        fill: #e8b629;
        stroke: #000;
        stroke-miterlimit: 10;
      }
    </style>
  </defs>
  <path class="cls-1" d="M24.09,19.01c-.6.41,17.58,25.45,16.91,31.09-.45,3.75-2.96,6.53-5.86,9.74-2.56,2.84-5.1,4.61-6.5,5.58-2.39,1.65-22.92,9.56-24.58,10.32,1.25-.8,22.74-9.33,27.06-9.26,1.51.02,5.1.13,8.37,2.64,4.68,3.59,5.07,9.33,5.18,10.85.16,2.36-9.17,22.55-9.5,23.78,1.05-1.16,11.53-21,13.51-22.74,2.42-2.12,3.63-3.18,5.11-3.82,3.78-1.64,7.85.11,10.79,1.35,5.88,2.49,18.9,20.01,20.9,22.79-1.57-2.28-13.15-19.52-14.2-24.79-.56-2.82-1.28-6.44-.11-10.15,2.62-8.29,38.34-13.33,39.65-13.67-1.13.1-25.39,3.04-30.7.58-4.76-2.21-6.64-5.26-6.98-6.09-3.84-9.28,20.29-33.86,20.7-34.58-.97.93-22.16,23.88-23.98,25.46-4.35,3.77-6.53,5.65-9.1,6.95-1.39.7-8,4.04-14.13,1.73-5.51-2.07-21.91-28.18-22.51-27.78Z"/>
</svg>