<?xml version="1.0" encoding="UTF-8"?>
<svg id="_Слой_1" data-name="Слой 1" xmlns="http://www.w3.org/2000/svg" viewBox="0 0 114 114">
  <defs>
    <style>
      .cls-1 {
        fill: none;
        stroke: #000;
        stroke-miterlimit: 10;
      }
    </style>
  </defs>
  <path class="cls-1" d="M73.19.24c-4.5,9.65-7.63,16.59-9.76,21.35-1.82,4.08-3.34,7.56-6.85,11.01-3.99,3.92-8.24,5.54-10.52,6.4-14.59,5.53-34.92.61-38.19-.21"/>
  <path class="cls-1" d="M5.68,81.72c7.7-4.15,13.75-7.95,18.02-10.79,5.66-3.76,8.31-5.89,11.45-5.05,5.36,1.44,7.02,10.2,7.23,11.31,1.32,6.98-9.37,34.04-9.87,36.56"/>
  <path class="cls-1" d="M88.23,96.88c-4.68-6.08-8.74-10.9-11.67-14.28-7.56-8.71-10.96-11.62-10.92-16.72.02-3.33,1.52-7.49,4.79-9.5.55-.34,2.71-1.58,8.31-.93,5.46.63,9.37,2.5,12.88,4.22,7.06,3.45,12.73,6.31,16.7,8.33"/>
  <path class="cls-1" d="M63.44,21.59c-1.76,4.01-2.38,11.11-2.51,13.41-.11,1.92-.08,3.06.59,4.19,1.08,1.85,3.33,2.99,5.25,2.95,3.32-.08,5.68-3.73,7.29-6.32,2.96-4.77,7.28-12.18,12.24-22.46"/>
  <path class="cls-1" d="M75.69,33.11c-.62,1.15-9.03,14.62,11.27,24.32"/>
  <path class="cls-1" d="M27.36,41.56c1.3.13,8.87,1.97,10.04,3.88,2.01,3.29,1.41,6.77,1.1,8.63-.56,3.31-2.06,5.6-2.91,6.87-1.16,1.74-5.96,5.9-6.88,6.72"/>
  <path class="cls-1" d="M41.37,85.71c.82-1.47,4.74-8.41,6.95-10.44,1.38-1.28,3.61-3.33,6.93-4.29,5.08-1.47,12.71,2.54,14.24,3.3"/>
</svg>