<?xml version="1.0" encoding="UTF-8"?>
<svg id="_Слой_1" data-name="Слой 1" xmlns="http://www.w3.org/2000/svg" viewBox="0 0 130 130">
  <defs>
    <style>
      .cls-1 {
        fill: none;
        stroke: #000;
        stroke-miterlimit: 10;
      }

      .cls-2 {
        fill: #9d5187;
        stroke-width: 0px;
      }
    </style>
  </defs>
  <path class="cls-2" d="M48.2,41.27c1.16,1.91,2.32,3.83,3.48,5.74l.79-.61c-1.65-1.99-3.12-4.12-4.4-6.36l-.86.5c.55.92,1.1,1.84,1.64,2.76l.86-.5c-1.57-2.63-3.14-5.26-4.71-7.9l-.79.61c2.73,2.9,4.92,6.29,6.4,10l.84-.49c-.75-.62-1.29-1.39-1.59-2.31l-.96.27c.52,1.4,1.04,2.79,1.56,4.19l.91-.39c-.87-1.64-1.64-3.33-2.31-5.06-.23-.59-1.18-.35-.96.27,1.83,5.26,5.67,11.33,2.97,16.98l.93.25c-.21-2.4-.25-4.81-.1-7.22h-1c.35,6.35-1.21,13.25-6.17,17.6-.48.43.23,1.13.71.71,5.14-4.51,6.82-11.71,6.46-18.31-.04-.64-.96-.64-1,0-.15,2.41-.11,4.82.1,7.22.04.44.7.74.93.25,2.87-6-.91-12.13-2.87-17.75l-.96.27c.7,1.81,1.5,3.58,2.41,5.3.26.49,1.11.15.91-.39-.52-1.4-1.04-2.79-1.56-4.19-.22-.59-1.17-.35-.96.27.36,1.08.98,2.02,1.85,2.76.34.28,1.04.03.84-.49-1.55-3.87-3.8-7.4-6.66-10.44-.39-.41-1.08.12-.79.61,1.57,2.63,3.14,5.26,4.71,7.9.33.55,1.19.05.86-.5-.55-.92-1.1-1.84-1.64-2.76-.33-.55-1.18-.06-.86.5,1.33,2.32,2.85,4.51,4.56,6.57.37.44,1.08-.13.79-.61-1.16-1.91-2.32-3.83-3.48-5.74-.33-.55-1.2-.05-.86.5h0Z"/>
  <path class="cls-2" d="M58.28,61.57c-5.22,4.61-10.78,9.44-17.75,11.04-1.87.43-3.8.71-5.43,1.78-.47.31-.18,1.06.39.91,4.71-1.21,9.59-1.62,14.44-1.22l-.25-.93c-.66.5-1.42.7-2.23.51v.96c.96-.3,1.92-.39,2.92-.3.42.04.56-.44.43-.75-.47-1.1-1.73-1.38-2.81-1.53-1.76-.24-3.52-.48-5.28-.72v.96c4.54-1.51,9.07-3.01,13.61-4.52.5-.17.46-1.04-.13-.98-3.47.36-6.75,1.58-9.7,3.43-.46.29-.17,1.1.39.91,3.33-1.08,6.72-1.95,10.15-2.61.63-.12.36-1.08-.27-.96-3.44.65-6.83,1.52-10.15,2.61l.39.91c2.78-1.76,5.9-2.96,9.19-3.3l-.13-.98c-4.54,1.51-9.07,3.01-13.61,4.52-.42.14-.53.89,0,.96,1.52.21,3.03.41,4.55.62.96.13,2.5.12,2.95,1.17l.43-.75c-1.08-.1-2.15.01-3.18.33-.45.14-.5.85,0,.96,1.06.24,2.13.05,3-.61.4-.3.27-.89-.25-.93-4.93-.41-9.91.02-14.7,1.25l.39.91c1.5-.99,3.27-1.26,4.99-1.64s3.33-.94,4.91-1.65c3.21-1.45,6.11-3.51,8.84-5.72,1.58-1.28,3.11-2.62,4.64-3.96.48-.43-.23-1.13-.71-.71h0Z"/>
  <path class="cls-2" d="M60.59,69.14c1.27,5.42,2.13,10.92,2.58,16.47l.98-.13c-.51-1.9-1.02-3.8-1.54-5.7-.15-.55-.98-.43-.98.13-.03,2.7.04,5.4.23,8.09l.98-.13c-.51-2.44-1.03-4.88-1.54-7.32-.11-.54-1.03-.43-.98.13.17,2.13.33,4.27.5,6.4l.98-.13c-.36-2.09-.71-4.18-1.07-6.27l-.96.27,1.07,5.92c.11.64,1.07.36.96-.27l-.93-5.54c-.09-.56-.99-.42-.98.13.03,1.26.2,2.5.5,3.72.16.63,1.07.36.96-.27-.22-1.29-.57-2.54-1.06-3.76-.23-.58-1.12-.38-.96.27.31,1.28.61,2.56.92,3.85.15.63,1.1.36.96-.27-.19-.86-.38-1.72-.57-2.58l-.96.27c1.68,4.4,3.59,9.61,1.07,14.08l.91.39c1.03-3.54,2.46-6.93,4.28-10.14l-.86-.5c-.5,1.04-.99,2.08-1.49,3.11l.91.39c1-3.84,2.26-7.6,3.79-11.26l-.96-.27-2.36,6.22c-.23.61.73.85.96.27.74-1.82,1.6-3.59,2.59-5.29l-.86-.5c-1.18,2.48-2.28,4.99-3.31,7.54l.96.27c.66-2.77,1.31-5.59,1.1-8.46-.04-.55-.81-.69-.98-.13-1.08,3.4-2.16,6.81-3.24,10.21l.96.27c.64-4.17,1.8-8.24,3.47-12.11l-.91-.39c-.75,3.17-1.72,6.28-2.9,9.32l.98.13c0-3.47.08-6.94.25-10.41.03-.56-.85-.68-.98-.13-.56,2.3-.83,4.66-.79,7.02h1c-.08-1.82-.36-3.61-.85-5.37-.16-.58-.92-.4-.98.13-.13,1.16-.26,2.33-.38,3.49l.98-.13c-.12-.59-.24-1.18-.37-1.77-.11-.54-.8-.41-.96,0-.53,1.28,1.12,2.22,2.19,1.78.63-.26,1.07-.82,1.42-1.4.39-.65.71-1.54,1.49-1.83l-.63-.48c-.07,1.29-.3,2.56-.66,3.8-.18.62.76.87.96.27.54-1.58,1.18-3.11,1.93-4.59l-.91-.39c-.64,2.23-1.67,4.29-3.05,6.15l.93.25c-.08-1.4-.07-2.8.04-4.2.05-.57-.84-.67-.98-.13-.37,1.43-.4,2.88-.1,4.32.08.4.74.51.91.12.6-1.37,1.2-2.75,1.8-4.12l-.93-.25c-.07,1.44-.38,2.82-.9,4.16-.2.52.69.9.91.39.61-1.41,1.44-2.68,2.5-3.79l-.84-.49c-.13.85-.25,1.7-.38,2.55-.06.42.49.93.84.49.56-.71,1.11-1.42,1.67-2.13l-.84-.49c-.32.8-.63,1.6-.95,2.4-.22.54.62.84.91.39,1.8-2.85,4.23-5.24,7.1-7l-.5-.86c-.87.57-1.75,1.14-2.62,1.71-.41.27-.26.92.25.93.91.01,1.8-.14,2.65-.47l-.27-.96c-.31.13-.63.25-.94.38-.58.23-.36,1.17.27.96,2.43-.78,5.07-.5,7.28.79l.39-.91c-3.98-.98-6.79-4.99-6.39-9.06l-.98.13c1.05,2.86,2.26,5.66,3.62,8.38l.79-.61c-1.68-1.92-3.03-4.12-3.97-6.5-.23-.59-1.2-.33-.96.27,1.01,2.55,2.42,4.88,4.23,6.94.39.45,1.03-.12.79-.61-1.33-2.65-2.5-5.36-3.52-8.14-.2-.54-.93-.43-.98.13-.44,4.5,2.75,8.95,7.12,10.03.54.13.88-.62.39-.91-2.43-1.42-5.37-1.76-8.05-.89l.27.96c.31-.13.63-.25.94-.38.59-.23.34-1.2-.27-.96-.77.3-1.55.45-2.38.44l.25.93c.87-.57,1.75-1.14,2.62-1.71.54-.35.05-1.2-.5-.86-3.02,1.85-5.57,4.36-7.46,7.36l.91.39c.32-.8.63-1.6.95-2.4.18-.45-.53-.87-.84-.49-.56.71-1.11,1.42-1.67,2.13l.84.49c.13-.85.25-1.7.38-2.55.07-.45-.46-.89-.84-.49-1.11,1.18-2.01,2.51-2.65,4l.91.39c.55-1.42.86-2.91.93-4.43.02-.47-.73-.71-.93-.25-.6,1.37-1.2,2.75-1.8,4.12l.91.12c-.27-1.27-.23-2.54.1-3.79l-.98-.13c-.11,1.4-.13,2.8-.04,4.2.03.52.64.65.93.25,1.43-1.93,2.49-4.09,3.15-6.39.15-.53-.65-.9-.91-.39-.79,1.56-1.47,3.17-2.03,4.83l.96.27c.39-1.33.62-2.68.7-4.06.02-.31-.34-.59-.63-.48-.94.35-1.43,1.13-1.9,1.97-.24.44-.51.94-.95,1.21-.37.23-1.26.09-1.01-.5h-.96c.12.59.24,1.18.37,1.77s.93.39.98-.13c.13-1.16.26-2.33.38-3.49l-.98.13c.46,1.67.74,3.37.82,5.1.03.64,1.01.65,1,0-.03-2.28.22-4.54.76-6.76l-.98-.13c-.18,3.47-.26,6.94-.25,10.41,0,.6.79.64.98.13,1.18-3.03,2.15-6.15,2.9-9.32.12-.52-.68-.93-.91-.39-1.71,3.95-2.92,8.09-3.58,12.35-.1.62.76.89.96.27,1.08-3.4,2.16-6.81,3.24-10.21l-.98-.13c.21,2.79-.42,5.5-1.06,8.2-.15.64.73.85.96.27.99-2.47,2.06-4.9,3.21-7.3.27-.57-.54-1.07-.86-.5-1.03,1.78-1.92,3.62-2.69,5.53l.96.27,2.36-6.22c.23-.61-.72-.85-.96-.27-1.53,3.66-2.8,7.42-3.79,11.26-.14.53.66.91.91.39.5-1.04.99-2.08,1.49-3.11.27-.57-.54-1.07-.86-.5-1.86,3.27-3.33,6.76-4.38,10.38-.16.54.63.88.91.39,2.68-4.74.82-10.17-.97-14.85-.23-.59-1.1-.37-.96.27.19.86.38,1.72.57,2.58l.96-.27c-.31-1.28-.61-2.56-.92-3.85l-.96.27c.49,1.21.84,2.47,1.06,3.76l.96-.27c-.29-1.14-.44-2.28-.47-3.45l-.98.13.93,5.54.96-.27-1.07-5.92c-.11-.63-1.07-.36-.96.27.36,2.09.71,4.18,1.07,6.27.09.55,1.03.43.98-.13-.17-2.13-.33-4.27-.5-6.4l-.98.13c.51,2.44,1.03,4.88,1.54,7.32.12.55,1.02.43.98-.13-.19-2.69-.26-5.39-.23-8.09l-.98.13c.51,1.9,1.02,3.8,1.54,5.7.14.53,1.03.44.98-.13-.46-5.64-1.33-11.23-2.62-16.74-.15-.63-1.11-.36-.96.27h0Z"/>
  <path class="cls-2" d="M50.05,44.61c1.53,4.35,3.39,8.57,5.57,12.63.27.5,1.07.16.91-.39-1.27-4.39-2.81-8.68-4.6-12.89-.23-.54-1.03-.14-.91.39,1.67,7.4,3.25,15.1,1.82,22.68l.91-.12c-.62-1.41-.84-2.93-.69-4.46.04-.46-.56-.62-.85-.35-.59.55-1.06,1.18-1.4,1.91l.93.25c.16-1.55.7-3,1.55-4.3l-.91-.39c-.89,2.39-1.65,4.82-2.27,7.29-.11.45.5.89.84.49,1.69-2.07,2.84-4.5,3.3-7.13.09-.52-.63-.92-.91-.39-1.06,1.99-2.11,3.99-3.17,5.98l.91.39c.4-1.21.92-2.37,1.54-3.49l-.91-.39c-.36,1.01-.68,2.05-.86,3.1-.11.62-.08,1.47.6,1.77.79.35,1.41-.43,1.84-.97.58-.74,1.07-1.55,1.53-2.38.32-.57,2.59-5.1,3.39-4.5.12.09.2.56.24.72.07.24.13.49.19.73.12.53.22,1.06.3,1.59.15,1.03.24,2.08.33,3.12.2,2.3.43,4.63,1.33,6.78.16.38.68.52.91.12,1.76-3,.24-6.79,2.02-9.75l-.91-.12c.49,3.2.99,6.41,1.48,9.61.14.89.11,2.7,1.25,3.02.5.14.92-.16,1.22-.53.47-.59.91-1.21,1.36-1.81l-.91-.39c-.29,1.53-.58,3.06-.87,4.58-.09.45.48.89.84.49.48-.54.84-1.13,1.1-1.8l-.96-.27c-.25.71-.5,1.42-.76,2.13l.96.27c.67-2.09,1.29-4.2,1.85-6.33.16-.62-.8-.89-.96-.27-.42,1.55-.7,3.12-.86,4.72-.06.64.93.63,1,0,.3-2.57.84-5.11,1.61-7.58.37-1.18.79-2.35,1.26-3.49.42-1.02.9-2.1,1.88-2.7l-.75-.43c.05,1.64,0,3.28-.18,4.91-.06.57.85.67.98.13.51-2.03.99-4.07,1.43-6.12l-.98-.13c.17,2.91.34,5.82.51,8.74.01.24.15.4.37.48,1.06.4,1.97,1.06,2.72,1.92l.71-.71c-2.36-2.23-3.18-5.89-1.89-8.89l-.91-.39c-.54,1.59-.81,3.25-.81,4.93,0,.56.84.69.98.13.45-1.79.89-3.58,1.34-5.37.16-.63-.78-.88-.96-.27l-.77,2.54c-.16.54.64.88.91.39l1.48-2.68c.26-.48-.42-1.07-.79-.61-.97,1.21-1.53,2.6-1.67,4.15-.05.57.83.66.98.13.69-2.39,1.58-4.71,2.68-6.95.28-.57-.57-1.08-.86-.5-.37.72-.82,1.37-1.38,1.97-.44.47.25,1.17.71.71,1.46-1.48,2.91-2.96,4.37-4.44.36-.37,0-.94-.49-.84l-1.37.29.39.91c2.13-1.09,4.58-1.38,6.91-.83l.13-.98c-2.28.02-4.55-.25-6.76-.84-1.08-.29-2.21-.62-3.21-1.13-.93-.48-1.57-1.2-2.05-2.12-.99-1.92-1.43-4.21-1.74-6.34-.35-2.32-.46-4.68-.58-7.02-.02-.49-.67-.69-.93-.25-2.06,3.39-1.98,7.86.22,11.17.25.38.98.28.93-.25-.25-2.73-.5-5.46-.75-8.18-.04-.45-.69-.73-.93-.25-1.3,2.55-.06,5.48.88,7.94.51,1.35,1.03,2.7,1.62,4.02.51,1.15,1.17,2.22,2.25,2.91.51.32.95-.37.61-.79-1.07-1.29-1.79-2.79-2.17-4.41l-.91.39c1.2,1.56,2.4,3.11,3.59,4.67.38.5,1.18.08.86-.5-.61-1.14-1.7-1.94-2.97-2.15-.31-.05-.64.13-.63.48.1,3.46-.07,6.92-.54,10.34-.08.56.56.86.91.39l2.17-2.91c.34-.46-.4-1-.79-.61-1.1,1.11-2.06,2.34-2.87,3.67l.86.5,1.76-3.61c.28-.58-.5-1.04-.86-.5l-3.42,5.03.91.39c.24-1.15.54-2.28.9-3.39.15-.45-.52-.88-.84-.49-1.03,1.3-1.79,2.75-2.26,4.34-.16.54.64.89.91.39.69-1.27,1.3-2.57,1.85-3.91.22-.53-.63-.86-.91-.39l-1.4,2.36.93.25c.46-3.84.93-7.68,1.39-11.51.06-.53-.69-.63-.93-.25-.99,1.54-1.38,3.33-1.72,5.1l.96.27c.35-2.09.47-4.19.34-6.3-.03-.56-.8-.68-.98-.13-.64,1.96-1.15,3.96-1.52,6-.1.54.6.89.91.39.86-1.37,1.26-2.96,1.14-4.58-.03-.46-.69-.73-.93-.25-1.44,2.79-2.88,5.57-4.32,8.36l.91.12-.73-4.04c-.08-.41-.73-.49-.91-.12-1.16,2.38-2.32,4.75-3.47,7.13l.91.39c.28-1.42.66-2.81,1.14-4.18l-.96-.27c-.28,1.01-.55,2.01-.83,3.02-.17.63.74.85.96.27.63-1.64,1.27-3.28,1.9-4.91l-.96-.27c-.41,1.79-.71,3.61-.91,5.44-.06.58.82.65.98.13.41-1.34.82-2.68,1.23-4.03.19-.62-.75-.86-.96-.27l-1.17,3.25.96.27c.33-1.5.54-3.01.65-4.54.03-.5-.7-.68-.93-.25l-.72,1.34.93.25c.22-2.79.44-5.59.66-8.38.13-1.63.77-4.5-1.14-5.39-.19-.09-.45-.09-.61.08-1.26,1.38-2.15,3.02-2.61,4.83-.14.54.64.9.91.39,1.25-2.31,2.31-4.72,3.16-7.2.18-.52-.49-.77-.84-.49-.79.64-1.2,1.61-1.14,2.62.02.4.55.7.85.35,1.46-1.63,2.96-3.21,4.5-4.75l-.84-.22c.11.61.23,1.23.34,1.84.07.38.59.47.84.22,1.28-1.28,2.14-2.91,2.43-4.71.06-.38-.34-.85-.73-.56-2.83,2.03-5.98,3.82-9.31,4.92-1.7.56-3.5.84-5.25.34-1.64-.47-3.08-1.46-4.47-2.41l-.5.86c1,.67,2,1.34,3.01,2.02.51.34.94-.38.61-.79-1.02-1.26-2.21-2.34-3.55-3.25l-.5.86c2.84,1.47,5.85,2.58,8.97,3.3.54.13.89-.62.39-.91-1.42-.83-2.96-1.4-4.57-1.69-.4-.07-.68.22-.62.62.3,1.9.59,3.81.89,5.71l.91-.39c-.95-1.26-1.81-2.59-2.56-3.98-.22-.41-1-.25-.93.25.29,2.26.76,4.48,1.41,6.66.19.62,1.11.36.96-.27-.47-2.07-1.06-4.12-1.76-6.12-.21-.61-1.07-.36-.96.27.4,2.32,1.03,4.57,1.91,6.75.19.48,1.03.48.98-.13l-.42-5.77-.93.25c1.1,1.65,2.13,3.35,3.09,5.09.25.45.91.23.93-.25.07-1.85-.1-3.69-.52-5.49-.15-.64-1.07-.36-.96.27.37,2.26.58,4.53.64,6.82l.98-.13c-.39-1.43-.68-2.88-.88-4.35-.07-.55-1.05-.43-.98.13.08.67.26,1.28.58,1.88.19.35.85.31.91-.12.25-1.63.11-3.25-.46-4.8-.2-.54-.93-.44-.98.13l-.21,2.16.85-.35c-.16-.17.01-.73-.07-.97s-.27-.46-.49-.58c-.46-.26-.98-.12-1.13.41l.98.13c-.03-.35-.07-.71-.1-1.06l-.98.13c.36,1.12,1.87,1.52,2.68.63l-.79-.1c.15.26.3.53.46.79.18.31.7.34.86,0,.12-.12.09-.21-.09-.26l-.05-.39-.02.11.84-.22c-.27-.34-.53-.69-.8-1.03-.33-.43-.92.05-.84.49.17.88.59,2.12,1.67,2.19.83.05,1.8-.72,1.42-1.61-.24-.57-1.15-.37-.96.27l.28.95c.1.34.58.51.84.22.29-.32.42-.65.45-1.08.03-.55-.91-.7-.98-.13l-.19,1.4c-.09.64.71.86.96.27l.55-1.31-.96-.27c-.14.53-.15,1.02-.06,1.56.06.37.6.49.84.22.6-.68,1.05-1.42,1.4-2.25l-.96-.27-.23,1.57c-.09.64.72.87.96.27l.87-2.14-.96-.27-.78,2.4c-.17.54.65.89.91.39l1.52-2.91-.93-.25c.05,1.01-.11,1.99-.52,2.92-.26.58.61,1.09.86.5.48-1.09.71-2.23.66-3.42-.02-.47-.69-.71-.93-.25-.51.97-1.02,1.94-1.52,2.91l.91.39.78-2.4c.2-.63-.73-.85-.96-.27l-.87,2.14.96.27.23-1.57c.1-.64-.72-.86-.96-.27-.28.66-.66,1.27-1.14,1.81l.84.22c-.06-.36-.03-.68.06-1.03.17-.64-.72-.84-.96-.27l-.55,1.31.96.27.19-1.4-.98-.13c0,.15-.05.27-.15.37l.84.22-.28-.95-.96.27c.08.2-.09.33-.31.35s-.35-.12-.47-.28c-.24-.33-.32-.78-.39-1.17l-.84.49c.27.34.53.69.8,1.03.22.28.78.13.84-.22.06-.43-.13-.85-.6-.94-.52-.1-.87.29-1.08.71h.86c-.15-.26-.3-.53-.46-.79s-.57-.34-.79-.1c-.29.31-.88.24-1.01-.19-.16-.51-1.04-.46-.98.13.03.35.07.71.1,1.06.05.54.82.71.98.13-.27.01-.38.1-.32.26.03.08.03.16,0,.24,0,.14-.02.27,0,.4.04.28.13.48.33.68.32.34.81.05.85-.35l.21-2.16-.98.13c.51,1.37.69,2.82.46,4.27l.91-.12c-.23-.43-.38-.88-.44-1.38l-.98.13c.2,1.47.49,2.92.88,4.35.15.54,1,.44.98-.13-.06-2.38-.29-4.74-.68-7.08l-.96.27c.39,1.72.55,3.47.48,5.23l.93-.25c-.96-1.74-1.99-3.43-3.09-5.09-.25-.38-.97-.28-.93.25l.42,5.77.98-.13c-.88-2.18-1.52-4.44-1.91-6.75l-.96.27c.7,2.01,1.28,4.05,1.76,6.12l.96-.27c-.63-2.09-1.1-4.23-1.38-6.39l-.93.25c.75,1.39,1.6,2.72,2.56,3.98.35.46,1,.19.91-.39-.3-1.9-.59-3.81-.89-5.71l-.62.62c1.54.28,2.99.81,4.33,1.59l.39-.91c-3.03-.7-5.96-1.77-8.73-3.2-.58-.3-1.04.5-.5.86,1.27.86,2.39,1.9,3.35,3.09l.61-.79c-1-.67-2-1.34-3.01-2.02-.54-.36-1.03.5-.5.86,1.44.98,2.92,1.97,4.61,2.48,1.79.54,3.67.35,5.45-.18,3.57-1.07,6.97-2.99,9.99-5.16l-.73-.56c-.26,1.63-1,3.1-2.17,4.27l.84.22c-.11-.61-.23-1.23-.34-1.84-.07-.38-.59-.47-.84-.22-1.55,1.54-3.05,3.13-4.5,4.75l.85.35c-.05-.78.25-1.42.85-1.91l-.84-.49c-.83,2.4-1.85,4.73-3.06,6.96l.91.39c.42-1.64,1.21-3.14,2.35-4.39l-.61.08c.78.37.84,1.31.82,2.08-.02,1.14-.17,2.29-.26,3.43-.19,2.47-.39,4.93-.58,7.4-.04.5.7.68.93.25l.72-1.34-.93-.25c-.1,1.44-.3,2.87-.61,4.28-.14.63.75.87.96.27l1.17-3.25-.96-.27c-.41,1.34-.82,2.68-1.23,4.03l.98.13c.19-1.74.48-3.46.87-5.17.15-.64-.73-.86-.96-.27-.63,1.64-1.27,3.28-1.9,4.91l.96.27c.28-1.01.55-2.01.83-3.02.17-.63-.75-.87-.96-.27-.48,1.37-.86,2.76-1.14,4.18-.1.52.65.93.91.39,1.16-2.38,2.32-4.75,3.47-7.13l-.91-.12.73,4.04c.08.42.72.49.91.12,1.44-2.79,2.88-5.57,4.32-8.36l-.93-.25c.11,1.45-.23,2.84-1,4.07l.91.39c.37-2.03.87-4.03,1.52-6l-.98-.13c.12,2.02.03,4.04-.31,6.04-.1.63.84.9.96.27.33-1.69.67-3.39,1.62-4.86l-.93-.25c-.46,3.84-.93,7.68-1.39,11.51-.06.52.7.65.93.25l1.4-2.36-.91-.39c-.51,1.26-1.1,2.48-1.75,3.67l.91.39c.42-1.42,1.09-2.74,2-3.9l-.84-.49c-.36,1.11-.66,2.24-.9,3.39-.12.56.59.86.91.39l3.42-5.03-.86-.5-1.76,3.61c-.28.57.52,1.06.86.5.77-1.26,1.68-2.42,2.72-3.47l-.79-.61-2.17,2.91.91.39c.48-3.52.68-7.06.57-10.61l-.63.48c1.04.17,1.88.75,2.38,1.69l.86-.5c-1.2-1.56-2.4-3.11-3.59-4.67-.33-.43-1.05-.2-.91.39.42,1.8,1.25,3.43,2.43,4.85l.61-.79c-.96-.61-1.49-1.62-1.93-2.64-.53-1.21-1-2.45-1.48-3.69-.81-2.14-2.12-4.93-.98-7.17l-.93-.25c.25,2.73.5,5.46.75,8.18l.93-.25c-2.01-3.02-2.11-7.05-.22-10.16l-.93-.25c.18,3.86.4,7.79,1.54,11.51.48,1.55,1.1,3.21,2.42,4.25s3.27,1.55,4.92,1.95c2.11.51,4.29.75,6.46.73.55,0,.69-.85.13-.98-2.6-.61-5.3-.28-7.68.93-.53.27-.15,1.03.39.91l1.37-.29-.49-.84-4.37,4.44.71.71c.61-.65,1.12-1.37,1.53-2.17l-.86-.5c-1.13,2.31-2.06,4.72-2.78,7.19l.98.13c.11-1.26.58-2.45,1.38-3.44l-.79-.61-1.48,2.68.91.39.77-2.54-.96-.27c-.45,1.79-.89,3.58-1.34,5.37l.98.13c0-1.6.26-3.15.77-4.67.18-.53-.69-.91-.91-.39-1.47,3.42-.67,7.54,2.05,10.11.47.45,1.13-.23.71-.71-.86-.99-1.93-1.71-3.16-2.17l.37.48c-.17-2.91-.34-5.82-.51-8.74-.03-.53-.86-.71-.98-.13-.44,2.05-.91,4.09-1.43,6.12l.98.13c.17-1.63.23-3.27.18-4.91-.01-.37-.42-.64-.75-.43-.96.6-1.56,1.53-2.01,2.54-.56,1.24-1.03,2.52-1.44,3.81-.87,2.7-1.45,5.47-1.78,8.28h1c.15-1.51.43-2.99.82-4.45l-.96-.27c-.56,2.13-1.17,4.24-1.85,6.33-.2.62.75.87.96.27.25-.71.5-1.42.76-2.13.22-.61-.73-.85-.96-.27-.2.51-.48.95-.85,1.36l.84.49c.29-1.53.58-3.06.87-4.58.11-.58-.57-.84-.91-.39-.38.51-.76,1.01-1.14,1.52-.18.24-.2.42-.41.24-.14-.12-.17-.44-.2-.61-.24-1.2-.38-2.44-.56-3.65-.39-2.52-.78-5.03-1.16-7.55-.07-.45-.71-.46-.91-.12-1.81,2.99-.27,6.77-2.02,9.75l.91.12c-1.57-3.75-1.03-7.92-2.03-11.8-.17-.67-.34-1.69-1.1-1.95-.84-.29-1.55.55-2.01,1.12-1.14,1.39-1.9,3.02-2.8,4.56-.27.45-.54.9-.85,1.33-.15.21-.3.41-.46.6s-.39.48-.49.15c-.13-.43.21-1.25.32-1.67.16-.59.35-1.18.55-1.76.19-.54-.64-.87-.91-.39-.67,1.19-1.21,2.43-1.64,3.73-.18.54.65.89.91.39,1.06-1.99,2.11-3.99,3.17-5.98l-.91-.39c-.44,2.45-1.46,4.75-3.04,6.69l.84.49c.62-2.47,1.38-4.9,2.27-7.29.21-.55-.62-.84-.91-.39-.95,1.46-1.51,3.08-1.69,4.81-.05.49.72.69.93.25.31-.65.72-1.21,1.25-1.71l-.85-.35c-.17,1.72.13,3.39.83,4.97.17.39.84.29.91-.12,1.47-7.77-.1-15.62-1.82-23.21l-.91.39c1.75,4.12,3.25,8.35,4.5,12.65l.91-.39c-2.14-3.99-3.96-8.13-5.47-12.4-.21-.6-1.18-.34-.96.27h0Z"/>
  <g>
    <path class="cls-2" d="M47.07,39.54c2.72,4.37,5.65,8.61,8.76,12.71l.79-.61c-3.93-4.94-7.36-10.27-10.24-15.89l-.86.5c3.22,5.96,6.64,11.81,10.26,17.53l.79-.61c-2.99-3.53-5.43-7.5-7.24-11.76l-.86.5c2.19,4.54,4.38,9.08,6.57,13.63l.86-.5c-2.79-4.51-5.12-9.29-6.93-14.27l-.91.39c2.34,4.26,4.67,8.51,7.01,12.77l.86-.5c-2.01-3.18-3.81-6.48-5.41-9.88l-.86.5c2.76,5.61,5.58,11.41,6.01,17.75l.93-.25c-2.74-4.21-3.71-9.21-4.63-14.07l-.96.27c1.36,5.4,2.4,10.89,3.09,16.42l.98-.13c-1.45-5.54-2.51-11.18-3.16-16.87l-.98.13c.93,5.15,1.85,10.3,2.78,15.44l.96-.27c-1.83-5.09-3.02-10.4-3.53-15.79l-.98.13c1.22,5.42,2.18,10.9,2.87,16.42l.98-.13c-1.45-4.76-2.08-9.71-1.88-14.68l-.98.13c.88,2.94,1.47,5.97,1.71,9.04.12,1.49.16,2.99.12,4.49-.03,1.22.06,2.78-.96,3.64l.85.35c-.33-3.74.13-7.49,1.38-11.03l-.96-.27c-1.26,4.48-2.52,8.95-3.78,13.43l.98.13c-.29-4.73,1.02-9.3,2.34-13.79l-.98-.13c-.15,4.72-.87,9.4-2.12,13.95l.98.13c-.32-4.48.59-8.97,2.65-12.96l-.91-.39c-.73,4.64-2.41,9.07-4.95,13.02l.86.5c1.3-2.2,2.78-4.28,4.44-6.22.41-.49-.23-1.15-.71-.71-3.02,2.81-5.76,5.92-8.17,9.27-.29.4.29.98.68.68,3.19-2.37,5.9-5.3,8-8.67.32-.52-.37-.94-.79-.61-3.05,2.42-5.92,5.04-8.61,7.86l.71.71c2.33-2.49,4.66-4.98,7-7.47.45-.48-.22-1.12-.71-.71-2.61,2.21-5.23,4.42-7.84,6.63-.43.36.15,1.13.61.79,3.13-2.39,6.04-5.05,8.7-7.96.43-.48-.24-1.15-.71-.71-1.76,1.66-3.53,3.32-5.29,4.98l.71.71c1.95-2.1,3.91-4.2,5.86-6.3l-.79-.61c-2.3,3.08-4.61,6.16-6.91,9.25-.11.15-.07.35,0,.5l.03.06c.07.16.27.24.43.25.69.01.96-.97.29-1.23-.46-.18-.84.13-1.18.39-.52.41-1.04.8-1.58,1.17-1.96,1.37-4.05,2.54-6.24,3.51l.5.86c2.86-2.04,5.85-3.89,8.95-5.55l-.5-.86c-2.4,1.4-4.67,3.01-6.79,4.81-.39.33.03.96.49.84,3.93-1.08,7.97-1.61,12.04-1.57.64,0,.64-.98,0-1-3.01-.09-6.02.02-9.02.32-.63.06-.66,1.02,0,1,2.59-.07,5.18-.14,7.77-.21v-1c-2.64.17-5.28.19-7.92.05l.13.98c2.26-.76,4.6-1.11,6.98-1.04l-.13-.98c-2.49.6-4.99,1.12-7.51,1.56-.48.08-.47.87,0,.96,1.9.38,3.82.52,5.75.41v-1l-5.24.36c-.64.04-.64,1.04,0,1,4.25-.29,8.52-.27,12.77.07.6.05.62-.8.13-.98-1.98-.75-4.02-1.32-6.11-1.69-.51-.09-.94.65-.39.91l7.31,3.44c.58.27,1.08-.57.5-.86-1.97-.99-4.03-1.76-6.16-2.28-.53-.13-.92.67-.39.91,2.01.92,4.08,1.68,6.22,2.24.55.15.87-.62.39-.91-1.89-1.13-4.01-1.74-6.21-1.78-.57-.01-.68.83-.13.98,2.37.65,4.67,1.5,6.88,2.57,1.66.81,4.44,1.92,4.64,4.06l.85-.35c-2.11-2.02-3.94-4.3-5.46-6.8-.33-.55-1.17-.06-.86.5,1.66,3.01,3.31,6.02,4.97,9.03l.86-.5c-1.62-2.25-3.12-4.57-4.49-6.98l-.86.5c1.39,2.26,2.78,4.53,4.17,6.79l.86-.5c-1.61-2.23-3.23-4.46-4.84-6.69l-.79.61,1.31,1.53.71-.71-1.93-1.7c-.48-.42-1.17.25-.71.71,2.99,2.99,6.32,6.44,6.62,10.89l.93-.25c-1.03-2.38-1.8-4.86-2.33-7.4l-.96.27c1.25,3.43,2.2,6.96,2.83,10.55l.96-.27c-.68-2.65-1.01-5.36-.97-8.1l-.98.13c1.53,4.65,1.33,9.72-.53,14.25l.96.27c.74-3.62.94-7.33.57-11.01-.06-.63-1.03-.65-1,0,.13,2.4.25,4.79.38,7.19.03.58.78.65.98.13,1.08-2.79,2.03-5.62,2.85-8.49l-.96-.27c-.51,2.07-1.01,4.13-1.52,6.2l.96.27c1.53-6.23,4.34-12.07,8.26-17.14l-.86-.5c-2.87,3.98-5.29,8.26-7.21,12.77-.25.58.6,1.1.86.5,1.65-3.68,3.96-7.02,6.84-9.84.46-.45-.23-1.14-.71-.71l-3.45,3.16c-.48.44.22,1.12.71.71,2-1.69,4.35-2.91,6.87-3.61l-.27-.96c-2.09.65-4,1.71-5.67,3.14-.49.42.22,1.11.71.71,2.93-2.43,6.91-3.44,10.64-2.71.46.09.87-.47.49-.84-4.1-3.93-7.62-9.41-6.23-15.33l-.98-.13c.09,3.55.7,7.07,1.83,10.44.2.61,1.12.36.96-.27-.69-2.89-.84-5.89-.4-8.84.09-.62-.81-.91-.96-.27l-1.26,5.36.96.27c.54-2.92,1.46-5.94,3.49-8.18,1.86-2.05,4.73-3.34,7.49-2.64l.13-.98c-3.22.06-6.39,1.34-8.7,3.6s-3.65,5.4-3.78,8.62c-.02.55.88.69.98.13.94-4.99,4.54-9.31,9.32-11.05.52-.19.45-.96-.13-.98-2.89-.1-5.78-.2-8.67-.3-.64-.02-.64.98,0,1,2.89.1,5.78.2,8.67.3l-.13-.98c-5.1,1.85-9.02,6.4-10.02,11.75l.98.13c.25-6.16,5.33-11.1,11.48-11.23.55-.01.69-.84.13-.98-2.98-.75-6.1.48-8.21,2.62-2.34,2.38-3.41,5.69-4.01,8.9-.12.62.82.9.96.27l1.26-5.36-.96-.27c-.46,3.13-.33,6.29.4,9.37l.96-.27c-1.1-3.29-1.71-6.7-1.8-10.17-.01-.55-.85-.7-.98-.13-1.47,6.29,2.11,12.11,6.49,16.31l.49-.84c-4.11-.8-8.39.3-11.61,2.97l.71.71c1.53-1.32,3.3-2.29,5.22-2.89.61-.19.36-1.14-.27-.96-2.7.74-5.18,2.06-7.32,3.86l.71.71,3.45-3.16-.71-.71c-2.94,2.88-5.31,6.29-7,10.05l.86.5c1.92-4.51,4.34-8.79,7.21-12.77.38-.53-.48-1-.86-.5-3.96,5.14-6.81,11.08-8.36,17.38-.15.62.81.89.96.27.51-2.07,1.01-4.13,1.52-6.2.15-.62-.79-.89-.96-.27-.82,2.87-1.77,5.7-2.85,8.49l.98.13c-.13-2.4-.25-4.79-.38-7.19h-1c.37,3.59.2,7.2-.53,10.74-.13.64.72.85.96.27,1.92-4.68,2.1-9.97.53-14.78-.17-.53-.97-.45-.98.13-.04,2.82.3,5.63,1.01,8.36.16.63,1.07.36.96-.27-.63-3.6-1.57-7.13-2.83-10.55-.22-.6-1.1-.37-.96.27.54,2.63,1.36,5.18,2.43,7.64.2.46.96.22.93-.25-.32-4.75-3.71-8.4-6.91-11.6l-.71.71,1.93,1.7c.49.43,1.12-.22.71-.71l-1.31-1.53c-.36-.43-1.12.14-.79.61,1.61,2.23,3.23,4.46,4.84,6.69.37.51,1.21.05.86-.5-1.39-2.26-2.78-4.53-4.17-6.79-.34-.55-1.18-.06-.86.5,1.37,2.41,2.87,4.74,4.49,6.98.37.51,1.18.07.86-.5-1.66-3.01-3.31-6.02-4.97-9.03l-.86.5c1.56,2.57,3.45,4.92,5.62,7,.29.28.9.1.85-.35-.23-2.41-2.59-3.64-4.52-4.62-2.47-1.25-5.06-2.25-7.73-2.98l-.13.98c2.03.04,3.97.6,5.71,1.65l.39-.91c-2.05-.55-4.05-1.26-5.98-2.14l-.39.91c2.05.51,4.03,1.23,5.92,2.18l.5-.86-7.31-3.44-.39.91c2.09.37,4.13.94,6.11,1.69l.13-.98c-4.25-.34-8.52-.36-12.77-.07v1l5.24-.36c.64-.04.65-1.04,0-1-1.84.11-3.68-.01-5.49-.37v.96c2.52-.44,5.02-.96,7.51-1.56.56-.13.42-.97-.13-.98-2.46-.07-4.91.3-7.25,1.08-.54.18-.44.95.13.98,2.64.14,5.28.12,7.92-.05.64-.04.65-1.02,0-1-2.59.07-5.18.14-7.77.21v1c3-.3,6.01-.41,9.02-.32v-1c-4.16-.04-8.3.5-12.31,1.6l.49.84c2.06-1.74,4.26-3.3,6.59-4.65.56-.33.06-1.17-.5-.86-3.1,1.66-6.08,3.51-8.95,5.55-.53.38-.08,1.12.5.86,1.48-.65,2.92-1.4,4.3-2.24.69-.42,1.37-.86,2.03-1.33.3-.21.6-.43.89-.65.15-.11.87-.79,1.01-.75l-.3-.23.04.07-.05-.39.29-.18.43.25-.03-.06v.5c2.3-3.08,4.61-6.16,6.91-9.25.34-.46-.4-1.02-.79-.61-1.95,2.1-3.91,4.2-5.86,6.3-.44.47.24,1.15.71.71,1.76-1.66,3.53-3.32,5.29-4.98l-.71-.71c-2.59,2.85-5.43,5.46-8.49,7.8l.61.79c2.61-2.21,5.23-4.42,7.84-6.63l-.71-.71c-2.33,2.49-4.66,4.98-7,7.47-.44.47.26,1.17.71.71,2.68-2.82,5.56-5.44,8.61-7.86l-.79-.61c-2.01,3.22-4.6,6.05-7.65,8.31l.68.68c2.37-3.28,5.05-6.32,8.01-9.07l-.71-.71c-1.71,2.01-3.25,4.15-4.59,6.42-.33.56.52,1.04.86.5,2.58-4.02,4.31-8.54,5.05-13.26.08-.52-.63-.93-.91-.39-2.14,4.14-3.11,8.81-2.78,13.46.04.54.83.7.98.13,1.27-4.64,1.99-9.41,2.15-14.22.02-.57-.83-.67-.98-.13-1.34,4.57-2.68,9.25-2.38,14.06.03.55.82.7.98.13,1.26-4.48,2.52-8.95,3.78-13.43.18-.63-.75-.87-.96-.27-1.27,3.62-1.75,7.48-1.41,11.3.04.45.51.64.85.35.97-.81,1.15-2.09,1.22-3.28.09-1.69.07-3.39-.05-5.09-.22-3.31-.83-6.59-1.78-9.77-.16-.55-.96-.43-.98.13-.21,5.05.44,10.11,1.92,14.95.16.51,1.05.45.98-.13-.7-5.6-1.66-11.17-2.9-16.68-.12-.54-1.03-.43-.98.13.51,5.48,1.7,10.88,3.56,16.06.22.61,1.08.37.96-.27-.93-5.15-1.85-10.3-2.78-15.44-.1-.55-1.05-.43-.98.13.66,5.78,1.72,11.51,3.19,17.13.14.53,1.05.44.98-.13-.71-5.62-1.75-11.19-3.13-16.68-.16-.63-1.08-.36-.96.27.94,4.95,1.94,10.02,4.73,14.31.25.39.97.27.93-.25-.44-6.52-3.31-12.47-6.14-18.25-.29-.58-1.13-.07-.86.5,1.6,3.4,3.4,6.7,5.41,9.88.34.54,1.17.06.86-.5-2.34-4.26-4.67-8.51-7.01-12.77-.27-.49-1.11-.16-.91.39,1.84,5.06,4.2,9.93,7.03,14.51.34.55,1.14.07.86-.5-2.19-4.54-4.38-9.08-6.57-13.63-.28-.59-1.11-.07-.86.5,1.85,4.34,4.35,8.36,7.4,11.96.37.43,1.09-.13.79-.61-3.62-5.73-7.04-11.57-10.26-17.53-.31-.57-1.16-.07-.86.5,2.93,5.69,6.42,11.08,10.4,16.09.35.44,1.13-.15.79-.61-3.12-4.1-6.04-8.34-8.76-12.71-.34-.55-1.21-.04-.86.5h0Z"/>
    <path class="cls-2" d="M47.9,40.15c2.73,4.04,6.06,7.64,9.9,10.64.49.39,1.16-.22.71-.71-3.58-3.82-7.57-7.55-10.07-12.21l-.79.61c2.39,2.17,4.72,4.42,6.98,6.73l.61-.79c-1.89-1.45-3.75-2.95-5.57-4.5l-.35.85c3.06.32,5.79,1.89,8.75,2.61,2.48.6,5.27.64,7.43-.9.36-.26.29-.98-.25-.93-2.76.23-5.53.25-8.29.07l.13.98c1.64-.62,3.48-.15,5.19-.33,1.55-.16,3.06-.57,4.48-1.21s2.76-1.52,3.92-2.59c.56-.52,1.08-1.09,1.55-1.69.44-.56.86-1.6,1.56-1.83l-.62-.62c-.69,2.25-1.35,4.51-1.44,6.88s.19,4.78.5,7.13c.63,4.7,1.73,9.33,3.29,13.82l.91-.39c-2.23-3.73-3.56-7.94-3.85-12.28l-.93.25c1.61,2.97,2.86,6.1,4.1,9.24l.91-.39c-2.04-4-3.74-8.16-5.08-12.44l-.91.39c1.78,3.09,3.55,6.18,5.33,9.27l.86-.5c-1.36-2.14-2.64-4.33-3.84-6.56l-.79.61c1.08,1.31,2.02,2.73,2.81,4.24.39.75.75,1.52,1.06,2.3.16.4.3.8.44,1.2.05.15.25.98.37.95l.49.13c-1.11-1.04-1.65-2.61-2.21-3.99-.6-1.49-1.13-3.01-1.59-4.56l-.91.39c1.38,2.39,2.43,4.94,3.13,7.61l.96-.27c-1.27-3.62-2.55-7.23-3.82-10.85l-.91.39c1.66,3.43,3.31,6.86,4.97,10.29l.86-.5c-1.11-1.92-2.03-3.92-2.76-6.02l-.91.39c1.15,2.04,2.31,4.07,3.46,6.11l.86-.5c-.91-1.47-1.69-3.01-2.33-4.62l-.84.49c.9,1.13,1.71,2.33,2.44,3.57l.86-.5c-.62-.93-1.17-1.9-1.66-2.91l-.79.61c.93,1.14,1.98,2.15,3.15,3.05.4.31.94-.29.68-.68-.65-1.02-1.48-1.87-2.47-2.56l-.5.86c2.15,1.4,4.94,2.93,7.41,1.32.33-.22.31-.64,0-.86-.94-.67-2.13-.74-3.25-.84-1.29-.11-2.59-.15-3.89-.23-2.56-.15-5.17-.45-7.48-1.64-.57-.29-1.08.57-.5.86,2.22,1.14,4.66,1.53,7.12,1.72,1.26.09,2.52.14,3.78.22s2.68.03,3.71.77v-.86c-2.14,1.39-4.57-.12-6.4-1.32-.54-.36-1.03.5-.5.86.85.59,1.55,1.33,2.11,2.2l.68-.68c-1.09-.84-2.07-1.82-2.94-2.89-.38-.47-1.02.13-.79.61.48,1.01,1.04,1.97,1.66,2.91.35.53,1.19.06.86-.5-.78-1.32-1.65-2.58-2.6-3.78-.3-.38-1.02.03-.84.49.67,1.69,1.48,3.31,2.43,4.86.34.55,1.18.06.86-.5-1.15-2.04-2.31-4.07-3.46-6.11-.27-.48-1.1-.16-.91.39.75,2.17,1.71,4.27,2.86,6.26.33.56,1.14.07.86-.5-1.66-3.43-3.31-6.86-4.97-10.29-.24-.51-1.1-.15-.91.39,1.27,3.62,2.55,7.23,3.82,10.85.21.6,1.13.36.96-.27-.72-2.75-1.81-5.39-3.23-7.84-.28-.48-1.08-.17-.91.39.62,2.07,1.37,4.1,2.24,6.09.25.57,2.12,4.47,2.88,2.53.28-.7-.22-1.64-.45-2.29-.33-.91-.71-1.8-1.14-2.66-.87-1.76-1.96-3.4-3.21-4.91-.37-.45-1.04.12-.79.61,1.2,2.23,2.49,4.42,3.84,6.56.34.54,1.19.06.86-.5-1.78-3.09-3.55-6.18-5.33-9.27-.28-.48-1.09-.16-.91.39,1.36,4.37,3.1,8.61,5.18,12.68.25.5,1.12.15.91-.39-1.27-3.22-2.54-6.44-4.2-9.48-.23-.42-.97-.25-.93.25.3,4.52,1.66,8.9,3.99,12.78.28.47,1.11.17.91-.39-1.51-4.35-2.6-8.84-3.23-13.4-.32-2.28-.58-4.62-.54-6.93s.71-4.68,1.41-6.97c.11-.35-.26-.73-.62-.62-.73.24-1.12.8-1.53,1.41-.44.66-.93,1.27-1.47,1.83-1.13,1.16-2.46,2.11-3.92,2.81s-3.08,1.15-4.7,1.27-3.45-.29-5.07.33c-.52.2-.45.94.13.98,2.76.18,5.53.16,8.29-.07l-.25-.93c-2.17,1.54-4.98,1.31-7.42.59-2.77-.81-5.36-2.14-8.26-2.44-.42-.04-.67.58-.35.85,1.88,1.6,3.81,3.15,5.77,4.66.46.35.99-.39.61-.79-2.26-2.31-4.59-4.56-6.98-6.73-.42-.38-1.06.1-.79.61,2.55,4.73,6.59,8.53,10.23,12.41l.71-.71c-3.77-2.95-7.06-6.47-9.74-10.44-.36-.53-1.22-.03-.86.5h0Z"/>
    <path class="cls-2" d="M52.39,65.43l-3.84,6.17.79-.1c-.54-.62-.07-1.61.14-2.29.24-.78.43-1.59.19-2.39-.08-.29-.46-.49-.73-.3-1.73,1.24-2.78,3.19-2.79,5.33,0,.45.54.64.85.35,1.57-1.44,2.63-3.33,3.02-5.42.08-.43-.5-.92-.84-.49-1.19,1.52-1.76,3.4-1.54,5.33.05.46.67.72.93.25.73-1.29,1.06-2.74.94-4.22-.05-.54-.83-.71-.98-.13-.29,1.08-.31,2.22.02,3.3.19.64.66,1.75,1.54,1.35.74-.34.79-1.79.87-2.47.15-1.22.1-2.43-.1-3.63-.08-.48-.88-.47-.96,0-.47,2.59.17,5.19,1.78,7.26.24.31.75.11.84-.22.67-2.43.04-5.03-1.63-6.91-.31-.35-.82-.05-.85.35-.11,1.41.07,2.84.57,4.17.25.65.55,1.28.93,1.86.28.44.66,1.13,1.21,1.27,1.39.35,1.06-1.76.96-2.45-.23-1.5-.79-2.93-1.59-4.21-.26-.41-.94-.26-.93.25.04,2.61.98,5.08,2.67,7.07.3.35.83.04.85-.35.2-3.32-.37-6.65-1.66-9.72-.2-.49-.98-.48-.98.13,0,3.8.67,7.57,1.99,11.14.18.48,1.05.47.98-.13-.43-3.65-1.57-7.16-3.41-10.35-.24-.42-.96-.25-.93.25.16,3.04,1.21,5.96,3.04,8.39.34.45,1.01.19.91-.39-.49-2.85-1.39-5.6-2.67-8.18-.25-.51-1.08-.15-.91.39,1.31,4.15,3.47,7.97,6.36,11.22.32.36,1.02-.02.84-.49-1.12-2.83-2.94-5.54-5.37-7.41-.45-.35-1.04-.66-1.63-.49-.65.19-.9.83-1,1.44-.22,1.31,0,3.07,1.66,3.15.3.01.47-.24.5-.5.22-1.65-.32-3.28-1.42-4.52-.37-.42-1.1.13-.79.61,2.54,3.81,5.48,7.35,8.76,10.55.39.38,1.14-.14.79-.61-1.56-2.04-3.11-4.07-4.67-6.11l-.79.61c2.61,2.79,5.01,5.78,7.16,8.94.22.33.82.33.91-.12l.21-1.06-.91.12c.8,1.8,1.13,3.75,1.02,5.71l.98-.13c-.66-2.93-.65-5.95.04-8.88h-.96c.47,2.88.62,5.8.48,8.71h1c.05-3.53,1.06-6.96,2.92-9.95l-.93-.25c-.3,3.14-.98,6.23-2.02,9.21l.96.27c.92-3.79,2.48-7.38,4.61-10.64l-.86-.5c-1.35,2.63-2.69,5.25-4.04,7.88l.86.5c1.8-3.95,3.94-7.72,6.41-11.28l-.91-.39c-.49,1.77-1.11,3.49-1.86,5.16-.26.58.59,1.09.86.5.88-1.85,1.9-3.63,3.05-5.33l-.93-.25c-.07,1.03-.38,1.98-.91,2.85l.93.25c.28-2.17,1.01-4.26,2.12-6.15l-.91-.39c-.7,2.23-1.52,4.42-2.49,6.55l.91.39c.34-2.08,1.06-4.05,2.15-5.85l-.91-.39c-.38,2.28-1.09,4.48-2.12,6.55l.93.25c0-1.53.49-2.95,1.42-4.16l-.93-.25c-.14,1.44-.55,2.83-1.21,4.12l.93.25c.13-1.34.84-2.58,1.93-3.37l-.75-.43c0,1.07-.25,2.51-1.01,3.33-.09.11-.21.2-.34.26.04.15.12.16.23.01.3-.04.55-.12.87-.13.69,0,1.37.05,2.05.16l.13-.98c-.89.01-1.79.02-2.68.03v1c1.5-.03,3.01-.06,4.51-.09v-1c-.87.02-1.66-.18-2.42-.61l-.39.91,3.81.74c.63.12.9-.82.27-.96-2.74-.61-5.01-2.66-5.85-5.35l-.84.49c1.75,1.51,3.25,3.26,4.46,5.23l.86-.5c-1.13-1.63-2.09-3.37-2.89-5.18l-.79.61c1.05,1.15,1.89,2.44,2.53,3.85.27.59,1.13.08.86-.5-.49-1.09-.98-2.19-1.47-3.28l-.86.5,2.07,2.88c.37.52,1.23.03.86-.5l-1.16-1.65c-.36-.52-1.21-.05-.86.5.61.99,1.15,2.02,1.59,3.1l.84-.49c-.77-.69-1.4-1.47-1.91-2.37l-.86.5c.58.97,1.3,1.83,2.14,2.58.41.37,1.08-.1.79-.61-1.58-2.76-3.35-5.41-5.28-7.94-.38-.5-1.23-.05-.86.5,1.09,1.67,2.19,3.33,3.28,5,.29.45,1.12.17.91-.39-1.48-4.01-2.59-8.15-3.31-12.37l-.96.27c.91,2.38,1.61,4.82,2.07,7.33l.96-.27c-1.4-4.66-2.25-9.47-2.51-14.33l-.98.13c.81,3.44,1.5,6.9,2.08,10.39l.96-.27c-.49-2.94-.7-5.91-.62-8.89l-.98.13,1.29,3.39c.29.75.51,1.88,1.41,2.13.83.23,1.92-.24,2.67-.56.94-.4,1.78-.97,2.53-1.67.35-.33.04-.8-.35-.85-1.83-.24-3.67.74-4.53,2.36-.27.5.36,1,.79.61.72-.68,1.45-1.35,2.17-2.03l-.71-.71c-1.46,1.61-2.91,3.23-4.37,4.84-.09.09-.37.54-.51.57-.15.03-.16-.11-.18-.26-.08-.48,0-1.03.01-1.53.02-1.09,0-2.18-.03-3.27-.14-4.2-.77-8.28-1.53-12.4-.38-2.07-.65-4.33.48-6.21l-.91-.39c-.72,4.62-.96,9.3-.72,13.97.03.53.88.72.98.13.74-4.33.4-8.71.03-13.06-.05-.64-.96-.65-1,0-.28,4.98-.7,9.95-1.27,14.9l.98-.13c-1.23-3.94.37-8.05.05-12.06-.03-.38-.4-.62-.75-.43-2.05,1.1-4.09,2.21-6.14,3.31l.5.86c2.23-1.47,4.34-3.13,6.3-4.95.39-.36-.03-.93-.49-.84-1.75.35-3.23,1.33-4.3,2.74-.28.37.18.83.56.73,1.35-.33,2.56-.98,3.58-1.92.48-.44-.22-1.12-.71-.71-2.01,1.72-4.02,3.45-6.02,5.17l-1.51,1.29c-.46.39-.96,1-1.5,1.28-.6.31-.82-.63-.95-1.03-.15-.44-.32-.83-.64-1.17-.29-.31-.88-.08-.85.35.05.81.04,1.62-.04,2.43l.85-.35c-1.17-1.29-2.33-2.58-3.5-3.87-.34-.38-.96.02-.84.49.75,2.79,1.75,5.49,2.98,8.1l.86-.5c-1.23-2.59-2.45-5.18-3.68-7.77-.25-.52-1.06-.15-.91.39.99,3.64,2.08,7.25,3.28,10.82.2.61,1.11.36.96-.27-1.04-4.43-2.08-8.86-3.13-13.29l-.73.56c2.85,1.32,5.82,2.32,8.89,2.97l.27-.96c-2.87-.45-5.73-1.01-8.56-1.67l-.13.98c3.93-.17,7.57,1.86,11.51,1.66.64-.03.65-1,0-1-2.46,0-4.91.19-7.34.55l.27.96c1.39-.58,2.78-1.16,4.17-1.74.57-.24.36-1.17-.27-.96-1.05.34-2.11.68-3.16,1.02-.31.1-2.22.94-2.42.37l-.91.39c1.24,2.68,2.09,5.53,2.53,8.45l.96-.27c-.98-2.46-1.89-4.94-2.74-7.45l-.96.27c1.36,3.94,2.73,7.88,4.09,11.82.21.6,1.12.36.96-.27-.95-3.76-1.9-7.51-2.84-11.27-.16-.63-1.1-.36-.96.27,1.04,4.88,2.2,9.74,3.5,14.56.17.62,1.12.36.96-.27-1.02-4.19-2.05-8.39-3.07-12.58-.13-.54-1.02-.44-.98.13.39,6.55.77,13.1,1.16,19.65l.98-.13c-1.17-5.07-2.15-10.19-2.94-15.34l-.96.27c.76,4.21,1.24,8.46,1.44,12.73l.98-.13c-1.25-3.28-2.31-6.63-3.18-10.03-.16-.62-1.11-.36-.96.27.85,3.6,1.86,7.15,3.03,10.65.2.61,1.14.36.96-.27-.88-3.13-1.77-6.27-2.65-9.4-.15-.53-1-.44-.98.13.14,3.53.68,7.02,1.63,10.42l.96-.27c-1.25-3.97-2.5-7.98-2.73-12.16l-.93.25c.9,1.86,1.59,3.8,2.06,5.81.15.63,1.11.36.96-.27-.5-2.21-1-4.41-1.5-6.62-.12-.54-1.05-.43-.98.13.21,1.61.48,3.21.85,4.8l.96-.27c-.51-1.9-.91-3.83-1.19-5.78l-.96.27,1.64,5.58c.18.62,1.12.36.96-.27-.2-.79-.67-1.41-1.37-1.82-.32-.19-.76.05-.75.43.1,3.74.69,7.46,1.77,11.04l.84-.49-1.69-1.89c-.33-.37-1,.02-.84.49.77,2.23,1.78,4.36,3.03,6.35.35.56,1.12.07.86-.5-.72-1.64-1.6-3.19-2.65-4.64-.34-.47-1-.18-.91.39.35,2.21,1.29,4.24,2.7,5.97.32.4.97-.03.84-.49-.99-3.43-1.98-6.87-2.97-10.3-.17-.57-.92-.4-.98.13-.41,3.61,1.03,7.04,2.43,10.29.23.54,1.04.14.91-.39-.65-2.83-1.3-5.66-1.96-8.49l-.96.27c.7,2.97,1.57,5.9,2.6,8.78l.91-.39-1.01-2.07-.86.5c1.08,2.11,2.36,4.1,3.82,5.96.35.45,1.08-.13.79-.61-.78-1.26-1.67-2.45-2.65-3.57-.43-.49-1.11.22-.71.71,1.47,1.78,2.93,3.55,4.4,5.33.33.4.96-.03.84-.49-.78-2.81-1.74-5.57-2.88-8.25l-.86.5c1.13,2.39,2.39,4.72,3.76,6.98.28.46,1.14.16.91-.39-.83-2.04-1.8-4.01-2.94-5.9-.3-.5-1.02-.16-.91.39.45,2.21,1.34,4.3,2.62,6.16.3.43,1.13.18.91-.39-1.11-2.87-2.45-5.63-4.04-8.26-.31-.52-.99-.15-.91.39.3,2.12.87,4.18,1.7,6.15.24.57,1.18.36.96-.27-.9-2.66-1.89-5.3-2.96-7.9-.24-.58-1.12-.38-.96.27.47,2.02.95,4.04,1.42,6.07l.96-.27c-.68-2.36-1.37-4.73-2.05-7.09-.15-.53-.99-.44-.98.13.04,2.24.39,4.45,1.07,6.58.2.63,1.06.36.96-.27-.21-1.42-.42-2.84-.63-4.26l-.96.27c.15.9.59,1.69,1.26,2.3.33.3.83.08.85-.35.1-1.85.14-3.71.1-5.56h-1c.1,1.86.2,3.72.31,5.57l.98-.13-1.01-3.61c-.15-.54-1-.44-.98.13.05,2.17.64,4.26,1.73,6.13.26.45.9.23.93-.25.17-2.44.52-4.85,1.06-7.23h-.96c.41,1.24.45,2.52.11,3.78l.98.13c-.21-2.37-.16-4.74.16-7.1h-1c-.2,3.22.02,6.44.65,9.61.08.42.72.48.91.12.45-.83.77-1.69.96-2.61l-.98-.13c-.03,1.65,0,3.3.1,4.95.03.54.85.71.98.13.46-1.96.91-3.91,1.37-5.87l-.98-.13c-.24,2.46-.48,4.92-.71,7.37-.06.58.82.65.98.13.83-2.63,1.65-5.26,2.48-7.89l-.96-.27c-.26,1.57-.52,3.15-.77,4.72-.12.73-.27,1.46-.35,2.19-.06.53.03.94.47,1.26.29.22.62-.04.73-.3,1.18-2.82,2.37-5.64,3.55-8.45l-.96-.27c-1.14,3.58-2.14,7.2-2.99,10.86-.15.64.72.85.96.27,1.25-3,2.57-5.97,3.98-8.9l-.91-.39c-1.24,2.97-2.33,6-3.25,9.09-.16.53.68.91.91.39,1.32-3.02,2.81-5.95,4.49-8.78l-.91-.39c-.49,1.84-1.11,3.64-1.87,5.39l.91.39c1.2-2.93,2.55-5.81,4.02-8.62l-.86-.5c-.92,1.93-1.85,3.86-2.77,5.79l.91.39c.46-1.6,1.06-3.15,1.81-4.64l-.91-.39c-.43,1.5-.95,2.97-1.55,4.41l.96.27c.79-2.21,1.4-4.47,1.82-6.78.12-.63-.85-.9-.96-.27-.42,2.31-1.03,4.57-1.82,6.78-.22.62.72.84.96.27.6-1.44,1.12-2.91,1.55-4.41.15-.53-.65-.9-.91-.39-.79,1.57-1.43,3.2-1.92,4.88-.15.53.66.91.91.39.92-1.93,1.85-3.86,2.77-5.79.27-.57-.56-1.08-.86-.5-1.51,2.89-2.89,5.84-4.12,8.85-.21.52.69.9.91.39.8-1.83,1.46-3.7,1.97-5.63.15-.55-.62-.88-.91-.39-1.68,2.83-3.18,5.76-4.49,8.78l.91.39c.92-3.08,2.01-6.12,3.25-9.09.22-.52-.67-.89-.91-.39-1.44,3.01-2.8,6.06-4.08,9.14l.96.27c.85-3.66,1.84-7.28,2.99-10.86.2-.63-.72-.84-.96-.27-1.18,2.82-2.37,5.64-3.55,8.45l.73-.3c-.16-.12.21-1.51.25-1.72l.28-1.69.59-3.63c.1-.62-.77-.89-.96-.27-.83,2.63-1.65,5.26-2.48,7.89l.98.13c.24-2.46.48-4.92.71-7.37.05-.56-.86-.68-.98-.13-.46,1.96-.91,3.91-1.37,5.87l.98.13c-.1-1.65-.13-3.3-.1-4.95.01-.55-.87-.69-.98-.13-.17.84-.45,1.62-.86,2.38l.91.12c-.61-3.08-.81-6.21-.61-9.34.04-.66-.92-.62-1,0-.31,2.36-.36,4.73-.16,7.1.05.54.83.71.98.13.38-1.43.35-2.91-.11-4.31-.15-.44-.85-.51-.96,0-.56,2.47-.93,4.97-1.1,7.49l.93-.25c-1-1.72-1.55-3.63-1.59-5.62l-.98.13,1.01,3.61c.15.53,1.01.44.98-.13-.1-1.86-.2-3.72-.31-5.57-.03-.64-1.01-.65-1,0,.04,1.85,0,3.71-.1,5.56l.85-.35c-.56-.51-.88-1.11-1.01-1.85-.11-.64-1.06-.36-.96.27.21,1.42.42,2.84.63,4.26l.96-.27c-.65-2.05-1-4.16-1.03-6.32l-.98.13c.68,2.36,1.37,4.73,2.05,7.09.18.62,1.11.36.96-.27-.47-2.02-.95-4.04-1.42-6.07l-.96.27c1.07,2.6,2.06,5.24,2.96,7.9l.96-.27c-.83-1.97-1.4-4.03-1.7-6.15l-.91.39c1.54,2.56,2.86,5.24,3.94,8.03l.91-.39c-1.24-1.79-2.09-3.78-2.52-5.92l-.91.39c1.09,1.81,2.04,3.7,2.84,5.66l.91-.39c-1.38-2.26-2.63-4.59-3.76-6.98-.28-.59-1.11-.07-.86.5,1.11,2.61,2.03,5.28,2.78,8.01l.84-.49c-1.47-1.78-2.93-3.55-4.4-5.33l-.71.71c.93,1.05,1.75,2.18,2.5,3.37l.79-.61c-1.41-1.79-2.63-3.73-3.67-5.76-.29-.58-1.14-.07-.86.5l1.01,2.07c.25.5,1.11.15.91-.39-1.04-2.87-1.9-5.8-2.6-8.78-.15-.63-1.11-.36-.96.27.65,2.83,1.3,5.66,1.96,8.49l.91-.39c-1.34-3.09-2.69-6.34-2.3-9.78l-.98.13c.99,3.43,1.98,6.87,2.97,10.3l.84-.49c-1.3-1.6-2.12-3.5-2.44-5.53l-.91.39c1.04,1.46,1.92,3.01,2.65,4.64l.86-.5c-1.2-1.93-2.18-3.97-2.92-6.12l-.84.49,1.69,1.89c.33.38.98-.02.84-.49-1.06-3.5-1.64-7.12-1.74-10.78l-.75.43c.48.29.77.68.91,1.23l.96-.27-1.64-5.58c-.19-.63-1.06-.35-.96.27.29,1.95.68,3.88,1.19,5.78.17.62,1.11.36.96-.27-.34-1.5-.62-3.01-.81-4.53l-.98.13c.5,2.21,1,4.41,1.5,6.62l.96-.27c-.49-2.09-1.22-4.11-2.16-6.05-.22-.44-.96-.23-.93.25.24,4.27,1.49,8.37,2.77,12.43.19.61,1.14.36.96-.27-.92-3.32-1.46-6.72-1.6-10.16l-.98.13c.88,3.13,1.77,6.27,2.65,9.4l.96-.27c-1.17-3.5-2.19-7.06-3.03-10.65l-.96.27c.87,3.4,1.93,6.75,3.18,10.03.19.49,1.01.47.98-.13-.2-4.36-.69-8.7-1.47-13-.12-.64-1.06-.36-.96.27.79,5.15,1.77,10.26,2.94,15.34.13.54,1.02.43.98-.13-.39-6.55-.77-13.1-1.16-19.65l-.98.13c1.02,4.19,2.05,8.39,3.07,12.58l.96-.27c-1.3-4.82-2.46-9.67-3.5-14.56l-.96.27c.95,3.76,1.9,7.51,2.84,11.27l.96-.27c-1.36-3.94-2.73-7.88-4.09-11.82-.21-.6-1.17-.35-.96.27.85,2.51,1.76,4.99,2.74,7.45.24.6,1.06.37.96-.27-.46-3.01-1.36-5.92-2.64-8.69-.24-.51-1.1-.15-.91.39.35.98,1.42,1.01,2.29.77,1.52-.42,3.02-.97,4.52-1.45l-.27-.96c-1.39.58-2.78,1.16-4.17,1.74-.6.25-.38,1.06.27.96,2.34-.34,4.71-.51,7.08-.51v-1c-3.93.2-7.58-1.83-11.51-1.66-.54.02-.7.85-.13.98,2.83.66,5.68,1.22,8.56,1.67.62.1.91-.83.27-.96-2.98-.63-5.89-1.59-8.66-2.87-.39-.18-.84.12-.73.56,1.04,4.43,2.08,8.86,3.13,13.29l.96-.27c-1.2-3.57-2.29-7.18-3.28-10.82l-.91.39c1.23,2.59,2.45,5.18,3.68,7.77.28.58,1.14.07.86-.5-1.19-2.53-2.15-5.16-2.88-7.87l-.84.49c1.17,1.29,2.33,2.58,3.5,3.87.32.35.82.05.85-.35.07-.81.09-1.62.04-2.43l-.85.35c.72.78.5,2.21,1.77,2.54.52.13.95-.11,1.34-.43.6-.49,1.18-1.01,1.76-1.51,2.38-2.05,4.77-4.1,7.15-6.14l-.71-.71c-.9.82-1.95,1.38-3.14,1.67l.56.73c.91-1.21,2.23-1.99,3.7-2.28l-.49-.84c-1.9,1.77-3.93,3.37-6.1,4.79-.54.35-.07,1.17.5.86,2.05-1.1,4.09-2.21,6.14-3.31l-.75-.43c.33,4.11-1.28,8.28-.01,12.33.18.57.92.41.98-.13.57-4.95,1-9.92,1.27-14.9h-1c.36,4.25.72,8.56,0,12.8l.98.13c-.24-4.58-.02-9.17.68-13.7.08-.53-.6-.9-.91-.39-1.07,1.78-1.06,3.85-.77,5.85.34,2.38.9,4.71,1.2,7.1s.48,4.99.52,7.5c.02,1.15-.15,2.37-.01,3.51.08.67.5,1.45,1.29,1.28.48-.1.8-.58,1.11-.92l1.4-1.55c.99-1.1,1.98-2.19,2.97-3.29.43-.48-.23-1.15-.71-.71-.72.68-1.45,1.35-2.17,2.03l.79.61c.71-1.35,2.16-2.07,3.67-1.87l-.35-.85c-.58.54-1.23.99-1.95,1.34-.37.18-.75.32-1.14.44-.29.08-.84.31-1.14.19-.32-.13-.44-.7-.54-.98l-.51-1.36-.94-2.49c-.19-.51-.97-.46-.98.13-.07,3.07.15,6.13.66,9.16.11.63,1.07.36.96-.27-.57-3.49-1.26-6.95-2.08-10.39-.13-.54-1.01-.43-.98.13.27,4.95,1.12,9.85,2.55,14.59.19.62,1.08.36.96-.27-.46-2.5-1.16-4.95-2.07-7.33-.23-.6-1.07-.37-.96.27.72,4.22,1.83,8.36,3.31,12.37l.91-.39c-1.09-1.67-2.19-3.33-3.28-5l-.86.5c1.93,2.53,3.7,5.18,5.28,7.94l.79-.61c-.78-.7-1.44-1.48-1.98-2.38-.33-.55-1.18-.06-.86.5.55.97,1.24,1.83,2.07,2.57.33.3,1.04.01.84-.49-.47-1.16-1.03-2.27-1.69-3.34l-.86.5,1.16,1.65.86-.5-2.07-2.88c-.38-.53-1.13-.08-.86.5.49,1.09.98,2.19,1.47,3.28l.86-.5c-.68-1.49-1.58-2.84-2.68-4.05-.41-.45-1,.12-.79.61.8,1.82,1.77,3.55,2.89,5.18.36.52,1.21.05.86-.5-1.26-2.04-2.81-3.87-4.62-5.43-.35-.31-.99-.02-.84.49.94,3.01,3.47,5.36,6.55,6.05l.27-.96-3.81-.74c-.53-.1-.9.62-.39.91.9.52,1.88.77,2.93.75.64-.02.64-1.01,0-1-1.5.03-3.01.06-4.51.09-.64.01-.65,1.01,0,1,.89-.01,1.79-.02,2.68-.03.54,0,.71-.89.13-.98-1.06-.17-2.51-.46-3.54,0-.7.31-1.26,1.27-.41,1.8s1.68-.46,2.04-1.11c.58-1.03.85-2.18.85-3.36,0-.35-.44-.66-.75-.43-1.4,1.02-2.26,2.51-2.42,4.23-.05.5.71.68.93.25.74-1.46,1.19-3,1.34-4.63.05-.56-.67-.59-.93-.25-1.03,1.34-1.56,2.97-1.56,4.66,0,.47.7.71.93.25,1.07-2.14,1.83-4.42,2.22-6.78.09-.54-.6-.9-.91-.39-1.13,1.87-1.9,3.93-2.25,6.09-.08.51.66.95.91.39,1-2.21,1.87-4.47,2.59-6.78.17-.55-.63-.87-.91-.39-1.2,2.05-1.94,4.3-2.25,6.65-.07.52.7.64.93.25.63-1.03.97-2.16,1.05-3.36.04-.53-.67-.63-.93-.25-1.15,1.7-2.17,3.47-3.05,5.33l.86.5c.79-1.75,1.44-3.55,1.96-5.4.16-.57-.6-.84-.91-.39-2.47,3.56-4.62,7.34-6.41,11.28-.26.58.57,1.09.86.5,1.35-2.63,2.69-5.25,4.04-7.88.29-.57-.51-1.04-.86-.5-2.18,3.33-3.77,7.02-4.72,10.88-.15.63.75.87.96.27,1.07-3.07,1.75-6.24,2.06-9.47.05-.52-.69-.64-.93-.25-1.95,3.14-3,6.76-3.05,10.46,0,.65.97.64,1,0,.15-3.01-.03-6.01-.51-8.98-.08-.49-.86-.46-.96,0-.73,3.1-.74,6.3-.04,9.41.13.57.95.41.98-.13.13-2.15-.28-4.25-1.16-6.22-.17-.39-.83-.28-.91.12l-.21,1.06.91-.12c-2.2-3.23-4.64-6.29-7.32-9.14-.38-.4-1.14.15-.79.61,1.56,2.04,3.11,4.07,4.67,6.11l.79-.61c-3.22-3.14-6.1-6.61-8.6-10.35l-.79.61c.94,1.06,1.31,2.42,1.13,3.81l.5-.5c-.72-.03-.79-.9-.75-1.45.02-.25.04-.53.12-.77.13-.4.3-.48.69-.3.81.38,1.54,1.29,2.13,1.94,1.37,1.51,2.45,3.26,3.19,5.16l.84-.49c-2.77-3.12-4.85-6.8-6.1-10.78l-.91.39c1.24,2.51,2.1,5.18,2.57,7.95l.91-.39c-1.73-2.29-2.75-5.01-2.91-7.88l-.93.25c1.75,3.03,2.87,6.37,3.28,9.85l.98-.13c-1.3-3.48-1.96-7.15-1.96-10.87l-.98.13c1.26,3,1.82,6.21,1.63,9.45l.85-.35c-1.51-1.78-2.34-4.03-2.37-6.36l-.93.25c.59.94,1.03,1.95,1.3,3.03.13.51.22,1.03.26,1.56.01.18,0,.39.03.57.17.04.18,0,.03-.12-.1-.13-.2-.26-.29-.39-1.19-1.69-1.7-3.73-1.54-5.78l-.85.35c1.43,1.61,1.94,3.86,1.37,5.94l.84-.22c-1.37-1.77-1.92-4.09-1.52-6.29h-.96c.24,1.45.21,2.95-.13,4.39-.04.15-.07.31-.12.45l.12.03-.08-.14c-.04-.33-.25-.69-.31-1.03-.14-.75-.08-1.5.12-2.23l-.98-.13c.11,1.31-.15,2.57-.8,3.71l.93.25c-.19-1.65.23-3.3,1.25-4.62l-.84-.49c-.36,1.93-1.31,3.65-2.76,4.98l.85.35c.01-1.76.86-3.44,2.3-4.47l-.73-.3c.51,1.74-1.47,3.49-.07,5.12.22.25.63.15.79-.1,1.28-2.06,2.56-4.11,3.84-6.17.34-.55-.52-1.05-.86-.5h0Z"/>
    <path class="cls-2" d="M61.07,52.33c-.51,4.98-.7,9.98-.59,14.99h2c-.18-4.44-.68-8.86-1.49-13.23-.2-1.11-2.02-.85-1.96.27.19,4.2.52,8.38.99,12.56.14,1.25,2.08,1.31,2,0-.24-4.13-.96-8.2-2.17-12.16-.32-1.04-2.04-.9-1.96.27.3,4.83.88,9.64,1.75,14.4.2,1.1,2.08.86,1.96-.27-.54-5.25-1.74-10.37-3.64-15.29-.37-.96-2.09-.95-1.96.27.47,4.47,1.25,8.89,2.35,13.25.27,1.07,2.03.88,1.96-.27-.29-5.04-1.26-10-2.94-14.76-.36-1.02-1.98-.92-1.96.27.08,5.38.99,10.7,2.7,15.81.34,1.01,2.04.92,1.96-.27-.28-4.64-1.53-9.1-3.7-13.2-.43-.81-1.56-.53-1.83.24-.42,1.19-.22,2.4-.11,3.63.12,1.37.25,2.74.37,4.11.25,2.74.5,5.48.74,8.22.11,1.27,2.11,1.29,2,0-.27-3.1-.79-6.16-1.58-9.16-.29-1.09-1.98-.87-1.96.27.04,3.2.56,6.35,1.57,9.38.23.7,1.12,1,1.67.44,1.32-1.33,1.37-3.16,1.52-4.92.2-2.38.39-4.77.58-7.16h-2c.38,2.98.75,5.97,1.35,8.92.47,2.32.88,5.25,2.83,6.84.67.55,1.67.21,1.71-.71.24-5.67-.01-11.34-.76-16.97-.16-1.23-2.05-1.33-2,0,.11,2.9.37,5.78.78,8.65.38,2.64.67,5.56,2.11,7.87.53.85,1.83.49,1.86-.5.21-5.45.41-10.9.62-16.35h-2c.25,2.86.51,5.72.76,8.58.22,2.5.24,5.09,1.37,7.38.35.72,1.71.61,1.83-.24.72-5.25.85-10.53.95-15.82.02-1.29-1.94-1.28-2,0-.24,4.99.31,9.97,1.62,14.78.21.79,1.44,1.03,1.83.24.87-1.76.97-3.64,1.12-5.57.18-2.26.35-4.51.53-6.77h-2c.44,4.1.97,8.19,1.59,12.26.15,1,1.7.9,1.93,0,.54-2.15.37-4.28.11-6.46l-1.96.27c.35,2.24.81,4.45,1.4,6.63.29,1.1,1.95.86,1.96-.27.04-2.62-.43-5.18-1.43-7.61-.44-1.07-1.82-.88-1.96.27-.2,1.57-.41,3.14-.61,4.71l-.27,2.12c-.05.39-.08.79-.15,1.18-.05.27-.12.66-.16.66l1.23.7c-.51-2.34-1.4-4.55-2.66-6.59-.36-.59-1.4-.71-1.73,0-1.61,3.47-3.1,6.99-4.46,10.56l1.96.27c.26-2.94.77-5.84,1.5-8.71l-1.96-.27c-.21,2.79-.57,5.55-1.07,8.3l1.96.27c.16-7.37,1.14-14.68,2.95-21.83l-1.96-.27c0,2.32.1,4.64.3,6.95.15,1.64.07,3.78,1.41,4.97.49.44,1.56.36,1.67-.44.6-4.4.58-8.78-.05-13.18l-1.93.53c.55,2.99,1.23,5.95,2.03,8.88.19.71,1.15,1,1.67.44,1.25-1.34.9-3.22.83-4.9-.09-2.21-.19-4.41-.28-6.62l-1.96.27c.33,2.3.65,4.61.98,6.91.16,1.14,1.95.83,1.96-.27.02-2.44-.3-4.84-.96-7.18-.3-1.06-2.01-.89-1.96.27.11,2.8.28,5.6.51,8.4.11,1.27,2.09,1.29,2,0-.3-4.19-.9-8.36-1.82-12.46-.26-1.19-1.85-.77-1.96.27-.38,3.3-.51,6.61-.39,9.93.05,1.28,2.01,1.29,2,0-.02-2.55-.29-5.08-.79-7.58-.24-1.19-1.86-.77-1.96.27-.28,2.71-.28,5.42.01,8.13.14,1.28,1.88,1.29,2,0,.28-2.87-.03-5.73-.9-8.48-.35-1.1-1.89-.86-1.96.27-.22,3.38-.08,6.75.38,10.1.16,1.15,1.93.81,1.96-.27.09-3.08-.2-6.13-.86-9.13-.2-.92-1.78-.99-1.93,0-.53,3.54-.52,7.06.05,10.59.16,1.02,1.68.89,1.93,0,.55-1.98.87-4.03.88-6.09,0-1.18.25-3.76-.92-4.53-2.95-1.95-3.68,6.38-3.57,7.77.09,1.14,1.57,1.34,1.96.27,1.26-3.42,1.85-7.02,1.76-10.67-.02-1-1.33-1.35-1.86-.5-1.45,2.3-1.9,4.97-1.36,7.63.1.49.75.89,1.23.7,1.7-.69,1.97-2.7,2.32-4.31.48-2.22.68-4.49.63-6.75-.02-1.12-1.65-1.36-1.96-.27-.75,2.59-1.27,5.22-1.62,7.89-.15,1.17,1.63,1.28,1.96.27,1.01-3.06,1.16-6.26.5-9.41-.22-1.04-1.62-.86-1.93,0-1.28,3.57-1.92,7.31-1.92,11.1,0,.92,1.45,1.45,1.86.5,1.64-3.73,2.21-7.7,2.73-11.71.15-1.14-1.67-1.32-1.96-.27-.84,3.07-1.21,6.22-1.08,9.4.04.99,1.33,1.36,1.86.5,1.78-2.88,2.37-6.2,1.79-9.52-.08-.44-.55-.72-.96-.73-1.77-.07-2.29,1.77-2.71,3.13-.7,2.29-1.4,4.57-2.1,6.86l1.93.53c1.01-3.79,1.57-7.67,1.69-11.58.03-.98-1.4-1.38-1.86-.5-1.66,3.12-2.79,6.46-3.34,9.96-.16,1.05,1.23,1.84,1.83.77,1.71-3.08,2.87-6.4,3.42-9.88.16-1.01-1.33-1.9-1.83-.77-1.36,3.08-2.08,6.32-2.07,9.69,0,.53.46,1.01,1,1,1.85-.05,2.39-1.95,2.93-3.4.81-2.22,1.47-4.48,1.99-6.78l-1.96-.27-.5,3.81c-.13,1.02,1.41,1.31,1.86.5,1.18-2.1.38-4.72,1.62-6.73l-1.73-1.01c-2.57,6.06-4.85,12.23-6.82,18.5l1.93.53c1.04-4.09,1.93-8.22,2.66-12.38.22-1.26-1.7-1.8-1.93-.53-.66,3.7-1,7.44-1,11.21,0,.5.46,1.06,1,1,1.11-.13,1.46-.87,1.64-1.9.25-1.49.34-3.01.32-4.52s-.15-2.86-.37-4.28c-.18-1.12-.43-2.08-1.58-2.49-.53-.19-1.07.22-1.23.7-.81,2.46-1.49,4.96-2.04,7.49l1.96.27c-.22-2.24-.62-4.44-1.23-6.61-.25-.9-1.74-1.01-1.93,0-.45,2.43-.59,4.86-.37,7.32.1,1.09,1.63,1.4,1.96.27.66-2.26.75-4.54.32-6.85-.21-1.14-1.94-.83-1.96.27-.06,2.41.03,4.81.28,7.21.11,1.04,1.69,1.45,1.96.27.59-2.6.5-5.24-.31-7.79-.29-.89-1.7-1.01-1.93,0-.52,2.26-.58,4.49-.22,6.78.18,1.15,1.94.82,1.96-.27.06-2.44-.3-4.83-1.08-7.14-.36-1.05-1.94-.89-1.96.27-.04,1.68.1,3.32.37,4.98.19,1.13,1.98.84,1.96-.27-.03-2.14-.49-4.14-1.35-6.1-.41-.93-1.88-.43-1.86.5.06,2.57.33,5.12.8,7.64.21,1.11,2.02.86,1.96-.27-.1-1.96-.49-3.85-1.24-5.67-.39-.95-2.05-.97-1.96.27.24,3.63.74,7.22,1.49,10.78.23,1.08,2.09.86,1.96-.27-.24-2.22-.8-4.3-1.71-6.33-.34-.76-1.34-.53-1.73,0-.8,1.08-.6,2.81-.68,4.08-.11,1.72-.22,3.45-.33,5.17l1.96-.27c-.71-2.44-1.42-4.89-2.14-7.33-.32-1.08-1.95-.87-1.96.27-.06,3.65.07,7.29.38,10.93l1.96-.27c-.26-1.71-.45-3.4-.26-5.13l-1.96.27c1.35,3.68,2.9,7.29,4.65,10.81.39.79,1.61.55,1.83-.24,1.11-4,2.21-8.01,3.32-12.01.53-1.92,1.07-3.84,1.59-5.77s.89-3.67.54-5.61c-.2-1.11-2.01-.85-1.96.27.27,5.93,2.4,11.56,2.79,17.47.09,1.4.09,2.81-.09,4.21s-.76,2.64-.85,3.97c-.06.9.24,1.81,1.03,2.32.37.24.83.37,1.27.32.19-.02,1.18-.37.83-.49l-.7-1.23c-.18,1.19-.54,2.28-1.12,3.33l1.73,1.01c.51-1,1.02-2,1.53-2.99s-.74-2.04-1.57-1.21c-.45.45-.92.76-1.5,1.02-1.17.53-.16,2.25,1.01,1.73.73-.33,1.34-.76,1.91-1.33l-1.57-1.21c-.51,1-1.02,2-1.53,2.99-.58,1.14,1.1,2.14,1.73,1.01.66-1.2,1.11-2.45,1.32-3.81.09-.57-.14-1.03-.7-1.23-.34-.12-.61-.12-.95.01-.32.13-.54.47-.71.27-.25-.29.28-1.51.36-1.84.15-.59.27-1.19.37-1.79.38-2.45.29-4.91-.04-7.36-.67-5.09-2.32-10.02-2.55-15.17l-1.96.27c.36,1.95-.36,3.89-.87,5.75l-1.53,5.53c-1.02,3.68-2.03,7.37-3.05,11.05l1.83-.24c-1.67-3.36-3.15-6.8-4.44-10.33-.4-1.09-1.84-.86-1.96.27-.21,1.91.05,3.78.33,5.66.17,1.11,2.06.86,1.96-.27-.31-3.64-.43-7.28-.38-10.93l-1.96.27c.71,2.44,1.42,4.89,2.14,7.33.32,1.11,1.89.84,1.96-.27.09-1.41.18-2.82.27-4.23.04-.63.08-1.25.12-1.88.04-.67-.07-1.57.35-2.13h-1.73c.75,1.69,1.23,3.49,1.43,5.32l1.96-.27c-.72-3.38-1.19-6.8-1.42-10.25l-1.96.27c.68,1.66,1.08,3.34,1.17,5.13l1.96-.27c-.44-2.35-.68-4.72-.73-7.11l-1.86.5c.72,1.62,1.06,3.32,1.08,5.09l1.96-.27c-.25-1.47-.34-2.95-.3-4.44l-1.96.27c.73,2.15,1.07,4.33,1.01,6.61l1.96-.27c-.3-1.91-.21-3.83.22-5.71h-1.93c.71,2.21.83,4.45.31,6.72l1.96.27c-.25-2.4-.34-4.8-.28-7.21l-1.96.27c.36,1.95.24,3.88-.32,5.78l1.96.27c-.2-2.28-.11-4.54.3-6.79h-1.93c.56,2,.95,4.02,1.16,6.08.1,1.04,1.71,1.45,1.96.27.55-2.53,1.23-5.03,2.04-7.49l-1.23.7c.16.06.28,1.77.3,2,.1.86.15,1.73.17,2.6.01.79,0,1.58-.06,2.37-.04.54.03,2.17-.38,2.56l.71-.29-.23.03,1,1c0-3.58.3-7.15.93-10.68l-1.93-.53c-.73,4.16-1.62,8.28-2.66,12.38-.32,1.25,1.54,1.76,1.93.53,1.92-6.11,4.12-12.13,6.61-18.02.49-1.15-1.03-2.14-1.73-1.01-1.29,2.08-.46,4.66-1.62,6.73l1.86.5.5-3.81c.15-1.12-1.72-1.35-1.96-.27-.35,1.53-.75,3.05-1.23,4.55-.19.6-1.03,4.15-1.76,4.17l1,1c0-3,.59-5.93,1.8-8.68l-1.83-.77c-.52,3.32-1.59,6.47-3.22,9.4l1.83.77c.52-3.33,1.56-6.5,3.14-9.48l-1.86-.5c-.11,3.75-.66,7.43-1.62,11.05-.33,1.25,1.55,1.76,1.93.53.47-1.52.93-3.05,1.4-4.57.16-.52.86-3.98,1.48-3.95l-.96-.73c.49,2.79-.11,5.58-1.59,7.98l1.86.5c-.12-3.01.21-5.96,1.01-8.87l-1.96-.27c-.47,3.63-.97,7.33-2.45,10.71l1.86.5c0-3.62.62-7.15,1.84-10.56h-1.93c.59,2.81.4,5.62-.5,8.34l1.96.27c.33-2.49.86-4.94,1.55-7.36l-1.96-.27c.03,1.7-.05,3.4-.34,5.08-.13.77-.29,1.53-.49,2.28-.08.29-.28,1.63-.65,1.78l1.23.7c-.43-2.15,0-4.24,1.16-6.09l-1.86-.5c.09,3.48-.48,6.87-1.69,10.14l1.96.27c-.09-1.12,0-2.19.25-3.28.1-.44.22-.88.35-1.31.08-.29.17-.58.26-.86.3-.4.28-.56-.07-.49l-.6-.46c.32.49.24,1.45.26,2.03.04.76.03,1.51-.01,2.27-.09,1.5-.37,2.97-.77,4.42h1.93c-.51-3.15-.52-6.37-.05-9.53h-1.93c.62,2.84.87,5.7.79,8.6l1.96-.27c-.44-3.17-.52-6.38-.31-9.57l-1.96.27c.82,2.6,1.09,5.24.82,7.95h2c-.29-2.71-.29-5.42-.01-8.13l-1.96.27c.46,2.33.7,4.67.72,7.04h2c-.12-3.32.01-6.63.39-9.93l-1.96.27c.88,3.93,1.46,7.91,1.75,11.93h2c-.23-2.8-.4-5.6-.51-8.4l-1.96.27c.62,2.18.91,4.38.89,6.65l1.96-.27c-.33-2.3-.65-4.61-.98-6.91-.16-1.12-2.01-.85-1.96.27.07,1.73.15,3.47.22,5.2.03.79.07,1.58.1,2.36.03.74.28,1.94-.28,2.54l1.67.44c-.8-2.93-1.47-5.89-2.03-8.88-.24-1.28-2.11-.71-1.93.53.58,4.01.6,8.1.05,12.11l1.67-.44c-.65-.58-.62-1.55-.71-2.36-.09-.87-.17-1.75-.23-2.63-.13-1.84-.19-3.67-.19-5.51,0-1.11-1.68-1.37-1.96-.27-1.85,7.32-2.86,14.82-3.02,22.36-.02,1.1,1.76,1.4,1.96.27.53-2.92.91-5.87,1.14-8.83.09-1.13-1.69-1.34-1.96-.27-.78,3.04-1.3,6.12-1.57,9.24-.11,1.2,1.59,1.24,1.96.27,1.3-3.41,2.71-6.77,4.25-10.08h-1.73c1.17,1.91,1.98,3.92,2.46,6.11.12.57.72.78,1.23.7,1.68-.26,1.62-2.52,1.78-3.77.3-2.28.59-4.55.89-6.83l-1.96.27c.94,2.27,1.4,4.62,1.36,7.07l1.96-.27c-.58-2.19-1.05-4.4-1.4-6.63-.17-1.1-2.1-.86-1.96.27.23,1.98.45,3.97-.04,5.92h1.93c-.6-3.9-1.1-7.81-1.52-11.73-.14-1.27-1.9-1.3-2,0-.15,1.93-.3,3.87-.45,5.8-.14,1.83-.09,3.84-.92,5.52l1.83.24c-1.27-4.66-1.78-9.43-1.55-14.25h-2c-.09,5.1-.19,10.22-.88,15.28l1.83-.24c-1.08-2.19-.97-4.94-1.18-7.33-.23-2.54-.45-5.08-.68-7.63-.11-1.27-1.95-1.3-2,0-.21,5.45-.41,10.9-.62,16.35l1.86-.5c-1.33-2.13-1.56-4.95-1.91-7.4-.38-2.69-.61-5.4-.71-8.12h-2c.75,5.63,1,11.3.76,16.97l1.71-.71c-1.74-1.42-2.01-4.36-2.41-6.42-.51-2.62-.85-5.27-1.19-7.92-.16-1.26-1.89-1.31-2,0-.15,1.91-.31,3.82-.46,5.72-.12,1.5.09,3.78-1.05,4.94l1.67.44c-.96-2.87-1.47-5.82-1.5-8.85l-1.96.27c.75,2.84,1.26,5.71,1.51,8.63h2c-.23-2.58-.47-5.16-.7-7.74-.12-1.29-.23-2.58-.35-3.87s-.45-2.63-.03-3.82l-1.83.24c2.01,3.78,3.17,7.91,3.43,12.19l1.96-.27c-1.66-4.94-2.55-10.06-2.63-15.27l-1.96.27c1.62,4.6,2.59,9.36,2.87,14.23l1.96-.27c-1.06-4.18-1.82-8.43-2.28-12.72l-1.96.27c1.83,4.74,3.05,9.69,3.57,14.76l1.96-.27c-.84-4.59-1.4-9.22-1.68-13.87l-1.96.27c1.16,3.79,1.87,7.67,2.09,11.63h2c-.46-4.18-.79-8.36-.99-12.56l-1.96.27c.78,4.2,1.24,8.43,1.42,12.69.05,1.28,2.03,1.29,2,0-.11-5.01.08-10.01.59-14.99.13-1.28-1.87-1.27-2,0h0Z"/>
    <g>
      <path class="cls-1" d="M89.48,5.22c-2.61,4.68-4.71,8.5-6.12,11.07-2.53,4.62-5.27,9.12-7.87,13.7-2.08,3.67-3.05,5.42-5.24,7.28-3.35,2.85-6.82,3.63-7.58,3.79-4.86,1.02-8.8-.49-10.49-1.17-4.15-1.66-6.83-4.27-13.11-12.24-3.22-4.08-7.23-9.37-11.66-15.73"/>
      <path class="cls-1" d="M116.87,55.05c-6.92.23-12.53.29-16.32.29-10.53.01-15.6-.32-20.11,3.21-2.99,2.34-3.66,4.75-3.79,5.24-1.21,4.71,2.35,8.95,2.91,9.62,3.36,4,8.17,4.94,13.11,5.83,11.16,2.01,19.53,3.47,26.52,4.66"/>
      <path class="cls-1" d="M11.1,84.77c7.45-4.01,14.05-6.4,18.94-7.87,4.91-1.47,9.86-2.54,15.73-2.33,5.69.2,7.83,1.43,8.74,2.04,3.97,2.66,5.16,7.18,5.83,9.91,1.14,4.63.83,8.69-1.46,19.23-1.09,5.02-2.6,11.36-4.66,18.65"/>
      <path class="cls-1" d="M41.4,30.57c1.21,1.89,7.18,12.71,8.16,16.61.61,2.41,1.83,7.29.29,12.82-2.2,7.88-15.88,15.2-17.77,16.32"/>
      <path class="cls-1" d="M74.62,31.45c-.23,1.68-2.81,11-1.17,14.86.59,1.39,1.94,4.45,5.24,6.7,1.8,1.23,14.03,2.07,15.15,2.33"/>
      <path class="cls-1" d="M86.27,77.78c-1.21-.59-8.61-2-12.24-.87-.69.22-2.5.87-5.24,3.79-1.8,1.92-7.74,18.19-9.62,23.6"/>
    </g>
    <path class="cls-2" d="M47.07,39.54c2.72,4.37,5.65,8.61,8.76,12.71l.79-.61c-3.93-4.94-7.36-10.27-10.24-15.89l-.86.5c3.22,5.96,6.64,11.81,10.26,17.53l.79-.61c-2.99-3.53-5.43-7.5-7.24-11.76l-.86.5c2.19,4.54,4.38,9.08,6.57,13.63l.86-.5c-2.79-4.51-5.12-9.29-6.93-14.27l-.91.39c2.34,4.26,4.67,8.51,7.01,12.77l.86-.5c-2.01-3.18-3.81-6.48-5.41-9.88l-.86.5c2.76,5.61,5.58,11.41,6.01,17.75l.93-.25c-2.74-4.21-3.71-9.21-4.63-14.07l-.96.27c1.36,5.4,2.4,10.89,3.09,16.42l.98-.13c-1.45-5.54-2.51-11.18-3.16-16.87l-.98.13c.93,5.15,1.85,10.3,2.78,15.44l.96-.27c-1.83-5.09-3.02-10.4-3.53-15.79l-.98.13c1.22,5.42,2.18,10.9,2.87,16.42l.98-.13c-1.45-4.76-2.08-9.71-1.88-14.68l-.98.13c.88,2.94,1.47,5.97,1.71,9.04.12,1.49.16,2.99.12,4.49-.03,1.22.06,2.78-.96,3.64l.85.35c-.33-3.74.13-7.49,1.38-11.03l-.96-.27c-1.26,4.48-2.52,8.95-3.78,13.43l.98.13c-.29-4.73,1.02-9.3,2.34-13.79l-.98-.13c-.15,4.72-.87,9.4-2.12,13.95l.98.13c-.32-4.48.59-8.97,2.65-12.96l-.91-.39c-.73,4.64-2.41,9.07-4.95,13.02l.86.5c1.3-2.2,2.78-4.28,4.44-6.22.41-.49-.23-1.15-.71-.71-3.02,2.81-5.76,5.92-8.17,9.27-.29.4.29.98.68.68,3.19-2.37,5.9-5.3,8-8.67.32-.52-.37-.94-.79-.61-3.05,2.42-5.92,5.04-8.61,7.86l.71.71c2.33-2.49,4.66-4.98,7-7.47.45-.48-.22-1.12-.71-.71-2.61,2.21-5.23,4.42-7.84,6.63-.43.36.15,1.13.61.79,3.13-2.39,6.04-5.05,8.7-7.96.43-.48-.24-1.15-.71-.71-1.76,1.66-3.53,3.32-5.29,4.98l.71.71c1.95-2.1,3.91-4.2,5.86-6.3l-.79-.61c-2.3,3.08-4.61,6.16-6.91,9.25-.11.15-.07.35,0,.5l.03.06c.07.16.27.24.43.25.69.01.96-.97.29-1.23-.46-.18-.84.13-1.18.39-.52.41-1.04.8-1.58,1.17-1.96,1.37-4.05,2.54-6.24,3.51l.5.86c2.86-2.04,5.85-3.89,8.95-5.55l-.5-.86c-2.4,1.4-4.67,3.01-6.79,4.81-.39.33.03.96.49.84,3.93-1.08,7.97-1.61,12.04-1.57.64,0,.64-.98,0-1-3.01-.09-6.02.02-9.02.32-.63.06-.66,1.02,0,1,2.59-.07,5.18-.14,7.77-.21v-1c-2.64.17-5.28.19-7.92.05l.13.98c2.26-.76,4.6-1.11,6.98-1.04l-.13-.98c-2.49.6-4.99,1.12-7.51,1.56-.48.08-.47.87,0,.96,1.9.38,3.82.52,5.75.41v-1l-5.24.36c-.64.04-.64,1.04,0,1,4.25-.29,8.52-.27,12.77.07.6.05.62-.8.13-.98-1.98-.75-4.02-1.32-6.11-1.69-.51-.09-.94.65-.39.91l7.31,3.44c.58.27,1.08-.57.5-.86-1.97-.99-4.03-1.76-6.16-2.28-.53-.13-.92.67-.39.91,2.01.92,4.08,1.68,6.22,2.24.55.15.87-.62.39-.91-1.89-1.13-4.01-1.74-6.21-1.78-.57-.01-.68.83-.13.98,2.37.65,4.67,1.5,6.88,2.57,1.66.81,4.44,1.92,4.64,4.06l.85-.35c-2.11-2.02-3.94-4.3-5.46-6.8-.33-.55-1.17-.06-.86.5,1.66,3.01,3.31,6.02,4.97,9.03l.86-.5c-1.62-2.25-3.12-4.57-4.49-6.98l-.86.5c1.39,2.26,2.78,4.53,4.17,6.79l.86-.5c-1.61-2.23-3.23-4.46-4.84-6.69l-.79.61,1.31,1.53.71-.71-1.93-1.7c-.48-.42-1.17.25-.71.71,2.99,2.99,6.32,6.44,6.62,10.89l.93-.25c-1.03-2.38-1.8-4.86-2.33-7.4l-.96.27c1.25,3.43,2.2,6.96,2.83,10.55l.96-.27c-.68-2.65-1.01-5.36-.97-8.1l-.98.13c1.53,4.65,1.33,9.72-.53,14.25l.96.27c.74-3.62.94-7.33.57-11.01-.06-.63-1.03-.65-1,0,.13,2.4.25,4.79.38,7.19.03.58.78.65.98.13,1.08-2.79,2.03-5.62,2.85-8.49l-.96-.27c-.51,2.07-1.01,4.13-1.52,6.2l.96.27c1.53-6.23,4.34-12.07,8.26-17.14l-.86-.5c-2.87,3.98-5.29,8.26-7.21,12.77-.25.58.6,1.1.86.5,1.65-3.68,3.96-7.02,6.84-9.84.46-.45-.23-1.14-.71-.71l-3.45,3.16c-.48.44.22,1.12.71.71,2-1.69,4.35-2.91,6.87-3.61l-.27-.96c-2.09.65-4,1.71-5.67,3.14-.49.42.22,1.11.71.71,2.93-2.43,6.91-3.44,10.64-2.71.46.09.87-.47.49-.84-4.1-3.93-7.62-9.41-6.23-15.33l-.98-.13c.09,3.55.7,7.07,1.83,10.44.2.61,1.12.36.96-.27-.69-2.89-.84-5.89-.4-8.84.09-.62-.81-.91-.96-.27l-1.26,5.36.96.27c.54-2.92,1.46-5.94,3.49-8.18,1.86-2.05,4.73-3.34,7.49-2.64l.13-.98c-3.22.06-6.39,1.34-8.7,3.6s-3.65,5.4-3.78,8.62c-.02.55.88.69.98.13.94-4.99,4.54-9.31,9.32-11.05.52-.19.45-.96-.13-.98-2.89-.1-5.78-.2-8.67-.3-.64-.02-.64.98,0,1,2.89.1,5.78.2,8.67.3l-.13-.98c-5.1,1.85-9.02,6.4-10.02,11.75l.98.13c.25-6.16,5.33-11.1,11.48-11.23.55-.01.69-.84.13-.98-2.98-.75-6.1.48-8.21,2.62-2.34,2.38-3.41,5.69-4.01,8.9-.12.62.82.9.96.27l1.26-5.36-.96-.27c-.46,3.13-.33,6.29.4,9.37l.96-.27c-1.1-3.29-1.71-6.7-1.8-10.17-.01-.55-.85-.7-.98-.13-1.47,6.29,2.11,12.11,6.49,16.31l.49-.84c-4.11-.8-8.39.3-11.61,2.97l.71.71c1.53-1.32,3.3-2.29,5.22-2.89.61-.19.36-1.14-.27-.96-2.7.74-5.18,2.06-7.32,3.86l.71.71,3.45-3.16-.71-.71c-2.94,2.88-5.31,6.29-7,10.05l.86.5c1.92-4.51,4.34-8.79,7.21-12.77.38-.53-.48-1-.86-.5-3.96,5.14-6.81,11.08-8.36,17.38-.15.62.81.89.96.27.51-2.07,1.01-4.13,1.52-6.2.15-.62-.79-.89-.96-.27-.82,2.87-1.77,5.7-2.85,8.49l.98.13c-.13-2.4-.25-4.79-.38-7.19h-1c.37,3.59.2,7.2-.53,10.74-.13.64.72.85.96.27,1.92-4.68,2.1-9.97.53-14.78-.17-.53-.97-.45-.98.13-.04,2.82.3,5.63,1.01,8.36.16.63,1.07.36.96-.27-.63-3.6-1.57-7.13-2.83-10.55-.22-.6-1.1-.37-.96.27.54,2.63,1.36,5.18,2.43,7.64.2.46.96.22.93-.25-.32-4.75-3.71-8.4-6.91-11.6l-.71.71,1.93,1.7c.49.43,1.12-.22.71-.71l-1.31-1.53c-.36-.43-1.12.14-.79.61,1.61,2.23,3.23,4.46,4.84,6.69.37.51,1.21.05.86-.5-1.39-2.26-2.78-4.53-4.17-6.79-.34-.55-1.18-.06-.86.5,1.37,2.41,2.87,4.74,4.49,6.98.37.51,1.18.07.86-.5-1.66-3.01-3.31-6.02-4.97-9.03l-.86.5c1.56,2.57,3.45,4.92,5.62,7,.29.28.9.1.85-.35-.23-2.41-2.59-3.64-4.52-4.62-2.47-1.25-5.06-2.25-7.73-2.98l-.13.98c2.03.04,3.97.6,5.71,1.65l.39-.91c-2.05-.55-4.05-1.26-5.98-2.14l-.39.91c2.05.51,4.03,1.23,5.92,2.18l.5-.86-7.31-3.44-.39.91c2.09.37,4.13.94,6.11,1.69l.13-.98c-4.25-.34-8.52-.36-12.77-.07v1l5.24-.36c.64-.04.65-1.04,0-1-1.84.11-3.68-.01-5.49-.37v.96c2.52-.44,5.02-.96,7.51-1.56.56-.13.42-.97-.13-.98-2.46-.07-4.91.3-7.25,1.08-.54.18-.44.95.13.98,2.64.14,5.28.12,7.92-.05.64-.04.65-1.02,0-1-2.59.07-5.18.14-7.77.21v1c3-.3,6.01-.41,9.02-.32v-1c-4.16-.04-8.3.5-12.31,1.6l.49.84c2.06-1.74,4.26-3.3,6.59-4.65.56-.33.06-1.17-.5-.86-3.1,1.66-6.08,3.51-8.95,5.55-.53.38-.08,1.12.5.86,1.48-.65,2.92-1.4,4.3-2.24.69-.42,1.37-.86,2.03-1.33.3-.21.6-.43.89-.65.15-.11.87-.79,1.01-.75l-.3-.23.04.07-.05-.39.29-.18.43.25-.03-.06v.5c2.3-3.08,4.61-6.16,6.91-9.25.34-.46-.4-1.02-.79-.61-1.95,2.1-3.91,4.2-5.86,6.3-.44.47.24,1.15.71.71,1.76-1.66,3.53-3.32,5.29-4.98l-.71-.71c-2.59,2.85-5.43,5.46-8.49,7.8l.61.79c2.61-2.21,5.23-4.42,7.84-6.63l-.71-.71c-2.33,2.49-4.66,4.98-7,7.47-.44.47.26,1.17.71.71,2.68-2.82,5.56-5.44,8.61-7.86l-.79-.61c-2.01,3.22-4.6,6.05-7.65,8.31l.68.68c2.37-3.28,5.05-6.32,8.01-9.07l-.71-.71c-1.71,2.01-3.25,4.15-4.59,6.42-.33.56.52,1.04.86.5,2.58-4.02,4.31-8.54,5.05-13.26.08-.52-.63-.93-.91-.39-2.14,4.14-3.11,8.81-2.78,13.46.04.54.83.7.98.13,1.27-4.64,1.99-9.41,2.15-14.22.02-.57-.83-.67-.98-.13-1.34,4.57-2.68,9.25-2.38,14.06.03.55.82.7.98.13,1.26-4.48,2.52-8.95,3.78-13.43.18-.63-.75-.87-.96-.27-1.27,3.62-1.75,7.48-1.41,11.3.04.45.51.64.85.35.97-.81,1.15-2.09,1.22-3.28.09-1.69.07-3.39-.05-5.09-.22-3.31-.83-6.59-1.78-9.77-.16-.55-.96-.43-.98.13-.21,5.05.44,10.11,1.92,14.95.16.51,1.05.45.98-.13-.7-5.6-1.66-11.17-2.9-16.68-.12-.54-1.03-.43-.98.13.51,5.48,1.7,10.88,3.56,16.06.22.61,1.08.37.96-.27-.93-5.15-1.85-10.3-2.78-15.44-.1-.55-1.05-.43-.98.13.66,5.78,1.72,11.51,3.19,17.13.14.53,1.05.44.98-.13-.71-5.62-1.75-11.19-3.13-16.68-.16-.63-1.08-.36-.96.27.94,4.95,1.94,10.02,4.73,14.31.25.39.97.27.93-.25-.44-6.52-3.31-12.47-6.14-18.25-.29-.58-1.13-.07-.86.5,1.6,3.4,3.4,6.7,5.41,9.88.34.54,1.17.06.86-.5-2.34-4.26-4.67-8.51-7.01-12.77-.27-.49-1.11-.16-.91.39,1.84,5.06,4.2,9.93,7.03,14.51.34.55,1.14.07.86-.5-2.19-4.54-4.38-9.08-6.57-13.63-.28-.59-1.11-.07-.86.5,1.85,4.34,4.35,8.36,7.4,11.96.37.43,1.09-.13.79-.61-3.62-5.73-7.04-11.57-10.26-17.53-.31-.57-1.16-.07-.86.5,2.93,5.69,6.42,11.08,10.4,16.09.35.44,1.13-.15.79-.61-3.12-4.1-6.04-8.34-8.76-12.71-.34-.55-1.21-.04-.86.5h0Z"/>
    <path class="cls-2" d="M47.9,40.15c2.73,4.04,6.06,7.64,9.9,10.64.49.39,1.16-.22.71-.71-3.58-3.82-7.57-7.55-10.07-12.21l-.79.61c2.39,2.17,4.72,4.42,6.98,6.73l.61-.79c-1.89-1.45-3.75-2.95-5.57-4.5l-.35.85c3.06.32,5.79,1.89,8.75,2.61,2.48.6,5.27.64,7.43-.9.36-.26.29-.98-.25-.93-2.76.23-5.53.25-8.29.07l.13.98c1.64-.62,3.48-.15,5.19-.33,1.55-.16,3.06-.57,4.48-1.21s2.76-1.52,3.92-2.59c.56-.52,1.08-1.09,1.55-1.69.44-.56.86-1.6,1.56-1.83l-.62-.62c-.69,2.25-1.35,4.51-1.44,6.88s.19,4.78.5,7.13c.63,4.7,1.73,9.33,3.29,13.82l.91-.39c-2.23-3.73-3.56-7.94-3.85-12.28l-.93.25c1.61,2.97,2.86,6.1,4.1,9.24l.91-.39c-2.04-4-3.74-8.16-5.08-12.44l-.91.39c1.78,3.09,3.55,6.18,5.33,9.27l.86-.5c-1.36-2.14-2.64-4.33-3.84-6.56l-.79.61c1.08,1.31,2.02,2.73,2.81,4.24.39.75.75,1.52,1.06,2.3.16.4.3.8.44,1.2.05.15.25.98.37.95l.49.13c-1.11-1.04-1.65-2.61-2.21-3.99-.6-1.49-1.13-3.01-1.59-4.56l-.91.39c1.38,2.39,2.43,4.94,3.13,7.61l.96-.27c-1.27-3.62-2.55-7.23-3.82-10.85l-.91.39c1.66,3.43,3.31,6.86,4.97,10.29l.86-.5c-1.11-1.92-2.03-3.92-2.76-6.02l-.91.39c1.15,2.04,2.31,4.07,3.46,6.11l.86-.5c-.91-1.47-1.69-3.01-2.33-4.62l-.84.49c.9,1.13,1.71,2.33,2.44,3.57l.86-.5c-.62-.93-1.17-1.9-1.66-2.91l-.79.61c.93,1.14,1.98,2.15,3.15,3.05.4.31.94-.29.68-.68-.65-1.02-1.48-1.87-2.47-2.56l-.5.86c2.15,1.4,4.94,2.93,7.41,1.32.33-.22.31-.64,0-.86-.94-.67-2.13-.74-3.25-.84-1.29-.11-2.59-.15-3.89-.23-2.56-.15-5.17-.45-7.48-1.64-.57-.29-1.08.57-.5.86,2.22,1.14,4.66,1.53,7.12,1.72,1.26.09,2.52.14,3.78.22s2.68.03,3.71.77v-.86c-2.14,1.39-4.57-.12-6.4-1.32-.54-.36-1.03.5-.5.86.85.59,1.55,1.33,2.11,2.2l.68-.68c-1.09-.84-2.07-1.82-2.94-2.89-.38-.47-1.02.13-.79.61.48,1.01,1.04,1.97,1.66,2.91.35.53,1.19.06.86-.5-.78-1.32-1.65-2.58-2.6-3.78-.3-.38-1.02.03-.84.49.67,1.69,1.48,3.31,2.43,4.86.34.55,1.18.06.86-.5-1.15-2.04-2.31-4.07-3.46-6.11-.27-.48-1.1-.16-.91.39.75,2.17,1.71,4.27,2.86,6.26.33.56,1.14.07.86-.5-1.66-3.43-3.31-6.86-4.97-10.29-.24-.51-1.1-.15-.91.39,1.27,3.62,2.55,7.23,3.82,10.85.21.6,1.13.36.96-.27-.72-2.75-1.81-5.39-3.23-7.84-.28-.48-1.08-.17-.91.39.62,2.07,1.37,4.1,2.24,6.09.25.57,2.12,4.47,2.88,2.53.28-.7-.22-1.64-.45-2.29-.33-.91-.71-1.8-1.14-2.66-.87-1.76-1.96-3.4-3.21-4.91-.37-.45-1.04.12-.79.61,1.2,2.23,2.49,4.42,3.84,6.56.34.54,1.19.06.86-.5-1.78-3.09-3.55-6.18-5.33-9.27-.28-.48-1.09-.16-.91.39,1.36,4.37,3.1,8.61,5.18,12.68.25.5,1.12.15.91-.39-1.27-3.22-2.54-6.44-4.2-9.48-.23-.42-.97-.25-.93.25.3,4.52,1.66,8.9,3.99,12.78.28.47,1.11.17.91-.39-1.51-4.35-2.6-8.84-3.23-13.4-.32-2.28-.58-4.62-.54-6.93s.71-4.68,1.41-6.97c.11-.35-.26-.73-.62-.62-.73.24-1.12.8-1.53,1.41-.44.66-.93,1.27-1.47,1.83-1.13,1.16-2.46,2.11-3.92,2.81s-3.08,1.15-4.7,1.27-3.45-.29-5.07.33c-.52.2-.45.94.13.98,2.76.18,5.53.16,8.29-.07l-.25-.93c-2.17,1.54-4.98,1.31-7.42.59-2.77-.81-5.36-2.14-8.26-2.44-.42-.04-.67.58-.35.85,1.88,1.6,3.81,3.15,5.77,4.66.46.35.99-.39.61-.79-2.26-2.31-4.59-4.56-6.98-6.73-.42-.38-1.06.1-.79.61,2.55,4.73,6.59,8.53,10.23,12.41l.71-.71c-3.77-2.95-7.06-6.47-9.74-10.44-.36-.53-1.22-.03-.86.5h0Z"/>
    <path class="cls-2" d="M52.39,65.43l-3.84,6.17.79-.1c-.54-.62-.07-1.61.14-2.29.24-.78.43-1.59.19-2.39-.08-.29-.46-.49-.73-.3-1.73,1.24-2.78,3.19-2.79,5.33,0,.45.54.64.85.35,1.57-1.44,2.63-3.33,3.02-5.42.08-.43-.5-.92-.84-.49-1.19,1.52-1.76,3.4-1.54,5.33.05.46.67.72.93.25.73-1.29,1.06-2.74.94-4.22-.05-.54-.83-.71-.98-.13-.29,1.08-.31,2.22.02,3.3.19.64.66,1.75,1.54,1.35.74-.34.79-1.79.87-2.47.15-1.22.1-2.43-.1-3.63-.08-.48-.88-.47-.96,0-.47,2.59.17,5.19,1.78,7.26.24.31.75.11.84-.22.67-2.43.04-5.03-1.63-6.91-.31-.35-.82-.05-.85.35-.11,1.41.07,2.84.57,4.17.25.65.55,1.28.93,1.86.28.44.66,1.13,1.21,1.27,1.39.35,1.06-1.76.96-2.45-.23-1.5-.79-2.93-1.59-4.21-.26-.41-.94-.26-.93.25.04,2.61.98,5.08,2.67,7.07.3.35.83.04.85-.35.2-3.32-.37-6.65-1.66-9.72-.2-.49-.98-.48-.98.13,0,3.8.67,7.57,1.99,11.14.18.48,1.05.47.98-.13-.43-3.65-1.57-7.16-3.41-10.35-.24-.42-.96-.25-.93.25.16,3.04,1.21,5.96,3.04,8.39.34.45,1.01.19.91-.39-.49-2.85-1.39-5.6-2.67-8.18-.25-.51-1.08-.15-.91.39,1.31,4.15,3.47,7.97,6.36,11.22.32.36,1.02-.02.84-.49-1.12-2.83-2.94-5.54-5.37-7.41-.45-.35-1.04-.66-1.63-.49-.65.19-.9.83-1,1.44-.22,1.31,0,3.07,1.66,3.15.3.01.47-.24.5-.5.22-1.65-.32-3.28-1.42-4.52-.37-.42-1.1.13-.79.61,2.54,3.81,5.48,7.35,8.76,10.55.39.38,1.14-.14.79-.61-1.56-2.04-3.11-4.07-4.67-6.11l-.79.61c2.61,2.79,5.01,5.78,7.16,8.94.22.33.82.33.91-.12l.21-1.06-.91.12c.8,1.8,1.13,3.75,1.02,5.71l.98-.13c-.66-2.93-.65-5.95.04-8.88h-.96c.47,2.88.62,5.8.48,8.71h1c.05-3.53,1.06-6.96,2.92-9.95l-.93-.25c-.3,3.14-.98,6.23-2.02,9.21l.96.27c.92-3.79,2.48-7.38,4.61-10.64l-.86-.5c-1.35,2.63-2.69,5.25-4.04,7.88l.86.5c1.8-3.95,3.94-7.72,6.41-11.28l-.91-.39c-.49,1.77-1.11,3.49-1.86,5.16-.26.58.59,1.09.86.5.88-1.85,1.9-3.63,3.05-5.33l-.93-.25c-.07,1.03-.38,1.98-.91,2.85l.93.25c.28-2.17,1.01-4.26,2.12-6.15l-.91-.39c-.7,2.23-1.52,4.42-2.49,6.55l.91.39c.34-2.08,1.06-4.05,2.15-5.85l-.91-.39c-.38,2.28-1.09,4.48-2.12,6.55l.93.25c0-1.53.49-2.95,1.42-4.16l-.93-.25c-.14,1.44-.55,2.83-1.21,4.12l.93.25c.13-1.34.84-2.58,1.93-3.37l-.75-.43c0,1.07-.25,2.51-1.01,3.33-.09.11-.21.2-.34.26.04.15.12.16.23.01.3-.04.55-.12.87-.13.69,0,1.37.05,2.05.16l.13-.98c-.89.01-1.79.02-2.68.03v1c1.5-.03,3.01-.06,4.51-.09v-1c-.87.02-1.66-.18-2.42-.61l-.39.91,3.81.74c.63.12.9-.82.27-.96-2.74-.61-5.01-2.66-5.85-5.35l-.84.49c1.75,1.51,3.25,3.26,4.46,5.23l.86-.5c-1.13-1.63-2.09-3.37-2.89-5.18l-.79.61c1.05,1.15,1.89,2.44,2.53,3.85.27.59,1.13.08.86-.5-.49-1.09-.98-2.19-1.47-3.28l-.86.5,2.07,2.88c.37.52,1.23.03.86-.5l-1.16-1.65c-.36-.52-1.21-.05-.86.5.61.99,1.15,2.02,1.59,3.1l.84-.49c-.77-.69-1.4-1.47-1.91-2.37l-.86.5c.58.97,1.3,1.83,2.14,2.58.41.37,1.08-.1.79-.61-1.58-2.76-3.35-5.41-5.28-7.94-.38-.5-1.23-.05-.86.5,1.09,1.67,2.19,3.33,3.28,5,.29.45,1.12.17.91-.39-1.48-4.01-2.59-8.15-3.31-12.37l-.96.27c.91,2.38,1.61,4.82,2.07,7.33l.96-.27c-1.4-4.66-2.25-9.47-2.51-14.33l-.98.13c.81,3.44,1.5,6.9,2.08,10.39l.96-.27c-.49-2.94-.7-5.91-.62-8.89l-.98.13,1.29,3.39c.29.75.51,1.88,1.41,2.13.83.23,1.92-.24,2.67-.56.94-.4,1.78-.97,2.53-1.67.35-.33.04-.8-.35-.85-1.83-.24-3.67.74-4.53,2.36-.27.5.36,1,.79.61.72-.68,1.45-1.35,2.17-2.03l-.71-.71c-1.46,1.61-2.91,3.23-4.37,4.84-.09.09-.37.54-.51.57-.15.03-.16-.11-.18-.26-.08-.48,0-1.03.01-1.53.02-1.09,0-2.18-.03-3.27-.14-4.2-.77-8.28-1.53-12.4-.38-2.07-.65-4.33.48-6.21l-.91-.39c-.72,4.62-.96,9.3-.72,13.97.03.53.88.72.98.13.74-4.33.4-8.71.03-13.06-.05-.64-.96-.65-1,0-.28,4.98-.7,9.95-1.27,14.9l.98-.13c-1.23-3.94.37-8.05.05-12.06-.03-.38-.4-.62-.75-.43-2.05,1.1-4.09,2.21-6.14,3.31l.5.86c2.23-1.47,4.34-3.13,6.3-4.95.39-.36-.03-.93-.49-.84-1.75.35-3.23,1.33-4.3,2.74-.28.37.18.83.56.73,1.35-.33,2.56-.98,3.58-1.92.48-.44-.22-1.12-.71-.71-2.01,1.72-4.02,3.45-6.02,5.17l-1.51,1.29c-.46.39-.96,1-1.5,1.28-.6.31-.82-.63-.95-1.03-.15-.44-.32-.83-.64-1.17-.29-.31-.88-.08-.85.35.05.81.04,1.62-.04,2.43l.85-.35c-1.17-1.29-2.33-2.58-3.5-3.87-.34-.38-.96.02-.84.49.75,2.79,1.75,5.49,2.98,8.1l.86-.5c-1.23-2.59-2.45-5.18-3.68-7.77-.25-.52-1.06-.15-.91.39.99,3.64,2.08,7.25,3.28,10.82.2.61,1.11.36.96-.27-1.04-4.43-2.08-8.86-3.13-13.29l-.73.56c2.85,1.32,5.82,2.32,8.89,2.97l.27-.96c-2.87-.45-5.73-1.01-8.56-1.67l-.13.98c3.93-.17,7.57,1.86,11.51,1.66.64-.03.65-1,0-1-2.46,0-4.91.19-7.34.55l.27.96c1.39-.58,2.78-1.16,4.17-1.74.57-.24.36-1.17-.27-.96-1.05.34-2.11.68-3.16,1.02-.31.1-2.22.94-2.42.37l-.91.39c1.24,2.68,2.09,5.53,2.53,8.45l.96-.27c-.98-2.46-1.89-4.94-2.74-7.45l-.96.27c1.36,3.94,2.73,7.88,4.09,11.82.21.6,1.12.36.96-.27-.95-3.76-1.9-7.51-2.84-11.27-.16-.63-1.1-.36-.96.27,1.04,4.88,2.2,9.74,3.5,14.56.17.62,1.12.36.96-.27-1.02-4.19-2.05-8.39-3.07-12.58-.13-.54-1.02-.44-.98.13.39,6.55.77,13.1,1.16,19.65l.98-.13c-1.17-5.07-2.15-10.19-2.94-15.34l-.96.27c.76,4.21,1.24,8.46,1.44,12.73l.98-.13c-1.25-3.28-2.31-6.63-3.18-10.03-.16-.62-1.11-.36-.96.27.85,3.6,1.86,7.15,3.03,10.65.2.61,1.14.36.96-.27-.88-3.13-1.77-6.27-2.65-9.4-.15-.53-1-.44-.98.13.14,3.53.68,7.02,1.63,10.42l.96-.27c-1.25-3.97-2.5-7.98-2.73-12.16l-.93.25c.9,1.86,1.59,3.8,2.06,5.81.15.63,1.11.36.96-.27-.5-2.21-1-4.41-1.5-6.62-.12-.54-1.05-.43-.98.13.21,1.61.48,3.21.85,4.8l.96-.27c-.51-1.9-.91-3.83-1.19-5.78l-.96.27,1.64,5.58c.18.62,1.12.36.96-.27-.2-.79-.67-1.41-1.37-1.82-.32-.19-.76.05-.75.43.1,3.74.69,7.46,1.77,11.04l.84-.49-1.69-1.89c-.33-.37-1,.02-.84.49.77,2.23,1.78,4.36,3.03,6.35.35.56,1.12.07.86-.5-.72-1.64-1.6-3.19-2.65-4.64-.34-.47-1-.18-.91.39.35,2.21,1.29,4.24,2.7,5.97.32.4.97-.03.84-.49-.99-3.43-1.98-6.87-2.97-10.3-.17-.57-.92-.4-.98.13-.41,3.61,1.03,7.04,2.43,10.29.23.54,1.04.14.91-.39-.65-2.83-1.3-5.66-1.96-8.49l-.96.27c.7,2.97,1.57,5.9,2.6,8.78l.91-.39-1.01-2.07-.86.5c1.08,2.11,2.36,4.1,3.82,5.96.35.45,1.08-.13.79-.61-.78-1.26-1.67-2.45-2.65-3.57-.43-.49-1.11.22-.71.71,1.47,1.78,2.93,3.55,4.4,5.33.33.4.96-.03.84-.49-.78-2.81-1.74-5.57-2.88-8.25l-.86.5c1.13,2.39,2.39,4.72,3.76,6.98.28.46,1.14.16.91-.39-.83-2.04-1.8-4.01-2.94-5.9-.3-.5-1.02-.16-.91.39.45,2.21,1.34,4.3,2.62,6.16.3.43,1.13.18.91-.39-1.11-2.87-2.45-5.63-4.04-8.26-.31-.52-.99-.15-.91.39.3,2.12.87,4.18,1.7,6.15.24.57,1.18.36.96-.27-.9-2.66-1.89-5.3-2.96-7.9-.24-.58-1.12-.38-.96.27.47,2.02.95,4.04,1.42,6.07l.96-.27c-.68-2.36-1.37-4.73-2.05-7.09-.15-.53-.99-.44-.98.13.04,2.24.39,4.45,1.07,6.58.2.63,1.06.36.96-.27-.21-1.42-.42-2.84-.63-4.26l-.96.27c.15.9.59,1.69,1.26,2.3.33.3.83.08.85-.35.1-1.85.14-3.71.1-5.56h-1c.1,1.86.2,3.72.31,5.57l.98-.13-1.01-3.61c-.15-.54-1-.44-.98.13.05,2.17.64,4.26,1.73,6.13.26.45.9.23.93-.25.17-2.44.52-4.85,1.06-7.23h-.96c.41,1.24.45,2.52.11,3.78l.98.13c-.21-2.37-.16-4.74.16-7.1h-1c-.2,3.22.02,6.44.65,9.61.08.42.72.48.91.12.45-.83.77-1.69.96-2.61l-.98-.13c-.03,1.65,0,3.3.1,4.95.03.54.85.71.98.13.46-1.96.91-3.91,1.37-5.87l-.98-.13c-.24,2.46-.48,4.92-.71,7.37-.06.58.82.65.98.13.83-2.63,1.65-5.26,2.48-7.89l-.96-.27c-.26,1.57-.52,3.15-.77,4.72-.12.73-.27,1.46-.35,2.19-.06.53.03.94.47,1.26.29.22.62-.04.73-.3,1.18-2.82,2.37-5.64,3.55-8.45l-.96-.27c-1.14,3.58-2.14,7.2-2.99,10.86-.15.64.72.85.96.27,1.25-3,2.57-5.97,3.98-8.9l-.91-.39c-1.24,2.97-2.33,6-3.25,9.09-.16.53.68.91.91.39,1.32-3.02,2.81-5.95,4.49-8.78l-.91-.39c-.49,1.84-1.11,3.64-1.87,5.39l.91.39c1.2-2.93,2.55-5.81,4.02-8.62l-.86-.5c-.92,1.93-1.85,3.86-2.77,5.79l.91.39c.46-1.6,1.06-3.15,1.81-4.64l-.91-.39c-.43,1.5-.95,2.97-1.55,4.41l.96.27c.79-2.21,1.4-4.47,1.82-6.78.12-.63-.85-.9-.96-.27-.42,2.31-1.03,4.57-1.82,6.78-.22.62.72.84.96.27.6-1.44,1.12-2.91,1.55-4.41.15-.53-.65-.9-.91-.39-.79,1.57-1.43,3.2-1.92,4.88-.15.53.66.91.91.39.92-1.93,1.85-3.86,2.77-5.79.27-.57-.56-1.08-.86-.5-1.51,2.89-2.89,5.84-4.12,8.85-.21.52.69.9.91.39.8-1.83,1.46-3.7,1.97-5.63.15-.55-.62-.88-.91-.39-1.68,2.83-3.18,5.76-4.49,8.78l.91.39c.92-3.08,2.01-6.12,3.25-9.09.22-.52-.67-.89-.91-.39-1.44,3.01-2.8,6.06-4.08,9.14l.96.27c.85-3.66,1.84-7.28,2.99-10.86.2-.63-.72-.84-.96-.27-1.18,2.82-2.37,5.64-3.55,8.45l.73-.3c-.16-.12.21-1.51.25-1.72l.28-1.69.59-3.63c.1-.62-.77-.89-.96-.27-.83,2.63-1.65,5.26-2.48,7.89l.98.13c.24-2.46.48-4.92.71-7.37.05-.56-.86-.68-.98-.13-.46,1.96-.91,3.91-1.37,5.87l.98.13c-.1-1.65-.13-3.3-.1-4.95.01-.55-.87-.69-.98-.13-.17.84-.45,1.62-.86,2.38l.91.12c-.61-3.08-.81-6.21-.61-9.34.04-.66-.92-.62-1,0-.31,2.36-.36,4.73-.16,7.1.05.54.83.71.98.13.38-1.43.35-2.91-.11-4.31-.15-.44-.85-.51-.96,0-.56,2.47-.93,4.97-1.1,7.49l.93-.25c-1-1.72-1.55-3.63-1.59-5.62l-.98.13,1.01,3.61c.15.53,1.01.44.98-.13-.1-1.86-.2-3.72-.31-5.57-.03-.64-1.01-.65-1,0,.04,1.85,0,3.71-.1,5.56l.85-.35c-.56-.51-.88-1.11-1.01-1.85-.11-.64-1.06-.36-.96.27.21,1.42.42,2.84.63,4.26l.96-.27c-.65-2.05-1-4.16-1.03-6.32l-.98.13c.68,2.36,1.37,4.73,2.05,7.09.18.62,1.11.36.96-.27-.47-2.02-.95-4.04-1.42-6.07l-.96.27c1.07,2.6,2.06,5.24,2.96,7.9l.96-.27c-.83-1.97-1.4-4.03-1.7-6.15l-.91.39c1.54,2.56,2.86,5.24,3.94,8.03l.91-.39c-1.24-1.79-2.09-3.78-2.52-5.92l-.91.39c1.09,1.81,2.04,3.7,2.84,5.66l.91-.39c-1.38-2.26-2.63-4.59-3.76-6.98-.28-.59-1.11-.07-.86.5,1.11,2.61,2.03,5.28,2.78,8.01l.84-.49c-1.47-1.78-2.93-3.55-4.4-5.33l-.71.71c.93,1.05,1.75,2.18,2.5,3.37l.79-.61c-1.41-1.79-2.63-3.73-3.67-5.76-.29-.58-1.14-.07-.86.5l1.01,2.07c.25.5,1.11.15.91-.39-1.04-2.87-1.9-5.8-2.6-8.78-.15-.63-1.11-.36-.96.27.65,2.83,1.3,5.66,1.96,8.49l.91-.39c-1.34-3.09-2.69-6.34-2.3-9.78l-.98.13c.99,3.43,1.98,6.87,2.97,10.3l.84-.49c-1.3-1.6-2.12-3.5-2.44-5.53l-.91.39c1.04,1.46,1.92,3.01,2.65,4.64l.86-.5c-1.2-1.93-2.18-3.97-2.92-6.12l-.84.49,1.69,1.89c.33.38.98-.02.84-.49-1.06-3.5-1.64-7.12-1.74-10.78l-.75.43c.48.29.77.68.91,1.23l.96-.27-1.64-5.58c-.19-.63-1.06-.35-.96.27.29,1.95.68,3.88,1.19,5.78.17.62,1.11.36.96-.27-.34-1.5-.62-3.01-.81-4.53l-.98.13c.5,2.21,1,4.41,1.5,6.62l.96-.27c-.49-2.09-1.22-4.11-2.16-6.05-.22-.44-.96-.23-.93.25.24,4.27,1.49,8.37,2.77,12.43.19.61,1.14.36.96-.27-.92-3.32-1.46-6.72-1.6-10.16l-.98.13c.88,3.13,1.77,6.27,2.65,9.4l.96-.27c-1.17-3.5-2.19-7.06-3.03-10.65l-.96.27c.87,3.4,1.93,6.75,3.18,10.03.19.49,1.01.47.98-.13-.2-4.36-.69-8.7-1.47-13-.12-.64-1.06-.36-.96.27.79,5.15,1.77,10.26,2.94,15.34.13.54,1.02.43.98-.13-.39-6.55-.77-13.1-1.16-19.65l-.98.13c1.02,4.19,2.05,8.39,3.07,12.58l.96-.27c-1.3-4.82-2.46-9.67-3.5-14.56l-.96.27c.95,3.76,1.9,7.51,2.84,11.27l.96-.27c-1.36-3.94-2.73-7.88-4.09-11.82-.21-.6-1.17-.35-.96.27.85,2.51,1.76,4.99,2.74,7.45.24.6,1.06.37.96-.27-.46-3.01-1.36-5.92-2.64-8.69-.24-.51-1.1-.15-.91.39.35.98,1.42,1.01,2.29.77,1.52-.42,3.02-.97,4.52-1.45l-.27-.96c-1.39.58-2.78,1.16-4.17,1.74-.6.25-.38,1.06.27.96,2.34-.34,4.71-.51,7.08-.51v-1c-3.93.2-7.58-1.83-11.51-1.66-.54.02-.7.85-.13.98,2.83.66,5.68,1.22,8.56,1.67.62.1.91-.83.27-.96-2.98-.63-5.89-1.59-8.66-2.87-.39-.18-.84.12-.73.56,1.04,4.43,2.08,8.86,3.13,13.29l.96-.27c-1.2-3.57-2.29-7.18-3.28-10.82l-.91.39c1.23,2.59,2.45,5.18,3.68,7.77.28.58,1.14.07.86-.5-1.19-2.53-2.15-5.16-2.88-7.87l-.84.49c1.17,1.29,2.33,2.58,3.5,3.87.32.35.82.05.85-.35.07-.81.09-1.62.04-2.43l-.85.35c.72.78.5,2.21,1.77,2.54.52.13.95-.11,1.34-.43.6-.49,1.18-1.01,1.76-1.51,2.38-2.05,4.77-4.1,7.15-6.14l-.71-.71c-.9.82-1.95,1.38-3.14,1.67l.56.73c.91-1.21,2.23-1.99,3.7-2.28l-.49-.84c-1.9,1.77-3.93,3.37-6.1,4.79-.54.35-.07,1.17.5.86,2.05-1.1,4.09-2.21,6.14-3.31l-.75-.43c.33,4.11-1.28,8.28-.01,12.33.18.57.92.41.98-.13.57-4.95,1-9.92,1.27-14.9h-1c.36,4.25.72,8.56,0,12.8l.98.13c-.24-4.58-.02-9.17.68-13.7.08-.53-.6-.9-.91-.39-1.07,1.78-1.06,3.85-.77,5.85.34,2.38.9,4.71,1.2,7.1s.48,4.99.52,7.5c.02,1.15-.15,2.37-.01,3.51.08.67.5,1.45,1.29,1.28.48-.1.8-.58,1.11-.92l1.4-1.55c.99-1.1,1.98-2.19,2.97-3.29.43-.48-.23-1.15-.71-.71-.72.68-1.45,1.35-2.17,2.03l.79.61c.71-1.35,2.16-2.07,3.67-1.87l-.35-.85c-.58.54-1.23.99-1.95,1.34-.37.18-.75.32-1.14.44-.29.08-.84.31-1.14.19-.32-.13-.44-.7-.54-.98l-.51-1.36-.94-2.49c-.19-.51-.97-.46-.98.13-.07,3.07.15,6.13.66,9.16.11.63,1.07.36.96-.27-.57-3.49-1.26-6.95-2.08-10.39-.13-.54-1.01-.43-.98.13.27,4.95,1.12,9.85,2.55,14.59.19.62,1.08.36.96-.27-.46-2.5-1.16-4.95-2.07-7.33-.23-.6-1.07-.37-.96.27.72,4.22,1.83,8.36,3.31,12.37l.91-.39c-1.09-1.67-2.19-3.33-3.28-5l-.86.5c1.93,2.53,3.7,5.18,5.28,7.94l.79-.61c-.78-.7-1.44-1.48-1.98-2.38-.33-.55-1.18-.06-.86.5.55.97,1.24,1.83,2.07,2.57.33.3,1.04.01.84-.49-.47-1.16-1.03-2.27-1.69-3.34l-.86.5,1.16,1.65.86-.5-2.07-2.88c-.38-.53-1.13-.08-.86.5.49,1.09.98,2.19,1.47,3.28l.86-.5c-.68-1.49-1.58-2.84-2.68-4.05-.41-.45-1,.12-.79.61.8,1.82,1.77,3.55,2.89,5.18.36.52,1.21.05.86-.5-1.26-2.04-2.81-3.87-4.62-5.43-.35-.31-.99-.02-.84.49.94,3.01,3.47,5.36,6.55,6.05l.27-.96-3.81-.74c-.53-.1-.9.62-.39.91.9.52,1.88.77,2.93.75.64-.02.64-1.01,0-1-1.5.03-3.01.06-4.51.09-.64.01-.65,1.01,0,1,.89-.01,1.79-.02,2.68-.03.54,0,.71-.89.13-.98-1.06-.17-2.51-.46-3.54,0-.7.31-1.26,1.27-.41,1.8s1.68-.46,2.04-1.11c.58-1.03.85-2.18.85-3.36,0-.35-.44-.66-.75-.43-1.4,1.02-2.26,2.51-2.42,4.23-.05.5.71.68.93.25.74-1.46,1.19-3,1.34-4.63.05-.56-.67-.59-.93-.25-1.03,1.34-1.56,2.97-1.56,4.66,0,.47.7.71.93.25,1.07-2.14,1.83-4.42,2.22-6.78.09-.54-.6-.9-.91-.39-1.13,1.87-1.9,3.93-2.25,6.09-.08.51.66.95.91.39,1-2.21,1.87-4.47,2.59-6.78.17-.55-.63-.87-.91-.39-1.2,2.05-1.94,4.3-2.25,6.65-.07.52.7.64.93.25.63-1.03.97-2.16,1.05-3.36.04-.53-.67-.63-.93-.25-1.15,1.7-2.17,3.47-3.05,5.33l.86.5c.79-1.75,1.44-3.55,1.96-5.4.16-.57-.6-.84-.91-.39-2.47,3.56-4.62,7.34-6.41,11.28-.26.58.57,1.09.86.5,1.35-2.63,2.69-5.25,4.04-7.88.29-.57-.51-1.04-.86-.5-2.18,3.33-3.77,7.02-4.72,10.88-.15.63.75.87.96.27,1.07-3.07,1.75-6.24,2.06-9.47.05-.52-.69-.64-.93-.25-1.95,3.14-3,6.76-3.05,10.46,0,.65.97.64,1,0,.15-3.01-.03-6.01-.51-8.98-.08-.49-.86-.46-.96,0-.73,3.1-.74,6.3-.04,9.41.13.57.95.41.98-.13.13-2.15-.28-4.25-1.16-6.22-.17-.39-.83-.28-.91.12l-.21,1.06.91-.12c-2.2-3.23-4.64-6.29-7.32-9.14-.38-.4-1.14.15-.79.61,1.56,2.04,3.11,4.07,4.67,6.11l.79-.61c-3.22-3.14-6.1-6.61-8.6-10.35l-.79.61c.94,1.06,1.31,2.42,1.13,3.81l.5-.5c-.72-.03-.79-.9-.75-1.45.02-.25.04-.53.12-.77.13-.4.3-.48.69-.3.81.38,1.54,1.29,2.13,1.94,1.37,1.51,2.45,3.26,3.19,5.16l.84-.49c-2.77-3.12-4.85-6.8-6.1-10.78l-.91.39c1.24,2.51,2.1,5.18,2.57,7.95l.91-.39c-1.73-2.29-2.75-5.01-2.91-7.88l-.93.25c1.75,3.03,2.87,6.37,3.28,9.85l.98-.13c-1.3-3.48-1.96-7.15-1.96-10.87l-.98.13c1.26,3,1.82,6.21,1.63,9.45l.85-.35c-1.51-1.78-2.34-4.03-2.37-6.36l-.93.25c.59.94,1.03,1.95,1.3,3.03.13.51.22,1.03.26,1.56.01.18,0,.39.03.57.17.04.18,0,.03-.12-.1-.13-.2-.26-.29-.39-1.19-1.69-1.7-3.73-1.54-5.78l-.85.35c1.43,1.61,1.94,3.86,1.37,5.94l.84-.22c-1.37-1.77-1.92-4.09-1.52-6.29h-.96c.24,1.45.21,2.95-.13,4.39-.04.15-.07.31-.12.45l.12.03-.08-.14c-.04-.33-.25-.69-.31-1.03-.14-.75-.08-1.5.12-2.23l-.98-.13c.11,1.31-.15,2.57-.8,3.71l.93.25c-.19-1.65.23-3.3,1.25-4.62l-.84-.49c-.36,1.93-1.31,3.65-2.76,4.98l.85.35c.01-1.76.86-3.44,2.3-4.47l-.73-.3c.51,1.74-1.47,3.49-.07,5.12.22.25.63.15.79-.1,1.28-2.06,2.56-4.11,3.84-6.17.34-.55-.52-1.05-.86-.5h0Z"/>
    <path class="cls-2" d="M61.07,52.33c-.51,4.98-.7,9.98-.59,14.99h2c-.18-4.44-.68-8.86-1.49-13.23-.2-1.11-2.02-.85-1.96.27.19,4.2.52,8.38.99,12.56.14,1.25,2.08,1.31,2,0-.24-4.13-.96-8.2-2.17-12.16-.32-1.04-2.04-.9-1.96.27.3,4.83.88,9.64,1.75,14.4.2,1.1,2.08.86,1.96-.27-.54-5.25-1.74-10.37-3.64-15.29-.37-.96-2.09-.95-1.96.27.47,4.47,1.25,8.89,2.35,13.25.27,1.07,2.03.88,1.96-.27-.29-5.04-1.26-10-2.94-14.76-.36-1.02-1.98-.92-1.96.27.08,5.38.99,10.7,2.7,15.81.34,1.01,2.04.92,1.96-.27-.28-4.64-1.53-9.1-3.7-13.2-.43-.81-1.56-.53-1.83.24-.42,1.19-.22,2.4-.11,3.63.12,1.37.25,2.74.37,4.11.25,2.74.5,5.48.74,8.22.11,1.27,2.11,1.29,2,0-.27-3.1-.79-6.16-1.58-9.16-.29-1.09-1.98-.87-1.96.27.04,3.2.56,6.35,1.57,9.38.23.7,1.12,1,1.67.44,1.32-1.33,1.37-3.16,1.52-4.92.2-2.38.39-4.77.58-7.16h-2c.38,2.98.75,5.97,1.35,8.92.47,2.32.88,5.25,2.83,6.84.67.55,1.67.21,1.71-.71.24-5.67-.01-11.34-.76-16.97-.16-1.23-2.05-1.33-2,0,.11,2.9.37,5.78.78,8.65.38,2.64.67,5.56,2.11,7.87.53.85,1.83.49,1.86-.5.21-5.45.41-10.9.62-16.35h-2c.25,2.86.51,5.72.76,8.58.22,2.5.24,5.09,1.37,7.38.35.72,1.71.61,1.83-.24.72-5.25.85-10.53.95-15.82.02-1.29-1.94-1.28-2,0-.24,4.99.31,9.97,1.62,14.78.21.79,1.44,1.03,1.83.24.87-1.76.97-3.64,1.12-5.57.18-2.26.35-4.51.53-6.77h-2c.44,4.1.97,8.19,1.59,12.26.15,1,1.7.9,1.93,0,.54-2.15.37-4.28.11-6.46l-1.96.27c.35,2.24.81,4.45,1.4,6.63.29,1.1,1.95.86,1.96-.27.04-2.62-.43-5.18-1.43-7.61-.44-1.07-1.82-.88-1.96.27-.2,1.57-.41,3.14-.61,4.71l-.27,2.12c-.05.39-.08.79-.15,1.18-.05.27-.12.66-.16.66l1.23.7c-.51-2.34-1.4-4.55-2.66-6.59-.36-.59-1.4-.71-1.73,0-1.61,3.47-3.1,6.99-4.46,10.56l1.96.27c.26-2.94.77-5.84,1.5-8.71l-1.96-.27c-.21,2.79-.57,5.55-1.07,8.3l1.96.27c.16-7.37,1.14-14.68,2.95-21.83l-1.96-.27c0,2.32.1,4.64.3,6.95.15,1.64.07,3.78,1.41,4.97.49.44,1.56.36,1.67-.44.6-4.4.58-8.78-.05-13.18l-1.93.53c.55,2.99,1.23,5.95,2.03,8.88.19.71,1.15,1,1.67.44,1.25-1.34.9-3.22.83-4.9-.09-2.21-.19-4.41-.28-6.62l-1.96.27c.33,2.3.65,4.61.98,6.91.16,1.14,1.95.83,1.96-.27.02-2.44-.3-4.84-.96-7.18-.3-1.06-2.01-.89-1.96.27.11,2.8.28,5.6.51,8.4.11,1.27,2.09,1.29,2,0-.3-4.19-.9-8.36-1.82-12.46-.26-1.19-1.85-.77-1.96.27-.38,3.3-.51,6.61-.39,9.93.05,1.28,2.01,1.29,2,0-.02-2.55-.29-5.08-.79-7.58-.24-1.19-1.86-.77-1.96.27-.28,2.71-.28,5.42.01,8.13.14,1.28,1.88,1.29,2,0,.28-2.87-.03-5.73-.9-8.48-.35-1.1-1.89-.86-1.96.27-.22,3.38-.08,6.75.38,10.1.16,1.15,1.93.81,1.96-.27.09-3.08-.2-6.13-.86-9.13-.2-.92-1.78-.99-1.93,0-.53,3.54-.52,7.06.05,10.59.16,1.02,1.68.89,1.93,0,.55-1.98.87-4.03.88-6.09,0-1.18.25-3.76-.92-4.53-2.95-1.95-3.68,6.38-3.57,7.77.09,1.14,1.57,1.34,1.96.27,1.26-3.42,1.85-7.02,1.76-10.67-.02-1-1.33-1.35-1.86-.5-1.45,2.3-1.9,4.97-1.36,7.63.1.49.75.89,1.23.7,1.7-.69,1.97-2.7,2.32-4.31.48-2.22.68-4.49.63-6.75-.02-1.12-1.65-1.36-1.96-.27-.75,2.59-1.27,5.22-1.62,7.89-.15,1.17,1.63,1.28,1.96.27,1.01-3.06,1.16-6.26.5-9.41-.22-1.04-1.62-.86-1.93,0-1.28,3.57-1.92,7.31-1.92,11.1,0,.92,1.45,1.45,1.86.5,1.64-3.73,2.21-7.7,2.73-11.71.15-1.14-1.67-1.32-1.96-.27-.84,3.07-1.21,6.22-1.08,9.4.04.99,1.33,1.36,1.86.5,1.78-2.88,2.37-6.2,1.79-9.52-.08-.44-.55-.72-.96-.73-1.77-.07-2.29,1.77-2.71,3.13-.7,2.29-1.4,4.57-2.1,6.86l1.93.53c1.01-3.79,1.57-7.67,1.69-11.58.03-.98-1.4-1.38-1.86-.5-1.66,3.12-2.79,6.46-3.34,9.96-.16,1.05,1.23,1.84,1.83.77,1.71-3.08,2.87-6.4,3.42-9.88.16-1.01-1.33-1.9-1.83-.77-1.36,3.08-2.08,6.32-2.07,9.69,0,.53.46,1.01,1,1,1.85-.05,2.39-1.95,2.93-3.4.81-2.22,1.47-4.48,1.99-6.78l-1.96-.27-.5,3.81c-.13,1.02,1.41,1.31,1.86.5,1.18-2.1.38-4.72,1.62-6.73l-1.73-1.01c-2.57,6.06-4.85,12.23-6.82,18.5l1.93.53c1.04-4.09,1.93-8.22,2.66-12.38.22-1.26-1.7-1.8-1.93-.53-.66,3.7-1,7.44-1,11.21,0,.5.46,1.06,1,1,1.11-.13,1.46-.87,1.64-1.9.25-1.49.34-3.01.32-4.52s-.15-2.86-.37-4.28c-.18-1.12-.43-2.08-1.58-2.49-.53-.19-1.07.22-1.23.7-.81,2.46-1.49,4.96-2.04,7.49l1.96.27c-.22-2.24-.62-4.44-1.23-6.61-.25-.9-1.74-1.01-1.93,0-.45,2.43-.59,4.86-.37,7.32.1,1.09,1.63,1.4,1.96.27.66-2.26.75-4.54.32-6.85-.21-1.14-1.94-.83-1.96.27-.06,2.41.03,4.81.28,7.21.11,1.04,1.69,1.45,1.96.27.59-2.6.5-5.24-.31-7.79-.29-.89-1.7-1.01-1.93,0-.52,2.26-.58,4.49-.22,6.78.18,1.15,1.94.82,1.96-.27.06-2.44-.3-4.83-1.08-7.14-.36-1.05-1.94-.89-1.96.27-.04,1.68.1,3.32.37,4.98.19,1.13,1.98.84,1.96-.27-.03-2.14-.49-4.14-1.35-6.1-.41-.93-1.88-.43-1.86.5.06,2.57.33,5.12.8,7.64.21,1.11,2.02.86,1.96-.27-.1-1.96-.49-3.85-1.24-5.67-.39-.95-2.05-.97-1.96.27.24,3.63.74,7.22,1.49,10.78.23,1.08,2.09.86,1.96-.27-.24-2.22-.8-4.3-1.71-6.33-.34-.76-1.34-.53-1.73,0-.8,1.08-.6,2.81-.68,4.08-.11,1.72-.22,3.45-.33,5.17l1.96-.27c-.71-2.44-1.42-4.89-2.14-7.33-.32-1.08-1.95-.87-1.96.27-.06,3.65.07,7.29.38,10.93l1.96-.27c-.26-1.71-.45-3.4-.26-5.13l-1.96.27c1.35,3.68,2.9,7.29,4.65,10.81.39.79,1.61.55,1.83-.24,1.11-4,2.21-8.01,3.32-12.01.53-1.92,1.07-3.84,1.59-5.77s.89-3.67.54-5.61c-.2-1.11-2.01-.85-1.96.27.27,5.93,2.4,11.56,2.79,17.47.09,1.4.09,2.81-.09,4.21s-.76,2.64-.85,3.97c-.06.9.24,1.81,1.03,2.32.37.24.83.37,1.27.32.19-.02,1.18-.37.83-.49l-.7-1.23c-.18,1.19-.54,2.28-1.12,3.33l1.73,1.01c.51-1,1.02-2,1.53-2.99s-.74-2.04-1.57-1.21c-.45.45-.92.76-1.5,1.02-1.17.53-.16,2.25,1.01,1.73.73-.33,1.34-.76,1.91-1.33l-1.57-1.21c-.51,1-1.02,2-1.53,2.99-.58,1.14,1.1,2.14,1.73,1.01.66-1.2,1.11-2.45,1.32-3.81.09-.57-.14-1.03-.7-1.23-.34-.12-.61-.12-.95.01-.32.13-.54.47-.71.27-.25-.29.28-1.51.36-1.84.15-.59.27-1.19.37-1.79.38-2.45.29-4.91-.04-7.36-.67-5.09-2.32-10.02-2.55-15.17l-1.96.27c.36,1.95-.36,3.89-.87,5.75l-1.53,5.53c-1.02,3.68-2.03,7.37-3.05,11.05l1.83-.24c-1.67-3.36-3.15-6.8-4.44-10.33-.4-1.09-1.84-.86-1.96.27-.21,1.91.05,3.78.33,5.66.17,1.11,2.06.86,1.96-.27-.31-3.64-.43-7.28-.38-10.93l-1.96.27c.71,2.44,1.42,4.89,2.14,7.33.32,1.11,1.89.84,1.96-.27.09-1.41.18-2.82.27-4.23.04-.63.08-1.25.12-1.88.04-.67-.07-1.57.35-2.13h-1.73c.75,1.69,1.23,3.49,1.43,5.32l1.96-.27c-.72-3.38-1.19-6.8-1.42-10.25l-1.96.27c.68,1.66,1.08,3.34,1.17,5.13l1.96-.27c-.44-2.35-.68-4.72-.73-7.11l-1.86.5c.72,1.62,1.06,3.32,1.08,5.09l1.96-.27c-.25-1.47-.34-2.95-.3-4.44l-1.96.27c.73,2.15,1.07,4.33,1.01,6.61l1.96-.27c-.3-1.91-.21-3.83.22-5.71h-1.93c.71,2.21.83,4.45.31,6.72l1.96.27c-.25-2.4-.34-4.8-.28-7.21l-1.96.27c.36,1.95.24,3.88-.32,5.78l1.96.27c-.2-2.28-.11-4.54.3-6.79h-1.93c.56,2,.95,4.02,1.16,6.08.1,1.04,1.71,1.45,1.96.27.55-2.53,1.23-5.03,2.04-7.49l-1.23.7c.16.06.28,1.77.3,2,.1.86.15,1.73.17,2.6.01.79,0,1.58-.06,2.37-.04.54.03,2.17-.38,2.56l.71-.29-.23.03,1,1c0-3.58.3-7.15.93-10.68l-1.93-.53c-.73,4.16-1.62,8.28-2.66,12.38-.32,1.25,1.54,1.76,1.93.53,1.92-6.11,4.12-12.13,6.61-18.02.49-1.15-1.03-2.14-1.73-1.01-1.29,2.08-.46,4.66-1.62,6.73l1.86.5.5-3.81c.15-1.12-1.72-1.35-1.96-.27-.35,1.53-.75,3.05-1.23,4.55-.19.6-1.03,4.15-1.76,4.17l1,1c0-3,.59-5.93,1.8-8.68l-1.83-.77c-.52,3.32-1.59,6.47-3.22,9.4l1.83.77c.52-3.33,1.56-6.5,3.14-9.48l-1.86-.5c-.11,3.75-.66,7.43-1.62,11.05-.33,1.25,1.55,1.76,1.93.53.47-1.52.93-3.05,1.4-4.57.16-.52.86-3.98,1.48-3.95l-.96-.73c.49,2.79-.11,5.58-1.59,7.98l1.86.5c-.12-3.01.21-5.96,1.01-8.87l-1.96-.27c-.47,3.63-.97,7.33-2.45,10.71l1.86.5c0-3.62.62-7.15,1.84-10.56h-1.93c.59,2.81.4,5.62-.5,8.34l1.96.27c.33-2.49.86-4.94,1.55-7.36l-1.96-.27c.03,1.7-.05,3.4-.34,5.08-.13.77-.29,1.53-.49,2.28-.08.29-.28,1.63-.65,1.78l1.23.7c-.43-2.15,0-4.24,1.16-6.09l-1.86-.5c.09,3.48-.48,6.87-1.69,10.14l1.96.27c-.09-1.12,0-2.19.25-3.28.1-.44.22-.88.35-1.31.08-.29.17-.58.26-.86.3-.4.28-.56-.07-.49l-.6-.46c.32.49.24,1.45.26,2.03.04.76.03,1.51-.01,2.27-.09,1.5-.37,2.97-.77,4.42h1.93c-.51-3.15-.52-6.37-.05-9.53h-1.93c.62,2.84.87,5.7.79,8.6l1.96-.27c-.44-3.17-.52-6.38-.31-9.57l-1.96.27c.82,2.6,1.09,5.24.82,7.95h2c-.29-2.71-.29-5.42-.01-8.13l-1.96.27c.46,2.33.7,4.67.72,7.04h2c-.12-3.32.01-6.63.39-9.93l-1.96.27c.88,3.93,1.46,7.91,1.75,11.93h2c-.23-2.8-.4-5.6-.51-8.4l-1.96.27c.62,2.18.91,4.38.89,6.65l1.96-.27c-.33-2.3-.65-4.61-.98-6.91-.16-1.12-2.01-.85-1.96.27.07,1.73.15,3.47.22,5.2.03.79.07,1.58.1,2.36.03.74.28,1.94-.28,2.54l1.67.44c-.8-2.93-1.47-5.89-2.03-8.88-.24-1.28-2.11-.71-1.93.53.58,4.01.6,8.1.05,12.11l1.67-.44c-.65-.58-.62-1.55-.71-2.36-.09-.87-.17-1.75-.23-2.63-.13-1.84-.19-3.67-.19-5.51,0-1.11-1.68-1.37-1.96-.27-1.85,7.32-2.86,14.82-3.02,22.36-.02,1.1,1.76,1.4,1.96.27.53-2.92.91-5.87,1.14-8.83.09-1.13-1.69-1.34-1.96-.27-.78,3.04-1.3,6.12-1.57,9.24-.11,1.2,1.59,1.24,1.96.27,1.3-3.41,2.71-6.77,4.25-10.08h-1.73c1.17,1.91,1.98,3.92,2.46,6.11.12.57.72.78,1.23.7,1.68-.26,1.62-2.52,1.78-3.77.3-2.28.59-4.55.89-6.83l-1.96.27c.94,2.27,1.4,4.62,1.36,7.07l1.96-.27c-.58-2.19-1.05-4.4-1.4-6.63-.17-1.1-2.1-.86-1.96.27.23,1.98.45,3.97-.04,5.92h1.93c-.6-3.9-1.1-7.81-1.52-11.73-.14-1.27-1.9-1.3-2,0-.15,1.93-.3,3.87-.45,5.8-.14,1.83-.09,3.84-.92,5.52l1.83.24c-1.27-4.66-1.78-9.43-1.55-14.25h-2c-.09,5.1-.19,10.22-.88,15.28l1.83-.24c-1.08-2.19-.97-4.94-1.18-7.33-.23-2.54-.45-5.08-.68-7.63-.11-1.27-1.95-1.3-2,0-.21,5.45-.41,10.9-.62,16.35l1.86-.5c-1.33-2.13-1.56-4.95-1.91-7.4-.38-2.69-.61-5.4-.71-8.12h-2c.75,5.63,1,11.3.76,16.97l1.71-.71c-1.74-1.42-2.01-4.36-2.41-6.42-.51-2.62-.85-5.27-1.19-7.92-.16-1.26-1.89-1.31-2,0-.15,1.91-.31,3.82-.46,5.72-.12,1.5.09,3.78-1.05,4.94l1.67.44c-.96-2.87-1.47-5.82-1.5-8.85l-1.96.27c.75,2.84,1.26,5.71,1.51,8.63h2c-.23-2.58-.47-5.16-.7-7.74-.12-1.29-.23-2.58-.35-3.87s-.45-2.63-.03-3.82l-1.83.24c2.01,3.78,3.17,7.91,3.43,12.19l1.96-.27c-1.66-4.94-2.55-10.06-2.63-15.27l-1.96.27c1.62,4.6,2.59,9.36,2.87,14.23l1.96-.27c-1.06-4.18-1.82-8.43-2.28-12.72l-1.96.27c1.83,4.74,3.05,9.69,3.57,14.76l1.96-.27c-.84-4.59-1.4-9.22-1.68-13.87l-1.96.27c1.16,3.79,1.87,7.67,2.09,11.63h2c-.46-4.18-.79-8.36-.99-12.56l-1.96.27c.78,4.2,1.24,8.43,1.42,12.69.05,1.28,2.03,1.29,2,0-.11-5.01.08-10.01.59-14.99.13-1.28-1.87-1.27-2,0h0Z"/>
    <g>
      <path class="cls-1" d="M89.48,5.22c-2.61,4.68-4.71,8.5-6.12,11.07-2.53,4.62-5.27,9.12-7.87,13.7-2.08,3.67-3.05,5.42-5.24,7.28-3.35,2.85-6.82,3.63-7.58,3.79-4.86,1.02-8.8-.49-10.49-1.17-4.15-1.66-6.83-4.27-13.11-12.24-3.22-4.08-7.23-9.37-11.66-15.73"/>
      <path class="cls-1" d="M116.87,55.05c-6.92.23-12.53.29-16.32.29-10.53.01-15.6-.32-20.11,3.21-2.99,2.34-3.66,4.75-3.79,5.24-1.21,4.71,2.35,8.95,2.91,9.62,3.36,4,8.17,4.94,13.11,5.83,11.16,2.01,19.53,3.47,26.52,4.66"/>
      <path class="cls-1" d="M11.1,84.77c7.45-4.01,14.05-6.4,18.94-7.87,4.91-1.47,9.86-2.54,15.73-2.33,5.69.2,7.83,1.43,8.74,2.04,3.97,2.66,5.16,7.18,5.83,9.91,1.14,4.63.83,8.69-1.46,19.23-1.09,5.02-2.6,11.36-4.66,18.65"/>
      <path class="cls-1" d="M41.4,30.57c1.21,1.89,7.18,12.71,8.16,16.61.61,2.41,1.83,7.29.29,12.82-2.2,7.88-15.88,15.2-17.77,16.32"/>
      <path class="cls-1" d="M74.62,31.45c-.23,1.68-2.81,11-1.17,14.86.59,1.39,1.94,4.45,5.24,6.7,1.8,1.23,14.03,2.07,15.15,2.33"/>
      <path class="cls-1" d="M86.27,77.78c-1.21-.59-8.61-2-12.24-.87-.69.22-2.5.87-5.24,3.79-1.8,1.92-7.74,18.19-9.62,23.6"/>
    </g>
  </g>
  <path class="cls-2" d="M56.98,73.72c1.65,3.65,3.19,7.34,4.63,11.07l.91-.39c-1.03-2.38-1.32-4.98-1.6-7.54l-.98.13c.77,3.1,1.27,6.24,1.49,9.43l.98-.13c-.58-2.89-1.09-5.79-1.52-8.7l-.96.27c.79,3.07,1.47,6.18,2.03,9.3.11.64,1.06.36.96-.27-.48-3.28-1.14-6.52-1.98-9.72-.16-.62-1.13-.36-.96.27.84,3.2,1.5,6.45,1.98,9.72l.96-.27c-.56-3.13-1.23-6.23-2.03-9.3-.17-.64-1.06-.35-.96.27.43,2.91.94,5.81,1.52,8.7.11.55,1.02.43.98-.13-.23-3.27-.74-6.51-1.52-9.69-.13-.53-1.04-.44-.98.13.3,2.74.64,5.48,1.74,8.04.22.51,1.12.14.91-.39-1.48-3.81-3.05-7.58-4.74-11.31-.26-.59-1.13-.08-.86.5h0Z"/>
</svg>