<?xml version="1.0" encoding="UTF-8"?>
<svg id="_Слой_1" data-name="Слой 1" xmlns="http://www.w3.org/2000/svg" viewBox="0 0 571.91 571.91">
  <defs>
    <style>
      .cls-1 {
        fill: #9d5187;
        stroke: #000;
        stroke-miterlimit: 10;
      }
    </style>
  </defs>
  <path class="cls-1" d="M202.64,40.96c-3.42.98,43.54,145.05,31.89,170.33-7.74,16.78-23.65,25.97-42,36.56-16.21,9.36-30.7,13.79-38.69,16.19-13.6,4.08-121.16,9.98-130.09,11.03,7.04-1.82,120.01-9.16,140-2.33,7,2.39,23.57,8.31,35,24.89,16.38,23.76,9.58,51.1,7.78,58.33-2.79,11.23-76.72,91.24-80.11,96.44,6.65-3.81,85.38-80.45,97.22-85.55,14.46-6.23,21.69-9.35,29.56-10.11,20.09-1.95,36.41,12.35,48.22,22.56,23.65,20.45,57.88,121.72,63,137.67-3.88-12.99-31.83-110.73-28.78-136.89,1.63-13.99,3.73-31.95,14.78-47.44,24.72-34.68,198.72-4.29,205.33-3.89-5.42-1.26-122.89-24.11-143.89-43.56-18.87-17.47-22.99-34.53-23.33-38.89-3.89-49,145.54-127.15,148.55-129.89-5.94,2.89-139.22,77.83-150.11,82.44-25.96,10.99-38.95,16.49-52.89,18.67-7.55,1.18-43.35,6.77-68.44-13.22-22.55-17.97-59.61-164.3-63-163.33Z"/>
</svg>