<?xml version="1.0" encoding="UTF-8"?>
<svg id="_Слой_1" data-name="Слой 1" xmlns="http://www.w3.org/2000/svg" viewBox="0 0 721.02 721.02">
  <defs>
    <style>
      .cls-1 {
        fill: #6db7a6;
        stroke: #000;
        stroke-miterlimit: 10;
      }
    </style>
  </defs>
  <path class="cls-1" d="M255.81,60.28c4.84,29.04,19.74,159.19,20.33,173.27.97,23.23,2.9,25.17-.97,52.27-.91,6.37-5.87,12.76-11.62,14.52-18.98,5.81-125.64-143.98-134.55-159.71,6.41,13.78,63.58,102.73,77.44,125.84,8.71,14.52,25.17,44.53,17.42,63.89-11.69,29.23-188.84,14.69-207.14,19.36,9.41-2.56,161.4,20.63,180.04,23.23,6.78.95,52.76,8.16,77.44,50.33,5.77,9.86,7.55,40.23.97,72.6-2.83,13.92-51.99,138.67-56.14,145.19,10.81-8.78,95.83-151,120.03-158.75,21.64-6.92,21.1-6.27,39.69-4.84,31.98,2.45,107.71,137.55,115.19,147.13-2.4-6.12-64.46-138.7-55.17-163.59,2.32-6.22,8.01-37.42,58.08-47.43,29.04-5.81,156.29-13.88,214.89-12.58-11.99-1.87-117.32-12-137.45-14.52-23.23-2.9-46.83-7.4-73.57-17.42-15.49-5.81-37.75-18.39-44.53-38.72-14.34-43.01,96.41-129.56,100.67-136.48-6.5,2.83-105.51,87.12-119.06,95.83-26.88,17.28-47.2,16.56-64.85,14.52-23.02-2.66-38.27-17.93-52.27-31.94-33.74-33.78-60.6-188.21-64.85-211.98Z"/>
</svg>