<?xml version="1.0" encoding="UTF-8"?>
<svg id="_Слой_1" data-name="Слой 1" xmlns="http://www.w3.org/2000/svg" viewBox="0 0 500 500">
  <defs>
    <style>
      .cls-1 {
        stroke-width: 0px;
      }
    </style>
  </defs>
  <path class="cls-1" d="M325.71,405.18c8.03-2.84,15.87-6.21,23.44-10.09s14.95-8.3,21.96-13.18c3.95-2.75,7.79-5.65,11.52-8.68.5-.41-.21-1.11-.71-.71-6.57,5.34-13.49,10.24-20.71,14.66s-14.68,8.32-22.4,11.73c-4.39,1.94-8.85,3.7-13.37,5.3-.6.21-.34,1.18.27.96h0Z"/>
  <path class="cls-1" d="M280.85,392.9c6.95-2.48,13.77-5.3,20.43-8.47s13.21-6.69,19.53-10.53,12.47-7.99,18.38-12.44c5.89-4.43,11.57-9.16,16.99-14.16s10.62-10.31,15.52-15.86c.62-.7,1.23-1.4,1.83-2.1.42-.49-.29-1.2-.71-.71-4.81,5.58-9.89,10.92-15.24,15.99-5.33,5.05-10.92,9.83-16.73,14.32s-11.85,8.69-18.08,12.58-12.69,7.49-19.3,10.74-13.37,6.16-20.26,8.72c-.87.32-1.75.64-2.62.95-.6.21-.34,1.18.27.96h0Z"/>
  <path class="cls-1" d="M328.68,141.96c-6.47-5.2-13.03-10.28-19.69-15.24s-13.46-9.83-20.33-14.56-13.82-9.32-20.86-13.79-14.16-8.8-21.36-13c-7.2-4.2-14.48-8.26-21.83-12.19-.91-.49-1.83-.97-2.75-1.46-.57-.3-1.07.56-.5.86,7.33,3.88,14.6,7.89,21.78,12.03,7.19,4.15,14.29,8.43,21.32,12.84s14.04,8.99,20.92,13.68c6.86,4.67,13.63,9.47,20.31,14.39s13.32,10.01,19.83,15.2c.81.65,1.62,1.29,2.43,1.94.5.4,1.21-.3.71-.71h0Z"/>
  <path class="cls-1" d="M118.07,310.01c-2.75-11.34-4.65-22.87-5.64-34.5-1-11.59-1.12-23.25-.36-34.85.43-6.55,1.14-13.08,2.13-19.58.1-.63-.87-.9-.96-.27-1.77,11.58-2.67,23.29-2.66,35,0,11.71.91,23.42,2.68,35,1,6.53,2.29,13.02,3.85,19.45.15.63,1.12.36.96-.27h0Z"/>
  <path class="cls-1" d="M156.79,318.46c-5.3-14.08-9.56-28.55-12.74-43.25s-5.27-29.71-6.25-44.76c-.55-8.45-.74-16.91-.58-25.37.01-.64-.99-.64-1,0-.28,15.12.57,30.26,2.53,45.26s5,29.78,9.13,44.3c2.31,8.14,4.97,16.18,7.95,24.1.22.6,1.19.34.96-.27h0Z"/>
  <path class="cls-1" d="M327.72,202.75c-6.65-8.1-13.79-15.8-21.37-23.04s-15.61-14.02-24.01-20.3-17.19-12.33-26.58-17.06-18.74-7.77-28.84-7.74c-9.02.02-18.23,2.56-25.31,8.3-.85.69-1.67,1.43-2.45,2.21-.46.46.25,1.16.71.71,6.45-6.43,15.41-9.61,24.39-10.13,9.95-.58,19.72,2.17,28.66,6.38s18.05,10.26,26.39,16.34,16.33,12.66,23.89,19.7,14.71,14.53,21.38,22.42c.82.97,1.64,1.95,2.44,2.93.41.5,1.11-.21.71-.71h0Z"/>
  <path class="cls-1" d="M257.74,362.26c9.72-4.56,19.18-9.67,28.32-15.3,9.05-5.58,17.78-11.66,26.15-18.22,7.71-6.04,15.14-12.46,21.9-19.56s12.42-14.31,17.11-22.52,7.95-16.81,9.33-25.97c.17-1.12.31-2.24.42-3.37.07-.64-.94-.64-1,0-.94,9.21-3.9,18.09-8.21,26.26s-10.06,15.85-16.37,22.76-13.61,13.46-21.07,19.46c-8.28,6.65-16.93,12.83-25.91,18.51-8.91,5.64-18.14,10.78-27.63,15.39-1.18.57-2.37,1.14-3.56,1.7-.58.27-.08,1.14.5.86h0Z"/>
  <path class="cls-1" d="M203.68,337.41c28.68,15.2,103.91-18.96,103.19-75.23-.63-49.64-59.96-85.47-89.97-74.74-42.23,15.1-49.66,130.65-13.22,149.97Z"/>
</svg>