<?xml version="1.0" encoding="UTF-8"?>
<svg id="_Слой_1" data-name="Слой 1" xmlns="http://www.w3.org/2000/svg" viewBox="0 0 500 500">
  <defs>
    <style>
      .cls-1 {
        stroke-width: 0px;
      }
    </style>
  </defs>
  <path class="cls-1" d="M303.01,129.02c-8.63-3.48-17.45-6.46-26.43-8.92-8.93-2.45-18-4.39-27.15-5.81s-18.39-2.33-27.64-2.72c-9.25-.39-18.53-.25-27.76.41-9.2.66-18.36,1.84-27.42,3.55-1.16.22-2.32.45-3.47.68-.63.13-.36,1.09.27.96,9.07-1.84,18.25-3.16,27.48-3.95s18.41-1.03,27.63-.77c9.25.26,18.5,1.05,27.66,2.35,9.13,1.3,18.18,3.12,27.1,5.44,8.92,2.32,17.71,5.15,26.3,8.48,1.06.41,2.12.83,3.17,1.25.6.24.86-.73.27-.96h0Z"/>
  <path class="cls-1" d="M182.71,403.35c-13.02-8.37-25.11-18.14-36.09-29.04-10.98-10.9-20.85-22.92-29.46-35.77-8.65-12.91-16.05-26.66-22.03-41s-10.51-29.03-13.56-44.14-4.58-30.63-4.43-46.1c.02-1.9.06-3.81.13-5.71.02-.64-.98-.64-1,0-.56,15.55.57,31.15,3.27,46.47s6.97,30.38,12.65,44.88,12.73,28.36,21.07,41.45,17.99,25.44,28.77,36.67c10.7,11.15,22.52,21.22,35.29,29.92,1.62,1.1,3.25,2.18,4.89,3.24.54.35,1.04-.52.5-.86h0Z"/>
  <path class="cls-1" d="M413.58,359.4c4.29-6.08,8.26-12.38,11.88-18.88s6.92-13.26,9.83-20.14,5.44-13.79,7.6-20.88,3.99-14.41,5.4-21.75,2.42-14.63,3.04-22.01c.08-.94.15-1.87.22-2.81.05-.64-.95-.64-1,0-.52,7.41-1.44,14.79-2.76,22.11s-3.01,14.5-5.09,21.61-4.52,14.11-7.33,20.96-6,13.6-9.53,20.14c-3.5,6.48-7.34,12.78-11.51,18.85-.53.77-1.07,1.54-1.61,2.31-.37.53.49,1.03.86.5h0Z"/>
  <path class="cls-1" d="M335.94,375.22c6.25-9.19,11.89-18.79,16.86-28.73s9.26-20.11,12.89-30.56c3.64-10.45,6.6-21.14,8.87-31.98s3.84-21.81,4.69-32.84.98-22.22.36-33.31c-.08-1.38-.17-2.76-.27-4.14-.05-.64-1.05-.64-1,0,.8,11.04.87,22.13.2,33.18-.67,11.05-2.06,22.05-4.16,32.92s-4.87,21.51-8.33,31.98-7.61,20.8-12.42,30.78-10.21,19.55-16.26,28.76c-.76,1.16-1.53,2.31-2.31,3.45-.36.53.5,1.03.86.5h0Z"/>
  <path class="cls-1" d="M255.04,356.21c37.2-9.32,72.8-112.72,23.1-154.85-36.12-30.62-104.8-18.28-122.46,14.02-26.52,48.5,56.77,151.5,99.36,140.83Z"/>
</svg>