<?xml version="1.0" encoding="UTF-8"?>
<svg id="_Слой_1" data-name="Слой 1" xmlns="http://www.w3.org/2000/svg" viewBox="0 0 500 500">
  <defs>
    <style>
      .cls-1 {
        stroke-width: 0px;
      }
    </style>
  </defs>
  <path class="cls-1" d="M363.73,267.37c3.58-5.75,6.35-11.99,8.29-18.47s3.04-13.17,3.35-19.9-.18-13.6-1.46-20.27-3.33-13.1-6.15-19.22c-2.83-6.15-6.44-11.93-10.78-17.13-.55-.65-1.1-1.3-1.67-1.93-.43-.48-1.13.23-.71.71,4.46,4.99,8.21,10.58,11.19,16.56s5.2,12.34,6.65,18.87,2.11,13.19,2,19.86-1.01,13.36-2.73,19.82-4.24,12.7-7.59,18.48c-.41.71-.83,1.41-1.27,2.11-.34.55.52,1.05.86.5h0Z"/>
  <path class="cls-1" d="M79.45,249.08c-.95-7.97-1.26-16.01-.93-24.03.33-8.04,1.28-16.06,2.85-23.95s3.74-15.7,6.49-23.27,6.07-14.92,9.95-21.98,8.3-13.81,13.25-20.15c.61-.78,1.23-1.56,1.86-2.33.4-.5-.3-1.21-.71-.71-5.11,6.29-9.71,12.98-13.76,20s-7.5,14.3-10.41,21.82-5.28,15.39-7.01,23.34c-1.72,7.88-2.85,15.9-3.34,23.95s-.36,16.26.44,24.35c.1.99.21,1.98.33,2.97.08.63,1.08.64,1,0h0Z"/>
  <path class="cls-1" d="M117.57,258.2c-1.27-8.48-1.93-17.05-1.99-25.63s.48-17.03,1.59-25.47,2.81-16.86,5.07-25.1c2.26-8.24,5.07-16.33,8.44-24.17s7.25-15.41,11.67-22.69c.56-.92,1.13-1.84,1.7-2.75.34-.55-.52-1.05-.86-.5-4.61,7.29-8.69,14.9-12.21,22.77s-6.48,15.92-8.89,24.17-4.24,16.65-5.49,25.15-1.94,17.09-2.02,25.68.44,17.17,1.58,25.68c.14,1.04.29,2.08.44,3.12.1.63,1.06.36.96-.27h0Z"/>
  <path class="cls-1" d="M151.77,269.62c-1.68-11.08-2.42-22.3-2.23-33.51.19-11.16,1.29-22.31,3.26-33.29s4.81-21.74,8.47-32.25,8.2-20.79,13.51-30.61,11.43-19.21,18.3-28c.87-1.11,1.75-2.21,2.63-3.3.4-.49-.3-1.21-.71-.71-7.11,8.72-13.48,18.03-19.04,27.82s-10.28,19.94-14.19,30.44-7.03,21.5-9.24,32.58-3.5,22.16-3.91,33.36.11,22.52,1.58,33.67c.18,1.35.37,2.7.58,4.05.1.63,1.06.36.96-.27h0Z"/>
  <path class="cls-1" d="M211.4,381.36c9.77,3.41,19.81,6.02,30,7.82,10.15,1.79,20.43,2.78,30.74,2.98s20.63-.4,30.84-1.77,20.4-3.54,30.32-6.5,19.6-6.69,28.91-11.19c1.15-.55,2.28-1.12,3.42-1.69.57-.29.07-1.15-.5-.86-9.19,4.66-18.75,8.57-28.57,11.7-9.78,3.11-19.8,5.45-29.93,7.02s-20.49,2.35-30.8,2.34c-10.26-.01-20.52-.8-30.65-2.4s-20.14-3.99-29.89-7.18c-1.21-.4-2.41-.8-3.61-1.22-.61-.21-.87.75-.27.96h0Z"/>
  <path class="cls-1" d="M194.28,351.16c10.95,3.04,22.03,5.69,33.25,7.55s22.39,2.93,33.66,2.81c10.06-.1,20.11-1.16,29.92-3.43,9.25-2.14,18.28-5.32,26.74-9.66,8.35-4.28,16.14-9.7,22.87-16.25.86-.84,1.7-1.69,2.52-2.56.44-.47-.26-1.18-.71-.71-6.46,6.83-14.02,12.53-22.23,17.08-8.23,4.56-17.07,7.96-26.17,10.32-9.55,2.48-19.37,3.79-29.23,4.12-11.18.37-22.38-.46-33.43-2.12-11.11-1.66-22.08-4.13-32.92-7.03-1.34-.36-2.67-.72-4-1.09-.62-.17-.89.79-.27.96h0Z"/>
  <path class="cls-1" d="M196.8,323.18c37.88,26.24,136.92-19.02,137.39-76.22.4-48.16-69.13-96.7-112.96-80.84-52.94,19.15-63.01,130.33-24.43,157.06Z"/>
</svg>