<?xml version="1.0" encoding="UTF-8"?>
<svg id="_Слой_1" data-name="Слой 1" xmlns="http://www.w3.org/2000/svg" viewBox="0 0 500 500">
  <defs>
    <style>
      .cls-1 {
        fill: #959bcb;
      }

      .cls-1, .cls-2 {
        stroke-width: 0px;
      }
    </style>
  </defs>
  <path class="cls-2" d="M116.93,140.05c-6.78.09-13.54.74-20.21,1.92s-13.23,2.9-19.62,5.11-12.64,4.93-18.62,8.11-11.7,6.81-17.11,10.88-10.5,8.57-15.19,13.47c-.58.61-1.15,1.22-1.72,1.83-.43.47.27,1.18.71.71,4.53-4.93,9.47-9.49,14.73-13.63,5.29-4.15,10.91-7.88,16.78-11.15,5.9-3.29,12.06-6.12,18.41-8.45,6.29-2.31,12.76-4.13,19.33-5.44,6.59-1.31,13.29-2.09,20-2.31.84-.03,1.67-.05,2.51-.06.64,0,.64-1.01,0-1h0Z"/>
  <path class="cls-2" d="M141.34,171.3c-7.28,2.62-14.39,5.68-21.3,9.17s-13.58,7.39-20,11.68c-6.43,4.3-12.61,8.98-18.48,14.01s-11.43,10.4-16.65,16.09-10.1,11.72-14.59,18.02c-.56.79-1.11,1.58-1.66,2.37-.37.53.5,1.03.86.5,4.36-6.32,9.12-12.37,14.23-18.11,5.11-5.75,10.58-11.18,16.34-16.27s11.82-9.82,18.15-14.18,12.87-8.31,19.65-11.88c6.8-3.57,13.82-6.73,21-9.44.9-.34,1.81-.67,2.72-1,.6-.22.34-1.18-.27-.96h0Z"/>
  <path class="cls-2" d="M176.28,400.28c9.32,5.38,19.58,9.08,30.16,10.98,10.54,1.9,21.37,2.04,31.95.4,5.99-.93,11.89-2.46,17.58-4.56.6-.22.34-1.19-.27-.96-9.98,3.68-20.58,5.57-31.22,5.66-10.64.09-21.28-1.59-31.36-4.99-5.67-1.92-11.15-4.39-16.34-7.39-.56-.32-1.06.54-.5.86h0Z"/>
  <path class="cls-2" d="M114.01,391.04c6.43,7.94,13.72,15.17,21.67,21.58s16.52,11.97,25.57,16.66,18.57,8.5,28.36,11.35,19.85,4.74,30.01,5.6,20.37.68,30.47-.6c1.24-.16,2.47-.33,3.71-.52.63-.1.36-1.06-.27-.96-10.02,1.53-20.2,1.96-30.32,1.34-10.12-.61-20.17-2.27-29.96-4.88s-19.35-6.19-28.46-10.66-17.66-9.76-25.66-15.89c-8.04-6.16-15.46-13.16-22.03-20.87-.8-.94-1.59-1.9-2.37-2.86-.4-.5-1.11.21-.71.71h0Z"/>
  <path class="cls-2" d="M316.38,62.5c17.2,3.57,33.87,9.62,49.33,17.95,15.36,8.27,29.54,18.79,41.71,31.3,12.44,12.79,22.71,27.66,29.92,44,7.45,16.88,11.72,35.19,12.45,53.63.73,18.27-2.04,36.71-8.65,53.79-.83,2.16-1.73,4.28-2.69,6.39-.26.58.6,1.09.86.5,7.62-16.82,11.41-35.19,11.58-53.62s-3.26-37.19-9.94-54.52c-6.5-16.87-16.12-32.38-28.16-45.85-11.74-13.16-25.66-24.34-40.86-33.25-15.26-8.96-31.86-15.66-49.05-19.86-2.08-.51-4.16-.98-6.25-1.41-.63-.13-.9.83-.27.96h0Z"/>
  <path class="cls-2" d="M253.66,103.06c14.26,5.01,28.44,10.31,42.16,16.67,13.55,6.28,26.67,13.62,38.58,22.67,11.47,8.72,21.71,19.01,29.62,31.1,7.52,11.5,13.06,24.4,15.63,37.92,2.51,13.21,2.03,27.03-2.33,39.8-.54,1.58-1.14,3.13-1.78,4.67-.25.59.72.85.96.27,5.31-12.59,6.72-26.47,4.93-39.96s-6.74-26.83-13.72-38.67-16.92-23.08-28-32.19c-11.67-9.6-24.7-17.4-38.26-24.02s-27.87-12.19-42.19-17.32c-1.78-.64-3.56-1.27-5.34-1.89-.61-.21-.87.75-.27.96h0Z"/>
  <path class="cls-2" d="M219.07,131.73c10.28,5.35,20.53,10.8,30.47,16.77s19.54,12.44,28.44,19.84c8.66,7.2,16.63,15.24,23.3,24.33s11.84,18.63,15.38,29.04,5.22,21.26,4.45,32.15c-.09,1.31-.22,2.62-.38,3.93-.08.64.92.63,1,0,1.35-10.86.21-21.91-2.85-32.4s-8.08-20.66-14.3-29.79-14.06-17.68-22.56-25.13c-8.74-7.65-18.26-14.36-28.12-20.48-9.92-6.15-20.19-11.72-30.52-17.14-1.27-.66-2.54-1.33-3.81-1.99-.57-.3-1.08.57-.5.86h0Z"/>
  <path class="cls-2" d="M194.55,175.79c-60.54.41-123.46,97.35-96,155.23,29.71,62.63,159.1,66.58,192,16.34,34.01-51.93-28.35-172.03-96-171.57Z"/>
  <path class="cls-1" d="M188.42,127.27c.64,0,.64-1,0-1s-.64,1,0,1h0Z"/>
  <path class="cls-1" d="M188.42,127.27c.64,0,.64-1,0-1s-.64,1,0,1h0Z"/>
</svg>