<?xml version="1.0" encoding="UTF-8"?>
<svg id="_Слой_1" data-name="Слой 1" xmlns="http://www.w3.org/2000/svg" viewBox="0 0 1920 1080">
  <defs>
    <style>
      .cls-1 {
        fill: none;
      }

      .cls-1, .cls-2, .cls-3, .cls-4 {
        stroke: #000;
        stroke-miterlimit: 10;
      }

      .cls-2, .cls-3 {
        fill: #1d1d1b;
      }

      .cls-2, .cls-4 {
        opacity: .8;
      }

      .cls-5, .cls-6 {
        stroke-width: 0px;
      }

      .cls-6 {
        fill: #6db7a6;
      }
    </style>
  </defs>
  <rect class="cls-6" width="1920" height="1080"/>
  <path class="cls-5" d="M1496.61,463.56c-49.05-101.03-114.88-198.15-206.51-265.16-47.8-34.95-102.04-60.13-159.99-72.64-67.02-14.47-136.43-12.96-204.18-4.89-33.97,4.05-67.72,9.76-101.32,16.2s-69.89,13.87-104.22,23.34c-63.63,17.56-122.96,45.18-177.62,82.15-52.18,35.3-100.35,77.23-144.12,122.48s-78.81,95.16-81.43,158.06c-2.66,63.91,25.93,125,59.02,177.97,32.09,51.37,69.68,100.44,110.85,144.87,39.96,43.13,85.27,82.02,137.19,110.07,56.71,30.63,119.46,45.22,183.58,48.43,69.57,3.48,139.07-4.79,208.09-12.56,34.87-3.93,69.75-7.4,104.71-10.35,34.61-2.92,69.3-5.98,103.48-12.33,57.69-10.72,115.87-32.14,158-74.52,19.95-20.07,34.74-44.37,42.52-71.64,9.24-32.4,10-67.06,8.83-100.51-2.42-69.06-17.93-137.36-43.11-201.6-11.92-30.42-25.52-60.73-44.55-87.44-17.81-25.01-40.75-45.57-65.84-63.07-26.59-18.55-55.27-33.96-83.97-48.95s-60.54-30.4-92.22-42.33c-65.32-24.6-134.85-33.97-204.37-34.96-124.7-1.78-255.86,26.8-351.38,111.43-41.19,36.5-74.78,82.52-92.62,134.87-21.34,62.66-17.62,131.98,2.67,194.42,9.5,29.25,24.42,55.34,48.84,74.58,24.74,19.5,54.26,32.79,82.25,46.86,60.4,30.37,122.92,58.67,189.8,71.09,68.55,12.73,139.66,8,208.37-1.17,60.95-8.13,123.7-22.83,174.42-59.31,82.67-59.47,115.05-182.51,54.2-268.6-17.39-24.6-40.12-44.89-64.14-62.82-25.83-19.28-53.29-36.59-82.13-51-56.46-28.2-119.7-44.75-182.98-35.96-62.06,8.63-122.47,37.87-172.05,75.63-43.21,32.9-80.75,76.33-97,128.96-7.81,25.3-12.87,56.76,3.39,79.93,7.79,11.1,19.59,18.44,31.68,24.07,14.27,6.65,29.32,11.84,44.2,16.94,65.53,22.47,133.96,36.43,203.03,41.63,32.91,2.48,66.35,3.59,99.3,1.22,24.84-1.79,50.07-6.05,73.05-15.99,21.21-9.17,40.35-23.96,50.1-45.41,12.34-27.15,7.43-59.18-3.85-85.81-21.84-51.57-70.63-88.5-125.65-97.42-29.97-4.86-61.3-2.04-89.78,8.57-24.67,9.19-49.75,25.71-60.07,51.03-9.34,22.89.53,46.3,21.68,58.16,25.43,14.25,55.92,7.73,80.3-5.44.57-.31.06-1.17-.5-.86-27.67,14.95-64.92,21.01-90.05-2.33-11-10.21-16.28-24.95-13.35-39.78,2.8-14.21,11.88-26.55,22.33-36.21,22.91-21.17,55.33-31.25,85.91-33.8,31.04-2.6,62.92,2.88,90.85,16.82,49.46,24.68,90.17,78.2,88.32,135.3-.93,28.76-16.19,52.9-40.36,67.87-21.72,13.44-47.46,19.61-72.56,22.73-29.55,3.67-59.72,3.21-89.41,1.93-34.23-1.47-68.36-5.11-102.14-10.86-32.32-5.51-64.3-12.96-95.72-22.31-16.02-4.77-31.89-10.05-47.58-15.81-14.36-5.28-29.2-10.49-42.05-18.95-13.46-8.87-22.67-21.63-25.85-37.55-3.02-15.13-1.04-30.86,2.55-45.7,6.36-26.35,18.37-51.06,33.96-73.17,32.21-45.67,78.51-80.42,127.85-105.75,29.42-15.1,60.57-27.24,93.05-33.8,32.26-6.52,65.32-6.82,97.75-1.29,61.99,10.57,119.45,40.18,170.47,76.05,46.68,32.81,90.19,74,103.58,131.51,11.5,49.39,1.07,102.56-24.62,145.87-29.46,49.67-78.06,81.26-132.01,99.33-28.13,9.42-57.29,15.45-86.6,19.8-33.23,4.93-66.85,8.2-100.41,9.69-35.46,1.58-71.15.72-106.28-4.67-32.52-4.99-64.3-13.94-95.16-25.26-31.46-11.54-61.97-25.5-92.01-40.29-27.75-13.66-56.38-26.92-82.41-43.72-12.69-8.19-24.66-17.65-34.5-29.18-10.68-12.52-18.48-27.24-24.42-42.52-12.07-31.01-18.86-64.76-21-97.91-3.93-60.77,11.15-120.07,43.91-171.37,64.69-101.29,178.58-156.72,294.39-175.16,64.75-10.31,131.48-10.7,196.55-3.1,33.68,3.93,67.1,10.5,99.45,20.75,32.22,10.2,63.27,23.75,93.54,38.72,28.45,14.07,56.71,28.9,83.84,45.38,26.4,16.04,51.79,34.31,72.82,57.1,21.89,23.72,37.62,52.1,50.66,81.43,13.68,30.76,25.06,62.58,33.91,95.06,17.38,63.81,26.33,132.61,18.77,198.63-3.6,31.45-13.24,61.65-32.24,87.24-16.73,22.53-38.88,40.64-63,54.76-55.02,32.21-118.91,42.34-181.46,48.38-33.67,3.25-67.4,5.66-101.03,9.23-33.34,3.54-66.62,7.6-99.99,10.92-66.32,6.6-133.78,10.57-199.94.17-59.83-9.41-115.98-31.84-166.04-65.87-47.8-32.48-89.2-73.56-126.25-117.69-38.73-46.14-75.62-95.66-103.86-148.99-29.14-55.03-49.04-118.95-32.71-181.08,15.75-59.88,61.32-106.31,104.96-147.68s92.12-80.96,144.62-112.52c56.55-33.99,117.56-56.45,181.66-71.47,65.99-15.47,133.49-28.02,201.06-33.87,65.62-5.67,132.62-3.95,196.44,13.6,109.12,30,197.21,106.05,262.71,196.13,30.94,42.56,57.32,88.3,80.29,135.6.28.58,1.14.07.86-.5h0Z"/>
  <path class="cls-5" d="M254.61,161.18c-1.83,13.53-3.65,27.06-5.48,40.58-1.83,13.53-3.65,27.06-5.48,40.58-1.02,7.59-2.05,15.18-3.07,22.77-.08.63.88.9.96.27,1.83-13.53,3.65-27.06,5.48-40.58s3.65-27.06,5.48-40.58c1.02-7.59,2.05-15.18,3.07-22.77.08-.63-.88-.9-.96-.27h0Z"/>
  <path class="cls-5" d="M189.07,217.82c16.17,1.99,32.38,3.59,48.63,4.79s32.35,2.01,48.55,2.43c9.09.24,18.19.35,27.28.34.64,0,.64-1,0-1-16.29.01-32.58-.37-48.85-1.14-16.19-.77-32.36-1.92-48.49-3.47-9.05-.87-18.1-1.86-27.12-2.97-.64-.08-.63.92,0,1h0Z"/>
  <path class="cls-5" d="M302.52,186.05c-7.38,3.15-14.68,6.5-21.89,10.03s-14.32,7.26-21.34,11.16-13.93,7.99-20.73,12.26-13.49,8.71-20.06,13.32-12.9,9.32-19.17,14.22c-.8.62-1.59,1.25-2.39,1.88-.5.4.21,1.1.71.71,6.29-4.98,12.7-9.8,19.24-14.45s13.15-9.09,19.89-13.37c6.74-4.28,13.6-8.39,20.56-12.32s14.02-7.68,21.17-11.24,14.4-6.94,21.72-10.13c.93-.4,1.86-.8,2.79-1.2.59-.25.08-1.11-.5-.86h0Z"/>
  <path class="cls-5" d="M222.01,188.85c6.65,9.66,13.29,19.32,19.94,28.97s13.29,19.32,19.94,28.97c3.72,5.41,7.45,10.82,11.17,16.23.36.53,1.23.03.86-.5-6.65-9.66-13.29-19.32-19.94-28.97-6.65-9.66-13.29-19.32-19.94-28.97-3.72-5.41-7.45-10.82-11.17-16.23-.36-.53-1.23-.03-.86.5h0Z"/>
  <path class="cls-5" d="M67.54,463.47c1.31,11.32,3.56,22.5,6.49,33.5,2.95,11.07,6.56,21.95,10.51,32.7s8.32,21.63,12.68,32.36,8.74,21.42,12.86,32.23,7.96,21.65,11.22,32.71c.4,1.37.8,2.74,1.18,4.11.17.62,1.14.36.96-.27-3.12-11.1-6.85-22.01-10.88-32.8s-8.37-21.46-12.71-32.12c-4.33-10.65-8.67-21.3-12.72-32.06-4.03-10.73-7.78-21.58-10.91-32.61-3.1-10.95-5.59-22.08-7.15-33.36-.2-1.46-.38-2.93-.55-4.4-.07-.63-1.07-.64-1,0h0Z"/>
  <path class="cls-5" d="M46.07,578.31c12.79-4.35,25.47-9,38.03-13.96s24.94-10.19,37.21-15.74c6.92-3.13,13.79-6.35,20.63-9.66.58-.28.07-1.14-.5-.86-12.08,5.86-24.3,11.42-36.65,16.69s-24.89,10.26-37.52,14.94c-7.12,2.64-14.27,5.18-21.46,7.62-.61.21-.35,1.17.27.96h0Z"/>
  <path class="cls-5" d="M121.29,504.22c-7.76,12.22-15.52,24.45-23.27,36.67s-15.43,24.3-23.14,36.46c-4.37,6.88-8.74,13.77-13.11,20.65-.35.54.52,1.05.86.5,7.76-12.22,15.52-24.45,23.27-36.67,7.71-12.15,15.43-24.3,23.14-36.46,4.37-6.88,8.74-13.77,13.11-20.65.35-.54-.52-1.05-.86-.5h0Z"/>
  <path class="cls-5" d="M57.95,512.8c5.73,6.47,11.51,12.91,17.32,19.3s11.68,12.75,17.59,19.06,11.85,12.59,17.85,18.82,12.03,12.42,18.1,18.58,12.19,12.26,18.35,18.33c.77.76,1.55,1.52,2.32,2.28.46.45,1.17-.26.71-.71-6.17-6.06-12.3-12.15-18.39-18.29s-12.13-12.32-18.13-18.54-11.96-12.49-17.88-18.79c-5.92-6.3-11.79-12.65-17.62-19.03s-11.62-12.81-17.36-19.27c-.72-.81-1.44-1.62-2.16-2.44-.43-.48-1.13.23-.71.71h0Z"/>
  <path class="cls-5" d="M351.59,841.2c-3.81,25.59-6.77,51.3-8.86,77.08-2.09,25.74-3.31,51.55-3.67,77.36-.2,14.61-.13,29.21.22,43.82.02.64,1.02.64,1,0-.61-25.82-.37-51.65.74-77.45,1.11-25.8,3.08-51.56,5.92-77.23,1.6-14.47,3.47-28.92,5.62-43.32.09-.63-.87-.9-.96-.27h0Z"/>
  <path class="cls-5" d="M274.79,922.82c9.47,2.62,18.95,5.17,28.46,7.66s19.02,4.92,28.56,7.28c9.53,2.36,19.09,4.66,28.65,6.89,9.57,2.23,19.15,4.4,28.74,6.51,9.59,2.1,19.2,4.14,28.83,6.12,1.23.25,2.45.5,3.68.75.63.13.9-.84.27-.96-9.63-1.96-19.24-3.98-28.84-6.07-9.6-2.09-19.18-4.24-28.75-6.46-9.57-2.22-19.12-4.5-28.66-6.84s-19.06-4.76-28.57-7.23-19-5.01-28.47-7.61c-1.21-.33-2.41-.66-3.62-1-.62-.17-.89.79-.27.96h0Z"/>
  <path class="cls-5" d="M377.99,914.64c-8.19,3.45-16.24,7.24-24.11,11.36-7.9,4.13-15.63,8.59-23.16,13.35s-14.87,9.85-21.98,15.22-14.02,11.04-20.68,16.98-13.05,12.15-19.18,18.62c-.75.8-1.5,1.6-2.25,2.4-.44.47.27,1.18.71.71,6.04-6.51,12.35-12.76,18.91-18.74,6.55-5.98,13.36-11.69,20.38-17.1s14.29-10.55,21.74-15.38c7.42-4.81,15.04-9.31,22.83-13.5,7.82-4.2,15.82-8.08,23.96-11.62,1.03-.45,2.06-.89,3.1-1.33.58-.25.33-1.21-.27-.96h0Z"/>
  <path class="cls-5" d="M314.86,892.91c9.6,12.68,19.05,25.48,28.32,38.41,9.23,12.86,18.29,25.84,27.18,38.93,4.99,7.35,9.93,14.73,14.82,22.15.35.54,1.22.03.86-.5-8.75-13.28-17.67-26.46-26.76-39.51s-18.25-25.86-27.62-38.61c-5.26-7.16-10.57-14.28-15.94-21.36-.38-.51-1.25,0-.86.5h0Z"/>
  <path class="cls-5" d="M1479.95,102.69c5.46,13.5,11.38,26.81,17.74,39.91,6.34,13.06,13.12,25.9,20.33,38.51,4.07,7.11,8.27,14.15,12.61,21.1.34.54,1.21.04.86-.5-7.68-12.32-14.95-24.89-21.78-37.7-6.83-12.81-13.24-25.85-19.19-39.09-3.34-7.43-6.54-14.93-9.6-22.49-.24-.59-1.21-.33-.96.27h0Z"/>
  <path class="cls-5" d="M1484.01,177.93c8.01-3.09,16.02-6.17,24.02-9.26s16.02-6.17,24.02-9.26c4.51-1.74,9.02-3.48,13.53-5.21.59-.23.34-1.2-.27-.96-8.01,3.09-16.02,6.17-24.02,9.26s-16.02,6.17-24.02,9.26c-4.51,1.74-9.02,3.48-13.53,5.21-.59.23-.34,1.2.27.96h0Z"/>
  <path class="cls-5" d="M1523.93,126.2c-4.17,10.13-8.33,20.26-12.5,30.39-4.17,10.13-8.33,20.26-12.5,30.39-2.34,5.7-4.69,11.4-7.03,17.1-.24.59.72.85.96.27,4.17-10.13,8.33-20.26,12.5-30.39s8.33-20.26,12.5-30.39c2.34-5.7,4.69-11.4,7.03-17.1.24-.59-.72-.85-.96-.27h0Z"/>
  <path class="cls-5" d="M1470.49,135.98c11.06,9.27,22.26,18.37,33.6,27.29,11.25,8.85,22.63,17.52,34.14,26.02,6.51,4.81,13.07,9.56,19.67,14.25.53.37,1.03-.49.5-.86-11.69-8.32-23.25-16.82-34.68-25.49-11.43-8.67-22.72-17.53-33.87-26.55-6.26-5.07-12.48-10.19-18.65-15.36-.49-.41-1.2.29-.71.71h0Z"/>
  <path class="cls-5" d="M1547.01,1006.65c8.84-13.71,17.91-27.27,27.21-40.66,9.3-13.4,18.84-26.63,28.6-39.7s19.84-26.09,30.1-38.87,20.55-25.17,31.15-37.49c10.64-12.36,21.49-24.54,32.55-36.53,1.36-1.48,2.73-2.95,4.09-4.42.44-.47-.27-1.18-.71-.71-11.15,11.99-22.09,24.16-32.82,36.53-10.69,12.32-21.16,24.82-31.42,37.5s-20.27,25.51-30.08,38.52c-9.82,13.02-19.41,26.22-28.77,39.57-9.4,13.4-18.56,26.97-27.49,40.69-1.1,1.68-2.19,3.37-3.27,5.06-.35.54.52,1.04.86.5h0Z"/>
  <path class="cls-5" d="M1574.63,806.87c1.82,11.15,6.43,21.56,11.23,31.7,5.17,10.91,10.41,21.79,15.61,32.69s10.54,22.06,15.81,33.09,10.49,21.96,15.74,32.94c5.27,11.03,10.54,22.06,15.81,33.09.65,1.36,1.3,2.72,1.95,4.08.28.58,1.14.07.86-.5-5.25-10.98-10.49-21.96-15.74-32.94-5.25-10.98-10.49-21.96-15.74-32.94s-10.45-21.86-15.67-32.79-10.49-21.96-15.74-32.94c-4.88-10.21-9.9-20.53-12.38-31.64-.3-1.36-.57-2.72-.79-4.1-.1-.63-1.07-.36-.96.27h0Z"/>
  <path class="cls-5" d="M1557.48,900.02c11.52,1.75,23.02,3.6,34.51,5.55,11.43,1.94,22.84,3.98,34.24,6.13s22.88,4.41,34.29,6.76c11.35,2.34,22.69,4.79,34,7.33s22.71,5.21,34.03,7.97c1.39.34,2.79.68,4.18,1.02.62.15.89-.81.27-.96-11.31-2.78-22.65-5.46-34.01-8.04-11.31-2.57-22.63-5.04-33.98-7.41-11.41-2.38-22.83-4.66-34.28-6.84-11.39-2.17-22.8-4.23-34.22-6.2s-22.98-3.85-34.5-5.62c-1.42-.22-2.84-.43-4.26-.65-.63-.1-.9.87-.27.96h0Z"/>
  <path class="cls-5" d="M1616.82,841.38c-.24,18.11-.49,36.23-.73,54.34-.24,18.02-.49,36.04-.73,54.06-.14,10.17-.27,20.33-.41,30.5,0,.64.99.64,1,0,.24-18.11.49-36.23.73-54.34.24-18.02.49-36.04.73-54.06.14-10.17.27-20.33.41-30.5,0-.64-.99-.64-1,0h0Z"/>
  <path class="cls-5" d="M1757.43,416.53c-.08,15.44-.51,30.88-1.29,46.29-.78,15.42-1.92,30.82-3.41,46.19-.83,8.63-1.78,17.25-2.84,25.85-.08.64.92.63,1,0,1.88-15.32,3.41-30.69,4.59-46.08,1.18-15.39,2.01-30.81,2.48-46.25.27-8.66.42-17.33.47-26,0-.64-1-.64-1,0h0Z"/>
  <path class="cls-5" d="M1718.88,475.43c11.57,2.84,23.2,5.41,34.9,7.69s23.28,4.26,34.98,5.97c6.58.96,13.18,1.84,19.79,2.63.64.08.63-.92,0-1-11.78-1.41-23.53-3.09-35.24-5.06s-23.21-4.19-34.73-6.69c-6.5-1.41-12.98-2.91-19.43-4.5-.62-.15-.89.81-.27.96h0Z"/>
  <path class="cls-5" d="M1803.73,458.49c-10.74,9.56-21.71,18.85-32.9,27.88s-22.66,17.81-34.31,26.3c-6.54,4.76-13.15,9.43-19.81,14.02-.53.36-.03,1.23.5.86,11.91-8.18,23.63-16.66,35.12-25.42s22.72-17.75,33.75-27.04c6.19-5.21,12.3-10.51,18.35-15.89.48-.43-.23-1.13-.71-.71h0Z"/>
  <path class="cls-5" d="M1732.56,453.61c4.13,7.58,8.31,15.12,12.55,22.64,4.26,7.55,8.57,15.07,12.94,22.55s8.75,14.87,13.21,22.25c4.46,7.39,8.97,14.74,13.54,22.06s9.19,14.6,13.86,21.86c.59.91,1.18,1.83,1.77,2.74.35.54,1.21.04.86-.5-4.69-7.24-9.32-14.52-13.9-21.83s-9.15-14.72-13.64-22.14-8.89-14.79-13.25-22.23c-4.36-7.44-8.67-14.92-12.92-22.42s-8.45-15.04-12.59-22.61c-.52-.95-1.04-1.91-1.56-2.87-.31-.57-1.17-.06-.86.5h0Z"/>
  <path class="cls-1" d="M1759.66,89.72c-37.37-7.55-81.17,18.98-83.74,57.19-2.26,33.5,28,63.44,61.28,67.4,36.3,4.32,75.71-22.35,77.62-59.23,1.67-32.2-25.9-59.45-55.15-65.36Z"/>
  <path class="cls-2" d="M1739.23,116.27c-10.74,3.92-20.9,15.13-20.43,28.6.57,15.97,15.86,27.88,30.64,28.6,18.79.92,36.27-16.26,34.72-32.68-1.72-18.26-26.53-31.23-44.94-24.51Z"/>
  <path class="cls-1" d="M92.94,741.29c-18.1,15.24-26.48,44.1-14.3,67.4,13.84,26.48,48.98,35.81,75.57,22.47,27.98-14.03,40.04-49.92,26.55-75.57-15.89-30.23-61.92-36.12-87.83-14.3Z"/>
  <path class="cls-4" d="M190.98,345.04c-13.87,8.28-15.82,40.89,0,51.06,16.28,10.47,45.87-6.38,46.98-22.47,1.22-17.59-31.38-37.91-46.98-28.6Z"/>
  <path class="cls-1" d="M595.4,371.59c-18.4,7.39-55.19,22.16-59.23,51.06-4.64,33.15,35.7,71.3,71.49,71.49,57.18.3,100.38-96.28,79.66-124.6-15.23-20.8-67.24-7.86-91.92,2.04Z"/>
  <path class="cls-1" d="M613.79,400.18c-17.22,2.89-34.77,16.68-32.68,26.55,1.65,7.83,15.36,11.83,24.51,12.26,22.43,1.05,45.35-18.06,42.89-28.6-1.98-8.48-20.67-12.57-34.72-10.21Z"/>
  <path class="cls-1" d="M1563.57,547.25c-35.7,6.79-63.13,37.72-65.36,69.45-3.82,54.34,66.62,106.2,116.43,85.79,32.19-13.19,55.49-56.46,42.89-98.04-12.21-40.32-53.86-64.82-93.96-57.19Z"/>
  <path class="cls-2" d="M1818.89,818.91c-17.96,10.44-25.08,36.85-14.3,51.06,11.94,15.74,43.48,13.41,57.19-4.09,8.14-10.38,11.69-28.27,2.04-40.85-10.65-13.9-31.67-13.83-44.94-6.13Z"/>
  <path class="cls-1" d="M1409.09,974.86c-14.36,4.34-30.52,18.53-28.6,34.72,2.11,17.74,24.82,28.58,42.89,26.55,20.44-2.29,39.93-21.58,36.77-38.81-3.32-18.09-30.63-28.65-51.06-22.47Z"/>
  <path class="cls-5" d="M1514.55,310.81c.64,0,.64-1,0-1s-.64,1,0,1h0Z"/>
  <path class="cls-1" d="M146.04,898.57c-32.06-11.82-95.63,35.99-87.83,83.74,5.8,35.48,50.31,66.74,81.7,55.15,31.96-11.81,34.46-62.19,34.72-67.4,1.16-23.41-5.46-62.96-28.6-71.49Z"/>
  <path class="cls-3" d="M487.15,959.84c-18.02,10.45-25.51,33.79-18.38,49.02,10.82,23.11,55.47,27.84,71.49,6.13,9.86-13.36,9.21-37.18-6.13-51.06-13.37-12.1-32.98-12.2-46.98-4.09Z"/>
  <path class="cls-3" d="M1036.6,645.29c-10.73,6.8-14.4,23.32-6.13,32.68,6.97,7.88,20.09,8.09,28.6,2.04,9.35-6.65,13.43-21.06,6.13-30.64-6.7-8.8-19.97-9.55-28.6-4.09Z"/>
  <path class="cls-1" d="M762.89,792.35c-.4,15.98,15.47,30.64,30.64,28.6,17.14-2.31,28.99-25.34,20.43-40.85-6.58-11.92-23.87-16.96-36.77-10.21-8.19,4.29-14.06,13.04-14.3,22.47Z"/>
  <path class="cls-1" d="M111.32,949.63c-14.46,6.6-17.81,26.39-10.21,38.81,4.86,7.94,14.72,13.71,24.51,12.26,15.12-2.25,26.83-21.24,20.43-36.77-5.28-12.79-21.63-20.27-34.72-14.3Z"/>
  <path class="cls-3" d="M1069.28,150.99c-11.29,11.77-8.75,33.68,0,46.98,17.96,27.31,68.52,28.12,79.66,10.21,8.23-13.23-4.13-38.21-20.43-51.06-16.01-12.63-45.09-20.87-59.23-6.13Z"/>
</svg>