<?xml version="1.0" encoding="UTF-8"?>
<svg id="_Слой_1" data-name="Слой 1" xmlns="http://www.w3.org/2000/svg" viewBox="0 0 1920 1080">
  <defs>
    <style>
      .cls-1 {
        fill: #959bcb;
      }

      .cls-1, .cls-2 {
        stroke-width: 0px;
      }

      .cls-3 {
        stroke: #000;
        stroke-miterlimit: 10;
      }

      .cls-4 {
        opacity: .54;
      }
    </style>
  </defs>
  <rect class="cls-1" width="1920" height="1080"/>
  <g class="cls-4">
    <path class="cls-2" d="M1483.81,296.33c6.97,2.59,13.61,6.04,19.76,10.22s11.79,9.09,16.79,14.61c2.83,3.12,5.43,6.44,7.8,9.92.36.53,1.23.03.86-.5-4.25-6.24-9.26-11.97-14.88-17.01-5.62-5.04-11.85-9.42-18.5-12.98-3.73-2-7.59-3.74-11.56-5.21-.6-.22-.86.74-.27.96h0Z"/>
  </g>
  <g class="cls-4">
    <path class="cls-2" d="M1426.71,510.73c13.19-.92,25.71-5.62,37.36-11.64,5.95-3.08,11.7-6.5,17.39-10.03s11.38-7.15,16.97-10.88c11.15-7.42,22.01-15.37,31.86-24.47,9.31-8.6,17.67-18.27,24.27-29.11,6.4-10.51,11.15-22.13,13.14-34.3.24-1.5.45-3,.61-4.51.07-.64-.93-.63-1,0-1.34,12.26-5.54,24.05-11.55,34.78-6.09,10.87-13.99,20.63-22.9,29.32-9.54,9.3-20.17,17.4-31.17,24.89-5.46,3.72-11.02,7.3-16.61,10.83s-11.14,6.95-16.88,10.13c-11.4,6.31-23.59,11.65-36.58,13.49-1.63.23-3.27.4-4.92.51-.64.04-.64,1.05,0,1h0Z"/>
  </g>
  <g class="cls-4">
    <path class="cls-2" d="M1359.35,485.05c13.85-.81,27.6-2.99,41.09-6.22s26.82-7.52,39.82-12.48,25.2-10.1,37.15-16.45c11.29-6.01,22.09-13.28,30.81-22.73,8.04-8.71,14.39-19.24,17.05-30.87.34-1.47.61-2.95.83-4.44.09-.63-.87-.9-.96-.27-1.73,11.88-7.38,22.82-15.05,31.95-8.17,9.74-18.54,17.31-29.57,23.51-11.61,6.54-23.95,11.81-36.33,16.7s-25.78,9.44-39.06,12.88c-13.34,3.45-26.95,5.93-40.68,7.06-1.69.14-3.39.26-5.08.36-.64.04-.64,1.04,0,1h0Z"/>
  </g>
  <g class="cls-4">
    <path class="cls-2" d="M1397.84,251.89c-12.41,2.19-24.82,4.39-37.24,6.58-11.62,2.06-23.28,3.97-34.85,6.32-10.82,2.2-21.59,4.89-31.87,8.97-10.21,4.05-19.62,9.58-28.12,16.54-8.57,7.02-16.19,15.1-23.65,23.27-.94,1.03-1.88,2.06-2.82,3.09-.43.48.27,1.18.71.71,7.45-8.18,14.93-16.39,23.28-23.67s17.52-13.26,27.68-17.65,20.77-7.24,31.5-9.55c11.28-2.42,22.68-4.28,34.04-6.29,12.31-2.18,24.62-4.35,36.93-6.53l4.67-.83c.63-.11.36-1.08-.27-.96h0Z"/>
  </g>
  <path class="cls-2" d="M1418.75,289.08c-14.5-.16-29.01-.18-43.49.76-14.26.93-28.51,2.8-42.36,6.42-11.86,3.1-23.34,7.54-33.99,13.63-9.97,5.7-19.22,12.77-27.03,21.2s-13.91,17.9-17.89,28.48c-.49,1.3-.94,2.62-1.36,3.94-.2.61.77.88.96.27,3.42-10.78,9.2-20.68,16.56-29.25s16.35-15.94,26.06-21.88,21.11-10.87,32.51-14.19c13.65-3.98,27.76-6.15,41.91-7.28,14.25-1.14,28.56-1.26,42.86-1.15,1.76.01,3.51.03,5.27.05.64,0,.64-.99,0-1h0Z"/>
  <path class="cls-3" d="M1336.85,338.81c-42.19,30.62-67.25,91.91-49.02,112.34,33.5,37.56,225.19-49.63,218.55-93.96-4.47-29.81-102.63-66.94-169.53-18.38Z"/>
  <path class="cls-2" d="M1230.64,1005.55c1.79,0,3.68-.78,4.95-2.05s2.13-3.21,2.05-4.95-.68-3.69-2.05-4.95-3.05-2.05-4.95-2.05c-1.79,0-3.68.78-4.95,2.05s-2.13,3.21-2.05,4.95.68,3.69,2.05,4.95,3.05,2.05,4.95,2.05h0Z"/>
  <path class="cls-2" d="M1230.64,970.83c1.79,0,3.68-.78,4.95-2.05s2.13-3.21,2.05-4.95-.68-3.69-2.05-4.95-3.05-2.05-4.95-2.05c-1.79,0-3.68.78-4.95,2.05s-2.13,3.21-2.05,4.95.68,3.69,2.05,4.95,3.05,2.05,4.95,2.05h0Z"/>
  <path class="cls-2" d="M1230.64,932.02c1.79,0,3.68-.78,4.95-2.05s2.13-3.21,2.05-4.95-.68-3.69-2.05-4.95-3.05-2.05-4.95-2.05c-1.79,0-3.68.78-4.95,2.05s-2.13,3.21-2.05,4.95.68,3.69,2.05,4.95,3.05,2.05,4.95,2.05h0Z"/>
  <path class="cls-2" d="M1226.55,889.13c1.79,0,3.68-.78,4.95-2.05s2.13-3.21,2.05-4.95-.68-3.69-2.05-4.95-3.05-2.05-4.95-2.05c-1.79,0-3.68.78-4.95,2.05s-2.13,3.21-2.05,4.95.68,3.69,2.05,4.95,3.05,2.05,4.95,2.05h0Z"/>
  <path class="cls-2" d="M1222.47,850.32c1.79,0,3.68-.78,4.95-2.05s2.13-3.21,2.05-4.95-.68-3.69-2.05-4.95-3.05-2.05-4.95-2.05c-1.79,0-3.68.78-4.95,2.05s-2.13,3.21-2.05,4.95.68,3.69,2.05,4.95,3.05,2.05,4.95,2.05h0Z"/>
  <path class="cls-2" d="M1216.34,811.51c1.79,0,3.68-.78,4.95-2.05s2.13-3.21,2.05-4.95-.68-3.69-2.05-4.95-3.05-2.05-4.95-2.05c-1.79,0-3.68.78-4.95,2.05s-2.13,3.21-2.05,4.95.68,3.69,2.05,4.95,3.05,2.05,4.95,2.05h0Z"/>
  <path class="cls-2" d="M1206.13,770.66c1.79,0,3.68-.78,4.95-2.05s2.13-3.21,2.05-4.95-.68-3.69-2.05-4.95-3.05-2.05-4.95-2.05c-1.79,0-3.68.78-4.95,2.05s-2.13,3.21-2.05,4.95.68,3.69,2.05,4.95,3.05,2.05,4.95,2.05h0Z"/>
  <path class="cls-2" d="M1206.13,729.81c1.79,0,3.68-.78,4.95-2.05s2.13-3.21,2.05-4.95-.68-3.69-2.05-4.95-3.05-2.05-4.95-2.05c-1.79,0-3.68.78-4.95,2.05s-2.13,3.21-2.05,4.95.68,3.69,2.05,4.95,3.05,2.05,4.95,2.05h0Z"/>
  <path class="cls-2" d="M1193.87,691c1.79,0,3.68-.78,4.95-2.05s2.13-3.21,2.05-4.95-.68-3.69-2.05-4.95-3.05-2.05-4.95-2.05c-1.79,0-3.68.78-4.95,2.05s-2.13,3.21-2.05,4.95.68,3.69,2.05,4.95,3.05,2.05,4.95,2.05h0Z"/>
  <path class="cls-2" d="M1189.79,646.06c1.79,0,3.68-.78,4.95-2.05s2.13-3.21,2.05-4.95-.68-3.69-2.05-4.95-3.05-2.05-4.95-2.05c-1.79,0-3.68.78-4.95,2.05s-2.13,3.21-2.05,4.95.68,3.69,2.05,4.95,3.05,2.05,4.95,2.05h0Z"/>
  <path class="cls-2" d="M1189.79,599.09c1.79,0,3.68-.78,4.95-2.05s2.13-3.21,2.05-4.95-.68-3.69-2.05-4.95-3.05-2.05-4.95-2.05c-1.79,0-3.68.78-4.95,2.05s-2.13,3.21-2.05,4.95.68,3.69,2.05,4.95,3.05,2.05,4.95,2.05h0Z"/>
  <path class="cls-2" d="M1183.66,462.23c1.79,0,3.68-.78,4.95-2.05s2.13-3.21,2.05-4.95-.68-3.69-2.05-4.95-3.05-2.05-4.95-2.05c-1.79,0-3.68.78-4.95,2.05s-2.13,3.21-2.05,4.95.68,3.69,2.05,4.95,3.05,2.05,4.95,2.05h0Z"/>
  <path class="cls-2" d="M1179.57,423.43c1.79,0,3.68-.78,4.95-2.05s2.13-3.21,2.05-4.95-.68-3.69-2.05-4.95-3.05-2.05-4.95-2.05c-1.79,0-3.68.78-4.95,2.05s-2.13,3.21-2.05,4.95.68,3.69,2.05,4.95,3.05,2.05,4.95,2.05h0Z"/>
  <path class="cls-2" d="M1179.57,378.49c1.79,0,3.68-.78,4.95-2.05s2.13-3.21,2.05-4.95-.68-3.69-2.05-4.95-3.05-2.05-4.95-2.05c-1.79,0-3.68.78-4.95,2.05s-2.13,3.21-2.05,4.95.68,3.69,2.05,4.95,3.05,2.05,4.95,2.05h0Z"/>
  <path class="cls-2" d="M1183.66,335.6c1.79,0,3.68-.78,4.95-2.05s2.13-3.21,2.05-4.95-.68-3.69-2.05-4.95-3.05-2.05-4.95-2.05c-1.79,0-3.68.78-4.95,2.05s-2.13,3.21-2.05,4.95.68,3.69,2.05,4.95,3.05,2.05,4.95,2.05h0Z"/>
  <path class="cls-2" d="M1181.62,292.7c1.79,0,3.68-.78,4.95-2.05s2.13-3.21,2.05-4.95-.68-3.69-2.05-4.95-3.05-2.05-4.95-2.05c-1.79,0-3.68.78-4.95,2.05s-2.13,3.21-2.05,4.95.68,3.69,2.05,4.95,3.05,2.05,4.95,2.05h0Z"/>
  <path class="cls-2" d="M1187.74,251.85c1.79,0,3.68-.78,4.95-2.05s2.13-3.21,2.05-4.95-.68-3.69-2.05-4.95-3.05-2.05-4.95-2.05c-1.79,0-3.68.78-4.95,2.05s-2.13,3.21-2.05,4.95.68,3.69,2.05,4.95,3.05,2.05,4.95,2.05h0Z"/>
  <path class="cls-2" d="M1187.74,206.91c1.79,0,3.68-.78,4.95-2.05s2.13-3.21,2.05-4.95-.68-3.69-2.05-4.95-3.05-2.05-4.95-2.05c-1.79,0-3.68.78-4.95,2.05s-2.13,3.21-2.05,4.95.68,3.69,2.05,4.95,3.05,2.05,4.95,2.05h0Z"/>
  <path class="cls-2" d="M1193.87,159.94c1.79,0,3.68-.78,4.95-2.05s2.13-3.21,2.05-4.95-.68-3.69-2.05-4.95-3.05-2.05-4.95-2.05c-1.79,0-3.68.78-4.95,2.05s-2.13,3.21-2.05,4.95.68,3.69,2.05,4.95,3.05,2.05,4.95,2.05h0Z"/>
  <path class="cls-2" d="M1179.57,991.26c1.79,0,3.68-.78,4.95-2.05s2.13-3.21,2.05-4.95-.68-3.69-2.05-4.95-3.05-2.05-4.95-2.05c-1.79,0-3.68.78-4.95,2.05s-2.13,3.21-2.05,4.95.68,3.69,2.05,4.95,3.05,2.05,4.95,2.05h0Z"/>
  <path class="cls-2" d="M1177.53,952.45c1.79,0,3.68-.78,4.95-2.05s2.13-3.21,2.05-4.95-.68-3.69-2.05-4.95-3.05-2.05-4.95-2.05c-1.79,0-3.68.78-4.95,2.05s-2.13,3.21-2.05,4.95.68,3.69,2.05,4.95,3.05,2.05,4.95,2.05h0Z"/>
  <path class="cls-2" d="M1177.53,901.38c1.79,0,3.68-.78,4.95-2.05s2.13-3.21,2.05-4.95-.68-3.69-2.05-4.95-3.05-2.05-4.95-2.05c-1.79,0-3.68.78-4.95,2.05s-2.13,3.21-2.05,4.95.68,3.69,2.05,4.95,3.05,2.05,4.95,2.05h0Z"/>
  <path class="cls-2" d="M1163.23,862.57c1.79,0,3.68-.78,4.95-2.05s2.13-3.21,2.05-4.95-.68-3.69-2.05-4.95-3.05-2.05-4.95-2.05c-1.79,0-3.68.78-4.95,2.05s-2.13,3.21-2.05,4.95.68,3.69,2.05,4.95,3.05,2.05,4.95,2.05h0Z"/>
  <path class="cls-2" d="M1163.23,817.64c1.79,0,3.68-.78,4.95-2.05s2.13-3.21,2.05-4.95-.68-3.69-2.05-4.95-3.05-2.05-4.95-2.05c-1.79,0-3.68.78-4.95,2.05s-2.13,3.21-2.05,4.95.68,3.69,2.05,4.95,3.05,2.05,4.95,2.05h0Z"/>
  <path class="cls-2" d="M1159.15,772.7c1.79,0,3.68-.78,4.95-2.05s2.13-3.21,2.05-4.95-.68-3.69-2.05-4.95-3.05-2.05-4.95-2.05c-1.79,0-3.68.78-4.95,2.05s-2.13,3.21-2.05,4.95.68,3.69,2.05,4.95,3.05,2.05,4.95,2.05h0Z"/>
  <path class="cls-2" d="M1146.89,723.68c1.79,0,3.68-.78,4.95-2.05s2.13-3.21,2.05-4.95-.68-3.69-2.05-4.95-3.05-2.05-4.95-2.05c-1.79,0-3.68.78-4.95,2.05s-2.13,3.21-2.05,4.95.68,3.69,2.05,4.95,3.05,2.05,4.95,2.05h0Z"/>
  <path class="cls-2" d="M1142.81,688.96c1.79,0,3.68-.78,4.95-2.05s2.13-3.21,2.05-4.95-.68-3.69-2.05-4.95-3.05-2.05-4.95-2.05c-1.79,0-3.68.78-4.95,2.05s-2.13,3.21-2.05,4.95.68,3.69,2.05,4.95,3.05,2.05,4.95,2.05h0Z"/>
  <path class="cls-2" d="M1132.6,654.23c1.79,0,3.68-.78,4.95-2.05s2.13-3.21,2.05-4.95-.68-3.69-2.05-4.95-3.05-2.05-4.95-2.05c-1.79,0-3.68.78-4.95,2.05s-2.13,3.21-2.05,4.95.68,3.69,2.05,4.95,3.05,2.05,4.95,2.05h0Z"/>
  <path class="cls-2" d="M1132.6,599.09c1.79,0,3.68-.78,4.95-2.05s2.13-3.21,2.05-4.95-.68-3.69-2.05-4.95-3.05-2.05-4.95-2.05c-1.79,0-3.68.78-4.95,2.05s-2.13,3.21-2.05,4.95.68,3.69,2.05,4.95,3.05,2.05,4.95,2.05h0Z"/>
  <path class="cls-2" d="M1132.6,468.36c1.79,0,3.68-.78,4.95-2.05s2.13-3.21,2.05-4.95-.68-3.69-2.05-4.95-3.05-2.05-4.95-2.05c-1.79,0-3.68.78-4.95,2.05s-2.13,3.21-2.05,4.95.68,3.69,2.05,4.95,3.05,2.05,4.95,2.05h0Z"/>
  <path class="cls-2" d="M1132.6,435.68c1.79,0,3.68-.78,4.95-2.05s2.13-3.21,2.05-4.95-.68-3.69-2.05-4.95-3.05-2.05-4.95-2.05c-1.79,0-3.68.78-4.95,2.05s-2.13,3.21-2.05,4.95.68,3.69,2.05,4.95,3.05,2.05,4.95,2.05h0Z"/>
  <path class="cls-2" d="M1134.64,392.79c1.79,0,3.68-.78,4.95-2.05s2.13-3.21,2.05-4.95-.68-3.69-2.05-4.95-3.05-2.05-4.95-2.05c-1.79,0-3.68.78-4.95,2.05s-2.13,3.21-2.05,4.95.68,3.69,2.05,4.95,3.05,2.05,4.95,2.05h0Z"/>
  <path class="cls-2" d="M1134.64,351.94c1.79,0,3.68-.78,4.95-2.05s2.13-3.21,2.05-4.95-.68-3.69-2.05-4.95-3.05-2.05-4.95-2.05c-1.79,0-3.68.78-4.95,2.05s-2.13,3.21-2.05,4.95.68,3.69,2.05,4.95,3.05,2.05,4.95,2.05h0Z"/>
  <path class="cls-2" d="M1136.68,290.66c1.79,0,3.68-.78,4.95-2.05s2.13-3.21,2.05-4.95-.68-3.69-2.05-4.95-3.05-2.05-4.95-2.05c-1.79,0-3.68.78-4.95,2.05s-2.13,3.21-2.05,4.95.68,3.69,2.05,4.95,3.05,2.05,4.95,2.05h0Z"/>
  <path class="cls-2" d="M1142.81,241.64c1.79,0,3.68-.78,4.95-2.05s2.13-3.21,2.05-4.95-.68-3.69-2.05-4.95-3.05-2.05-4.95-2.05c-1.79,0-3.68.78-4.95,2.05s-2.13,3.21-2.05,4.95.68,3.69,2.05,4.95,3.05,2.05,4.95,2.05h0Z"/>
  <path class="cls-2" d="M1144.85,190.57c1.79,0,3.68-.78,4.95-2.05s2.13-3.21,2.05-4.95-.68-3.69-2.05-4.95-3.05-2.05-4.95-2.05c-1.79,0-3.68.78-4.95,2.05s-2.13,3.21-2.05,4.95.68,3.69,2.05,4.95,3.05,2.05,4.95,2.05h0Z"/>
  <path class="cls-2" d="M1144.85,153.81c1.79,0,3.68-.78,4.95-2.05s2.13-3.21,2.05-4.95-.68-3.69-2.05-4.95-3.05-2.05-4.95-2.05c-1.79,0-3.68.78-4.95,2.05s-2.13,3.21-2.05,4.95.68,3.69,2.05,4.95,3.05,2.05,4.95,2.05h0Z"/>
  <path class="cls-2" d="M658.72,995.34c1.79,0,3.68-.78,4.95-2.05s2.13-3.21,2.05-4.95-.68-3.69-2.05-4.95-3.05-2.05-4.95-2.05c-1.79,0-3.68.78-4.95,2.05s-2.13,3.21-2.05,4.95.68,3.69,2.05,4.95,3.05,2.05,4.95,2.05h0Z"/>
  <path class="cls-2" d="M658.72,948.36c1.79,0,3.68-.78,4.95-2.05s2.13-3.21,2.05-4.95-.68-3.69-2.05-4.95-3.05-2.05-4.95-2.05c-1.79,0-3.68.78-4.95,2.05s-2.13,3.21-2.05,4.95.68,3.69,2.05,4.95,3.05,2.05,4.95,2.05h0Z"/>
  <path class="cls-2" d="M658.72,907.51c1.79,0,3.68-.78,4.95-2.05s2.13-3.21,2.05-4.95-.68-3.69-2.05-4.95-3.05-2.05-4.95-2.05c-1.79,0-3.68.78-4.95,2.05s-2.13,3.21-2.05,4.95.68,3.69,2.05,4.95,3.05,2.05,4.95,2.05h0Z"/>
  <path class="cls-2" d="M654.64,860.53c1.79,0,3.68-.78,4.95-2.05s2.13-3.21,2.05-4.95-.68-3.69-2.05-4.95-3.05-2.05-4.95-2.05c-1.79,0-3.68.78-4.95,2.05s-2.13,3.21-2.05,4.95.68,3.69,2.05,4.95,3.05,2.05,4.95,2.05h0Z"/>
  <path class="cls-2" d="M648.51,815.6c1.79,0,3.68-.78,4.95-2.05s2.13-3.21,2.05-4.95-.68-3.69-2.05-4.95-3.05-2.05-4.95-2.05c-1.79,0-3.68.78-4.95,2.05s-2.13,3.21-2.05,4.95.68,3.69,2.05,4.95,3.05,2.05,4.95,2.05h0Z"/>
  <path class="cls-2" d="M638.3,768.62c1.79,0,3.68-.78,4.95-2.05s2.13-3.21,2.05-4.95-.68-3.69-2.05-4.95-3.05-2.05-4.95-2.05c-1.79,0-3.68.78-4.95,2.05s-2.13,3.21-2.05,4.95.68,3.69,2.05,4.95,3.05,2.05,4.95,2.05h0Z"/>
  <path class="cls-2" d="M636.26,725.72c1.79,0,3.68-.78,4.95-2.05s2.13-3.21,2.05-4.95-.68-3.69-2.05-4.95-3.05-2.05-4.95-2.05c-1.79,0-3.68.78-4.95,2.05s-2.13,3.21-2.05,4.95.68,3.69,2.05,4.95,3.05,2.05,4.95,2.05h0Z"/>
  <path class="cls-2" d="M624,672.62c1.79,0,3.68-.78,4.95-2.05s2.13-3.21,2.05-4.95-.68-3.69-2.05-4.95-3.05-2.05-4.95-2.05c-1.79,0-3.68.78-4.95,2.05s-2.13,3.21-2.05,4.95.68,3.69,2.05,4.95,3.05,2.05,4.95,2.05h0Z"/>
  <path class="cls-2" d="M624,639.94c1.79,0,3.68-.78,4.95-2.05s2.13-3.21,2.05-4.95-.68-3.69-2.05-4.95-3.05-2.05-4.95-2.05c-1.79,0-3.68.78-4.95,2.05s-2.13,3.21-2.05,4.95.68,3.69,2.05,4.95,3.05,2.05,4.95,2.05h0Z"/>
  <path class="cls-2" d="M624,597.04c1.79,0,3.68-.78,4.95-2.05s2.13-3.21,2.05-4.95-.68-3.69-2.05-4.95-3.05-2.05-4.95-2.05c-1.79,0-3.68.78-4.95,2.05s-2.13,3.21-2.05,4.95.68,3.69,2.05,4.95,3.05,2.05,4.95,2.05h0Z"/>
  <path class="cls-2" d="M603.57,985.13c1.79,0,3.68-.78,4.95-2.05s2.13-3.21,2.05-4.95-.68-3.69-2.05-4.95-3.05-2.05-4.95-2.05c-1.79,0-3.68.78-4.95,2.05s-2.13,3.21-2.05,4.95.68,3.69,2.05,4.95,3.05,2.05,4.95,2.05h0Z"/>
  <path class="cls-2" d="M603.57,944.28c1.79,0,3.68-.78,4.95-2.05s2.13-3.21,2.05-4.95-.68-3.69-2.05-4.95-3.05-2.05-4.95-2.05c-1.79,0-3.68.78-4.95,2.05s-2.13,3.21-2.05,4.95.68,3.69,2.05,4.95,3.05,2.05,4.95,2.05h0Z"/>
  <path class="cls-2" d="M603.57,903.43c1.79,0,3.68-.78,4.95-2.05s2.13-3.21,2.05-4.95-.68-3.69-2.05-4.95-3.05-2.05-4.95-2.05c-1.79,0-3.68.78-4.95,2.05s-2.13,3.21-2.05,4.95.68,3.69,2.05,4.95,3.05,2.05,4.95,2.05h0Z"/>
  <path class="cls-2" d="M603.57,858.49c1.79,0,3.68-.78,4.95-2.05s2.13-3.21,2.05-4.95-.68-3.69-2.05-4.95-3.05-2.05-4.95-2.05c-1.79,0-3.68.78-4.95,2.05s-2.13,3.21-2.05,4.95.68,3.69,2.05,4.95,3.05,2.05,4.95,2.05h0Z"/>
  <path class="cls-2" d="M595.4,809.47c1.79,0,3.68-.78,4.95-2.05s2.13-3.21,2.05-4.95-.68-3.69-2.05-4.95-3.05-2.05-4.95-2.05c-1.79,0-3.68.78-4.95,2.05s-2.13,3.21-2.05,4.95.68,3.69,2.05,4.95,3.05,2.05,4.95,2.05h0Z"/>
  <path class="cls-2" d="M589.28,764.53c1.79,0,3.68-.78,4.95-2.05s2.13-3.21,2.05-4.95-.68-3.69-2.05-4.95-3.05-2.05-4.95-2.05c-1.79,0-3.68.78-4.95,2.05s-2.13,3.21-2.05,4.95.68,3.69,2.05,4.95,3.05,2.05,4.95,2.05h0Z"/>
  <path class="cls-2" d="M577.02,723.68c1.79,0,3.68-.78,4.95-2.05s2.13-3.21,2.05-4.95-.68-3.69-2.05-4.95-3.05-2.05-4.95-2.05c-1.79,0-3.68.78-4.95,2.05s-2.13,3.21-2.05,4.95.68,3.69,2.05,4.95,3.05,2.05,4.95,2.05h0Z"/>
  <path class="cls-2" d="M572.94,680.79c1.79,0,3.68-.78,4.95-2.05s2.13-3.21,2.05-4.95-.68-3.69-2.05-4.95-3.05-2.05-4.95-2.05c-1.79,0-3.68.78-4.95,2.05s-2.13,3.21-2.05,4.95.68,3.69,2.05,4.95,3.05,2.05,4.95,2.05h0Z"/>
  <path class="cls-2" d="M570.89,629.72c1.79,0,3.68-.78,4.95-2.05s2.13-3.21,2.05-4.95-.68-3.69-2.05-4.95-3.05-2.05-4.95-2.05c-1.79,0-3.68.78-4.95,2.05s-2.13,3.21-2.05,4.95.68,3.69,2.05,4.95,3.05,2.05,4.95,2.05h0Z"/>
  <path class="cls-2" d="M562.72,490.83c1.79,0,3.68-.78,4.95-2.05s2.13-3.21,2.05-4.95-.68-3.69-2.05-4.95-3.05-2.05-4.95-2.05c-1.79,0-3.68.78-4.95,2.05s-2.13,3.21-2.05,4.95.68,3.69,2.05,4.95,3.05,2.05,4.95,2.05h0Z"/>
  <path class="cls-2" d="M562.72,456.11c1.79,0,3.68-.78,4.95-2.05s2.13-3.21,2.05-4.95-.68-3.69-2.05-4.95-3.05-2.05-4.95-2.05c-1.79,0-3.68.78-4.95,2.05s-2.13,3.21-2.05,4.95.68,3.69,2.05,4.95,3.05,2.05,4.95,2.05h0Z"/>
  <path class="cls-2" d="M554.55,421.38c1.79,0,3.68-.78,4.95-2.05s2.13-3.21,2.05-4.95-.68-3.69-2.05-4.95-3.05-2.05-4.95-2.05c-1.79,0-3.68.78-4.95,2.05s-2.13,3.21-2.05,4.95.68,3.69,2.05,4.95,3.05,2.05,4.95,2.05h0Z"/>
  <path class="cls-2" d="M554.55,376.45c1.79,0,3.68-.78,4.95-2.05s2.13-3.21,2.05-4.95-.68-3.69-2.05-4.95-3.05-2.05-4.95-2.05c-1.79,0-3.68.78-4.95,2.05s-2.13,3.21-2.05,4.95.68,3.69,2.05,4.95,3.05,2.05,4.95,2.05h0Z"/>
  <path class="cls-2" d="M554.55,337.64c1.79,0,3.68-.78,4.95-2.05s2.13-3.21,2.05-4.95-.68-3.69-2.05-4.95-3.05-2.05-4.95-2.05c-1.79,0-3.68.78-4.95,2.05s-2.13,3.21-2.05,4.95.68,3.69,2.05,4.95,3.05,2.05,4.95,2.05h0Z"/>
  <path class="cls-2" d="M558.64,284.53c1.79,0,3.68-.78,4.95-2.05s2.13-3.21,2.05-4.95-.68-3.69-2.05-4.95-3.05-2.05-4.95-2.05c-1.79,0-3.68.78-4.95,2.05s-2.13,3.21-2.05,4.95.68,3.69,2.05,4.95,3.05,2.05,4.95,2.05h0Z"/>
  <path class="cls-2" d="M554.55,235.51c1.79,0,3.68-.78,4.95-2.05s2.13-3.21,2.05-4.95-.68-3.69-2.05-4.95-3.05-2.05-4.95-2.05c-1.79,0-3.68.78-4.95,2.05s-2.13,3.21-2.05,4.95.68,3.69,2.05,4.95,3.05,2.05,4.95,2.05h0Z"/>
  <path class="cls-2" d="M556.6,190.57c1.79,0,3.68-.78,4.95-2.05s2.13-3.21,2.05-4.95-.68-3.69-2.05-4.95-3.05-2.05-4.95-2.05c-1.79,0-3.68.78-4.95,2.05s-2.13,3.21-2.05,4.95.68,3.69,2.05,4.95,3.05,2.05,4.95,2.05h0Z"/>
  <path class="cls-2" d="M560.68,147.68c1.79,0,3.68-.78,4.95-2.05s2.13-3.21,2.05-4.95-.68-3.69-2.05-4.95-3.05-2.05-4.95-2.05c-1.79,0-3.68.78-4.95,2.05s-2.13,3.21-2.05,4.95.68,3.69,2.05,4.95,3.05,2.05,4.95,2.05h0Z"/>
  <path class="cls-2" d="M1776,519.43c1.79,0,3.68-.78,4.95-2.05s2.13-3.21,2.05-4.95-.68-3.69-2.05-4.95-3.05-2.05-4.95-2.05c-1.79,0-3.68.78-4.95,2.05s-2.13,3.21-2.05,4.95.68,3.69,2.05,4.95,3.05,2.05,4.95,2.05h0Z"/>
  <path class="cls-2" d="M1733.11,521.47c1.79,0,3.68-.78,4.95-2.05s2.13-3.21,2.05-4.95-.68-3.69-2.05-4.95-3.05-2.05-4.95-2.05c-1.79,0-3.68.78-4.95,2.05s-2.13,3.21-2.05,4.95.68,3.69,2.05,4.95,3.05,2.05,4.95,2.05h0Z"/>
  <path class="cls-2" d="M1700.43,539.85c1.79,0,3.68-.78,4.95-2.05s2.13-3.21,2.05-4.95-.68-3.69-2.05-4.95-3.05-2.05-4.95-2.05c-1.79,0-3.68.78-4.95,2.05s-2.13,3.21-2.05,4.95.68,3.69,2.05,4.95,3.05,2.05,4.95,2.05h0Z"/>
  <path class="cls-2" d="M1663.66,554.15c1.79,0,3.68-.78,4.95-2.05s2.13-3.21,2.05-4.95-.68-3.69-2.05-4.95-3.05-2.05-4.95-2.05c-1.79,0-3.68.78-4.95,2.05s-2.13,3.21-2.05,4.95.68,3.69,2.05,4.95,3.05,2.05,4.95,2.05h0Z"/>
  <path class="cls-2" d="M1618.72,562.32c1.79,0,3.68-.78,4.95-2.05s2.13-3.21,2.05-4.95-.68-3.69-2.05-4.95-3.05-2.05-4.95-2.05c-1.79,0-3.68.78-4.95,2.05s-2.13,3.21-2.05,4.95.68,3.69,2.05,4.95,3.05,2.05,4.95,2.05h0Z"/>
  <path class="cls-2" d="M1567.66,580.7c1.79,0,3.68-.78,4.95-2.05s2.13-3.21,2.05-4.95-.68-3.69-2.05-4.95-3.05-2.05-4.95-2.05c-1.79,0-3.68.78-4.95,2.05s-2.13,3.21-2.05,4.95.68,3.69,2.05,4.95,3.05,2.05,4.95,2.05h0Z"/>
  <path class="cls-2" d="M1510.47,580.7c1.79,0,3.68-.78,4.95-2.05s2.13-3.21,2.05-4.95-.68-3.69-2.05-4.95-3.05-2.05-4.95-2.05c-1.79,0-3.68.78-4.95,2.05s-2.13,3.21-2.05,4.95.68,3.69,2.05,4.95,3.05,2.05,4.95,2.05h0Z"/>
  <path class="cls-2" d="M1463.49,580.7c1.79,0,3.68-.78,4.95-2.05s2.13-3.21,2.05-4.95-.68-3.69-2.05-4.95-3.05-2.05-4.95-2.05c-1.79,0-3.68.78-4.95,2.05s-2.13,3.21-2.05,4.95.68,3.69,2.05,4.95,3.05,2.05,4.95,2.05h0Z"/>
  <path class="cls-2" d="M1422.64,574.57c1.79,0,3.68-.78,4.95-2.05s2.13-3.21,2.05-4.95-.68-3.69-2.05-4.95-3.05-2.05-4.95-2.05c-1.79,0-3.68.78-4.95,2.05s-2.13,3.21-2.05,4.95.68,3.69,2.05,4.95,3.05,2.05,4.95,2.05h0Z"/>
  <path class="cls-2" d="M1373.62,566.4c1.79,0,3.68-.78,4.95-2.05s2.13-3.21,2.05-4.95-.68-3.69-2.05-4.95-3.05-2.05-4.95-2.05c-1.79,0-3.68.78-4.95,2.05s-2.13,3.21-2.05,4.95.68,3.69,2.05,4.95,3.05,2.05,4.95,2.05h0Z"/>
  <path class="cls-2" d="M1320.51,554.15c1.79,0,3.68-.78,4.95-2.05s2.13-3.21,2.05-4.95-.68-3.69-2.05-4.95-3.05-2.05-4.95-2.05c-1.79,0-3.68.78-4.95,2.05s-2.13,3.21-2.05,4.95.68,3.69,2.05,4.95,3.05,2.05,4.95,2.05h0Z"/>
  <path class="cls-2" d="M1277.62,539.85c1.79,0,3.68-.78,4.95-2.05s2.13-3.21,2.05-4.95-.68-3.69-2.05-4.95-3.05-2.05-4.95-2.05c-1.79,0-3.68.78-4.95,2.05s-2.13,3.21-2.05,4.95.68,3.69,2.05,4.95,3.05,2.05,4.95,2.05h0Z"/>
  <path class="cls-2" d="M1228.6,523.51c1.79,0,3.68-.78,4.95-2.05s2.13-3.21,2.05-4.95-.68-3.69-2.05-4.95-3.05-2.05-4.95-2.05c-1.79,0-3.68.78-4.95,2.05s-2.13,3.21-2.05,4.95.68,3.69,2.05,4.95,3.05,2.05,4.95,2.05h0Z"/>
  <path class="cls-2" d="M1181.62,515.34c1.79,0,3.68-.78,4.95-2.05s2.13-3.21,2.05-4.95-.68-3.69-2.05-4.95-3.05-2.05-4.95-2.05c-1.79,0-3.68.78-4.95,2.05s-2.13,3.21-2.05,4.95.68,3.69,2.05,4.95,3.05,2.05,4.95,2.05h0Z"/>
  <path class="cls-2" d="M1128.51,509.21c1.79,0,3.68-.78,4.95-2.05s2.13-3.21,2.05-4.95-.68-3.69-2.05-4.95-3.05-2.05-4.95-2.05c-1.79,0-3.68.78-4.95,2.05s-2.13,3.21-2.05,4.95.68,3.69,2.05,4.95,3.05,2.05,4.95,2.05h0Z"/>
  <path class="cls-2" d="M1091.74,501.04c1.79,0,3.68-.78,4.95-2.05s2.13-3.21,2.05-4.95-.68-3.69-2.05-4.95-3.05-2.05-4.95-2.05c-1.79,0-3.68.78-4.95,2.05s-2.13,3.21-2.05,4.95.68,3.69,2.05,4.95,3.05,2.05,4.95,2.05h0Z"/>
  <path class="cls-2" d="M1057.02,496.96c1.79,0,3.68-.78,4.95-2.05s2.13-3.21,2.05-4.95-.68-3.69-2.05-4.95-3.05-2.05-4.95-2.05c-1.79,0-3.68.78-4.95,2.05s-2.13,3.21-2.05,4.95.68,3.69,2.05,4.95,3.05,2.05,4.95,2.05h0Z"/>
  <path class="cls-2" d="M1020.26,490.83c1.79,0,3.68-.78,4.95-2.05s2.13-3.21,2.05-4.95-.68-3.69-2.05-4.95-3.05-2.05-4.95-2.05c-1.79,0-3.68.78-4.95,2.05s-2.13,3.21-2.05,4.95.68,3.69,2.05,4.95,3.05,2.05,4.95,2.05h0Z"/>
  <path class="cls-2" d="M969.19,490.83c1.79,0,3.68-.78,4.95-2.05s2.13-3.21,2.05-4.95-.68-3.69-2.05-4.95-3.05-2.05-4.95-2.05c-1.79,0-3.68.78-4.95,2.05s-2.13,3.21-2.05,4.95.68,3.69,2.05,4.95,3.05,2.05,4.95,2.05h0Z"/>
  <path class="cls-2" d="M934.47,488.79c1.79,0,3.68-.78,4.95-2.05s2.13-3.21,2.05-4.95-.68-3.69-2.05-4.95-3.05-2.05-4.95-2.05c-1.79,0-3.68.78-4.95,2.05s-2.13,3.21-2.05,4.95.68,3.69,2.05,4.95,3.05,2.05,4.95,2.05h0Z"/>
  <path class="cls-2" d="M887.49,488.79c1.79,0,3.68-.78,4.95-2.05s2.13-3.21,2.05-4.95-.68-3.69-2.05-4.95-3.05-2.05-4.95-2.05c-1.79,0-3.68.78-4.95,2.05s-2.13,3.21-2.05,4.95.68,3.69,2.05,4.95,3.05,2.05,4.95,2.05h0Z"/>
  <path class="cls-2" d="M838.47,496.96c1.79,0,3.68-.78,4.95-2.05s2.13-3.21,2.05-4.95-.68-3.69-2.05-4.95-3.05-2.05-4.95-2.05c-1.79,0-3.68.78-4.95,2.05s-2.13,3.21-2.05,4.95.68,3.69,2.05,4.95,3.05,2.05,4.95,2.05h0Z"/>
  <path class="cls-2" d="M795.57,499c1.79,0,3.68-.78,4.95-2.05s2.13-3.21,2.05-4.95-.68-3.69-2.05-4.95-3.05-2.05-4.95-2.05c-1.79,0-3.68.78-4.95,2.05s-2.13,3.21-2.05,4.95.68,3.69,2.05,4.95,3.05,2.05,4.95,2.05h0Z"/>
  <path class="cls-2" d="M754.72,501.04c1.79,0,3.68-.78,4.95-2.05s2.13-3.21,2.05-4.95-.68-3.69-2.05-4.95-3.05-2.05-4.95-2.05c-1.79,0-3.68.78-4.95,2.05s-2.13,3.21-2.05,4.95.68,3.69,2.05,4.95,3.05,2.05,4.95,2.05h0Z"/>
  <path class="cls-2" d="M720,505.13c1.79,0,3.68-.78,4.95-2.05s2.13-3.21,2.05-4.95-.68-3.69-2.05-4.95-3.05-2.05-4.95-2.05c-1.79,0-3.68.78-4.95,2.05s-2.13,3.21-2.05,4.95.68,3.69,2.05,4.95,3.05,2.05,4.95,2.05h0Z"/>
  <path class="cls-2" d="M662.81,509.21c1.79,0,3.68-.78,4.95-2.05s2.13-3.21,2.05-4.95-.68-3.69-2.05-4.95-3.05-2.05-4.95-2.05c-1.79,0-3.68.78-4.95,2.05s-2.13,3.21-2.05,4.95.68,3.69,2.05,4.95,3.05,2.05,4.95,2.05h0Z"/>
  <path class="cls-2" d="M615.83,517.38c1.79,0,3.68-.78,4.95-2.05s2.13-3.21,2.05-4.95-.68-3.69-2.05-4.95-3.05-2.05-4.95-2.05c-1.79,0-3.68.78-4.95,2.05s-2.13,3.21-2.05,4.95.68,3.69,2.05,4.95,3.05,2.05,4.95,2.05h0Z"/>
  <path class="cls-2" d="M566.81,523.51c1.79,0,3.68-.78,4.95-2.05s2.13-3.21,2.05-4.95-.68-3.69-2.05-4.95-3.05-2.05-4.95-2.05c-1.79,0-3.68.78-4.95,2.05s-2.13,3.21-2.05,4.95.68,3.69,2.05,4.95,3.05,2.05,4.95,2.05h0Z"/>
  <path class="cls-2" d="M519.83,527.6c1.79,0,3.68-.78,4.95-2.05s2.13-3.21,2.05-4.95-.68-3.69-2.05-4.95-3.05-2.05-4.95-2.05c-1.79,0-3.68.78-4.95,2.05s-2.13,3.21-2.05,4.95.68,3.69,2.05,4.95,3.05,2.05,4.95,2.05h0Z"/>
  <path class="cls-2" d="M468.77,533.72c1.79,0,3.68-.78,4.95-2.05s2.13-3.21,2.05-4.95-.68-3.69-2.05-4.95-3.05-2.05-4.95-2.05c-1.79,0-3.68.78-4.95,2.05s-2.13,3.21-2.05,4.95.68,3.69,2.05,4.95,3.05,2.05,4.95,2.05h0Z"/>
  <path class="cls-2" d="M427.91,539.85c1.79,0,3.68-.78,4.95-2.05s2.13-3.21,2.05-4.95-.68-3.69-2.05-4.95-3.05-2.05-4.95-2.05c-1.79,0-3.68.78-4.95,2.05s-2.13,3.21-2.05,4.95.68,3.69,2.05,4.95,3.05,2.05,4.95,2.05h0Z"/>
  <path class="cls-2" d="M380.94,543.94c1.79,0,3.68-.78,4.95-2.05s2.13-3.21,2.05-4.95-.68-3.69-2.05-4.95-3.05-2.05-4.95-2.05c-1.79,0-3.68.78-4.95,2.05s-2.13,3.21-2.05,4.95.68,3.69,2.05,4.95,3.05,2.05,4.95,2.05h0Z"/>
  <path class="cls-2" d="M333.96,545.98c1.79,0,3.68-.78,4.95-2.05s2.13-3.21,2.05-4.95-.68-3.69-2.05-4.95-3.05-2.05-4.95-2.05c-1.79,0-3.68.78-4.95,2.05s-2.13,3.21-2.05,4.95.68,3.69,2.05,4.95,3.05,2.05,4.95,2.05h0Z"/>
  <path class="cls-2" d="M270.64,562.32c1.79,0,3.68-.78,4.95-2.05s2.13-3.21,2.05-4.95-.68-3.69-2.05-4.95-3.05-2.05-4.95-2.05c-1.79,0-3.68.78-4.95,2.05s-2.13,3.21-2.05,4.95.68,3.69,2.05,4.95,3.05,2.05,4.95,2.05h0Z"/>
  <path class="cls-2" d="M225.7,564.36c1.79,0,3.68-.78,4.95-2.05s2.13-3.21,2.05-4.95-.68-3.69-2.05-4.95-3.05-2.05-4.95-2.05c-1.79,0-3.68.78-4.95,2.05s-2.13,3.21-2.05,4.95.68,3.69,2.05,4.95,3.05,2.05,4.95,2.05h0Z"/>
  <path class="cls-2" d="M172.6,566.4c1.79,0,3.68-.78,4.95-2.05s2.13-3.21,2.05-4.95-.68-3.69-2.05-4.95-3.05-2.05-4.95-2.05c-1.79,0-3.68.78-4.95,2.05s-2.13,3.21-2.05,4.95.68,3.69,2.05,4.95,3.05,2.05,4.95,2.05h0Z"/>
  <path class="cls-2" d="M123.57,574.57c1.79,0,3.68-.78,4.95-2.05s2.13-3.21,2.05-4.95-.68-3.69-2.05-4.95-3.05-2.05-4.95-2.05c-1.79,0-3.68.78-4.95,2.05s-2.13,3.21-2.05,4.95.68,3.69,2.05,4.95,3.05,2.05,4.95,2.05h0Z"/>
  <path class="cls-2" d="M86.81,574.57c1.79,0,3.68-.78,4.95-2.05s2.13-3.21,2.05-4.95-.68-3.69-2.05-4.95-3.05-2.05-4.95-2.05c-1.79,0-3.68.78-4.95,2.05s-2.13,3.21-2.05,4.95.68,3.69,2.05,4.95,3.05,2.05,4.95,2.05h0Z"/>
  <path class="cls-2" d="M1790.3,570.49c1.79,0,3.68-.78,4.95-2.05s2.13-3.21,2.05-4.95-.68-3.69-2.05-4.95-3.05-2.05-4.95-2.05c-1.79,0-3.68.78-4.95,2.05s-2.13,3.21-2.05,4.95.68,3.69,2.05,4.95,3.05,2.05,4.95,2.05h0Z"/>
  <path class="cls-2" d="M1753.53,572.53c1.79,0,3.68-.78,4.95-2.05s2.13-3.21,2.05-4.95-.68-3.69-2.05-4.95-3.05-2.05-4.95-2.05c-1.79,0-3.68.78-4.95,2.05s-2.13,3.21-2.05,4.95.68,3.69,2.05,4.95,3.05,2.05,4.95,2.05h0Z"/>
  <path class="cls-2" d="M1716.77,590.91c1.79,0,3.68-.78,4.95-2.05s2.13-3.21,2.05-4.95-.68-3.69-2.05-4.95-3.05-2.05-4.95-2.05c-1.79,0-3.68.78-4.95,2.05s-2.13,3.21-2.05,4.95.68,3.69,2.05,4.95,3.05,2.05,4.95,2.05h0Z"/>
  <path class="cls-2" d="M1675.91,605.21c1.79,0,3.68-.78,4.95-2.05s2.13-3.21,2.05-4.95-.68-3.69-2.05-4.95-3.05-2.05-4.95-2.05c-1.79,0-3.68.78-4.95,2.05s-2.13,3.21-2.05,4.95.68,3.69,2.05,4.95,3.05,2.05,4.95,2.05h0Z"/>
  <path class="cls-2" d="M1637.11,613.38c1.79,0,3.68-.78,4.95-2.05s2.13-3.21,2.05-4.95-.68-3.69-2.05-4.95-3.05-2.05-4.95-2.05c-1.79,0-3.68.78-4.95,2.05s-2.13,3.21-2.05,4.95.68,3.69,2.05,4.95,3.05,2.05,4.95,2.05h0Z"/>
  <path class="cls-2" d="M1602.38,623.6c1.79,0,3.68-.78,4.95-2.05s2.13-3.21,2.05-4.95-.68-3.69-2.05-4.95-3.05-2.05-4.95-2.05c-1.79,0-3.68.78-4.95,2.05s-2.13,3.21-2.05,4.95.68,3.69,2.05,4.95,3.05,2.05,4.95,2.05h0Z"/>
  <path class="cls-2" d="M1559.49,635.85c1.79,0,3.68-.78,4.95-2.05s2.13-3.21,2.05-4.95-.68-3.69-2.05-4.95-3.05-2.05-4.95-2.05c-1.79,0-3.68.78-4.95,2.05s-2.13,3.21-2.05,4.95.68,3.69,2.05,4.95,3.05,2.05,4.95,2.05h0Z"/>
  <path class="cls-2" d="M1524.77,637.89c1.79,0,3.68-.78,4.95-2.05s2.13-3.21,2.05-4.95-.68-3.69-2.05-4.95-3.05-2.05-4.95-2.05c-1.79,0-3.68.78-4.95,2.05s-2.13,3.21-2.05,4.95.68,3.69,2.05,4.95,3.05,2.05,4.95,2.05h0Z"/>
  <path class="cls-2" d="M1483.91,637.89c1.79,0,3.68-.78,4.95-2.05s2.13-3.21,2.05-4.95-.68-3.69-2.05-4.95-3.05-2.05-4.95-2.05c-1.79,0-3.68.78-4.95,2.05s-2.13,3.21-2.05,4.95.68,3.69,2.05,4.95,3.05,2.05,4.95,2.05h0Z"/>
  <path class="cls-2" d="M1434.89,635.85c1.79,0,3.68-.78,4.95-2.05s2.13-3.21,2.05-4.95-.68-3.69-2.05-4.95-3.05-2.05-4.95-2.05c-1.79,0-3.68.78-4.95,2.05s-2.13,3.21-2.05,4.95.68,3.69,2.05,4.95,3.05,2.05,4.95,2.05h0Z"/>
  <path class="cls-2" d="M1396.09,625.64c1.79,0,3.68-.78,4.95-2.05s2.13-3.21,2.05-4.95-.68-3.69-2.05-4.95-3.05-2.05-4.95-2.05c-1.79,0-3.68.78-4.95,2.05s-2.13,3.21-2.05,4.95.68,3.69,2.05,4.95,3.05,2.05,4.95,2.05h0Z"/>
  <path class="cls-2" d="M1353.19,613.38c1.79,0,3.68-.78,4.95-2.05s2.13-3.21,2.05-4.95-.68-3.69-2.05-4.95-3.05-2.05-4.95-2.05c-1.79,0-3.68.78-4.95,2.05s-2.13,3.21-2.05,4.95.68,3.69,2.05,4.95,3.05,2.05,4.95,2.05h0Z"/>
  <path class="cls-2" d="M1324.6,605.21c1.79,0,3.68-.78,4.95-2.05s2.13-3.21,2.05-4.95-.68-3.69-2.05-4.95-3.05-2.05-4.95-2.05c-1.79,0-3.68.78-4.95,2.05s-2.13,3.21-2.05,4.95.68,3.69,2.05,4.95,3.05,2.05,4.95,2.05h0Z"/>
  <path class="cls-2" d="M1291.91,599.09c1.79,0,3.68-.78,4.95-2.05s2.13-3.21,2.05-4.95-.68-3.69-2.05-4.95-3.05-2.05-4.95-2.05c-1.79,0-3.68.78-4.95,2.05s-2.13,3.21-2.05,4.95.68,3.69,2.05,4.95,3.05,2.05,4.95,2.05h0Z"/>
  <path class="cls-2" d="M1259.23,590.91c1.79,0,3.68-.78,4.95-2.05s2.13-3.21,2.05-4.95-.68-3.69-2.05-4.95-3.05-2.05-4.95-2.05c-1.79,0-3.68.78-4.95,2.05s-2.13,3.21-2.05,4.95.68,3.69,2.05,4.95,3.05,2.05,4.95,2.05h0Z"/>
  <path class="cls-2" d="M1222.47,578.66c1.79,0,3.68-.78,4.95-2.05s2.13-3.21,2.05-4.95-.68-3.69-2.05-4.95-3.05-2.05-4.95-2.05c-1.79,0-3.68.78-4.95,2.05s-2.13,3.21-2.05,4.95.68,3.69,2.05,4.95,3.05,2.05,4.95,2.05h0Z"/>
  <path class="cls-2" d="M1183.66,568.45c1.79,0,3.68-.78,4.95-2.05s2.13-3.21,2.05-4.95-.68-3.69-2.05-4.95-3.05-2.05-4.95-2.05c-1.79,0-3.68.78-4.95,2.05s-2.13,3.21-2.05,4.95.68,3.69,2.05,4.95,3.05,2.05,4.95,2.05h0Z"/>
  <path class="cls-2" d="M1138.72,562.32c1.79,0,3.68-.78,4.95-2.05s2.13-3.21,2.05-4.95-.68-3.69-2.05-4.95-3.05-2.05-4.95-2.05c-1.79,0-3.68.78-4.95,2.05s-2.13,3.21-2.05,4.95.68,3.69,2.05,4.95,3.05,2.05,4.95,2.05h0Z"/>
  <path class="cls-2" d="M1110.13,556.19c1.79,0,3.68-.78,4.95-2.05s2.13-3.21,2.05-4.95-.68-3.69-2.05-4.95-3.05-2.05-4.95-2.05c-1.79,0-3.68.78-4.95,2.05s-2.13,3.21-2.05,4.95.68,3.69,2.05,4.95,3.05,2.05,4.95,2.05h0Z"/>
  <path class="cls-2" d="M1077.45,552.11c1.79,0,3.68-.78,4.95-2.05s2.13-3.21,2.05-4.95-.68-3.69-2.05-4.95-3.05-2.05-4.95-2.05c-1.79,0-3.68.78-4.95,2.05s-2.13,3.21-2.05,4.95.68,3.69,2.05,4.95,3.05,2.05,4.95,2.05h0Z"/>
  <path class="cls-2" d="M1044.77,548.02c1.79,0,3.68-.78,4.95-2.05s2.13-3.21,2.05-4.95-.68-3.69-2.05-4.95-3.05-2.05-4.95-2.05c-1.79,0-3.68.78-4.95,2.05s-2.13,3.21-2.05,4.95.68,3.69,2.05,4.95,3.05,2.05,4.95,2.05h0Z"/>
  <path class="cls-2" d="M1012.09,548.02c1.79,0,3.68-.78,4.95-2.05s2.13-3.21,2.05-4.95-.68-3.69-2.05-4.95-3.05-2.05-4.95-2.05c-1.79,0-3.68.78-4.95,2.05s-2.13,3.21-2.05,4.95.68,3.69,2.05,4.95,3.05,2.05,4.95,2.05h0Z"/>
  <path class="cls-2" d="M975.32,545.98c1.79,0,3.68-.78,4.95-2.05s2.13-3.21,2.05-4.95-.68-3.69-2.05-4.95-3.05-2.05-4.95-2.05c-1.79,0-3.68.78-4.95,2.05s-2.13,3.21-2.05,4.95.68,3.69,2.05,4.95,3.05,2.05,4.95,2.05h0Z"/>
  <path class="cls-2" d="M942.64,545.98c1.79,0,3.68-.78,4.95-2.05s2.13-3.21,2.05-4.95-.68-3.69-2.05-4.95-3.05-2.05-4.95-2.05c-1.79,0-3.68.78-4.95,2.05s-2.13,3.21-2.05,4.95.68,3.69,2.05,4.95,3.05,2.05,4.95,2.05h0Z"/>
  <path class="cls-2" d="M909.96,545.98c1.79,0,3.68-.78,4.95-2.05s2.13-3.21,2.05-4.95-.68-3.69-2.05-4.95-3.05-2.05-4.95-2.05c-1.79,0-3.68.78-4.95,2.05s-2.13,3.21-2.05,4.95.68,3.69,2.05,4.95,3.05,2.05,4.95,2.05h0Z"/>
  <path class="cls-2" d="M867.06,545.98c1.79,0,3.68-.78,4.95-2.05s2.13-3.21,2.05-4.95-.68-3.69-2.05-4.95-3.05-2.05-4.95-2.05c-1.79,0-3.68.78-4.95,2.05s-2.13,3.21-2.05,4.95.68,3.69,2.05,4.95,3.05,2.05,4.95,2.05h0Z"/>
  <path class="cls-2" d="M832.34,554.15c1.79,0,3.68-.78,4.95-2.05s2.13-3.21,2.05-4.95-.68-3.69-2.05-4.95-3.05-2.05-4.95-2.05c-1.79,0-3.68.78-4.95,2.05s-2.13,3.21-2.05,4.95.68,3.69,2.05,4.95,3.05,2.05,4.95,2.05h0Z"/>
  <path class="cls-2" d="M795.57,556.19c1.79,0,3.68-.78,4.95-2.05s2.13-3.21,2.05-4.95-.68-3.69-2.05-4.95-3.05-2.05-4.95-2.05c-1.79,0-3.68.78-4.95,2.05s-2.13,3.21-2.05,4.95.68,3.69,2.05,4.95,3.05,2.05,4.95,2.05h0Z"/>
  <path class="cls-2" d="M758.81,556.19c1.79,0,3.68-.78,4.95-2.05s2.13-3.21,2.05-4.95-.68-3.69-2.05-4.95-3.05-2.05-4.95-2.05c-1.79,0-3.68.78-4.95,2.05s-2.13,3.21-2.05,4.95.68,3.69,2.05,4.95,3.05,2.05,4.95,2.05h0Z"/>
  <path class="cls-2" d="M713.87,564.36c1.79,0,3.68-.78,4.95-2.05s2.13-3.21,2.05-4.95-.68-3.69-2.05-4.95-3.05-2.05-4.95-2.05c-1.79,0-3.68.78-4.95,2.05s-2.13,3.21-2.05,4.95.68,3.69,2.05,4.95,3.05,2.05,4.95,2.05h0Z"/>
  <path class="cls-2" d="M668.94,564.36c1.79,0,3.68-.78,4.95-2.05s2.13-3.21,2.05-4.95-.68-3.69-2.05-4.95-3.05-2.05-4.95-2.05c-1.79,0-3.68.78-4.95,2.05s-2.13,3.21-2.05,4.95.68,3.69,2.05,4.95,3.05,2.05,4.95,2.05h0Z"/>
  <path class="cls-2" d="M624,566.4c1.79,0,3.68-.78,4.95-2.05s2.13-3.21,2.05-4.95-.68-3.69-2.05-4.95-3.05-2.05-4.95-2.05c-1.79,0-3.68.78-4.95,2.05s-2.13,3.21-2.05,4.95.68,3.69,2.05,4.95,3.05,2.05,4.95,2.05h0Z"/>
  <path class="cls-2" d="M560.68,582.74c1.79,0,3.68-.78,4.95-2.05s2.13-3.21,2.05-4.95-.68-3.69-2.05-4.95-3.05-2.05-4.95-2.05c-1.79,0-3.68.78-4.95,2.05s-2.13,3.21-2.05,4.95.68,3.69,2.05,4.95,3.05,2.05,4.95,2.05h0Z"/>
  <path class="cls-2" d="M523.91,582.74c1.79,0,3.68-.78,4.95-2.05s2.13-3.21,2.05-4.95-.68-3.69-2.05-4.95-3.05-2.05-4.95-2.05c-1.79,0-3.68.78-4.95,2.05s-2.13,3.21-2.05,4.95.68,3.69,2.05,4.95,3.05,2.05,4.95,2.05h0Z"/>
  <path class="cls-2" d="M487.15,582.74c1.79,0,3.68-.78,4.95-2.05s2.13-3.21,2.05-4.95-.68-3.69-2.05-4.95-3.05-2.05-4.95-2.05c-1.79,0-3.68.78-4.95,2.05s-2.13,3.21-2.05,4.95.68,3.69,2.05,4.95,3.05,2.05,4.95,2.05h0Z"/>
  <path class="cls-2" d="M452.43,586.83c1.79,0,3.68-.78,4.95-2.05s2.13-3.21,2.05-4.95-.68-3.69-2.05-4.95-3.05-2.05-4.95-2.05c-1.79,0-3.68.78-4.95,2.05s-2.13,3.21-2.05,4.95.68,3.69,2.05,4.95,3.05,2.05,4.95,2.05h0Z"/>
  <path class="cls-2" d="M407.49,590.91c1.79,0,3.68-.78,4.95-2.05s2.13-3.21,2.05-4.95-.68-3.69-2.05-4.95-3.05-2.05-4.95-2.05c-1.79,0-3.68.78-4.95,2.05s-2.13,3.21-2.05,4.95.68,3.69,2.05,4.95,3.05,2.05,4.95,2.05h0Z"/>
  <path class="cls-2" d="M352.34,597.04c1.79,0,3.68-.78,4.95-2.05s2.13-3.21,2.05-4.95-.68-3.69-2.05-4.95-3.05-2.05-4.95-2.05c-1.79,0-3.68.78-4.95,2.05s-2.13,3.21-2.05,4.95.68,3.69,2.05,4.95,3.05,2.05,4.95,2.05h0Z"/>
  <path class="cls-2" d="M319.66,609.3c1.79,0,3.68-.78,4.95-2.05s2.13-3.21,2.05-4.95-.68-3.69-2.05-4.95-3.05-2.05-4.95-2.05c-1.79,0-3.68.78-4.95,2.05s-2.13,3.21-2.05,4.95.68,3.69,2.05,4.95,3.05,2.05,4.95,2.05h0Z"/>
  <path class="cls-2" d="M266.55,615.43c1.79,0,3.68-.78,4.95-2.05s2.13-3.21,2.05-4.95-.68-3.69-2.05-4.95-3.05-2.05-4.95-2.05c-1.79,0-3.68.78-4.95,2.05s-2.13,3.21-2.05,4.95.68,3.69,2.05,4.95,3.05,2.05,4.95,2.05h0Z"/>
  <path class="cls-2" d="M223.66,621.55c1.79,0,3.68-.78,4.95-2.05s2.13-3.21,2.05-4.95-.68-3.69-2.05-4.95-3.05-2.05-4.95-2.05c-1.79,0-3.68.78-4.95,2.05s-2.13,3.21-2.05,4.95.68,3.69,2.05,4.95,3.05,2.05,4.95,2.05h0Z"/>
  <path class="cls-2" d="M182.81,623.6c1.79,0,3.68-.78,4.95-2.05s2.13-3.21,2.05-4.95-.68-3.69-2.05-4.95-3.05-2.05-4.95-2.05c-1.79,0-3.68.78-4.95,2.05s-2.13,3.21-2.05,4.95.68,3.69,2.05,4.95,3.05,2.05,4.95,2.05h0Z"/>
  <path class="cls-2" d="M141.96,627.68c1.79,0,3.68-.78,4.95-2.05s2.13-3.21,2.05-4.95-.68-3.69-2.05-4.95-3.05-2.05-4.95-2.05c-1.79,0-3.68.78-4.95,2.05s-2.13,3.21-2.05,4.95.68,3.69,2.05,4.95,3.05,2.05,4.95,2.05h0Z"/>
  <path class="cls-2" d="M103.15,631.77c1.79,0,3.68-.78,4.95-2.05s2.13-3.21,2.05-4.95-.68-3.69-2.05-4.95-3.05-2.05-4.95-2.05c-1.79,0-3.68.78-4.95,2.05s-2.13,3.21-2.05,4.95.68,3.69,2.05,4.95,3.05,2.05,4.95,2.05h0Z"/>
  <path class="cls-2" d="M1657.61,1012.69c10.65,1.3,21.46,1.01,32.05-.76s20.76-4.99,30.37-9.58c9.23-4.41,17.81-10.11,25.47-16.89,7.36-6.51,13.87-14,19.32-22.18s9.85-17.07,12.99-26.38c.39-1.15.75-2.3,1.1-3.46.19-.62-.78-.88-.96-.27-2.82,9.37-6.91,18.33-12.08,26.63-5.14,8.25-11.33,15.83-18.4,22.5s-15.58,12.81-24.51,17.46c-9.37,4.88-19.43,8.41-29.79,10.5s-21.14,2.74-31.74,1.82c-1.28-.11-2.55-.25-3.82-.4-.64-.08-.63.92,0,1h0Z"/>
  <path class="cls-2" d="M1584.12,1051.1c16.54,2.15,33.22,3.29,49.9,3.39,16.68.1,33.37-.83,49.94-2.78,15.4-1.82,30.9-4.23,45.72-8.87,13.49-4.22,26.46-10.49,37.11-19.91,9.58-8.47,17.3-19.4,20.68-31.84.42-1.54.77-3.1,1.05-4.68.11-.63-.85-.9-.96-.27-2.3,12.76-9.22,24.17-18.38,33.19-10.03,9.87-22.58,16.65-35.81,21.23-14.48,5.01-29.71,7.61-44.86,9.57-16.28,2.11-32.69,3.22-49.1,3.34-16.42.12-32.84-.76-49.15-2.63-2.05-.24-4.09-.49-6.13-.75-.64-.08-.63.92,0,1h0Z"/>
  <path class="cls-2" d="M1743.52,710.37c7.05,5.23,13.69,11.02,19.84,17.28,6.15,6.26,11.83,12.99,16.97,20.11,5.13,7.1,9.73,14.58,13.75,22.36s7.45,15.84,10.26,24.12,4.99,16.8,6.49,25.42c.18,1.06.36,2.13.52,3.19.1.63,1.06.36.96-.27-1.34-8.72-3.38-17.33-6.06-25.73-2.68-8.38-5.99-16.56-9.9-24.45-3.91-7.91-8.42-15.53-13.46-22.76-5.03-7.22-10.6-14.07-16.65-20.45s-12.59-12.3-19.56-17.68c-.88-.68-1.77-1.35-2.66-2.01-.52-.38-1.02.48-.5.86h0Z"/>
  <path class="cls-2" d="M1672.04,716.24c11.36,6.11,22.1,13.34,32.06,21.53,9.93,8.17,19.09,17.28,27.34,27.13s15.62,20.48,21.97,31.67c6.34,11.18,11.68,22.94,15.86,35.1,4.17,12.12,7.21,24.63,8.99,37.32.22,1.6.43,3.21.61,4.82.07.63,1.07.64,1,0-1.47-12.86-4.21-25.56-8.14-37.9s-9.02-24.29-15.16-35.68c-6.12-11.37-13.28-22.18-21.34-32.26-8.08-10.1-17.09-19.47-26.89-27.92s-20.4-15.97-31.64-22.37c-1.38-.78-2.76-1.55-4.16-2.3-.57-.3-1.07.56-.5.86h0Z"/>
  <path class="cls-2" d="M1602.46,740.7c9.4,2.03,18.66,4.67,27.71,7.9,9.02,3.21,17.82,6.99,26.36,11.32,8.55,4.33,16.83,9.19,24.77,14.54s15.59,11.24,22.81,17.57,14,13.09,20.34,20.27c.78.88,1.55,1.77,2.31,2.67.42.49,1.12-.22.71-.71-6.26-7.34-13-14.26-20.16-20.73s-14.69-12.44-22.59-17.94-16.12-10.5-24.63-14.97c-8.49-4.46-17.26-8.38-26.24-11.74-9-3.37-18.22-6.16-27.58-8.35-1.18-.27-2.36-.54-3.54-.79-.63-.14-.9.83-.27.96h0Z"/>
  <path class="cls-2" d="M1376.78,863.62c4.54-11.55,9.28-23.02,14.41-34.31s10.68-22.53,16.77-33.4c6-10.72,12.55-21.14,19.81-31.06s15.11-19.14,23.83-27.65c8.68-8.47,18.16-16.12,28.4-22.63,1.26-.8,2.52-1.58,3.8-2.35.55-.33.05-1.2-.5-.86-10.46,6.28-20.2,13.71-29.13,22.02s-17,17.44-24.38,27.12c-7.48,9.82-14.22,20.19-20.39,30.87s-11.91,21.97-17.17,33.3c-5.27,11.35-10.13,22.89-14.76,34.51-.55,1.39-1.1,2.78-1.65,4.17-.24.6.73.86.96.27h0Z"/>
  <path class="cls-2" d="M1404.85,912.98c1.14-13.07,4.04-25.94,8.36-38.32s10.08-24.35,16.88-35.63,14.76-22.03,23.45-32.03,18.35-19.59,28.39-28.48,20.7-17.35,31.57-25.35c1.31-.96,2.62-1.92,3.94-2.87.52-.37.02-1.24-.5-.86-10.96,7.94-21.68,16.23-31.93,25.08-10.27,8.86-20.08,18.26-29.14,28.35-8.93,9.94-17.14,20.55-24.28,31.85-7.03,11.13-13.04,22.91-17.71,35.22s-7.95,25.12-9.52,38.19c-.19,1.62-.36,3.24-.5,4.86-.06.64.94.64,1,0h0Z"/>
  <path class="cls-2" d="M1277.19,764.45c6.89,3.39,14.15,5.99,21.63,7.74,7.51,1.76,15.22,2.67,22.93,2.7,4.36.02,8.71-.25,13.03-.8.63-.08.64-1.08,0-1-7.53.95-15.17,1.05-22.73.29-7.62-.76-15.16-2.4-22.41-4.86-4.08-1.38-8.07-3.04-11.94-4.94-.58-.28-1.08.58-.5.86h0Z"/>
  <path class="cls-2" d="M1335.39,654.73c5.11,3.85,9.79,8.26,13.98,13.09s7.89,10.09,11.04,15.66,5.78,11.45,7.8,17.52,3.47,12.33,4.25,18.68.94,12.73.4,19.08c-.07.79-.14,1.58-.23,2.37-.07.64.93.63,1,0,.71-6.43.72-12.94.06-19.38s-1.95-12.77-3.86-18.94-4.41-12.16-7.47-17.85-6.66-11.07-10.77-16.05c-4.12-4.99-8.74-9.56-13.81-13.58-.63-.5-1.27-.99-1.91-1.48-.51-.39-1.01.48-.5.86h0Z"/>
  <path class="cls-2" d="M1238.53,665.33c-7.86,9.56-13.66,20.76-16.91,32.7-.92,3.38-1.63,6.81-2.14,10.28-.09.63.87.9.96.27,1.77-12.08,6.1-23.75,12.65-34.05,1.87-2.95,3.93-5.79,6.15-8.49.41-.49-.3-1.2-.71-.71h0Z"/>
  <path class="cls-2" d="M1271.12,661.17c-5.74,7.23-10.51,15.2-14.18,23.67s-6.26,17.39-7.64,26.52c-.78,5.14-1.18,10.34-1.19,15.54,0,.64,1,.64,1,0,.02-9.14,1.26-18.26,3.64-27.08s5.88-17.27,10.42-25.16c2.56-4.46,5.46-8.74,8.66-12.77.4-.5-.31-1.21-.71-.71h0Z"/>
  <path class="cls-2" d="M1543.03,97.61c-7.39,9.48-13.49,19.91-18.12,31.01-1.31,3.15-2.5,6.35-3.57,9.59-.2.61.76.88.96.27,3.72-11.25,8.93-21.98,15.47-31.86,1.88-2.84,3.87-5.61,5.96-8.29.39-.5-.31-1.21-.71-.71h0Z"/>
  <path class="cls-2" d="M1574.29,87.89c-6.38,8.23-11.93,17.1-16.52,26.44-4.6,9.34-8.26,19.15-10.91,29.22-1.49,5.67-2.65,11.43-3.48,17.23-.09.63.87.9.96.27,1.46-10.23,3.97-20.31,7.45-30.04,3.49-9.76,7.96-19.16,13.33-28.03,3.02-4.98,6.31-9.79,9.88-14.39.39-.5-.31-1.22-.71-.71h0Z"/>
  <path class="cls-2" d="M1641.24,255.13c11.64,1.27,23.32,2.1,35.02,2.5s23.42.36,35.11-.12c6.59-.27,13.17-.68,19.75-1.22.64-.05.64-1.05,0-1-11.67.97-23.37,1.5-35.08,1.6-11.71.09-23.42-.25-35.1-1.02-6.58-.44-13.15-1.02-19.71-1.73-.64-.07-.63.93,0,1h0Z"/>
  <path class="cls-2" d="M1702.24,75.54c5.93,5.68,11.43,11.8,16.43,18.32,5,6.52,9.51,13.42,13.47,20.62,2.22,4.04,4.27,8.17,6.13,12.39.26.59,1.12.08.86-.5-3.35-7.55-7.26-14.83-11.72-21.78-4.44-6.92-9.4-13.51-14.83-19.69-3.07-3.49-6.29-6.84-9.64-10.06-.46-.45-1.17.26-.71.71h0Z"/>
  <path class="cls-2" d="M1676.17,85.29c8.49,6.35,16.5,13.33,23.96,20.86,7.43,7.5,14.32,15.55,20.57,24.07,3.52,4.79,6.83,9.73,9.94,14.8.34.55,1.2.05.86-.5-5.57-9.08-11.81-17.74-18.66-25.9-6.86-8.18-14.33-15.85-22.33-22.92-4.46-3.94-9.08-7.7-13.85-11.26-.52-.39-1.01.48-.5.86h0Z"/>
  <path class="cls-2" d="M1618.63,218.69c14.69,4.78,29.98,7.7,45.41,8.65,7.5.46,15.12.64,22.58-.38,6.7-.92,13.35-2.94,18.92-6.86s9.91-9.41,11.39-16.05c.14-.63-.82-.89-.96-.27-1.31,5.86-4.99,10.87-9.68,14.53-5.25,4.09-11.63,6.33-18.14,7.41-7.23,1.2-14.67,1.1-21.97.73s-15.11-1.23-22.57-2.55c-8.37-1.48-16.63-3.55-24.71-6.18-.61-.2-.88.77-.27.96h0Z"/>
  <path class="cls-2" d="M1599.59,97.33c-7.8,12.36-14.24,25.56-19.18,39.31-4.63,12.92-8.24,26.63-7.66,40.47.31,7.54,1.97,15,5.38,21.76.29.57,1.15.07.86-.5-6.14-12.2-6.23-26.32-3.78-39.49,1.25-6.74,3.17-13.33,5.41-19.81,2.35-6.81,5.08-13.48,8.16-19.99,3.46-7.31,7.36-14.4,11.68-21.24.34-.55-.52-1.05-.86-.5h0Z"/>
  <path class="cls-2" d="M966.89,332.54c-4.54,6.77-8.23,14.1-10.98,21.77-2.75,7.67-4.56,15.68-5.38,23.79-.46,4.59-.6,9.21-.41,13.82.03.64,1.03.64,1,0-.33-8.09.35-16.22,2.02-24.14s4.29-15.65,7.83-22.94c1.98-4.08,4.25-8.03,6.78-11.79.36-.54-.51-1.04-.86-.5h0Z"/>
  <path class="cls-2" d="M1073.07,292.1c6.02,4.86,11.43,10.46,16.07,16.64,4.63,6.16,8.51,12.89,11.52,19.99,1.71,4.03,3.13,8.19,4.25,12.42.17.62,1.13.36.96-.27-2-7.52-4.94-14.79-8.71-21.6s-8.38-13.16-13.69-18.85c-3.02-3.24-6.26-6.26-9.7-9.04-.5-.4-1.21.3-.71.71h0Z"/>
  <path class="cls-2" d="M1038.39,405.31c11.18,1.92,22.6,2.38,33.9,1.33,3.18-.29,6.35-.71,9.49-1.23.63-.11.36-1.07-.27-.96-11.02,1.83-22.28,2.22-33.4,1.16-3.17-.3-6.33-.73-9.46-1.26-.63-.11-.9.86-.27.96h0Z"/>
  <path class="cls-2" d="M993.2,336.48c-4.41,9.46-7.23,19.62-8.42,29.99-1.19,10.35-.75,20.9,1.31,31.11,1.17,5.79,2.87,11.46,5.09,16.93.24.59,1.21.33.96-.27-3.89-9.58-6.18-19.78-6.83-30.09-.65-10.32.31-20.73,2.88-30.74,1.45-5.64,3.41-11.15,5.87-16.43.27-.58-.59-1.09-.86-.5h0Z"/>
  <path class="cls-2" d="M1044.84,306.04c7.94,2.86,15.44,6.9,22.24,11.91,6.78,4.99,12.87,10.97,17.97,17.67,2.87,3.77,5.44,7.77,7.66,11.96.3.57,1.17.06.86-.5-4.01-7.56-9.14-14.51-15.15-20.61-5.96-6.05-12.78-11.26-20.19-15.41-4.2-2.35-8.6-4.35-13.13-5.98-.61-.22-.87.75-.27.96h0Z"/>
  <path class="cls-2" d="M778.83,1023.46c7.84,8.66,17.37,15.77,27.89,20.83,2.97,1.43,6.02,2.69,9.13,3.79.61.21.87-.75.27-.96-10.89-3.84-21.02-9.82-29.66-17.49-2.43-2.16-4.75-4.46-6.93-6.87-.43-.48-1.14.23-.71.71h0Z"/>
  <path class="cls-2" d="M794.11,983.19c5.24,7.46,11.22,14.39,17.82,20.68,6.57,6.27,13.75,11.9,21.38,16.84s15.72,9.17,24.13,12.63c8.45,3.48,17.22,6.18,26.17,8.02s17.97,2.81,27.05,2.88c1.13,0,2.25,0,3.38-.02.64-.01.64-1.01,0-1-9.03.16-18.06-.58-26.95-2.2s-17.64-4.08-26.07-7.33c-8.44-3.24-16.57-7.27-24.27-12-7.7-4.73-14.96-10.16-21.64-16.24-6.7-6.09-12.83-12.83-18.21-20.12-.65-.88-1.29-1.77-1.92-2.67-.37-.52-1.23-.02-.86.5h0Z"/>
  <path class="cls-2" d="M1086.73,788.99c4.53,5.59,8.78,11.4,12.73,17.41s7.63,12.21,10.99,18.58,6.42,12.88,9.15,19.53,5.12,13.38,7.19,20.24,3.83,13.88,5.23,20.94c.17.87.34,1.75.5,2.63.12.63,1.08.36.96-.27-1.32-7.11-2.99-14.16-5.01-21.11s-4.36-13.8-7.04-20.52-5.65-13.26-8.94-19.67-6.92-12.71-10.84-18.79-8.09-11.93-12.56-17.58c-.55-.7-1.11-1.39-1.67-2.09-.41-.5-1.11.21-.71.71h0Z"/>
  <path class="cls-2" d="M1044.91,788.04c7.27,7.52,14.03,15.52,20.24,23.94s11.83,17.17,16.89,26.28,9.57,18.61,13.44,28.33c3.85,9.68,7.09,19.61,9.67,29.71,2.59,10.13,4.52,20.43,5.75,30.81.15,1.29.29,2.58.43,3.87.06.63,1.07.64,1,0-1.07-10.45-2.82-20.83-5.25-31.05-2.43-10.21-5.53-20.27-9.26-30.09s-8.06-19.33-12.99-28.56c-4.97-9.3-10.53-18.27-16.66-26.85s-12.72-16.63-19.86-24.28c-.89-.95-1.78-1.89-2.68-2.82-.45-.46-1.15.24-.71.71h0Z"/>
  <path class="cls-2" d="M991.62,782.17c10.75,3.7,18.99,11.98,26.4,20.27,8.16,9.13,16.26,18.38,23.7,28.12s14.11,20.07,19.06,31.29c4.85,10.99,8.12,22.69,9.75,34.59,1.64,11.94,1.62,24.14-.14,36.07-.22,1.48-.46,2.95-.73,4.41-.11.63.85.9.96.27,2.19-11.96,2.66-24.21,1.43-36.3s-4.12-24.01-8.63-35.3-10.94-22.11-18.24-32.06-15.68-19.53-23.93-28.93c-7.36-8.39-15.2-17.09-25.52-21.84-1.25-.58-2.54-1.09-3.84-1.54-.61-.21-.87.76-.27.96h0Z"/>
  <path class="cls-2" d="M775.54,745.91c9.47-6.39,19.34-12.19,29.53-17.35s20.77-9.71,31.56-13.56c6.05-2.16,12.17-4.1,18.36-5.83.62-.17.36-1.14-.27-.96-11.08,3.09-21.96,6.88-32.56,11.34s-20.8,9.52-30.7,15.23c-5.6,3.23-11.08,6.65-16.43,10.27-.53.36-.03,1.22.5.86h0Z"/>
  <path class="cls-2" d="M763.99,843c6.02-13.3,12.81-26.25,20.35-38.75,7.08-11.75,14.75-23.2,23.29-33.94,8-10.06,16.84-19.51,26.88-27.56s22.1-14.89,34.73-19.32c13.45-4.71,27.5-7.33,41.52-9.69,1.73-.29,3.46-.58,5.2-.87.63-.11.36-1.07-.27-.96-14.17,2.35-28.4,4.73-42.13,9.04-6.71,2.1-13.29,4.68-19.55,7.88-5.74,2.94-11.21,6.4-16.38,10.25-10.31,7.68-19.42,16.85-27.62,26.73-8.66,10.42-16.4,21.62-23.57,33.11-7.78,12.47-14.82,25.39-21.06,38.69-.76,1.63-1.51,3.26-2.25,4.89-.26.58.6,1.09.86.5h0Z"/>
  <path class="cls-2" d="M787.87,894.43c5.24-15.14,10.66-30.23,16.96-44.97,6.25-14.6,13.37-28.87,21.99-42.22s17.79-24.54,29.04-34.69c10.75-9.7,22.91-17.92,36.16-23.81,12.98-5.77,27.05-9.2,41.29-9.33,1.79-.02,3.58.02,5.37.11.64.03.64-.97,0-1-14.37-.68-28.73,2.01-42.1,7.24s-26.01,13.04-37.13,22.34-21.51,21.07-30.05,33.47c-9.06,13.15-16.54,27.33-23.04,41.9-6.57,14.72-12.16,29.84-17.49,45.04-.66,1.88-1.31,3.76-1.96,5.64-.21.61.75.87.96.27h0Z"/>
  <path class="cls-2" d="M187.75,978.16c.34,6.76,1.6,13.46,3.7,19.89s5.01,12.59,8.61,18.32,7.88,11.06,12.73,15.8c4.83,4.73,10.23,8.9,16.06,12.33s12.08,6.12,18.6,7.92c.81.22,1.61.43,2.43.62.63.15.89-.81.27-.96-6.5-1.56-12.76-4-18.62-7.21s-11.3-7.15-16.21-11.68-9.3-9.66-13.02-15.22c-3.71-5.55-6.78-11.54-9.06-17.82-2.27-6.27-3.76-12.83-4.31-19.48-.07-.83-.12-1.67-.17-2.5-.03-.64-1.03-.64-1,0h0Z"/>
  <path class="cls-2" d="M431.82,831.26c5.36,6.05,10.22,12.53,14.54,19.35,4.29,6.78,8.05,13.89,11.25,21.24s5.85,15.01,7.9,22.79c2.06,7.81,3.52,15.78,4.34,23.81s1.02,16.02.56,24.02c-.06.99-.12,1.98-.2,2.96-.05.64.95.64,1,0,.61-8.1.57-16.24-.12-24.33-.69-8.07-2-16.08-3.92-23.95-1.92-7.86-4.44-15.57-7.53-23.05s-6.75-14.73-10.96-21.65-8.91-13.45-14.14-19.59c-.66-.78-1.34-1.55-2.01-2.32-.43-.48-1.13.23-.71.71h0Z"/>
  <path class="cls-2" d="M395.21,845.4c5.86,6.22,11.27,12.85,16.19,19.84s9.36,14.33,13.28,21.93,7.31,15.46,10.15,23.52,5.12,16.26,6.83,24.6,2.84,16.85,3.36,25.38c.06,1.06.12,2.13.16,3.19.03.64,1.03.64,1,0-.37-8.59-1.35-17.15-2.93-25.6s-3.74-16.77-6.46-24.91-6.01-16.12-9.82-23.83-8.13-15.14-12.96-22.24c-4.83-7.11-10.15-13.88-15.94-20.24-.72-.79-1.44-1.57-2.17-2.34-.44-.47-1.15.24-.71.71h0Z"/>
  <path class="cls-2" d="M360.6,855.51c7.7,8.14,14.69,16.92,20.92,26.23s11.65,19.05,16.3,29.19c4.66,10.19,8.5,20.75,11.49,31.55s5.12,21.82,6.33,32.95c1.21,11.09,1.52,22.28.88,33.41-.08,1.36-.17,2.72-.28,4.08-.05.64.95.64,1,0,.87-11.21.79-22.49-.22-33.68s-2.93-22.31-5.73-33.21-6.44-21.48-10.9-31.76c-4.47-10.31-9.77-20.27-15.84-29.74-6.05-9.42-12.86-18.36-20.38-26.65-.94-1.04-1.9-2.07-2.87-3.09-.44-.47-1.15.24-.71.71h0Z"/>
  <path class="cls-2" d="M247.98,797.7c-9.96,2.76-19.7,6.34-29.09,10.66-9.41,4.33-18.48,9.41-27.1,15.15-8.58,5.72-16.72,12.09-24.33,19.05-7.62,6.97-14.71,14.53-21.16,22.59-6.44,8.05-12.25,16.6-17.32,25.57-.63,1.11-1.24,2.23-1.85,3.35-.31.57.56,1.07.86.5,4.87-9.03,10.48-17.67,16.73-25.81,6.26-8.16,13.18-15.81,20.64-22.89,7.46-7.09,15.46-13.6,23.92-19.46,8.44-5.85,17.32-11.05,26.56-15.52,9.25-4.49,18.86-8.24,28.72-11.18,1.22-.37,2.45-.72,3.68-1.06.62-.17.36-1.14-.27-.96h0Z"/>
  <path class="cls-2" d="M279.26,812.75c-10.28,3.59-20.44,7.53-30.31,12.13s-19.3,9.76-28.22,15.85-16.48,12.41-23.53,19.92c-6.71,7.15-12.63,15.08-17.35,23.68-4.72,8.58-8.25,17.85-10.12,27.47-.23,1.17-.43,2.34-.61,3.52-.1.63.87.9.96.27,1.47-9.61,4.58-18.93,8.96-27.6s10.07-16.82,16.57-24.12,14.36-14.26,22.58-20.15c8.72-6.25,18.06-11.6,27.7-16.28s19.75-8.76,29.91-12.41c1.24-.44,2.48-.88,3.72-1.32.6-.21.34-1.18-.27-.96h0Z"/>
  <path class="cls-2" d="M121.53,235.66c-6.78.09-13.54.74-20.21,1.92-6.66,1.18-13.23,2.9-19.62,5.11s-12.64,4.93-18.62,8.11-11.7,6.81-17.11,10.88-10.5,8.57-15.19,13.47c-.58.61-1.15,1.22-1.72,1.83-.43.47.27,1.18.71.71,4.53-4.93,9.47-9.49,14.73-13.63,5.29-4.15,10.91-7.88,16.78-11.15,5.9-3.29,12.06-6.12,18.41-8.45,6.29-2.31,12.76-4.13,19.33-5.44,6.59-1.31,13.29-2.09,20-2.31.84-.03,1.67-.05,2.51-.06.64,0,.64-1.01,0-1h0Z"/>
  <path class="cls-2" d="M145.94,266.91c-7.28,2.62-14.39,5.68-21.3,9.17-6.89,3.48-13.58,7.39-20,11.68s-12.61,8.98-18.48,14.01-11.43,10.4-16.65,16.09-10.1,11.72-14.59,18.02c-.56.79-1.11,1.58-1.66,2.37-.37.53.5,1.03.86.5,4.36-6.32,9.12-12.37,14.23-18.11s10.58-11.18,16.34-16.27,11.82-9.82,18.15-14.18,12.87-8.31,19.65-11.88c6.8-3.57,13.82-6.73,21-9.44.9-.34,1.81-.67,2.72-1,.6-.22.34-1.18-.27-.96h0Z"/>
  <path class="cls-2" d="M180.88,495.89c9.32,5.38,19.58,9.08,30.16,10.98,10.54,1.9,21.37,2.04,31.95.4,5.99-.93,11.89-2.46,17.58-4.56.6-.22.34-1.19-.27-.96-9.98,3.68-20.58,5.57-31.22,5.66-10.64.09-21.28-1.59-31.36-4.99-5.67-1.92-11.15-4.39-16.34-7.39-.56-.32-1.06.54-.5.86h0Z"/>
  <path class="cls-2" d="M118.61,486.65c6.43,7.94,13.72,15.17,21.67,21.58s16.52,11.97,25.57,16.66,18.57,8.5,28.36,11.35c9.79,2.85,19.85,4.74,30.01,5.6,10.14.86,20.37.68,30.47-.6,1.24-.16,2.47-.33,3.71-.52.63-.1.36-1.06-.27-.96-10.02,1.53-20.2,1.96-30.32,1.34s-20.17-2.27-29.96-4.88c-9.81-2.62-19.35-6.19-28.46-10.66-9.05-4.44-17.66-9.76-25.66-15.89-8.04-6.16-15.46-13.16-22.03-20.87-.8-.94-1.59-1.9-2.37-2.86-.4-.5-1.11.21-.71.71h0Z"/>
  <path class="cls-2" d="M320.98,158.11c17.2,3.57,33.87,9.62,49.33,17.95s29.54,18.79,41.71,31.3,22.71,27.66,29.92,44c7.45,16.88,11.72,35.19,12.45,53.63.73,18.27-2.04,36.71-8.65,53.79-.83,2.16-1.73,4.28-2.69,6.39-.26.58.6,1.09.86.5,7.62-16.82,11.41-35.19,11.58-53.62s-3.26-37.19-9.94-54.52-16.12-32.38-28.16-45.85c-11.74-13.16-25.66-24.34-40.86-33.25-15.26-8.96-31.86-15.66-49.05-19.86-2.08-.51-4.16-.98-6.25-1.41-.63-.13-.9.83-.27.96h0Z"/>
  <path class="cls-2" d="M258.26,198.67c14.26,5.01,28.44,10.31,42.16,16.67,13.55,6.28,26.67,13.62,38.58,22.67,11.47,8.72,21.71,19.01,29.62,31.1,7.52,11.5,13.06,24.4,15.63,37.92,2.51,13.21,2.03,27.03-2.33,39.8-.54,1.58-1.14,3.13-1.78,4.67-.25.59.72.85.96.27,5.31-12.59,6.72-26.47,4.93-39.96s-6.74-26.83-13.72-38.67c-7.3-12.38-16.92-23.08-28-32.19-11.67-9.6-24.7-17.4-38.26-24.02-13.67-6.68-27.87-12.19-42.19-17.32-1.78-.64-3.56-1.27-5.34-1.89-.61-.21-.87.75-.27.96h0Z"/>
  <path class="cls-2" d="M223.67,227.34c10.28,5.35,20.53,10.8,30.47,16.77s19.54,12.44,28.44,19.84c8.66,7.2,16.63,15.24,23.3,24.33,6.5,8.86,11.84,18.63,15.38,29.04s5.22,21.26,4.45,32.15c-.09,1.31-.22,2.62-.38,3.93-.08.64.92.63,1,0,1.35-10.86.21-21.91-2.85-32.4-3.09-10.62-8.08-20.66-14.3-29.79-6.37-9.35-14.06-17.68-22.56-25.13-8.74-7.65-18.26-14.36-28.12-20.48s-20.19-11.72-30.52-17.14c-1.27-.66-2.54-1.33-3.81-1.99-.57-.3-1.08.57-.5.86h0Z"/>
  <path class="cls-2" d="M1641.19,91.66c-22.78,1.86-54.44,50.64-32.68,83.74,19.19,29.2,67.97,27.96,81.7,10.21,19.32-24.97-20.08-96.32-49.02-93.96Z"/>
  <path class="cls-2" d="M1584,769.79c-104.46-2.98-168,135.6-140.94,185.87,34.56,64.19,250.32,46.62,275.74-30.64,17.34-52.7-47.44-152.74-134.81-155.23Z"/>
  <path class="cls-2" d="M1304.17,671.74c-15.67,2.71-33.56,44.38-14.3,63.32,14,13.77,42.77,10.77,51.06-2.04,12.45-19.24-18.83-64.38-36.77-61.28Z"/>
  <path class="cls-2" d="M293.11,837.19c-46.08.03-101.66,93.67-69.45,140.94,27.12,39.8,111.92,40.05,138.89,2.04,32.58-45.91-22.51-143.01-69.45-142.98Z"/>
  <path class="cls-2" d="M1028.43,334.72c-9.3,5.34-13,28.71,0,40.85,15.25,14.23,42.23,2.51,44.94-8.17,3.55-14.04-31.18-40.57-44.94-32.68Z"/>
  <path class="cls-2" d="M961.02,790.21c-70.4-17.92-162.55,80.61-145.02,145.02,18.25,67.05,156.47,101.21,204.26,49.02,45.18-49.34,10.04-176.41-59.23-194.04Z"/>
  <path class="cls-2" d="M199.15,271.4c-60.54.41-123.46,97.35-96,155.23,29.71,62.63,159.1,66.58,192,16.34,34.01-51.93-28.35-172.03-96-171.57Z"/>
  <path class="cls-2" d="M96.86,597.5c116.24-17.82,232.82-33.39,349.67-46.64,114.44-12.98,229.26-24.79,344.24-31.74,113.29-6.85,227.72-7.38,340.05,10.84,108.39,17.59,211.37,61.24,320.69,73.35,52.42,5.8,104.09,1.92,154.54-13.67,48.31-14.93,94.51-36.88,144.22-47.15,13.2-2.73,26.55-4.49,40.01-5.21.64-.03.64-1.03,0-1-49.89,2.64-96.5,21.17-142.9,38.13-24.26,8.86-48.74,17.37-73.99,22.95-27.25,6.02-55.19,8.3-83.07,7.62-112.46-2.72-218.07-48.92-327.33-70.28-109.59-21.43-221.89-23.79-333.13-18.67-115.22,5.3-230.28,17.06-344.9,29.56-115.32,12.57-230.4,27.39-345.15,44.42-14.41,2.14-28.81,4.32-43.21,6.52-.63.1-.36,1.06.27.96h0Z"/>
  <path class="cls-2" d="M1166.73,161.21c-2.92,54.87-5.73,109.75-7.52,164.67-1.79,54.88-2.57,109.81-1.43,164.71,1.15,55.06,4.24,110.1,10.19,164.85,5.83,53.71,15.43,106.79,24.21,160.06,8.86,53.8,16.44,108.11,15.89,162.76-.07,6.76-.27,13.52-.58,20.27-.03.64.97.64,1,0,2.51-53.6-3.42-107.08-11.61-159.98-8.4-54.26-18.9-108.17-25.55-162.7s-10.37-109.68-12.02-164.72-1.24-109.79.28-164.67c1.53-54.94,4.18-109.84,7.06-164.72.36-6.85.72-13.71,1.09-20.56.03-.64-.97-.64-1,0h0Z"/>
  <path class="cls-2" d="M583.68,138.63c-1.43,114.23,4.73,228.37,10.16,342.43,2.68,56.31,4.55,112.74,8.48,168.98,1.93,27.57,4.84,55.04,9.65,82.26,4.81,27.23,10.99,54.21,15.04,81.58,9.36,63.14,7.78,127.2,6.22,190.82-.02.64.98.64,1,0,1.38-56.37,2.77-112.99-3.43-169.14-2.98-27-8.29-53.58-13.49-80.22-5.51-28.2-9.88-56.46-12.41-85.1-4.95-56.01-6.41-112.41-9.08-168.56-2.7-56.74-5.57-113.48-7.81-170.24-2.54-64.23-4.15-128.52-3.34-192.81,0-.64-.99-.64-1,0h0Z"/>
  <path class="cls-1" d="M193.02,222.88c.64,0,.64-1,0-1s-.64,1,0,1h0Z"/>
  <path class="cls-1" d="M193.02,222.88c.64,0,.64-1,0-1s-.64,1,0,1h0Z"/>
</svg>