<?xml version="1.0" encoding="UTF-8"?>
<svg id="_Слой_1" data-name="Слой 1" xmlns="http://www.w3.org/2000/svg" viewBox="0 0 1920 1080">
  <defs>
    <style>
      .cls-1 {
        fill: #9d5187;
      }

      .cls-1, .cls-2 {
        stroke-width: 0px;
      }

      .cls-2 {
        fill: #1d1d1b;
      }
    </style>
  </defs>
  <rect class="cls-1" width="1920" height="1080"/>
  <path class="cls-1" d="M305.57,977.37c-38.85-10.23-65.72-42.97-85.86-75.84-11.39-18.59-21.51-38.04-31.04-57.64-10.26-21.1-19.59-42.66-27.65-64.7-15.96-43.63-26.96-89.27-30-135.71s1.53-91.97,15.66-135.55c3.53-10.89,7.51-21.8,12.46-32.13,1.49-3.11,3.52-5.73,7.34-5.54,3.15.15,6.06,1.99,8.78,3.4,4.83,2.5,9.9,4.55,15.16,5.92,9.62,2.5,20.19,2.77,29.48-1.14,7.91-3.33,14.8-9.58,18.33-17.47,1.66-3.72,2.46-7.69,2.36-11.76-.01-.64-1.01-.64-1,0,.23,10.3-5.79,19.52-14.18,25.12-9.56,6.38-21.48,7.25-32.49,4.82-5.68-1.25-11.16-3.32-16.34-5.94-3.85-1.95-8.53-5.12-13.05-3.58s-5.86,6.94-7.48,10.69c-2.13,4.93-4.14,9.91-6.01,14.94-16.04,43.15-22.23,89.59-20.65,135.49,1.6,46.39,11.27,92.2,26.2,136.07,14.86,43.65,34.63,85.91,57.68,125.82,18.78,32.52,42.86,66.14,78.65,81.16,4.35,1.83,8.83,3.33,13.39,4.53.62.16.89-.8.27-.96h0Z"/>
  <path class="cls-2" d="M92.99,953.36c13.61,26.71,45.19,35.55,73.2,30.72,35.86-6.18,60.19-34.96,74.27-66.85,17.15-38.85,23.3-82.88,28.1-124.74,5.75-50.24,7.06-100.87,7.36-151.4.59-100.96-3.18-203.04,15.86-302.73,7.59-39.72,19.87-80.7,45.5-112.76,25.36-31.72,76.49-61.13,114.88-32.94,17.87,13.12,28.22,36.5,37.18,56.14,9.76,21.39,17.36,43.73,23.25,66.47,11.73,45.26,16.73,91.98,19.22,138.58,4.72,88.25.13,177.1,13.98,264.71,6.69,42.31,17.66,84.2,35.95,123.05,8.34,17.71,18,35.65,30.07,51.14,10.69,13.72,25.57,22.34,42.79,14.94,17.12-7.35,28.66-24.29,38.76-39.18,12.44-18.35,23.05-37.91,32.03-58.17,17.57-39.64,28.92-81.8,36.62-124.39,17.27-95.52,15.55-193.09,27.98-289.19,5.7-44.08,13.04-89.75,31.95-130.38,16.75-35.97,47.67-73.36,90.58-75.34,26.37-1.22,44.91,17.5,58.41,37.98,12.35,18.73,22.05,39.18,29.38,60.37,14.25,41.21,19.67,84.9,21.5,128.29,1.92,45.38-.16,90.78-1.23,136.15-1.24,52.4-1.45,104.85.92,157.22,1.13,25.03,2.85,50.03,5.33,74.96,1.91,19.25,4.27,38.59,9.81,57.19,4.94,16.61,12.54,32.8,24.67,45.39,13.7,14.23,32.07,21.75,51.06,25.97,37.43,8.32,83.33,15.51,114.97-11.22,30.46-25.74,44.66-69.01,55.91-105.87,27.14-88.94,30.11-182.86,31.35-275.14.64-47.9.74-95.82,3.21-143.67,2.45-47.49,5.65-97.14,25.59-141.04,17.17-37.82,49.52-71.41,91.38-80.17,41.72-8.73,80.09,12.94,105.49,44.93,27.27,34.35,40.23,77.1,46.83,119.87,7.67,49.65,6.53,100.15,4.3,150.17-4.62,103.43-11.08,206.79-15.06,310.24-1.59,41.28-.67,86.13,23.34,121.61,21.39,31.61,57.61,50.75,94.49,57.68,44.44,8.36,89.97.13,133.02-11.52.62-.17.36-1.13-.27-.96-47.81,12.94-99.32,21.74-147.96,7.86-42.47-12.12-78.8-40.82-93.02-83.57-14.83-44.55-8.51-94.14-6.27-140.11,2.53-51.86,5.07-103.73,7.6-155.59,2.46-50.34,5.77-100.73,6.63-151.13.82-48.39-1.55-97.35-13.99-144.35-16.92-63.91-67.52-141.37-144.15-126.35-36.25,7.1-66.9,33.62-85.08,65-21.65,37.37-28.26,81.17-31.67,123.58-7.58,94.28-2.88,189.03-8.84,283.38-2.96,46.92-8.56,93.81-19.78,139.53-5.6,22.82-12.6,45.32-21.24,67.18-8.12,20.55-17.7,41.22-32.5,57.9-15.95,17.99-36.57,27.48-60.64,28.06-22.69.55-47.01-2.95-68.96-8.6-22.78-5.87-42.59-17.62-55.46-37.69-10.88-16.97-16.28-36.92-19.67-56.61-8.34-48.47-9.7-98.81-10.76-147.89s-.03-100.71,1.37-151.05c2.33-83.74,4.66-172.39-29.4-250.84-13.8-31.8-37.12-77.92-77.43-78.2-35.28-.25-65.16,26.08-82.92,54.28-20.84,33.08-30.32,71.81-37.23,109.85-8.9,48.99-12.79,98.72-16.14,148.35-6.28,93.08-11.02,187.84-42.62,276.54-7.59,21.31-16.71,42.09-27.68,61.89s-23,40.46-39.54,55.49c-9.38,8.52-21.73,15.64-34.85,12.41s-21.39-15.02-28.37-25.47c-12.09-18.13-22.24-37.53-30.58-57.66-69.59-167.85-15.28-356.04-66.98-527.67-6.1-20.25-13.69-40.06-23.02-59.04-8.28-16.86-17.54-35.78-33.06-47.2-30.66-22.55-73.15-7.25-99.01,15.21-27.73,24.09-43.81,58.8-53.94,93.46-12.53,42.85-17.71,88.08-20.95,132.47-7.32,100.06-.77,200.49-6.34,300.61-2.73,49.1-7.81,98.9-20.37,146.57-10.19,38.7-29.59,82.95-69.63,98.49-30.86,11.98-72.36,6.2-88.61-25.7-.29-.57-1.16-.07-.86.5h0Z"/>
  <path class="cls-2" d="M148.09,920.61c2.75.1,5.32-.47,7.71-1.72,2.48-.81,4.63-2.19,6.44-4.14,1.95-1.81,3.33-3.96,4.14-6.44,1.25-2.38,1.83-4.95,1.72-7.71l-.71-5.32c-.95-3.39-2.66-6.33-5.14-8.83l-4.05-3.13c-3.12-1.81-6.48-2.72-10.09-2.73-2.75-.1-5.32.47-7.71,1.72-2.48.81-4.63,2.19-6.44,4.14-1.95,1.81-3.33,3.96-4.14,6.44-1.25,2.38-1.83,4.95-1.72,7.71l.71,5.32c.95,3.39,2.66,6.33,5.14,8.83l4.05,3.13c3.12,1.81,6.48,2.72,10.09,2.73h0Z"/>
  <path class="cls-2" d="M195.06,853.21c2.75.1,5.32-.47,7.71-1.72,2.48-.81,4.63-2.19,6.44-4.14,1.95-1.81,3.33-3.96,4.14-6.44,1.25-2.38,1.83-4.95,1.72-7.71l-.71-5.32c-.95-3.39-2.66-6.33-5.14-8.83l-4.05-3.13c-3.12-1.81-6.48-2.72-10.09-2.73-2.75-.1-5.32.47-7.71,1.72-2.48.81-4.63,2.19-6.44,4.14-1.95,1.81-3.33,3.96-4.14,6.44-1.25,2.38-1.83,4.95-1.72,7.71l.71,5.32c.95,3.39,2.66,6.33,5.14,8.83l4.05,3.13c3.12,1.81,6.48,2.72,10.09,2.73h0Z"/>
  <path class="cls-2" d="M713.87,1000.27c2.75.1,5.32-.47,7.71-1.72,2.48-.81,4.63-2.19,6.44-4.14,1.95-1.81,3.33-3.96,4.14-6.44,1.25-2.38,1.83-4.95,1.72-7.71l-.71-5.32c-.95-3.39-2.66-6.33-5.14-8.83l-4.05-3.13c-3.12-1.81-6.48-2.72-10.09-2.73-2.75-.1-5.32.47-7.71,1.72-2.48.81-4.63,2.19-6.44,4.14-1.95,1.81-3.33,3.96-4.14,6.44-1.25,2.38-1.83,4.95-1.72,7.71l.71,5.32c.95,3.39,2.66,6.33,5.14,8.83l4.05,3.13c3.12,1.81,6.48,2.72,10.09,2.73h0Z"/>
  <path class="cls-2" d="M766.98,943.08c2.75.1,5.32-.47,7.71-1.72,2.48-.81,4.63-2.19,6.44-4.14,1.95-1.81,3.33-3.96,4.14-6.44,1.25-2.38,1.83-4.95,1.72-7.71l-.71-5.32c-.95-3.39-2.66-6.33-5.14-8.83l-4.05-3.13c-3.12-1.81-6.48-2.72-10.09-2.73-2.75-.1-5.32.47-7.71,1.72-2.48.81-4.63,2.19-6.44,4.14-1.95,1.81-3.33,3.96-4.14,6.44-1.25,2.38-1.83,4.95-1.72,7.71l.71,5.32c.95,3.39,2.66,6.33,5.14,8.83l4.05,3.13c3.12,1.81,6.48,2.72,10.09,2.73h0Z"/>
  <path class="cls-2" d="M799.66,863.42c2.75.1,5.32-.47,7.71-1.72,2.48-.81,4.63-2.19,6.44-4.14,1.95-1.81,3.33-3.96,4.14-6.44,1.25-2.38,1.83-4.95,1.72-7.71l-.71-5.32c-.95-3.39-2.66-6.33-5.14-8.83l-4.05-3.13c-3.12-1.81-6.48-2.72-10.09-2.73-2.75-.1-5.32.47-7.71,1.72-2.48.81-4.63,2.19-6.44,4.14-1.95,1.81-3.33,3.96-4.14,6.44-1.25,2.38-1.83,4.95-1.72,7.71l.71,5.32c.95,3.39,2.66,6.33,5.14,8.83l4.05,3.13c3.12,1.81,6.48,2.72,10.09,2.73h0Z"/>
  <path class="cls-2" d="M1312.34,195.5c2.75.1,5.32-.47,7.71-1.72,2.48-.81,4.63-2.19,6.44-4.14,1.95-1.81,3.33-3.96,4.14-6.44,1.25-2.38,1.83-4.95,1.72-7.71l-.71-5.32c-.95-3.39-2.66-6.33-5.14-8.83l-4.05-3.13c-3.12-1.81-6.48-2.72-10.09-2.73-2.75-.1-5.32.47-7.71,1.72-2.48.81-4.63,2.19-6.44,4.14-1.95,1.81-3.33,3.96-4.14,6.44-1.25,2.38-1.83,4.95-1.72,7.71l.71,5.32c.95,3.39,2.66,6.33,5.14,8.83l4.05,3.13c3.12,1.81,6.48,2.72,10.09,2.73h0Z"/>
  <path class="cls-2" d="M1214.3,266.99c2.75.1,5.32-.47,7.71-1.72,2.48-.81,4.63-2.19,6.44-4.14,1.95-1.81,3.33-3.96,4.14-6.44,1.25-2.38,1.83-4.95,1.72-7.71l-.71-5.32c-.95-3.39-2.66-6.33-5.14-8.83l-4.05-3.13c-3.12-1.81-6.48-2.72-10.09-2.73-2.75-.1-5.32.47-7.71,1.72-2.48.81-4.63,2.19-6.44,4.14-1.95,1.81-3.33,3.96-4.14,6.44-1.25,2.38-1.83,4.95-1.72,7.71l.71,5.32c.95,3.39,2.66,6.33,5.14,8.83l4.05,3.13c3.12,1.81,6.48,2.72,10.09,2.73h0Z"/>
  <path class="cls-2" d="M1271.49,344.61c2.75.1,5.32-.47,7.71-1.72,2.48-.81,4.63-2.19,6.44-4.14,1.95-1.81,3.33-3.96,4.14-6.44,1.25-2.38,1.83-4.95,1.72-7.71l-.71-5.32c-.95-3.39-2.66-6.33-5.14-8.83l-4.05-3.13c-3.12-1.81-6.48-2.72-10.09-2.73-2.75-.1-5.32.47-7.71,1.72-2.48.81-4.63,2.19-6.44,4.14-1.95,1.81-3.33,3.96-4.14,6.44-1.25,2.38-1.83,4.95-1.72,7.71l.71,5.32c.95,3.39,2.66,6.33,5.14,8.83l4.05,3.13c3.12,1.81,6.48,2.72,10.09,2.73h0Z"/>
  <path class="cls-2" d="M1451.23,681.63c2.75.1,5.32-.47,7.71-1.72,2.48-.81,4.63-2.19,6.44-4.14,1.95-1.81,3.33-3.96,4.14-6.44,1.25-2.38,1.83-4.95,1.72-7.71l-.71-5.32c-.95-3.39-2.66-6.33-5.14-8.83l-4.05-3.13c-3.12-1.81-6.48-2.72-10.09-2.73-2.75-.1-5.32.47-7.71,1.72-2.48.81-4.63,2.19-6.44,4.14-1.95,1.81-3.33,3.96-4.14,6.44-1.25,2.38-1.83,4.95-1.72,7.71l.71,5.32c.95,3.39,2.66,6.33,5.14,8.83l4.05,3.13c3.12,1.81,6.48,2.72,10.09,2.73h0Z"/>
  <path class="cls-2" d="M1389.96,563.16c2.75.1,5.32-.47,7.71-1.72,2.48-.81,4.63-2.19,6.44-4.14,1.95-1.81,3.33-3.96,4.14-6.44,1.25-2.38,1.83-4.95,1.72-7.71l-.71-5.32c-.95-3.39-2.66-6.33-5.14-8.83l-4.05-3.13c-3.12-1.81-6.48-2.72-10.09-2.73-2.75-.1-5.32.47-7.71,1.72-2.48.81-4.63,2.19-6.44,4.14-1.95,1.81-3.33,3.96-4.14,6.44-1.25,2.38-1.83,4.95-1.72,7.71l.71,5.32c.95,3.39,2.66,6.33,5.14,8.83l4.05,3.13c3.12,1.81,6.48,2.72,10.09,2.73h0Z"/>
  <path class="cls-2" d="M1514.55,561.12c2.75.1,5.32-.47,7.71-1.72,2.48-.81,4.63-2.19,6.44-4.14,1.95-1.81,3.33-3.96,4.14-6.44,1.25-2.38,1.83-4.95,1.72-7.71l-.71-5.32c-.95-3.39-2.66-6.33-5.14-8.83l-4.05-3.13c-3.12-1.81-6.48-2.72-10.09-2.73-2.75-.1-5.32.47-7.71,1.72-2.48.81-4.63,2.19-6.44,4.14-1.95,1.81-3.33,3.96-4.14,6.44-1.25,2.38-1.83,4.95-1.72,7.71l.71,5.32c.95,3.39,2.66,6.33,5.14,8.83l4.05,3.13c3.12,1.81,6.48,2.72,10.09,2.73h0Z"/>
  <path class="cls-2" d="M1845.45,95.42c2.75.1,5.32-.47,7.71-1.72,2.48-.81,4.63-2.19,6.44-4.14,1.95-1.81,3.33-3.96,4.14-6.44,1.25-2.38,1.83-4.95,1.72-7.71l-.71-5.32c-.95-3.39-2.66-6.33-5.14-8.83l-4.05-3.13c-3.12-1.81-6.48-2.72-10.09-2.73-2.75-.1-5.32.47-7.71,1.72-2.48.81-4.63,2.19-6.44,4.14-1.95,1.81-3.33,3.96-4.14,6.44-1.25,2.38-1.83,4.95-1.72,7.71l.71,5.32c.95,3.39,2.66,6.33,5.14,8.83l4.05,3.13c3.12,1.81,6.48,2.72,10.09,2.73h0Z"/>
  <path class="cls-2" d="M113.36,848.38c1.79,0,3.68-.78,4.95-2.05s2.13-3.21,2.05-4.95-.68-3.69-2.05-4.95-3.05-2.05-4.95-2.05c-1.79,0-3.68.78-4.95,2.05s-2.13,3.21-2.05,4.95.68,3.69,2.05,4.95,3.05,2.05,4.95,2.05h0Z"/>
  <path class="cls-2" d="M215.49,913.74c1.79,0,3.68-.78,4.95-2.05s2.13-3.21,2.05-4.95-.68-3.69-2.05-4.95-3.05-2.05-4.95-2.05c-1.79,0-3.68.78-4.95,2.05s-2.13,3.21-2.05,4.95.68,3.69,2.05,4.95,3.05,2.05,4.95,2.05h0Z"/>
  <path class="cls-2" d="M78.64,897.4c1.79,0,3.68-.78,4.95-2.05s2.13-3.21,2.05-4.95-.68-3.69-2.05-4.95-3.05-2.05-4.95-2.05c-1.79,0-3.68.78-4.95,2.05s-2.13,3.21-2.05,4.95.68,3.69,2.05,4.95,3.05,2.05,4.95,2.05h0Z"/>
  <path class="cls-2" d="M144,811.61c1.79,0,3.68-.78,4.95-2.05s2.13-3.21,2.05-4.95-.68-3.69-2.05-4.95-3.05-2.05-4.95-2.05c-1.79,0-3.68.78-4.95,2.05s-2.13,3.21-2.05,4.95.68,3.69,2.05,4.95,3.05,2.05,4.95,2.05h0Z"/>
  <path class="cls-2" d="M231.83,789.14c1.79,0,3.68-.78,4.95-2.05s2.13-3.21,2.05-4.95-.68-3.69-2.05-4.95-3.05-2.05-4.95-2.05c-1.79,0-3.68.78-4.95,2.05s-2.13,3.21-2.05,4.95.68,3.69,2.05,4.95,3.05,2.05,4.95,2.05h0Z"/>
  <path class="cls-2" d="M64.34,840.21c1.79,0,3.68-.78,4.95-2.05s2.13-3.21,2.05-4.95-.68-3.69-2.05-4.95-3.05-2.05-4.95-2.05c-1.79,0-3.68.78-4.95,2.05s-2.13,3.21-2.05,4.95.68,3.69,2.05,4.95,3.05,2.05,4.95,2.05h0Z"/>
  <path class="cls-2" d="M133.79,750.33c1.79,0,3.68-.78,4.95-2.05s2.13-3.21,2.05-4.95-.68-3.69-2.05-4.95-3.05-2.05-4.95-2.05c-1.79,0-3.68.78-4.95,2.05s-2.13,3.21-2.05,4.95.68,3.69,2.05,4.95,3.05,2.05,4.95,2.05h0Z"/>
  <path class="cls-2" d="M146.04,674.76c1.79,0,3.68-.78,4.95-2.05s2.13-3.21,2.05-4.95-.68-3.69-2.05-4.95-3.05-2.05-4.95-2.05c-1.79,0-3.68.78-4.95,2.05s-2.13,3.21-2.05,4.95.68,3.69,2.05,4.95,3.05,2.05,4.95,2.05h0Z"/>
  <path class="cls-2" d="M769.02,995.44c1.79,0,3.68-.78,4.95-2.05s2.13-3.21,2.05-4.95-.68-3.69-2.05-4.95-3.05-2.05-4.95-2.05c-1.79,0-3.68.78-4.95,2.05s-2.13,3.21-2.05,4.95.68,3.69,2.05,4.95,3.05,2.05,4.95,2.05h0Z"/>
  <path class="cls-2" d="M842.55,1034.25c1.79,0,3.68-.78,4.95-2.05s2.13-3.21,2.05-4.95-.68-3.69-2.05-4.95-3.05-2.05-4.95-2.05c-1.79,0-3.68.78-4.95,2.05s-2.13,3.21-2.05,4.95.68,3.69,2.05,4.95,3.05,2.05,4.95,2.05h0Z"/>
  <path class="cls-2" d="M816,977.06c1.79,0,3.68-.78,4.95-2.05s2.13-3.21,2.05-4.95-.68-3.69-2.05-4.95-3.05-2.05-4.95-2.05c-1.79,0-3.68.78-4.95,2.05s-2.13,3.21-2.05,4.95.68,3.69,2.05,4.95,3.05,2.05,4.95,2.05h0Z"/>
  <path class="cls-2" d="M850.72,917.82c1.79,0,3.68-.78,4.95-2.05s2.13-3.21,2.05-4.95-.68-3.69-2.05-4.95-3.05-2.05-4.95-2.05c-1.79,0-3.68.78-4.95,2.05s-2.13,3.21-2.05,4.95.68,3.69,2.05,4.95,3.05,2.05,4.95,2.05h0Z"/>
  <path class="cls-2" d="M858.89,852.46c1.79,0,3.68-.78,4.95-2.05s2.13-3.21,2.05-4.95-.68-3.69-2.05-4.95-3.05-2.05-4.95-2.05c-1.79,0-3.68.78-4.95,2.05s-2.13,3.21-2.05,4.95.68,3.69,2.05,4.95,3.05,2.05,4.95,2.05h0Z"/>
  <path class="cls-2" d="M738.38,858.59c1.79,0,3.68-.78,4.95-2.05s2.13-3.21,2.05-4.95-.68-3.69-2.05-4.95-3.05-2.05-4.95-2.05c-1.79,0-3.68.78-4.95,2.05s-2.13,3.21-2.05,4.95.68,3.69,2.05,4.95,3.05,2.05,4.95,2.05h0Z"/>
  <path class="cls-2" d="M644.43,966.84c1.79,0,3.68-.78,4.95-2.05s2.13-3.21,2.05-4.95-.68-3.69-2.05-4.95-3.05-2.05-4.95-2.05c-1.79,0-3.68.78-4.95,2.05s-2.13,3.21-2.05,4.95.68,3.69,2.05,4.95,3.05,2.05,4.95,2.05h0Z"/>
  <path class="cls-2" d="M1271.49,284.63c1.79,0,3.68-.78,4.95-2.05s2.13-3.21,2.05-4.95-.68-3.69-2.05-4.95-3.05-2.05-4.95-2.05c-1.79,0-3.68.78-4.95,2.05s-2.13,3.21-2.05,4.95.68,3.69,2.05,4.95,3.05,2.05,4.95,2.05h0Z"/>
  <path class="cls-2" d="M1289.87,231.52c1.79,0,3.68-.78,4.95-2.05s2.13-3.21,2.05-4.95-.68-3.69-2.05-4.95-3.05-2.05-4.95-2.05c-1.79,0-3.68.78-4.95,2.05s-2.13,3.21-2.05,4.95.68,3.69,2.05,4.95,3.05,2.05,4.95,2.05h0Z"/>
  <path class="cls-2" d="M1218.38,170.25c1.79,0,3.68-.78,4.95-2.05s2.13-3.21,2.05-4.95-.68-3.69-2.05-4.95-3.05-2.05-4.95-2.05c-1.79,0-3.68.78-4.95,2.05s-2.13,3.21-2.05,4.95.68,3.69,2.05,4.95,3.05,2.05,4.95,2.05h0Z"/>
  <path class="cls-2" d="M1285.79,119.18c1.79,0,3.68-.78,4.95-2.05s2.13-3.21,2.05-4.95-.68-3.69-2.05-4.95-3.05-2.05-4.95-2.05c-1.79,0-3.68.78-4.95,2.05s-2.13,3.21-2.05,4.95.68,3.69,2.05,4.95,3.05,2.05,4.95,2.05h0Z"/>
  <path class="cls-2" d="M1242.89,219.27c1.79,0,3.68-.78,4.95-2.05s2.13-3.21,2.05-4.95-.68-3.69-2.05-4.95-3.05-2.05-4.95-2.05c-1.79,0-3.68.78-4.95,2.05s-2.13,3.21-2.05,4.95.68,3.69,2.05,4.95,3.05,2.05,4.95,2.05h0Z"/>
  <path class="cls-2" d="M1148.94,190.67c1.79,0,3.68-.78,4.95-2.05s2.13-3.21,2.05-4.95-.68-3.69-2.05-4.95-3.05-2.05-4.95-2.05c-1.79,0-3.68.78-4.95,2.05s-2.13,3.21-2.05,4.95.68,3.69,2.05,4.95,3.05,2.05,4.95,2.05h0Z"/>
  <path class="cls-2" d="M1138.72,264.21c1.79,0,3.68-.78,4.95-2.05s2.13-3.21,2.05-4.95-.68-3.69-2.05-4.95-3.05-2.05-4.95-2.05c-1.79,0-3.68.78-4.95,2.05s-2.13,3.21-2.05,4.95.68,3.69,2.05,4.95,3.05,2.05,4.95,2.05h0Z"/>
  <path class="cls-2" d="M1216.34,303.01c1.79,0,3.68-.78,4.95-2.05s2.13-3.21,2.05-4.95-.68-3.69-2.05-4.95-3.05-2.05-4.95-2.05c-1.79,0-3.68.78-4.95,2.05s-2.13,3.21-2.05,4.95.68,3.69,2.05,4.95,3.05,2.05,4.95,2.05h0Z"/>
  <path class="cls-2" d="M1189.79,119.18c1.79,0,3.68-.78,4.95-2.05s2.13-3.21,2.05-4.95-.68-3.69-2.05-4.95-3.05-2.05-4.95-2.05c-1.79,0-3.68.78-4.95,2.05s-2.13,3.21-2.05,4.95.68,3.69,2.05,4.95,3.05,2.05,4.95,2.05h0Z"/>
  <path class="cls-2" d="M1804.6,57.91c1.79,0,3.68-.78,4.95-2.05s2.13-3.21,2.05-4.95-.68-3.69-2.05-4.95-3.05-2.05-4.95-2.05c-1.79,0-3.68.78-4.95,2.05s-2.13,3.21-2.05,4.95.68,3.69,2.05,4.95,3.05,2.05,4.95,2.05h0Z"/>
  <path class="cls-2" d="M1778.04,117.14c1.79,0,3.68-.78,4.95-2.05s2.13-3.21,2.05-4.95-.68-3.69-2.05-4.95-3.05-2.05-4.95-2.05c-1.79,0-3.68.78-4.95,2.05s-2.13,3.21-2.05,4.95.68,3.69,2.05,4.95,3.05,2.05,4.95,2.05h0Z"/>
  <path class="cls-2" d="M1825.02,125.31c1.79,0,3.68-.78,4.95-2.05s2.13-3.21,2.05-4.95-.68-3.69-2.05-4.95-3.05-2.05-4.95-2.05c-1.79,0-3.68.78-4.95,2.05s-2.13,3.21-2.05,4.95.68,3.69,2.05,4.95,3.05,2.05,4.95,2.05h0Z"/>
  <path class="cls-2" d="M1851.57,164.12c1.79,0,3.68-.78,4.95-2.05s2.13-3.21,2.05-4.95-.68-3.69-2.05-4.95-3.05-2.05-4.95-2.05c-1.79,0-3.68.78-4.95,2.05s-2.13,3.21-2.05,4.95.68,3.69,2.05,4.95,3.05,2.05,4.95,2.05h0Z"/>
  <path class="cls-2" d="M1880.17,123.27c1.79,0,3.68-.78,4.95-2.05s2.13-3.21,2.05-4.95-.68-3.69-2.05-4.95-3.05-2.05-4.95-2.05c-1.79,0-3.68.78-4.95,2.05s-2.13,3.21-2.05,4.95.68,3.69,2.05,4.95,3.05,2.05,4.95,2.05h0Z"/>
  <path class="cls-2" d="M1745.36,64.04c1.79,0,3.68-.78,4.95-2.05s2.13-3.21,2.05-4.95-.68-3.69-2.05-4.95-3.05-2.05-4.95-2.05c-1.79,0-3.68.78-4.95,2.05s-2.13,3.21-2.05,4.95.68,3.69,2.05,4.95,3.05,2.05,4.95,2.05h0Z"/>
  <path class="cls-2" d="M1653.45,104.89c1.79,0,3.68-.78,4.95-2.05s2.13-3.21,2.05-4.95-.68-3.69-2.05-4.95-3.05-2.05-4.95-2.05c-1.79,0-3.68.78-4.95,2.05s-2.13,3.21-2.05,4.95.68,3.69,2.05,4.95,3.05,2.05,4.95,2.05h0Z"/>
  <path class="cls-2" d="M1741.28,125.31c1.79,0,3.68-.78,4.95-2.05s2.13-3.21,2.05-4.95-.68-3.69-2.05-4.95-3.05-2.05-4.95-2.05c-1.79,0-3.68.78-4.95,2.05s-2.13,3.21-2.05,4.95.68,3.69,2.05,4.95,3.05,2.05,4.95,2.05h0Z"/>
  <path class="cls-2" d="M1673.87,172.29c1.79,0,3.68-.78,4.95-2.05s2.13-3.21,2.05-4.95-.68-3.69-2.05-4.95-3.05-2.05-4.95-2.05c-1.79,0-3.68.78-4.95,2.05s-2.13,3.21-2.05,4.95.68,3.69,2.05,4.95,3.05,2.05,4.95,2.05h0Z"/>
  <path class="cls-2" d="M1806.64,155.95c1.79,0,3.68-.78,4.95-2.05s2.13-3.21,2.05-4.95-.68-3.69-2.05-4.95-3.05-2.05-4.95-2.05c-1.79,0-3.68.78-4.95,2.05s-2.13,3.21-2.05,4.95.68,3.69,2.05,4.95,3.05,2.05,4.95,2.05h0Z"/>
  <path class="cls-2" d="M1786.21,223.35c1.79,0,3.68-.78,4.95-2.05s2.13-3.21,2.05-4.95-.68-3.69-2.05-4.95-3.05-2.05-4.95-2.05c-1.79,0-3.68.78-4.95,2.05s-2.13,3.21-2.05,4.95.68,3.69,2.05,4.95,3.05,2.05,4.95,2.05h0Z"/>
  <path class="cls-2" d="M1773.96,276.46c1.79,0,3.68-.78,4.95-2.05s2.13-3.21,2.05-4.95-.68-3.69-2.05-4.95-3.05-2.05-4.95-2.05c-1.79,0-3.68.78-4.95,2.05s-2.13,3.21-2.05,4.95.68,3.69,2.05,4.95,3.05,2.05,4.95,2.05h0Z"/>
  <path class="cls-2" d="M1863.83,180.46c1.79,0,3.68-.78,4.95-2.05s2.13-3.21,2.05-4.95-.68-3.69-2.05-4.95-3.05-2.05-4.95-2.05c-1.79,0-3.68.78-4.95,2.05s-2.13,3.21-2.05,4.95.68,3.69,2.05,4.95,3.05,2.05,4.95,2.05h0Z"/>
  <path class="cls-2" d="M1872,243.78c1.79,0,3.68-.78,4.95-2.05s2.13-3.21,2.05-4.95-.68-3.69-2.05-4.95-3.05-2.05-4.95-2.05c-1.79,0-3.68.78-4.95,2.05s-2.13,3.21-2.05,4.95.68,3.69,2.05,4.95,3.05,2.05,4.95,2.05h0Z"/>
  <path class="cls-2" d="M1878.13,300.97c1.79,0,3.68-.78,4.95-2.05s2.13-3.21,2.05-4.95-.68-3.69-2.05-4.95-3.05-2.05-4.95-2.05c-1.79,0-3.68.78-4.95,2.05s-2.13,3.21-2.05,4.95.68,3.69,2.05,4.95,3.05,2.05,4.95,2.05h0Z"/>
  <path class="cls-2" d="M1432.85,584.89c1.79,0,3.68-.78,4.95-2.05s2.13-3.21,2.05-4.95-.68-3.69-2.05-4.95-3.05-2.05-4.95-2.05c-1.79,0-3.68.78-4.95,2.05s-2.13,3.21-2.05,4.95.68,3.69,2.05,4.95,3.05,2.05,4.95,2.05h0Z"/>
  <path class="cls-2" d="M1459.4,617.57c1.79,0,3.68-.78,4.95-2.05s2.13-3.21,2.05-4.95-.68-3.69-2.05-4.95-3.05-2.05-4.95-2.05c-1.79,0-3.68.78-4.95,2.05s-2.13,3.21-2.05,4.95.68,3.69,2.05,4.95,3.05,2.05,4.95,2.05h0Z"/>
  <path class="cls-2" d="M1494.13,601.23c1.79,0,3.68-.78,4.95-2.05s2.13-3.21,2.05-4.95-.68-3.69-2.05-4.95-3.05-2.05-4.95-2.05c-1.79,0-3.68.78-4.95,2.05s-2.13,3.21-2.05,4.95.68,3.69,2.05,4.95,3.05,2.05,4.95,2.05h0Z"/>
  <path class="cls-2" d="M1463.49,515.44c1.79,0,3.68-.78,4.95-2.05s2.13-3.21,2.05-4.95-.68-3.69-2.05-4.95-3.05-2.05-4.95-2.05c-1.79,0-3.68.78-4.95,2.05s-2.13,3.21-2.05,4.95.68,3.69,2.05,4.95,3.05,2.05,4.95,2.05h0Z"/>
  <path class="cls-2" d="M1410.38,515.44c1.79,0,3.68-.78,4.95-2.05s2.13-3.21,2.05-4.95-.68-3.69-2.05-4.95-3.05-2.05-4.95-2.05c-1.79,0-3.68.78-4.95,2.05s-2.13,3.21-2.05,4.95.68,3.69,2.05,4.95,3.05,2.05,4.95,2.05h0Z"/>
  <path class="cls-2" d="M1443.06,558.33c1.79,0,3.68-.78,4.95-2.05s2.13-3.21,2.05-4.95-.68-3.69-2.05-4.95-3.05-2.05-4.95-2.05c-1.79,0-3.68.78-4.95,2.05s-2.13,3.21-2.05,4.95.68,3.69,2.05,4.95,3.05,2.05,4.95,2.05h0Z"/>
  <path class="cls-2" d="M1385.87,635.95c1.79,0,3.68-.78,4.95-2.05s2.13-3.21,2.05-4.95-.68-3.69-2.05-4.95-3.05-2.05-4.95-2.05c-1.79,0-3.68.78-4.95,2.05s-2.13,3.21-2.05,4.95.68,3.69,2.05,4.95,3.05,2.05,4.95,2.05h0Z"/>
  <path class="cls-2" d="M1367.49,599.18c1.79,0,3.68-.78,4.95-2.05s2.13-3.21,2.05-4.95-.68-3.69-2.05-4.95-3.05-2.05-4.95-2.05c-1.79,0-3.68.78-4.95,2.05s-2.13,3.21-2.05,4.95.68,3.69,2.05,4.95,3.05,2.05,4.95,2.05h0Z"/>
  <path class="cls-2" d="M1410.38,697.23c1.79,0,3.68-.78,4.95-2.05s2.13-3.21,2.05-4.95-.68-3.69-2.05-4.95-3.05-2.05-4.95-2.05c-1.79,0-3.68.78-4.95,2.05s-2.13,3.21-2.05,4.95.68,3.69,2.05,4.95,3.05,2.05,4.95,2.05h0Z"/>
  <path class="cls-2" d="M1498.21,674.76c1.79,0,3.68-.78,4.95-2.05s2.13-3.21,2.05-4.95-.68-3.69-2.05-4.95-3.05-2.05-4.95-2.05c-1.79,0-3.68.78-4.95,2.05s-2.13,3.21-2.05,4.95.68,3.69,2.05,4.95,3.05,2.05,4.95,2.05h0Z"/>
  <path class="cls-2" d="M1549.28,623.69c1.79,0,3.68-.78,4.95-2.05s2.13-3.21,2.05-4.95-.68-3.69-2.05-4.95-3.05-2.05-4.95-2.05c-1.79,0-3.68.78-4.95,2.05s-2.13,3.21-2.05,4.95.68,3.69,2.05,4.95,3.05,2.05,4.95,2.05h0Z"/>
  <path class="cls-2" d="M1541.11,511.35c1.79,0,3.68-.78,4.95-2.05s2.13-3.21,2.05-4.95-.68-3.69-2.05-4.95-3.05-2.05-4.95-2.05c-1.79,0-3.68.78-4.95,2.05s-2.13,3.21-2.05,4.95.68,3.69,2.05,4.95,3.05,2.05,4.95,2.05h0Z"/>
  <path class="cls-2" d="M1490.04,435.78c1.79,0,3.68-.78,4.95-2.05s2.13-3.21,2.05-4.95-.68-3.69-2.05-4.95-3.05-2.05-4.95-2.05c-1.79,0-3.68.78-4.95,2.05s-2.13,3.21-2.05,4.95.68,3.69,2.05,4.95,3.05,2.05,4.95,2.05h0Z"/>
  <path class="cls-2" d="M1400.17,748.29c1.79,0,3.68-.78,4.95-2.05s2.13-3.21,2.05-4.95-.68-3.69-2.05-4.95-3.05-2.05-4.95-2.05c-1.79,0-3.68.78-4.95,2.05s-2.13,3.21-2.05,4.95.68,3.69,2.05,4.95,3.05,2.05,4.95,2.05h0Z"/>
  <path class="cls-2" d="M1400.17,811.61c1.79,0,3.68-.78,4.95-2.05s2.13-3.21,2.05-4.95-.68-3.69-2.05-4.95-3.05-2.05-4.95-2.05c-1.79,0-3.68.78-4.95,2.05s-2.13,3.21-2.05,4.95.68,3.69,2.05,4.95,3.05,2.05,4.95,2.05h0Z"/>
  <path class="cls-2" d="M1432.85,846.33c1.79,0,3.68-.78,4.95-2.05s2.13-3.21,2.05-4.95-.68-3.69-2.05-4.95-3.05-2.05-4.95-2.05c-1.79,0-3.68.78-4.95,2.05s-2.13,3.21-2.05,4.95.68,3.69,2.05,4.95,3.05,2.05,4.95,2.05h0Z"/>
  <path class="cls-2" d="M1516.6,399.01c1.79,0,3.68-.78,4.95-2.05s2.13-3.21,2.05-4.95-.68-3.69-2.05-4.95-3.05-2.05-4.95-2.05c-1.79,0-3.68.78-4.95,2.05s-2.13,3.21-2.05,4.95.68,3.69,2.05,4.95,3.05,2.05,4.95,2.05h0Z"/>
  <path class="cls-2" d="M1547.23,362.25c1.79,0,3.68-.78,4.95-2.05s2.13-3.21,2.05-4.95-.68-3.69-2.05-4.95-3.05-2.05-4.95-2.05c-1.79,0-3.68.78-4.95,2.05s-2.13,3.21-2.05,4.95.68,3.69,2.05,4.95,3.05,2.05,4.95,2.05h0Z"/>
  <path class="cls-2" d="M1545.19,286.67c1.79,0,3.68-.78,4.95-2.05s2.13-3.21,2.05-4.95-.68-3.69-2.05-4.95-3.05-2.05-4.95-2.05c-1.79,0-3.68.78-4.95,2.05s-2.13,3.21-2.05,4.95.68,3.69,2.05,4.95,3.05,2.05,4.95,2.05h0Z"/>
  <path class="cls-2" d="M781.28,780.97c1.79,0,3.68-.78,4.95-2.05s2.13-3.21,2.05-4.95-.68-3.69-2.05-4.95-3.05-2.05-4.95-2.05c-1.79,0-3.68.78-4.95,2.05s-2.13,3.21-2.05,4.95.68,3.69,2.05,4.95,3.05,2.05,4.95,2.05h0Z"/>
  <path class="cls-2" d="M803.74,699.27c1.79,0,3.68-.78,4.95-2.05s2.13-3.21,2.05-4.95-.68-3.69-2.05-4.95-3.05-2.05-4.95-2.05c-1.79,0-3.68.78-4.95,2.05s-2.13,3.21-2.05,4.95.68,3.69,2.05,4.95,3.05,2.05,4.95,2.05h0Z"/>
  <path class="cls-2" d="M807.83,762.59c1.79,0,3.68-.78,4.95-2.05s2.13-3.21,2.05-4.95-.68-3.69-2.05-4.95-3.05-2.05-4.95-2.05c-1.79,0-3.68.78-4.95,2.05s-2.13,3.21-2.05,4.95.68,3.69,2.05,4.95,3.05,2.05,4.95,2.05h0Z"/>
  <path class="cls-2" d="M813.96,648.21c1.79,0,3.68-.78,4.95-2.05s2.13-3.21,2.05-4.95-.68-3.69-2.05-4.95-3.05-2.05-4.95-2.05c-1.79,0-3.68.78-4.95,2.05s-2.13,3.21-2.05,4.95.68,3.69,2.05,4.95,3.05,2.05,4.95,2.05h0Z"/>
  <path class="cls-2" d="M601.53,983.18c1.79,0,3.68-.78,4.95-2.05s2.13-3.21,2.05-4.95-.68-3.69-2.05-4.95-3.05-2.05-4.95-2.05c-1.79,0-3.68.78-4.95,2.05s-2.13,3.21-2.05,4.95.68,3.69,2.05,4.95,3.05,2.05,4.95,2.05h0Z"/>
  <path class="cls-2" d="M570.89,936.21c1.79,0,3.68-.78,4.95-2.05s2.13-3.21,2.05-4.95-.68-3.69-2.05-4.95-3.05-2.05-4.95-2.05c-1.79,0-3.68.78-4.95,2.05s-2.13,3.21-2.05,4.95.68,3.69,2.05,4.95,3.05,2.05,4.95,2.05h0Z"/>
  <path class="cls-2" d="M574.98,891.27c1.79,0,3.68-.78,4.95-2.05s2.13-3.21,2.05-4.95-.68-3.69-2.05-4.95-3.05-2.05-4.95-2.05c-1.79,0-3.68.78-4.95,2.05s-2.13,3.21-2.05,4.95.68,3.69,2.05,4.95,3.05,2.05,4.95,2.05h0Z"/>
  <path class="cls-2" d="M603.57,940.29c1.79,0,3.68-.78,4.95-2.05s2.13-3.21,2.05-4.95-.68-3.69-2.05-4.95-3.05-2.05-4.95-2.05c-1.79,0-3.68.78-4.95,2.05s-2.13,3.21-2.05,4.95.68,3.69,2.05,4.95,3.05,2.05,4.95,2.05h0Z"/>
  <path class="cls-2" d="M536.17,236.35c2.75.1,5.32-.47,7.71-1.72,2.48-.81,4.63-2.19,6.44-4.14,1.95-1.81,3.33-3.96,4.14-6.44,1.25-2.38,1.83-4.95,1.72-7.71l-.71-5.32c-.95-3.39-2.66-6.33-5.14-8.83l-4.05-3.13c-3.12-1.81-6.48-2.72-10.09-2.73-2.75-.1-5.32.47-7.71,1.72-2.48.81-4.63,2.19-6.44,4.14-1.95,1.81-3.33,3.96-4.14,6.44-1.25,2.38-1.83,4.95-1.72,7.71l.71,5.32c.95,3.39,2.66,6.33,5.14,8.83l4.05,3.13c3.12,1.81,6.48,2.72,10.09,2.73h0Z"/>
  <path class="cls-2" d="M440.17,348.69c2.75.1,5.32-.47,7.71-1.72,2.48-.81,4.63-2.19,6.44-4.14,1.95-1.81,3.33-3.96,4.14-6.44,1.25-2.38,1.83-4.95,1.72-7.71l-.71-5.32c-.95-3.39-2.66-6.33-5.14-8.83l-4.05-3.13c-3.12-1.81-6.48-2.72-10.09-2.73-2.75-.1-5.32.47-7.71,1.72-2.48.81-4.63,2.19-6.44,4.14-1.95,1.81-3.33,3.96-4.14,6.44-1.25,2.38-1.83,4.95-1.72,7.71l.71,5.32c.95,3.39,2.66,6.33,5.14,8.83l4.05,3.13c3.12,1.81,6.48,2.72,10.09,2.73h0Z"/>
  <path class="cls-2" d="M564.77,365.04c2.75.1,5.32-.47,7.71-1.72,2.48-.81,4.63-2.19,6.44-4.14,1.95-1.81,3.33-3.96,4.14-6.44,1.25-2.38,1.83-4.95,1.72-7.71l-.71-5.32c-.95-3.39-2.66-6.33-5.14-8.83l-4.05-3.13c-3.12-1.81-6.48-2.72-10.09-2.73-2.75-.1-5.32.47-7.71,1.72-2.48.81-4.63,2.19-6.44,4.14-1.95,1.81-3.33,3.96-4.14,6.44-1.25,2.38-1.83,4.95-1.72,7.71l.71,5.32c.95,3.39,2.66,6.33,5.14,8.83l4.05,3.13c3.12,1.81,6.48,2.72,10.09,2.73h0Z"/>
  <path class="cls-2" d="M460.6,272.38c1.79,0,3.68-.78,4.95-2.05s2.13-3.21,2.05-4.95-.68-3.69-2.05-4.95-3.05-2.05-4.95-2.05c-1.79,0-3.68.78-4.95,2.05s-2.13,3.21-2.05,4.95.68,3.69,2.05,4.95,3.05,2.05,4.95,2.05h0Z"/>
  <path class="cls-2" d="M395.23,278.5c1.79,0,3.68-.78,4.95-2.05s2.13-3.21,2.05-4.95-.68-3.69-2.05-4.95-3.05-2.05-4.95-2.05c-1.79,0-3.68.78-4.95,2.05s-2.13,3.21-2.05,4.95.68,3.69,2.05,4.95,3.05,2.05,4.95,2.05h0Z"/>
  <path class="cls-2" d="M427.91,233.57c1.79,0,3.68-.78,4.95-2.05s2.13-3.21,2.05-4.95-.68-3.69-2.05-4.95-3.05-2.05-4.95-2.05c-1.79,0-3.68.78-4.95,2.05s-2.13,3.21-2.05,4.95.68,3.69,2.05,4.95,3.05,2.05,4.95,2.05h0Z"/>
  <path class="cls-2" d="M425.87,286.67c1.79,0,3.68-.78,4.95-2.05s2.13-3.21,2.05-4.95-.68-3.69-2.05-4.95-3.05-2.05-4.95-2.05c-1.79,0-3.68.78-4.95,2.05s-2.13,3.21-2.05,4.95.68,3.69,2.05,4.95,3.05,2.05,4.95,2.05h0Z"/>
  <path class="cls-2" d="M487.15,331.61c1.79,0,3.68-.78,4.95-2.05s2.13-3.21,2.05-4.95-.68-3.69-2.05-4.95-3.05-2.05-4.95-2.05c-1.79,0-3.68.78-4.95,2.05s-2.13,3.21-2.05,4.95.68,3.69,2.05,4.95,3.05,2.05,4.95,2.05h0Z"/>
  <path class="cls-2" d="M487.15,399.01c1.79,0,3.68-.78,4.95-2.05s2.13-3.21,2.05-4.95-.68-3.69-2.05-4.95-3.05-2.05-4.95-2.05c-1.79,0-3.68.78-4.95,2.05s-2.13,3.21-2.05,4.95.68,3.69,2.05,4.95,3.05,2.05,4.95,2.05h0Z"/>
  <path class="cls-2" d="M432,396.97c1.79,0,3.68-.78,4.95-2.05s2.13-3.21,2.05-4.95-.68-3.69-2.05-4.95-3.05-2.05-4.95-2.05c-1.79,0-3.68.78-4.95,2.05s-2.13,3.21-2.05,4.95.68,3.69,2.05,4.95,3.05,2.05,4.95,2.05h0Z"/>
  <path class="cls-2" d="M374.81,356.12c1.79,0,3.68-.78,4.95-2.05s2.13-3.21,2.05-4.95-.68-3.69-2.05-4.95-3.05-2.05-4.95-2.05c-1.79,0-3.68.78-4.95,2.05s-2.13,3.21-2.05,4.95.68,3.69,2.05,4.95,3.05,2.05,4.95,2.05h0Z"/>
  <path class="cls-2" d="M376.85,294.84c1.79,0,3.68-.78,4.95-2.05s2.13-3.21,2.05-4.95-.68-3.69-2.05-4.95-3.05-2.05-4.95-2.05c-1.79,0-3.68.78-4.95,2.05s-2.13,3.21-2.05,4.95.68,3.69,2.05,4.95,3.05,2.05,4.95,2.05h0Z"/>
  <path class="cls-2" d="M352.34,276.46c1.79,0,3.68-.78,4.95-2.05s2.13-3.21,2.05-4.95-.68-3.69-2.05-4.95-3.05-2.05-4.95-2.05c-1.79,0-3.68.78-4.95,2.05s-2.13,3.21-2.05,4.95.68,3.69,2.05,4.95,3.05,2.05,4.95,2.05h0Z"/>
  <path class="cls-2" d="M380.94,225.4c1.79,0,3.68-.78,4.95-2.05s2.13-3.21,2.05-4.95-.68-3.69-2.05-4.95-3.05-2.05-4.95-2.05c-1.79,0-3.68.78-4.95,2.05s-2.13,3.21-2.05,4.95.68,3.69,2.05,4.95,3.05,2.05,4.95,2.05h0Z"/>
  <path class="cls-2" d="M423.83,209.06c1.79,0,3.68-.78,4.95-2.05s2.13-3.21,2.05-4.95-.68-3.69-2.05-4.95-3.05-2.05-4.95-2.05c-1.79,0-3.68.78-4.95,2.05s-2.13,3.21-2.05,4.95.68,3.69,2.05,4.95,3.05,2.05,4.95,2.05h0Z"/>
  <path class="cls-2" d="M521.87,272.38c1.79,0,3.68-.78,4.95-2.05s2.13-3.21,2.05-4.95-.68-3.69-2.05-4.95-3.05-2.05-4.95-2.05c-1.79,0-3.68.78-4.95,2.05s-2.13,3.21-2.05,4.95.68,3.69,2.05,4.95,3.05,2.05,4.95,2.05h0Z"/>
  <path class="cls-2" d="M568.85,245.82c1.79,0,3.68-.78,4.95-2.05s2.13-3.21,2.05-4.95-.68-3.69-2.05-4.95-3.05-2.05-4.95-2.05c-1.79,0-3.68.78-4.95,2.05s-2.13,3.21-2.05,4.95.68,3.69,2.05,4.95,3.05,2.05,4.95,2.05h0Z"/>
  <path class="cls-2" d="M542.3,186.59c1.79,0,3.68-.78,4.95-2.05s2.13-3.21,2.05-4.95-.68-3.69-2.05-4.95-3.05-2.05-4.95-2.05c-1.79,0-3.68.78-4.95,2.05s-2.13,3.21-2.05,4.95.68,3.69,2.05,4.95,3.05,2.05,4.95,2.05h0Z"/>
  <path class="cls-2" d="M493.28,213.14c1.79,0,3.68-.78,4.95-2.05s2.13-3.21,2.05-4.95-.68-3.69-2.05-4.95-3.05-2.05-4.95-2.05c-1.79,0-3.68.78-4.95,2.05s-2.13,3.21-2.05,4.95.68,3.69,2.05,4.95,3.05,2.05,4.95,2.05h0Z"/>
  <path class="cls-2" d="M544.34,296.89c1.79,0,3.68-.78,4.95-2.05s2.13-3.21,2.05-4.95-.68-3.69-2.05-4.95-3.05-2.05-4.95-2.05c-1.79,0-3.68.78-4.95,2.05s-2.13,3.21-2.05,4.95.68,3.69,2.05,4.95,3.05,2.05,4.95,2.05h0Z"/>
  <path class="cls-2" d="M540.26,325.48c1.79,0,3.68-.78,4.95-2.05s2.13-3.21,2.05-4.95-.68-3.69-2.05-4.95-3.05-2.05-4.95-2.05c-1.79,0-3.68.78-4.95,2.05s-2.13,3.21-2.05,4.95.68,3.69,2.05,4.95,3.05,2.05,4.95,2.05h0Z"/>
  <path class="cls-2" d="M550.47,407.18c1.79,0,3.68-.78,4.95-2.05s2.13-3.21,2.05-4.95-.68-3.69-2.05-4.95-3.05-2.05-4.95-2.05c-1.79,0-3.68.78-4.95,2.05s-2.13,3.21-2.05,4.95.68,3.69,2.05,4.95,3.05,2.05,4.95,2.05h0Z"/>
  <path class="cls-2" d="M607.66,388.8c1.79,0,3.68-.78,4.95-2.05s2.13-3.21,2.05-4.95-.68-3.69-2.05-4.95-3.05-2.05-4.95-2.05c-1.79,0-3.68.78-4.95,2.05s-2.13,3.21-2.05,4.95.68,3.69,2.05,4.95,3.05,2.05,4.95,2.05h0Z"/>
  <path class="cls-2" d="M587.23,309.14c1.79,0,3.68-.78,4.95-2.05s2.13-3.21,2.05-4.95-.68-3.69-2.05-4.95-3.05-2.05-4.95-2.05c-1.79,0-3.68.78-4.95,2.05s-2.13,3.21-2.05,4.95.68,3.69,2.05,4.95,3.05,2.05,4.95,2.05h0Z"/>
  <path class="cls-2" d="M628.09,347.95c1.79,0,3.68-.78,4.95-2.05s2.13-3.21,2.05-4.95-.68-3.69-2.05-4.95-3.05-2.05-4.95-2.05c-1.79,0-3.68.78-4.95,2.05s-2.13,3.21-2.05,4.95.68,3.69,2.05,4.95,3.05,2.05,4.95,2.05h0Z"/>
  <path class="cls-2" d="M581.11,441.91c1.79,0,3.68-.78,4.95-2.05s2.13-3.21,2.05-4.95-.68-3.69-2.05-4.95-3.05-2.05-4.95-2.05c-1.79,0-3.68.78-4.95,2.05s-2.13,3.21-2.05,4.95.68,3.69,2.05,4.95,3.05,2.05,4.95,2.05h0Z"/>
  <path class="cls-2" d="M570.89,196.8c1.79,0,3.68-.78,4.95-2.05s2.13-3.21,2.05-4.95-.68-3.69-2.05-4.95-3.05-2.05-4.95-2.05c-1.79,0-3.68.78-4.95,2.05s-2.13,3.21-2.05,4.95.68,3.69,2.05,4.95,3.05,2.05,4.95,2.05h0Z"/>
  <path class="cls-2" d="M505.53,143.69c1.79,0,3.68-.78,4.95-2.05s2.13-3.21,2.05-4.95-.68-3.69-2.05-4.95-3.05-2.05-4.95-2.05c-1.79,0-3.68.78-4.95,2.05s-2.13,3.21-2.05,4.95.68,3.69,2.05,4.95,3.05,2.05,4.95,2.05h0Z"/>
  <path class="cls-2" d="M803.74,611.44c1.79,0,3.68-.78,4.95-2.05s2.13-3.21,2.05-4.95-.68-3.69-2.05-4.95-3.05-2.05-4.95-2.05c-1.79,0-3.68.78-4.95,2.05s-2.13,3.21-2.05,4.95.68,3.69,2.05,4.95,3.05,2.05,4.95,2.05h0Z"/>
  <path class="cls-2" d="M807.83,537.91c1.79,0,3.68-.78,4.95-2.05s2.13-3.21,2.05-4.95-.68-3.69-2.05-4.95-3.05-2.05-4.95-2.05c-1.79,0-3.68.78-4.95,2.05s-2.13,3.21-2.05,4.95.68,3.69,2.05,4.95,3.05,2.05,4.95,2.05h0Z"/>
  <path class="cls-2" d="M832.34,803.44c1.79,0,3.68-.78,4.95-2.05s2.13-3.21,2.05-4.95-.68-3.69-2.05-4.95-3.05-2.05-4.95-2.05c-1.79,0-3.68.78-4.95,2.05s-2.13,3.21-2.05,4.95.68,3.69,2.05,4.95,3.05,2.05,4.95,2.05h0Z"/>
  <path class="cls-2" d="M842.55,729.91c1.79,0,3.68-.78,4.95-2.05s2.13-3.21,2.05-4.95-.68-3.69-2.05-4.95-3.05-2.05-4.95-2.05c-1.79,0-3.68.78-4.95,2.05s-2.13,3.21-2.05,4.95.68,3.69,2.05,4.95,3.05,2.05,4.95,2.05h0Z"/>
  <path class="cls-2" d="M824.17,682.93c1.79,0,3.68-.78,4.95-2.05s2.13-3.21,2.05-4.95-.68-3.69-2.05-4.95-3.05-2.05-4.95-2.05c-1.79,0-3.68.78-4.95,2.05s-2.13,3.21-2.05,4.95.68,3.69,2.05,4.95,3.05,2.05,4.95,2.05h0Z"/>
  <path class="cls-2" d="M809.87,472.55c1.79,0,3.68-.78,4.95-2.05s2.13-3.21,2.05-4.95-.68-3.69-2.05-4.95-3.05-2.05-4.95-2.05c-1.79,0-3.68.78-4.95,2.05s-2.13,3.21-2.05,4.95.68,3.69,2.05,4.95,3.05,2.05,4.95,2.05h0Z"/>
  <path class="cls-2" d="M1518.64,460.29c1.79,0,3.68-.78,4.95-2.05s2.13-3.21,2.05-4.95-.68-3.69-2.05-4.95-3.05-2.05-4.95-2.05c-1.79,0-3.68.78-4.95,2.05s-2.13,3.21-2.05,4.95.68,3.69,2.05,4.95,3.05,2.05,4.95,2.05h0Z"/>
  <path class="cls-2" d="M1845.45,33.4c1.79,0,3.68-.78,4.95-2.05s2.13-3.21,2.05-4.95-.68-3.69-2.05-4.95-3.05-2.05-4.95-2.05c-1.79,0-3.68.78-4.95,2.05s-2.13,3.21-2.05,4.95.68,3.69,2.05,4.95,3.05,2.05,4.95,2.05h0Z"/>
  <path class="cls-2" d="M1886.3,72.21c1.79,0,3.68-.78,4.95-2.05s2.13-3.21,2.05-4.95-.68-3.69-2.05-4.95-3.05-2.05-4.95-2.05c-1.79,0-3.68.78-4.95,2.05s-2.13,3.21-2.05,4.95.68,3.69,2.05,4.95,3.05,2.05,4.95,2.05h0Z"/>
  <path class="cls-2" d="M237.96,733.99c1.79,0,3.68-.78,4.95-2.05s2.13-3.21,2.05-4.95-.68-3.69-2.05-4.95-3.05-2.05-4.95-2.05c-1.79,0-3.68.78-4.95,2.05s-2.13,3.21-2.05,4.95.68,3.69,2.05,4.95,3.05,2.05,4.95,2.05h0Z"/>
  <path class="cls-2" d="M242.04,676.8c1.79,0,3.68-.78,4.95-2.05s2.13-3.21,2.05-4.95-.68-3.69-2.05-4.95-3.05-2.05-4.95-2.05c-1.79,0-3.68.78-4.95,2.05s-2.13,3.21-2.05,4.95.68,3.69,2.05,4.95,3.05,2.05,4.95,2.05h0Z"/>
  <path class="cls-2" d="M188.94,783.01c1.79,0,3.68-.78,4.95-2.05s2.13-3.21,2.05-4.95-.68-3.69-2.05-4.95-3.05-2.05-4.95-2.05c-1.79,0-3.68.78-4.95,2.05s-2.13,3.21-2.05,4.95.68,3.69,2.05,4.95,3.05,2.05,4.95,2.05h0Z"/>
  <path class="cls-2" d="M99.06,805.48c1.79,0,3.68-.78,4.95-2.05s2.13-3.21,2.05-4.95-.68-3.69-2.05-4.95-3.05-2.05-4.95-2.05c-1.79,0-3.68.78-4.95,2.05s-2.13,3.21-2.05,4.95.68,3.69,2.05,4.95,3.05,2.05,4.95,2.05h0Z"/>
  <path class="cls-2" d="M701.62,919.86c1.79,0,3.68-.78,4.95-2.05s2.13-3.21,2.05-4.95-.68-3.69-2.05-4.95-3.05-2.05-4.95-2.05c-1.79,0-3.68.78-4.95,2.05s-2.13,3.21-2.05,4.95.68,3.69,2.05,4.95,3.05,2.05,4.95,2.05h0Z"/>
  <path class="cls-2" d="M681.19,952.55c1.79,0,3.68-.78,4.95-2.05s2.13-3.21,2.05-4.95-.68-3.69-2.05-4.95-3.05-2.05-4.95-2.05c-1.79,0-3.68.78-4.95,2.05s-2.13,3.21-2.05,4.95.68,3.69,2.05,4.95,3.05,2.05,4.95,2.05h0Z"/>
  <path class="cls-2" d="M652.6,936.21c1.79,0,3.68-.78,4.95-2.05s2.13-3.21,2.05-4.95-.68-3.69-2.05-4.95-3.05-2.05-4.95-2.05c-1.79,0-3.68.78-4.95,2.05s-2.13,3.21-2.05,4.95.68,3.69,2.05,4.95,3.05,2.05,4.95,2.05h0Z"/>
  <path class="cls-2" d="M734.3,1030.16c1.79,0,3.68-.78,4.95-2.05s2.13-3.21,2.05-4.95-.68-3.69-2.05-4.95-3.05-2.05-4.95-2.05c-1.79,0-3.68.78-4.95,2.05s-2.13,3.21-2.05,4.95.68,3.69,2.05,4.95,3.05,2.05,4.95,2.05h0Z"/>
  <path class="cls-2" d="M670.98,993.4c1.79,0,3.68-.78,4.95-2.05s2.13-3.21,2.05-4.95-.68-3.69-2.05-4.95-3.05-2.05-4.95-2.05c-1.79,0-3.68.78-4.95,2.05s-2.13,3.21-2.05,4.95.68,3.69,2.05,4.95,3.05,2.05,4.95,2.05h0Z"/>
  <path class="cls-2" d="M1306.21,270.33c1.79,0,3.68-.78,4.95-2.05s2.13-3.21,2.05-4.95-.68-3.69-2.05-4.95-3.05-2.05-4.95-2.05c-1.79,0-3.68.78-4.95,2.05s-2.13,3.21-2.05,4.95.68,3.69,2.05,4.95,3.05,2.05,4.95,2.05h0Z"/>
</svg>