<?xml version="1.0" encoding="UTF-8"?>
<svg id="_Слой_1" data-name="Слой 1" xmlns="http://www.w3.org/2000/svg" viewBox="0 0 1920 1080">
  <defs>
    <style>
      .cls-1, .cls-2 {
        stroke-width: 0px;
      }

      .cls-2 {
        fill: #e8b629;
      }
    </style>
  </defs>
  <rect class="cls-2" width="1920" height="1080"/>
  <path class="cls-1" d="M1726.98,207.45c4.13.16,7.98-.71,11.56-2.58,3.72-1.21,6.94-3.28,9.65-6.2,2.93-2.72,4.99-5.94,6.2-9.65,1.88-3.58,2.74-7.43,2.58-11.56-.36-2.66-.71-5.32-1.07-7.98-1.43-5.08-4-9.49-7.72-13.24l-6.07-4.69c-4.68-2.71-9.73-4.08-15.14-4.1-4.13-.16-7.98.71-11.56,2.58-3.72,1.21-6.94,3.28-9.65,6.2-2.93,2.72-4.99,5.94-6.2,9.65-1.88,3.58-2.74,7.43-2.58,11.56.36,2.66.71,5.32,1.07,7.98,1.43,5.08,4,9.49,7.72,13.24l6.07,4.69c4.68,2.71,9.73,4.08,15.14,4.1h0Z"/>
  <path class="cls-1" d="M1584,248.3c4.13.16,7.98-.71,11.56-2.58,3.72-1.21,6.94-3.28,9.65-6.2,2.93-2.72,4.99-5.94,6.2-9.65,1.88-3.58,2.74-7.43,2.58-11.56-.36-2.66-.71-5.32-1.07-7.98-1.43-5.08-4-9.49-7.72-13.24l-6.07-4.69c-4.68-2.71-9.73-4.08-15.14-4.1-4.13-.16-7.98.71-11.56,2.58-3.72,1.21-6.94,3.28-9.65,6.2-2.93,2.72-4.99,5.94-6.2,9.65-1.88,3.58-2.74,7.43-2.58,11.56.36,2.66.71,5.32,1.07,7.98,1.43,5.08,4,9.49,7.72,13.24l6.07,4.69c4.68,2.71,9.73,4.08,15.14,4.1h0Z"/>
  <path class="cls-1" d="M1617.04,490.99c18.37,10.25,36.74,20.51,54.61,31.61,17.86,11.09,35.25,23.03,51.4,36.52s29.93,27.42,42.1,43.64c11.87,15.82,21.75,33.24,28.54,51.85s10.29,37.81,9.62,57.34c-.08,2.37-.23,4.73-.43,7.09-.05.64.95.64,1,0,1.67-19.51-.96-39.19-6.88-57.81-6-18.86-15.23-36.63-26.55-52.83-11.6-16.6-25.44-31.44-40.63-44.79s-32.87-26.09-50.53-37.38c-17.9-11.44-36.38-21.93-54.91-32.29-2.28-1.27-4.55-2.54-6.83-3.81-.56-.31-1.07.55-.5.86h0Z"/>
  <path class="cls-1" d="M1285.75,410.64c45.32-6.76,91.1-10.4,136.92-10.85,44.98-.45,90.05,2.08,134.67,7.83,41.87,5.4,83.59,14.04,123.08,29.23,35.91,13.82,69.68,33.24,98.09,59.35,26.43,24.29,48.15,54.16,60.49,88.03,1.51,4.14,2.86,8.32,4.09,12.55.18.62,1.14.35.96-.27-9.99-34.4-29.49-65.3-54.38-90.87-26.31-27.03-58.26-47.89-92.7-63.05-38.78-17.07-80.28-27.15-122.06-33.51-44.54-6.79-89.72-9.97-134.76-10.32s-92.48,2.52-138.31,8.6c-5.46.72-10.91,1.5-16.35,2.31-.63.09-.36,1.06.27.96h0Z"/>
  <path class="cls-1" d="M439.61,302.31c-8.25-15.72-18.51-30.33-30.31-43.58-11.75-13.18-25-25-39.31-35.34-15.05-10.88-31.27-20.07-48.24-27.59-18.37-8.13-37.56-14.31-57.15-18.73-19.78-4.46-39.95-7.14-60.19-8.26-2.49-.14-4.97-.25-7.46-.34-.64-.02-.64.98,0,1,20.17.74,40.3,2.99,60.09,7,19.64,3.98,38.95,9.68,57.48,17.31,17.28,7.11,33.85,15.93,49.29,26.47,14.62,9.98,28.23,21.48,40.38,34.36s22.76,27.07,31.45,42.44c1.07,1.9,2.12,3.82,3.13,5.75.3.57,1.16.07.86-.5h0Z"/>
  <path class="cls-1" d="M517.12,567.5c5.18-25.93,7.09-52.42,6.32-78.84-.78-26.51-4.18-52.91-9.23-78.93-5.17-26.62-12.07-52.88-19.83-78.86-7.76-26.01-16.4-51.75-25.15-77.45-7.68-22.54-15.26-45.8-29.51-65.2-1.7-2.31-3.49-4.55-5.36-6.73-.42-.49-1.13.22-.71.71,15.87,18.44,24.38,41.61,32.16,64.31,8.62,25.15,17.14,50.35,24.93,75.78,7.81,25.48,14.87,51.22,20.39,77.3s9.46,52.41,10.89,78.98c1.42,26.37.33,52.92-4.07,78.98-.55,3.23-1.15,6.46-1.79,9.67-.13.63.84.9.96.27h0Z"/>
  <path class="cls-1" d="M959.06,606.67c18.66-4.86,37.48-9.1,56.42-12.7,19.08-3.63,38.29-6.61,57.58-8.94,19.14-2.31,38.36-3.99,57.62-5.03,19.25-1.03,38.54-1.43,57.82-1.18,19.19.25,38.36,1.14,57.49,2.67,2.44.2,4.87.4,7.31.62.64.06.64-.94,0-1-19.3-1.71-38.66-2.77-58.03-3.18-19.28-.4-38.57-.16-57.83.72-19.36.89-38.68,2.43-57.94,4.61-19.11,2.17-38.15,4.96-57.07,8.39-18.97,3.44-37.83,7.51-56.53,12.22-2.37.6-4.74,1.2-7.11,1.82-.62.16-.36,1.13.27.96h0Z"/>
  <path class="cls-1" d="M754.84,704.87c24.34-8.74,48.96-16.71,73.82-23.86,24.85-7.15,49.94-13.5,75.2-19.03s50.71-10.25,76.28-14.15,51.66-7.01,77.63-9.25,51.61-3.61,77.46-4.16c3.2-.07,6.4-.12,9.6-.16.64,0,.64-1.01,0-1-25.98.35-51.96,1.53-77.86,3.56-25.71,2.02-51.35,4.87-76.87,8.53-25.6,3.68-51.08,8.18-76.39,13.49-25.43,5.34-50.69,11.51-75.72,18.48-25.03,6.98-49.84,14.77-74.36,23.36-3.02,1.06-6.04,2.13-9.05,3.21-.6.22-.34,1.18.27.96h0Z"/>
  <path class="cls-1" d="M950.1,248.29c11-10.35,21.44-21.29,31.29-32.75s19-23.33,27.57-35.69c8.61-12.41,16.57-25.28,23.84-38.51s13.8-26.74,19.64-40.6,11-28.14,15.37-42.6c.53-1.76,1.05-3.52,1.56-5.28.18-.62-.79-.88-.96-.27-4.15,14.41-9.06,28.6-14.7,42.5-5.68,14.01-12.11,27.71-19.23,41.04-7.06,13.23-14.8,26.1-23.19,38.53s-17.55,24.63-27.26,36.21-19.87,22.48-30.65,32.9c-1.32,1.27-2.65,2.54-3.98,3.8-.47.44.24,1.15.71.71h0Z"/>
  <path class="cls-1" d="M911.59,343.46c23.57-6.51,46.64-14.82,68.98-24.77,22.37-9.97,43.99-21.58,64.68-34.69,20.6-13.05,40.25-27.59,58.78-43.44,18.6-15.92,36.06-33.19,52.16-51.64s30.71-37.9,43.84-58.44c1.63-2.56,3.24-5.13,4.83-7.71.34-.55-.53-1.05-.86-.5-12.82,20.9-27.22,40.82-43.03,59.57-15.64,18.54-32.64,35.94-50.78,52.04-18.29,16.23-37.75,31.14-58.17,44.58-20.33,13.37-41.62,25.3-63.66,35.6-22.07,10.32-44.9,19.02-68.26,25.94-2.91.86-5.83,1.7-8.75,2.5-.62.17-.36,1.14.27.96h0Z"/>
  <path class="cls-1" d="M1604.43,703.79c4.13.16,7.98-.71,11.56-2.58,3.72-1.21,6.94-3.28,9.65-6.2,2.93-2.72,4.99-5.94,6.2-9.65,1.88-3.58,2.74-7.43,2.58-11.56-.36-2.66-.71-5.32-1.07-7.98-1.43-5.08-4-9.49-7.72-13.24l-6.07-4.69c-4.68-2.71-9.73-4.08-15.14-4.1-4.13-.16-7.98.71-11.56,2.58-3.72,1.21-6.94,3.28-9.65,6.2-2.93,2.72-4.99,5.94-6.2,9.65-1.88,3.58-2.74,7.43-2.58,11.56.36,2.66.71,5.32,1.07,7.98,1.43,5.08,4,9.49,7.72,13.24l6.07,4.69c4.68,2.71,9.73,4.08,15.14,4.1h0Z"/>
  <path class="cls-1" d="M1506.38,685.4c4.13.16,7.98-.71,11.56-2.58,3.72-1.21,6.94-3.28,9.65-6.2,2.93-2.72,4.99-5.94,6.2-9.65,1.88-3.58,2.74-7.43,2.58-11.56-.36-2.66-.71-5.32-1.07-7.98-1.43-5.08-4-9.49-7.72-13.24l-6.07-4.69c-4.68-2.71-9.73-4.08-15.14-4.1-4.13-.16-7.98.71-11.56,2.58-3.72,1.21-6.94,3.28-9.65,6.2-2.93,2.72-4.99,5.94-6.2,9.65-1.88,3.58-2.74,7.43-2.58,11.56.36,2.66.71,5.32,1.07,7.98,1.43,5.08,4,9.49,7.72,13.24l6.07,4.69c4.68,2.71,9.73,4.08,15.14,4.1h0Z"/>
  <path class="cls-1" d="M1197.96,1046.94c4.13.16,7.98-.71,11.56-2.58,3.72-1.21,6.94-3.28,9.65-6.2,2.93-2.72,4.99-5.94,6.2-9.65,1.88-3.58,2.74-7.43,2.58-11.56l-1.07-7.98c-1.43-5.08-4-9.49-7.72-13.24l-6.07-4.69c-4.68-2.71-9.73-4.08-15.14-4.1-4.13-.16-7.98.71-11.56,2.58-3.72,1.21-6.94,3.28-9.65,6.2-2.93,2.72-4.99,5.94-6.2,9.65-1.88,3.58-2.74,7.43-2.58,11.56l1.07,7.98c1.43,5.08,4,9.49,7.72,13.24l6.07,4.69c4.68,2.71,9.73,4.08,15.14,4.1h0Z"/>
  <path class="cls-1" d="M1044.77,977.49c4.13.16,7.98-.71,11.56-2.58,3.72-1.21,6.94-3.28,9.65-6.2,2.93-2.72,4.99-5.94,6.2-9.65,1.88-3.58,2.74-7.43,2.58-11.56l-1.07-7.98c-1.43-5.08-4-9.49-7.72-13.24l-6.07-4.69c-4.68-2.71-9.73-4.08-15.14-4.1-4.13-.16-7.98.71-11.56,2.58-3.72,1.21-6.94,3.28-9.65,6.2-2.93,2.72-4.99,5.94-6.2,9.65-1.88,3.58-2.74,7.43-2.58,11.56l1.07,7.98c1.43,5.08,4,9.49,7.72,13.24,2.02,1.56,4.05,3.13,6.07,4.69,4.68,2.71,9.73,4.08,15.14,4.1h0Z"/>
  <path class="cls-1" d="M1108.09,754.85c4.13.16,7.98-.71,11.56-2.58,3.72-1.21,6.94-3.28,9.65-6.2,2.93-2.72,4.99-5.94,6.2-9.65,1.88-3.58,2.74-7.43,2.58-11.56l-1.07-7.98c-1.43-5.08-4-9.49-7.72-13.24l-6.07-4.69c-4.68-2.71-9.73-4.08-15.14-4.1-4.13-.16-7.98.71-11.56,2.58-3.72,1.21-6.94,3.28-9.65,6.2-2.93,2.72-4.99,5.94-6.2,9.65-1.88,3.58-2.74,7.43-2.58,11.56l1.07,7.98c1.43,5.08,4,9.49,7.72,13.24l6.07,4.69c4.68,2.71,9.73,4.08,15.14,4.1h0Z"/>
  <path class="cls-1" d="M938.55,828.38c4.13.16,7.98-.71,11.56-2.58,3.72-1.21,6.94-3.28,9.65-6.2,2.93-2.72,4.99-5.94,6.2-9.65,1.88-3.58,2.74-7.43,2.58-11.56l-1.07-7.98c-1.43-5.08-4-9.49-7.72-13.24l-6.07-4.69c-4.68-2.71-9.73-4.08-15.14-4.1-4.13-.16-7.98.71-11.56,2.58-3.72,1.21-6.94,3.28-9.65,6.2-2.93,2.72-4.99,5.94-6.2,9.65-1.88,3.58-2.74,7.43-2.58,11.56l1.07,7.98c1.43,5.08,4,9.49,7.72,13.24l6.07,4.69c4.68,2.71,9.73,4.08,15.14,4.1h0Z"/>
  <path class="cls-1" d="M317.62,646.6c4.13.16,7.98-.71,11.56-2.58,3.72-1.21,6.94-3.28,9.65-6.2,2.93-2.72,4.99-5.94,6.2-9.65,1.88-3.58,2.74-7.43,2.58-11.56l-1.07-7.98c-1.43-5.08-4-9.49-7.72-13.24l-6.07-4.69c-4.68-2.71-9.73-4.08-15.14-4.1-4.13-.16-7.98.71-11.56,2.58-3.72,1.21-6.94,3.28-9.65,6.2-2.93,2.72-4.99,5.94-6.2,9.65-1.88,3.58-2.74,7.43-2.58,11.56l1.07,7.98c1.43,5.08,4,9.49,7.72,13.24l6.07,4.69c4.68,2.71,9.73,4.08,15.14,4.1h0Z"/>
  <path class="cls-1" d="M144,632.3c4.13.16,7.98-.71,11.56-2.58,3.72-1.21,6.94-3.28,9.65-6.2,2.93-2.72,4.99-5.94,6.2-9.65,1.88-3.58,2.74-7.43,2.58-11.56l-1.07-7.98c-1.43-5.08-4-9.49-7.72-13.24l-6.07-4.69c-4.68-2.71-9.73-4.08-15.14-4.1-4.13-.16-7.98.71-11.56,2.58-3.72,1.21-6.94,3.28-9.65,6.2-2.93,2.72-4.99,5.94-6.2,9.65-1.88,3.58-2.74,7.43-2.58,11.56l1.07,7.98c1.43,5.08,4,9.49,7.72,13.24l6.07,4.69c4.68,2.71,9.73,4.08,15.14,4.1h0Z"/>
  <path class="cls-1" d="M268.6,503.62c4.13.16,7.98-.71,11.56-2.58,3.72-1.21,6.94-3.28,9.65-6.2,2.93-2.72,4.99-5.94,6.2-9.65,1.88-3.58,2.74-7.43,2.58-11.56l-1.07-7.98c-1.43-5.08-4-9.49-7.72-13.24l-6.07-4.69c-4.68-2.71-9.73-4.08-15.14-4.1-4.13-.16-7.98.71-11.56,2.58-3.72,1.21-6.94,3.28-9.65,6.2-2.93,2.72-4.99,5.94-6.2,9.65-1.88,3.58-2.74,7.43-2.58,11.56l1.07,7.98c1.43,5.08,4,9.49,7.72,13.24l6.07,4.69c4.68,2.71,9.73,4.08,15.14,4.1h0Z"/>
  <path class="cls-1" d="M640.34,276.89c4.13.16,7.98-.71,11.56-2.58,3.72-1.21,6.94-3.28,9.65-6.2,2.93-2.72,4.99-5.94,6.2-9.65,1.88-3.58,2.74-7.43,2.58-11.56l-1.07-7.98c-1.43-5.08-4-9.49-7.72-13.24l-6.07-4.69c-4.68-2.71-9.73-4.08-15.14-4.1-4.13-.16-7.98.71-11.56,2.58-3.72,1.21-6.94,3.28-9.65,6.2-2.93,2.72-4.99,5.94-6.2,9.65-1.88,3.58-2.74,7.43-2.58,11.56l1.07,7.98c1.43,5.08,4,9.49,7.72,13.24l6.07,4.69c4.68,2.71,9.73,4.08,15.14,4.1h0Z"/>
  <path class="cls-1" d="M1522.72,362.68c4.13.16,7.98-.71,11.56-2.58,3.72-1.21,6.94-3.28,9.65-6.2,2.93-2.72,4.99-5.94,6.2-9.65,1.88-3.58,2.74-7.43,2.58-11.56-.36-2.66-.71-5.32-1.07-7.98-1.43-5.08-4-9.49-7.72-13.24l-6.07-4.69c-4.68-2.71-9.73-4.08-15.14-4.1-4.13-.16-7.98.71-11.56,2.58-3.72,1.21-6.94,3.28-9.65,6.2-2.93,2.72-4.99,5.94-6.2,9.65-1.88,3.58-2.74,7.43-2.58,11.56.36,2.66.71,5.32,1.07,7.98,1.43,5.08,4,9.49,7.72,13.24l6.07,4.69c4.68,2.71,9.73,4.08,15.14,4.1h0Z"/>
  <path class="cls-1" d="M1641.19,488.41c.64,0,.64-1,0-1s-.64,1,0,1h0Z"/>
  <path class="cls-1" d="M998.37,530.7c44.79-10.65,89.58-21.31,134.38-31.96,43.95-10.45,87.92-21.34,132.65-28,38.45-5.72,77.26-7.89,116.01-4.33,34.68,3.18,69.03,10.54,101.8,22.36s62.99,27.68,90.34,48.4c13.74,10.41,26.6,22,38.28,34.68,11.94,12.95,23.09,27.02,31.61,42.49,9,16.34,15.73,35,15.18,53.89-.27,9.14-2.39,18.21-6.72,26.3-4.77,8.91-12,16.06-19.97,22.13-16.27,12.38-34.69,22.47-53.11,31.22-19.27,9.15-39.47,16.9-60.15,22.2-10.71,2.74-21.75,4.63-32.85,4.26-11-.36-21.47-3.29-31.31-8.15-8.97-4.43-17.24-10.11-25.37-15.89s-16.46-11.57-23.61-18.63c-7-6.92-12.55-15.14-15.05-24.75s-2.1-19.02.23-28.22c4.81-18.96,18.24-34.01,34.68-44.04,7.94-4.84,16.5-8.55,25.35-11.38.61-.2.35-1.16-.27-.96-17.53,5.62-34.37,14.85-46.47,28.98-11.67,13.63-18.15,31.95-15.66,49.93,2.65,19.13,16.15,32.26,30.99,43.23,16.12,11.91,33.25,24.94,53.23,29.27,21.35,4.63,43.36-1.17,63.63-7.79s40.37-15.2,59.34-25.41c9.43-5.07,18.64-10.56,27.57-16.46,8.13-5.37,16.11-11.23,22.5-18.66,11.73-13.64,15.61-31.4,13.42-49-4.49-36.16-28.81-67.73-53.74-92.84s-53.88-45-85.31-60.35c-32.12-15.69-66.55-26.48-101.7-32.82s-71.71-8.24-107.65-5.71c-46.75,3.3-92.74,13-138.28,23.63-46.77,10.92-93.45,22.19-140.17,33.3-11.36,2.7-22.71,5.4-34.07,8.1-.63.15-.36,1.11.27.96h0Z"/>
  <path class="cls-1" d="M548.23,902.63c24.82-27.24,54.71-49.17,86.75-67.18,32.44-18.24,66.86-32.67,101.52-46.1,35.46-13.74,71.19-26.73,106.45-41.01,39.38-15.95,80.79-32.52,124.11-29.66,41.35,2.73,79.45,22.98,113.44,45.34,31.58,20.77,61.24,45.93,82.24,77.68,5.13,7.76,9.73,15.88,13.64,24.33,4.65,10.03,8.48,21.12,7.51,32.33-.91,10.62-6.44,19.94-12.52,28.42-6.17,8.59-12.8,16.87-19.63,24.93-13.3,15.7-27.67,30.49-42.98,44.24-15.3,13.74-31.49,27.37-49.31,37.73-8.84,5.14-18.35,9.33-28.44,11.28-11.01,2.12-22.2,1.1-32.95-1.86-20.55-5.65-40.09-16.64-58.02-27.97-9.15-5.78-18.02-12.03-26.54-18.71-7.51-5.89-15.8-12.08-20.35-20.69-9.64-18.25,3.59-38.75,20.32-46.74,9-4.3,19.04-5.95,28.94-6.28.64-.02.64-1.02,0-1-17.85.59-37.43,6.04-47.56,21.96-4.39,6.89-6.75,15.3-5.56,23.47,1.3,8.85,6.99,15.87,13.44,21.68,15.78,14.2,34.02,26.22,52.54,36.5,18.45,10.24,38.86,20.67,60.33,21.71,20.98,1.02,40.11-8.81,56.82-20.56s33.38-25.94,48.54-40.53c15.5-14.92,29.93-30.94,43.15-47.91,6.18-7.94,12.66-16.03,16.85-25.25s4.96-18.88,2.85-28.68-6.59-19.3-11.38-28.18-9.96-16.82-15.82-24.64c-11.53-15.36-25.07-29.11-39.72-41.5-14.77-12.48-30.65-23.61-47.09-33.78-18.05-11.16-36.9-21.26-56.92-28.42-20.09-7.19-41.18-11.01-62.55-10.1-21.81.93-43.18,6.26-63.8,13.18-21.14,7.1-41.65,15.92-62.36,24.15-18.25,7.25-36.64,14.12-55.02,21.03-36.19,13.6-72.42,27.34-107.18,44.33s-66.59,36.48-94.66,61.97c-6.91,6.27-13.51,12.87-19.8,19.77-.43.47.27,1.18.71.71h0Z"/>
  <path class="cls-1" d="M657.08,503.27c24.3-9.55,47.53-21.77,69.17-36.39,21.63-14.62,41.67-31.59,59.61-50.55,9.01-9.52,17.63-19.51,25.36-30.11s14.74-22.85,17.77-36.1c5.74-25.09-1.44-51.68-14.81-73.16-14.12-22.66-35.32-40-57.45-54.43-11.53-7.52-23.46-14.52-35.61-21-12.53-6.68-25.46-12.72-38.92-17.28-24.45-8.29-51.64-11.79-76.52-3.3-20.64,7.04-39.89,21.48-49.4,41.49-4.7,9.89-6.68,20.89-5.49,31.79,1.32,12.1,6.26,23.57,13.28,33.44,15.46,21.72,39.79,34.13,64.62,42.09,6.48,2.08,13.05,3.88,19.65,5.56.62.16.89-.81.27-.96-25.67-6.53-52.22-15.36-71.94-33.82-17.48-16.37-29.23-40.54-23.92-64.78,4.73-21.59,21.46-38.65,40.65-48.5,10.04-5.15,21.05-8.55,32.29-9.69,13.5-1.37,27.23.02,40.41,3.1,27,6.32,51.9,19.56,75.54,33.67,22.62,13.5,44.7,28.85,61.63,49.28,16.22,19.58,27.23,44.57,26.69,70.32-.28,13.23-3.97,25.87-10.35,37.43-6.5,11.79-15.09,22.39-23.87,32.54-16.72,19.35-35.56,36.87-56.04,52.18-20.3,15.18-42.21,28.21-65.27,38.75-5.81,2.65-11.69,5.14-17.63,7.48-.59.23-.33,1.2.27.96h0Z"/>
  <path class="cls-1" d="M422.69,704.99c20.75-29.35,35.57-62.69,44.12-97.58,8.53-34.83,10.88-71.19,6.88-106.83s-13.79-68.1-28.66-99.39c-14.79-31.12-34.43-59.91-57.81-85.21-11.77-12.73-24.49-24.58-38.04-35.39-14.17-11.31-29.55-22.05-47.24-26.93-18.56-5.12-38.1-2.59-56.15,3.33-17.53,5.75-34.5,14.26-49.82,24.53-14.7,9.86-28,21.96-37.97,36.66-10.06,14.83-16.55,31.75-20.98,49.03s-7.09,36.27-9.31,54.6c-2.39,19.74-4.17,40.21,1.07,59.67,8.73,32.44,36.88,56.5,67.61,67.7s67.67,10.5,98.68-2.59c7.59-3.2,14.85-7.14,21.68-11.75.53-.36.03-1.22-.5-.86-28.08,18.97-63.46,25.94-96.77,20.27-32.66-5.57-64.57-23.96-81.44-53.15-9.54-16.5-12.21-35.25-11.52-54.08.36-9.93,1.52-19.81,2.76-29.66,1.15-9.18,2.4-18.35,3.99-27.46,3.06-17.61,7.35-35.17,14.71-51.52,7.35-16.32,17.87-30.74,31.23-42.65s28.63-21.11,44.63-28.73c17.55-8.36,36.65-14.96,56.29-15.11s36.88,7.21,52.72,17.84c14.38,9.65,27.71,21.1,40.15,33.13,24.37,23.57,45.28,50.73,61.7,80.39,16.4,29.61,28.31,61.72,34.64,94.99,6.63,34.86,6.98,70.9,1.23,105.91-5.7,34.74-17.43,68.53-35.05,99.03-4.22,7.31-8.79,14.42-13.66,21.32-.37.53.49,1.03.86.5h0Z"/>
  <path class="cls-1" d="M230.2,824.34c-36.24-7.68-62.07,42.1-40.36,69.77,11.56,14.73,31.44,20.24,49.5,17.96,20.56-2.59,37.58-15.18,46.33-33.95,21.44-45.97-7.54-94.4-47.19-118.37-38.06-23.01-99.69-38.07-134.75-1.64-31.77,33.01-20.17,87.23-1.48,123.72,22.8,44.52,61.27,85.1,113.1,91.67,57.78,7.32,115.02-23.79,161.15-55.18,48.09-32.72,88.6-73.73,123.26-120.28,18.71-25.14,37.11-50.75,60.96-71.36s52.29-36.97,79.24-54.19c51.94-33.19,101.09-70.51,149.39-108.74,50.76-40.18,100.68-81.45,152.43-120.37,50.69-38.13,103.38-73.32,158.52-104.71,113.87-64.82,235.83-115.97,360.42-156.19,62.46-20.16,125.86-37.4,189.93-51.63,30.63-6.8,61.79-14.49,93.03-17.85,28.02-3.01,59.99.18,75.56,27.07,7.6,13.12,10.13,28.56,11.99,43.39s3.06,29.33,3.42,44.06c.74,30.04-2.13,60.58-12.12,89.07-17.92,51.1-64.99,95.75-121.92,94.5-59.03-1.3-102.11-61.75-84.04-117.96,8.61-26.8,29.63-50.37,57.03-58.48,25.33-7.5,60.28-1.37,69.17,27.17,6.3,20.22-2.48,47.02-25.13,51.54-.63.13-.36,1.09.27.96,15.97-3.19,25.51-17.42,27.46-32.95,2.35-18.72-6.34-35.89-23.18-44.57-42.49-21.89-90.7,12.48-105.35,52.48-16.38,44.74,6.03,96.4,49.77,115.45s93.15-.75,124.21-33.1c37.88-39.46,46.75-97.42,44.63-150.02-1.03-25.46-1.92-55.33-13.5-78.56-10.28-20.63-30.5-30.24-52.76-31.78-26.98-1.86-54.38,5.19-80.61,10.51-31.9,6.46-63.64,13.67-95.2,21.61-63.65,16.01-126.54,35.01-188.41,56.9-120.68,42.69-238.66,95.62-347.81,162.75-107.86,66.33-202.94,149.88-302.97,226.95-24.79,19.1-49.92,37.78-75.66,55.6-25.48,17.65-51.94,33.67-77.91,50.57-24.88,16.19-47.84,34.19-67.24,56.8s-36.35,48.51-55.66,71.87c-38.36,46.42-85.39,85.65-137.96,115.03-53.18,29.72-119.32,49.94-174.71,13.96-44.05-28.61-78.38-85.05-79.89-138.02-.77-26.72,8.94-53.52,32.82-67.71,24.57-14.6,55.98-12.36,82.32-4.27,52.8,16.2,107.43,65.26,87.57,126.01-8.37,25.59-31.04,42.37-58.09,41.71-24.44-.6-48.84-17.6-47.08-44.18,1.55-23.39,22.25-47.36,47.24-42.07.63.13.9-.83.27-.96h0Z"/>
</svg>